<svg xmlns="http://www.w3.org/2000/svg" viewBox="0 0 512 512"><defs><style>.cls-1{fill:#f44f2f;}.cls-2{fill:#ccc;}.cls-3{fill:#52c0d7;}.cls-4{fill:#999;}.cls-5{fill:#0ef9fd;}.cls-6{fill:#f1552d;}.cls-7{fill:#6e706d;}.cls-8{fill:none;stroke:#000;stroke-miterlimit:10;stroke-width:6px;}</style></defs><g id="SS"><g id="S5"><path class="cls-1" d="M474.61,268.36l-10.09,30.53-24.48,26H380a56,56,0,0,1,41.59-54.63h0A55.71,55.71,0,0,1,436,268.36Z"/><path class="cls-2" d="M474.61,268.36H436a55.71,55.71,0,0,0-14.41,1.88H383.53L285,199.4l-27.57.39V183.3a14.51,14.51,0,0,0-14.51-14.51H207A32.42,32.42,0,0,0,174.6,201l-20.83.29v0L97.6,177.15v-9.51L73.43,161.2l16.94-16.46h48.78l35.49,4H288.17L367.1,199.4h-50l47.49,34.14L384.63,248h58.16Z"/><polygon class="cls-3" points="442.79 247.95 384.63 247.95 364.58 233.54 420.32 233.54 442.79 247.95"/><path class="cls-4" d="M174.6,201l68.28-1,14.52-.2L285,199.4l98.56,70.84h38.06A56,56,0,0,0,380,324.87H315.41l-46.92,25.74h-50l-38.86,16.65H145.37l-73.16-54H51V274.42l16.65-18.67V242.8l29.93-8V225.3l56.16-24.06h0ZM326,275.68a47,47,0,0,0-26.2-42.15A47,47,0,0,0,279,228.69H177l-46.7,7.88a14.51,14.51,0,0,0-14.51,14.51v49.2a14.51,14.51,0,0,0,14.51,14.51l46.7,7.88H279a47,47,0,0,0,20.79-4.84A47,47,0,0,0,326,275.68Z"/><polygon class="cls-5" points="367.11 199.4 420.32 233.54 364.58 233.54 317.09 199.4 367.1 199.4 367.11 199.4"/><path class="cls-2" d="M299.81,233.53a47,47,0,0,1,0,84.3h0a117.94,117.94,0,0,1,0-84.28Z"/><path class="cls-1" d="M278.27,275.68a156.73,156.73,0,0,1,7-46.57,46.48,46.48,0,0,1,14.5,4.42h0a117.94,117.94,0,0,0,0,84.28h0a46.48,46.48,0,0,1-14.5,4.42A156.73,156.73,0,0,1,278.27,275.68Z"/><path class="cls-2" d="M279,228.69a46.69,46.69,0,0,1,6.29.42,156.73,156.73,0,0,0-7,46.57H177v-47Z"/><path class="cls-2" d="M285.31,322.25a46.69,46.69,0,0,1-6.29.42H177v-47H278.27A156.73,156.73,0,0,0,285.31,322.25Z"/><path class="cls-6" d="M257.39,199.4v.39l-14.52.2v-31.2a14.51,14.51,0,0,1,14.51,14.51Z"/><path class="cls-6" d="M242.88,168.79V200l-68.28,1A32.42,32.42,0,0,1,207,168.79Z"/><polygon class="cls-7" points="176.98 275.68 176.98 322.67 130.28 314.79 130.28 236.57 176.98 228.69 176.98 275.68"/><polygon class="cls-7" points="153.77 201.21 153.77 201.24 153.76 201.24 97.6 225.3 97.6 234.82 67.67 242.8 67.67 225.63 90.65 219.51 90.65 214.44 120.65 201.58 90.65 188.72 90.65 183.64 59 175.21 73.43 161.2 97.6 167.64 97.6 177.15 153.77 201.21"/><path class="cls-7" d="M130.28,236.57v78.22a14.51,14.51,0,0,1-14.51-14.51v-49.2A14.51,14.51,0,0,1,130.28,236.57Z"/><polygon class="cls-6" points="120.65 201.58 90.65 214.44 90.65 219.51 67.67 225.63 67.67 224.97 37.39 196.21 59 175.21 90.65 183.64 90.65 188.72 120.65 201.58"/><path class="cls-8" d="M421.59,270.24A56,56,0,0,0,380,324.87h60l24.48-26,10.09-30.53H436a55.71,55.71,0,0,0-14.41,1.88"/><polyline class="cls-8" points="367.11 199.4 420.32 233.54 442.79 247.95 474.61 268.36"/><polyline class="cls-8" points="380 324.87 315.41 324.87 268.49 350.61 218.54 350.61 179.68 367.26 145.37 367.26 72.21 313.27 51.02 313.27 51.02 274.42 67.67 255.75 67.67 242.8 67.67 225.63 67.67 224.97 37.39 196.21 59 175.21 73.43 161.2 90.37 144.74 139.15 144.74 174.64 148.77 288.17 148.77 367.1 199.4"/><path class="cls-8" d="M177,228.69H279a47,47,0,0,1,33.23,80.22,47.16,47.16,0,0,1-12.44,8.92A47,47,0,0,1,279,322.67H177"/><polyline class="cls-8" points="130.28 314.79 176.98 322.67 176.98 275.68 176.98 228.69 130.28 236.57"/><path class="cls-8" d="M130.28,314.79a14.51,14.51,0,0,1-14.51-14.51v-49.2a14.51,14.51,0,0,1,14.51-14.51Z"/><path class="cls-8" d="M299.81,317.82a117.94,117.94,0,0,1,0-84.28"/><path class="cls-8" d="M285.31,322.25a157.55,157.55,0,0,1,0-93.14"/><polyline class="cls-8" points="153.77 201.24 174.6 200.95 242.88 199.99 257.4 199.79 284.97 199.4 383.53 270.24 421.59 270.24 421.6 270.24"/><polyline class="cls-8" points="367.11 199.4 367.1 199.4 317.09 199.4 364.58 233.54 384.63 247.95 442.79 247.95"/><path class="cls-8" d="M174.6,201.21V201A32.42,32.42,0,0,1,207,168.79h35.87v31.47"/><polyline class="cls-8" points="153.77 201.24 153.76 201.24 97.6 225.3 97.6 234.82 67.67 242.8"/><polyline class="cls-8" points="73.43 161.2 97.6 167.64 97.6 177.15 153.77 201.21"/><polyline class="cls-8" points="59 175.21 90.65 183.64 90.65 188.72 120.65 201.58 90.65 214.44 90.65 219.51 67.67 225.63"/><polyline class="cls-8" points="176.98 275.68 278.27 275.68 278.29 275.68"/><path class="cls-8" d="M242.88,168.79a14.51,14.51,0,0,1,14.51,14.51v16.1"/><line class="cls-8" x1="420.32" y1="233.54" x2="364.58" y2="233.54"/></g></g></svg>