<svg xmlns="http://www.w3.org/2000/svg" viewBox="0 0 1024 1024"><defs><style>.cls-1{fill:#0ef9fd;}.cls-2{fill:#52c0d7;}.cls-3{fill:#999;}.cls-4{fill:#f1552d;}.cls-5{fill:#f44f2f;}.cls-6{fill:#ccc;}.cls-7{fill:#6e706d;}.cls-8{fill:none;stroke:#000;stroke-miterlimit:10;stroke-width:7px;}</style></defs><g id="SS"><g id="L3"><path class="cls-1" d="M1010.4,589.68a60.3,60.3,0,0,1-6,26.33h0a60.14,60.14,0,0,1-26.28,6A171.34,171.34,0,0,1,806.76,450.68V407.19h21.16C928.7,407.19,1010.4,488.89,1010.4,589.68Z"/><path class="cls-2" d="M1004.38,616a60.48,60.48,0,0,1-54.48,34.18A171.33,171.33,0,0,1,778.57,478.86V407.19h28.19v43.49A171.34,171.34,0,0,0,978.1,622,60.14,60.14,0,0,0,1004.38,616Z"/><path class="cls-3" d="M778.57,478.86A171.33,171.33,0,0,0,949.9,650.19a274,274,0,0,1-216.16,41.27L340.59,601.59a119.06,119.06,0,0,0,6.12-37.8H430.4a59.4,59.4,0,0,0,0-118.8H346.71a119,119,0,0,0-34.95-84.39c-2.54-2.53-5.19-5-7.94-7.25A530.86,530.86,0,0,0,441.67,398.6a531,531,0,0,0,95.15,8.59H778.57Zm42.5,165.35a28.44,28.44,0,1,0-28.44,28.44A28.44,28.44,0,0,0,821.07,644.21ZM737.84,504.39a25.2,25.2,0,0,0-25.2-25.2H534.79a25.2,25.2,0,0,0,0,50.4H712.64a25.2,25.2,0,0,0,25.2-25.2Z"/><circle class="cls-4" cx="792.63" cy="644.21" r="28.44"/><path class="cls-5" d="M737.84,504.39H509.6a25.2,25.2,0,0,1,25.19-25.2H712.64A25.2,25.2,0,0,1,737.84,504.39Z"/><path class="cls-5" d="M509.6,504.39H737.84a25.2,25.2,0,0,1-25.2,25.2H534.79A25.19,25.19,0,0,1,509.6,504.39Z"/><path class="cls-3" d="M733.74,691.46,556.18,668a1052.34,1052.34,0,0,0-269-.91,119.61,119.61,0,0,0,53.38-65.47Z"/><path class="cls-6" d="M719.07,407.19H536.82a531,531,0,0,1-95.15-8.59,64.81,64.81,0,0,1,64.23-56.21H654.27A64.8,64.8,0,0,1,719.07,407.19Zm-47.91-32.4a14.58,14.58,0,0,0-14.58-14.58h-153a14.58,14.58,0,1,0,0,29.16h153a14.58,14.58,0,0,0,14.58-14.58Z"/><path class="cls-5" d="M656.58,360.21a14.58,14.58,0,1,1,0,29.16h-153a14.58,14.58,0,1,1,0-29.16Z"/><path class="cls-6" d="M472.4,462.39a59.4,59.4,0,0,1-42,101.4H346.71A119.3,119.3,0,0,1,227.37,683.13H76.15V612.71l117.37-13.39a174.43,174.43,0,0,0,136.07-94.93,174.43,174.43,0,0,0-136.07-94.93L76.15,396.07V325.65H227.37a118.89,118.89,0,0,1,76.45,27.7c2.75,2.29,5.4,4.72,7.94,7.25A119,119,0,0,1,346.71,445H430.4A59.21,59.21,0,0,1,472.4,462.39Zm-23,42a28.08,28.08,0,0,0-28.08-28.08H386.67a28.08,28.08,0,0,0,0,56.16h34.65a28.06,28.06,0,0,0,28.08-28.08Z"/><path class="cls-7" d="M421.32,476.31a28.08,28.08,0,1,1,0,56.16H386.67a28.08,28.08,0,1,1,0-56.16Z"/><path class="cls-5" d="M279.56,504.39a37.8,37.8,0,0,1-37.8,37.8H213.68v-75.6h28.08A37.8,37.8,0,0,1,279.56,504.39Z"/><path class="cls-7" d="M193.52,409.46a174.43,174.43,0,0,1,136.07,94.93,174.43,174.43,0,0,1-136.07,94.93L76.15,612.71V396.07Zm75,121.66a37.8,37.8,0,0,0-26.73-64.53H132.68a37.8,37.8,0,1,0,0,75.6H241.76A37.7,37.7,0,0,0,268.49,531.12Z"/><rect class="cls-4" x="160.76" y="466.59" width="52.92" height="75.6"/><path class="cls-5" d="M160.76,466.59v75.6H132.68a37.8,37.8,0,1,1,0-75.6Z"/><path class="cls-7" d="M47.35,601.87V336.13l28.8-10.48V683.13A43.77,43.77,0,0,1,47.35,642Z"/><rect class="cls-7" x="27.35" y="543.55" width="20" height="58.32"/><rect class="cls-7" x="27.35" y="455.23" width="20" height="58.32"/><rect class="cls-7" x="27.35" y="366.91" width="20" height="58.32"/><path class="cls-7" d="M27.35,543.55v58.32A13.76,13.76,0,0,1,13.6,588.11v-30.8a13.76,13.76,0,0,1,13.75-13.76Z"/><path class="cls-7" d="M27.35,455.23v58.32A13.76,13.76,0,0,1,13.6,499.79V469a13.76,13.76,0,0,1,13.75-13.76Z"/><path class="cls-7" d="M27.35,366.91v58.32A13.76,13.76,0,0,1,13.6,411.47v-30.8a13.76,13.76,0,0,1,13.75-13.76Z"/><path class="cls-8" d="M1004.38,616a60.48,60.48,0,0,1-54.48,34.18A171.33,171.33,0,0,1,778.57,478.86V407.19h49.35c100.78,0,182.48,81.7,182.48,182.49a60.3,60.3,0,0,1-6,26.33"/><path class="cls-8" d="M1004.4,616h0a60.14,60.14,0,0,1-26.28,6A171.34,171.34,0,0,1,806.76,450.68V407.19"/><path class="cls-8" d="M737.84,504.39a25.2,25.2,0,0,1-25.2,25.2H534.79a25.2,25.2,0,0,1,0-50.4H712.64A25.2,25.2,0,0,1,737.84,504.39Z"/><path class="cls-8" d="M340.59,601.59a119.06,119.06,0,0,0,6.12-37.8H430.4a59.4,59.4,0,0,0,0-118.8H346.71a119,119,0,0,0-34.95-84.39c-2.54-2.53-5.19-5-7.94-7.25a118.89,118.89,0,0,0-76.45-27.7H76.15l-28.8,10.48V642a43.77,43.77,0,0,0,28.8,41.13H227.37a119.33,119.33,0,0,0,113.22-81.54Z"/><path class="cls-8" d="M160.76,542.19H132.68a37.8,37.8,0,1,1,0-75.6h28.08"/><path class="cls-8" d="M213.68,466.59h28.08a37.8,37.8,0,1,1,0,75.6H213.68"/><rect class="cls-8" x="160.76" y="466.59" width="52.92" height="75.6"/><path class="cls-8" d="M949.9,650.19a274,274,0,0,1-216.16,41.27L340.59,601.59"/><path class="cls-8" d="M441.67,398.6a64.81,64.81,0,0,1,64.23-56.21H654.27a64.8,64.8,0,0,1,64.8,64.8"/><path class="cls-8" d="M656.58,389.37h-153a14.58,14.58,0,1,1,0-29.16h153a14.58,14.58,0,1,1,0,29.16Z"/><circle class="cls-8" cx="792.63" cy="644.21" r="28.44"/><line class="cls-8" x1="509.6" y1="504.39" x2="737.84" y2="504.39"/><path class="cls-8" d="M421.32,532.47H386.67a28.08,28.08,0,1,1,0-56.16h34.65a28.08,28.08,0,1,1,0,56.16Z"/><polyline class="cls-8" points="76.15 325.65 76.15 396.07 76.15 612.71 76.15 683.13"/><polyline class="cls-8" points="27.35 513.55 47.35 513.55 47.36 513.55"/><polyline class="cls-8" points="47.36 455.23 47.35 455.23 27.35 455.23"/><path class="cls-8" d="M27.35,513.55V455.23A13.76,13.76,0,0,0,13.6,469v30.8A13.76,13.76,0,0,0,27.35,513.55Z"/><polyline class="cls-8" points="27.35 601.87 47.35 601.87 47.36 601.87"/><polyline class="cls-8" points="47.36 543.55 47.35 543.55 27.35 543.55"/><path class="cls-8" d="M27.35,601.87V543.55A13.76,13.76,0,0,0,13.6,557.31v30.8A13.76,13.76,0,0,0,27.35,601.87Z"/><polyline class="cls-8" points="27.35 425.23 47.35 425.23 47.36 425.23"/><polyline class="cls-8" points="47.36 366.91 47.35 366.91 27.35 366.91"/><path class="cls-8" d="M27.35,425.23V366.91A13.76,13.76,0,0,0,13.6,380.67v30.8A13.76,13.76,0,0,0,27.35,425.23Z"/><path class="cls-8" d="M287.21,667.06a1052.34,1052.34,0,0,1,269,.91l177.56,23.49"/><path class="cls-8" d="M778.57,407.19H536.82a531,531,0,0,1-95.15-8.59,530.86,530.86,0,0,1-137.85-45.25"/><path class="cls-8" d="M76.15,396.07l117.37,13.39a174.43,174.43,0,0,1,136.07,94.93,174.43,174.43,0,0,1-136.07,94.93L76.15,612.71"/></g></g></svg>