<svg xmlns="http://www.w3.org/2000/svg" viewBox="0 0 1024 1024"><defs><style>.cls-1{fill:#0ef9fd;}.cls-2{fill:#52c0d7;}.cls-3{fill:#999;}.cls-4{fill:#f2da30;}.cls-5{fill:#efd82e;}.cls-6{fill:#ccc;}.cls-7{fill:#6e706d;}.cls-8{fill:none;stroke:#000;stroke-miterlimit:10;stroke-width:7px;}</style></defs><g id="SS"><g id="L3"><path class="cls-1" d="M1006.65,589.68a60.3,60.3,0,0,1-6,26.33h0a60.14,60.14,0,0,1-26.28,6A171.34,171.34,0,0,1,803,450.68V407.19h21.16C925,407.19,1006.65,488.89,1006.65,589.68Z"/><path class="cls-2" d="M1000.63,616a60.48,60.48,0,0,1-54.48,34.18A171.33,171.33,0,0,1,774.82,478.86V407.19H803v43.49A171.34,171.34,0,0,0,974.35,622,60.14,60.14,0,0,0,1000.63,616Z"/><path class="cls-3" d="M774.82,478.86A171.33,171.33,0,0,0,946.15,650.19,274,274,0,0,1,730,691.46L336.84,601.59a119.06,119.06,0,0,0,6.12-37.8h83.69a59.4,59.4,0,0,0,0-118.8H343A119,119,0,0,0,308,360.6c-2.54-2.53-5.19-5-7.94-7.25A530.86,530.86,0,0,0,437.92,398.6a531,531,0,0,0,95.15,8.59H774.82Zm42.5,165.35a28.44,28.44,0,1,0-28.44,28.44A28.44,28.44,0,0,0,817.32,644.21ZM734.09,504.39a25.2,25.2,0,0,0-25.2-25.2H531a25.2,25.2,0,0,0,0,50.4H708.89a25.2,25.2,0,0,0,25.2-25.2Z"/><circle class="cls-4" cx="788.88" cy="644.21" r="28.44"/><path class="cls-5" d="M734.09,504.39H505.85A25.2,25.2,0,0,1,531,479.19H708.89A25.2,25.2,0,0,1,734.09,504.39Z"/><path class="cls-5" d="M505.85,504.39H734.09a25.2,25.2,0,0,1-25.2,25.2H531A25.19,25.19,0,0,1,505.85,504.39Z"/><path class="cls-3" d="M730,691.46,552.43,668a1052.34,1052.34,0,0,0-269-.91,119.61,119.61,0,0,0,53.38-65.47Z"/><path class="cls-6" d="M715.32,407.19H533.07a531,531,0,0,1-95.15-8.59,64.81,64.81,0,0,1,64.23-56.21H650.52A64.8,64.8,0,0,1,715.32,407.19Zm-47.91-32.4a14.58,14.58,0,0,0-14.58-14.58h-153a14.58,14.58,0,1,0,0,29.16h153a14.58,14.58,0,0,0,14.58-14.58Z"/><path class="cls-5" d="M652.83,360.21a14.58,14.58,0,1,1,0,29.16h-153a14.58,14.58,0,1,1,0-29.16Z"/><path class="cls-6" d="M468.65,462.39a59.4,59.4,0,0,1-42,101.4H343A119.3,119.3,0,0,1,223.62,683.13H72.4V612.71l117.37-13.39a174.43,174.43,0,0,0,136.07-94.93,174.43,174.43,0,0,0-136.07-94.93L72.4,396.07V325.65H223.62a118.89,118.89,0,0,1,76.45,27.7c2.75,2.29,5.4,4.72,7.94,7.25A119,119,0,0,1,343,445h83.69A59.21,59.21,0,0,1,468.65,462.39Zm-23,42a28.08,28.08,0,0,0-28.08-28.08H382.92a28.08,28.08,0,0,0,0,56.16h34.65a28.06,28.06,0,0,0,28.08-28.08Z"/><path class="cls-7" d="M417.57,476.31a28.08,28.08,0,1,1,0,56.16H382.92a28.08,28.08,0,1,1,0-56.16Z"/><path class="cls-5" d="M275.81,504.39a37.8,37.8,0,0,1-37.8,37.8H209.93v-75.6H238A37.8,37.8,0,0,1,275.81,504.39Z"/><path class="cls-7" d="M189.77,409.46a174.43,174.43,0,0,1,136.07,94.93,174.43,174.43,0,0,1-136.07,94.93L72.4,612.71V396.07Zm75,121.66A37.8,37.8,0,0,0,238,466.59H128.93a37.8,37.8,0,1,0,0,75.6H238A37.7,37.7,0,0,0,264.74,531.12Z"/><rect class="cls-4" x="157.01" y="466.59" width="52.92" height="75.6"/><path class="cls-5" d="M157,466.59v75.6H128.93a37.8,37.8,0,1,1,0-75.6Z"/><path class="cls-7" d="M43.6,601.87V336.13l28.8-10.48V683.13A43.77,43.77,0,0,1,43.6,642Z"/><rect class="cls-7" x="23.6" y="543.55" width="20" height="58.32"/><rect class="cls-7" x="23.6" y="455.23" width="20" height="58.32"/><rect class="cls-7" x="23.6" y="366.91" width="20" height="58.32"/><path class="cls-7" d="M23.6,543.55v58.32A13.76,13.76,0,0,1,9.85,588.11v-30.8A13.76,13.76,0,0,1,23.6,543.55Z"/><path class="cls-7" d="M23.6,455.23v58.32A13.76,13.76,0,0,1,9.85,499.79V469A13.76,13.76,0,0,1,23.6,455.23Z"/><path class="cls-7" d="M23.6,366.91v58.32A13.76,13.76,0,0,1,9.85,411.47v-30.8A13.76,13.76,0,0,1,23.6,366.91Z"/><path class="cls-8" d="M1000.63,616a60.48,60.48,0,0,1-54.48,34.18A171.33,171.33,0,0,1,774.82,478.86V407.19h49.35c100.78,0,182.48,81.7,182.48,182.49a60.3,60.3,0,0,1-6,26.33"/><path class="cls-8" d="M1000.65,616h0a60.14,60.14,0,0,1-26.28,6A171.34,171.34,0,0,1,803,450.68V407.19"/><path class="cls-8" d="M734.09,504.39a25.2,25.2,0,0,1-25.2,25.2H531a25.2,25.2,0,0,1,0-50.4H708.89A25.2,25.2,0,0,1,734.09,504.39Z"/><path class="cls-8" d="M336.84,601.59a119.06,119.06,0,0,0,6.12-37.8h83.69a59.4,59.4,0,0,0,0-118.8H343A119,119,0,0,0,308,360.6c-2.54-2.53-5.19-5-7.94-7.25a118.89,118.89,0,0,0-76.45-27.7H72.4L43.6,336.13V642a43.77,43.77,0,0,0,28.8,41.13H223.62a119.33,119.33,0,0,0,113.22-81.54Z"/><path class="cls-8" d="M157,542.19H128.93a37.8,37.8,0,1,1,0-75.6H157"/><path class="cls-8" d="M209.93,466.59H238a37.8,37.8,0,1,1,0,75.6H209.93"/><rect class="cls-8" x="157.01" y="466.59" width="52.92" height="75.6"/><path class="cls-8" d="M946.15,650.19A274,274,0,0,1,730,691.46L336.84,601.59"/><path class="cls-8" d="M437.92,398.6a64.81,64.81,0,0,1,64.23-56.21H650.52a64.8,64.8,0,0,1,64.8,64.8"/><path class="cls-8" d="M652.83,389.37h-153a14.58,14.58,0,1,1,0-29.16h153a14.58,14.58,0,1,1,0,29.16Z"/><circle class="cls-8" cx="788.88" cy="644.21" r="28.44"/><line class="cls-8" x1="505.85" y1="504.39" x2="734.09" y2="504.39"/><path class="cls-8" d="M417.57,532.47H382.92a28.08,28.08,0,1,1,0-56.16h34.65a28.08,28.08,0,1,1,0,56.16Z"/><polyline class="cls-8" points="72.4 325.65 72.4 396.07 72.4 612.71 72.4 683.13"/><polyline class="cls-8" points="23.6 513.55 43.6 513.55 43.61 513.55"/><polyline class="cls-8" points="43.61 455.23 43.6 455.23 23.6 455.23"/><path class="cls-8" d="M23.6,513.55V455.23A13.76,13.76,0,0,0,9.85,469v30.8A13.76,13.76,0,0,0,23.6,513.55Z"/><polyline class="cls-8" points="23.6 601.87 43.6 601.87 43.61 601.87"/><polyline class="cls-8" points="43.61 543.55 43.6 543.55 23.6 543.55"/><path class="cls-8" d="M23.6,601.87V543.55A13.76,13.76,0,0,0,9.85,557.31v30.8A13.76,13.76,0,0,0,23.6,601.87Z"/><polyline class="cls-8" points="23.6 425.23 43.6 425.23 43.61 425.23"/><polyline class="cls-8" points="43.61 366.91 43.6 366.91 23.6 366.91"/><path class="cls-8" d="M23.6,425.23V366.91A13.76,13.76,0,0,0,9.85,380.67v30.8A13.76,13.76,0,0,0,23.6,425.23Z"/><path class="cls-8" d="M283.46,667.06a1052.34,1052.34,0,0,1,269,.91L730,691.46"/><path class="cls-8" d="M774.82,407.19H533.07a531,531,0,0,1-95.15-8.59,530.86,530.86,0,0,1-137.85-45.25"/><path class="cls-8" d="M72.4,396.07l117.37,13.39a174.43,174.43,0,0,1,136.07,94.93,174.43,174.43,0,0,1-136.07,94.93L72.4,612.71"/></g></g></svg>