<svg id="Слой_1" data-name="Слой 1" xmlns="http://www.w3.org/2000/svg" viewBox="0 0 256 256"><defs><style>.cls-1{fill:#6e706d;}.cls-2{fill:#999;}.cls-3{fill:#ccc;}.cls-4{fill:#52c0d7;}.cls-5{fill:none;stroke:#000;stroke-miterlimit:10;stroke-width:6px;}</style></defs><g id="Empty"><path class="cls-1" d="M202.83,53.17a81.82,81.82,0,0,1,0,149.66l-1.2.52a59.83,59.83,0,0,0-20.71,14.88,71.68,71.68,0,0,1-105.84,0,59.83,59.83,0,0,0-20.71-14.88l-1.2-.52a81.82,81.82,0,0,1,0-149.66l1.2-.52A60,60,0,0,0,75.08,37.77a71.68,71.68,0,0,1,105.84,0,60,60,0,0,0,20.71,14.88Zm4.67,135.88A71.77,71.77,0,0,0,169.77,56.21h-2.6a81.71,81.71,0,0,0-78.34,0h-2.6a71.32,71.32,0,0,0-25.38,4.64A70.19,70.19,0,0,0,48.5,67a71.74,71.74,0,0,0,0,122.1,70.19,70.19,0,0,0,12.35,6.1,71.32,71.32,0,0,0,25.38,4.64h2.6a81.71,81.71,0,0,0,78.34,0h2.6a71.32,71.32,0,0,0,25.38-4.64A70.19,70.19,0,0,0,207.5,189.05Z"/><path class="cls-2" d="M241.56,128a71.8,71.8,0,0,1-34.06,61.05,70.19,70.19,0,0,1-12.35,6.1,71.32,71.32,0,0,1-25.38,4.64h-2.6a82.42,82.42,0,0,0,32.62-32.62,81.71,81.71,0,0,0,0-78.34,82.42,82.42,0,0,0-32.62-32.62h2.6A71.88,71.88,0,0,1,241.56,128Z"/><path class="cls-3" d="M199.79,88.83a81.71,81.71,0,0,1,0,78.34,82.42,82.42,0,0,1-32.62,32.62,81.71,81.71,0,0,1-78.34,0,82.42,82.42,0,0,1-32.62-32.62,81.71,81.71,0,0,1,0-78.34A82.42,82.42,0,0,1,88.83,56.21a81.71,81.71,0,0,1,78.34,0A82.42,82.42,0,0,1,199.79,88.83Zm-5,39.17A66.79,66.79,0,1,0,128,194.79,66.79,66.79,0,0,0,194.79,128Z"/><path class="cls-1" d="M202.83,53.17l-1.2-.52a60,60,0,0,1-20.71-14.88,71.68,71.68,0,0,0-105.84,0A60,60,0,0,1,54.37,52.65l-1.2.52a81.82,81.82,0,0,1,149.66,0Z"/><path class="cls-1" d="M201.63,203.35l1.2-.52a81.82,81.82,0,0,1-149.66,0l1.2.52a59.83,59.83,0,0,1,20.71,14.88,71.68,71.68,0,0,0,105.84,0A59.83,59.83,0,0,1,201.63,203.35Z"/><path class="cls-4" d="M128,61.2A66.8,66.8,0,1,1,61.21,128,66.79,66.79,0,0,1,128,61.2Z"/><path class="cls-2" d="M86.23,56.21h2.6A82.42,82.42,0,0,0,56.21,88.83a81.71,81.71,0,0,0,0,78.34,82.42,82.42,0,0,0,32.62,32.62h-2.6a71.32,71.32,0,0,1-25.38-4.64,70.19,70.19,0,0,1-12.35-6.1A71.74,71.74,0,0,1,48.5,67a70.19,70.19,0,0,1,12.35-6.1A71.32,71.32,0,0,1,86.23,56.21Z"/><path class="cls-5" d="M167.17,56.21a82.42,82.42,0,0,1,32.62,32.62,81.71,81.71,0,0,1,0,78.34,82.42,82.42,0,0,1-32.62,32.62,81.71,81.71,0,0,1-78.34,0,82.42,82.42,0,0,1-32.62-32.62,81.71,81.71,0,0,1,0-78.34A82.42,82.42,0,0,1,88.83,56.21a81.71,81.71,0,0,1,78.34,0Z"/><path class="cls-5" d="M194.79,128A66.79,66.79,0,1,1,128,61.2,66.79,66.79,0,0,1,194.79,128Z"/><path class="cls-5" d="M53.17,202.83a81.82,81.82,0,0,0,149.66,0"/><path class="cls-5" d="M202.83,202.83l-1.2.52a59.83,59.83,0,0,0-20.71,14.88,71.68,71.68,0,0,1-105.84,0,59.83,59.83,0,0,0-20.71-14.88l-1.2-.52a81.82,81.82,0,0,1,0-149.66l1.2-.52A60,60,0,0,0,75.08,37.77a71.68,71.68,0,0,1,105.84,0,60,60,0,0,0,20.71,14.88l1.2.52a81.82,81.82,0,0,1,0,149.66Z"/><path class="cls-5" d="M53.17,53.17a81.82,81.82,0,0,1,149.66,0"/><path class="cls-5" d="M88.83,56.21h-2.6a71.32,71.32,0,0,0-25.38,4.64A70.19,70.19,0,0,0,48.5,67a71.74,71.74,0,0,0,0,122.1,70.19,70.19,0,0,0,12.35,6.1,71.32,71.32,0,0,0,25.38,4.64h2.6"/><path class="cls-5" d="M167.17,199.79h2.6a71.32,71.32,0,0,0,25.38-4.64,70.19,70.19,0,0,0,12.35-6.1A71.77,71.77,0,0,0,169.77,56.21h-2.6"/></g></svg>