<svg id="Слой_1" data-name="Слой 1" xmlns="http://www.w3.org/2000/svg" viewBox="0 0 256 256"><defs><style>.cls-1{fill:#6e706d;}.cls-2{fill:#999;}.cls-3{fill:#ccc;}.cls-4{fill:#f44f2f;}.cls-5{fill:#52c0d7;}.cls-6{fill:#dd1414;}.cls-7,.cls-8{fill:none;stroke:#000;stroke-miterlimit:10;}.cls-7{stroke-width:6px;}.cls-8{stroke-width:4px;}</style></defs><g id="Health"><path class="cls-1" d="M202.83,53.17a81.82,81.82,0,0,1,0,149.66l-1.2.52a60,60,0,0,0-20.71,14.88,71.68,71.68,0,0,1-105.84,0,60,60,0,0,0-20.71-14.88l-1.2-.52a81.82,81.82,0,0,1,0-149.66l1.2-.52A60,60,0,0,0,75.08,37.77a71.68,71.68,0,0,1,105.84,0,60,60,0,0,0,20.71,14.88Zm4.67,135.88A71.77,71.77,0,0,0,169.77,56.21h-2.6a81.71,81.71,0,0,0-78.34,0h-2.6a71.32,71.32,0,0,0-25.38,4.64A70.19,70.19,0,0,0,48.5,67a71.74,71.74,0,0,0,0,122.1,70.19,70.19,0,0,0,12.35,6.1,71.32,71.32,0,0,0,25.38,4.64h2.6a81.71,81.71,0,0,0,78.34,0h2.6a71.32,71.32,0,0,0,25.38-4.64A70.19,70.19,0,0,0,207.5,189.05Z"/><path class="cls-2" d="M241.56,128a71.8,71.8,0,0,1-34.06,61.05,70.19,70.19,0,0,1-12.35,6.1,71.32,71.32,0,0,1-25.38,4.64h-2.6a82.42,82.42,0,0,0,32.62-32.62,81.71,81.71,0,0,0,0-78.34,82.42,82.42,0,0,0-32.62-32.62h2.6A71.88,71.88,0,0,1,241.56,128Z"/><path class="cls-3" d="M199.79,88.83a81.71,81.71,0,0,1,0,78.34,82.42,82.42,0,0,1-32.62,32.62,81.71,81.71,0,0,1-78.34,0,82.42,82.42,0,0,1-32.62-32.62,81.71,81.71,0,0,1,0-78.34A82.42,82.42,0,0,1,88.83,56.21a81.71,81.71,0,0,1,78.34,0A82.42,82.42,0,0,1,199.79,88.83Zm-5,39.17A66.79,66.79,0,1,0,128,194.79,66.79,66.79,0,0,0,194.79,128Z"/><path class="cls-1" d="M202.83,53.17l-1.2-.52a60,60,0,0,1-20.71-14.88,71.68,71.68,0,0,0-105.84,0A60,60,0,0,1,54.37,52.65l-1.2.52a81.82,81.82,0,0,1,149.66,0Z"/><path class="cls-1" d="M201.63,203.35l1.2-.52a81.82,81.82,0,0,1-149.66,0l1.2.52a60,60,0,0,1,20.71,14.88,71.68,71.68,0,0,0,105.84,0A60,60,0,0,1,201.63,203.35Z"/><path class="cls-4" d="M180.52,128a13.83,13.83,0,0,1-13.82,13.82H141.82V166.7a13.82,13.82,0,1,1-27.64,0V141.82H89.3a13.82,13.82,0,0,1,0-27.64h24.88V89.3a13.82,13.82,0,0,1,27.64,0v24.88H166.7A13.82,13.82,0,0,1,180.52,128Zm-9.7,4.12a5.83,5.83,0,0,0-4.12-9.94H133.82V89.3a5.82,5.82,0,0,0-11.64,0v32.88H89.3a5.82,5.82,0,0,0,0,11.64h32.88V166.7a5.82,5.82,0,0,0,11.64,0V133.82H166.7A5.79,5.79,0,0,0,170.82,132.12Z"/><path class="cls-5" d="M128,61.21A66.79,66.79,0,1,1,61.21,128,66.79,66.79,0,0,1,128,61.21Zm48.47,76.56a13.82,13.82,0,0,0-9.77-23.59H141.82V89.3a13.82,13.82,0,0,0-27.64,0v24.88H89.3a13.82,13.82,0,0,0,0,27.64h24.88V166.7a13.82,13.82,0,1,0,27.64,0V141.82H166.7A13.77,13.77,0,0,0,176.47,137.77Z"/><path class="cls-6" d="M172.52,128a5.8,5.8,0,0,1-5.82,5.82H133.82V166.7a5.82,5.82,0,0,1-11.64,0V133.82H89.3a5.82,5.82,0,0,1,0-11.64h32.88V89.3a5.82,5.82,0,1,1,11.64,0v32.88H166.7A5.83,5.83,0,0,1,172.52,128Z"/><path class="cls-2" d="M86.23,56.21h2.6A82.42,82.42,0,0,0,56.21,88.83a81.71,81.71,0,0,0,0,78.34,82.42,82.42,0,0,0,32.62,32.62h-2.6a71.32,71.32,0,0,1-25.38-4.64,70.19,70.19,0,0,1-12.35-6.1A71.74,71.74,0,0,1,48.5,67a70.19,70.19,0,0,1,12.35-6.1A71.32,71.32,0,0,1,86.23,56.21Z"/><path class="cls-7" d="M167.17,56.21a82.42,82.42,0,0,1,32.62,32.62,81.71,81.71,0,0,1,0,78.34,82.42,82.42,0,0,1-32.62,32.62,81.71,81.71,0,0,1-78.34,0,82.42,82.42,0,0,1-32.62-32.62,81.71,81.71,0,0,1,0-78.34A82.42,82.42,0,0,1,88.83,56.21a81.71,81.71,0,0,1,78.34,0Z"/><circle class="cls-7" cx="128" cy="128" r="66.79"/><path class="cls-7" d="M53.17,202.83a81.82,81.82,0,0,0,149.66,0"/><path class="cls-7" d="M202.83,202.83l-1.2.52a60,60,0,0,0-20.71,14.88,71.68,71.68,0,0,1-105.84,0,60,60,0,0,0-20.71-14.88l-1.2-.52a81.82,81.82,0,0,1,0-149.66l1.2-.52A60,60,0,0,0,75.08,37.77a71.68,71.68,0,0,1,105.84,0,60,60,0,0,0,20.71,14.88l1.2.52a81.82,81.82,0,0,1,0,149.66Z"/><path class="cls-7" d="M53.17,53.17a81.82,81.82,0,0,1,149.66,0"/><path class="cls-7" d="M88.83,56.21h-2.6a71.32,71.32,0,0,0-25.38,4.64A70.19,70.19,0,0,0,48.5,67a71.74,71.74,0,0,0,0,122.1,70.19,70.19,0,0,0,12.35,6.1,71.32,71.32,0,0,0,25.38,4.64h2.6"/><path class="cls-7" d="M167.17,199.79h2.6a71.32,71.32,0,0,0,25.38-4.64,70.19,70.19,0,0,0,12.35-6.1A71.77,71.77,0,0,0,169.77,56.21h-2.6"/><path class="cls-7" d="M114.18,114.18V89.3a13.82,13.82,0,0,1,27.64,0v24.88H166.7a13.82,13.82,0,0,1,0,27.64H141.82V166.7a13.82,13.82,0,1,1-27.64,0V141.82H89.3a13.82,13.82,0,0,1,0-27.64Z"/><path class="cls-8" d="M128,172.52a5.83,5.83,0,0,1-5.82-5.82V133.82H89.3a5.82,5.82,0,0,1,0-11.64h32.88V89.3a5.82,5.82,0,1,1,11.64,0v32.88H166.7a5.82,5.82,0,1,1,0,11.64H133.82V166.7A5.83,5.83,0,0,1,128,172.52Z"/></g></svg>