<?xml version="1.0" encoding="utf-8"?>
<!-- Generator: Adobe Illustrator 25.3.0, SVG Export Plug-In . SVG Version: 6.00 Build 0)  -->
<svg version="1.1" xmlns="http://www.w3.org/2000/svg" xmlns:xlink="http://www.w3.org/1999/xlink" x="0px" y="0px"
	 viewBox="0 0 256 256" style="enable-background:new 0 0 256 256;" xml:space="preserve">
<style type="text/css">
	.st0{display:none;}
	.st1{display:inline;}
	.st2{fill:#212121;}
	.st3{fill:#363636;}
	.st4{fill:#1C1C1C;}
	.st5{fill:#404040;}
	.st6{fill:#8E8E8E;}
	.st7{fill:#91C9E8;}
	.st8{fill:#3399CC;}
	.st9{fill:#446E9E;}
	.st10{fill:#335377;}
	.st11{fill:#7B52AB;}
	.st12{fill:#36175E;}
	.st13{fill:#45BF55;}
	.st14{fill:#168039;}
	.st15{fill:#EE8900;}
	.st16{fill:#D95100;}
	.st17{fill:#FFBB00;}
	.st18{fill:#D19419;}
	.st19{fill:#BF1533;}
	.st20{fill:#9A0419;}
	.st21{fill:none;stroke:#000000;stroke-miterlimit:10;}
	.st22{display:inline;fill:none;stroke:#000000;stroke-miterlimit:10;}
	.st23{fill:none;stroke:#000000;stroke-linecap:round;stroke-linejoin:round;stroke-miterlimit:10;}
	.st24{fill:none;stroke:#000000;stroke-linecap:round;stroke-miterlimit:10;}
	.st25{fill:#FFFFFF;}
	.st26{fill:none;stroke:#000000;stroke-width:0.5;stroke-linecap:round;stroke-linejoin:round;}
	.st27{fill:#773533;}
	.st28{fill:#CC3344;}
	.st29{fill:#E89199;}
	.st30{fill:#33CC78;}
	.st31{fill:#91E8BA;}
	.st32{fill:#33775F;}
	.st33{fill:#8F33CC;}
	.st34{fill:#C791E8;}
	.st35{fill:#683377;}
</style>
<g id="BG" class="st0">
</g>
<g id="Refs">
</g>
<g id="Palette">
</g>
<g id="Layer_5">
</g>
<g id="Guide" class="st0">
</g>
<g id="BLUE">
	<g id="XMLID_10_">
		<g>
			<path class="st6" d="M98.5,149.2v-37.6c0-4.8,1.5-9.2,4.1-12.8h50.8c2.6,3.6,4.1,8,4.1,12.8v37.6c0,4-3.3,7.3-7.3,7.3h-44.4
				C101.8,156.5,98.5,153.2,98.5,149.2z M103,110.5v33c0,1.2,0.5,2.4,1.3,3.2c0.8,0.8,1.9,1.3,3.2,1.3c2.5,0,4.5-2,4.5-4.5v-33
				c0-2.5-2-4.5-4.5-4.5S103,108,103,110.5z M116,110.5v33c0,1.2,0.5,2.4,1.3,3.2c0.8,0.8,1.9,1.3,3.2,1.3c2.5,0,4.5-2,4.5-4.5v-33
				c0-2.5-2-4.5-4.5-4.5S116,108,116,110.5z M134,139.5c0,2.3,0.9,4.5,2.5,6c1.5,1.5,3.7,2.5,6,2.5s4.5-0.9,6-2.5
				c1.5-1.5,2.5-3.7,2.5-6c0-4.7-3.8-8.5-8.5-8.5c-2.3,0-4.5,0.9-6,2.5C134.9,135,134,137.2,134,139.5z"/>
			<path class="st8" d="M153.4,98.8h-50.8c4-5.6,10.6-9.3,18-9.3h14.8C142.8,89.5,149.4,93.2,153.4,98.8z"/>
			<path class="st8" d="M103,143.5v-33c0-2.5,2-4.5,4.5-4.5s4.5,2,4.5,4.5v33c0,2.5-2,4.5-4.5,4.5c-1.2,0-2.4-0.5-3.2-1.3
				C103.5,145.9,103,144.7,103,143.5z"/>
			<path class="st6" d="M104,160v-3.5h1.8h44.4h0.8v3.5c0,3.6-2.9,6.5-6.5,6.5h-34C106.9,166.5,104,163.6,104,160z"/>
			<path class="st8" d="M116,143.5v-33c0-2.5,2-4.5,4.5-4.5s4.5,2,4.5,4.5v33c0,2.5-2,4.5-4.5,4.5c-1.2,0-2.4-0.5-3.2-1.3
				C116.5,145.9,116,144.7,116,143.5z"/>
			<path class="st8" d="M136.5,145.5c-1.5-1.5-2.5-3.7-2.5-6s0.9-4.5,2.5-6c1.5-1.5,3.7-2.5,6-2.5c4.7,0,8.5,3.8,8.5,8.5
				c0,2.3-0.9,4.5-2.5,6c-1.5,1.5-3.7,2.5-6,2.5S138,147.1,136.5,145.5z"/>
		</g>
		<g>
			<path class="st21" d="M105.8,156.5c-4,0-7.3-3.3-7.3-7.3v-37.6c0-4.8,1.5-9.2,4.1-12.8c4-5.6,10.6-9.3,18-9.3h14.8
				c7.4,0,14,3.7,18,9.3c2.6,3.6,4.1,8,4.1,12.8v37.6c0,4-3.3,7.3-7.3,7.3"/>
			<path class="st21" d="M150.2,156.5h0.8v3.5c0,3.6-2.9,6.5-6.5,6.5h-34c-3.6,0-6.5-2.9-6.5-6.5v-3.5h1.8H150.2z"/>
			<path class="st21" d="M142.5,131c4.7,0,8.5,3.8,8.5,8.5c0,2.3-0.9,4.5-2.5,6c-1.5,1.5-3.7,2.5-6,2.5s-4.5-0.9-6-2.5
				c-1.5-1.5-2.5-3.7-2.5-6s0.9-4.5,2.5-6C138,131.9,140.2,131,142.5,131z"/>
			<path class="st21" d="M107.5,106c2.5,0,4.5,2,4.5,4.5v33c0,2.5-2,4.5-4.5,4.5c-1.2,0-2.4-0.5-3.2-1.3c-0.8-0.8-1.3-1.9-1.3-3.2
				v-33C103,108,105,106,107.5,106z"/>
			<path class="st21" d="M120.5,106c2.5,0,4.5,2,4.5,4.5v33c0,2.5-2,4.5-4.5,4.5c-1.2,0-2.4-0.5-3.2-1.3c-0.8-0.8-1.3-1.9-1.3-3.2
				v-33C116,108,118,106,120.5,106z"/>
			<polyline class="st21" points="153.4,98.8 153.4,98.8 102.6,98.8 102.6,98.8 			"/>
		</g>
	</g>
</g>
<g id="RED">
	<g id="XMLID_52_">
		<g>
			<path class="st6" d="M98.5,149.2v-37.6c0-4.8,1.5-9.2,4.1-12.8h50.8c2.6,3.6,4.1,8,4.1,12.8v37.6c0,4-3.3,7.3-7.3,7.3h-44.4
				C101.8,156.5,98.5,153.2,98.5,149.2z M103,110.5v33c0,1.2,0.5,2.4,1.3,3.2c0.8,0.8,1.9,1.3,3.2,1.3c2.5,0,4.5-2,4.5-4.5v-33
				c0-2.5-2-4.5-4.5-4.5S103,108,103,110.5z M116,110.5v33c0,1.2,0.5,2.4,1.3,3.2c0.8,0.8,1.9,1.3,3.2,1.3c2.5,0,4.5-2,4.5-4.5v-33
				c0-2.5-2-4.5-4.5-4.5S116,108,116,110.5z M134,139.5c0,2.3,0.9,4.5,2.5,6c1.5,1.5,3.7,2.5,6,2.5s4.5-0.9,6-2.5
				c1.5-1.5,2.5-3.7,2.5-6c0-4.7-3.8-8.5-8.5-8.5c-2.3,0-4.5,0.9-6,2.5C134.9,135,134,137.2,134,139.5z"/>
			<path class="st28" d="M153.4,98.8h-50.8c4-5.6,10.6-9.3,18-9.3h14.8C142.8,89.5,149.4,93.2,153.4,98.8z"/>
			<path class="st28" d="M103,143.5v-33c0-2.5,2-4.5,4.5-4.5s4.5,2,4.5,4.5v33c0,2.5-2,4.5-4.5,4.5c-1.2,0-2.4-0.5-3.2-1.3
				C103.5,145.9,103,144.7,103,143.5z"/>
			<path class="st6" d="M104,160v-3.5h1.8h44.4h0.8v3.5c0,3.6-2.9,6.5-6.5,6.5h-34C106.9,166.5,104,163.6,104,160z"/>
			<path class="st28" d="M116,143.5v-33c0-2.5,2-4.5,4.5-4.5s4.5,2,4.5,4.5v33c0,2.5-2,4.5-4.5,4.5c-1.2,0-2.4-0.5-3.2-1.3
				C116.5,145.9,116,144.7,116,143.5z"/>
			<path class="st28" d="M136.5,145.5c-1.5-1.5-2.5-3.7-2.5-6s0.9-4.5,2.5-6c1.5-1.5,3.7-2.5,6-2.5c4.7,0,8.5,3.8,8.5,8.5
				c0,2.3-0.9,4.5-2.5,6c-1.5,1.5-3.7,2.5-6,2.5S138,147.1,136.5,145.5z"/>
		</g>
		<g>
			<path class="st21" d="M105.8,156.5c-4,0-7.3-3.3-7.3-7.3v-37.6c0-4.8,1.5-9.2,4.1-12.8c4-5.6,10.6-9.3,18-9.3h14.8
				c7.4,0,14,3.7,18,9.3c2.6,3.6,4.1,8,4.1,12.8v37.6c0,4-3.3,7.3-7.3,7.3"/>
			<path class="st21" d="M150.2,156.5h0.8v3.5c0,3.6-2.9,6.5-6.5,6.5h-34c-3.6,0-6.5-2.9-6.5-6.5v-3.5h1.8H150.2z"/>
			<path class="st21" d="M142.5,131c4.7,0,8.5,3.8,8.5,8.5c0,2.3-0.9,4.5-2.5,6c-1.5,1.5-3.7,2.5-6,2.5s-4.5-0.9-6-2.5
				c-1.5-1.5-2.5-3.7-2.5-6s0.9-4.5,2.5-6C138,131.9,140.2,131,142.5,131z"/>
			<path class="st21" d="M107.5,106c2.5,0,4.5,2,4.5,4.5v33c0,2.5-2,4.5-4.5,4.5c-1.2,0-2.4-0.5-3.2-1.3c-0.8-0.8-1.3-1.9-1.3-3.2
				v-33C103,108,105,106,107.5,106z"/>
			<path class="st21" d="M120.5,106c2.5,0,4.5,2,4.5,4.5v33c0,2.5-2,4.5-4.5,4.5c-1.2,0-2.4-0.5-3.2-1.3c-0.8-0.8-1.3-1.9-1.3-3.2
				v-33C116,108,118,106,120.5,106z"/>
			<polyline class="st21" points="153.4,98.8 153.4,98.8 102.6,98.8 102.6,98.8 			"/>
		</g>
	</g>
</g>
<g id="GREEN" class="st0">
	<g id="XMLID_30_" class="st1">
		<g>
			<path class="st6" d="M98.5,149.2v-37.6c0-4.8,1.5-9.2,4.1-12.8h50.8c2.6,3.6,4.1,8,4.1,12.8v37.6c0,4-3.3,7.3-7.3,7.3h-44.4
				C101.8,156.5,98.5,153.2,98.5,149.2z M103,110.5v33c0,1.2,0.5,2.4,1.3,3.2c0.8,0.8,1.9,1.3,3.2,1.3c2.5,0,4.5-2,4.5-4.5v-33
				c0-2.5-2-4.5-4.5-4.5S103,108,103,110.5z M116,110.5v33c0,1.2,0.5,2.4,1.3,3.2c0.8,0.8,1.9,1.3,3.2,1.3c2.5,0,4.5-2,4.5-4.5v-33
				c0-2.5-2-4.5-4.5-4.5S116,108,116,110.5z M134,139.5c0,2.3,0.9,4.5,2.5,6c1.5,1.5,3.7,2.5,6,2.5s4.5-0.9,6-2.5
				c1.5-1.5,2.5-3.7,2.5-6c0-4.7-3.8-8.5-8.5-8.5c-2.3,0-4.5,0.9-6,2.5C134.9,135,134,137.2,134,139.5z"/>
			<path class="st30" d="M153.4,98.8h-50.8c4-5.6,10.6-9.3,18-9.3h14.8C142.8,89.5,149.4,93.2,153.4,98.8z"/>
			<path class="st30" d="M103,143.5v-33c0-2.5,2-4.5,4.5-4.5s4.5,2,4.5,4.5v33c0,2.5-2,4.5-4.5,4.5c-1.2,0-2.4-0.5-3.2-1.3
				C103.5,145.9,103,144.7,103,143.5z"/>
			<path class="st6" d="M104,160v-3.5h1.8h44.4h0.8v3.5c0,3.6-2.9,6.5-6.5,6.5h-34C106.9,166.5,104,163.6,104,160z"/>
			<path class="st30" d="M116,143.5v-33c0-2.5,2-4.5,4.5-4.5s4.5,2,4.5,4.5v33c0,2.5-2,4.5-4.5,4.5c-1.2,0-2.4-0.5-3.2-1.3
				C116.5,145.9,116,144.7,116,143.5z"/>
			<path class="st30" d="M136.5,145.5c-1.5-1.5-2.5-3.7-2.5-6s0.9-4.5,2.5-6c1.5-1.5,3.7-2.5,6-2.5c4.7,0,8.5,3.8,8.5,8.5
				c0,2.3-0.9,4.5-2.5,6c-1.5,1.5-3.7,2.5-6,2.5S138,147.1,136.5,145.5z"/>
		</g>
		<g>
			<path class="st21" d="M105.8,156.5c-4,0-7.3-3.3-7.3-7.3v-37.6c0-4.8,1.5-9.2,4.1-12.8c4-5.6,10.6-9.3,18-9.3h14.8
				c7.4,0,14,3.7,18,9.3c2.6,3.6,4.1,8,4.1,12.8v37.6c0,4-3.3,7.3-7.3,7.3"/>
			<path class="st21" d="M150.2,156.5h0.8v3.5c0,3.6-2.9,6.5-6.5,6.5h-34c-3.6,0-6.5-2.9-6.5-6.5v-3.5h1.8H150.2z"/>
			<path class="st21" d="M142.5,131c4.7,0,8.5,3.8,8.5,8.5c0,2.3-0.9,4.5-2.5,6c-1.5,1.5-3.7,2.5-6,2.5s-4.5-0.9-6-2.5
				c-1.5-1.5-2.5-3.7-2.5-6s0.9-4.5,2.5-6C138,131.9,140.2,131,142.5,131z"/>
			<path class="st21" d="M107.5,106c2.5,0,4.5,2,4.5,4.5v33c0,2.5-2,4.5-4.5,4.5c-1.2,0-2.4-0.5-3.2-1.3c-0.8-0.8-1.3-1.9-1.3-3.2
				v-33C103,108,105,106,107.5,106z"/>
			<path class="st21" d="M120.5,106c2.5,0,4.5,2,4.5,4.5v33c0,2.5-2,4.5-4.5,4.5c-1.2,0-2.4-0.5-3.2-1.3c-0.8-0.8-1.3-1.9-1.3-3.2
				v-33C116,108,118,106,120.5,106z"/>
			<polyline class="st21" points="153.4,98.8 153.4,98.8 102.6,98.8 102.6,98.8 			"/>
		</g>
	</g>
</g>
<g id="PURPLE" class="st0">
	<g id="XMLID_4_" class="st1">
		<g>
			<path class="st6" d="M98.5,149.2v-37.6c0-4.8,1.5-9.2,4.1-12.8h50.8c2.6,3.6,4.1,8,4.1,12.8v37.6c0,4-3.3,7.3-7.3,7.3h-44.4
				C101.8,156.5,98.5,153.2,98.5,149.2z M103,110.5v33c0,1.2,0.5,2.4,1.3,3.2c0.8,0.8,1.9,1.3,3.2,1.3c2.5,0,4.5-2,4.5-4.5v-33
				c0-2.5-2-4.5-4.5-4.5S103,108,103,110.5z M116,110.5v33c0,1.2,0.5,2.4,1.3,3.2c0.8,0.8,1.9,1.3,3.2,1.3c2.5,0,4.5-2,4.5-4.5v-33
				c0-2.5-2-4.5-4.5-4.5S116,108,116,110.5z M134,139.5c0,2.3,0.9,4.5,2.5,6c1.5,1.5,3.7,2.5,6,2.5s4.5-0.9,6-2.5
				c1.5-1.5,2.5-3.7,2.5-6c0-4.7-3.8-8.5-8.5-8.5c-2.3,0-4.5,0.9-6,2.5C134.9,135,134,137.2,134,139.5z"/>
			<path class="st33" d="M153.4,98.8h-50.8c4-5.6,10.6-9.3,18-9.3h14.8C142.8,89.5,149.4,93.2,153.4,98.8z"/>
			<path class="st33" d="M103,143.5v-33c0-2.5,2-4.5,4.5-4.5s4.5,2,4.5,4.5v33c0,2.5-2,4.5-4.5,4.5c-1.2,0-2.4-0.5-3.2-1.3
				C103.5,145.9,103,144.7,103,143.5z"/>
			<path class="st6" d="M104,160v-3.5h1.8h44.4h0.8v3.5c0,3.6-2.9,6.5-6.5,6.5h-34C106.9,166.5,104,163.6,104,160z"/>
			<path class="st33" d="M116,143.5v-33c0-2.5,2-4.5,4.5-4.5s4.5,2,4.5,4.5v33c0,2.5-2,4.5-4.5,4.5c-1.2,0-2.4-0.5-3.2-1.3
				C116.5,145.9,116,144.7,116,143.5z"/>
			<path class="st33" d="M136.5,145.5c-1.5-1.5-2.5-3.7-2.5-6s0.9-4.5,2.5-6c1.5-1.5,3.7-2.5,6-2.5c4.7,0,8.5,3.8,8.5,8.5
				c0,2.3-0.9,4.5-2.5,6c-1.5,1.5-3.7,2.5-6,2.5S138,147.1,136.5,145.5z"/>
		</g>
		<g>
			<path class="st21" d="M105.8,156.5c-4,0-7.3-3.3-7.3-7.3v-37.6c0-4.8,1.5-9.2,4.1-12.8c4-5.6,10.6-9.3,18-9.3h14.8
				c7.4,0,14,3.7,18,9.3c2.6,3.6,4.1,8,4.1,12.8v37.6c0,4-3.3,7.3-7.3,7.3"/>
			<path class="st21" d="M150.2,156.5h0.8v3.5c0,3.6-2.9,6.5-6.5,6.5h-34c-3.6,0-6.5-2.9-6.5-6.5v-3.5h1.8H150.2z"/>
			<path class="st21" d="M142.5,131c4.7,0,8.5,3.8,8.5,8.5c0,2.3-0.9,4.5-2.5,6c-1.5,1.5-3.7,2.5-6,2.5s-4.5-0.9-6-2.5
				c-1.5-1.5-2.5-3.7-2.5-6s0.9-4.5,2.5-6C138,131.9,140.2,131,142.5,131z"/>
			<path class="st21" d="M107.5,106c2.5,0,4.5,2,4.5,4.5v33c0,2.5-2,4.5-4.5,4.5c-1.2,0-2.4-0.5-3.2-1.3c-0.8-0.8-1.3-1.9-1.3-3.2
				v-33C103,108,105,106,107.5,106z"/>
			<path class="st21" d="M120.5,106c2.5,0,4.5,2,4.5,4.5v33c0,2.5-2,4.5-4.5,4.5c-1.2,0-2.4-0.5-3.2-1.3c-0.8-0.8-1.3-1.9-1.3-3.2
				v-33C116,108,118,106,120.5,106z"/>
			<polyline class="st21" points="153.4,98.8 153.4,98.8 102.6,98.8 102.6,98.8 			"/>
		</g>
	</g>
</g>
</svg>
