<?xml version="1.0" encoding="utf-8"?>
<!-- Generator: Adobe Illustrator 25.3.0, SVG Export Plug-In . SVG Version: 6.00 Build 0)  -->
<svg version="1.1" xmlns="http://www.w3.org/2000/svg" xmlns:xlink="http://www.w3.org/1999/xlink" x="0px" y="0px"
	 viewBox="0 0 512 512" style="enable-background:new 0 0 512 512;" xml:space="preserve">
<style type="text/css">
	.st0{display:none;}
	.st1{display:inline;}
	.st2{fill:#212121;}
	.st3{fill:#363636;}
	.st4{fill:#1C1C1C;}
	.st5{fill:#404040;}
	.st6{fill:#8E8E8E;}
	.st7{fill:#91C9E8;}
	.st8{fill:#3399CC;}
	.st9{fill:#446E9E;}
	.st10{fill:#335377;}
	.st11{fill:#7B52AB;}
	.st12{fill:#36175E;}
	.st13{fill:#45BF55;}
	.st14{fill:#168039;}
	.st15{fill:#EE8900;}
	.st16{fill:#D95100;}
	.st17{fill:#FFBB00;}
	.st18{fill:#D19419;}
	.st19{fill:#BF1533;}
	.st20{fill:#9A0419;}
	.st21{fill:none;stroke:#000000;stroke-miterlimit:10;}
	.st22{display:inline;fill:none;stroke:#000000;stroke-miterlimit:10;}
	.st23{fill:none;stroke:#000000;stroke-linecap:round;stroke-linejoin:round;stroke-miterlimit:10;}
	.st24{fill:none;stroke:#000000;stroke-linecap:round;stroke-miterlimit:10;}
	.st25{fill:#FFFFFF;}
	.st26{fill:none;stroke:#000000;stroke-width:0.5;stroke-linecap:round;stroke-linejoin:round;}
	.st27{fill:#773533;}
	.st28{fill:#CC3344;}
	.st29{fill:#E89199;}
	.st30{fill:#33CC78;}
	.st31{fill:#91E8BA;}
	.st32{fill:#33775F;}
	.st33{fill:#8F33CC;}
	.st34{fill:#C791E8;}
	.st35{fill:#683377;}
</style>
<g id="BG" class="st0">
	<g class="st1">
		<rect x="0" y="-264" class="st2" width="5008" height="1040"/>
	</g>
</g>
<g id="Refs">
</g>
<g id="Palette">
</g>
<g id="Layer_5">
</g>
<g id="Guide" class="st0">
</g>
<g id="BLUE">
	<g id="Spaceships">
		<g id="Small_x5F_1_1_">
			<g>
				<path class="st10" d="M447.5,294.2v31.8c0,3.4-0.7,6.6-2,9.5l-80.6-6.1l15.8-19.9c1.4-1.8,3.8-2.4,5.8-1.5l5.4,2.2
					c2,0.8,4.4,0.1,5.5-1.8l7.5-12c1.5-2.4,0.5-5.5-2.2-6.6L401,289c-2.9-1.2-4-4.6-2.5-7.3l4.4-7.3l0.3-0.6l7.1,3.3L447.5,294.2z"
					/>
				<polygon class="st5" points="447.5,279.3 447.5,294.2 410.3,277 403.2,273.7 390.5,267.9 318.6,234.7 318.6,227.7 318.6,219.8 
					390.5,253 410.3,262.1 				"/>
				<path class="st5" d="M364.9,329.3l80.6,6.1c-3.9,8.8-13,14.7-23.2,13.9l-103.7-8v-15.4L364.9,329.3z"/>
				<path class="st8" d="M412.8,207.4v11.1c0,0.7-0.6,1.3-1.3,1.3h-1.2h-7.4h-1.2c-0.7,0-1.3-0.6-1.3-1.3v-11.1H412.8z"/>
				<path class="st6" d="M410.3,219.8v42.3l-19.8-9.2v-1.6c0-5.1,4.1-9.2,9.2-9.2h3.2v-22.3H410.3z M400.4,248.3
					c0-0.7-0.6-1.2-1.2-1.2c-0.7,0-1.2,0.6-1.2,1.2c0,0.7,0.5,1.2,1.2,1.2C399.9,249.6,400.4,249,400.4,248.3z"/>
				<path class="st6" d="M402.9,289.7c2.6,1,3.6,4.2,2.2,6.6l-7.5,12c-1.2,1.9-3.5,2.6-5.5,1.8l-5.4-2.2c-2.1-0.8-4.4-0.2-5.8,1.5
					l-15.8,19.9l38-55l-4.4,7.3c-1.6,2.7-0.4,6.1,2.5,7.3L402.9,289.7z"/>
				<path class="st6" d="M403.2,273.7l-0.3,0.6l-38,55l-46.3-3.5V323l9.8-10.2c3.2-3.4,5-7.8,5-12.5V275c0-4.8-1.9-9.4-5.3-12.8
					l-9.5-9.5v-18.1l71.9,33.2L403.2,273.7z M371.2,282.9c0.7-1.3,0.3-2.9-1-3.6l-7.5-4.4c-1.3-0.7-2.9-0.3-3.6,1l-14.7,25.4
					c-0.7,1.3-0.3,2.9,1,3.6l7.5,4.4c1.3,0.7,2.9,0.3,3.6-1L371.2,282.9z"/>
				<circle class="st8" cx="399.2" cy="248.3" r="1.2"/>
				<path class="st8" d="M370.2,279.3c1.3,0.7,1.7,2.4,1,3.6l-14.7,25.4c-0.7,1.3-2.4,1.7-3.6,1l-7.5-4.4c-1.3-0.7-1.7-2.4-1-3.6
					l14.7-25.4c0.7-1.3,2.4-1.7,3.6-1L370.2,279.3z"/>
				<path class="st8" d="M370.7,187.6v11.1c0,0.7-0.6,1.3-1.3,1.3h-1.2h-7.4h-1.2c-0.7,0-1.3-0.6-1.3-1.3v-11.1H370.7z"/>
				<path class="st6" d="M368.2,200v42.3l-19.8-9.2v-1.6c0-5.1,4.1-9.2,9.2-9.2h3.2V200H368.2z M358.3,228.5c0-0.7-0.6-1.2-1.2-1.2
					c-0.7,0-1.2,0.5-1.2,1.2c0,0.7,0.6,1.2,1.2,1.2C357.7,229.7,358.3,229.2,358.3,228.5z"/>
				<circle class="st8" cx="357" cy="228.5" r="1.2"/>
				<path class="st6" d="M333.5,275v25.2c0,4.6-1.8,9.1-5,12.5l-9.8,10.2l-41.5-41.5c7-3.9,11.8-11.4,11.8-19.9v-22.6v-6.7l29.8-4.5
					v6.9v18.1l9.5,9.5C331.6,265.6,333.5,270.2,333.5,275z M321.1,284.3c0-2.7-2.2-5-4.9-5c-2.7,0-5,2.2-5,5c0,2.7,2.2,5,5,5
					C318.9,289.2,321.1,287,321.1,284.3z M308.7,262c0-1.4-1.1-2.5-2.5-2.5s-2.5,1.1-2.5,2.5c0,1.4,1.1,2.5,2.5,2.5
					S308.7,263.3,308.7,262z"/>
				<path class="st8" d="M316.1,279.3c2.7,0,4.9,2.2,4.9,5c0,2.7-2.2,5-4.9,5c-2.7,0-5-2.2-5-5C311.2,281.5,313.4,279.3,316.1,279.3
					z"/>
				<path class="st8" d="M318.6,325.9v15.4l-7.4,8.2l-21-12.9c-20.9-12.9-47.4-12.9-68.3,0l-21,12.9l-7.4-8.2v-15.4V323l41.5-41.5
					c3.2,1.8,7,2.8,11,2.8h20.2c4,0,7.7-1,11-2.8l41.5,41.5V325.9z"/>
				<polygon class="st6" points="281.8,161 256.6,110.7 256,109.5 256,33.1 256.6,34.8 318.6,207.4 318.6,219.8 318.6,227.7 
					288.9,232.2 288.9,175.2 				"/>
				<path class="st6" d="M311.2,349.5l-4.1,4.5c-5.6,6.1-9.5,33.3-11.6,55.1l-7.2-3c-10.1-4.1-20.9-6.3-31.6-6.7h-0.1
					c-0.2,0-0.4,0-0.6,0c-0.2,0-0.4,0-0.6,0h-0.1c-10.7,0.3-21.5,2.5-31.6,6.7l-7.2,3c-2.1-21.8-6-49-11.6-55.1l-4.1-4.5l21-12.9
					c20.9-12.9,47.4-12.9,68.3,0L311.2,349.5z M294,361.9c0.4-0.9,0.5-1.8,0.5-2.7c0-2.8-1.7-5.5-4.5-6.6l-16.9-6.7
					c-1.9-0.8-4,0.2-4.7,2l-2.6,6.6c-0.7,1.9,0.2,4,2,4.7l16.9,6.7C288.4,367.4,292.5,365.6,294,361.9z M256.6,370l24.8,5.8
					c-7.8-3.3-16.2-5.2-24.7-5.8H256.6z M230.6,375.8l24.8-5.8h-0.1C246.8,370.6,238.4,372.5,230.6,375.8z M244.2,359.2
					c1.9-0.8,2.8-2.9,2-4.7l-2.6-6.6c-0.7-1.9-2.9-2.8-4.7-2l-16.9,6.7c-2.8,1.1-4.5,3.8-4.5,6.6c0,0.9,0.2,1.8,0.5,2.7
					c1.4,3.7,5.6,5.5,9.3,4L244.2,359.2z"/>
				<circle class="st8" cx="306.2" cy="262" r="2.5"/>
				<path class="st8" d="M297.4,409.8c2.3,0.9,3.7,3.3,3.5,5.8c-0.8,9.9-1.2,18.1-1.2,22.2c0,1.4-0.1,2.9-0.3,4.2l-4.3-1.8l-1.6-0.6
					l-4.5-1.8c-1.4-0.6-2.8-1.1-4.1-1.6c-1.4-0.5-2.7-0.9-4.1-1.3c-1.9-0.6-3.9-1.1-5.9-1.5c-0.7-0.2-1.5-0.4-2.2-0.5
					c-1.3-0.2-2.6-0.5-3.9-0.7c-1.3-0.2-2.6-0.4-3.9-0.5c-1.3-0.2-2.7-0.3-4.1-0.4c-0.1,0-0.2,0-0.3,0c-0.8,0-2.3-0.1-3.9-0.1h-0.5
					h-0.7v0c-1.6,0-3.1,0-3.9,0.1c-0.1,0-0.2,0-0.3,0c-1.4,0.1-2.8,0.2-4.1,0.4c-1.3,0.1-2.6,0.3-3.9,0.5c-1.3,0.2-2.6,0.5-3.9,0.7
					c-0.8,0.1-1.5,0.3-2.2,0.5c-2,0.4-3.9,0.9-5.8,1.5c-1.4,0.4-2.7,0.9-4.1,1.3c-1.4,0.5-2.8,1-4.1,1.6l-4.5,1.8l-1.6,0.6l-4.3,1.8
					c-0.2-1.4-0.3-2.8-0.3-4.2c0-4.1-0.4-12.2-1.2-22.2c-0.2-2.5,1.2-4.8,3.5-5.8l1.8-0.7l7.2-3c10.1-4.1,20.9-6.3,31.6-6.7h0.1
					c0.2,0,0.4,0,0.6,0c0.2,0,0.4,0,0.6,0h0.1c10.7,0.3,21.5,2.5,31.6,6.7l7.2,3L297.4,409.8z"/>
				<path class="st5" d="M295,440.1v25.5c0,1.1-0.1,2.1-0.4,3.1h-38.4c0.3-1,0.4-2,0.4-3.1V431c1.6,0,3.1,0,3.9,0.1
					c0.1,0,0.2,0,0.3,0c1.4,0.1,2.8,0.2,4.1,0.4c1.3,0.1,2.6,0.3,3.9,0.5c1.3,0.2,2.6,0.5,3.9,0.7c0.8,0.1,1.5,0.3,2.2,0.5
					c2,0.4,3.9,0.9,5.9,1.5c1.4,0.4,2.7,0.9,4.1,1.3c1.4,0.5,2.8,1,4.1,1.6l4.5,1.8L295,440.1z"/>
				<path class="st10" d="M256.2,468.7h38.4c-1.6,5.9-7.7,10.2-14.9,10.2h-9c-7,0-12.9-4.1-14.7-9.6
					C256.1,469.1,256.1,468.9,256.2,468.7z"/>
				<path class="st8" d="M294.5,359.3c0,0.9-0.2,1.8-0.5,2.7c-1.4,3.7-5.6,5.5-9.3,4l-16.9-6.7c-1.9-0.8-2.8-2.9-2-4.7l2.6-6.6
					c0.7-1.9,2.9-2.8,4.7-2l16.9,6.7C292.8,353.8,294.5,356.4,294.5,359.3z"/>
				<path class="st5" d="M288.9,238.9v22.6c0,8.6-4.8,16.1-11.8,19.9c-3.2,1.8-7,2.8-11,2.8h-20.2c-4,0-7.7-1-11-2.8
					c-7-3.9-11.8-11.4-11.8-19.9v-22.6H288.9z M274,267.2v-13c0-2.6-2.1-4.7-4.7-4.7h-26.6c-2.6,0-4.7,2.1-4.7,4.7v13
					c0,2.6,2.1,4.7,4.7,4.7h26.6C271.9,271.9,274,269.8,274,267.2z"/>
				<path class="st5" d="M288.9,232.2v6.7h-65.7v-6.7v-57l7.1-14.1l19.6,19.6l-9.5,31.8l-1.1,3.8c-0.5,1.8,0.8,3.6,2.7,3.6h28.4
					c1.9,0,3.2-1.8,2.7-3.6l-1.1-3.8l-9.5-31.8l19.6-19.6l7.1,14.1V232.2z M274,228.5c0-2.1-1.7-3.7-3.7-3.7h-28.5
					c-2.1,0-3.7,1.7-3.7,3.7s1.7,3.7,3.7,3.7h28.5C272.3,232.2,274,230.5,274,228.5z"/>
				<path class="st8" d="M255.9,160.8c-0.2,0.1-0.3,0.3-0.3,0.5l-0.2,0.7l-5.6,18.6L230.2,161l25.2-50.3l0.6-1.2l0.6,1.2l25.2,50.3
					l-19.6,19.6l-5.6-18.6l-0.2-0.7c-0.1-0.2-0.2-0.4-0.3-0.5c0,0,0,0,0,0L255.9,160.8L255.9,160.8
					C255.9,160.8,255.9,160.8,255.9,160.8z"/>
				<path class="st6" d="M281.4,375.8l-24.8-5.8h0.1C265.2,370.6,273.6,372.5,281.4,375.8z"/>
				<path class="st8" d="M274,254.2v13c0,2.6-2.1,4.7-4.7,4.7h-26.6c-2.6,0-4.7-2.1-4.7-4.7v-13c0-2.6,2.1-4.7,4.7-4.7h26.6
					C271.9,249.6,274,251.6,274,254.2z"/>
				<path class="st8" d="M270.3,224.8c2,0,3.7,1.7,3.7,3.7s-1.7,3.7-3.7,3.7h-28.5c-2.1,0-3.7-1.7-3.7-3.7s1.7-3.7,3.7-3.7H270.3z"
					/>
				<path class="st8" d="M272.9,216.2c0.5,1.8-0.8,3.6-2.7,3.6h-28.4c-1.9,0-3.2-1.8-2.7-3.6l1.1-3.8h15.7h0.7h15.1L272.9,216.2z"/>
				<polygon class="st7" points="262.2,180.6 271.7,212.4 256.6,212.4 256.6,162 				"/>
				<path class="st5" d="M256.6,431v34.7c0,1.1-0.1,2.1-0.4,3.1h-0.3c-0.3-1-0.4-2-0.4-3.1V431c0.2,0,0.4,0,0.7,0H256.6z"/>
				<path class="st8" d="M256.6,162v50.4h-0.7v-51.6c0,0,0,0,0,0l0.1-0.1l0.1,0.1c0,0,0,0,0,0c0.2,0.1,0.3,0.3,0.3,0.5L256.6,162z"
					/>
				<path class="st6" d="M255.8,468.7h0.3c-0.1,0.2-0.1,0.4-0.2,0.6C255.9,469.1,255.9,468.9,255.8,468.7z"/>
				<path class="st6" d="M255.4,431h0.7C255.8,431,255.6,431,255.4,431L255.4,431z"/>
				<polygon class="st6" points="230.2,161 223.1,175.2 223.1,232.2 193.4,227.7 193.4,219.8 193.4,207.4 255.4,34.8 256,33.1 
					256,109.5 255.4,110.7 				"/>
				<path class="st7" d="M255.9,160.8v51.6h-15.7l9.5-31.8l5.6-18.6l0.2-0.7C255.6,161.1,255.8,160.9,255.9,160.8z"/>
				<path class="st10" d="M255.8,468.7c0.1,0.2,0.1,0.4,0.2,0.6c-1.8,5.6-7.7,9.6-14.7,9.6h-9c-7.2,0-13.3-4.3-14.9-10.2H255.8z"/>
				<path class="st5" d="M255.8,468.7h-38.4c-0.3-1-0.4-2-0.4-3.1v-25.5l1.6-0.6l4.5-1.8c1.4-0.6,2.8-1.1,4.1-1.6
					c1.4-0.5,2.7-0.9,4.1-1.3c1.9-0.6,3.9-1.1,5.8-1.5c0.7-0.2,1.5-0.4,2.2-0.5c1.3-0.2,2.6-0.5,3.9-0.7c1.3-0.2,2.6-0.4,3.9-0.5
					c1.3-0.2,2.7-0.3,4.1-0.4c0.1,0,0.2,0,0.3,0c0.8,0,2.3-0.1,3.9-0.1v34.7C255.4,466.7,255.5,467.7,255.8,468.7z"/>
				<path class="st6" d="M255.4,370l-24.8,5.8c7.8-3.3,16.2-5.2,24.7-5.8H255.4z"/>
				<path class="st8" d="M246.2,354.5c0.7,1.9-0.2,4-2,4.7l-16.9,6.7c-3.7,1.4-7.8-0.4-9.3-4c-0.3-0.9-0.5-1.8-0.5-2.7
					c0-2.8,1.7-5.5,4.5-6.6l16.9-6.7c1.9-0.8,4,0.2,4.7,2L246.2,354.5z"/>
				<path class="st6" d="M234.9,281.4L193.4,323l-9.8-10.2c-3.2-3.4-5-7.8-5-12.5V275c0-4.8,1.9-9.4,5.3-12.8l9.5-9.5v-18.1v-6.9
					l29.8,4.5v6.7v22.6C223.1,270.1,227.9,277.6,234.9,281.4z M208.3,262c0-1.4-1.1-2.5-2.5-2.5c-1.4,0-2.5,1.1-2.5,2.5
					c0,1.4,1.1,2.5,2.5,2.5C207.2,264.4,208.3,263.3,208.3,262z M200.8,284.3c0-2.7-2.2-5-5-5c-2.7,0-4.9,2.2-4.9,5
					c0,2.7,2.2,5,4.9,5C198.6,289.2,200.8,287,200.8,284.3z"/>
				<circle class="st8" cx="205.8" cy="262" r="2.5"/>
				<path class="st8" d="M195.9,279.3c2.7,0,5,2.2,5,5c0,2.7-2.2,5-5,5c-2.7,0-4.9-2.2-4.9-5C190.9,281.5,193.1,279.3,195.9,279.3z"
					/>
				<path class="st5" d="M193.4,325.9v15.4l-103.7,8c-10.2,0.8-19.3-5.1-23.2-13.9l80.6-6.1L193.4,325.9z"/>
				<path class="st6" d="M193.4,323v2.9l-46.3,3.5l-38-55l-0.3-0.6l12.7-5.9l71.9-33.2v18.1l-9.5,9.5c-3.4,3.4-5.3,8-5.3,12.8v25.2
					c0,4.6,1.8,9.1,5,12.5L193.4,323z M166.7,305c1.3-0.7,1.7-2.4,1-3.6L153,275.9c-0.7-1.3-2.4-1.7-3.7-1l-7.5,4.4
					c-1.3,0.7-1.7,2.4-1,3.6l14.7,25.4c0.7,1.3,2.4,1.7,3.7,1L166.7,305z"/>
				<polygon class="st5" points="193.4,227.7 193.4,234.7 121.5,267.9 108.8,273.7 101.7,277 64.5,294.2 64.5,279.3 101.7,262.1 
					121.5,253 193.4,219.8 				"/>
				<path class="st8" d="M167.7,301.3c0.7,1.3,0.3,2.9-1,3.6l-7.5,4.4c-1.3,0.7-2.9,0.3-3.7-1l-14.7-25.4c-0.7-1.3-0.3-2.9,1-3.6
					l7.5-4.4c1.3-0.7,2.9-0.3,3.7,1L167.7,301.3z"/>
				<path class="st6" d="M163.6,231.5v1.6l-19.8,9.2V200h7.4v22.3h3.2C159.5,222.3,163.6,226.4,163.6,231.5z M156.2,228.5
					c0-0.7-0.6-1.2-1.2-1.2c-0.7,0-1.2,0.5-1.2,1.2c0,0.7,0.6,1.2,1.2,1.2C155.6,229.7,156.2,229.2,156.2,228.5z"/>
				<circle class="st8" cx="155" cy="228.5" r="1.2"/>
				<path class="st8" d="M153.7,187.6v11.1c0,0.7-0.6,1.3-1.3,1.3h-1.2h-7.4h-1.2c-0.7,0-1.3-0.6-1.3-1.3v-11.1H153.7z"/>
				<path class="st6" d="M109.1,274.4l38,55l-15.8-19.9c-1.4-1.8-3.8-2.4-5.8-1.5l-5.4,2.2c-2,0.8-4.3,0.1-5.5-1.8l-7.5-12
					c-1.5-2.4-0.5-5.5,2.2-6.6l1.9-0.8c2.9-1.2,4.1-4.6,2.5-7.3L109.1,274.4z"/>
				<path class="st10" d="M131.3,309.5l15.8,19.9l-80.6,6.1c-1.3-2.9-2-6.1-2-9.5v-31.8l37.2-17.1l7.1-3.3l0.3,0.6l4.4,7.3
					c1.6,2.7,0.4,6.1-2.5,7.3l-1.9,0.8c-2.6,1-3.6,4.2-2.2,6.6l7.5,12c1.2,1.9,3.5,2.6,5.5,1.8l5.4-2.2
					C127.5,307.1,129.9,307.7,131.3,309.5z"/>
				<path class="st6" d="M121.5,251.3v1.6l-19.8,9.2v-42.3h7.4v22.3h3.2C117.3,242.1,121.5,246.3,121.5,251.3z M114.1,248.3
					c0-0.7-0.6-1.2-1.2-1.2c-0.7,0-1.2,0.6-1.2,1.2c0,0.7,0.6,1.2,1.2,1.2C113.5,249.6,114.1,249,114.1,248.3z"/>
				<circle class="st8" cx="112.8" cy="248.3" r="1.2"/>
				<path class="st8" d="M111.6,207.4v11.1c0,0.7-0.6,1.3-1.3,1.3h-1.2h-7.4h-1.2c-0.7,0-1.3-0.6-1.3-1.3v-11.1H111.6z"/>
			</g>
			<g>
				<path class="st21" d="M256,469.3c-1.8,5.6-7.7,9.6-14.7,9.6h-9c-7.2,0-13.3-4.3-14.9-10.2c-0.3-1-0.4-2-0.4-3.1v-25.5"/>
				<path class="st21" d="M295,440.1v25.5c0,1.1-0.1,2.1-0.4,3.1c-1.6,5.9-7.7,10.2-14.9,10.2h-9c-7,0-12.9-4.1-14.7-9.6
					c-0.1-0.2-0.1-0.4-0.2-0.6c-0.3-1-0.4-2-0.4-3.1V431"/>
				<polyline class="st21" points="193.4,219.8 193.4,207.4 255.4,34.8 256,33.1 256.6,34.8 318.6,207.4 318.6,219.8 				"/>
				<path class="st21" d="M295.5,409c2.1-21.8,6-49,11.6-55.1l4.1-4.5"/>
				<path class="st21" d="M200.8,349.5l4.1,4.5c5.6,6.1,9.5,33.3,11.6,55.1"/>
				<line class="st21" x1="277.1" y1="281.4" x2="318.6" y2="323"/>
				<line class="st21" x1="193.4" y1="323" x2="234.9" y2="281.4"/>
				<path class="st21" d="M318.6,341.3l-7.4,8.2l-21-12.9c-20.9-12.9-47.4-12.9-68.3,0l-21,12.9l-7.4-8.2"/>
				<polyline class="st21" points="121.5,253 193.4,219.8 193.4,227.7 193.4,234.7 				"/>
				<polyline class="st21" points="64.5,294.2 64.5,279.3 101.7,262.1 				"/>
				<path class="st21" d="M66.4,335.4c-1.3-2.9-2-6.1-2-9.5v-31.8l37.2-17.1l7.1-3.3l12.7-5.9l71.9-33.2v18.1l-9.5,9.5
					c-3.4,3.4-5.3,8-5.3,12.8v25.2c0,4.6,1.8,9.1,5,12.5l9.8,10.2v2.9"/>
				<path class="st21" d="M109.1,274.4l4.4,7.3c1.6,2.7,0.4,6.1-2.5,7.3l-1.9,0.8c-2.6,1-3.6,4.2-2.2,6.6l7.5,12
					c1.2,1.9,3.5,2.6,5.5,1.8l5.4-2.2c2.1-0.8,4.4-0.2,5.8,1.5l15.8,19.9"/>
				<path class="st21" d="M193.4,325.9v15.4l-103.7,8c-10.2,0.8-19.3-5.1-23.2-13.9l80.6-6.1L193.4,325.9z"/>
				<path class="st23" d="M230.6,375.8c7.8-3.3,16.2-5.2,24.7-5.8h0.1"/>
				<line class="st21" x1="236.8" y1="441.2" x2="236.8" y2="461.1"/>
				<line class="st21" x1="255.8" y1="468.7" x2="217.4" y2="468.7"/>
				<line class="st21" x1="193.4" y1="227.7" x2="223.1" y2="232.2"/>
				<line class="st21" x1="230.2" y1="161" x2="229.8" y2="160.7"/>
				<path class="st21" d="M200.8,284.3c0,2.7-2.2,5-5,5c-2.7,0-4.9-2.2-4.9-5c0-2.7,2.2-5,4.9-5
					C198.6,279.3,200.8,281.5,200.8,284.3z"/>
				<circle class="st21" cx="205.8" cy="262" r="2.5"/>
				<path class="st21" d="M166.7,305l-7.5,4.4c-1.3,0.7-2.9,0.3-3.7-1l-14.7-25.4c-0.7-1.3-0.3-2.9,1-3.6l7.5-4.4
					c1.3-0.7,2.9-0.3,3.7,1l14.7,25.4C168.4,302.6,168,304.2,166.7,305z"/>
				<path class="st21" d="M109.1,219.8v22.3h3.2c5.1,0,9.2,4.1,9.2,9.2v1.6l-19.8,9.2v-42.3"/>
				<path class="st21" d="M101.7,219.8h-1.2c-0.7,0-1.3-0.6-1.3-1.3v-11.1h12.4v11.1c0,0.7-0.6,1.3-1.3,1.3h-1.2H101.7z"/>
				<line class="st24" x1="106.3" y1="255" x2="106.3" y2="243.2"/>
				<circle class="st21" cx="112.8" cy="248.3" r="1.2"/>
				<path class="st21" d="M151.2,200v22.3h3.2c5.1,0,9.2,4.1,9.2,9.2v1.6l-19.8,9.2V200"/>
				<path class="st21" d="M143.8,200h-1.2c-0.7,0-1.3-0.6-1.3-1.3v-11.1h12.4v11.1c0,0.7-0.6,1.3-1.3,1.3h-1.2H143.8z"/>
				<line class="st24" x1="148.5" y1="235.1" x2="148.5" y2="223.4"/>
				<circle class="st21" cx="155" cy="228.5" r="1.2"/>
				<path class="st21" d="M244.2,359.2l-16.9,6.7c-3.7,1.4-7.8-0.4-9.3-4c-0.3-0.9-0.5-1.8-0.5-2.7c0-2.8,1.7-5.5,4.5-6.6l16.9-6.7
					c1.9-0.8,4,0.2,4.7,2l2.6,6.6C247,356.4,246.1,358.5,244.2,359.2z"/>
				<polyline class="st21" points="390.5,253 318.6,219.8 318.6,227.7 318.6,234.7 				"/>
				<polyline class="st21" points="447.5,294.2 447.5,279.3 410.3,262.1 				"/>
				<path class="st21" d="M318.6,325.9V323l9.8-10.2c3.2-3.4,5-7.8,5-12.5V275c0-4.8-1.9-9.4-5.3-12.8l-9.5-9.5v-18.1l71.9,33.2
					l12.7,5.9l7.1,3.3l37.2,17.1v31.8c0,3.4-0.7,6.6-2,9.5"/>
				<path class="st21" d="M402.9,274.4l-4.4,7.3c-1.6,2.7-0.4,6.1,2.5,7.3l1.9,0.8c2.6,1,3.6,4.2,2.2,6.6l-7.5,12
					c-1.2,1.9-3.5,2.6-5.5,1.8l-5.4-2.2c-2.1-0.8-4.4-0.2-5.8,1.5l-15.8,19.9"/>
				<path class="st21" d="M445.5,335.4c-3.9,8.8-13,14.7-23.2,13.9l-103.7-8v-15.4l46.3,3.5L445.5,335.4z"/>
				<path class="st21" d="M295.5,409l1.8,0.7c2.3,0.9,3.7,3.3,3.5,5.8c-0.8,9.9-1.2,18.1-1.2,22.2c0,1.4-0.1,2.9-0.3,4.2l-4.3-1.8
					l-1.6-0.6l-4.5-1.8c-1.4-0.6-2.8-1.1-4.1-1.6c-1.4-0.5-2.7-0.9-4.1-1.3c-1.9-0.6-3.9-1.1-5.9-1.5c-0.7-0.2-1.5-0.4-2.2-0.5
					c-1.3-0.2-2.6-0.5-3.9-0.7c-1.3-0.2-2.6-0.4-3.9-0.5c-1.3-0.2-2.7-0.3-4.1-0.4c-0.1,0-0.2,0-0.3,0c-0.8,0-2.3-0.1-3.9-0.1h-0.5
					h-0.7v0c-1.6,0-3.1,0-3.9,0.1c-0.1,0-0.2,0-0.3,0c-1.4,0.1-2.8,0.2-4.1,0.4c-1.3,0.1-2.6,0.3-3.9,0.5c-1.3,0.2-2.6,0.5-3.9,0.7
					c-0.8,0.1-1.5,0.3-2.2,0.5c-2,0.4-3.9,0.9-5.8,1.5c-1.4,0.4-2.7,0.9-4.1,1.3c-1.4,0.5-2.8,1-4.1,1.6l-4.5,1.8l-1.6,0.6l-4.3,1.8
					c-0.2-1.4-0.3-2.8-0.3-4.2c0-4.1-0.4-12.2-1.2-22.2c-0.2-2.5,1.2-4.8,3.5-5.8l1.8-0.7l7.2-3c10.1-4.1,20.9-6.3,31.6-6.7h0.1
					c0.2,0,0.4,0,0.6,0c0.2,0,0.4,0,0.6,0h0.1c10.7,0.3,21.5,2.5,31.6,6.7L295.5,409z"/>
				<path class="st21" d="M223.1,238.9v22.6c0,8.6,4.8,16.1,11.8,19.9c3.2,1.8,7,2.8,11,2.8h20.2c4,0,7.7-1,11-2.8
					c7-3.9,11.8-11.4,11.8-19.9v-22.6"/>
				<polyline class="st21" points="230.2,161 255.4,110.7 256,109.5 256.6,110.7 281.8,161 				"/>
				<path class="st21" d="M262.2,180.6l-5.6-18.6l-0.2-0.7c-0.1-0.2-0.2-0.4-0.3-0.5c0,0,0,0,0,0l-0.1-0.1l-0.1,0.1c0,0,0,0,0,0
					c-0.2,0.1-0.3,0.3-0.3,0.5l-0.2,0.7l-5.6,18.6"/>
				<polyline class="st21" points="240.3,212.4 249.8,180.6 230.2,161 223.1,175.2 223.1,232.2 223.1,238.9 288.9,238.9 
					288.9,232.2 288.9,175.2 281.8,161 262.2,180.6 271.7,212.4 				"/>
				<path class="st21" d="M271.7,212.4l1.1,3.8c0.5,1.8-0.8,3.6-2.7,3.6h-28.4c-1.9,0-3.2-1.8-2.7-3.6l1.1-3.8h15.7h0.7H271.7z"/>
				<path class="st23" d="M256.6,370h0.1c8.5,0.6,16.8,2.5,24.7,5.8"/>
				<line class="st23" x1="256" y1="370" x2="256" y2="349.3"/>
				<line class="st21" x1="275.2" y1="441.2" x2="275.2" y2="461.1"/>
				<polyline class="st21" points="294.6,468.7 256.2,468.7 255.8,468.7 				"/>
				<line class="st21" x1="318.6" y1="227.7" x2="288.9" y2="232.2"/>
				<line class="st21" x1="282.2" y1="160.7" x2="281.8" y2="161"/>
				<path class="st21" d="M274,228.5c0,2.1-1.7,3.7-3.7,3.7h-28.5c-2.1,0-3.7-1.7-3.7-3.7s1.7-3.7,3.7-3.7h28.5
					C272.3,224.8,274,226.4,274,228.5z"/>
				<path class="st21" d="M274,267.2c0,2.6-2.1,4.7-4.7,4.7h-26.6c-2.6,0-4.7-2.1-4.7-4.7v-13c0-2.6,2.1-4.7,4.7-4.7h26.6
					c2.6,0,4.7,2.1,4.7,4.7V267.2z"/>
				<path class="st21" d="M311.2,284.3c0,2.7,2.2,5,5,5c2.7,0,4.9-2.2,4.9-5c0-2.7-2.2-5-4.9-5C313.4,279.3,311.2,281.5,311.2,284.3
					z"/>
				<circle class="st21" cx="306.2" cy="262" r="2.5"/>
				<polyline class="st21" points="255.9,212.4 255.9,160.8 255.9,160.7 				"/>
				<path class="st21" d="M345.3,305l7.5,4.4c1.3,0.7,2.9,0.3,3.6-1l14.7-25.4c0.7-1.3,0.3-2.9-1-3.6l-7.5-4.4
					c-1.3-0.7-2.9-0.3-3.6,1l-14.7,25.4C343.6,302.6,344,304.2,345.3,305z"/>
				<path class="st21" d="M402.9,219.8v22.3h-3.2c-5.1,0-9.2,4.1-9.2,9.2v1.6l19.8,9.2v-42.3"/>
				<path class="st21" d="M410.3,219.8h1.2c0.7,0,1.3-0.6,1.3-1.3v-11.1h-12.4v11.1c0,0.7,0.6,1.3,1.3,1.3h1.2H410.3z"/>
				<line class="st24" x1="405.7" y1="255" x2="405.7" y2="243.2"/>
				<circle class="st21" cx="399.2" cy="248.3" r="1.2"/>
				<path class="st21" d="M360.8,200v22.3h-3.2c-5.1,0-9.2,4.1-9.2,9.2v1.6l19.8,9.2V200"/>
				<path class="st21" d="M368.2,200h1.2c0.7,0,1.3-0.6,1.3-1.3v-11.1h-12.4v11.1c0,0.7,0.6,1.3,1.3,1.3h1.2H368.2z"/>
				<line class="st24" x1="363.5" y1="235.1" x2="363.5" y2="223.4"/>
				<circle class="st21" cx="357" cy="228.5" r="1.2"/>
				<path class="st21" d="M290,352.6c2.8,1.1,4.5,3.8,4.5,6.6c0,0.9-0.2,1.8-0.5,2.7c-1.4,3.7-5.6,5.5-9.3,4l-16.9-6.7
					c-1.9-0.8-2.8-2.9-2-4.7l2.6-6.6c0.7-1.9,2.9-2.8,4.7-2L290,352.6z"/>
				<line class="st21" x1="256" y1="33.1" x2="256" y2="109.5"/>
			</g>
		</g>
	</g>
</g>
<g id="RED">
	<g id="Spaceships_1_">
		<g id="Small_x5F_1_2_">
			<g>
				<path class="st27" d="M447.5,294.2v31.8c0,3.4-0.7,6.6-2,9.5l-80.6-6.1l15.8-19.9c1.4-1.8,3.8-2.4,5.8-1.5l5.4,2.2
					c2,0.8,4.4,0.1,5.5-1.8l7.5-12c1.5-2.4,0.5-5.5-2.2-6.6L401,289c-2.9-1.2-4-4.6-2.5-7.3l4.4-7.3l0.3-0.6l7.1,3.3L447.5,294.2z"
					/>
				<polygon class="st5" points="447.5,279.3 447.5,294.2 410.3,277 403.2,273.7 390.5,267.9 318.6,234.7 318.6,227.7 318.6,219.8 
					390.5,253 410.3,262.1 				"/>
				<path class="st5" d="M364.9,329.3l80.6,6.1c-3.9,8.8-13,14.7-23.2,13.9l-103.7-8v-15.4L364.9,329.3z"/>
				<path class="st28" d="M412.8,207.4v11.1c0,0.7-0.6,1.3-1.3,1.3h-1.2h-7.4h-1.2c-0.7,0-1.3-0.6-1.3-1.3v-11.1H412.8z"/>
				<path class="st6" d="M410.3,219.8v42.3l-19.8-9.2v-1.6c0-5.1,4.1-9.2,9.2-9.2h3.2v-22.3H410.3z M400.4,248.3
					c0-0.7-0.6-1.2-1.2-1.2c-0.7,0-1.2,0.6-1.2,1.2c0,0.7,0.5,1.2,1.2,1.2C399.9,249.6,400.4,249,400.4,248.3z"/>
				<path class="st6" d="M402.9,289.7c2.6,1,3.6,4.2,2.2,6.6l-7.5,12c-1.2,1.9-3.5,2.6-5.5,1.8l-5.4-2.2c-2.1-0.8-4.4-0.2-5.8,1.5
					l-15.8,19.9l38-55l-4.4,7.3c-1.6,2.7-0.4,6.1,2.5,7.3L402.9,289.7z"/>
				<path class="st6" d="M403.2,273.7l-0.3,0.6l-38,55l-46.3-3.5V323l9.8-10.2c3.2-3.4,5-7.8,5-12.5V275c0-4.8-1.9-9.4-5.3-12.8
					l-9.5-9.5v-18.1l71.9,33.2L403.2,273.7z M371.2,282.9c0.7-1.3,0.3-2.9-1-3.6l-7.5-4.4c-1.3-0.7-2.9-0.3-3.6,1l-14.7,25.4
					c-0.7,1.3-0.3,2.9,1,3.6l7.5,4.4c1.3,0.7,2.9,0.3,3.6-1L371.2,282.9z"/>
				<circle class="st28" cx="399.2" cy="248.3" r="1.2"/>
				<path class="st28" d="M370.2,279.3c1.3,0.7,1.7,2.4,1,3.6l-14.7,25.4c-0.7,1.3-2.4,1.7-3.6,1l-7.5-4.4c-1.3-0.7-1.7-2.4-1-3.6
					l14.7-25.4c0.7-1.3,2.4-1.7,3.6-1L370.2,279.3z"/>
				<path class="st28" d="M370.7,187.6v11.1c0,0.7-0.6,1.3-1.3,1.3h-1.2h-7.4h-1.2c-0.7,0-1.3-0.6-1.3-1.3v-11.1H370.7z"/>
				<path class="st6" d="M368.2,200v42.3l-19.8-9.2v-1.6c0-5.1,4.1-9.2,9.2-9.2h3.2V200H368.2z M358.3,228.5c0-0.7-0.6-1.2-1.2-1.2
					c-0.7,0-1.2,0.5-1.2,1.2c0,0.7,0.6,1.2,1.2,1.2C357.7,229.7,358.3,229.2,358.3,228.5z"/>
				<circle class="st28" cx="357" cy="228.5" r="1.2"/>
				<path class="st6" d="M333.5,275v25.2c0,4.6-1.8,9.1-5,12.5l-9.8,10.2l-41.5-41.5c7-3.9,11.8-11.4,11.8-19.9v-22.6v-6.7l29.8-4.5
					v6.9v18.1l9.5,9.5C331.6,265.6,333.5,270.2,333.5,275z M321.1,284.3c0-2.7-2.2-5-4.9-5c-2.7,0-5,2.2-5,5c0,2.7,2.2,5,5,5
					C318.9,289.2,321.1,287,321.1,284.3z M308.7,262c0-1.4-1.1-2.5-2.5-2.5s-2.5,1.1-2.5,2.5c0,1.4,1.1,2.5,2.5,2.5
					S308.7,263.3,308.7,262z"/>
				<path class="st28" d="M316.1,279.3c2.7,0,4.9,2.2,4.9,5c0,2.7-2.2,5-4.9,5c-2.7,0-5-2.2-5-5
					C311.2,281.5,313.4,279.3,316.1,279.3z"/>
				<path class="st28" d="M318.6,325.9v15.4l-7.4,8.2l-21-12.9c-20.9-12.9-47.4-12.9-68.3,0l-21,12.9l-7.4-8.2v-15.4V323l41.5-41.5
					c3.2,1.8,7,2.8,11,2.8h20.2c4,0,7.7-1,11-2.8l41.5,41.5V325.9z"/>
				<polygon class="st6" points="281.8,161 256.6,110.7 256,109.5 256,33.1 256.6,34.8 318.6,207.4 318.6,219.8 318.6,227.7 
					288.9,232.2 288.9,175.2 				"/>
				<path class="st6" d="M311.2,349.5l-4.1,4.5c-5.6,6.1-9.5,33.3-11.6,55.1l-7.2-3c-10.1-4.1-20.9-6.3-31.6-6.7h-0.1
					c-0.2,0-0.4,0-0.6,0c-0.2,0-0.4,0-0.6,0h-0.1c-10.7,0.3-21.5,2.5-31.6,6.7l-7.2,3c-2.1-21.8-6-49-11.6-55.1l-4.1-4.5l21-12.9
					c20.9-12.9,47.4-12.9,68.3,0L311.2,349.5z M294,361.9c0.4-0.9,0.5-1.8,0.5-2.7c0-2.8-1.7-5.5-4.5-6.6l-16.9-6.7
					c-1.9-0.8-4,0.2-4.7,2l-2.6,6.6c-0.7,1.9,0.2,4,2,4.7l16.9,6.7C288.4,367.4,292.5,365.6,294,361.9z M256.6,370l24.8,5.8
					c-7.8-3.3-16.2-5.2-24.7-5.8H256.6z M230.6,375.8l24.8-5.8h-0.1C246.8,370.6,238.4,372.5,230.6,375.8z M244.2,359.2
					c1.9-0.8,2.8-2.9,2-4.7l-2.6-6.6c-0.7-1.9-2.9-2.8-4.7-2l-16.9,6.7c-2.8,1.1-4.5,3.8-4.5,6.6c0,0.9,0.2,1.8,0.5,2.7
					c1.4,3.7,5.6,5.5,9.3,4L244.2,359.2z"/>
				<circle class="st28" cx="306.2" cy="262" r="2.5"/>
				<path class="st28" d="M297.4,409.8c2.3,0.9,3.7,3.3,3.5,5.8c-0.8,9.9-1.2,18.1-1.2,22.2c0,1.4-0.1,2.9-0.3,4.2l-4.3-1.8
					l-1.6-0.6l-4.5-1.8c-1.4-0.6-2.8-1.1-4.1-1.6c-1.4-0.5-2.7-0.9-4.1-1.3c-1.9-0.6-3.9-1.1-5.9-1.5c-0.7-0.2-1.5-0.4-2.2-0.5
					c-1.3-0.2-2.6-0.5-3.9-0.7c-1.3-0.2-2.6-0.4-3.9-0.5c-1.3-0.2-2.7-0.3-4.1-0.4c-0.1,0-0.2,0-0.3,0c-0.8,0-2.3-0.1-3.9-0.1h-0.5
					h-0.7v0c-1.6,0-3.1,0-3.9,0.1c-0.1,0-0.2,0-0.3,0c-1.4,0.1-2.8,0.2-4.1,0.4c-1.3,0.1-2.6,0.3-3.9,0.5c-1.3,0.2-2.6,0.5-3.9,0.7
					c-0.8,0.1-1.5,0.3-2.2,0.5c-2,0.4-3.9,0.9-5.8,1.5c-1.4,0.4-2.7,0.9-4.1,1.3c-1.4,0.5-2.8,1-4.1,1.6l-4.5,1.8l-1.6,0.6l-4.3,1.8
					c-0.2-1.4-0.3-2.8-0.3-4.2c0-4.1-0.4-12.2-1.2-22.2c-0.2-2.5,1.2-4.8,3.5-5.8l1.8-0.7l7.2-3c10.1-4.1,20.9-6.3,31.6-6.7h0.1
					c0.2,0,0.4,0,0.6,0c0.2,0,0.4,0,0.6,0h0.1c10.7,0.3,21.5,2.5,31.6,6.7l7.2,3L297.4,409.8z"/>
				<path class="st5" d="M295,440.1v25.5c0,1.1-0.1,2.1-0.4,3.1h-38.4c0.3-1,0.4-2,0.4-3.1V431c1.6,0,3.1,0,3.9,0.1
					c0.1,0,0.2,0,0.3,0c1.4,0.1,2.8,0.2,4.1,0.4c1.3,0.1,2.6,0.3,3.9,0.5c1.3,0.2,2.6,0.5,3.9,0.7c0.8,0.1,1.5,0.3,2.2,0.5
					c2,0.4,3.9,0.9,5.9,1.5c1.4,0.4,2.7,0.9,4.1,1.3c1.4,0.5,2.8,1,4.1,1.6l4.5,1.8L295,440.1z"/>
				<path class="st27" d="M256.2,468.7h38.4c-1.6,5.9-7.7,10.2-14.9,10.2h-9c-7,0-12.9-4.1-14.7-9.6
					C256.1,469.1,256.1,468.9,256.2,468.7z"/>
				<path class="st28" d="M294.5,359.3c0,0.9-0.2,1.8-0.5,2.7c-1.4,3.7-5.6,5.5-9.3,4l-16.9-6.7c-1.9-0.8-2.8-2.9-2-4.7l2.6-6.6
					c0.7-1.9,2.9-2.8,4.7-2l16.9,6.7C292.8,353.8,294.5,356.4,294.5,359.3z"/>
				<path class="st5" d="M288.9,238.9v22.6c0,8.6-4.8,16.1-11.8,19.9c-3.2,1.8-7,2.8-11,2.8h-20.2c-4,0-7.7-1-11-2.8
					c-7-3.9-11.8-11.4-11.8-19.9v-22.6H288.9z M274,267.2v-13c0-2.6-2.1-4.7-4.7-4.7h-26.6c-2.6,0-4.7,2.1-4.7,4.7v13
					c0,2.6,2.1,4.7,4.7,4.7h26.6C271.9,271.9,274,269.8,274,267.2z"/>
				<path class="st5" d="M288.9,232.2v6.7h-65.7v-6.7v-57l7.1-14.1l19.6,19.6l-9.5,31.8l-1.1,3.8c-0.5,1.8,0.8,3.6,2.7,3.6h28.4
					c1.9,0,3.2-1.8,2.7-3.6l-1.1-3.8l-9.5-31.8l19.6-19.6l7.1,14.1V232.2z M274,228.5c0-2.1-1.7-3.7-3.7-3.7h-28.5
					c-2.1,0-3.7,1.7-3.7,3.7s1.7,3.7,3.7,3.7h28.5C272.3,232.2,274,230.5,274,228.5z"/>
				<path class="st28" d="M255.9,160.8c-0.2,0.1-0.3,0.3-0.3,0.5l-0.2,0.7l-5.6,18.6L230.2,161l25.2-50.3l0.6-1.2l0.6,1.2l25.2,50.3
					l-19.6,19.6l-5.6-18.6l-0.2-0.7c-0.1-0.2-0.2-0.4-0.3-0.5c0,0,0,0,0,0L255.9,160.8L255.9,160.8
					C255.9,160.8,255.9,160.8,255.9,160.8z"/>
				<path class="st6" d="M281.4,375.8l-24.8-5.8h0.1C265.2,370.6,273.6,372.5,281.4,375.8z"/>
				<path class="st28" d="M274,254.2v13c0,2.6-2.1,4.7-4.7,4.7h-26.6c-2.6,0-4.7-2.1-4.7-4.7v-13c0-2.6,2.1-4.7,4.7-4.7h26.6
					C271.9,249.6,274,251.6,274,254.2z"/>
				<path class="st28" d="M270.3,224.8c2,0,3.7,1.7,3.7,3.7s-1.7,3.7-3.7,3.7h-28.5c-2.1,0-3.7-1.7-3.7-3.7s1.7-3.7,3.7-3.7H270.3z"
					/>
				<path class="st28" d="M272.9,216.2c0.5,1.8-0.8,3.6-2.7,3.6h-28.4c-1.9,0-3.2-1.8-2.7-3.6l1.1-3.8h15.7h0.7h15.1L272.9,216.2z"
					/>
				<polygon class="st29" points="262.2,180.6 271.7,212.4 256.6,212.4 256.6,162 				"/>
				<path class="st5" d="M256.6,431v34.7c0,1.1-0.1,2.1-0.4,3.1h-0.3c-0.3-1-0.4-2-0.4-3.1V431c0.2,0,0.4,0,0.7,0H256.6z"/>
				<path class="st28" d="M256.6,162v50.4h-0.7v-51.6c0,0,0,0,0,0l0.1-0.1l0.1,0.1c0,0,0,0,0,0c0.2,0.1,0.3,0.3,0.3,0.5L256.6,162z"
					/>
				<path class="st6" d="M255.8,468.7h0.3c-0.1,0.2-0.1,0.4-0.2,0.6C255.9,469.1,255.9,468.9,255.8,468.7z"/>
				<path class="st6" d="M255.4,431h0.7C255.8,431,255.6,431,255.4,431L255.4,431z"/>
				<polygon class="st6" points="230.2,161 223.1,175.2 223.1,232.2 193.4,227.7 193.4,219.8 193.4,207.4 255.4,34.8 256,33.1 
					256,109.5 255.4,110.7 				"/>
				<path class="st29" d="M255.9,160.8v51.6h-15.7l9.5-31.8l5.6-18.6l0.2-0.7C255.6,161.1,255.8,160.9,255.9,160.8z"/>
				<path class="st27" d="M255.8,468.7c0.1,0.2,0.1,0.4,0.2,0.6c-1.8,5.6-7.7,9.6-14.7,9.6h-9c-7.2,0-13.3-4.3-14.9-10.2H255.8z"/>
				<path class="st5" d="M255.8,468.7h-38.4c-0.3-1-0.4-2-0.4-3.1v-25.5l1.6-0.6l4.5-1.8c1.4-0.6,2.8-1.1,4.1-1.6
					c1.4-0.5,2.7-0.9,4.1-1.3c1.9-0.6,3.9-1.1,5.8-1.5c0.7-0.2,1.5-0.4,2.2-0.5c1.3-0.2,2.6-0.5,3.9-0.7c1.3-0.2,2.6-0.4,3.9-0.5
					c1.3-0.2,2.7-0.3,4.1-0.4c0.1,0,0.2,0,0.3,0c0.8,0,2.3-0.1,3.9-0.1v34.7C255.4,466.7,255.5,467.7,255.8,468.7z"/>
				<path class="st6" d="M255.4,370l-24.8,5.8c7.8-3.3,16.2-5.2,24.7-5.8H255.4z"/>
				<path class="st28" d="M246.2,354.5c0.7,1.9-0.2,4-2,4.7l-16.9,6.7c-3.7,1.4-7.8-0.4-9.3-4c-0.3-0.9-0.5-1.8-0.5-2.7
					c0-2.8,1.7-5.5,4.5-6.6l16.9-6.7c1.9-0.8,4,0.2,4.7,2L246.2,354.5z"/>
				<path class="st6" d="M234.9,281.4L193.4,323l-9.8-10.2c-3.2-3.4-5-7.8-5-12.5V275c0-4.8,1.9-9.4,5.3-12.8l9.5-9.5v-18.1v-6.9
					l29.8,4.5v6.7v22.6C223.1,270.1,227.9,277.6,234.9,281.4z M208.3,262c0-1.4-1.1-2.5-2.5-2.5c-1.4,0-2.5,1.1-2.5,2.5
					c0,1.4,1.1,2.5,2.5,2.5C207.2,264.4,208.3,263.3,208.3,262z M200.8,284.3c0-2.7-2.2-5-5-5c-2.7,0-4.9,2.2-4.9,5
					c0,2.7,2.2,5,4.9,5C198.6,289.2,200.8,287,200.8,284.3z"/>
				<circle class="st28" cx="205.8" cy="262" r="2.5"/>
				<path class="st28" d="M195.9,279.3c2.7,0,5,2.2,5,5c0,2.7-2.2,5-5,5c-2.7,0-4.9-2.2-4.9-5C190.9,281.5,193.1,279.3,195.9,279.3z
					"/>
				<path class="st5" d="M193.4,325.9v15.4l-103.7,8c-10.2,0.8-19.3-5.1-23.2-13.9l80.6-6.1L193.4,325.9z"/>
				<path class="st6" d="M193.4,323v2.9l-46.3,3.5l-38-55l-0.3-0.6l12.7-5.9l71.9-33.2v18.1l-9.5,9.5c-3.4,3.4-5.3,8-5.3,12.8v25.2
					c0,4.6,1.8,9.1,5,12.5L193.4,323z M166.7,305c1.3-0.7,1.7-2.4,1-3.6L153,275.9c-0.7-1.3-2.4-1.7-3.7-1l-7.5,4.4
					c-1.3,0.7-1.7,2.4-1,3.6l14.7,25.4c0.7,1.3,2.4,1.7,3.7,1L166.7,305z"/>
				<polygon class="st5" points="193.4,227.7 193.4,234.7 121.5,267.9 108.8,273.7 101.7,277 64.5,294.2 64.5,279.3 101.7,262.1 
					121.5,253 193.4,219.8 				"/>
				<path class="st28" d="M167.7,301.3c0.7,1.3,0.3,2.9-1,3.6l-7.5,4.4c-1.3,0.7-2.9,0.3-3.7-1l-14.7-25.4c-0.7-1.3-0.3-2.9,1-3.6
					l7.5-4.4c1.3-0.7,2.9-0.3,3.7,1L167.7,301.3z"/>
				<path class="st6" d="M163.6,231.5v1.6l-19.8,9.2V200h7.4v22.3h3.2C159.5,222.3,163.6,226.4,163.6,231.5z M156.2,228.5
					c0-0.7-0.6-1.2-1.2-1.2c-0.7,0-1.2,0.5-1.2,1.2c0,0.7,0.6,1.2,1.2,1.2C155.6,229.7,156.2,229.2,156.2,228.5z"/>
				<circle class="st28" cx="155" cy="228.5" r="1.2"/>
				<path class="st28" d="M153.7,187.6v11.1c0,0.7-0.6,1.3-1.3,1.3h-1.2h-7.4h-1.2c-0.7,0-1.3-0.6-1.3-1.3v-11.1H153.7z"/>
				<path class="st6" d="M109.1,274.4l38,55l-15.8-19.9c-1.4-1.8-3.8-2.4-5.8-1.5l-5.4,2.2c-2,0.8-4.3,0.1-5.5-1.8l-7.5-12
					c-1.5-2.4-0.5-5.5,2.2-6.6l1.9-0.8c2.9-1.2,4.1-4.6,2.5-7.3L109.1,274.4z"/>
				<path class="st27" d="M131.3,309.5l15.8,19.9l-80.6,6.1c-1.3-2.9-2-6.1-2-9.5v-31.8l37.2-17.1l7.1-3.3l0.3,0.6l4.4,7.3
					c1.6,2.7,0.4,6.1-2.5,7.3l-1.9,0.8c-2.6,1-3.6,4.2-2.2,6.6l7.5,12c1.2,1.9,3.5,2.6,5.5,1.8l5.4-2.2
					C127.5,307.1,129.9,307.7,131.3,309.5z"/>
				<path class="st6" d="M121.5,251.3v1.6l-19.8,9.2v-42.3h7.4v22.3h3.2C117.3,242.1,121.5,246.3,121.5,251.3z M114.1,248.3
					c0-0.7-0.6-1.2-1.2-1.2c-0.7,0-1.2,0.6-1.2,1.2c0,0.7,0.6,1.2,1.2,1.2C113.5,249.6,114.1,249,114.1,248.3z"/>
				<circle class="st28" cx="112.8" cy="248.3" r="1.2"/>
				<path class="st28" d="M111.6,207.4v11.1c0,0.7-0.6,1.3-1.3,1.3h-1.2h-7.4h-1.2c-0.7,0-1.3-0.6-1.3-1.3v-11.1H111.6z"/>
			</g>
			<g>
				<path class="st21" d="M256,469.3c-1.8,5.6-7.7,9.6-14.7,9.6h-9c-7.2,0-13.3-4.3-14.9-10.2c-0.3-1-0.4-2-0.4-3.1v-25.5"/>
				<path class="st21" d="M295,440.1v25.5c0,1.1-0.1,2.1-0.4,3.1c-1.6,5.9-7.7,10.2-14.9,10.2h-9c-7,0-12.9-4.1-14.7-9.6
					c-0.1-0.2-0.1-0.4-0.2-0.6c-0.3-1-0.4-2-0.4-3.1V431"/>
				<polyline class="st21" points="193.4,219.8 193.4,207.4 255.4,34.8 256,33.1 256.6,34.8 318.6,207.4 318.6,219.8 				"/>
				<path class="st21" d="M295.5,409c2.1-21.8,6-49,11.6-55.1l4.1-4.5"/>
				<path class="st21" d="M200.8,349.5l4.1,4.5c5.6,6.1,9.5,33.3,11.6,55.1"/>
				<line class="st21" x1="277.1" y1="281.4" x2="318.6" y2="323"/>
				<line class="st21" x1="193.4" y1="323" x2="234.9" y2="281.4"/>
				<path class="st21" d="M318.6,341.3l-7.4,8.2l-21-12.9c-20.9-12.9-47.4-12.9-68.3,0l-21,12.9l-7.4-8.2"/>
				<polyline class="st21" points="121.5,253 193.4,219.8 193.4,227.7 193.4,234.7 				"/>
				<polyline class="st21" points="64.5,294.2 64.5,279.3 101.7,262.1 				"/>
				<path class="st21" d="M66.4,335.4c-1.3-2.9-2-6.1-2-9.5v-31.8l37.2-17.1l7.1-3.3l12.7-5.9l71.9-33.2v18.1l-9.5,9.5
					c-3.4,3.4-5.3,8-5.3,12.8v25.2c0,4.6,1.8,9.1,5,12.5l9.8,10.2v2.9"/>
				<path class="st21" d="M109.1,274.4l4.4,7.3c1.6,2.7,0.4,6.1-2.5,7.3l-1.9,0.8c-2.6,1-3.6,4.2-2.2,6.6l7.5,12
					c1.2,1.9,3.5,2.6,5.5,1.8l5.4-2.2c2.1-0.8,4.4-0.2,5.8,1.5l15.8,19.9"/>
				<path class="st21" d="M193.4,325.9v15.4l-103.7,8c-10.2,0.8-19.3-5.1-23.2-13.9l80.6-6.1L193.4,325.9z"/>
				<path class="st23" d="M230.6,375.8c7.8-3.3,16.2-5.2,24.7-5.8h0.1"/>
				<line class="st21" x1="236.8" y1="441.2" x2="236.8" y2="461.1"/>
				<line class="st21" x1="255.8" y1="468.7" x2="217.4" y2="468.7"/>
				<line class="st21" x1="193.4" y1="227.7" x2="223.1" y2="232.2"/>
				<line class="st21" x1="230.2" y1="161" x2="229.8" y2="160.7"/>
				<path class="st21" d="M200.8,284.3c0,2.7-2.2,5-5,5c-2.7,0-4.9-2.2-4.9-5c0-2.7,2.2-5,4.9-5
					C198.6,279.3,200.8,281.5,200.8,284.3z"/>
				<circle class="st21" cx="205.8" cy="262" r="2.5"/>
				<path class="st21" d="M166.7,305l-7.5,4.4c-1.3,0.7-2.9,0.3-3.7-1l-14.7-25.4c-0.7-1.3-0.3-2.9,1-3.6l7.5-4.4
					c1.3-0.7,2.9-0.3,3.7,1l14.7,25.4C168.4,302.6,168,304.2,166.7,305z"/>
				<path class="st21" d="M109.1,219.8v22.3h3.2c5.1,0,9.2,4.1,9.2,9.2v1.6l-19.8,9.2v-42.3"/>
				<path class="st21" d="M101.7,219.8h-1.2c-0.7,0-1.3-0.6-1.3-1.3v-11.1h12.4v11.1c0,0.7-0.6,1.3-1.3,1.3h-1.2H101.7z"/>
				<line class="st24" x1="106.3" y1="255" x2="106.3" y2="243.2"/>
				<circle class="st21" cx="112.8" cy="248.3" r="1.2"/>
				<path class="st21" d="M151.2,200v22.3h3.2c5.1,0,9.2,4.1,9.2,9.2v1.6l-19.8,9.2V200"/>
				<path class="st21" d="M143.8,200h-1.2c-0.7,0-1.3-0.6-1.3-1.3v-11.1h12.4v11.1c0,0.7-0.6,1.3-1.3,1.3h-1.2H143.8z"/>
				<line class="st24" x1="148.5" y1="235.1" x2="148.5" y2="223.4"/>
				<circle class="st21" cx="155" cy="228.5" r="1.2"/>
				<path class="st21" d="M244.2,359.2l-16.9,6.7c-3.7,1.4-7.8-0.4-9.3-4c-0.3-0.9-0.5-1.8-0.5-2.7c0-2.8,1.7-5.5,4.5-6.6l16.9-6.7
					c1.9-0.8,4,0.2,4.7,2l2.6,6.6C247,356.4,246.1,358.5,244.2,359.2z"/>
				<polyline class="st21" points="390.5,253 318.6,219.8 318.6,227.7 318.6,234.7 				"/>
				<polyline class="st21" points="447.5,294.2 447.5,279.3 410.3,262.1 				"/>
				<path class="st21" d="M318.6,325.9V323l9.8-10.2c3.2-3.4,5-7.8,5-12.5V275c0-4.8-1.9-9.4-5.3-12.8l-9.5-9.5v-18.1l71.9,33.2
					l12.7,5.9l7.1,3.3l37.2,17.1v31.8c0,3.4-0.7,6.6-2,9.5"/>
				<path class="st21" d="M402.9,274.4l-4.4,7.3c-1.6,2.7-0.4,6.1,2.5,7.3l1.9,0.8c2.6,1,3.6,4.2,2.2,6.6l-7.5,12
					c-1.2,1.9-3.5,2.6-5.5,1.8l-5.4-2.2c-2.1-0.8-4.4-0.2-5.8,1.5l-15.8,19.9"/>
				<path class="st21" d="M445.5,335.4c-3.9,8.8-13,14.7-23.2,13.9l-103.7-8v-15.4l46.3,3.5L445.5,335.4z"/>
				<path class="st21" d="M295.5,409l1.8,0.7c2.3,0.9,3.7,3.3,3.5,5.8c-0.8,9.9-1.2,18.1-1.2,22.2c0,1.4-0.1,2.9-0.3,4.2l-4.3-1.8
					l-1.6-0.6l-4.5-1.8c-1.4-0.6-2.8-1.1-4.1-1.6c-1.4-0.5-2.7-0.9-4.1-1.3c-1.9-0.6-3.9-1.1-5.9-1.5c-0.7-0.2-1.5-0.4-2.2-0.5
					c-1.3-0.2-2.6-0.5-3.9-0.7c-1.3-0.2-2.6-0.4-3.9-0.5c-1.3-0.2-2.7-0.3-4.1-0.4c-0.1,0-0.2,0-0.3,0c-0.8,0-2.3-0.1-3.9-0.1h-0.5
					h-0.7v0c-1.6,0-3.1,0-3.9,0.1c-0.1,0-0.2,0-0.3,0c-1.4,0.1-2.8,0.2-4.1,0.4c-1.3,0.1-2.6,0.3-3.9,0.5c-1.3,0.2-2.6,0.5-3.9,0.7
					c-0.8,0.1-1.5,0.3-2.2,0.5c-2,0.4-3.9,0.9-5.8,1.5c-1.4,0.4-2.7,0.9-4.1,1.3c-1.4,0.5-2.8,1-4.1,1.6l-4.5,1.8l-1.6,0.6l-4.3,1.8
					c-0.2-1.4-0.3-2.8-0.3-4.2c0-4.1-0.4-12.2-1.2-22.2c-0.2-2.5,1.2-4.8,3.5-5.8l1.8-0.7l7.2-3c10.1-4.1,20.9-6.3,31.6-6.7h0.1
					c0.2,0,0.4,0,0.6,0c0.2,0,0.4,0,0.6,0h0.1c10.7,0.3,21.5,2.5,31.6,6.7L295.5,409z"/>
				<path class="st21" d="M223.1,238.9v22.6c0,8.6,4.8,16.1,11.8,19.9c3.2,1.8,7,2.8,11,2.8h20.2c4,0,7.7-1,11-2.8
					c7-3.9,11.8-11.4,11.8-19.9v-22.6"/>
				<polyline class="st21" points="230.2,161 255.4,110.7 256,109.5 256.6,110.7 281.8,161 				"/>
				<path class="st21" d="M262.2,180.6l-5.6-18.6l-0.2-0.7c-0.1-0.2-0.2-0.4-0.3-0.5c0,0,0,0,0,0l-0.1-0.1l-0.1,0.1c0,0,0,0,0,0
					c-0.2,0.1-0.3,0.3-0.3,0.5l-0.2,0.7l-5.6,18.6"/>
				<polyline class="st21" points="240.3,212.4 249.8,180.6 230.2,161 223.1,175.2 223.1,232.2 223.1,238.9 288.9,238.9 
					288.9,232.2 288.9,175.2 281.8,161 262.2,180.6 271.7,212.4 				"/>
				<path class="st21" d="M271.7,212.4l1.1,3.8c0.5,1.8-0.8,3.6-2.7,3.6h-28.4c-1.9,0-3.2-1.8-2.7-3.6l1.1-3.8h15.7h0.7H271.7z"/>
				<path class="st23" d="M256.6,370h0.1c8.5,0.6,16.8,2.5,24.7,5.8"/>
				<line class="st23" x1="256" y1="370" x2="256" y2="349.3"/>
				<line class="st21" x1="275.2" y1="441.2" x2="275.2" y2="461.1"/>
				<polyline class="st21" points="294.6,468.7 256.2,468.7 255.8,468.7 				"/>
				<line class="st21" x1="318.6" y1="227.7" x2="288.9" y2="232.2"/>
				<line class="st21" x1="282.2" y1="160.7" x2="281.8" y2="161"/>
				<path class="st21" d="M274,228.5c0,2.1-1.7,3.7-3.7,3.7h-28.5c-2.1,0-3.7-1.7-3.7-3.7s1.7-3.7,3.7-3.7h28.5
					C272.3,224.8,274,226.4,274,228.5z"/>
				<path class="st21" d="M274,267.2c0,2.6-2.1,4.7-4.7,4.7h-26.6c-2.6,0-4.7-2.1-4.7-4.7v-13c0-2.6,2.1-4.7,4.7-4.7h26.6
					c2.6,0,4.7,2.1,4.7,4.7V267.2z"/>
				<path class="st21" d="M311.2,284.3c0,2.7,2.2,5,5,5c2.7,0,4.9-2.2,4.9-5c0-2.7-2.2-5-4.9-5C313.4,279.3,311.2,281.5,311.2,284.3
					z"/>
				<circle class="st21" cx="306.2" cy="262" r="2.5"/>
				<polyline class="st21" points="255.9,212.4 255.9,160.8 255.9,160.7 				"/>
				<path class="st21" d="M345.3,305l7.5,4.4c1.3,0.7,2.9,0.3,3.6-1l14.7-25.4c0.7-1.3,0.3-2.9-1-3.6l-7.5-4.4
					c-1.3-0.7-2.9-0.3-3.6,1l-14.7,25.4C343.6,302.6,344,304.2,345.3,305z"/>
				<path class="st21" d="M402.9,219.8v22.3h-3.2c-5.1,0-9.2,4.1-9.2,9.2v1.6l19.8,9.2v-42.3"/>
				<path class="st21" d="M410.3,219.8h1.2c0.7,0,1.3-0.6,1.3-1.3v-11.1h-12.4v11.1c0,0.7,0.6,1.3,1.3,1.3h1.2H410.3z"/>
				<line class="st24" x1="405.7" y1="255" x2="405.7" y2="243.2"/>
				<circle class="st21" cx="399.2" cy="248.3" r="1.2"/>
				<path class="st21" d="M360.8,200v22.3h-3.2c-5.1,0-9.2,4.1-9.2,9.2v1.6l19.8,9.2V200"/>
				<path class="st21" d="M368.2,200h1.2c0.7,0,1.3-0.6,1.3-1.3v-11.1h-12.4v11.1c0,0.7,0.6,1.3,1.3,1.3h1.2H368.2z"/>
				<line class="st24" x1="363.5" y1="235.1" x2="363.5" y2="223.4"/>
				<circle class="st21" cx="357" cy="228.5" r="1.2"/>
				<path class="st21" d="M290,352.6c2.8,1.1,4.5,3.8,4.5,6.6c0,0.9-0.2,1.8-0.5,2.7c-1.4,3.7-5.6,5.5-9.3,4l-16.9-6.7
					c-1.9-0.8-2.8-2.9-2-4.7l2.6-6.6c0.7-1.9,2.9-2.8,4.7-2L290,352.6z"/>
				<line class="st21" x1="256" y1="33.1" x2="256" y2="109.5"/>
			</g>
		</g>
	</g>
</g>
<g id="GREEN" class="st0">
	<g id="Spaceships_2_" class="st1">
		<g id="Small_x5F_1_3_">
			<g>
				<path class="st32" d="M447.5,294.2v31.8c0,3.4-0.7,6.6-2,9.5l-80.6-6.1l15.8-19.9c1.4-1.8,3.8-2.4,5.8-1.5l5.4,2.2
					c2,0.8,4.4,0.1,5.5-1.8l7.5-12c1.5-2.4,0.5-5.5-2.2-6.6L401,289c-2.9-1.2-4-4.6-2.5-7.3l4.4-7.3l0.3-0.6l7.1,3.3L447.5,294.2z"
					/>
				<polygon class="st5" points="447.5,279.3 447.5,294.2 410.3,277 403.2,273.7 390.5,267.9 318.6,234.7 318.6,227.7 318.6,219.8 
					390.5,253 410.3,262.1 				"/>
				<path class="st5" d="M364.9,329.3l80.6,6.1c-3.9,8.8-13,14.7-23.2,13.9l-103.7-8v-15.4L364.9,329.3z"/>
				<path class="st30" d="M412.8,207.4v11.1c0,0.7-0.6,1.3-1.3,1.3h-1.2h-7.4h-1.2c-0.7,0-1.3-0.6-1.3-1.3v-11.1H412.8z"/>
				<path class="st6" d="M410.3,219.8v42.3l-19.8-9.2v-1.6c0-5.1,4.1-9.2,9.2-9.2h3.2v-22.3H410.3z M400.4,248.3
					c0-0.7-0.6-1.2-1.2-1.2c-0.7,0-1.2,0.6-1.2,1.2c0,0.7,0.5,1.2,1.2,1.2C399.9,249.6,400.4,249,400.4,248.3z"/>
				<path class="st6" d="M402.9,289.7c2.6,1,3.6,4.2,2.2,6.6l-7.5,12c-1.2,1.9-3.5,2.6-5.5,1.8l-5.4-2.2c-2.1-0.8-4.4-0.2-5.8,1.5
					l-15.8,19.9l38-55l-4.4,7.3c-1.6,2.7-0.4,6.1,2.5,7.3L402.9,289.7z"/>
				<path class="st6" d="M403.2,273.7l-0.3,0.6l-38,55l-46.3-3.5V323l9.8-10.2c3.2-3.4,5-7.8,5-12.5V275c0-4.8-1.9-9.4-5.3-12.8
					l-9.5-9.5v-18.1l71.9,33.2L403.2,273.7z M371.2,282.9c0.7-1.3,0.3-2.9-1-3.6l-7.5-4.4c-1.3-0.7-2.9-0.3-3.6,1l-14.7,25.4
					c-0.7,1.3-0.3,2.9,1,3.6l7.5,4.4c1.3,0.7,2.9,0.3,3.6-1L371.2,282.9z"/>
				<circle class="st30" cx="399.2" cy="248.3" r="1.2"/>
				<path class="st30" d="M370.2,279.3c1.3,0.7,1.7,2.4,1,3.6l-14.7,25.4c-0.7,1.3-2.4,1.7-3.6,1l-7.5-4.4c-1.3-0.7-1.7-2.4-1-3.6
					l14.7-25.4c0.7-1.3,2.4-1.7,3.6-1L370.2,279.3z"/>
				<path class="st30" d="M370.7,187.6v11.1c0,0.7-0.6,1.3-1.3,1.3h-1.2h-7.4h-1.2c-0.7,0-1.3-0.6-1.3-1.3v-11.1H370.7z"/>
				<path class="st6" d="M368.2,200v42.3l-19.8-9.2v-1.6c0-5.1,4.1-9.2,9.2-9.2h3.2V200H368.2z M358.3,228.5c0-0.7-0.6-1.2-1.2-1.2
					c-0.7,0-1.2,0.5-1.2,1.2c0,0.7,0.6,1.2,1.2,1.2C357.7,229.7,358.3,229.2,358.3,228.5z"/>
				<circle class="st30" cx="357" cy="228.5" r="1.2"/>
				<path class="st6" d="M333.5,275v25.2c0,4.6-1.8,9.1-5,12.5l-9.8,10.2l-41.5-41.5c7-3.9,11.8-11.4,11.8-19.9v-22.6v-6.7l29.8-4.5
					v6.9v18.1l9.5,9.5C331.6,265.6,333.5,270.2,333.5,275z M321.1,284.3c0-2.7-2.2-5-4.9-5c-2.7,0-5,2.2-5,5c0,2.7,2.2,5,5,5
					C318.9,289.2,321.1,287,321.1,284.3z M308.7,262c0-1.4-1.1-2.5-2.5-2.5s-2.5,1.1-2.5,2.5c0,1.4,1.1,2.5,2.5,2.5
					S308.7,263.3,308.7,262z"/>
				<path class="st30" d="M316.1,279.3c2.7,0,4.9,2.2,4.9,5c0,2.7-2.2,5-4.9,5c-2.7,0-5-2.2-5-5
					C311.2,281.5,313.4,279.3,316.1,279.3z"/>
				<path class="st30" d="M318.6,325.9v15.4l-7.4,8.2l-21-12.9c-20.9-12.9-47.4-12.9-68.3,0l-21,12.9l-7.4-8.2v-15.4V323l41.5-41.5
					c3.2,1.8,7,2.8,11,2.8h20.2c4,0,7.7-1,11-2.8l41.5,41.5V325.9z"/>
				<polygon class="st6" points="281.8,161 256.6,110.7 256,109.5 256,33.1 256.6,34.8 318.6,207.4 318.6,219.8 318.6,227.7 
					288.9,232.2 288.9,175.2 				"/>
				<path class="st6" d="M311.2,349.5l-4.1,4.5c-5.6,6.1-9.5,33.3-11.6,55.1l-7.2-3c-10.1-4.1-20.9-6.3-31.6-6.7h-0.1
					c-0.2,0-0.4,0-0.6,0c-0.2,0-0.4,0-0.6,0h-0.1c-10.7,0.3-21.5,2.5-31.6,6.7l-7.2,3c-2.1-21.8-6-49-11.6-55.1l-4.1-4.5l21-12.9
					c20.9-12.9,47.4-12.9,68.3,0L311.2,349.5z M294,361.9c0.4-0.9,0.5-1.8,0.5-2.7c0-2.8-1.7-5.5-4.5-6.6l-16.9-6.7
					c-1.9-0.8-4,0.2-4.7,2l-2.6,6.6c-0.7,1.9,0.2,4,2,4.7l16.9,6.7C288.4,367.4,292.5,365.6,294,361.9z M256.6,370l24.8,5.8
					c-7.8-3.3-16.2-5.2-24.7-5.8H256.6z M230.6,375.8l24.8-5.8h-0.1C246.8,370.6,238.4,372.5,230.6,375.8z M244.2,359.2
					c1.9-0.8,2.8-2.9,2-4.7l-2.6-6.6c-0.7-1.9-2.9-2.8-4.7-2l-16.9,6.7c-2.8,1.1-4.5,3.8-4.5,6.6c0,0.9,0.2,1.8,0.5,2.7
					c1.4,3.7,5.6,5.5,9.3,4L244.2,359.2z"/>
				<circle class="st30" cx="306.2" cy="262" r="2.5"/>
				<path class="st30" d="M297.4,409.8c2.3,0.9,3.7,3.3,3.5,5.8c-0.8,9.9-1.2,18.1-1.2,22.2c0,1.4-0.1,2.9-0.3,4.2l-4.3-1.8
					l-1.6-0.6l-4.5-1.8c-1.4-0.6-2.8-1.1-4.1-1.6c-1.4-0.5-2.7-0.9-4.1-1.3c-1.9-0.6-3.9-1.1-5.9-1.5c-0.7-0.2-1.5-0.4-2.2-0.5
					c-1.3-0.2-2.6-0.5-3.9-0.7c-1.3-0.2-2.6-0.4-3.9-0.5c-1.3-0.2-2.7-0.3-4.1-0.4c-0.1,0-0.2,0-0.3,0c-0.8,0-2.3-0.1-3.9-0.1h-0.5
					h-0.7v0c-1.6,0-3.1,0-3.9,0.1c-0.1,0-0.2,0-0.3,0c-1.4,0.1-2.8,0.2-4.1,0.4c-1.3,0.1-2.6,0.3-3.9,0.5c-1.3,0.2-2.6,0.5-3.9,0.7
					c-0.8,0.1-1.5,0.3-2.2,0.5c-2,0.4-3.9,0.9-5.8,1.5c-1.4,0.4-2.7,0.9-4.1,1.3c-1.4,0.5-2.8,1-4.1,1.6l-4.5,1.8l-1.6,0.6l-4.3,1.8
					c-0.2-1.4-0.3-2.8-0.3-4.2c0-4.1-0.4-12.2-1.2-22.2c-0.2-2.5,1.2-4.8,3.5-5.8l1.8-0.7l7.2-3c10.1-4.1,20.9-6.3,31.6-6.7h0.1
					c0.2,0,0.4,0,0.6,0c0.2,0,0.4,0,0.6,0h0.1c10.7,0.3,21.5,2.5,31.6,6.7l7.2,3L297.4,409.8z"/>
				<path class="st5" d="M295,440.1v25.5c0,1.1-0.1,2.1-0.4,3.1h-38.4c0.3-1,0.4-2,0.4-3.1V431c1.6,0,3.1,0,3.9,0.1
					c0.1,0,0.2,0,0.3,0c1.4,0.1,2.8,0.2,4.1,0.4c1.3,0.1,2.6,0.3,3.9,0.5c1.3,0.2,2.6,0.5,3.9,0.7c0.8,0.1,1.5,0.3,2.2,0.5
					c2,0.4,3.9,0.9,5.9,1.5c1.4,0.4,2.7,0.9,4.1,1.3c1.4,0.5,2.8,1,4.1,1.6l4.5,1.8L295,440.1z"/>
				<path class="st32" d="M256.2,468.7h38.4c-1.6,5.9-7.7,10.2-14.9,10.2h-9c-7,0-12.9-4.1-14.7-9.6
					C256.1,469.1,256.1,468.9,256.2,468.7z"/>
				<path class="st30" d="M294.5,359.3c0,0.9-0.2,1.8-0.5,2.7c-1.4,3.7-5.6,5.5-9.3,4l-16.9-6.7c-1.9-0.8-2.8-2.9-2-4.7l2.6-6.6
					c0.7-1.9,2.9-2.8,4.7-2l16.9,6.7C292.8,353.8,294.5,356.4,294.5,359.3z"/>
				<path class="st5" d="M288.9,238.9v22.6c0,8.6-4.8,16.1-11.8,19.9c-3.2,1.8-7,2.8-11,2.8h-20.2c-4,0-7.7-1-11-2.8
					c-7-3.9-11.8-11.4-11.8-19.9v-22.6H288.9z M274,267.2v-13c0-2.6-2.1-4.7-4.7-4.7h-26.6c-2.6,0-4.7,2.1-4.7,4.7v13
					c0,2.6,2.1,4.7,4.7,4.7h26.6C271.9,271.9,274,269.8,274,267.2z"/>
				<path class="st5" d="M288.9,232.2v6.7h-65.7v-6.7v-57l7.1-14.1l19.6,19.6l-9.5,31.8l-1.1,3.8c-0.5,1.8,0.8,3.6,2.7,3.6h28.4
					c1.9,0,3.2-1.8,2.7-3.6l-1.1-3.8l-9.5-31.8l19.6-19.6l7.1,14.1V232.2z M274,228.5c0-2.1-1.7-3.7-3.7-3.7h-28.5
					c-2.1,0-3.7,1.7-3.7,3.7s1.7,3.7,3.7,3.7h28.5C272.3,232.2,274,230.5,274,228.5z"/>
				<path class="st30" d="M255.9,160.8c-0.2,0.1-0.3,0.3-0.3,0.5l-0.2,0.7l-5.6,18.6L230.2,161l25.2-50.3l0.6-1.2l0.6,1.2l25.2,50.3
					l-19.6,19.6l-5.6-18.6l-0.2-0.7c-0.1-0.2-0.2-0.4-0.3-0.5c0,0,0,0,0,0L255.9,160.8L255.9,160.8
					C255.9,160.8,255.9,160.8,255.9,160.8z"/>
				<path class="st6" d="M281.4,375.8l-24.8-5.8h0.1C265.2,370.6,273.6,372.5,281.4,375.8z"/>
				<path class="st30" d="M274,254.2v13c0,2.6-2.1,4.7-4.7,4.7h-26.6c-2.6,0-4.7-2.1-4.7-4.7v-13c0-2.6,2.1-4.7,4.7-4.7h26.6
					C271.9,249.6,274,251.6,274,254.2z"/>
				<path class="st30" d="M270.3,224.8c2,0,3.7,1.7,3.7,3.7s-1.7,3.7-3.7,3.7h-28.5c-2.1,0-3.7-1.7-3.7-3.7s1.7-3.7,3.7-3.7H270.3z"
					/>
				<path class="st30" d="M272.9,216.2c0.5,1.8-0.8,3.6-2.7,3.6h-28.4c-1.9,0-3.2-1.8-2.7-3.6l1.1-3.8h15.7h0.7h15.1L272.9,216.2z"
					/>
				<polygon class="st31" points="262.2,180.6 271.7,212.4 256.6,212.4 256.6,162 				"/>
				<path class="st5" d="M256.6,431v34.7c0,1.1-0.1,2.1-0.4,3.1h-0.3c-0.3-1-0.4-2-0.4-3.1V431c0.2,0,0.4,0,0.7,0H256.6z"/>
				<path class="st30" d="M256.6,162v50.4h-0.7v-51.6c0,0,0,0,0,0l0.1-0.1l0.1,0.1c0,0,0,0,0,0c0.2,0.1,0.3,0.3,0.3,0.5L256.6,162z"
					/>
				<path class="st6" d="M255.8,468.7h0.3c-0.1,0.2-0.1,0.4-0.2,0.6C255.9,469.1,255.9,468.9,255.8,468.7z"/>
				<path class="st6" d="M255.4,431h0.7C255.8,431,255.6,431,255.4,431L255.4,431z"/>
				<polygon class="st6" points="230.2,161 223.1,175.2 223.1,232.2 193.4,227.7 193.4,219.8 193.4,207.4 255.4,34.8 256,33.1 
					256,109.5 255.4,110.7 				"/>
				<path class="st31" d="M255.9,160.8v51.6h-15.7l9.5-31.8l5.6-18.6l0.2-0.7C255.6,161.1,255.8,160.9,255.9,160.8z"/>
				<path class="st32" d="M255.8,468.7c0.1,0.2,0.1,0.4,0.2,0.6c-1.8,5.6-7.7,9.6-14.7,9.6h-9c-7.2,0-13.3-4.3-14.9-10.2H255.8z"/>
				<path class="st5" d="M255.8,468.7h-38.4c-0.3-1-0.4-2-0.4-3.1v-25.5l1.6-0.6l4.5-1.8c1.4-0.6,2.8-1.1,4.1-1.6
					c1.4-0.5,2.7-0.9,4.1-1.3c1.9-0.6,3.9-1.1,5.8-1.5c0.7-0.2,1.5-0.4,2.2-0.5c1.3-0.2,2.6-0.5,3.9-0.7c1.3-0.2,2.6-0.4,3.9-0.5
					c1.3-0.2,2.7-0.3,4.1-0.4c0.1,0,0.2,0,0.3,0c0.8,0,2.3-0.1,3.9-0.1v34.7C255.4,466.7,255.5,467.7,255.8,468.7z"/>
				<path class="st6" d="M255.4,370l-24.8,5.8c7.8-3.3,16.2-5.2,24.7-5.8H255.4z"/>
				<path class="st30" d="M246.2,354.5c0.7,1.9-0.2,4-2,4.7l-16.9,6.7c-3.7,1.4-7.8-0.4-9.3-4c-0.3-0.9-0.5-1.8-0.5-2.7
					c0-2.8,1.7-5.5,4.5-6.6l16.9-6.7c1.9-0.8,4,0.2,4.7,2L246.2,354.5z"/>
				<path class="st6" d="M234.9,281.4L193.4,323l-9.8-10.2c-3.2-3.4-5-7.8-5-12.5V275c0-4.8,1.9-9.4,5.3-12.8l9.5-9.5v-18.1v-6.9
					l29.8,4.5v6.7v22.6C223.1,270.1,227.9,277.6,234.9,281.4z M208.3,262c0-1.4-1.1-2.5-2.5-2.5c-1.4,0-2.5,1.1-2.5,2.5
					c0,1.4,1.1,2.5,2.5,2.5C207.2,264.4,208.3,263.3,208.3,262z M200.8,284.3c0-2.7-2.2-5-5-5c-2.7,0-4.9,2.2-4.9,5
					c0,2.7,2.2,5,4.9,5C198.6,289.2,200.8,287,200.8,284.3z"/>
				<circle class="st30" cx="205.8" cy="262" r="2.5"/>
				<path class="st30" d="M195.9,279.3c2.7,0,5,2.2,5,5c0,2.7-2.2,5-5,5c-2.7,0-4.9-2.2-4.9-5C190.9,281.5,193.1,279.3,195.9,279.3z
					"/>
				<path class="st5" d="M193.4,325.9v15.4l-103.7,8c-10.2,0.8-19.3-5.1-23.2-13.9l80.6-6.1L193.4,325.9z"/>
				<path class="st6" d="M193.4,323v2.9l-46.3,3.5l-38-55l-0.3-0.6l12.7-5.9l71.9-33.2v18.1l-9.5,9.5c-3.4,3.4-5.3,8-5.3,12.8v25.2
					c0,4.6,1.8,9.1,5,12.5L193.4,323z M166.7,305c1.3-0.7,1.7-2.4,1-3.6L153,275.9c-0.7-1.3-2.4-1.7-3.7-1l-7.5,4.4
					c-1.3,0.7-1.7,2.4-1,3.6l14.7,25.4c0.7,1.3,2.4,1.7,3.7,1L166.7,305z"/>
				<polygon class="st5" points="193.4,227.7 193.4,234.7 121.5,267.9 108.8,273.7 101.7,277 64.5,294.2 64.5,279.3 101.7,262.1 
					121.5,253 193.4,219.8 				"/>
				<path class="st30" d="M167.7,301.3c0.7,1.3,0.3,2.9-1,3.6l-7.5,4.4c-1.3,0.7-2.9,0.3-3.7-1l-14.7-25.4c-0.7-1.3-0.3-2.9,1-3.6
					l7.5-4.4c1.3-0.7,2.9-0.3,3.7,1L167.7,301.3z"/>
				<path class="st6" d="M163.6,231.5v1.6l-19.8,9.2V200h7.4v22.3h3.2C159.5,222.3,163.6,226.4,163.6,231.5z M156.2,228.5
					c0-0.7-0.6-1.2-1.2-1.2c-0.7,0-1.2,0.5-1.2,1.2c0,0.7,0.6,1.2,1.2,1.2C155.6,229.7,156.2,229.2,156.2,228.5z"/>
				<circle class="st30" cx="155" cy="228.5" r="1.2"/>
				<path class="st30" d="M153.7,187.6v11.1c0,0.7-0.6,1.3-1.3,1.3h-1.2h-7.4h-1.2c-0.7,0-1.3-0.6-1.3-1.3v-11.1H153.7z"/>
				<path class="st6" d="M109.1,274.4l38,55l-15.8-19.9c-1.4-1.8-3.8-2.4-5.8-1.5l-5.4,2.2c-2,0.8-4.3,0.1-5.5-1.8l-7.5-12
					c-1.5-2.4-0.5-5.5,2.2-6.6l1.9-0.8c2.9-1.2,4.1-4.6,2.5-7.3L109.1,274.4z"/>
				<path class="st32" d="M131.3,309.5l15.8,19.9l-80.6,6.1c-1.3-2.9-2-6.1-2-9.5v-31.8l37.2-17.1l7.1-3.3l0.3,0.6l4.4,7.3
					c1.6,2.7,0.4,6.1-2.5,7.3l-1.9,0.8c-2.6,1-3.6,4.2-2.2,6.6l7.5,12c1.2,1.9,3.5,2.6,5.5,1.8l5.4-2.2
					C127.5,307.1,129.9,307.7,131.3,309.5z"/>
				<path class="st6" d="M121.5,251.3v1.6l-19.8,9.2v-42.3h7.4v22.3h3.2C117.3,242.1,121.5,246.3,121.5,251.3z M114.1,248.3
					c0-0.7-0.6-1.2-1.2-1.2c-0.7,0-1.2,0.6-1.2,1.2c0,0.7,0.6,1.2,1.2,1.2C113.5,249.6,114.1,249,114.1,248.3z"/>
				<circle class="st30" cx="112.8" cy="248.3" r="1.2"/>
				<path class="st30" d="M111.6,207.4v11.1c0,0.7-0.6,1.3-1.3,1.3h-1.2h-7.4h-1.2c-0.7,0-1.3-0.6-1.3-1.3v-11.1H111.6z"/>
			</g>
			<g>
				<path class="st21" d="M256,469.3c-1.8,5.6-7.7,9.6-14.7,9.6h-9c-7.2,0-13.3-4.3-14.9-10.2c-0.3-1-0.4-2-0.4-3.1v-25.5"/>
				<path class="st21" d="M295,440.1v25.5c0,1.1-0.1,2.1-0.4,3.1c-1.6,5.9-7.7,10.2-14.9,10.2h-9c-7,0-12.9-4.1-14.7-9.6
					c-0.1-0.2-0.1-0.4-0.2-0.6c-0.3-1-0.4-2-0.4-3.1V431"/>
				<polyline class="st21" points="193.4,219.8 193.4,207.4 255.4,34.8 256,33.1 256.6,34.8 318.6,207.4 318.6,219.8 				"/>
				<path class="st21" d="M295.5,409c2.1-21.8,6-49,11.6-55.1l4.1-4.5"/>
				<path class="st21" d="M200.8,349.5l4.1,4.5c5.6,6.1,9.5,33.3,11.6,55.1"/>
				<line class="st21" x1="277.1" y1="281.4" x2="318.6" y2="323"/>
				<line class="st21" x1="193.4" y1="323" x2="234.9" y2="281.4"/>
				<path class="st21" d="M318.6,341.3l-7.4,8.2l-21-12.9c-20.9-12.9-47.4-12.9-68.3,0l-21,12.9l-7.4-8.2"/>
				<polyline class="st21" points="121.5,253 193.4,219.8 193.4,227.7 193.4,234.7 				"/>
				<polyline class="st21" points="64.5,294.2 64.5,279.3 101.7,262.1 				"/>
				<path class="st21" d="M66.4,335.4c-1.3-2.9-2-6.1-2-9.5v-31.8l37.2-17.1l7.1-3.3l12.7-5.9l71.9-33.2v18.1l-9.5,9.5
					c-3.4,3.4-5.3,8-5.3,12.8v25.2c0,4.6,1.8,9.1,5,12.5l9.8,10.2v2.9"/>
				<path class="st21" d="M109.1,274.4l4.4,7.3c1.6,2.7,0.4,6.1-2.5,7.3l-1.9,0.8c-2.6,1-3.6,4.2-2.2,6.6l7.5,12
					c1.2,1.9,3.5,2.6,5.5,1.8l5.4-2.2c2.1-0.8,4.4-0.2,5.8,1.5l15.8,19.9"/>
				<path class="st21" d="M193.4,325.9v15.4l-103.7,8c-10.2,0.8-19.3-5.1-23.2-13.9l80.6-6.1L193.4,325.9z"/>
				<path class="st23" d="M230.6,375.8c7.8-3.3,16.2-5.2,24.7-5.8h0.1"/>
				<line class="st21" x1="236.8" y1="441.2" x2="236.8" y2="461.1"/>
				<line class="st21" x1="255.8" y1="468.7" x2="217.4" y2="468.7"/>
				<line class="st21" x1="193.4" y1="227.7" x2="223.1" y2="232.2"/>
				<line class="st21" x1="230.2" y1="161" x2="229.8" y2="160.7"/>
				<path class="st21" d="M200.8,284.3c0,2.7-2.2,5-5,5c-2.7,0-4.9-2.2-4.9-5c0-2.7,2.2-5,4.9-5
					C198.6,279.3,200.8,281.5,200.8,284.3z"/>
				<circle class="st21" cx="205.8" cy="262" r="2.5"/>
				<path class="st21" d="M166.7,305l-7.5,4.4c-1.3,0.7-2.9,0.3-3.7-1l-14.7-25.4c-0.7-1.3-0.3-2.9,1-3.6l7.5-4.4
					c1.3-0.7,2.9-0.3,3.7,1l14.7,25.4C168.4,302.6,168,304.2,166.7,305z"/>
				<path class="st21" d="M109.1,219.8v22.3h3.2c5.1,0,9.2,4.1,9.2,9.2v1.6l-19.8,9.2v-42.3"/>
				<path class="st21" d="M101.7,219.8h-1.2c-0.7,0-1.3-0.6-1.3-1.3v-11.1h12.4v11.1c0,0.7-0.6,1.3-1.3,1.3h-1.2H101.7z"/>
				<line class="st24" x1="106.3" y1="255" x2="106.3" y2="243.2"/>
				<circle class="st21" cx="112.8" cy="248.3" r="1.2"/>
				<path class="st21" d="M151.2,200v22.3h3.2c5.1,0,9.2,4.1,9.2,9.2v1.6l-19.8,9.2V200"/>
				<path class="st21" d="M143.8,200h-1.2c-0.7,0-1.3-0.6-1.3-1.3v-11.1h12.4v11.1c0,0.7-0.6,1.3-1.3,1.3h-1.2H143.8z"/>
				<line class="st24" x1="148.5" y1="235.1" x2="148.5" y2="223.4"/>
				<circle class="st21" cx="155" cy="228.5" r="1.2"/>
				<path class="st21" d="M244.2,359.2l-16.9,6.7c-3.7,1.4-7.8-0.4-9.3-4c-0.3-0.9-0.5-1.8-0.5-2.7c0-2.8,1.7-5.5,4.5-6.6l16.9-6.7
					c1.9-0.8,4,0.2,4.7,2l2.6,6.6C247,356.4,246.1,358.5,244.2,359.2z"/>
				<polyline class="st21" points="390.5,253 318.6,219.8 318.6,227.7 318.6,234.7 				"/>
				<polyline class="st21" points="447.5,294.2 447.5,279.3 410.3,262.1 				"/>
				<path class="st21" d="M318.6,325.9V323l9.8-10.2c3.2-3.4,5-7.8,5-12.5V275c0-4.8-1.9-9.4-5.3-12.8l-9.5-9.5v-18.1l71.9,33.2
					l12.7,5.9l7.1,3.3l37.2,17.1v31.8c0,3.4-0.7,6.6-2,9.5"/>
				<path class="st21" d="M402.9,274.4l-4.4,7.3c-1.6,2.7-0.4,6.1,2.5,7.3l1.9,0.8c2.6,1,3.6,4.2,2.2,6.6l-7.5,12
					c-1.2,1.9-3.5,2.6-5.5,1.8l-5.4-2.2c-2.1-0.8-4.4-0.2-5.8,1.5l-15.8,19.9"/>
				<path class="st21" d="M445.5,335.4c-3.9,8.8-13,14.7-23.2,13.9l-103.7-8v-15.4l46.3,3.5L445.5,335.4z"/>
				<path class="st21" d="M295.5,409l1.8,0.7c2.3,0.9,3.7,3.3,3.5,5.8c-0.8,9.9-1.2,18.1-1.2,22.2c0,1.4-0.1,2.9-0.3,4.2l-4.3-1.8
					l-1.6-0.6l-4.5-1.8c-1.4-0.6-2.8-1.1-4.1-1.6c-1.4-0.5-2.7-0.9-4.1-1.3c-1.9-0.6-3.9-1.1-5.9-1.5c-0.7-0.2-1.5-0.4-2.2-0.5
					c-1.3-0.2-2.6-0.5-3.9-0.7c-1.3-0.2-2.6-0.4-3.9-0.5c-1.3-0.2-2.7-0.3-4.1-0.4c-0.1,0-0.2,0-0.3,0c-0.8,0-2.3-0.1-3.9-0.1h-0.5
					h-0.7v0c-1.6,0-3.1,0-3.9,0.1c-0.1,0-0.2,0-0.3,0c-1.4,0.1-2.8,0.2-4.1,0.4c-1.3,0.1-2.6,0.3-3.9,0.5c-1.3,0.2-2.6,0.5-3.9,0.7
					c-0.8,0.1-1.5,0.3-2.2,0.5c-2,0.4-3.9,0.9-5.8,1.5c-1.4,0.4-2.7,0.9-4.1,1.3c-1.4,0.5-2.8,1-4.1,1.6l-4.5,1.8l-1.6,0.6l-4.3,1.8
					c-0.2-1.4-0.3-2.8-0.3-4.2c0-4.1-0.4-12.2-1.2-22.2c-0.2-2.5,1.2-4.8,3.5-5.8l1.8-0.7l7.2-3c10.1-4.1,20.9-6.3,31.6-6.7h0.1
					c0.2,0,0.4,0,0.6,0c0.2,0,0.4,0,0.6,0h0.1c10.7,0.3,21.5,2.5,31.6,6.7L295.5,409z"/>
				<path class="st21" d="M223.1,238.9v22.6c0,8.6,4.8,16.1,11.8,19.9c3.2,1.8,7,2.8,11,2.8h20.2c4,0,7.7-1,11-2.8
					c7-3.9,11.8-11.4,11.8-19.9v-22.6"/>
				<polyline class="st21" points="230.2,161 255.4,110.7 256,109.5 256.6,110.7 281.8,161 				"/>
				<path class="st21" d="M262.2,180.6l-5.6-18.6l-0.2-0.7c-0.1-0.2-0.2-0.4-0.3-0.5c0,0,0,0,0,0l-0.1-0.1l-0.1,0.1c0,0,0,0,0,0
					c-0.2,0.1-0.3,0.3-0.3,0.5l-0.2,0.7l-5.6,18.6"/>
				<polyline class="st21" points="240.3,212.4 249.8,180.6 230.2,161 223.1,175.2 223.1,232.2 223.1,238.9 288.9,238.9 
					288.9,232.2 288.9,175.2 281.8,161 262.2,180.6 271.7,212.4 				"/>
				<path class="st21" d="M271.7,212.4l1.1,3.8c0.5,1.8-0.8,3.6-2.7,3.6h-28.4c-1.9,0-3.2-1.8-2.7-3.6l1.1-3.8h15.7h0.7H271.7z"/>
				<path class="st23" d="M256.6,370h0.1c8.5,0.6,16.8,2.5,24.7,5.8"/>
				<line class="st23" x1="256" y1="370" x2="256" y2="349.3"/>
				<line class="st21" x1="275.2" y1="441.2" x2="275.2" y2="461.1"/>
				<polyline class="st21" points="294.6,468.7 256.2,468.7 255.8,468.7 				"/>
				<line class="st21" x1="318.6" y1="227.7" x2="288.9" y2="232.2"/>
				<line class="st21" x1="282.2" y1="160.7" x2="281.8" y2="161"/>
				<path class="st21" d="M274,228.5c0,2.1-1.7,3.7-3.7,3.7h-28.5c-2.1,0-3.7-1.7-3.7-3.7s1.7-3.7,3.7-3.7h28.5
					C272.3,224.8,274,226.4,274,228.5z"/>
				<path class="st21" d="M274,267.2c0,2.6-2.1,4.7-4.7,4.7h-26.6c-2.6,0-4.7-2.1-4.7-4.7v-13c0-2.6,2.1-4.7,4.7-4.7h26.6
					c2.6,0,4.7,2.1,4.7,4.7V267.2z"/>
				<path class="st21" d="M311.2,284.3c0,2.7,2.2,5,5,5c2.7,0,4.9-2.2,4.9-5c0-2.7-2.2-5-4.9-5C313.4,279.3,311.2,281.5,311.2,284.3
					z"/>
				<circle class="st21" cx="306.2" cy="262" r="2.5"/>
				<polyline class="st21" points="255.9,212.4 255.9,160.8 255.9,160.7 				"/>
				<path class="st21" d="M345.3,305l7.5,4.4c1.3,0.7,2.9,0.3,3.6-1l14.7-25.4c0.7-1.3,0.3-2.9-1-3.6l-7.5-4.4
					c-1.3-0.7-2.9-0.3-3.6,1l-14.7,25.4C343.6,302.6,344,304.2,345.3,305z"/>
				<path class="st21" d="M402.9,219.8v22.3h-3.2c-5.1,0-9.2,4.1-9.2,9.2v1.6l19.8,9.2v-42.3"/>
				<path class="st21" d="M410.3,219.8h1.2c0.7,0,1.3-0.6,1.3-1.3v-11.1h-12.4v11.1c0,0.7,0.6,1.3,1.3,1.3h1.2H410.3z"/>
				<line class="st24" x1="405.7" y1="255" x2="405.7" y2="243.2"/>
				<circle class="st21" cx="399.2" cy="248.3" r="1.2"/>
				<path class="st21" d="M360.8,200v22.3h-3.2c-5.1,0-9.2,4.1-9.2,9.2v1.6l19.8,9.2V200"/>
				<path class="st21" d="M368.2,200h1.2c0.7,0,1.3-0.6,1.3-1.3v-11.1h-12.4v11.1c0,0.7,0.6,1.3,1.3,1.3h1.2H368.2z"/>
				<line class="st24" x1="363.5" y1="235.1" x2="363.5" y2="223.4"/>
				<circle class="st21" cx="357" cy="228.5" r="1.2"/>
				<path class="st21" d="M290,352.6c2.8,1.1,4.5,3.8,4.5,6.6c0,0.9-0.2,1.8-0.5,2.7c-1.4,3.7-5.6,5.5-9.3,4l-16.9-6.7
					c-1.9-0.8-2.8-2.9-2-4.7l2.6-6.6c0.7-1.9,2.9-2.8,4.7-2L290,352.6z"/>
				<line class="st21" x1="256" y1="33.1" x2="256" y2="109.5"/>
			</g>
		</g>
	</g>
</g>
<g id="PURPLE" class="st0">
	<g id="Spaceships_3_" class="st1">
		<g id="Small_x5F_1_4_">
			<g>
				<path class="st35" d="M447.5,294.2v31.8c0,3.4-0.7,6.6-2,9.5l-80.6-6.1l15.8-19.9c1.4-1.8,3.8-2.4,5.8-1.5l5.4,2.2
					c2,0.8,4.4,0.1,5.5-1.8l7.5-12c1.5-2.4,0.5-5.5-2.2-6.6L401,289c-2.9-1.2-4-4.6-2.5-7.3l4.4-7.3l0.3-0.6l7.1,3.3L447.5,294.2z"
					/>
				<polygon class="st5" points="447.5,279.3 447.5,294.2 410.3,277 403.2,273.7 390.5,267.9 318.6,234.7 318.6,227.7 318.6,219.8 
					390.5,253 410.3,262.1 				"/>
				<path class="st5" d="M364.9,329.3l80.6,6.1c-3.9,8.8-13,14.7-23.2,13.9l-103.7-8v-15.4L364.9,329.3z"/>
				<path class="st33" d="M412.8,207.4v11.1c0,0.7-0.6,1.3-1.3,1.3h-1.2h-7.4h-1.2c-0.7,0-1.3-0.6-1.3-1.3v-11.1H412.8z"/>
				<path class="st6" d="M410.3,219.8v42.3l-19.8-9.2v-1.6c0-5.1,4.1-9.2,9.2-9.2h3.2v-22.3H410.3z M400.4,248.3
					c0-0.7-0.6-1.2-1.2-1.2c-0.7,0-1.2,0.6-1.2,1.2c0,0.7,0.5,1.2,1.2,1.2C399.9,249.6,400.4,249,400.4,248.3z"/>
				<path class="st6" d="M402.9,289.7c2.6,1,3.6,4.2,2.2,6.6l-7.5,12c-1.2,1.9-3.5,2.6-5.5,1.8l-5.4-2.2c-2.1-0.8-4.4-0.2-5.8,1.5
					l-15.8,19.9l38-55l-4.4,7.3c-1.6,2.7-0.4,6.1,2.5,7.3L402.9,289.7z"/>
				<path class="st6" d="M403.2,273.7l-0.3,0.6l-38,55l-46.3-3.5V323l9.8-10.2c3.2-3.4,5-7.8,5-12.5V275c0-4.8-1.9-9.4-5.3-12.8
					l-9.5-9.5v-18.1l71.9,33.2L403.2,273.7z M371.2,282.9c0.7-1.3,0.3-2.9-1-3.6l-7.5-4.4c-1.3-0.7-2.9-0.3-3.6,1l-14.7,25.4
					c-0.7,1.3-0.3,2.9,1,3.6l7.5,4.4c1.3,0.7,2.9,0.3,3.6-1L371.2,282.9z"/>
				<circle class="st33" cx="399.2" cy="248.3" r="1.2"/>
				<path class="st33" d="M370.2,279.3c1.3,0.7,1.7,2.4,1,3.6l-14.7,25.4c-0.7,1.3-2.4,1.7-3.6,1l-7.5-4.4c-1.3-0.7-1.7-2.4-1-3.6
					l14.7-25.4c0.7-1.3,2.4-1.7,3.6-1L370.2,279.3z"/>
				<path class="st33" d="M370.7,187.6v11.1c0,0.7-0.6,1.3-1.3,1.3h-1.2h-7.4h-1.2c-0.7,0-1.3-0.6-1.3-1.3v-11.1H370.7z"/>
				<path class="st6" d="M368.2,200v42.3l-19.8-9.2v-1.6c0-5.1,4.1-9.2,9.2-9.2h3.2V200H368.2z M358.3,228.5c0-0.7-0.6-1.2-1.2-1.2
					c-0.7,0-1.2,0.5-1.2,1.2c0,0.7,0.6,1.2,1.2,1.2C357.7,229.7,358.3,229.2,358.3,228.5z"/>
				<circle class="st33" cx="357" cy="228.5" r="1.2"/>
				<path class="st6" d="M333.5,275v25.2c0,4.6-1.8,9.1-5,12.5l-9.8,10.2l-41.5-41.5c7-3.9,11.8-11.4,11.8-19.9v-22.6v-6.7l29.8-4.5
					v6.9v18.1l9.5,9.5C331.6,265.6,333.5,270.2,333.5,275z M321.1,284.3c0-2.7-2.2-5-4.9-5c-2.7,0-5,2.2-5,5c0,2.7,2.2,5,5,5
					C318.9,289.2,321.1,287,321.1,284.3z M308.7,262c0-1.4-1.1-2.5-2.5-2.5s-2.5,1.1-2.5,2.5c0,1.4,1.1,2.5,2.5,2.5
					S308.7,263.3,308.7,262z"/>
				<path class="st33" d="M316.1,279.3c2.7,0,4.9,2.2,4.9,5c0,2.7-2.2,5-4.9,5c-2.7,0-5-2.2-5-5
					C311.2,281.5,313.4,279.3,316.1,279.3z"/>
				<path class="st33" d="M318.6,325.9v15.4l-7.4,8.2l-21-12.9c-20.9-12.9-47.4-12.9-68.3,0l-21,12.9l-7.4-8.2v-15.4V323l41.5-41.5
					c3.2,1.8,7,2.8,11,2.8h20.2c4,0,7.7-1,11-2.8l41.5,41.5V325.9z"/>
				<polygon class="st6" points="281.8,161 256.6,110.7 256,109.5 256,33.1 256.6,34.8 318.6,207.4 318.6,219.8 318.6,227.7 
					288.9,232.2 288.9,175.2 				"/>
				<path class="st6" d="M311.2,349.5l-4.1,4.5c-5.6,6.1-9.5,33.3-11.6,55.1l-7.2-3c-10.1-4.1-20.9-6.3-31.6-6.7h-0.1
					c-0.2,0-0.4,0-0.6,0c-0.2,0-0.4,0-0.6,0h-0.1c-10.7,0.3-21.5,2.5-31.6,6.7l-7.2,3c-2.1-21.8-6-49-11.6-55.1l-4.1-4.5l21-12.9
					c20.9-12.9,47.4-12.9,68.3,0L311.2,349.5z M294,361.9c0.4-0.9,0.5-1.8,0.5-2.7c0-2.8-1.7-5.5-4.5-6.6l-16.9-6.7
					c-1.9-0.8-4,0.2-4.7,2l-2.6,6.6c-0.7,1.9,0.2,4,2,4.7l16.9,6.7C288.4,367.4,292.5,365.6,294,361.9z M256.6,370l24.8,5.8
					c-7.8-3.3-16.2-5.2-24.7-5.8H256.6z M230.6,375.8l24.8-5.8h-0.1C246.8,370.6,238.4,372.5,230.6,375.8z M244.2,359.2
					c1.9-0.8,2.8-2.9,2-4.7l-2.6-6.6c-0.7-1.9-2.9-2.8-4.7-2l-16.9,6.7c-2.8,1.1-4.5,3.8-4.5,6.6c0,0.9,0.2,1.8,0.5,2.7
					c1.4,3.7,5.6,5.5,9.3,4L244.2,359.2z"/>
				<circle class="st33" cx="306.2" cy="262" r="2.5"/>
				<path class="st33" d="M297.4,409.8c2.3,0.9,3.7,3.3,3.5,5.8c-0.8,9.9-1.2,18.1-1.2,22.2c0,1.4-0.1,2.9-0.3,4.2l-4.3-1.8
					l-1.6-0.6l-4.5-1.8c-1.4-0.6-2.8-1.1-4.1-1.6c-1.4-0.5-2.7-0.9-4.1-1.3c-1.9-0.6-3.9-1.1-5.9-1.5c-0.7-0.2-1.5-0.4-2.2-0.5
					c-1.3-0.2-2.6-0.5-3.9-0.7c-1.3-0.2-2.6-0.4-3.9-0.5c-1.3-0.2-2.7-0.3-4.1-0.4c-0.1,0-0.2,0-0.3,0c-0.8,0-2.3-0.1-3.9-0.1h-0.5
					h-0.7v0c-1.6,0-3.1,0-3.9,0.1c-0.1,0-0.2,0-0.3,0c-1.4,0.1-2.8,0.2-4.1,0.4c-1.3,0.1-2.6,0.3-3.9,0.5c-1.3,0.2-2.6,0.5-3.9,0.7
					c-0.8,0.1-1.5,0.3-2.2,0.5c-2,0.4-3.9,0.9-5.8,1.5c-1.4,0.4-2.7,0.9-4.1,1.3c-1.4,0.5-2.8,1-4.1,1.6l-4.5,1.8l-1.6,0.6l-4.3,1.8
					c-0.2-1.4-0.3-2.8-0.3-4.2c0-4.1-0.4-12.2-1.2-22.2c-0.2-2.5,1.2-4.8,3.5-5.8l1.8-0.7l7.2-3c10.1-4.1,20.9-6.3,31.6-6.7h0.1
					c0.2,0,0.4,0,0.6,0c0.2,0,0.4,0,0.6,0h0.1c10.7,0.3,21.5,2.5,31.6,6.7l7.2,3L297.4,409.8z"/>
				<path class="st5" d="M295,440.1v25.5c0,1.1-0.1,2.1-0.4,3.1h-38.4c0.3-1,0.4-2,0.4-3.1V431c1.6,0,3.1,0,3.9,0.1
					c0.1,0,0.2,0,0.3,0c1.4,0.1,2.8,0.2,4.1,0.4c1.3,0.1,2.6,0.3,3.9,0.5c1.3,0.2,2.6,0.5,3.9,0.7c0.8,0.1,1.5,0.3,2.2,0.5
					c2,0.4,3.9,0.9,5.9,1.5c1.4,0.4,2.7,0.9,4.1,1.3c1.4,0.5,2.8,1,4.1,1.6l4.5,1.8L295,440.1z"/>
				<path class="st35" d="M256.2,468.7h38.4c-1.6,5.9-7.7,10.2-14.9,10.2h-9c-7,0-12.9-4.1-14.7-9.6
					C256.1,469.1,256.1,468.9,256.2,468.7z"/>
				<path class="st33" d="M294.5,359.3c0,0.9-0.2,1.8-0.5,2.7c-1.4,3.7-5.6,5.5-9.3,4l-16.9-6.7c-1.9-0.8-2.8-2.9-2-4.7l2.6-6.6
					c0.7-1.9,2.9-2.8,4.7-2l16.9,6.7C292.8,353.8,294.5,356.4,294.5,359.3z"/>
				<path class="st5" d="M288.9,238.9v22.6c0,8.6-4.8,16.1-11.8,19.9c-3.2,1.8-7,2.8-11,2.8h-20.2c-4,0-7.7-1-11-2.8
					c-7-3.9-11.8-11.4-11.8-19.9v-22.6H288.9z M274,267.2v-13c0-2.6-2.1-4.7-4.7-4.7h-26.6c-2.6,0-4.7,2.1-4.7,4.7v13
					c0,2.6,2.1,4.7,4.7,4.7h26.6C271.9,271.9,274,269.8,274,267.2z"/>
				<path class="st5" d="M288.9,232.2v6.7h-65.7v-6.7v-57l7.1-14.1l19.6,19.6l-9.5,31.8l-1.1,3.8c-0.5,1.8,0.8,3.6,2.7,3.6h28.4
					c1.9,0,3.2-1.8,2.7-3.6l-1.1-3.8l-9.5-31.8l19.6-19.6l7.1,14.1V232.2z M274,228.5c0-2.1-1.7-3.7-3.7-3.7h-28.5
					c-2.1,0-3.7,1.7-3.7,3.7s1.7,3.7,3.7,3.7h28.5C272.3,232.2,274,230.5,274,228.5z"/>
				<path class="st33" d="M255.9,160.8c-0.2,0.1-0.3,0.3-0.3,0.5l-0.2,0.7l-5.6,18.6L230.2,161l25.2-50.3l0.6-1.2l0.6,1.2l25.2,50.3
					l-19.6,19.6l-5.6-18.6l-0.2-0.7c-0.1-0.2-0.2-0.4-0.3-0.5c0,0,0,0,0,0L255.9,160.8L255.9,160.8
					C255.9,160.8,255.9,160.8,255.9,160.8z"/>
				<path class="st6" d="M281.4,375.8l-24.8-5.8h0.1C265.2,370.6,273.6,372.5,281.4,375.8z"/>
				<path class="st33" d="M274,254.2v13c0,2.6-2.1,4.7-4.7,4.7h-26.6c-2.6,0-4.7-2.1-4.7-4.7v-13c0-2.6,2.1-4.7,4.7-4.7h26.6
					C271.9,249.6,274,251.6,274,254.2z"/>
				<path class="st33" d="M270.3,224.8c2,0,3.7,1.7,3.7,3.7s-1.7,3.7-3.7,3.7h-28.5c-2.1,0-3.7-1.7-3.7-3.7s1.7-3.7,3.7-3.7H270.3z"
					/>
				<path class="st33" d="M272.9,216.2c0.5,1.8-0.8,3.6-2.7,3.6h-28.4c-1.9,0-3.2-1.8-2.7-3.6l1.1-3.8h15.7h0.7h15.1L272.9,216.2z"
					/>
				<polygon class="st34" points="262.2,180.6 271.7,212.4 256.6,212.4 256.6,162 				"/>
				<path class="st5" d="M256.6,431v34.7c0,1.1-0.1,2.1-0.4,3.1h-0.3c-0.3-1-0.4-2-0.4-3.1V431c0.2,0,0.4,0,0.7,0H256.6z"/>
				<path class="st33" d="M256.6,162v50.4h-0.7v-51.6c0,0,0,0,0,0l0.1-0.1l0.1,0.1c0,0,0,0,0,0c0.2,0.1,0.3,0.3,0.3,0.5L256.6,162z"
					/>
				<path class="st6" d="M255.8,468.7h0.3c-0.1,0.2-0.1,0.4-0.2,0.6C255.9,469.1,255.9,468.9,255.8,468.7z"/>
				<path class="st6" d="M255.4,431h0.7C255.8,431,255.6,431,255.4,431L255.4,431z"/>
				<polygon class="st6" points="230.2,161 223.1,175.2 223.1,232.2 193.4,227.7 193.4,219.8 193.4,207.4 255.4,34.8 256,33.1 
					256,109.5 255.4,110.7 				"/>
				<path class="st34" d="M255.9,160.8v51.6h-15.7l9.5-31.8l5.6-18.6l0.2-0.7C255.6,161.1,255.8,160.9,255.9,160.8z"/>
				<path class="st35" d="M255.8,468.7c0.1,0.2,0.1,0.4,0.2,0.6c-1.8,5.6-7.7,9.6-14.7,9.6h-9c-7.2,0-13.3-4.3-14.9-10.2H255.8z"/>
				<path class="st5" d="M255.8,468.7h-38.4c-0.3-1-0.4-2-0.4-3.1v-25.5l1.6-0.6l4.5-1.8c1.4-0.6,2.8-1.1,4.1-1.6
					c1.4-0.5,2.7-0.9,4.1-1.3c1.9-0.6,3.9-1.1,5.8-1.5c0.7-0.2,1.5-0.4,2.2-0.5c1.3-0.2,2.6-0.5,3.9-0.7c1.3-0.2,2.6-0.4,3.9-0.5
					c1.3-0.2,2.7-0.3,4.1-0.4c0.1,0,0.2,0,0.3,0c0.8,0,2.3-0.1,3.9-0.1v34.7C255.4,466.7,255.5,467.7,255.8,468.7z"/>
				<path class="st6" d="M255.4,370l-24.8,5.8c7.8-3.3,16.2-5.2,24.7-5.8H255.4z"/>
				<path class="st33" d="M246.2,354.5c0.7,1.9-0.2,4-2,4.7l-16.9,6.7c-3.7,1.4-7.8-0.4-9.3-4c-0.3-0.9-0.5-1.8-0.5-2.7
					c0-2.8,1.7-5.5,4.5-6.6l16.9-6.7c1.9-0.8,4,0.2,4.7,2L246.2,354.5z"/>
				<path class="st6" d="M234.9,281.4L193.4,323l-9.8-10.2c-3.2-3.4-5-7.8-5-12.5V275c0-4.8,1.9-9.4,5.3-12.8l9.5-9.5v-18.1v-6.9
					l29.8,4.5v6.7v22.6C223.1,270.1,227.9,277.6,234.9,281.4z M208.3,262c0-1.4-1.1-2.5-2.5-2.5c-1.4,0-2.5,1.1-2.5,2.5
					c0,1.4,1.1,2.5,2.5,2.5C207.2,264.4,208.3,263.3,208.3,262z M200.8,284.3c0-2.7-2.2-5-5-5c-2.7,0-4.9,2.2-4.9,5
					c0,2.7,2.2,5,4.9,5C198.6,289.2,200.8,287,200.8,284.3z"/>
				<circle class="st33" cx="205.8" cy="262" r="2.5"/>
				<path class="st33" d="M195.9,279.3c2.7,0,5,2.2,5,5c0,2.7-2.2,5-5,5c-2.7,0-4.9-2.2-4.9-5C190.9,281.5,193.1,279.3,195.9,279.3z
					"/>
				<path class="st5" d="M193.4,325.9v15.4l-103.7,8c-10.2,0.8-19.3-5.1-23.2-13.9l80.6-6.1L193.4,325.9z"/>
				<path class="st6" d="M193.4,323v2.9l-46.3,3.5l-38-55l-0.3-0.6l12.7-5.9l71.9-33.2v18.1l-9.5,9.5c-3.4,3.4-5.3,8-5.3,12.8v25.2
					c0,4.6,1.8,9.1,5,12.5L193.4,323z M166.7,305c1.3-0.7,1.7-2.4,1-3.6L153,275.9c-0.7-1.3-2.4-1.7-3.7-1l-7.5,4.4
					c-1.3,0.7-1.7,2.4-1,3.6l14.7,25.4c0.7,1.3,2.4,1.7,3.7,1L166.7,305z"/>
				<polygon class="st5" points="193.4,227.7 193.4,234.7 121.5,267.9 108.8,273.7 101.7,277 64.5,294.2 64.5,279.3 101.7,262.1 
					121.5,253 193.4,219.8 				"/>
				<path class="st33" d="M167.7,301.3c0.7,1.3,0.3,2.9-1,3.6l-7.5,4.4c-1.3,0.7-2.9,0.3-3.7-1l-14.7-25.4c-0.7-1.3-0.3-2.9,1-3.6
					l7.5-4.4c1.3-0.7,2.9-0.3,3.7,1L167.7,301.3z"/>
				<path class="st6" d="M163.6,231.5v1.6l-19.8,9.2V200h7.4v22.3h3.2C159.5,222.3,163.6,226.4,163.6,231.5z M156.2,228.5
					c0-0.7-0.6-1.2-1.2-1.2c-0.7,0-1.2,0.5-1.2,1.2c0,0.7,0.6,1.2,1.2,1.2C155.6,229.7,156.2,229.2,156.2,228.5z"/>
				<circle class="st33" cx="155" cy="228.5" r="1.2"/>
				<path class="st33" d="M153.7,187.6v11.1c0,0.7-0.6,1.3-1.3,1.3h-1.2h-7.4h-1.2c-0.7,0-1.3-0.6-1.3-1.3v-11.1H153.7z"/>
				<path class="st6" d="M109.1,274.4l38,55l-15.8-19.9c-1.4-1.8-3.8-2.4-5.8-1.5l-5.4,2.2c-2,0.8-4.3,0.1-5.5-1.8l-7.5-12
					c-1.5-2.4-0.5-5.5,2.2-6.6l1.9-0.8c2.9-1.2,4.1-4.6,2.5-7.3L109.1,274.4z"/>
				<path class="st35" d="M131.3,309.5l15.8,19.9l-80.6,6.1c-1.3-2.9-2-6.1-2-9.5v-31.8l37.2-17.1l7.1-3.3l0.3,0.6l4.4,7.3
					c1.6,2.7,0.4,6.1-2.5,7.3l-1.9,0.8c-2.6,1-3.6,4.2-2.2,6.6l7.5,12c1.2,1.9,3.5,2.6,5.5,1.8l5.4-2.2
					C127.5,307.1,129.9,307.7,131.3,309.5z"/>
				<path class="st6" d="M121.5,251.3v1.6l-19.8,9.2v-42.3h7.4v22.3h3.2C117.3,242.1,121.5,246.3,121.5,251.3z M114.1,248.3
					c0-0.7-0.6-1.2-1.2-1.2c-0.7,0-1.2,0.6-1.2,1.2c0,0.7,0.6,1.2,1.2,1.2C113.5,249.6,114.1,249,114.1,248.3z"/>
				<circle class="st33" cx="112.8" cy="248.3" r="1.2"/>
				<path class="st33" d="M111.6,207.4v11.1c0,0.7-0.6,1.3-1.3,1.3h-1.2h-7.4h-1.2c-0.7,0-1.3-0.6-1.3-1.3v-11.1H111.6z"/>
			</g>
			<g>
				<path class="st21" d="M256,469.3c-1.8,5.6-7.7,9.6-14.7,9.6h-9c-7.2,0-13.3-4.3-14.9-10.2c-0.3-1-0.4-2-0.4-3.1v-25.5"/>
				<path class="st21" d="M295,440.1v25.5c0,1.1-0.1,2.1-0.4,3.1c-1.6,5.9-7.7,10.2-14.9,10.2h-9c-7,0-12.9-4.1-14.7-9.6
					c-0.1-0.2-0.1-0.4-0.2-0.6c-0.3-1-0.4-2-0.4-3.1V431"/>
				<polyline class="st21" points="193.4,219.8 193.4,207.4 255.4,34.8 256,33.1 256.6,34.8 318.6,207.4 318.6,219.8 				"/>
				<path class="st21" d="M295.5,409c2.1-21.8,6-49,11.6-55.1l4.1-4.5"/>
				<path class="st21" d="M200.8,349.5l4.1,4.5c5.6,6.1,9.5,33.3,11.6,55.1"/>
				<line class="st21" x1="277.1" y1="281.4" x2="318.6" y2="323"/>
				<line class="st21" x1="193.4" y1="323" x2="234.9" y2="281.4"/>
				<path class="st21" d="M318.6,341.3l-7.4,8.2l-21-12.9c-20.9-12.9-47.4-12.9-68.3,0l-21,12.9l-7.4-8.2"/>
				<polyline class="st21" points="121.5,253 193.4,219.8 193.4,227.7 193.4,234.7 				"/>
				<polyline class="st21" points="64.5,294.2 64.5,279.3 101.7,262.1 				"/>
				<path class="st21" d="M66.4,335.4c-1.3-2.9-2-6.1-2-9.5v-31.8l37.2-17.1l7.1-3.3l12.7-5.9l71.9-33.2v18.1l-9.5,9.5
					c-3.4,3.4-5.3,8-5.3,12.8v25.2c0,4.6,1.8,9.1,5,12.5l9.8,10.2v2.9"/>
				<path class="st21" d="M109.1,274.4l4.4,7.3c1.6,2.7,0.4,6.1-2.5,7.3l-1.9,0.8c-2.6,1-3.6,4.2-2.2,6.6l7.5,12
					c1.2,1.9,3.5,2.6,5.5,1.8l5.4-2.2c2.1-0.8,4.4-0.2,5.8,1.5l15.8,19.9"/>
				<path class="st21" d="M193.4,325.9v15.4l-103.7,8c-10.2,0.8-19.3-5.1-23.2-13.9l80.6-6.1L193.4,325.9z"/>
				<path class="st23" d="M230.6,375.8c7.8-3.3,16.2-5.2,24.7-5.8h0.1"/>
				<line class="st21" x1="236.8" y1="441.2" x2="236.8" y2="461.1"/>
				<line class="st21" x1="255.8" y1="468.7" x2="217.4" y2="468.7"/>
				<line class="st21" x1="193.4" y1="227.7" x2="223.1" y2="232.2"/>
				<line class="st21" x1="230.2" y1="161" x2="229.8" y2="160.7"/>
				<path class="st21" d="M200.8,284.3c0,2.7-2.2,5-5,5c-2.7,0-4.9-2.2-4.9-5c0-2.7,2.2-5,4.9-5
					C198.6,279.3,200.8,281.5,200.8,284.3z"/>
				<circle class="st21" cx="205.8" cy="262" r="2.5"/>
				<path class="st21" d="M166.7,305l-7.5,4.4c-1.3,0.7-2.9,0.3-3.7-1l-14.7-25.4c-0.7-1.3-0.3-2.9,1-3.6l7.5-4.4
					c1.3-0.7,2.9-0.3,3.7,1l14.7,25.4C168.4,302.6,168,304.2,166.7,305z"/>
				<path class="st21" d="M109.1,219.8v22.3h3.2c5.1,0,9.2,4.1,9.2,9.2v1.6l-19.8,9.2v-42.3"/>
				<path class="st21" d="M101.7,219.8h-1.2c-0.7,0-1.3-0.6-1.3-1.3v-11.1h12.4v11.1c0,0.7-0.6,1.3-1.3,1.3h-1.2H101.7z"/>
				<line class="st24" x1="106.3" y1="255" x2="106.3" y2="243.2"/>
				<circle class="st21" cx="112.8" cy="248.3" r="1.2"/>
				<path class="st21" d="M151.2,200v22.3h3.2c5.1,0,9.2,4.1,9.2,9.2v1.6l-19.8,9.2V200"/>
				<path class="st21" d="M143.8,200h-1.2c-0.7,0-1.3-0.6-1.3-1.3v-11.1h12.4v11.1c0,0.7-0.6,1.3-1.3,1.3h-1.2H143.8z"/>
				<line class="st24" x1="148.5" y1="235.1" x2="148.5" y2="223.4"/>
				<circle class="st21" cx="155" cy="228.5" r="1.2"/>
				<path class="st21" d="M244.2,359.2l-16.9,6.7c-3.7,1.4-7.8-0.4-9.3-4c-0.3-0.9-0.5-1.8-0.5-2.7c0-2.8,1.7-5.5,4.5-6.6l16.9-6.7
					c1.9-0.8,4,0.2,4.7,2l2.6,6.6C247,356.4,246.1,358.5,244.2,359.2z"/>
				<polyline class="st21" points="390.5,253 318.6,219.8 318.6,227.7 318.6,234.7 				"/>
				<polyline class="st21" points="447.5,294.2 447.5,279.3 410.3,262.1 				"/>
				<path class="st21" d="M318.6,325.9V323l9.8-10.2c3.2-3.4,5-7.8,5-12.5V275c0-4.8-1.9-9.4-5.3-12.8l-9.5-9.5v-18.1l71.9,33.2
					l12.7,5.9l7.1,3.3l37.2,17.1v31.8c0,3.4-0.7,6.6-2,9.5"/>
				<path class="st21" d="M402.9,274.4l-4.4,7.3c-1.6,2.7-0.4,6.1,2.5,7.3l1.9,0.8c2.6,1,3.6,4.2,2.2,6.6l-7.5,12
					c-1.2,1.9-3.5,2.6-5.5,1.8l-5.4-2.2c-2.1-0.8-4.4-0.2-5.8,1.5l-15.8,19.9"/>
				<path class="st21" d="M445.5,335.4c-3.9,8.8-13,14.7-23.2,13.9l-103.7-8v-15.4l46.3,3.5L445.5,335.4z"/>
				<path class="st21" d="M295.5,409l1.8,0.7c2.3,0.9,3.7,3.3,3.5,5.8c-0.8,9.9-1.2,18.1-1.2,22.2c0,1.4-0.1,2.9-0.3,4.2l-4.3-1.8
					l-1.6-0.6l-4.5-1.8c-1.4-0.6-2.8-1.1-4.1-1.6c-1.4-0.5-2.7-0.9-4.1-1.3c-1.9-0.6-3.9-1.1-5.9-1.5c-0.7-0.2-1.5-0.4-2.2-0.5
					c-1.3-0.2-2.6-0.5-3.9-0.7c-1.3-0.2-2.6-0.4-3.9-0.5c-1.3-0.2-2.7-0.3-4.1-0.4c-0.1,0-0.2,0-0.3,0c-0.8,0-2.3-0.1-3.9-0.1h-0.5
					h-0.7v0c-1.6,0-3.1,0-3.9,0.1c-0.1,0-0.2,0-0.3,0c-1.4,0.1-2.8,0.2-4.1,0.4c-1.3,0.1-2.6,0.3-3.9,0.5c-1.3,0.2-2.6,0.5-3.9,0.7
					c-0.8,0.1-1.5,0.3-2.2,0.5c-2,0.4-3.9,0.9-5.8,1.5c-1.4,0.4-2.7,0.9-4.1,1.3c-1.4,0.5-2.8,1-4.1,1.6l-4.5,1.8l-1.6,0.6l-4.3,1.8
					c-0.2-1.4-0.3-2.8-0.3-4.2c0-4.1-0.4-12.2-1.2-22.2c-0.2-2.5,1.2-4.8,3.5-5.8l1.8-0.7l7.2-3c10.1-4.1,20.9-6.3,31.6-6.7h0.1
					c0.2,0,0.4,0,0.6,0c0.2,0,0.4,0,0.6,0h0.1c10.7,0.3,21.5,2.5,31.6,6.7L295.5,409z"/>
				<path class="st21" d="M223.1,238.9v22.6c0,8.6,4.8,16.1,11.8,19.9c3.2,1.8,7,2.8,11,2.8h20.2c4,0,7.7-1,11-2.8
					c7-3.9,11.8-11.4,11.8-19.9v-22.6"/>
				<polyline class="st21" points="230.2,161 255.4,110.7 256,109.5 256.6,110.7 281.8,161 				"/>
				<path class="st21" d="M262.2,180.6l-5.6-18.6l-0.2-0.7c-0.1-0.2-0.2-0.4-0.3-0.5c0,0,0,0,0,0l-0.1-0.1l-0.1,0.1c0,0,0,0,0,0
					c-0.2,0.1-0.3,0.3-0.3,0.5l-0.2,0.7l-5.6,18.6"/>
				<polyline class="st21" points="240.3,212.4 249.8,180.6 230.2,161 223.1,175.2 223.1,232.2 223.1,238.9 288.9,238.9 
					288.9,232.2 288.9,175.2 281.8,161 262.2,180.6 271.7,212.4 				"/>
				<path class="st21" d="M271.7,212.4l1.1,3.8c0.5,1.8-0.8,3.6-2.7,3.6h-28.4c-1.9,0-3.2-1.8-2.7-3.6l1.1-3.8h15.7h0.7H271.7z"/>
				<path class="st23" d="M256.6,370h0.1c8.5,0.6,16.8,2.5,24.7,5.8"/>
				<line class="st23" x1="256" y1="370" x2="256" y2="349.3"/>
				<line class="st21" x1="275.2" y1="441.2" x2="275.2" y2="461.1"/>
				<polyline class="st21" points="294.6,468.7 256.2,468.7 255.8,468.7 				"/>
				<line class="st21" x1="318.6" y1="227.7" x2="288.9" y2="232.2"/>
				<line class="st21" x1="282.2" y1="160.7" x2="281.8" y2="161"/>
				<path class="st21" d="M274,228.5c0,2.1-1.7,3.7-3.7,3.7h-28.5c-2.1,0-3.7-1.7-3.7-3.7s1.7-3.7,3.7-3.7h28.5
					C272.3,224.8,274,226.4,274,228.5z"/>
				<path class="st21" d="M274,267.2c0,2.6-2.1,4.7-4.7,4.7h-26.6c-2.6,0-4.7-2.1-4.7-4.7v-13c0-2.6,2.1-4.7,4.7-4.7h26.6
					c2.6,0,4.7,2.1,4.7,4.7V267.2z"/>
				<path class="st21" d="M311.2,284.3c0,2.7,2.2,5,5,5c2.7,0,4.9-2.2,4.9-5c0-2.7-2.2-5-4.9-5C313.4,279.3,311.2,281.5,311.2,284.3
					z"/>
				<circle class="st21" cx="306.2" cy="262" r="2.5"/>
				<polyline class="st21" points="255.9,212.4 255.9,160.8 255.9,160.7 				"/>
				<path class="st21" d="M345.3,305l7.5,4.4c1.3,0.7,2.9,0.3,3.6-1l14.7-25.4c0.7-1.3,0.3-2.9-1-3.6l-7.5-4.4
					c-1.3-0.7-2.9-0.3-3.6,1l-14.7,25.4C343.6,302.6,344,304.2,345.3,305z"/>
				<path class="st21" d="M402.9,219.8v22.3h-3.2c-5.1,0-9.2,4.1-9.2,9.2v1.6l19.8,9.2v-42.3"/>
				<path class="st21" d="M410.3,219.8h1.2c0.7,0,1.3-0.6,1.3-1.3v-11.1h-12.4v11.1c0,0.7,0.6,1.3,1.3,1.3h1.2H410.3z"/>
				<line class="st24" x1="405.7" y1="255" x2="405.7" y2="243.2"/>
				<circle class="st21" cx="399.2" cy="248.3" r="1.2"/>
				<path class="st21" d="M360.8,200v22.3h-3.2c-5.1,0-9.2,4.1-9.2,9.2v1.6l19.8,9.2V200"/>
				<path class="st21" d="M368.2,200h1.2c0.7,0,1.3-0.6,1.3-1.3v-11.1h-12.4v11.1c0,0.7,0.6,1.3,1.3,1.3h1.2H368.2z"/>
				<line class="st24" x1="363.5" y1="235.1" x2="363.5" y2="223.4"/>
				<circle class="st21" cx="357" cy="228.5" r="1.2"/>
				<path class="st21" d="M290,352.6c2.8,1.1,4.5,3.8,4.5,6.6c0,0.9-0.2,1.8-0.5,2.7c-1.4,3.7-5.6,5.5-9.3,4l-16.9-6.7
					c-1.9-0.8-2.8-2.9-2-4.7l2.6-6.6c0.7-1.9,2.9-2.8,4.7-2L290,352.6z"/>
				<line class="st21" x1="256" y1="33.1" x2="256" y2="109.5"/>
			</g>
		</g>
	</g>
</g>
</svg>
