<?xml version="1.0" encoding="utf-8"?>
<!-- Generator: Adobe Illustrator 25.3.0, SVG Export Plug-In . SVG Version: 6.00 Build 0)  -->
<svg version="1.1" xmlns="http://www.w3.org/2000/svg" xmlns:xlink="http://www.w3.org/1999/xlink" x="0px" y="0px"
	 viewBox="0 0 256 256" style="enable-background:new 0 0 256 256;" xml:space="preserve">
<style type="text/css">
	.st0{display:none;}
	.st1{display:inline;}
	.st2{fill:#212121;}
	.st3{fill:#363636;}
	.st4{fill:#1C1C1C;}
	.st5{fill:#404040;}
	.st6{fill:#8E8E8E;}
	.st7{fill:#91C9E8;}
	.st8{fill:#3399CC;}
	.st9{fill:#446E9E;}
	.st10{fill:#335377;}
	.st11{fill:#7B52AB;}
	.st12{fill:#36175E;}
	.st13{fill:#45BF55;}
	.st14{fill:#168039;}
	.st15{fill:#EE8900;}
	.st16{fill:#D95100;}
	.st17{fill:#FFBB00;}
	.st18{fill:#D19419;}
	.st19{fill:#BF1533;}
	.st20{fill:#9A0419;}
	.st21{fill:none;stroke:#000000;stroke-miterlimit:10;}
	.st22{display:inline;fill:none;stroke:#000000;stroke-miterlimit:10;}
	.st23{fill:none;stroke:#000000;stroke-linecap:round;stroke-linejoin:round;stroke-miterlimit:10;}
	.st24{fill:none;stroke:#000000;stroke-linecap:round;stroke-miterlimit:10;}
	.st25{fill:#FFFFFF;}
	.st26{fill:none;stroke:#000000;stroke-width:0.5;stroke-linecap:round;stroke-linejoin:round;}
	.st27{fill:#773533;}
	.st28{fill:#CC3344;}
	.st29{fill:#E89199;}
	.st30{fill:#33CC78;}
	.st31{fill:#91E8BA;}
	.st32{fill:#33775F;}
	.st33{fill:#8F33CC;}
	.st34{fill:#C791E8;}
	.st35{fill:#683377;}
</style>
<g id="BG" class="st0">
</g>
<g id="Refs">
</g>
<g id="Palette">
</g>
<g id="Layer_5">
</g>
<g id="Guide" class="st0">
</g>
<g id="BLUE">
	<g>
		<g id="XMLID_16_">
			<g>
				<path class="st6" d="M127.5,108.6c2.9,2.9,4.7,6.9,4.7,11.4c0,7.6-5.4,14-12.5,15.6V133c5.8-1.5,10-6.8,10-13
					c0-3.8-1.5-7.2-4-9.6v-3.3C126.3,107.6,126.9,108.1,127.5,108.6z"/>
				<path class="st5" d="M125.7,110.4c2.5,2.4,4,5.8,4,9.6c0,6.2-4.2,11.5-10,13v-13.8c0.3,0.2,0.6,0.3,1,0.3c1.1,0,2-0.9,2-2
					s-0.9-2-2-2c-0.4,0-0.7,0.1-1,0.3v-2.4c0.2,0.1,0.3,0.1,0.5,0.1c0.8,0,1.5-0.7,1.5-1.5v-4.3c0.1,0.1,0.2,0.1,0.3,0.2
					c0.2,0.1,0.3,0.1,0.4,0.2c0,0,0.1,0,0.1,0.1c0.1,0.1,0.3,0.1,0.4,0.2c0.1,0,0.2,0.1,0.2,0.2c0.2,0.1,0.4,0.2,0.5,0.3
					c0.2,0.1,0.3,0.2,0.5,0.4c0.1,0.1,0.3,0.2,0.4,0.3C125,109.8,125.4,110.1,125.7,110.4z"/>
				<path class="st6" d="M125.7,107.1v3.3c-0.3-0.3-0.7-0.6-1-0.9c-0.1-0.1-0.3-0.2-0.4-0.3c-0.2-0.1-0.3-0.2-0.5-0.4
					c-0.2-0.1-0.4-0.2-0.5-0.3c-0.1-0.1-0.2-0.1-0.2-0.2c-0.1-0.1-0.3-0.2-0.4-0.2c0,0-0.1,0-0.1-0.1c-0.1-0.1-0.3-0.1-0.4-0.2
					c-0.1-0.1-0.2-0.1-0.3-0.2V105C123.1,105.5,124.5,106.2,125.7,107.1z"/>
				<path class="st6" d="M125.7,104.3v2.8c-1.2-0.9-2.6-1.6-4-2.2v-1c0-0.8-0.7-1.5-1.5-1.5s-1.5,0.7-1.5,1.5v0.2
					c-0.8-0.1-1.7-0.2-2.5-0.2s-1.7,0.1-2.5,0.2V104c0-0.8-0.7-1.5-1.5-1.5s-1.5,0.7-1.5,1.5v1c-1.4,0.5-2.8,1.2-4,2.2v-2.8
					c0-1.6,0.6-3.1,1.6-4.3c1.2-1.5,3.2-2.5,5.3-2.5h5.3c2.1,0,4.1,1,5.3,2.5C125.1,101.2,125.7,102.7,125.7,104.3z"/>
				<path class="st25" d="M123.7,108.8c-0.2-0.1-0.4-0.2-0.5-0.3C123.3,108.5,123.5,108.7,123.7,108.8z"/>
				<path class="st25" d="M122.9,108.3c-0.1-0.1-0.3-0.1-0.4-0.2C122.7,108.1,122.8,108.2,122.9,108.3z"/>
				<path class="st25" d="M122.4,108c-0.1-0.1-0.3-0.2-0.4-0.2C122.2,107.9,122.3,107.9,122.4,108z"/>
				<path class="st8" d="M120.7,115.5c1.1,0,2,0.9,2,2s-0.9,2-2,2c-0.4,0-0.7-0.1-1-0.3v-3.5C120,115.6,120.3,115.5,120.7,115.5z"/>
				<path class="st8" d="M121.7,107.7v4.3c0,0.8-0.7,1.5-1.5,1.5c-0.2,0-0.3,0-0.5-0.1V109c0-0.8-0.4-1.5-1-2v-0.3
					c0.8,0.2,1.6,0.4,2.4,0.7C121.3,107.5,121.4,107.6,121.7,107.7C121.6,107.6,121.7,107.7,121.7,107.7z"/>
				<path class="st8" d="M121.7,105v2.7c0,0-0.1,0-0.1,0c-0.2-0.1-0.3-0.1-0.5-0.2c-0.8-0.3-1.6-0.5-2.4-0.7v-2.5
					C119.7,104.4,120.7,104.6,121.7,105z"/>
				<path class="st8" d="M121.7,104v1c-1-0.3-2-0.6-3-0.8V104c0-0.8,0.7-1.5,1.5-1.5S121.7,103.2,121.7,104z"/>
				<polygon class="st8" points="120.7,149.5 120.7,152.5 111.7,152.5 111.7,149.5 112.7,149.5 119.7,149.5 				"/>
				<path class="st6" d="M116.2,136c1.2,0,2.4-0.1,3.5-0.4v13.9h-7v-13.9C113.8,135.9,115,136,116.2,136z"/>
				<path class="st6" d="M119.7,133v2.6c-1.1,0.2-2.3,0.4-3.5,0.4v-2.5C117.4,133.5,118.6,133.3,119.7,133z"/>
				<path class="st5" d="M119.7,119.2V133c-1.1,0.3-2.3,0.5-3.5,0.5s-2.4-0.2-3.5-0.5v-9.5c1.1,0,2-0.9,2-2s-0.9-2-2-2v-4.1
					c0.6-0.2,1-0.8,1-1.4v-7c0.2-0.2,0.5-0.3,0.7-0.4c0,0,0,0,0,0c0,0,0,0,0,0c0,0,0.1,0,0.1,0c0.2,0,0.4,0,0.6,0c0.1,0,0.3,0,0.4,0
					c0.2,0,0.4,0,0.7,0s0.4,0,0.7,0c0.1,0,0.3,0,0.4,0c0.2,0,0.4,0,0.6,0c0,0,0.1,0,0.1,0c0,0,0,0,0,0c0,0,0,0,0,0
					c0.3,0.1,0.5,0.2,0.7,0.4v5c0,0.7,0.4,1.2,1,1.4v2.4c-0.6,0.4-1,1-1,1.7S119.1,118.9,119.7,119.2z"/>
				<path class="st8" d="M119.7,115.8v3.5c-0.6-0.4-1-1-1-1.7S119.1,116.1,119.7,115.8z"/>
				<path class="st8" d="M119.7,109v4.4c-0.6-0.2-1-0.8-1-1.4v-5C119.3,107.5,119.7,108.2,119.7,109z"/>
				<path class="st25" d="M118.7,106.7v0.3c-0.2-0.2-0.5-0.3-0.7-0.4c0,0,0,0,0,0c0,0,0,0,0,0C118.2,106.7,118.4,106.7,118.7,106.7
					C118.6,106.7,118.7,106.7,118.7,106.7z"/>
				<path class="st6" d="M118.7,104.2v2.5c0,0,0,0-0.1,0c-0.2,0-0.4-0.1-0.6-0.1c0,0,0,0,0,0c0,0,0,0-0.1,0c0,0,0,0,0,0
					c-0.2-0.1-0.5-0.1-0.7-0.1h-1h-1c-0.3,0-0.5,0-0.7,0.1c0,0,0,0,0,0c0,0,0,0,0,0c0,0,0,0-0.1,0c-0.2,0-0.4,0.1-0.6,0.1
					c0,0-0.1,0-0.1,0v-2.5c0.8-0.1,1.7-0.2,2.5-0.2S117.9,104.1,118.7,104.2z"/>
				<path class="st25" d="M118.6,106.7c-0.2,0-0.4-0.1-0.6-0.1C118.2,106.7,118.4,106.7,118.6,106.7z"/>
				<path class="st25" d="M118,106.6C118,106.6,118,106.6,118,106.6C117.9,106.6,117.9,106.6,118,106.6
					C118,106.6,118,106.6,118,106.6z"/>
				<path class="st25" d="M117.9,106.6c0,0-0.1,0-0.1,0c-0.2,0-0.4,0-0.6,0c-0.1,0-0.3,0-0.4,0c-0.2,0-0.4,0-0.7,0h1
					C117.5,106.5,117.7,106.5,117.9,106.6z"/>
				<path class="st25" d="M117.8,106.6c-0.2,0-0.4,0-0.6,0C117.4,106.6,117.6,106.6,117.8,106.6z"/>
				<path class="st25" d="M116.8,106.5c-0.2,0-0.4,0-0.7,0C116.4,106.5,116.6,106.5,116.8,106.5z"/>
				<path class="st6" d="M116.2,133.5v2.5c-1.2,0-2.4-0.1-3.5-0.4V133C113.8,133.3,115,133.5,116.2,133.5z"/>
				<path class="st25" d="M116.2,106.5c-0.2,0-0.4,0-0.7,0C115.8,106.5,116,106.5,116.2,106.5z"/>
				<path class="st25" d="M115.2,106.5h1c-0.2,0-0.4,0-0.7,0C115.4,106.5,115.3,106.5,115.2,106.5c-0.2,0.1-0.4,0.1-0.6,0.1
					c0,0-0.1,0-0.1,0C114.7,106.5,114.9,106.5,115.2,106.5z"/>
				<path class="st25" d="M115.1,106.6c-0.2,0-0.4,0-0.6,0C114.8,106.6,114.9,106.6,115.1,106.6z"/>
				<path class="st25" d="M114.4,106.6C114.4,106.6,114.4,106.6,114.4,106.6C114.4,106.6,114.4,106.6,114.4,106.6
					C114.4,106.6,114.4,106.6,114.4,106.6z"/>
				<path class="st25" d="M114.4,106.6C114.4,106.6,114.4,106.6,114.4,106.6c-0.2,0.1-0.5,0.2-0.7,0.4v-0.3c0,0,0.1,0,0.1,0
					C114,106.7,114.2,106.7,114.4,106.6C114.4,106.6,114.4,106.6,114.4,106.6z"/>
				<path class="st25" d="M114.3,106.6c-0.2,0-0.4,0.1-0.6,0.1C114,106.7,114.2,106.7,114.3,106.6z"/>
				<path class="st8" d="M112.7,119.5c1.1,0,2,0.9,2,2s-0.9,2-2,2V119.5z"/>
				<path class="st8" d="M113.7,107v7c0,0.7-0.4,1.2-1,1.4V109C112.7,108.2,113.1,107.5,113.7,107z"/>
				<path class="st8" d="M113.7,106.7v0.3c-0.6,0.5-1,1.2-1,2v6.4c-0.2,0.1-0.3,0.1-0.5,0.1c-0.8,0-1.5-0.7-1.5-1.5v-6.3
					c0,0,0.1,0,0.1,0c0.2-0.1,0.3-0.1,0.5-0.2C112.1,107.1,112.9,106.9,113.7,106.7z"/>
				<path class="st8" d="M113.7,104.2v2.5c-0.8,0.2-1.6,0.4-2.4,0.7c-0.2,0.1-0.3,0.1-0.5,0.2c0,0-0.1,0-0.1,0V105
					C111.7,104.6,112.7,104.4,113.7,104.2z"/>
				<path class="st8" d="M113.7,104v0.2c-1,0.2-2,0.4-3,0.8v-1c0-0.8,0.7-1.5,1.5-1.5S113.7,103.2,113.7,104z"/>
				<path class="st6" d="M112.7,133v2.6c-7.2-1.6-12.5-8-12.5-15.6c0-4.4,1.8-8.5,4.7-11.4c0.5-0.5,1.1-1,1.8-1.5v3.3
					c-2.5,2.4-4,5.8-4,9.6C102.7,126.2,106.9,131.5,112.7,133z"/>
				<path class="st5" d="M112.7,123.5v9.5c-5.8-1.5-10-6.8-10-13c0-3.8,1.5-7.2,4-9.6c0.3-0.3,0.7-0.6,1.1-0.9
					c0.1-0.1,0.3-0.2,0.4-0.3c0.2-0.1,0.3-0.2,0.5-0.4c0.2-0.1,0.4-0.2,0.5-0.3c0.1-0.1,0.2-0.1,0.3-0.2c0.1-0.1,0.2-0.2,0.4-0.2
					c0,0,0.1,0,0.1-0.1c0.1-0.1,0.3-0.2,0.4-0.2c0.1-0.1,0.2-0.1,0.3-0.2v6.3c0,0.8,0.7,1.5,1.5,1.5c0.2,0,0.3,0,0.5-0.1v4.1
					c-1.1,0-2,0.9-2,2S111.6,123.5,112.7,123.5z"/>
				<path class="st8" d="M112.7,119.5v4c-1.1,0-2-0.9-2-2S111.6,119.5,112.7,119.5z"/>
				<path class="st6" d="M110.7,105v2.7c-0.1,0.1-0.2,0.1-0.3,0.2c-0.1,0.1-0.3,0.1-0.4,0.2c0,0,0,0-0.1,0.1
					c-0.1,0.1-0.3,0.1-0.4,0.2c-0.1,0-0.2,0.1-0.3,0.2c-0.2,0.1-0.4,0.2-0.5,0.3c-0.2,0.1-0.4,0.2-0.5,0.4c-0.1,0.1-0.3,0.2-0.4,0.3
					c-0.4,0.3-0.7,0.6-1.1,0.9v-3.3C107.9,106.2,109.3,105.5,110.7,105z"/>
				<path class="st25" d="M110.4,107.8c-0.2,0.1-0.3,0.1-0.4,0.2C110.1,107.9,110.2,107.9,110.4,107.8z"/>
				<path class="st25" d="M109.9,108.1c-0.1,0.1-0.2,0.1-0.4,0.2C109.6,108.2,109.7,108.1,109.9,108.1z"/>
				<path class="st25" d="M109.2,108.4c-0.2,0.1-0.4,0.2-0.5,0.3C108.9,108.7,109,108.5,109.2,108.4z"/>
			</g>
			<g>
				<line class="st24" x1="112.7" y1="149.5" x2="112.7" y2="135.6"/>
				<line class="st24" x1="119.7" y1="135.6" x2="119.7" y2="149.5"/>
				<line class="st24" x1="116.2" y1="145.5" x2="116.2" y2="136"/>
				<path class="st24" d="M106.7,107.1c-0.6,0.5-1.2,1-1.8,1.5c-2.9,2.9-4.7,6.9-4.7,11.4c0,7.6,5.3,14,12.5,15.6
					c1.1,0.2,2.3,0.4,3.5,0.4c1.2,0,2.4-0.1,3.5-0.4c7.2-1.6,12.5-8,12.5-15.6c0-4.4-1.8-8.5-4.7-11.4c-0.6-0.5-1.1-1-1.8-1.5"/>
				<path class="st24" d="M109.2,108.4c-0.2,0.1-0.4,0.2-0.5,0.3"/>
				<path class="st24" d="M110.4,107.8c-0.2,0.1-0.3,0.1-0.4,0.2"/>
				<path class="st24" d="M114.4,106.6C114.4,106.6,114.4,106.6,114.4,106.6C114.4,106.6,114.4,106.6,114.4,106.6"/>
				<path class="st24" d="M116.8,106.5c-0.2,0-0.4,0-0.7,0s-0.4,0-0.7,0"/>
				<path class="st24" d="M118,106.6C118,106.6,118,106.6,118,106.6C117.9,106.6,117.9,106.6,118,106.6"/>
				<path class="st24" d="M122.4,108c-0.1-0.1-0.3-0.2-0.4-0.2"/>
				<path class="st24" d="M123.7,108.8c-0.2-0.1-0.4-0.2-0.5-0.3"/>
				<path class="st24" d="M106.7,110.4c-2.5,2.4-4,5.8-4,9.6c0,6.2,4.2,11.5,10,13c1.1,0.3,2.3,0.5,3.5,0.5s2.4-0.2,3.5-0.5
					c5.8-1.5,10-6.8,10-13c0-3.8-1.5-7.2-4-9.6"/>
				<polygon class="st24" points="119.7,149.5 120.7,149.5 120.7,152.5 111.7,152.5 111.7,149.5 112.7,149.5 				"/>
				<path class="st24" d="M110.7,107.7c-0.1,0.1-0.2,0.1-0.3,0.2c-0.1,0.1-0.3,0.1-0.4,0.2c0,0,0,0-0.1,0.1
					c-0.1,0.1-0.2,0.1-0.4,0.2c-0.1,0-0.2,0.1-0.3,0.2c-0.2,0.1-0.4,0.2-0.5,0.3c-0.2,0.1-0.4,0.2-0.5,0.4c-0.1,0.1-0.3,0.2-0.4,0.3
					c-0.4,0.3-0.7,0.6-1.1,0.9v-3.3v-2.8c0-1.6,0.6-3.1,1.6-4.3c1.2-1.5,3.2-2.5,5.3-2.5h5.3c2.1,0,4.1,1,5.3,2.5
					c1,1.2,1.5,2.7,1.5,4.3v2.8v3.3c-0.3-0.3-0.7-0.6-1-0.9c-0.1-0.1-0.3-0.2-0.4-0.3c-0.2-0.1-0.3-0.2-0.5-0.4
					c-0.2-0.1-0.4-0.2-0.5-0.3c-0.1-0.1-0.2-0.1-0.2-0.2c-0.1-0.1-0.3-0.1-0.4-0.2c0,0-0.1,0-0.1-0.1c-0.1-0.1-0.3-0.1-0.4-0.2
					c-0.1-0.1-0.2-0.1-0.3-0.2"/>
				<path class="st24" d="M118.7,106.7C118.7,106.7,118.6,106.7,118.7,106.7c-0.3-0.1-0.5-0.1-0.7-0.1c0,0,0,0,0,0c0,0,0,0-0.1,0
					c0,0,0,0,0,0c0,0-0.1,0-0.1,0c-0.2,0-0.4,0-0.6,0c-0.1,0-0.3,0-0.4,0c-0.2,0-0.4,0-0.7,0s-0.4,0-0.7,0c-0.1,0-0.3,0-0.4,0
					c-0.2,0-0.4,0-0.6,0c0,0-0.1,0-0.1,0c0,0,0,0,0,0c0,0,0,0,0,0c0,0,0,0-0.1,0c-0.2,0-0.4,0.1-0.6,0.1c0,0-0.1,0-0.1,0"/>
				<path class="st24" d="M119.7,113.4c0.2,0.1,0.3,0.1,0.5,0.1c0.8,0,1.5-0.7,1.5-1.5v-4.3V105v-1c0-0.8-0.7-1.5-1.5-1.5
					s-1.5,0.7-1.5,1.5v0.2v2.5v0.3v5C118.7,112.7,119.1,113.2,119.7,113.4z"/>
				<path class="st24" d="M110.7,107.7v6.3c0,0.8,0.7,1.5,1.5,1.5c0.2,0,0.3,0,0.5-0.1c0.6-0.2,1-0.8,1-1.4v-7v-0.3v-2.5V104
					c0-0.8-0.7-1.5-1.5-1.5s-1.5,0.7-1.5,1.5v1V107.7z"/>
				<path class="st24" d="M119.7,115.8c-0.6,0.4-1,1-1,1.7s0.4,1.4,1,1.7c0.3,0.2,0.6,0.3,1,0.3c1.1,0,2-0.9,2-2s-0.9-2-2-2
					C120.3,115.5,120,115.6,119.7,115.8z"/>
				<circle class="st24" cx="112.7" cy="121.5" r="2"/>
			</g>
		</g>
	</g>
</g>
<g id="RED">
	<g>
		<g id="XMLID_8_">
			<g>
				<path class="st6" d="M127.5,108.6c2.9,2.9,4.7,6.9,4.7,11.4c0,7.6-5.4,14-12.5,15.6V133c5.8-1.5,10-6.8,10-13
					c0-3.8-1.5-7.2-4-9.6v-3.3C126.3,107.6,126.9,108.1,127.5,108.6z"/>
				<path class="st5" d="M125.7,110.4c2.5,2.4,4,5.8,4,9.6c0,6.2-4.2,11.5-10,13v-13.8c0.3,0.2,0.6,0.3,1,0.3c1.1,0,2-0.9,2-2
					s-0.9-2-2-2c-0.4,0-0.7,0.1-1,0.3v-2.4c0.2,0.1,0.3,0.1,0.5,0.1c0.8,0,1.5-0.7,1.5-1.5v-4.3c0.1,0.1,0.2,0.1,0.3,0.2
					c0.2,0.1,0.3,0.1,0.4,0.2c0,0,0.1,0,0.1,0.1c0.1,0.1,0.3,0.1,0.4,0.2c0.1,0,0.2,0.1,0.2,0.2c0.2,0.1,0.4,0.2,0.5,0.3
					c0.2,0.1,0.3,0.2,0.5,0.4c0.1,0.1,0.3,0.2,0.4,0.3C125,109.8,125.4,110.1,125.7,110.4z"/>
				<path class="st6" d="M125.7,107.1v3.3c-0.3-0.3-0.7-0.6-1-0.9c-0.1-0.1-0.3-0.2-0.4-0.3c-0.2-0.1-0.3-0.2-0.5-0.4
					c-0.2-0.1-0.4-0.2-0.5-0.3c-0.1-0.1-0.2-0.1-0.2-0.2c-0.1-0.1-0.3-0.2-0.4-0.2c0,0-0.1,0-0.1-0.1c-0.1-0.1-0.3-0.1-0.4-0.2
					c-0.1-0.1-0.2-0.1-0.3-0.2V105C123.1,105.5,124.5,106.2,125.7,107.1z"/>
				<path class="st6" d="M125.7,104.3v2.8c-1.2-0.9-2.6-1.6-4-2.2v-1c0-0.8-0.7-1.5-1.5-1.5s-1.5,0.7-1.5,1.5v0.2
					c-0.8-0.1-1.7-0.2-2.5-0.2s-1.7,0.1-2.5,0.2V104c0-0.8-0.7-1.5-1.5-1.5s-1.5,0.7-1.5,1.5v1c-1.4,0.5-2.8,1.2-4,2.2v-2.8
					c0-1.6,0.6-3.1,1.6-4.3c1.2-1.5,3.2-2.5,5.3-2.5h5.3c2.1,0,4.1,1,5.3,2.5C125.1,101.2,125.7,102.7,125.7,104.3z"/>
				<path class="st25" d="M123.7,108.8c-0.2-0.1-0.4-0.2-0.5-0.3C123.3,108.5,123.5,108.7,123.7,108.8z"/>
				<path class="st25" d="M122.9,108.3c-0.1-0.1-0.3-0.1-0.4-0.2C122.7,108.1,122.8,108.2,122.9,108.3z"/>
				<path class="st25" d="M122.4,108c-0.1-0.1-0.3-0.2-0.4-0.2C122.2,107.9,122.3,107.9,122.4,108z"/>
				<path class="st28" d="M120.7,115.5c1.1,0,2,0.9,2,2s-0.9,2-2,2c-0.4,0-0.7-0.1-1-0.3v-3.5C120,115.6,120.3,115.5,120.7,115.5z"
					/>
				<path class="st28" d="M121.7,107.7v4.3c0,0.8-0.7,1.5-1.5,1.5c-0.2,0-0.3,0-0.5-0.1V109c0-0.8-0.4-1.5-1-2v-0.3
					c0.8,0.2,1.6,0.4,2.4,0.7C121.3,107.5,121.4,107.6,121.7,107.7C121.6,107.6,121.7,107.7,121.7,107.7z"/>
				<path class="st28" d="M121.7,105v2.7c0,0-0.1,0-0.1,0c-0.2-0.1-0.3-0.1-0.5-0.2c-0.8-0.3-1.6-0.5-2.4-0.7v-2.5
					C119.7,104.4,120.7,104.6,121.7,105z"/>
				<path class="st28" d="M121.7,104v1c-1-0.3-2-0.6-3-0.8V104c0-0.8,0.7-1.5,1.5-1.5S121.7,103.2,121.7,104z"/>
				<polygon class="st28" points="120.7,149.5 120.7,152.5 111.7,152.5 111.7,149.5 112.7,149.5 119.7,149.5 				"/>
				<path class="st6" d="M116.2,136c1.2,0,2.4-0.1,3.5-0.4v13.9h-7v-13.9C113.8,135.9,115,136,116.2,136z"/>
				<path class="st6" d="M119.7,133v2.6c-1.1,0.2-2.3,0.4-3.5,0.4v-2.5C117.4,133.5,118.6,133.3,119.7,133z"/>
				<path class="st5" d="M119.7,119.2V133c-1.1,0.3-2.3,0.5-3.5,0.5s-2.4-0.2-3.5-0.5v-9.5c1.1,0,2-0.9,2-2s-0.9-2-2-2v-4.1
					c0.6-0.2,1-0.8,1-1.4v-7c0.2-0.2,0.5-0.3,0.7-0.4c0,0,0,0,0,0c0,0,0,0,0,0c0,0,0.1,0,0.1,0c0.2,0,0.4,0,0.6,0c0.1,0,0.3,0,0.4,0
					c0.2,0,0.4,0,0.7,0s0.4,0,0.7,0c0.1,0,0.3,0,0.4,0c0.2,0,0.4,0,0.6,0c0,0,0.1,0,0.1,0c0,0,0,0,0,0c0,0,0,0,0,0
					c0.3,0.1,0.5,0.2,0.7,0.4v5c0,0.7,0.4,1.2,1,1.4v2.4c-0.6,0.4-1,1-1,1.7S119.1,118.9,119.7,119.2z"/>
				<path class="st28" d="M119.7,115.8v3.5c-0.6-0.4-1-1-1-1.7S119.1,116.1,119.7,115.8z"/>
				<path class="st28" d="M119.7,109v4.4c-0.6-0.2-1-0.8-1-1.4v-5C119.3,107.5,119.7,108.2,119.7,109z"/>
				<path class="st25" d="M118.7,106.7v0.3c-0.2-0.2-0.5-0.3-0.7-0.4c0,0,0,0,0,0c0,0,0,0,0,0C118.2,106.7,118.4,106.7,118.7,106.7
					C118.6,106.7,118.7,106.7,118.7,106.7z"/>
				<path class="st6" d="M118.7,104.2v2.5c0,0,0,0-0.1,0c-0.2,0-0.4-0.1-0.6-0.1c0,0,0,0,0,0c0,0,0,0-0.1,0c0,0,0,0,0,0
					c-0.2-0.1-0.5-0.1-0.7-0.1h-1h-1c-0.3,0-0.5,0-0.7,0.1c0,0,0,0,0,0c0,0,0,0,0,0c0,0,0,0-0.1,0c-0.2,0-0.4,0.1-0.6,0.1
					c0,0-0.1,0-0.1,0v-2.5c0.8-0.1,1.7-0.2,2.5-0.2S117.9,104.1,118.7,104.2z"/>
				<path class="st25" d="M118.6,106.7c-0.2,0-0.4-0.1-0.6-0.1C118.2,106.7,118.4,106.7,118.6,106.7z"/>
				<path class="st25" d="M118,106.6C118,106.6,118,106.6,118,106.6C117.9,106.6,117.9,106.6,118,106.6
					C118,106.6,118,106.6,118,106.6z"/>
				<path class="st25" d="M117.9,106.6c0,0-0.1,0-0.1,0c-0.2,0-0.4,0-0.6,0c-0.1,0-0.3,0-0.4,0c-0.2,0-0.4,0-0.7,0h1
					C117.5,106.5,117.7,106.5,117.9,106.6z"/>
				<path class="st25" d="M117.8,106.6c-0.2,0-0.4,0-0.6,0C117.4,106.6,117.6,106.6,117.8,106.6z"/>
				<path class="st25" d="M116.8,106.5c-0.2,0-0.4,0-0.7,0C116.4,106.5,116.6,106.5,116.8,106.5z"/>
				<path class="st6" d="M116.2,133.5v2.5c-1.2,0-2.4-0.1-3.5-0.4V133C113.8,133.3,115,133.5,116.2,133.5z"/>
				<path class="st25" d="M116.2,106.5c-0.2,0-0.4,0-0.7,0C115.8,106.5,116,106.5,116.2,106.5z"/>
				<path class="st25" d="M115.2,106.5h1c-0.2,0-0.4,0-0.7,0C115.4,106.5,115.3,106.5,115.2,106.5c-0.2,0.1-0.4,0.1-0.6,0.1
					c0,0-0.1,0-0.1,0C114.7,106.5,114.9,106.5,115.2,106.5z"/>
				<path class="st25" d="M115.1,106.6c-0.2,0-0.4,0-0.6,0C114.8,106.6,114.9,106.6,115.1,106.6z"/>
				<path class="st25" d="M114.4,106.6C114.4,106.6,114.4,106.6,114.4,106.6C114.4,106.6,114.4,106.6,114.4,106.6
					C114.4,106.6,114.4,106.6,114.4,106.6z"/>
				<path class="st25" d="M114.4,106.6C114.4,106.6,114.4,106.6,114.4,106.6c-0.2,0.1-0.5,0.2-0.7,0.4v-0.3c0,0,0.1,0,0.1,0
					C114,106.7,114.2,106.7,114.4,106.6C114.4,106.6,114.4,106.6,114.4,106.6z"/>
				<path class="st25" d="M114.3,106.6c-0.2,0-0.4,0.1-0.6,0.1C114,106.7,114.2,106.7,114.3,106.6z"/>
				<path class="st28" d="M112.7,119.5c1.1,0,2,0.9,2,2s-0.9,2-2,2V119.5z"/>
				<path class="st28" d="M113.7,107v7c0,0.7-0.4,1.2-1,1.4V109C112.7,108.2,113.1,107.5,113.7,107z"/>
				<path class="st28" d="M113.7,106.7v0.3c-0.6,0.5-1,1.2-1,2v6.4c-0.2,0.1-0.3,0.1-0.5,0.1c-0.8,0-1.5-0.7-1.5-1.5v-6.3
					c0,0,0.1,0,0.1,0c0.2-0.1,0.3-0.1,0.5-0.2C112.1,107.1,112.9,106.9,113.7,106.7z"/>
				<path class="st28" d="M113.7,104.2v2.5c-0.8,0.2-1.6,0.4-2.4,0.7c-0.2,0.1-0.3,0.1-0.5,0.2c0,0-0.1,0-0.1,0V105
					C111.7,104.6,112.7,104.4,113.7,104.2z"/>
				<path class="st28" d="M113.7,104v0.2c-1,0.2-2,0.4-3,0.8v-1c0-0.8,0.7-1.5,1.5-1.5S113.7,103.2,113.7,104z"/>
				<path class="st6" d="M112.7,133v2.6c-7.2-1.6-12.5-8-12.5-15.6c0-4.4,1.8-8.5,4.7-11.4c0.5-0.5,1.1-1,1.8-1.5v3.3
					c-2.5,2.4-4,5.8-4,9.6C102.7,126.2,106.9,131.5,112.7,133z"/>
				<path class="st5" d="M112.7,123.5v9.5c-5.8-1.5-10-6.8-10-13c0-3.8,1.5-7.2,4-9.6c0.3-0.3,0.7-0.6,1.1-0.9
					c0.1-0.1,0.3-0.2,0.4-0.3c0.2-0.1,0.3-0.2,0.5-0.4c0.2-0.1,0.4-0.2,0.5-0.3c0.1-0.1,0.2-0.1,0.3-0.2c0.1-0.1,0.2-0.2,0.4-0.2
					c0,0,0.1,0,0.1-0.1c0.1-0.1,0.3-0.2,0.4-0.2c0.1-0.1,0.2-0.1,0.3-0.2v6.3c0,0.8,0.7,1.5,1.5,1.5c0.2,0,0.3,0,0.5-0.1v4.1
					c-1.1,0-2,0.9-2,2S111.6,123.5,112.7,123.5z"/>
				<path class="st28" d="M112.7,119.5v4c-1.1,0-2-0.9-2-2S111.6,119.5,112.7,119.5z"/>
				<path class="st6" d="M110.7,105v2.7c-0.1,0.1-0.2,0.1-0.3,0.2c-0.1,0.1-0.3,0.1-0.4,0.2c0,0,0,0-0.1,0.1
					c-0.1,0.1-0.3,0.1-0.4,0.2c-0.1,0-0.2,0.1-0.3,0.2c-0.2,0.1-0.4,0.2-0.5,0.3c-0.2,0.1-0.4,0.2-0.5,0.4c-0.1,0.1-0.3,0.2-0.4,0.3
					c-0.4,0.3-0.7,0.6-1.1,0.9v-3.3C107.9,106.2,109.3,105.5,110.7,105z"/>
				<path class="st25" d="M110.4,107.8c-0.2,0.1-0.3,0.1-0.4,0.2C110.1,107.9,110.2,107.9,110.4,107.8z"/>
				<path class="st25" d="M109.9,108.1c-0.1,0.1-0.2,0.1-0.4,0.2C109.6,108.2,109.7,108.1,109.9,108.1z"/>
				<path class="st25" d="M109.2,108.4c-0.2,0.1-0.4,0.2-0.5,0.3C108.9,108.7,109,108.5,109.2,108.4z"/>
			</g>
			<g>
				<line class="st24" x1="112.7" y1="149.5" x2="112.7" y2="135.6"/>
				<line class="st24" x1="119.7" y1="135.6" x2="119.7" y2="149.5"/>
				<line class="st24" x1="116.2" y1="145.5" x2="116.2" y2="136"/>
				<path class="st24" d="M106.7,107.1c-0.6,0.5-1.2,1-1.8,1.5c-2.9,2.9-4.7,6.9-4.7,11.4c0,7.6,5.3,14,12.5,15.6
					c1.1,0.2,2.3,0.4,3.5,0.4c1.2,0,2.4-0.1,3.5-0.4c7.2-1.6,12.5-8,12.5-15.6c0-4.4-1.8-8.5-4.7-11.4c-0.6-0.5-1.1-1-1.8-1.5"/>
				<path class="st24" d="M109.2,108.4c-0.2,0.1-0.4,0.2-0.5,0.3"/>
				<path class="st24" d="M110.4,107.8c-0.2,0.1-0.3,0.1-0.4,0.2"/>
				<path class="st24" d="M114.4,106.6C114.4,106.6,114.4,106.6,114.4,106.6C114.4,106.6,114.4,106.6,114.4,106.6"/>
				<path class="st24" d="M116.8,106.5c-0.2,0-0.4,0-0.7,0s-0.4,0-0.7,0"/>
				<path class="st24" d="M118,106.6C118,106.6,118,106.6,118,106.6C117.9,106.6,117.9,106.6,118,106.6"/>
				<path class="st24" d="M122.4,108c-0.1-0.1-0.3-0.2-0.4-0.2"/>
				<path class="st24" d="M123.7,108.8c-0.2-0.1-0.4-0.2-0.5-0.3"/>
				<path class="st24" d="M106.7,110.4c-2.5,2.4-4,5.8-4,9.6c0,6.2,4.2,11.5,10,13c1.1,0.3,2.3,0.5,3.5,0.5s2.4-0.2,3.5-0.5
					c5.8-1.5,10-6.8,10-13c0-3.8-1.5-7.2-4-9.6"/>
				<polygon class="st24" points="119.7,149.5 120.7,149.5 120.7,152.5 111.7,152.5 111.7,149.5 112.7,149.5 				"/>
				<path class="st24" d="M110.7,107.7c-0.1,0.1-0.2,0.1-0.3,0.2c-0.1,0.1-0.3,0.1-0.4,0.2c0,0,0,0-0.1,0.1
					c-0.1,0.1-0.2,0.1-0.4,0.2c-0.1,0-0.2,0.1-0.3,0.2c-0.2,0.1-0.4,0.2-0.5,0.3c-0.2,0.1-0.4,0.2-0.5,0.4c-0.1,0.1-0.3,0.2-0.4,0.3
					c-0.4,0.3-0.7,0.6-1.1,0.9v-3.3v-2.8c0-1.6,0.6-3.1,1.6-4.3c1.2-1.5,3.2-2.5,5.3-2.5h5.3c2.1,0,4.1,1,5.3,2.5
					c1,1.2,1.5,2.7,1.5,4.3v2.8v3.3c-0.3-0.3-0.7-0.6-1-0.9c-0.1-0.1-0.3-0.2-0.4-0.3c-0.2-0.1-0.3-0.2-0.5-0.4
					c-0.2-0.1-0.4-0.2-0.5-0.3c-0.1-0.1-0.2-0.1-0.2-0.2c-0.1-0.1-0.3-0.1-0.4-0.2c0,0-0.1,0-0.1-0.1c-0.1-0.1-0.3-0.1-0.4-0.2
					c-0.1-0.1-0.2-0.1-0.3-0.2"/>
				<path class="st24" d="M118.7,106.7C118.7,106.7,118.6,106.7,118.7,106.7c-0.3-0.1-0.5-0.1-0.7-0.1c0,0,0,0,0,0c0,0,0,0-0.1,0
					c0,0,0,0,0,0c0,0-0.1,0-0.1,0c-0.2,0-0.4,0-0.6,0c-0.1,0-0.3,0-0.4,0c-0.2,0-0.4,0-0.7,0s-0.4,0-0.7,0c-0.1,0-0.3,0-0.4,0
					c-0.2,0-0.4,0-0.6,0c0,0-0.1,0-0.1,0c0,0,0,0,0,0c0,0,0,0,0,0c0,0,0,0-0.1,0c-0.2,0-0.4,0.1-0.6,0.1c0,0-0.1,0-0.1,0"/>
				<path class="st24" d="M119.7,113.4c0.2,0.1,0.3,0.1,0.5,0.1c0.8,0,1.5-0.7,1.5-1.5v-4.3V105v-1c0-0.8-0.7-1.5-1.5-1.5
					s-1.5,0.7-1.5,1.5v0.2v2.5v0.3v5C118.7,112.7,119.1,113.2,119.7,113.4z"/>
				<path class="st24" d="M110.7,107.7v6.3c0,0.8,0.7,1.5,1.5,1.5c0.2,0,0.3,0,0.5-0.1c0.6-0.2,1-0.8,1-1.4v-7v-0.3v-2.5V104
					c0-0.8-0.7-1.5-1.5-1.5s-1.5,0.7-1.5,1.5v1V107.7z"/>
				<path class="st24" d="M119.7,115.8c-0.6,0.4-1,1-1,1.7s0.4,1.4,1,1.7c0.3,0.2,0.6,0.3,1,0.3c1.1,0,2-0.9,2-2s-0.9-2-2-2
					C120.3,115.5,120,115.6,119.7,115.8z"/>
				<circle class="st24" cx="112.7" cy="121.5" r="2"/>
			</g>
		</g>
	</g>
</g>
<g id="GREEN" class="st0">
	<g class="st1">
		<g id="XMLID_36_">
			<g>
				<path class="st6" d="M127.5,108.6c2.9,2.9,4.7,6.9,4.7,11.4c0,7.6-5.4,14-12.5,15.6V133c5.8-1.5,10-6.8,10-13
					c0-3.8-1.5-7.2-4-9.6v-3.3C126.3,107.6,126.9,108.1,127.5,108.6z"/>
				<path class="st5" d="M125.7,110.4c2.5,2.4,4,5.8,4,9.6c0,6.2-4.2,11.5-10,13v-13.8c0.3,0.2,0.6,0.3,1,0.3c1.1,0,2-0.9,2-2
					s-0.9-2-2-2c-0.4,0-0.7,0.1-1,0.3v-2.4c0.2,0.1,0.3,0.1,0.5,0.1c0.8,0,1.5-0.7,1.5-1.5v-4.3c0.1,0.1,0.2,0.1,0.3,0.2
					c0.2,0.1,0.3,0.1,0.4,0.2c0,0,0.1,0,0.1,0.1c0.1,0.1,0.3,0.1,0.4,0.2c0.1,0,0.2,0.1,0.2,0.2c0.2,0.1,0.4,0.2,0.5,0.3
					c0.2,0.1,0.3,0.2,0.5,0.4c0.1,0.1,0.3,0.2,0.4,0.3C125,109.8,125.4,110.1,125.7,110.4z"/>
				<path class="st6" d="M125.7,107.1v3.3c-0.3-0.3-0.7-0.6-1-0.9c-0.1-0.1-0.3-0.2-0.4-0.3c-0.2-0.1-0.3-0.2-0.5-0.4
					c-0.2-0.1-0.4-0.2-0.5-0.3c-0.1-0.1-0.2-0.1-0.2-0.2c-0.1-0.1-0.3-0.2-0.4-0.2c0,0-0.1,0-0.1-0.1c-0.1-0.1-0.3-0.1-0.4-0.2
					c-0.1-0.1-0.2-0.1-0.3-0.2V105C123.1,105.5,124.5,106.2,125.7,107.1z"/>
				<path class="st6" d="M125.7,104.3v2.8c-1.2-0.9-2.6-1.6-4-2.2v-1c0-0.8-0.7-1.5-1.5-1.5s-1.5,0.7-1.5,1.5v0.2
					c-0.8-0.1-1.7-0.2-2.5-0.2s-1.7,0.1-2.5,0.2V104c0-0.8-0.7-1.5-1.5-1.5s-1.5,0.7-1.5,1.5v1c-1.4,0.5-2.8,1.2-4,2.2v-2.8
					c0-1.6,0.6-3.1,1.6-4.3c1.2-1.5,3.2-2.5,5.3-2.5h5.3c2.1,0,4.1,1,5.3,2.5C125.1,101.2,125.7,102.7,125.7,104.3z"/>
				<path class="st25" d="M123.7,108.8c-0.2-0.1-0.4-0.2-0.5-0.3C123.3,108.5,123.5,108.7,123.7,108.8z"/>
				<path class="st25" d="M122.9,108.3c-0.1-0.1-0.3-0.1-0.4-0.2C122.7,108.1,122.8,108.2,122.9,108.3z"/>
				<path class="st25" d="M122.4,108c-0.1-0.1-0.3-0.2-0.4-0.2C122.2,107.9,122.3,107.9,122.4,108z"/>
				<path class="st30" d="M120.7,115.5c1.1,0,2,0.9,2,2s-0.9,2-2,2c-0.4,0-0.7-0.1-1-0.3v-3.5C120,115.6,120.3,115.5,120.7,115.5z"
					/>
				<path class="st30" d="M121.7,107.7v4.3c0,0.8-0.7,1.5-1.5,1.5c-0.2,0-0.3,0-0.5-0.1V109c0-0.8-0.4-1.5-1-2v-0.3
					c0.8,0.2,1.6,0.4,2.4,0.7C121.3,107.5,121.4,107.6,121.7,107.7C121.6,107.6,121.7,107.7,121.7,107.7z"/>
				<path class="st30" d="M121.7,105v2.7c0,0-0.1,0-0.1,0c-0.2-0.1-0.3-0.1-0.5-0.2c-0.8-0.3-1.6-0.5-2.4-0.7v-2.5
					C119.7,104.4,120.7,104.6,121.7,105z"/>
				<path class="st30" d="M121.7,104v1c-1-0.3-2-0.6-3-0.8V104c0-0.8,0.7-1.5,1.5-1.5S121.7,103.2,121.7,104z"/>
				<polygon class="st30" points="120.7,149.5 120.7,152.5 111.7,152.5 111.7,149.5 112.7,149.5 119.7,149.5 				"/>
				<path class="st6" d="M116.2,136c1.2,0,2.4-0.1,3.5-0.4v13.9h-7v-13.9C113.8,135.9,115,136,116.2,136z"/>
				<path class="st6" d="M119.7,133v2.6c-1.1,0.2-2.3,0.4-3.5,0.4v-2.5C117.4,133.5,118.6,133.3,119.7,133z"/>
				<path class="st5" d="M119.7,119.2V133c-1.1,0.3-2.3,0.5-3.5,0.5s-2.4-0.2-3.5-0.5v-9.5c1.1,0,2-0.9,2-2s-0.9-2-2-2v-4.1
					c0.6-0.2,1-0.8,1-1.4v-7c0.2-0.2,0.5-0.3,0.7-0.4c0,0,0,0,0,0c0,0,0,0,0,0c0,0,0.1,0,0.1,0c0.2,0,0.4,0,0.6,0c0.1,0,0.3,0,0.4,0
					c0.2,0,0.4,0,0.7,0s0.4,0,0.7,0c0.1,0,0.3,0,0.4,0c0.2,0,0.4,0,0.6,0c0,0,0.1,0,0.1,0c0,0,0,0,0,0c0,0,0,0,0,0
					c0.3,0.1,0.5,0.2,0.7,0.4v5c0,0.7,0.4,1.2,1,1.4v2.4c-0.6,0.4-1,1-1,1.7S119.1,118.9,119.7,119.2z"/>
				<path class="st30" d="M119.7,115.8v3.5c-0.6-0.4-1-1-1-1.7S119.1,116.1,119.7,115.8z"/>
				<path class="st30" d="M119.7,109v4.4c-0.6-0.2-1-0.8-1-1.4v-5C119.3,107.5,119.7,108.2,119.7,109z"/>
				<path class="st25" d="M118.7,106.7v0.3c-0.2-0.2-0.5-0.3-0.7-0.4c0,0,0,0,0,0c0,0,0,0,0,0C118.2,106.7,118.4,106.7,118.7,106.7
					C118.6,106.7,118.7,106.7,118.7,106.7z"/>
				<path class="st6" d="M118.7,104.2v2.5c0,0,0,0-0.1,0c-0.2,0-0.4-0.1-0.6-0.1c0,0,0,0,0,0c0,0,0,0-0.1,0c0,0,0,0,0,0
					c-0.2-0.1-0.5-0.1-0.7-0.1h-1h-1c-0.3,0-0.5,0-0.7,0.1c0,0,0,0,0,0c0,0,0,0,0,0c0,0,0,0-0.1,0c-0.2,0-0.4,0.1-0.6,0.1
					c0,0-0.1,0-0.1,0v-2.5c0.8-0.1,1.7-0.2,2.5-0.2S117.9,104.1,118.7,104.2z"/>
				<path class="st25" d="M118.6,106.7c-0.2,0-0.4-0.1-0.6-0.1C118.2,106.7,118.4,106.7,118.6,106.7z"/>
				<path class="st25" d="M118,106.6C118,106.6,118,106.6,118,106.6C117.9,106.6,117.9,106.6,118,106.6
					C118,106.6,118,106.6,118,106.6z"/>
				<path class="st25" d="M117.9,106.6c0,0-0.1,0-0.1,0c-0.2,0-0.4,0-0.6,0c-0.1,0-0.3,0-0.4,0c-0.2,0-0.4,0-0.7,0h1
					C117.5,106.5,117.7,106.5,117.9,106.6z"/>
				<path class="st25" d="M117.8,106.6c-0.2,0-0.4,0-0.6,0C117.4,106.6,117.6,106.6,117.8,106.6z"/>
				<path class="st25" d="M116.8,106.5c-0.2,0-0.4,0-0.7,0C116.4,106.5,116.6,106.5,116.8,106.5z"/>
				<path class="st6" d="M116.2,133.5v2.5c-1.2,0-2.4-0.1-3.5-0.4V133C113.8,133.3,115,133.5,116.2,133.5z"/>
				<path class="st25" d="M116.2,106.5c-0.2,0-0.4,0-0.7,0C115.8,106.5,116,106.5,116.2,106.5z"/>
				<path class="st25" d="M115.2,106.5h1c-0.2,0-0.4,0-0.7,0C115.4,106.5,115.3,106.5,115.2,106.5c-0.2,0.1-0.4,0.1-0.6,0.1
					c0,0-0.1,0-0.1,0C114.7,106.5,114.9,106.5,115.2,106.5z"/>
				<path class="st25" d="M115.1,106.6c-0.2,0-0.4,0-0.6,0C114.8,106.6,114.9,106.6,115.1,106.6z"/>
				<path class="st25" d="M114.4,106.6C114.4,106.6,114.4,106.6,114.4,106.6C114.4,106.6,114.4,106.6,114.4,106.6
					C114.4,106.6,114.4,106.6,114.4,106.6z"/>
				<path class="st25" d="M114.4,106.6C114.4,106.6,114.4,106.6,114.4,106.6c-0.2,0.1-0.5,0.2-0.7,0.4v-0.3c0,0,0.1,0,0.1,0
					C114,106.7,114.2,106.7,114.4,106.6C114.4,106.6,114.4,106.6,114.4,106.6z"/>
				<path class="st25" d="M114.3,106.6c-0.2,0-0.4,0.1-0.6,0.1C114,106.7,114.2,106.7,114.3,106.6z"/>
				<path class="st30" d="M112.7,119.5c1.1,0,2,0.9,2,2s-0.9,2-2,2V119.5z"/>
				<path class="st30" d="M113.7,107v7c0,0.7-0.4,1.2-1,1.4V109C112.7,108.2,113.1,107.5,113.7,107z"/>
				<path class="st30" d="M113.7,106.7v0.3c-0.6,0.5-1,1.2-1,2v6.4c-0.2,0.1-0.3,0.1-0.5,0.1c-0.8,0-1.5-0.7-1.5-1.5v-6.3
					c0,0,0.1,0,0.1,0c0.2-0.1,0.3-0.1,0.5-0.2C112.1,107.1,112.9,106.9,113.7,106.7z"/>
				<path class="st30" d="M113.7,104.2v2.5c-0.8,0.2-1.6,0.4-2.4,0.7c-0.2,0.1-0.3,0.1-0.5,0.2c0,0-0.1,0-0.1,0V105
					C111.7,104.6,112.7,104.4,113.7,104.2z"/>
				<path class="st30" d="M113.7,104v0.2c-1,0.2-2,0.4-3,0.8v-1c0-0.8,0.7-1.5,1.5-1.5S113.7,103.2,113.7,104z"/>
				<path class="st6" d="M112.7,133v2.6c-7.2-1.6-12.5-8-12.5-15.6c0-4.4,1.8-8.5,4.7-11.4c0.5-0.5,1.1-1,1.8-1.5v3.3
					c-2.5,2.4-4,5.8-4,9.6C102.7,126.2,106.9,131.5,112.7,133z"/>
				<path class="st5" d="M112.7,123.5v9.5c-5.8-1.5-10-6.8-10-13c0-3.8,1.5-7.2,4-9.6c0.3-0.3,0.7-0.6,1.1-0.9
					c0.1-0.1,0.3-0.2,0.4-0.3c0.2-0.1,0.3-0.2,0.5-0.4c0.2-0.1,0.4-0.2,0.5-0.3c0.1-0.1,0.2-0.1,0.3-0.2c0.1-0.1,0.2-0.2,0.4-0.2
					c0,0,0.1,0,0.1-0.1c0.1-0.1,0.3-0.2,0.4-0.2c0.1-0.1,0.2-0.1,0.3-0.2v6.3c0,0.8,0.7,1.5,1.5,1.5c0.2,0,0.3,0,0.5-0.1v4.1
					c-1.1,0-2,0.9-2,2S111.6,123.5,112.7,123.5z"/>
				<path class="st30" d="M112.7,119.5v4c-1.1,0-2-0.9-2-2S111.6,119.5,112.7,119.5z"/>
				<path class="st6" d="M110.7,105v2.7c-0.1,0.1-0.2,0.1-0.3,0.2c-0.1,0.1-0.3,0.1-0.4,0.2c0,0,0,0-0.1,0.1
					c-0.1,0.1-0.3,0.1-0.4,0.2c-0.1,0-0.2,0.1-0.3,0.2c-0.2,0.1-0.4,0.2-0.5,0.3c-0.2,0.1-0.4,0.2-0.5,0.4c-0.1,0.1-0.3,0.2-0.4,0.3
					c-0.4,0.3-0.7,0.6-1.1,0.9v-3.3C107.9,106.2,109.3,105.5,110.7,105z"/>
				<path class="st25" d="M110.4,107.8c-0.2,0.1-0.3,0.1-0.4,0.2C110.1,107.9,110.2,107.9,110.4,107.8z"/>
				<path class="st25" d="M109.9,108.1c-0.1,0.1-0.2,0.1-0.4,0.2C109.6,108.2,109.7,108.1,109.9,108.1z"/>
				<path class="st25" d="M109.2,108.4c-0.2,0.1-0.4,0.2-0.5,0.3C108.9,108.7,109,108.5,109.2,108.4z"/>
			</g>
			<g>
				<line class="st24" x1="112.7" y1="149.5" x2="112.7" y2="135.6"/>
				<line class="st24" x1="119.7" y1="135.6" x2="119.7" y2="149.5"/>
				<line class="st24" x1="116.2" y1="145.5" x2="116.2" y2="136"/>
				<path class="st24" d="M106.7,107.1c-0.6,0.5-1.2,1-1.8,1.5c-2.9,2.9-4.7,6.9-4.7,11.4c0,7.6,5.3,14,12.5,15.6
					c1.1,0.2,2.3,0.4,3.5,0.4c1.2,0,2.4-0.1,3.5-0.4c7.2-1.6,12.5-8,12.5-15.6c0-4.4-1.8-8.5-4.7-11.4c-0.6-0.5-1.1-1-1.8-1.5"/>
				<path class="st24" d="M109.2,108.4c-0.2,0.1-0.4,0.2-0.5,0.3"/>
				<path class="st24" d="M110.4,107.8c-0.2,0.1-0.3,0.1-0.4,0.2"/>
				<path class="st24" d="M114.4,106.6C114.4,106.6,114.4,106.6,114.4,106.6C114.4,106.6,114.4,106.6,114.4,106.6"/>
				<path class="st24" d="M116.8,106.5c-0.2,0-0.4,0-0.7,0s-0.4,0-0.7,0"/>
				<path class="st24" d="M118,106.6C118,106.6,118,106.6,118,106.6C117.9,106.6,117.9,106.6,118,106.6"/>
				<path class="st24" d="M122.4,108c-0.1-0.1-0.3-0.2-0.4-0.2"/>
				<path class="st24" d="M123.7,108.8c-0.2-0.1-0.4-0.2-0.5-0.3"/>
				<path class="st24" d="M106.7,110.4c-2.5,2.4-4,5.8-4,9.6c0,6.2,4.2,11.5,10,13c1.1,0.3,2.3,0.5,3.5,0.5s2.4-0.2,3.5-0.5
					c5.8-1.5,10-6.8,10-13c0-3.8-1.5-7.2-4-9.6"/>
				<polygon class="st24" points="119.7,149.5 120.7,149.5 120.7,152.5 111.7,152.5 111.7,149.5 112.7,149.5 				"/>
				<path class="st24" d="M110.7,107.7c-0.1,0.1-0.2,0.1-0.3,0.2c-0.1,0.1-0.3,0.1-0.4,0.2c0,0,0,0-0.1,0.1
					c-0.1,0.1-0.2,0.1-0.4,0.2c-0.1,0-0.2,0.1-0.3,0.2c-0.2,0.1-0.4,0.2-0.5,0.3c-0.2,0.1-0.4,0.2-0.5,0.4c-0.1,0.1-0.3,0.2-0.4,0.3
					c-0.4,0.3-0.7,0.6-1.1,0.9v-3.3v-2.8c0-1.6,0.6-3.1,1.6-4.3c1.2-1.5,3.2-2.5,5.3-2.5h5.3c2.1,0,4.1,1,5.3,2.5
					c1,1.2,1.5,2.7,1.5,4.3v2.8v3.3c-0.3-0.3-0.7-0.6-1-0.9c-0.1-0.1-0.3-0.2-0.4-0.3c-0.2-0.1-0.3-0.2-0.5-0.4
					c-0.2-0.1-0.4-0.2-0.5-0.3c-0.1-0.1-0.2-0.1-0.2-0.2c-0.1-0.1-0.3-0.1-0.4-0.2c0,0-0.1,0-0.1-0.1c-0.1-0.1-0.3-0.1-0.4-0.2
					c-0.1-0.1-0.2-0.1-0.3-0.2"/>
				<path class="st24" d="M118.7,106.7C118.7,106.7,118.6,106.7,118.7,106.7c-0.3-0.1-0.5-0.1-0.7-0.1c0,0,0,0,0,0c0,0,0,0-0.1,0
					c0,0,0,0,0,0c0,0-0.1,0-0.1,0c-0.2,0-0.4,0-0.6,0c-0.1,0-0.3,0-0.4,0c-0.2,0-0.4,0-0.7,0s-0.4,0-0.7,0c-0.1,0-0.3,0-0.4,0
					c-0.2,0-0.4,0-0.6,0c0,0-0.1,0-0.1,0c0,0,0,0,0,0c0,0,0,0,0,0c0,0,0,0-0.1,0c-0.2,0-0.4,0.1-0.6,0.1c0,0-0.1,0-0.1,0"/>
				<path class="st24" d="M119.7,113.4c0.2,0.1,0.3,0.1,0.5,0.1c0.8,0,1.5-0.7,1.5-1.5v-4.3V105v-1c0-0.8-0.7-1.5-1.5-1.5
					s-1.5,0.7-1.5,1.5v0.2v2.5v0.3v5C118.7,112.7,119.1,113.2,119.7,113.4z"/>
				<path class="st24" d="M110.7,107.7v6.3c0,0.8,0.7,1.5,1.5,1.5c0.2,0,0.3,0,0.5-0.1c0.6-0.2,1-0.8,1-1.4v-7v-0.3v-2.5V104
					c0-0.8-0.7-1.5-1.5-1.5s-1.5,0.7-1.5,1.5v1V107.7z"/>
				<path class="st24" d="M119.7,115.8c-0.6,0.4-1,1-1,1.7s0.4,1.4,1,1.7c0.3,0.2,0.6,0.3,1,0.3c1.1,0,2-0.9,2-2s-0.9-2-2-2
					C120.3,115.5,120,115.6,119.7,115.8z"/>
				<circle class="st24" cx="112.7" cy="121.5" r="2"/>
			</g>
		</g>
	</g>
</g>
<g id="PURPLE" class="st0">
	<g class="st1">
		<g id="XMLID_55_">
			<g>
				<path class="st6" d="M127.5,108.6c2.9,2.9,4.7,6.9,4.7,11.4c0,7.6-5.4,14-12.5,15.6V133c5.8-1.5,10-6.8,10-13
					c0-3.8-1.5-7.2-4-9.6v-3.3C126.3,107.6,126.9,108.1,127.5,108.6z"/>
				<path class="st5" d="M125.7,110.4c2.5,2.4,4,5.8,4,9.6c0,6.2-4.2,11.5-10,13v-13.8c0.3,0.2,0.6,0.3,1,0.3c1.1,0,2-0.9,2-2
					s-0.9-2-2-2c-0.4,0-0.7,0.1-1,0.3v-2.4c0.2,0.1,0.3,0.1,0.5,0.1c0.8,0,1.5-0.7,1.5-1.5v-4.3c0.1,0.1,0.2,0.1,0.3,0.2
					c0.2,0.1,0.3,0.1,0.4,0.2c0,0,0.1,0,0.1,0.1c0.1,0.1,0.3,0.1,0.4,0.2c0.1,0,0.2,0.1,0.2,0.2c0.2,0.1,0.4,0.2,0.5,0.3
					c0.2,0.1,0.3,0.2,0.5,0.4c0.1,0.1,0.3,0.2,0.4,0.3C125,109.8,125.4,110.1,125.7,110.4z"/>
				<path class="st6" d="M125.7,107.1v3.3c-0.3-0.3-0.7-0.6-1-0.9c-0.1-0.1-0.3-0.2-0.4-0.3c-0.2-0.1-0.3-0.2-0.5-0.4
					c-0.2-0.1-0.4-0.2-0.5-0.3c-0.1-0.1-0.2-0.1-0.2-0.2c-0.1-0.1-0.3-0.2-0.4-0.2c0,0-0.1,0-0.1-0.1c-0.1-0.1-0.3-0.1-0.4-0.2
					c-0.1-0.1-0.2-0.1-0.3-0.2V105C123.1,105.5,124.5,106.2,125.7,107.1z"/>
				<path class="st6" d="M125.7,104.3v2.8c-1.2-0.9-2.6-1.6-4-2.2v-1c0-0.8-0.7-1.5-1.5-1.5s-1.5,0.7-1.5,1.5v0.2
					c-0.8-0.1-1.7-0.2-2.5-0.2s-1.7,0.1-2.5,0.2V104c0-0.8-0.7-1.5-1.5-1.5s-1.5,0.7-1.5,1.5v1c-1.4,0.5-2.8,1.2-4,2.2v-2.8
					c0-1.6,0.6-3.1,1.6-4.3c1.2-1.5,3.2-2.5,5.3-2.5h5.3c2.1,0,4.1,1,5.3,2.5C125.1,101.2,125.7,102.7,125.7,104.3z"/>
				<path class="st25" d="M123.7,108.8c-0.2-0.1-0.4-0.2-0.5-0.3C123.3,108.5,123.5,108.7,123.7,108.8z"/>
				<path class="st25" d="M122.9,108.3c-0.1-0.1-0.3-0.1-0.4-0.2C122.7,108.1,122.8,108.2,122.9,108.3z"/>
				<path class="st25" d="M122.4,108c-0.1-0.1-0.3-0.2-0.4-0.2C122.2,107.9,122.3,107.9,122.4,108z"/>
				<path class="st33" d="M120.7,115.5c1.1,0,2,0.9,2,2s-0.9,2-2,2c-0.4,0-0.7-0.1-1-0.3v-3.5C120,115.6,120.3,115.5,120.7,115.5z"
					/>
				<path class="st33" d="M121.7,107.7v4.3c0,0.8-0.7,1.5-1.5,1.5c-0.2,0-0.3,0-0.5-0.1V109c0-0.8-0.4-1.5-1-2v-0.3
					c0.8,0.2,1.6,0.4,2.4,0.7C121.3,107.5,121.4,107.6,121.7,107.7C121.6,107.6,121.7,107.7,121.7,107.7z"/>
				<path class="st33" d="M121.7,105v2.7c0,0-0.1,0-0.1,0c-0.2-0.1-0.3-0.1-0.5-0.2c-0.8-0.3-1.6-0.5-2.4-0.7v-2.5
					C119.7,104.4,120.7,104.6,121.7,105z"/>
				<path class="st33" d="M121.7,104v1c-1-0.3-2-0.6-3-0.8V104c0-0.8,0.7-1.5,1.5-1.5S121.7,103.2,121.7,104z"/>
				<polygon class="st33" points="120.7,149.5 120.7,152.5 111.7,152.5 111.7,149.5 112.7,149.5 119.7,149.5 				"/>
				<path class="st6" d="M116.2,136c1.2,0,2.4-0.1,3.5-0.4v13.9h-7v-13.9C113.8,135.9,115,136,116.2,136z"/>
				<path class="st6" d="M119.7,133v2.6c-1.1,0.2-2.3,0.4-3.5,0.4v-2.5C117.4,133.5,118.6,133.3,119.7,133z"/>
				<path class="st5" d="M119.7,119.2V133c-1.1,0.3-2.3,0.5-3.5,0.5s-2.4-0.2-3.5-0.5v-9.5c1.1,0,2-0.9,2-2s-0.9-2-2-2v-4.1
					c0.6-0.2,1-0.8,1-1.4v-7c0.2-0.2,0.5-0.3,0.7-0.4c0,0,0,0,0,0c0,0,0,0,0,0c0,0,0.1,0,0.1,0c0.2,0,0.4,0,0.6,0c0.1,0,0.3,0,0.4,0
					c0.2,0,0.4,0,0.7,0s0.4,0,0.7,0c0.1,0,0.3,0,0.4,0c0.2,0,0.4,0,0.6,0c0,0,0.1,0,0.1,0c0,0,0,0,0,0c0,0,0,0,0,0
					c0.3,0.1,0.5,0.2,0.7,0.4v5c0,0.7,0.4,1.2,1,1.4v2.4c-0.6,0.4-1,1-1,1.7S119.1,118.9,119.7,119.2z"/>
				<path class="st33" d="M119.7,115.8v3.5c-0.6-0.4-1-1-1-1.7S119.1,116.1,119.7,115.8z"/>
				<path class="st33" d="M119.7,109v4.4c-0.6-0.2-1-0.8-1-1.4v-5C119.3,107.5,119.7,108.2,119.7,109z"/>
				<path class="st25" d="M118.7,106.7v0.3c-0.2-0.2-0.5-0.3-0.7-0.4c0,0,0,0,0,0c0,0,0,0,0,0C118.2,106.7,118.4,106.7,118.7,106.7
					C118.6,106.7,118.7,106.7,118.7,106.7z"/>
				<path class="st6" d="M118.7,104.2v2.5c0,0,0,0-0.1,0c-0.2,0-0.4-0.1-0.6-0.1c0,0,0,0,0,0c0,0,0,0-0.1,0c0,0,0,0,0,0
					c-0.2-0.1-0.5-0.1-0.7-0.1h-1h-1c-0.3,0-0.5,0-0.7,0.1c0,0,0,0,0,0c0,0,0,0,0,0c0,0,0,0-0.1,0c-0.2,0-0.4,0.1-0.6,0.1
					c0,0-0.1,0-0.1,0v-2.5c0.8-0.1,1.7-0.2,2.5-0.2S117.9,104.1,118.7,104.2z"/>
				<path class="st25" d="M118.6,106.7c-0.2,0-0.4-0.1-0.6-0.1C118.2,106.7,118.4,106.7,118.6,106.7z"/>
				<path class="st25" d="M118,106.6C118,106.6,118,106.6,118,106.6C117.9,106.6,117.9,106.6,118,106.6
					C118,106.6,118,106.6,118,106.6z"/>
				<path class="st25" d="M117.9,106.6c0,0-0.1,0-0.1,0c-0.2,0-0.4,0-0.6,0c-0.1,0-0.3,0-0.4,0c-0.2,0-0.4,0-0.7,0h1
					C117.5,106.5,117.7,106.5,117.9,106.6z"/>
				<path class="st25" d="M117.8,106.6c-0.2,0-0.4,0-0.6,0C117.4,106.6,117.6,106.6,117.8,106.6z"/>
				<path class="st25" d="M116.8,106.5c-0.2,0-0.4,0-0.7,0C116.4,106.5,116.6,106.5,116.8,106.5z"/>
				<path class="st6" d="M116.2,133.5v2.5c-1.2,0-2.4-0.1-3.5-0.4V133C113.8,133.3,115,133.5,116.2,133.5z"/>
				<path class="st25" d="M116.2,106.5c-0.2,0-0.4,0-0.7,0C115.8,106.5,116,106.5,116.2,106.5z"/>
				<path class="st25" d="M115.2,106.5h1c-0.2,0-0.4,0-0.7,0C115.4,106.5,115.3,106.5,115.2,106.5c-0.2,0.1-0.4,0.1-0.6,0.1
					c0,0-0.1,0-0.1,0C114.7,106.5,114.9,106.5,115.2,106.5z"/>
				<path class="st25" d="M115.1,106.6c-0.2,0-0.4,0-0.6,0C114.8,106.6,114.9,106.6,115.1,106.6z"/>
				<path class="st25" d="M114.4,106.6C114.4,106.6,114.4,106.6,114.4,106.6C114.4,106.6,114.4,106.6,114.4,106.6
					C114.4,106.6,114.4,106.6,114.4,106.6z"/>
				<path class="st25" d="M114.4,106.6C114.4,106.6,114.4,106.6,114.4,106.6c-0.2,0.1-0.5,0.2-0.7,0.4v-0.3c0,0,0.1,0,0.1,0
					C114,106.7,114.2,106.7,114.4,106.6C114.4,106.6,114.4,106.6,114.4,106.6z"/>
				<path class="st25" d="M114.3,106.6c-0.2,0-0.4,0.1-0.6,0.1C114,106.7,114.2,106.7,114.3,106.6z"/>
				<path class="st33" d="M112.7,119.5c1.1,0,2,0.9,2,2s-0.9,2-2,2V119.5z"/>
				<path class="st33" d="M113.7,107v7c0,0.7-0.4,1.2-1,1.4V109C112.7,108.2,113.1,107.5,113.7,107z"/>
				<path class="st33" d="M113.7,106.7v0.3c-0.6,0.5-1,1.2-1,2v6.4c-0.2,0.1-0.3,0.1-0.5,0.1c-0.8,0-1.5-0.7-1.5-1.5v-6.3
					c0,0,0.1,0,0.1,0c0.2-0.1,0.3-0.1,0.5-0.2C112.1,107.1,112.9,106.9,113.7,106.7z"/>
				<path class="st33" d="M113.7,104.2v2.5c-0.8,0.2-1.6,0.4-2.4,0.7c-0.2,0.1-0.3,0.1-0.5,0.2c0,0-0.1,0-0.1,0V105
					C111.7,104.6,112.7,104.4,113.7,104.2z"/>
				<path class="st33" d="M113.7,104v0.2c-1,0.2-2,0.4-3,0.8v-1c0-0.8,0.7-1.5,1.5-1.5S113.7,103.2,113.7,104z"/>
				<path class="st6" d="M112.7,133v2.6c-7.2-1.6-12.5-8-12.5-15.6c0-4.4,1.8-8.5,4.7-11.4c0.5-0.5,1.1-1,1.8-1.5v3.3
					c-2.5,2.4-4,5.8-4,9.6C102.7,126.2,106.9,131.5,112.7,133z"/>
				<path class="st5" d="M112.7,123.5v9.5c-5.8-1.5-10-6.8-10-13c0-3.8,1.5-7.2,4-9.6c0.3-0.3,0.7-0.6,1.1-0.9
					c0.1-0.1,0.3-0.2,0.4-0.3c0.2-0.1,0.3-0.2,0.5-0.4c0.2-0.1,0.4-0.2,0.5-0.3c0.1-0.1,0.2-0.1,0.3-0.2c0.1-0.1,0.2-0.2,0.4-0.2
					c0,0,0.1,0,0.1-0.1c0.1-0.1,0.3-0.2,0.4-0.2c0.1-0.1,0.2-0.1,0.3-0.2v6.3c0,0.8,0.7,1.5,1.5,1.5c0.2,0,0.3,0,0.5-0.1v4.1
					c-1.1,0-2,0.9-2,2S111.6,123.5,112.7,123.5z"/>
				<path class="st33" d="M112.7,119.5v4c-1.1,0-2-0.9-2-2S111.6,119.5,112.7,119.5z"/>
				<path class="st6" d="M110.7,105v2.7c-0.1,0.1-0.2,0.1-0.3,0.2c-0.1,0.1-0.3,0.1-0.4,0.2c0,0,0,0-0.1,0.1
					c-0.1,0.1-0.3,0.1-0.4,0.2c-0.1,0-0.2,0.1-0.3,0.2c-0.2,0.1-0.4,0.2-0.5,0.3c-0.2,0.1-0.4,0.2-0.5,0.4c-0.1,0.1-0.3,0.2-0.4,0.3
					c-0.4,0.3-0.7,0.6-1.1,0.9v-3.3C107.9,106.2,109.3,105.5,110.7,105z"/>
				<path class="st25" d="M110.4,107.8c-0.2,0.1-0.3,0.1-0.4,0.2C110.1,107.9,110.2,107.9,110.4,107.8z"/>
				<path class="st25" d="M109.9,108.1c-0.1,0.1-0.2,0.1-0.4,0.2C109.6,108.2,109.7,108.1,109.9,108.1z"/>
				<path class="st25" d="M109.2,108.4c-0.2,0.1-0.4,0.2-0.5,0.3C108.9,108.7,109,108.5,109.2,108.4z"/>
			</g>
			<g>
				<line class="st24" x1="112.7" y1="149.5" x2="112.7" y2="135.6"/>
				<line class="st24" x1="119.7" y1="135.6" x2="119.7" y2="149.5"/>
				<line class="st24" x1="116.2" y1="145.5" x2="116.2" y2="136"/>
				<path class="st24" d="M106.7,107.1c-0.6,0.5-1.2,1-1.8,1.5c-2.9,2.9-4.7,6.9-4.7,11.4c0,7.6,5.3,14,12.5,15.6
					c1.1,0.2,2.3,0.4,3.5,0.4c1.2,0,2.4-0.1,3.5-0.4c7.2-1.6,12.5-8,12.5-15.6c0-4.4-1.8-8.5-4.7-11.4c-0.6-0.5-1.1-1-1.8-1.5"/>
				<path class="st24" d="M109.2,108.4c-0.2,0.1-0.4,0.2-0.5,0.3"/>
				<path class="st24" d="M110.4,107.8c-0.2,0.1-0.3,0.1-0.4,0.2"/>
				<path class="st24" d="M114.4,106.6C114.4,106.6,114.4,106.6,114.4,106.6C114.4,106.6,114.4,106.6,114.4,106.6"/>
				<path class="st24" d="M116.8,106.5c-0.2,0-0.4,0-0.7,0s-0.4,0-0.7,0"/>
				<path class="st24" d="M118,106.6C118,106.6,118,106.6,118,106.6C117.9,106.6,117.9,106.6,118,106.6"/>
				<path class="st24" d="M122.4,108c-0.1-0.1-0.3-0.2-0.4-0.2"/>
				<path class="st24" d="M123.7,108.8c-0.2-0.1-0.4-0.2-0.5-0.3"/>
				<path class="st24" d="M106.7,110.4c-2.5,2.4-4,5.8-4,9.6c0,6.2,4.2,11.5,10,13c1.1,0.3,2.3,0.5,3.5,0.5s2.4-0.2,3.5-0.5
					c5.8-1.5,10-6.8,10-13c0-3.8-1.5-7.2-4-9.6"/>
				<polygon class="st24" points="119.7,149.5 120.7,149.5 120.7,152.5 111.7,152.5 111.7,149.5 112.7,149.5 				"/>
				<path class="st24" d="M110.7,107.7c-0.1,0.1-0.2,0.1-0.3,0.2c-0.1,0.1-0.3,0.1-0.4,0.2c0,0,0,0-0.1,0.1
					c-0.1,0.1-0.2,0.1-0.4,0.2c-0.1,0-0.2,0.1-0.3,0.2c-0.2,0.1-0.4,0.2-0.5,0.3c-0.2,0.1-0.4,0.2-0.5,0.4c-0.1,0.1-0.3,0.2-0.4,0.3
					c-0.4,0.3-0.7,0.6-1.1,0.9v-3.3v-2.8c0-1.6,0.6-3.1,1.6-4.3c1.2-1.5,3.2-2.5,5.3-2.5h5.3c2.1,0,4.1,1,5.3,2.5
					c1,1.2,1.5,2.7,1.5,4.3v2.8v3.3c-0.3-0.3-0.7-0.6-1-0.9c-0.1-0.1-0.3-0.2-0.4-0.3c-0.2-0.1-0.3-0.2-0.5-0.4
					c-0.2-0.1-0.4-0.2-0.5-0.3c-0.1-0.1-0.2-0.1-0.2-0.2c-0.1-0.1-0.3-0.1-0.4-0.2c0,0-0.1,0-0.1-0.1c-0.1-0.1-0.3-0.1-0.4-0.2
					c-0.1-0.1-0.2-0.1-0.3-0.2"/>
				<path class="st24" d="M118.7,106.7C118.7,106.7,118.6,106.7,118.7,106.7c-0.3-0.1-0.5-0.1-0.7-0.1c0,0,0,0,0,0c0,0,0,0-0.1,0
					c0,0,0,0,0,0c0,0-0.1,0-0.1,0c-0.2,0-0.4,0-0.6,0c-0.1,0-0.3,0-0.4,0c-0.2,0-0.4,0-0.7,0s-0.4,0-0.7,0c-0.1,0-0.3,0-0.4,0
					c-0.2,0-0.4,0-0.6,0c0,0-0.1,0-0.1,0c0,0,0,0,0,0c0,0,0,0,0,0c0,0,0,0-0.1,0c-0.2,0-0.4,0.1-0.6,0.1c0,0-0.1,0-0.1,0"/>
				<path class="st24" d="M119.7,113.4c0.2,0.1,0.3,0.1,0.5,0.1c0.8,0,1.5-0.7,1.5-1.5v-4.3V105v-1c0-0.8-0.7-1.5-1.5-1.5
					s-1.5,0.7-1.5,1.5v0.2v2.5v0.3v5C118.7,112.7,119.1,113.2,119.7,113.4z"/>
				<path class="st24" d="M110.7,107.7v6.3c0,0.8,0.7,1.5,1.5,1.5c0.2,0,0.3,0,0.5-0.1c0.6-0.2,1-0.8,1-1.4v-7v-0.3v-2.5V104
					c0-0.8-0.7-1.5-1.5-1.5s-1.5,0.7-1.5,1.5v1V107.7z"/>
				<path class="st24" d="M119.7,115.8c-0.6,0.4-1,1-1,1.7s0.4,1.4,1,1.7c0.3,0.2,0.6,0.3,1,0.3c1.1,0,2-0.9,2-2s-0.9-2-2-2
					C120.3,115.5,120,115.6,119.7,115.8z"/>
				<circle class="st24" cx="112.7" cy="121.5" r="2"/>
			</g>
		</g>
	</g>
</g>
</svg>
