<svg xmlns="http://www.w3.org/2000/svg" viewBox="0 0 512 512"><defs><style>.cls-1{fill:#999;}.cls-2{fill:#ccc;}.cls-3{fill:#0ef9fd;}.cls-4{fill:#f44f2f;}.cls-5{fill:#6e706d;}.cls-6{fill:#f1552d;}.cls-7,.cls-8,.cls-9{fill:none;stroke:#000;stroke-miterlimit:10;}.cls-7,.cls-9{stroke-width:6px;}.cls-8,.cls-9{stroke-linecap:round;}.cls-8{stroke-width:4px;}</style></defs><g id="SS"><g id="S10"><path class="cls-1" d="M483.55,273.08c5.28,8.3-.16,19.52-10,20.09-.28,0-.56,0-.84,0H358.25A14.34,14.34,0,0,1,348.08,289l-.08-.07a32.94,32.94,0,0,0-23.43-10.09H307.81l-27.15-24.38h-60A204.52,204.52,0,0,0,255,141.05v-3l32.84,6.49a271.43,271.43,0,0,1,51.94,15.79l19.36,8.08c1.22.51,2.44,1,3.65,1.56a52.57,52.57,0,0,0,9.13,62.07l25.63,25.63a52.53,52.53,0,0,0,37.17,15.4Z"/><path class="cls-2" d="M483.55,273.08H434.74a52.53,52.53,0,0,1-37.17-15.4l-25.63-25.63A52.57,52.57,0,0,1,362.81,170c3.25,1.41,6.48,2.89,9.66,4.43A52.59,52.59,0,0,0,386.63,223l25.63,25.63A52.61,52.61,0,0,0,449.44,264h28.05Q480.61,268.46,483.55,273.08Z"/><path class="cls-3" d="M477.49,264H449.44a52.61,52.61,0,0,1-37.18-15.39L386.63,223a52.59,52.59,0,0,1-14.16-48.56A271.45,271.45,0,0,1,477.49,264Z"/><polygon class="cls-2" points="307.81 278.82 85.25 387.08 85.25 387.07 39.43 387.07 98.54 325.67 98.55 325.67 143.65 278.82 177.11 254.44 196.94 254.44 220.71 254.44 280.66 254.44 307.81 278.82"/><path class="cls-4" d="M255,138.06v3a204.52,204.52,0,0,1-34.31,113.39H196.94c1.45-1.81,2.85-3.65,4.23-5.52A204.55,204.55,0,0,0,241.1,135.31Z"/><path class="cls-1" d="M163.83,201.51a104.32,104.32,0,0,0-3.49-17.15,105.09,105.09,0,0,0-10.08-23.47h0l19.28-9.82L120,111.38,241.1,135.31a204.55,204.55,0,0,1-39.93,113.61c-1.38,1.87-2.78,3.71-4.23,5.52H177.11l-33.46,24.38,7.6-13.63q2.42-4.32,4.38-8.8a104.23,104.23,0,0,0,6.27-18.93,103.67,103.67,0,0,0,2.53-18.26A104.57,104.57,0,0,0,163.83,201.51Zm33-10.48a3.81,3.81,0,0,0,.13-1,4,4,0,0,0-7.95-1l-4.56,17.88a4,4,0,0,0,7.82,2Z"/><path class="cls-4" d="M196.94,190a3.81,3.81,0,0,1-.13,1l-4.56,17.88a4,4,0,0,1-7.82-2L189,189a4,4,0,0,1,7.95,1Z"/><path class="cls-1" d="M163.83,201.51a104.57,104.57,0,0,1,.6,17.69l-58.18,10.55V212Z"/><path class="cls-1" d="M106.25,229.75l58.18-10.55a103.67,103.67,0,0,1-2.53,18.26l-55.65,10.08Z"/><path class="cls-1" d="M163.83,201.51,106.25,212V194.16l54.09-9.8A104.32,104.32,0,0,1,163.83,201.51Z"/><path class="cls-1" d="M106.25,247.54l55.65-10.08a104.23,104.23,0,0,1-6.27,18.93h0l-49.37,8.95Z"/><path class="cls-1" d="M160.34,184.36l-54.09,9.8V183.32l44-22.44h0A105.09,105.09,0,0,1,160.34,184.36Z"/><path class="cls-1" d="M155.62,256.39h0q-2,4.47-4.38,8.8l-7.6,13.63h-37.4V265.34Z"/><polygon class="cls-5" points="106.25 265.34 106.25 278.82 83.13 278.82 83.13 195.1 106.25 183.32 106.25 194.16 106.25 211.95 106.25 229.75 106.25 247.54 106.25 265.34"/><polygon class="cls-6" points="85.25 387.07 85.25 387.08 57.41 400.62 26.39 400.62 39.43 387.07 85.25 387.07"/><path class="cls-5" d="M83.13,195.1v83.72a13.29,13.29,0,0,1-13.28-13.28V208.38a13.21,13.21,0,0,1,2.78-8.13A12.19,12.19,0,0,1,73.74,199,13.24,13.24,0,0,1,83.13,195.1Z"/><polyline class="cls-7" points="83.13 278.82 106.25 278.82 143.65 278.82"/><path class="cls-7" d="M307.81,278.82h16.76A32.94,32.94,0,0,1,348,288.91l.08.07a14.34,14.34,0,0,0,10.17,4.21H472.73c.28,0,.56,0,.84,0,9.82-.57,15.26-11.79,10-20.09q-2.94-4.62-6.06-9.09a271.45,271.45,0,0,0-105-89.58c-3.18-1.54-6.41-3-9.66-4.43-1.21-.53-2.43-1-3.65-1.56l-19.36-8.08a271.43,271.43,0,0,0-51.94-15.79L255,138.06l-13.92-2.75L120,111.38l49.59,39.68-19.28,9.82-44,22.44L83.13,195.1"/><polyline class="cls-8" points="204.53 135.23 148.19 124.1 197.79 163.77"/><path class="cls-7" d="M255,138.06v3a204.52,204.52,0,0,1-34.31,113.39"/><path class="cls-7" d="M196.94,254.44c1.45-1.81,2.85-3.65,4.23-5.52A204.55,204.55,0,0,0,241.1,135.31"/><path class="cls-7" d="M143.65,278.82l33.46-24.38H280.66l27.15,24.38L85.25,387.08,57.41,400.62h-31l13-13.55,59.11-61.4h0l45.1-46.85,7.6-13.63q2.42-4.32,4.38-8.8a104.23,104.23,0,0,0,6.27-18.93,103.67,103.67,0,0,0,2.53-18.26,105.35,105.35,0,0,0-14.17-58.31h0"/><polyline class="cls-7" points="106.25 183.32 106.25 194.16 106.25 211.95 106.25 229.75 106.25 247.54 106.25 265.34 106.25 278.82"/><path class="cls-7" d="M83.13,195.1v83.72a13.29,13.29,0,0,1-13.28-13.28V208.38a13.21,13.21,0,0,1,2.78-8.13A12.19,12.19,0,0,1,73.74,199,13.24,13.24,0,0,1,83.13,195.1Z"/><line class="cls-7" x1="160.34" y1="184.36" x2="106.25" y2="194.16"/><polyline class="cls-7" points="163.84 201.51 163.83 201.51 106.25 211.95"/><line class="cls-7" x1="164.43" y1="219.2" x2="106.25" y2="229.75"/><line class="cls-7" x1="69.85" y1="236.34" x2="69.34" y2="236.44"/><polyline class="cls-7" points="161.91 237.46 161.9 237.46 106.25 247.54"/><line class="cls-7" x1="155.62" y1="256.39" x2="106.25" y2="265.34"/><line class="cls-9" x1="39.43" y1="387.07" x2="85.25" y2="387.07"/><line class="cls-9" x1="85.78" y1="364.53" x2="210.61" y2="278.34"/><path class="cls-7" d="M483.55,273.08H434.74a52.53,52.53,0,0,1-37.17-15.4l-25.63-25.63A52.57,52.57,0,0,1,362.81,170"/><path class="cls-7" d="M372.47,174.41A52.59,52.59,0,0,0,386.63,223l25.63,25.63A52.61,52.61,0,0,0,449.44,264h28.05"/><line class="cls-9" x1="257.46" y1="219.2" x2="344.54" y2="219.2"/><path class="cls-7" d="M187.34,211.82a4,4,0,0,1-2.91-4.91L189,189a4,4,0,0,1,7.95,1,3.81,3.81,0,0,1-.13,1l-4.56,17.88A4,4,0,0,1,187.34,211.82Z"/></g></g></svg>