<svg xmlns="http://www.w3.org/2000/svg" viewBox="0 0 512 512"><defs><style>.cls-1{fill:#2eef7c;}.cls-2{fill:#ccc;}.cls-3{fill:#52c0d7;}.cls-4{fill:#30f259;}.cls-5{fill:none;stroke:#000;stroke-miterlimit:10;stroke-width:12px;}</style></defs><g id="Logos"><g id="_2" data-name="2"><path class="cls-1" d="M358.38,136.38C421.83,162.53,463.86,230,463,304.3l-.53,45.09-30.13-30.7a71.83,71.83,0,0,0-17.66-13.24c-2-1.07-4.1-2.05-6.2-2.93-13.55-5.59-37-6.56-52.17-2.88q.92-9,1.16-18.17a82.83,82.83,0,0,1,57.46,2.35q3.94,1.64,7.68,3.62A90,90,0,0,1,444.75,304C445.51,239.8,410,179,352,155.1a135,135,0,0,0-13.6-4.78l-7.14-10.44-7.77-11.36C332,130.38,350.23,133,358.38,136.38Z"/><path class="cls-2" d="M352,155.1C410,179,445.51,239.8,444.75,304a90,90,0,0,0-22.15-16.6q-3.74-2-7.68-3.62a82.83,82.83,0,0,0-57.46-2.35q.24-8.87-.17-17.81c-.1-2.25-.24-4.51-.41-6.76l21.52-48-40-58.54A135,135,0,0,1,352,155.1Z"/><path class="cls-3" d="M338.36,150.32l40,58.54-21.52,48L296.74,391.16,268.4,454.41,256,482.1l-12.4-27.68-28.34-63.27h0L155.11,256.88l-21.51-48,40-58.54,7.14-10.44,7.92-11.39-.15,0L256,29.9l67.45,98.62-.15,0,7.92,11.39ZM331.87,213,256,102.09,180.13,213,256,382.41Z"/><path class="cls-1" d="M357.29,263.66q.4,8.94.17,17.81-.24,9.15-1.16,18.17c-4.71,46.61-22.59,89.94-50.48,121-1-2.13-2-4.28-2.89-6.48a99.54,99.54,0,0,1-6.19-23L356.88,256.9C357.05,259.15,357.19,261.41,357.29,263.66Z"/><polygon class="cls-4" points="256 102.09 331.87 213.03 256 382.41 180.13 213.03 256 102.09"/><path class="cls-2" d="M306.73,422.43a99.44,99.44,0,0,0,28.4,33.85,156,156,0,0,1-66.73-1.87l28.34-63.25a99.54,99.54,0,0,0,6.19,23c.89,2.2,1.85,4.35,2.89,6.48C306.11,421.21,306.42,421.82,306.73,422.43Z"/><path class="cls-2" d="M215.26,391.15l28.34,63.27a156.07,156.07,0,0,1-66.72,1.86,99.49,99.49,0,0,0,28.38-33.85c.31-.61.62-1.22.91-1.83,1-2.13,2-4.28,2.88-6.48A99.66,99.66,0,0,0,215.26,391.15Z"/><path class="cls-1" d="M215.26,391.14h0a99.66,99.66,0,0,1-6.21,23c-.88,2.2-1.84,4.35-2.88,6.48-27.89-31-45.78-74.36-50.48-121q-.91-9-1.16-18.16c-.18-6.83-.08-13.71.31-20.6q.12-2,.27-4Z"/><path class="cls-1" d="M188.55,128.52l-7.77,11.36-7.14,10.44A134.35,134.35,0,0,0,160,155.1C102,179,66.49,239.8,67.25,304a90,90,0,0,1,22.14-16.6c2.49-1.32,5.06-2.53,7.69-3.62a82.8,82.8,0,0,1,57.45-2.35q.24,9.15,1.16,18.16c-15.2-3.67-38.62-2.69-52.19,2.91-2.09.87-4.18,1.85-6.17,2.9a71.85,71.85,0,0,0-17.65,13.24L49.54,349.43,49,304.3C48.14,230,90.17,162.53,153.61,136.38,161.75,133,180,130.38,188.55,128.52Z"/><path class="cls-2" d="M173.64,150.32l-40,58.54,21.51,48q-.15,2-.27,4c-.39,6.89-.49,13.77-.31,20.6a82.8,82.8,0,0,0-57.45,2.35c-2.63,1.09-5.2,2.3-7.69,3.62A90,90,0,0,0,67.25,304C66.49,239.8,102,179,160,155.1A134.35,134.35,0,0,1,173.64,150.32Z"/><path class="cls-5" d="M206.17,420.6c-27.89-31-45.78-74.36-50.48-121q-.91-9-1.16-18.16c-.18-6.83-.08-13.71.31-20.6q.12-2,.27-4"/><path class="cls-5" d="M356.88,256.9c.17,2.25.31,4.51.41,6.76q.4,8.94.17,17.81-.24,9.15-1.16,18.17c-4.71,46.61-22.59,89.94-50.48,121"/><path class="cls-5" d="M215.26,391.15a99.66,99.66,0,0,1-6.21,23c-.88,2.2-1.84,4.35-2.88,6.48-.29.61-.6,1.22-.91,1.83a99.49,99.49,0,0,1-28.38,33.85,156.07,156.07,0,0,0,66.72-1.86"/><path class="cls-5" d="M356.3,299.64c15.21-3.68,38.62-2.71,52.17,2.88,2.1.88,4.18,1.86,6.2,2.93a71.83,71.83,0,0,1,17.66,13.24l30.13,30.7L463,304.3c.87-74.29-41.16-141.77-104.61-167.92-8.15-3.36-26.43-6-34.93-7.86l-.15,0,7.92,11.39"/><path class="cls-5" d="M338.36,150.32A135,135,0,0,1,352,155.1C410,179,445.51,239.8,444.75,304a90,90,0,0,0-22.15-16.6q-3.74-2-7.68-3.62a82.83,82.83,0,0,0-57.46-2.35"/><path class="cls-5" d="M180.78,139.88l7.92-11.39-.15,0c-8.52,1.86-26.8,4.5-34.94,7.86C90.17,162.53,48.14,230,49,304.3l.53,45.13,30.14-30.75a71.85,71.85,0,0,1,17.65-13.24c2-1.05,4.08-2,6.17-2.9,13.57-5.6,37-6.58,52.19-2.91"/><path class="cls-5" d="M154.53,281.47a82.8,82.8,0,0,0-57.45,2.35c-2.63,1.09-5.2,2.3-7.69,3.62A90,90,0,0,0,67.25,304C66.49,239.8,102,179,160,155.1a134.35,134.35,0,0,1,13.61-4.78"/><path class="cls-5" d="M296.74,391.16a99.54,99.54,0,0,0,6.19,23c.89,2.2,1.85,4.35,2.89,6.48.29.61.6,1.22.91,1.83a99.44,99.44,0,0,0,28.4,33.85,156,156,0,0,1-66.73-1.87"/><polygon class="cls-5" points="268.4 454.41 256 482.1 243.6 454.42 215.26 391.15 215.26 391.14 155.11 256.88 133.6 208.86 173.64 150.32 180.78 139.88 188.55 128.52 256 29.9 323.45 128.52 331.22 139.88 338.36 150.32 378.4 208.86 356.88 256.9 296.74 391.16 268.4 454.41"/><polygon class="cls-5" points="180.13 213.03 256 102.09 331.87 213.03 256 382.41 180.13 213.03"/></g></g></svg>