<svg id="Thruster_Red" data-name="Thruster Red" xmlns="http://www.w3.org/2000/svg" viewBox="0 0 512 512"><defs><style>.cls-1,.cls-2{fill:#eeda03;}.cls-2,.cls-4,.cls-6{opacity:0.5;}.cls-3,.cls-4{fill:#f66e00;}.cls-5,.cls-6{fill:#f81900;}</style></defs><g id="_4" data-name="4"><path class="cls-1" d="M436.36,256a69.85,69.85,0,0,1-18.12,48.9c-10.89,12.07-25,19.4-38.58,20.73q-10.49,1-20.88,1.83a350.46,350.46,0,0,1-78-3.06c-10.61-1.52-21-3.46-31.35-5.69-2.72-.58-5.45-1.19-8.15-1.83-36.24-8.37-71.72-20-109.27-31,10.79-2.88,22.76-6.5,35.3-10.7-12.39-3.65-24.82-7.16-37.19-10.4s-24.66-6.2-36.68-8.75c24.07-5.11,49.12-11.85,73.87-19.16-12.54-4.2-24.51-7.82-35.3-10.7,37.52-11,73-22.62,109.18-31,13-3,26.15-5.6,39.59-7.56a351,351,0,0,1,78-3.06q10.38.79,20.87,1.84c13.58,1.32,27.7,8.65,38.58,20.72A69.81,69.81,0,0,1,436.36,256Z"/><path class="cls-2" d="M241.27,316.87c-2.89-.58-5.75-1.17-8.63-1.79-39.11-8.45-77.32-20.8-118.09-32.1,10.44-2.43,22.16-5.6,34.54-9.38-12.48-3.44-25-6.72-37.41-9.7s-24.75-5.65-36.77-7.9c24.07-4.5,49.26-10.72,74.18-17.61-12.38-3.78-24.1-6.95-34.54-9.37,43.73-12.12,84.46-25.46,126.63-33.87-36.22,8.37-71.66,20-109.18,31,10.79,2.88,22.76,6.5,35.3,10.7-24.75,7.31-49.8,14-73.87,19.16,12,2.55,24.31,5.51,36.68,8.75s24.8,6.75,37.19,10.4c-12.54,4.2-24.51,7.82-35.3,10.7C169.55,296.84,205,308.5,241.27,316.87Z"/><path class="cls-3" d="M436.35,256a69.79,69.79,0,0,1-18.1,48.9c-10.91,12.09-25,19.38-38.6,20.75q-10.48,1-20.87,1.83a353.34,353.34,0,0,1-78-3.06c-1.63-.35-3.32-.66-4.95-1-1.3-.28-2.57-.54-3.86-.86l-1.1-.23c-32.3-7.32-63.39-18.47-96-29.9,10.23-4.22,21.18-9,32.48-14.19-10.62-3.92-21.24-7.8-31.89-11.53s-21.25-7.36-31.7-10.69c20.93-6.67,42.41-14.4,63.59-22.23-11.3-5.21-22.25-10-32.48-14.19,32.63-11.43,63.58-22.6,95.9-29.88l1.18-.25c2.92-.66,5.86-1.29,8.81-1.87a353.87,353.87,0,0,1,78-3.07q10.39.8,20.87,1.84c13.59,1.31,27.7,8.65,38.6,20.74A69.84,69.84,0,0,1,436.35,256Z"/><path class="cls-4" d="M270.87,322.31c-1.26-.27-2.58-.51-3.84-.78-34.13-7.26-66.82-18.86-101.29-30.6,10-4,20.87-8.52,32.09-13.51-10.66-3.81-21.32-7.57-32-11.17s-21.29-7.08-31.74-10.25c20.93-6.35,42.48-13.81,63.74-21.43-11.22-5-22-9.53-32.09-13.5,35.78-12.18,69.52-24.19,105.05-31.37-32.32,7.28-63.27,18.44-95.9,29.88,10.23,4.22,21.18,9,32.48,14.19-21.18,7.83-42.66,15.56-63.59,22.23,10.45,3.33,21.05,6.94,31.7,10.69s21.27,7.61,31.89,11.53c-11.3,5.21-22.25,10-32.48,14.19C207.48,303.84,238.57,315,270.87,322.31Z"/><path class="cls-5" d="M436.35,256a69.79,69.79,0,0,1-18.1,48.9,36.55,36.55,0,0,1-13.39,5.3q-7.32,1.26-14.61,2.4c-6.82,1.08-13.63,1.79-20.32,2.28-.13,0-.27,0-.4,0a262.08,262.08,0,0,1-57.74-2.79c-28.38-4.4-55.49-12.65-82.88-22.09,8.82-4.58,17.86-9.34,27-14.27-16.87-6.44-33.7-13.22-50.36-19.72,16.66-6.51,33.48-13.29,50.36-19.73q-13.78-7.4-27-14.27c45.34-15.63,90.1-28.13,140.62-24.89.13,0,.28,0,.41,0,6.68.5,13.49,1.2,20.32,2.28q7.29,1.14,14.61,2.41a36.24,36.24,0,0,1,13.38,5.29A69.84,69.84,0,0,1,436.35,256Z"/><path class="cls-6" d="M311.79,312.08a262.08,262.08,0,0,0,57.74,2.79,251.07,251.07,0,0,1-68-2.13c-28.25-4.58-55.22-13-82.59-22.63,8.76-4.54,17.76-9.3,26.92-14.21C229,269.32,212.15,262.51,195.5,256c16.65-6.52,33.51-13.33,50.37-19.91-9.16-4.91-18.16-9.67-26.92-14.21,48.37-16.93,95.87-30.53,150.57-24.77C319,193.87,274.24,206.37,228.9,222q13.24,6.87,27,14.27c-16.88,6.44-33.7,13.22-50.36,19.73,16.66,6.5,33.49,13.28,50.36,19.72-9.18,4.93-18.22,9.69-27,14.27C256.3,299.43,283.41,307.68,311.79,312.08Z"/></g></svg>