<svg xmlns="http://www.w3.org/2000/svg" viewBox="0 0 512 512"><defs><style>.cls-1{fill:#30f259;}.cls-2{fill:#2eef7c;}.cls-3{fill:#52c0d7;}.cls-4{fill:#0ef9fd;}.cls-5{fill:#999;}.cls-6{fill:#6e706d;}.cls-7{fill:#ccc;}.cls-8{fill:none;stroke:#000;stroke-miterlimit:10;stroke-width:6px;}</style></defs><g id="SS"><g id="S1"><path class="cls-1" d="M480.9,196.53H408.55V179.76h55.57A16.78,16.78,0,0,1,480.9,196.53Z"/><polygon class="cls-2" points="473.67 270.31 473.67 285.44 408.54 311.99 408.54 299.62 473.67 270.31"/><polygon class="cls-3" points="473.67 196.53 473.67 270.31 408.54 299.62 408.54 225.84 473.67 196.53"/><polygon class="cls-4" points="473.67 196.53 408.54 225.84 408.54 196.53 408.54 179.75 408.55 179.75 408.55 196.53 473.67 196.53"/><path class="cls-5" d="M408.54,299.61V312H119.48L70.78,179.76H408.54V299.61Zm-44.26-32.94v-49c0-.19,0-.36,0-.56a9.86,9.86,0,0,0-9.83-9.28,28.79,28.79,0,0,0-19.52,7.59H127.1a7.61,7.61,0,0,0-7.62,7.63v11.52a7.62,7.62,0,0,0,7.62,7.62l36.83,26.77h10.46v13.61a8.25,8.25,0,0,0,8.24,8.25h37.89a8.25,8.25,0,0,0,8.24-8.25V268.92h23.08v13.61a8.25,8.25,0,0,0,8.24,8.25H298a8.25,8.25,0,0,0,8.24-8.25V268.92h28.7a28.84,28.84,0,0,0,19.53,7.59,9.84,9.84,0,0,0,9.83-9.27C364.27,267,364.28,266.86,364.28,266.67Z"/><path class="cls-1" d="M408.54,179.76H70.78a12.08,12.08,0,0,1,12.09-12.08H396.46a12.07,12.07,0,0,1,12.08,12.08Z"/><polygon class="cls-2" points="408.54 311.99 354.44 344.32 257.06 344.32 119.48 311.99 408.54 311.99"/><path class="cls-6" d="M364.28,254.69v12c0,.19,0,.37,0,.57l-.07,0h-9.76V254.69Z"/><rect class="cls-6" x="354.44" y="242.15" width="9.84" height="12.54"/><rect class="cls-6" x="354.44" y="229.62" width="9.84" height="12.53"/><path class="cls-6" d="M364.28,217.63v12h-9.84V217.09h9.76l.07,0C364.27,217.27,364.28,217.44,364.28,217.63Z"/><path class="cls-6" d="M364.27,217.07l-.07,0h-9.76v-9.3a9.86,9.86,0,0,1,9.83,9.28Z"/><path class="cls-6" d="M364.2,267.22l.07,0a9.84,9.84,0,0,1-9.83,9.27v-9.29Z"/><path class="cls-2" d="M354.44,268.92v7.59a29,29,0,0,1-28.94-28.94V236.73a29,29,0,0,1,28.94-28.94v61.13Z"/><path class="cls-7" d="M273.94,215.38h61a28.82,28.82,0,0,0-9.42,21.35v10.84a28.82,28.82,0,0,0,9.41,21.35H269.75V215.38Z"/><polygon class="cls-2" points="306.21 268.93 306.21 282.54 251.84 282.54 251.84 268.93 269.75 268.93 306.21 268.93"/><path class="cls-6" d="M251.84,282.53h54.37a8.25,8.25,0,0,1-8.24,8.25H260.08A8.25,8.25,0,0,1,251.84,282.53Z"/><polygon class="cls-1" points="269.75 215.38 269.75 268.93 251.84 268.93 228.76 268.93 225.07 268.93 199.02 242.16 225.07 215.38 269.75 215.38"/><polygon class="cls-2" points="228.76 268.93 228.76 282.54 174.39 282.54 174.39 268.93 225.07 268.93 228.76 268.93"/><path class="cls-6" d="M174.39,282.53h54.37a8.25,8.25,0,0,1-8.24,8.25H182.63A8.25,8.25,0,0,1,174.39,282.53Z"/><polygon class="cls-7" points="225.07 215.38 199.02 242.16 127.1 242.16 127.1 215.38 225.07 215.38"/><polygon class="cls-7" points="199.02 242.16 225.07 268.93 174.39 268.93 163.93 268.93 127.1 242.16 199.02 242.16"/><path class="cls-6" d="M127.1,215.38v26.77a7.62,7.62,0,0,1-7.62-7.62V223a7.61,7.61,0,0,1,7.62-7.63Z"/><polygon class="cls-6" points="70.78 179.75 119.48 311.99 95.13 311.99 60.18 217.09 46.44 217.09 31.1 179.75 46.44 179.75 70.78 179.75"/><polyline class="cls-8" points="269.75 215.38 273.94 215.38 334.92 215.38"/><line class="cls-8" x1="127.1" y1="215.38" x2="225.07" y2="215.38"/><polyline class="cls-8" points="174.39 268.93 163.93 268.93 127.1 242.16"/><polyline class="cls-8" points="334.91 268.93 311.47 268.93 306.21 268.93"/><line class="cls-8" x1="228.76" y1="268.92" x2="228.76" y2="282.53"/><polyline class="cls-8" points="174.39 282.54 174.39 268.93 225.07 268.93"/><polyline class="cls-8" points="269.75 268.93 306.21 268.93 306.21 282.54"/><line class="cls-8" x1="251.84" y1="282.53" x2="251.84" y2="268.92"/><path class="cls-8" d="M354.44,207.79a9.86,9.86,0,0,1,9.83,9.28c0,.2,0,.37,0,.56v49c0,.19,0,.37,0,.57a9.84,9.84,0,0,1-9.83,9.27"/><line class="cls-8" x1="364.28" y1="229.62" x2="354.44" y2="229.62"/><line class="cls-8" x1="364.28" y1="242.15" x2="354.44" y2="242.15"/><line class="cls-8" x1="364.28" y1="254.69" x2="354.44" y2="254.69"/><line class="cls-8" x1="364.2" y1="267.22" x2="354.44" y2="267.22"/><line class="cls-8" x1="364.2" y1="217.09" x2="354.44" y2="217.09"/><polygon class="cls-8" points="269.75 268.93 251.84 268.93 228.76 268.93 225.07 268.93 199.02 242.16 225.07 215.38 269.75 215.38 269.75 268.93"/><path class="cls-8" d="M354.44,276.51a29,29,0,0,1-28.94-28.94V236.73a29,29,0,0,1,28.94-28.94v68.72Z"/><path class="cls-8" d="M228.76,282.53a8.25,8.25,0,0,1-8.24,8.25H182.63a8.25,8.25,0,0,1-8.24-8.25Z"/><path class="cls-8" d="M306.21,282.53a8.25,8.25,0,0,1-8.24,8.25H260.08a8.25,8.25,0,0,1-8.24-8.25Z"/><line class="cls-8" x1="199.02" y1="242.15" x2="127.1" y2="242.15"/><polyline class="cls-8" points="70.78 179.75 119.48 311.99 95.13 311.99 60.18 217.09 46.44 217.09 31.1 179.75 46.44 179.75"/><line class="cls-8" x1="70.78" y1="179.76" x2="46.44" y2="179.76"/><polyline class="cls-8" points="473.67 196.53 473.67 270.31 473.67 285.44 408.54 311.99 408.54 299.62 408.54 225.84 408.54 196.53 408.54 179.75 408.55 179.75"/><path class="cls-8" d="M408.55,179.76h55.57a16.78,16.78,0,0,1,16.78,16.77H408.55Z"/><line class="cls-8" x1="408.54" y1="225.85" x2="473.67" y2="196.53"/><line class="cls-8" x1="408.54" y1="299.61" x2="473.67" y2="270.31"/><path class="cls-8" d="M408.54,179.76a12.07,12.07,0,0,0-12.08-12.08H82.87a12.08,12.08,0,0,0-12.09,12.08Z"/><polygon class="cls-8" points="408.54 311.99 354.44 344.32 257.06 344.32 119.48 311.99 408.54 311.99"/><path class="cls-8" d="M127.1,242.15V215.38a7.61,7.61,0,0,0-7.62,7.63v11.52A7.62,7.62,0,0,0,127.1,242.15Z"/></g></g></svg>