<svg id="Слой_1" data-name="Слой 1" xmlns="http://www.w3.org/2000/svg" viewBox="0 0 256 256"><defs><style>.cls-1{fill:#6fe500;}.cls-2{fill:#b7ff64;}.cls-3{fill:#f2ffee;}</style></defs><g id="_3" data-name="3"><path class="cls-1" d="M239.13,128c0,3.74-2.32,7.29-6.51,10.49a48.21,48.21,0,0,1-11.44,6.18,95,95,0,0,1-12,3.85h0a156.14,156.14,0,0,1-18.82,3.52c-1.75.22-3.54.41-5.35.59h0a108.1,108.1,0,0,0-15.35,3.18c-2.36.68-4.69,1.43-6.93,2.24s-4.57,1.74-6.77,2.71l-.92.41h0c-.7.32-1.4.64-2.1,1l-13.72,6.58,7.51-13.32a149.09,149.09,0,0,0-38,12.21l9.52-16.82-37.5,2.46,8.47-2.92-26.78,1.77L98.4,139.67A401.76,401.76,0,0,1,16.87,128a400,400,0,0,1,48.25-9q16.57-2,33.28-2.7L62.33,103.88l26.78,1.76-8.47-2.92,37.5,2.47-9.52-16.83a147.2,147.2,0,0,0,23.24,8.8,147.3,147.3,0,0,0,14.79,3.41l-7.51-13.33,13.72,6.59,1.74.82,1.29.57c2.19,1,4.46,1.88,6.76,2.71s4.58,1.57,6.94,2.24a109,109,0,0,0,15.35,3.19h0c1.83.17,3.63.38,5.39.6a154.46,154.46,0,0,1,18.81,3.51h0a95,95,0,0,1,12,3.85,48.93,48.93,0,0,1,11.44,6.18C236.81,120.72,239.13,124.27,239.13,128Z"/><path class="cls-2" d="M239.13,128c0,3.74-2.32,7.29-6.51,10.49a48.21,48.21,0,0,1-11.44,6.18,95,95,0,0,1-12,3.85h0a160.64,160.64,0,0,1-16.15.81c-1,0-1.91,0-2.87,0l-3.28.36a110.29,110.29,0,0,0-18,3.54c-2.41.69-4.81,1.47-7.12,2.3s-4.68,1.79-6.93,2.78l-.4.18h0c-.91.4-1.8.81-2.71,1.24l-5.87,2.83,3.84-6.81,5.71-10.1-54.55,3.59,31.78-11A305.54,305.54,0,0,1,81.19,130l-8-2,8-2a306.41,306.41,0,0,1,36.58-6.8c4.9-.6,9.85-1.09,14.8-1.46l-31.77-11,54.55,3.59-5.71-10.09-3.84-6.81,5.87,2.82,1.82.85,1.3.58c2.25,1,4.58,1.92,6.93,2.77s4.7,1.61,7.12,2.31a111.24,111.24,0,0,0,18,3.53l3.27.36c1,0,1.91,0,2.87,0a160.67,160.67,0,0,1,16.15.8h0a95,95,0,0,1,12,3.85,48.93,48.93,0,0,1,11.44,6.18C236.81,120.72,239.13,124.27,239.13,128Z"/><path class="cls-3" d="M239.13,128c0,3.74-2.32,7.29-6.51,10.49a48.21,48.21,0,0,1-11.44,6.18A144.41,144.41,0,0,1,193,147.3c-1.2,0-2.4,0-3.6-.05l.32.05-3.09.33a112.15,112.15,0,0,0-18.35,3.61q-3.66,1-7.26,2.34c-2.38.86-4.74,1.81-7.06,2.83h0c-1.07.47-2.11,1-3.17,1.45l.64-1.12,1.27-2.24L159,143.34h0l-43.07,2.83,27.16-9.38A302.45,302.45,0,0,1,81.69,128,303.35,303.35,0,0,1,118,121.26q12.47-1.55,25.05-2l-27.16-9.38L159,112.68h0l-6.32-11.15-1.27-2.24-.64-1.13c1.06.51,2.1,1,3.17,1.45,0,0,0,0,0,0,2.32,1,4.68,2,7.06,2.83s4.82,1.65,7.26,2.35a111.08,111.08,0,0,0,18.35,3.6l3.09.34-.32,0c1.2,0,2.4,0,3.6,0a145.23,145.23,0,0,1,28.18,2.61,48.93,48.93,0,0,1,11.44,6.18C236.81,120.72,239.13,124.27,239.13,128Z"/></g></svg>