<svg id="Слой_1" data-name="Слой 1" xmlns="http://www.w3.org/2000/svg" viewBox="0 0 256 256"><defs><style>.cls-1{fill:#f9d500;}.cls-2{fill:#fc9500;}.cls-3{fill:#d10000;}</style></defs><g id="_4" data-name="4"><path class="cls-1" d="M192.2,128a18.49,18.49,0,0,1-1,6,.05.05,0,0,1,0,0A18.46,18.46,0,0,1,179,145.72a18.14,18.14,0,0,1-5.24.76,300.28,300.28,0,0,1-74.65-9.43L63.8,128l35.27-9a300.61,300.61,0,0,1,74.65-9.43,18.14,18.14,0,0,1,5.24.76,18.37,18.37,0,0,1,6.07,3.1,18.58,18.58,0,0,1,1.76,1.55,18.77,18.77,0,0,1,2.55,3.2,18,18,0,0,1,1.82,3.8,18.34,18.34,0,0,1,1,4.71A12.26,12.26,0,0,1,192.2,128Z"/><path class="cls-2" d="M192.2,128a18.49,18.49,0,0,1-1,6,.05.05,0,0,1,0,0,18.52,18.52,0,0,1-6.15,8.58h0a11.32,11.32,0,0,1-5,.85,329.66,329.66,0,0,1-58.66-7.74L87.08,128l34.29-7.73a328.07,328.07,0,0,1,36-6q11.44-1.26,23-1.74a10.81,10.81,0,0,1,4.63.86h0a18.58,18.58,0,0,1,1.76,1.55,18.77,18.77,0,0,1,2.55,3.2,18,18,0,0,1,1.82,3.8,18.34,18.34,0,0,1,1,4.71A12.26,12.26,0,0,1,192.2,128Z"/><path class="cls-3" d="M192.2,128a18.49,18.49,0,0,1-1,6,.05.05,0,0,1,0,0,18.52,18.52,0,0,1-1.84,3.83,13.53,13.53,0,0,1-2.31,1.66,13.08,13.08,0,0,1-6.52,1.72A215.31,215.31,0,0,1,127,134.49L101.77,128,127,121.51a216,216,0,0,1,53.48-6.75,13,13,0,0,1,6.57,1.75h0a12.72,12.72,0,0,1,2.24,1.61,18,18,0,0,1,1.82,3.8,18.34,18.34,0,0,1,1,4.71A12.26,12.26,0,0,1,192.2,128Z"/></g></svg>