<svg xmlns="http://www.w3.org/2000/svg" viewBox="0 0 1024 1024"><defs><style>.cls-1{fill:#ccc;}.cls-2{fill:#0ef9fd;}.cls-3{fill:#52c0d7;}.cls-4{fill:#f1552d;}.cls-5{fill:#f44f2f;}.cls-6{fill:#999;}.cls-7{fill:#6e706d;}.cls-8{fill:none;stroke:#000;stroke-miterlimit:10;stroke-width:7px;}</style></defs><g id="SS"><g id="L2"><path class="cls-1" d="M996.75,493.83q.33,9,.33,18.17t-.33,18.17c-.47,13.3-1.48,26.32-3,39C979.59,690.69,921,781.73,851,781.73V648.39h8.91a55.77,55.77,0,0,0,51.85-76.21,60,60,0,0,0,.2-117.12,55.73,55.73,0,0,0-52-75.69H851V242.27c70.06,0,128.62,91,142.82,212.55C995.27,467.51,996.28,480.53,996.75,493.83ZM904.84,314.91a15.79,15.79,0,1,0-15.79,15.79A15.79,15.79,0,0,0,904.84,314.91Zm0,394.19a15.79,15.79,0,1,0-15.79,15.79A15.79,15.79,0,0,0,904.84,709.1Z"/><path class="cls-2" d="M911.93,455.06a60,60,0,0,1,46.78,58.54H851V445.36l57,8.95Q910,454.63,911.93,455.06Z"/><path class="cls-2" d="M851,513.6H958.71a60,60,0,0,1-47,58.58h0L851,585.69V513.6Z"/><path class="cls-3" d="M915.61,435.09a55.59,55.59,0,0,1-3.68,20q-1.93-.44-3.93-.75l-57-8.95v-66h8.91a55.7,55.7,0,0,1,55.73,55.72Z"/><path class="cls-3" d="M911.73,572.18a55.73,55.73,0,0,1-51.85,76.21H851v-62.7l60.75-13.51Z"/><circle class="cls-4" cx="889.05" cy="314.91" r="15.79"/><circle class="cls-4" cx="889.05" cy="709.1" r="15.79"/><polygon class="cls-5" points="850.97 710.06 850.97 737.15 729.48 781.73 587.93 662.84 631.11 662.84 732.85 748.29 850.97 710.06"/><polygon class="cls-1" points="850.97 662.84 850.97 710.06 732.85 748.29 631.11 662.84 850.97 662.84"/><path class="cls-6" d="M851,648.39v14.45H436.34l11.86-42.31,10.91-38.91,4.21-15L485.65,487,498.9,439.7l1.16-4.15,14.51-51.76,171.18-33.07h0L765,335.4,851,318.81V466H717.17a98,98,0,1,0,0,99H851v83.34Z"/><path class="cls-1" d="M851,536.93v28.12H717.17a98,98,0,1,1,0-99H851v70.93Zm-52-4.72V498.84A11.88,11.88,0,0,0,787.07,487h-.76a11.88,11.88,0,0,0-11.88,11.88v33.37a11.88,11.88,0,0,0,11.88,11.88h.76A11.88,11.88,0,0,0,799,532.21ZM644.28,501.34H692.1a61.13,61.13,0,0,0-118.92,0H621V548H580.84a61.12,61.12,0,0,0,103.61,0H644.28Z"/><rect class="cls-4" x="774.43" y="486.96" width="24.52" height="57.13" rx="11.88"/><polygon class="cls-5" points="765.04 335.4 685.77 350.72 685.76 350.72 685.75 350.72 508.46 327 496.22 387.33 466.09 393.15 485.38 298 765.04 335.4"/><path class="cls-4" d="M692.1,501.34H644.28V548h40.17a61.12,61.12,0,0,1-103.61,0H621V501.34H573.18a61.13,61.13,0,0,1,118.92,0Z"/><polygon class="cls-1" points="685.75 350.72 514.57 383.79 496.22 387.33 508.46 327 685.75 350.72"/><path class="cls-5" d="M436.34,662.84h109A28.36,28.36,0,0,1,517,691.2H403.77a28.36,28.36,0,0,1-28.36-28.36Z"/><path class="cls-6" d="M514.57,383.79l-14.51,51.76-183.24,20,2.44-7.88a58.26,58.26,0,0,0,46.21-33.1l1-2.2,99.58-19.25h0Z"/><path class="cls-1" d="M500.06,435.55l-1.16,4.15L485.64,487l-59.3,21.36a51.57,51.57,0,0,0-82.77,0l-38.73-14,12-38.78Z"/><path class="cls-1" d="M485.64,487l-5.15,18.37-17.17,61.26-4.21,15-32.77-11.8a51.57,51.57,0,0,0,0-61.5Z"/><path class="cls-1" d="M459.11,581.62,448.2,620.53,271.94,639.8a58.26,58.26,0,0,0-10.13-6.18L273.76,595l69.81-25.14a51.57,51.57,0,0,0,82.77,0Z"/><path class="cls-6" d="M448.2,620.53l-11.86,42.31H290.09a58,58,0,0,0-18.15-23Z"/><path class="cls-5" d="M426.34,508.32A51.57,51.57,0,1,1,385,487.52,51.32,51.32,0,0,1,426.34,508.32Zm-13,30.75a28.37,28.37,0,1,0-10.72,22.2A28.25,28.25,0,0,0,413.31,539.07Z"/><path class="cls-4" d="M402.58,516.87A28.32,28.32,0,1,1,385,510.72,28.25,28.25,0,0,1,402.58,516.87Z"/><path class="cls-1" d="M319.26,447.7a58,58,0,0,1-31.41-5.2l-19.93-9.39L34.21,323l13.18-28A58.31,58.31,0,0,1,125,267.13L378.64,386.65,366.51,412.4l-1,2.2A58.26,58.26,0,0,1,319.26,447.7Zm0-64.36.62-1.34-165-77.75a46.07,46.07,0,0,0-61.31,22L93,327.62l165,77.76A46.08,46.08,0,0,0,319.28,383.34Z"/><path class="cls-1" d="M304.84,494.36l38.73,14a51.61,51.61,0,0,0,0,61.5L273.76,595l5.34-17.28,21.33-69h0Z"/><path class="cls-5" d="M319.9,382l-.62,1.34a46.08,46.08,0,0,1-61.32,22L93,327.62l.63-1.33a46.07,46.07,0,0,1,61.31-22Z"/><path class="cls-6" d="M319.26,447.7l-2.44,7.88-255-13.43V424.32l206.08,8.79,19.93,9.39A58,58,0,0,0,319.26,447.7Z"/><path class="cls-6" d="M316.82,455.58l-12,38.78-4.41,14.3h0l-21.33,69L273.76,595l-11.95,38.66A58.06,58.06,0,0,0,225,629.1L61.84,590.62V442.15Zm-74.24,87.17a21.76,21.76,0,0,0-17.86-25.07l-107.65-18.1A21.77,21.77,0,0,0,92,517.43l-.23,1.38a21.76,21.76,0,0,0,17.86,25.07L217.28,562a21.76,21.76,0,0,0,25.07-17.86Z"/><path class="cls-1" d="M290.09,662.84a57.74,57.74,0,0,1,3,8.51l5.3,20.07L105.6,742.32a58.33,58.33,0,0,1-71.28-41.5L29,680.75l163.53-43.18,29.22-7.72q1.6-.42,3.21-.75a58.35,58.35,0,0,1,65.11,33.74ZM263.77,681l-.33-1.23a40,40,0,0,0-48.9-28.48L63.61,691.16l.32,1.24a40,40,0,0,0,48.91,28.47Z"/><path class="cls-5" d="M263.44,679.78l.33,1.23L112.84,720.87A40,40,0,0,1,63.93,692.4l-.32-1.24L214.54,651.3A40,40,0,0,1,263.44,679.78Z"/><path class="cls-4" d="M224.72,517.68a21.76,21.76,0,0,1,17.86,25.07l-.23,1.37A21.76,21.76,0,0,1,217.28,562l-107.66-18.1a21.76,21.76,0,0,1-17.86-25.07l.23-1.38a21.77,21.77,0,0,1,25.08-17.85Z"/><path class="cls-6" d="M61.84,590.62,225,629.1q-1.6.33-3.21.75l-29.22,7.72L61.84,613.48V590.62Z"/><polygon class="cls-7" points="61.84 590.62 61.84 599.68 49.95 599.68 49.95 454.39 61.84 454.39 61.84 590.62"/><path class="cls-7" d="M49.21,468.9V585.17h-.69a21.6,21.6,0,0,1-21.6-21.6V490.5a21.6,21.6,0,0,1,21.6-21.6Z"/><path class="cls-8" d="M851,737.15v44.58c70.06,0,128.62-91,142.82-212.55,1.48-12.69,2.49-25.71,3-39q.33-9,.33-18.17t-.33-18.17c-.47-13.3-1.48-26.32-3-39C979.59,333.31,921,242.27,851,242.27v76.54"/><polyline class="cls-8" points="587.93 662.84 545.32 662.84 436.34 662.84 375.41 662.84 290.09 662.84 289.78 662.84"/><line class="cls-8" x1="850.97" y1="648.39" x2="850.97" y2="662.84"/><polyline class="cls-8" points="765.04 335.4 850.97 318.81 850.97 379.37"/><polyline class="cls-8" points="365.57 412.58 366.51 412.4 466.09 393.15 496.22 387.33 514.57 383.79"/><polyline class="cls-8" points="319.49 446.95 319.26 447.7 316.82 455.58"/><polyline class="cls-8" points="850.97 710.06 850.97 737.15 729.48 781.73 587.93 662.84 631.11 662.84"/><polygon class="cls-8" points="631.11 662.84 850.97 662.84 850.97 710.06 732.85 748.29 631.11 662.84"/><polyline class="cls-8" points="685.77 350.72 765.04 335.4 485.38 298 466.09 393.15 466.09 393.16 514.57 383.79 685.75 350.72"/><polyline class="cls-8" points="685.77 350.72 685.76 350.72 685.75 350.72 508.46 327 496.22 387.33"/><path class="cls-8" d="M426.34,508.32a51.57,51.57,0,1,0,10.17,30.75A51.47,51.47,0,0,0,426.34,508.32Z"/><line class="cls-8" x1="448.2" y1="620.53" x2="436.34" y2="662.84"/><polyline class="cls-8" points="498.9 439.7 485.65 486.96 463.32 566.59"/><line class="cls-8" x1="514.57" y1="383.79" x2="500.06" y2="435.55"/><path class="cls-8" d="M413.31,539.07a28.37,28.37,0,1,1-10.73-22.2A28.27,28.27,0,0,1,413.31,539.07Z"/><polyline class="cls-8" points="261.58 634.37 261.58 634.36 261.81 633.62 273.76 594.96 279.1 577.68 300.43 508.67 300.43 508.66 304.84 494.36 316.82 455.58 500.06 435.55 498.9 439.7 485.64 486.96 480.49 505.33 463.32 566.59 459.11 581.62 448.2 620.53 271.94 639.8 270.85 639.92"/><line class="cls-8" x1="343.57" y1="508.32" x2="304.84" y2="494.36"/><line class="cls-8" x1="343.57" y1="569.82" x2="273.76" y2="594.96"/><line class="cls-8" x1="459.11" y1="581.62" x2="426.34" y2="569.82"/><polyline class="cls-8" points="426.34 508.32 485.64 486.96 485.65 486.96"/><path class="cls-8" d="M851,466H717.17a98,98,0,1,0,0,99H851"/><path class="cls-8" d="M600.73,548H580.84a61.12,61.12,0,0,0,103.61,0H644.28V501.34H692.1a61.13,61.13,0,0,0-118.92,0H621V548Z"/><polyline class="cls-8" points="61.84 454.39 61.84 442.15 61.84 424.32 267.92 433.11 267.95 433.11"/><polyline class="cls-8" points="192.57 637.57 192.55 637.57 61.84 613.48 61.84 599.68"/><polygon class="cls-8" points="61.84 599.68 49.95 599.68 49.95 454.39 61.84 454.39 61.84 590.62 61.84 599.68"/><path class="cls-8" d="M48.52,585.17h.69V468.9h-.69a21.6,21.6,0,0,0-21.6,21.6v73.07A21.6,21.6,0,0,0,48.52,585.17Z"/><path class="cls-8" d="M290.09,662.84a57.74,57.74,0,0,1,3,8.51l5.3,20.07L105.6,742.32a58.33,58.33,0,0,1-71.28-41.5L29,680.75l163.53-43.18,29.22-7.72q1.6-.42,3.21-.75a58.35,58.35,0,0,1,65.11,33.74Z"/><path class="cls-8" d="M63.93,692.4l-.32-1.24L214.54,651.3a40,40,0,0,1,48.9,28.48l.33,1.23L112.84,720.87A40,40,0,0,1,63.93,692.4Z"/><path class="cls-8" d="M319.26,447.7a58.26,58.26,0,0,0,46.21-33.1l1-2.2,12.13-25.75L125,267.13A58.31,58.31,0,0,0,47.39,295L34.21,323,267.92,433.11l19.93,9.39A58,58,0,0,0,319.26,447.7Z"/><path class="cls-8" d="M319.28,383.34l.62-1.34-165-77.75a46.07,46.07,0,0,0-61.31,22L93,327.62l165,77.76A46.08,46.08,0,0,0,319.28,383.34Z"/><line class="cls-8" x1="316.82" y1="455.58" x2="61.84" y2="442.15"/><polyline class="cls-8" points="225.31 629.18 224.98 629.1 61.84 590.62"/><path class="cls-8" d="M217.28,562l-107.66-18.1a21.76,21.76,0,0,1-17.86-25.07l.23-1.38a21.77,21.77,0,0,1,25.08-17.85l107.65,18.1a21.76,21.76,0,0,1,17.86,25.07l-.23,1.37A21.76,21.76,0,0,1,217.28,562Z"/><path class="cls-8" d="M851,585.69l60.75-13.51h0a60,60,0,0,0,.2-117.12q-1.93-.44-3.93-.75l-57-8.95"/><polyline class="cls-8" points="850.97 490.82 850.97 513.6 850.97 536.93"/><path class="cls-8" d="M851,536.93V648.39h8.91a55.77,55.77,0,0,0,51.85-76.21"/><path class="cls-8" d="M911.73,455.58c.07-.17.13-.34.2-.52a55.73,55.73,0,0,0-52-75.69H851V490.82"/><line class="cls-8" x1="958.71" y1="513.6" x2="850.97" y2="513.6"/><rect class="cls-8" x="774.43" y="486.96" width="24.52" height="57.13" rx="11.88"/><circle class="cls-8" cx="889.05" cy="709.1" r="15.79"/><circle class="cls-8" cx="889.05" cy="314.91" r="15.79"/><path class="cls-8" d="M375.41,662.84a28.36,28.36,0,0,0,28.36,28.36H517a28.36,28.36,0,0,0,28.36-28.36"/></g></g></svg>