<svg xmlns="http://www.w3.org/2000/svg" viewBox="0 0 1024 1024"><defs><style>.cls-1{fill:#ccc;}.cls-2{fill:#0ef9fd;}.cls-3{fill:#52c0d7;}.cls-4{fill:#f2da30;}.cls-5{fill:#efd82e;}.cls-6{fill:#999;}.cls-7{fill:#6e706d;}.cls-8{fill:none;stroke:#000;stroke-miterlimit:10;stroke-width:7px;}</style></defs><g id="SS"><g id="L2"><path class="cls-1" d="M993,493.83q.33,9,.33,18.17T993,530.17c-.47,13.3-1.48,26.32-3,39-14.2,121.51-72.76,212.55-142.82,212.55V648.39h8.91A55.77,55.77,0,0,0,908,572.18a60,60,0,0,0,.2-117.12,55.73,55.73,0,0,0-52-75.69h-8.91V242.27c70.06,0,128.62,91,142.82,212.55C991.52,467.51,992.53,480.53,993,493.83ZM901.09,314.91A15.79,15.79,0,1,0,885.3,330.7,15.79,15.79,0,0,0,901.09,314.91Zm0,394.19a15.79,15.79,0,1,0-15.79,15.79A15.79,15.79,0,0,0,901.09,709.1Z"/><path class="cls-2" d="M908.18,455.06A60,60,0,0,1,955,513.6H847.22V445.36l57,8.95Q906.25,454.63,908.18,455.06Z"/><path class="cls-2" d="M847.22,513.6H955a60,60,0,0,1-47,58.58h0l-60.75,13.51V513.6Z"/><path class="cls-3" d="M911.86,435.09a55.59,55.59,0,0,1-3.68,20q-1.93-.44-3.93-.75l-57-8.95v-66h8.91a55.7,55.7,0,0,1,55.73,55.72Z"/><path class="cls-3" d="M908,572.18a55.73,55.73,0,0,1-51.85,76.21h-8.91v-62.7L908,572.18Z"/><circle class="cls-4" cx="885.3" cy="314.91" r="15.79"/><circle class="cls-4" cx="885.3" cy="709.1" r="15.79"/><polygon class="cls-5" points="847.22 710.06 847.22 737.15 725.73 781.73 584.18 662.84 627.36 662.84 729.1 748.29 847.22 710.06"/><polygon class="cls-1" points="847.22 662.84 847.22 710.06 729.1 748.29 627.36 662.84 847.22 662.84"/><path class="cls-6" d="M847.22,648.39v14.45H432.59l11.86-42.31,10.91-38.91,4.21-15L481.9,487l13.25-47.26,1.16-4.15,14.51-51.76L682,350.72h0l79.27-15.32,85.93-16.59V466H713.42a98,98,0,1,0,0,99h133.8v83.34Z"/><path class="cls-1" d="M847.22,536.93v28.12H713.42a98,98,0,1,1,0-99h133.8v70.93Zm-52-4.72V498.84A11.88,11.88,0,0,0,783.32,487h-.76a11.88,11.88,0,0,0-11.88,11.88v33.37a11.88,11.88,0,0,0,11.88,11.88h.76A11.88,11.88,0,0,0,795.2,532.21ZM640.53,501.34h47.82a61.13,61.13,0,0,0-118.92,0h47.82V548H577.09a61.12,61.12,0,0,0,103.61,0H640.53Z"/><rect class="cls-4" x="770.68" y="486.96" width="24.52" height="57.13" rx="11.88"/><polygon class="cls-5" points="761.29 335.4 682.02 350.72 682.01 350.72 682 350.72 504.71 327 492.47 387.33 462.34 393.15 481.63 298 761.29 335.4"/><path class="cls-4" d="M688.35,501.34H640.53V548H680.7a61.12,61.12,0,0,1-103.61,0h40.16V501.34H569.43a61.13,61.13,0,0,1,118.92,0Z"/><polygon class="cls-1" points="682 350.72 510.82 383.79 492.47 387.33 504.71 327 682 350.72"/><path class="cls-5" d="M432.59,662.84h109a28.36,28.36,0,0,1-28.36,28.36H400a28.36,28.36,0,0,1-28.36-28.36Z"/><path class="cls-6" d="M510.82,383.79l-14.51,51.76-183.24,20,2.44-7.88a58.26,58.26,0,0,0,46.21-33.1l1-2.2,99.58-19.25h0Z"/><path class="cls-1" d="M496.31,435.55l-1.16,4.15L481.89,487l-59.3,21.36a51.57,51.57,0,0,0-82.77,0l-38.73-14,12-38.78Z"/><path class="cls-1" d="M481.89,487l-5.15,18.37-17.17,61.26-4.21,15-32.77-11.8a51.57,51.57,0,0,0,0-61.5Z"/><path class="cls-1" d="M455.36,581.62l-10.91,38.91L268.19,639.8a58.26,58.26,0,0,0-10.13-6.18L270,595l69.81-25.14a51.57,51.57,0,0,0,82.77,0Z"/><path class="cls-6" d="M444.45,620.53l-11.86,42.31H286.34a58,58,0,0,0-18.15-23Z"/><path class="cls-5" d="M422.59,508.32a51.57,51.57,0,1,1-41.38-20.8A51.32,51.32,0,0,1,422.59,508.32Zm-13,30.75a28.37,28.37,0,1,0-10.72,22.2A28.25,28.25,0,0,0,409.56,539.07Z"/><path class="cls-4" d="M398.83,516.87a28.32,28.32,0,1,1-17.62-6.15A28.25,28.25,0,0,1,398.83,516.87Z"/><path class="cls-1" d="M264.17,433.11,30.46,323l13.18-28a58.31,58.31,0,0,1,77.61-27.9L374.89,386.65,362.76,412.4l-1,2.2a58.31,58.31,0,0,1-77.62,27.9Zm51.36-49.77.62-1.34-165-77.75a46.07,46.07,0,0,0-61.31,22l-.63,1.33,165,77.76A46.08,46.08,0,0,0,315.53,383.34Z"/><path class="cls-1" d="M301.09,494.36l38.73,14a51.61,51.61,0,0,0,0,61.5L270,595l5.34-17.28,21.33-69h0Z"/><path class="cls-5" d="M316.15,382l-.62,1.34a46.08,46.08,0,0,1-61.32,22l-165-77.76.63-1.33a46.07,46.07,0,0,1,61.31-22Z"/><path class="cls-6" d="M315.51,447.7l-2.44,7.88-255-13.43V424.32l206.08,8.79,19.93,9.39A58,58,0,0,0,315.51,447.7Z"/><path class="cls-6" d="M313.07,455.58l-12,38.78-4.41,14.3h0l-21.33,69L270,595l-11.95,38.66a58.06,58.06,0,0,0-36.83-4.52L58.09,590.62V442.15Zm-74.24,87.17A21.76,21.76,0,0,0,221,517.68l-107.65-18.1a21.77,21.77,0,0,0-25.08,17.85L88,518.81a21.76,21.76,0,0,0,17.86,25.07L213.53,562a21.76,21.76,0,0,0,25.07-17.86Z"/><path class="cls-1" d="M286.34,662.84a57.74,57.74,0,0,1,3,8.51l5.3,20.07-192.75,50.9a58.33,58.33,0,0,1-71.28-41.5l-5.3-20.07L188.8,637.57,218,629.85q1.6-.42,3.21-.75a58.35,58.35,0,0,1,65.11,33.74ZM260,681l-.33-1.23a40,40,0,0,0-48.9-28.48L59.86,691.16l.32,1.24a40,40,0,0,0,48.91,28.47Z"/><path class="cls-5" d="M259.69,679.78,260,681,109.09,720.87A40,40,0,0,1,60.18,692.4l-.32-1.24L210.79,651.3A40,40,0,0,1,259.69,679.78Z"/><path class="cls-5" d="M221,517.68a21.76,21.76,0,0,1,17.86,25.07l-.23,1.37A21.76,21.76,0,0,1,213.53,562l-107.66-18.1A21.76,21.76,0,0,1,88,518.81l.23-1.38a21.77,21.77,0,0,1,25.08-17.85Z"/><path class="cls-6" d="M58.09,590.62,221.23,629.1q-1.6.33-3.21.75l-29.22,7.72L58.09,613.48V590.62Z"/><polygon class="cls-7" points="58.09 590.62 58.09 599.68 46.2 599.68 46.2 454.39 58.09 454.39 58.09 590.62"/><path class="cls-7" d="M45.46,468.9V585.17h-.69a21.6,21.6,0,0,1-21.6-21.6V490.5a21.6,21.6,0,0,1,21.6-21.6Z"/><path class="cls-8" d="M847.22,737.15v44.58c70.06,0,128.62-91,142.82-212.55,1.48-12.69,2.49-25.71,3-39q.33-9,.33-18.17T993,493.83c-.47-13.3-1.48-26.32-3-39-14.2-121.51-72.76-212.55-142.82-212.55v76.54"/><polyline class="cls-8" points="584.18 662.84 541.57 662.84 432.59 662.84 371.66 662.84 286.34 662.84 286.03 662.84"/><line class="cls-8" x1="847.22" y1="648.39" x2="847.22" y2="662.84"/><polyline class="cls-8" points="761.29 335.4 847.22 318.81 847.22 379.37"/><polyline class="cls-8" points="361.82 412.58 362.76 412.4 462.34 393.15 492.47 387.33 510.82 383.79"/><polyline class="cls-8" points="315.74 446.95 315.51 447.7 313.07 455.58"/><polyline class="cls-8" points="847.22 710.06 847.22 737.15 725.73 781.73 584.18 662.84 627.36 662.84"/><polygon class="cls-8" points="627.36 662.84 847.22 662.84 847.22 710.06 729.1 748.29 627.36 662.84"/><polyline class="cls-8" points="682.02 350.72 761.29 335.4 481.63 298 462.34 393.15 462.34 393.16 510.82 383.79 682 350.72"/><polyline class="cls-8" points="682.02 350.72 682.01 350.72 682 350.72 504.71 327 492.47 387.33"/><path class="cls-8" d="M422.59,508.32a51.57,51.57,0,1,0,10.17,30.75A51.47,51.47,0,0,0,422.59,508.32Z"/><line class="cls-8" x1="444.45" y1="620.53" x2="432.59" y2="662.84"/><polyline class="cls-8" points="495.15 439.7 481.9 486.96 459.57 566.59"/><line class="cls-8" x1="510.82" y1="383.79" x2="496.31" y2="435.55"/><path class="cls-8" d="M409.56,539.07a28.37,28.37,0,1,1-10.73-22.2A28.27,28.27,0,0,1,409.56,539.07Z"/><polyline class="cls-8" points="257.83 634.37 257.83 634.36 258.06 633.62 270.01 594.96 275.35 577.68 296.68 508.67 296.68 508.66 301.09 494.36 313.07 455.58 496.31 435.55 495.15 439.7 481.89 486.96 476.74 505.33 459.57 566.59 455.36 581.62 444.45 620.53 268.19 639.8 267.1 639.92"/><line class="cls-8" x1="339.82" y1="508.32" x2="301.09" y2="494.36"/><line class="cls-8" x1="339.82" y1="569.82" x2="270.01" y2="594.96"/><line class="cls-8" x1="455.36" y1="581.62" x2="422.59" y2="569.82"/><polyline class="cls-8" points="422.59 508.32 481.89 486.96 481.9 486.96"/><path class="cls-8" d="M847.22,466H713.42a98,98,0,1,0,0,99h133.8"/><path class="cls-8" d="M597,548H577.09a61.12,61.12,0,0,0,103.61,0H640.53V501.34h47.82a61.13,61.13,0,0,0-118.92,0h47.82V548Z"/><polyline class="cls-8" points="58.09 454.39 58.09 442.15 58.09 424.32 264.17 433.11 264.2 433.11"/><polyline class="cls-8" points="188.82 637.57 188.8 637.57 58.09 613.48 58.09 599.68"/><polygon class="cls-8" points="58.09 599.68 46.2 599.68 46.2 454.39 58.09 454.39 58.09 590.62 58.09 599.68"/><path class="cls-8" d="M44.77,585.17h.69V468.9h-.69a21.6,21.6,0,0,0-21.6,21.6v73.07A21.6,21.6,0,0,0,44.77,585.17Z"/><path class="cls-8" d="M286.34,662.84a57.74,57.74,0,0,1,3,8.51l5.3,20.07-192.75,50.9a58.33,58.33,0,0,1-71.28-41.5l-5.3-20.07L188.8,637.57,218,629.85q1.6-.42,3.21-.75a58.35,58.35,0,0,1,65.11,33.74Z"/><path class="cls-8" d="M60.18,692.4l-.32-1.24L210.79,651.3a40,40,0,0,1,48.9,28.48L260,681,109.09,720.87A40,40,0,0,1,60.18,692.4Z"/><path class="cls-8" d="M315.51,447.7a58.26,58.26,0,0,0,46.21-33.1l1-2.2,12.13-25.75L121.25,267.13A58.31,58.31,0,0,0,43.64,295L30.46,323,264.17,433.11l19.93,9.39A58,58,0,0,0,315.51,447.7Z"/><path class="cls-8" d="M315.53,383.34l.62-1.34-165-77.75a46.07,46.07,0,0,0-61.31,22l-.63,1.33,165,77.76A46.08,46.08,0,0,0,315.53,383.34Z"/><line class="cls-8" x1="313.07" y1="455.58" x2="58.09" y2="442.15"/><polyline class="cls-8" points="221.56 629.18 221.23 629.1 58.09 590.62"/><path class="cls-8" d="M213.53,562l-107.66-18.1A21.76,21.76,0,0,1,88,518.81l.23-1.38a21.77,21.77,0,0,1,25.08-17.85L221,517.68a21.76,21.76,0,0,1,17.86,25.07l-.23,1.37A21.76,21.76,0,0,1,213.53,562Z"/><path class="cls-8" d="M847.22,585.69,908,572.18h0a60,60,0,0,0,.2-117.12q-1.93-.44-3.93-.75l-57-8.95"/><polyline class="cls-8" points="847.22 490.82 847.22 513.6 847.22 536.93"/><path class="cls-8" d="M847.22,536.93V648.39h8.91A55.77,55.77,0,0,0,908,572.18"/><path class="cls-8" d="M908,455.58c.07-.17.13-.34.2-.52a55.73,55.73,0,0,0-52-75.69h-8.91V490.82"/><line class="cls-8" x1="954.96" y1="513.6" x2="847.22" y2="513.6"/><rect class="cls-8" x="770.68" y="486.96" width="24.52" height="57.13" rx="11.88"/><circle class="cls-8" cx="885.3" cy="709.1" r="15.79"/><circle class="cls-8" cx="885.3" cy="314.91" r="15.79"/><path class="cls-8" d="M371.66,662.84A28.36,28.36,0,0,0,400,691.2H513.21a28.36,28.36,0,0,0,28.36-28.36"/></g></g></svg>