<svg id="Thruster_Blue" data-name="Thruster Blue" xmlns="http://www.w3.org/2000/svg" viewBox="0 0 512 512"><defs><style>.cls-1,.cls-2{fill:#06f;}.cls-2,.cls-4,.cls-6{opacity:0.5;}.cls-3,.cls-4{fill:#01ffff;}.cls-5,.cls-6{fill:#fff;}</style></defs><g id="_3" data-name="3"><path class="cls-1" d="M436.36,256a70.94,70.94,0,0,1-17.68,48.9c-10.59,12.07-24.29,19.4-37.38,20.73q-10.11,1-20.12,1.83a323.81,323.81,0,0,1-75-3.06c-10.19-1.52-20.17-3.46-30.06-5.69-2.61-.58-5.22-1.19-7.81-1.83-34.72-8.37-68.68-20-104.75-31,10.35-2.88,21.85-6.5,33.92-10.7-11.92-3.65-23.88-7.16-35.78-10.4S118,258.55,106.41,256c23.16-5.11,47.28-11.85,71.07-19.16-12.07-4.2-23.57-7.82-33.92-10.7,36-11,70-22.62,104.66-31,12.46-3,25.06-5.6,38-7.56a324.36,324.36,0,0,1,75-3.06q10,.79,20.12,1.84c13.09,1.32,26.79,8.65,37.39,20.72A71,71,0,0,1,436.36,256Z"/><path class="cls-2" d="M248.31,316.87c-2.77-.58-5.51-1.17-8.27-1.79-37.48-8.45-74.06-20.8-113.23-32.1,10-2.43,21.25-5.6,33.15-9.38-12-3.44-24-6.72-36-9.7s-23.81-5.65-35.38-7.9c23.16-4.5,47.42-10.72,71.37-17.61-11.9-3.78-23.15-6.95-33.15-9.37,42-12.12,81-25.46,121.41-33.87-34.7,8.37-68.62,20-104.66,31,10.35,2.88,21.85,6.5,33.92,10.7-23.79,7.31-47.91,14-71.07,19.16,11.56,2.55,23.39,5.51,35.29,8.75s23.86,6.75,35.78,10.4c-12.07,4.2-23.57,7.82-33.92,10.7C179.63,296.84,213.59,308.5,248.31,316.87Z"/><path class="cls-3" d="M436.35,256a71,71,0,0,1-17.66,48.9c-10.61,12.09-24.29,19.38-37.4,20.75q-10.11,1-20.11,1.83a326.46,326.46,0,0,1-75-3.06c-1.57-.35-3.18-.66-4.75-1-1.25-.28-2.46-.54-3.69-.86l-1.06-.23c-30.95-7.32-60.69-18.47-91.95-29.9,9.83-4.22,20.38-9,31.26-14.19-10.2-3.92-20.41-7.8-30.65-11.53s-20.44-7.36-30.5-10.69c20.14-6.67,40.81-14.4,61.15-22.23-10.88-5.21-21.43-10-31.26-14.19,31.3-11.43,60.91-22.6,91.87-29.88l1.13-.25c2.8-.66,5.61-1.29,8.44-1.87a327,327,0,0,1,75-3.07q10,.8,20.11,1.84c13.09,1.31,26.79,8.65,37.41,20.74A71,71,0,0,1,436.35,256Z"/><path class="cls-4" d="M276.69,322.31c-1.21-.27-2.48-.51-3.69-.78-32.7-7.26-64-18.86-97-30.6,9.65-4,20.07-8.52,30.87-13.51-10.24-3.81-20.49-7.57-30.76-11.17s-20.48-7.08-30.54-10.25c20.14-6.35,40.87-13.81,61.3-21.43-10.8-5-21.22-9.53-30.87-13.5,34.33-12.18,66.6-24.19,100.65-31.37-31,7.28-60.57,18.44-91.87,29.88,9.83,4.22,20.38,9,31.26,14.19-20.34,7.83-41,15.56-61.15,22.23,10.06,3.33,20.25,6.94,30.5,10.69S205.8,274.3,216,278.22c-10.88,5.21-21.43,10-31.26,14.19C216,303.84,245.74,315,276.69,322.31Z"/><path class="cls-5" d="M436.35,256a71,71,0,0,1-17.66,48.9,34.74,34.74,0,0,1-12.93,5.3q-7.06,1.26-14.09,2.4c-6.58,1.08-13.14,1.79-19.58,2.28-.13,0-.27,0-.39,0a242.29,242.29,0,0,1-55.52-2.79c-27.24-4.4-53.22-12.65-79.52-22.09q12.78-6.87,26.08-14.27c-16.21-6.44-32.39-13.22-48.41-19.72,16-6.51,32.2-13.29,48.41-19.73-8.85-4.93-17.57-9.69-26.08-14.27,43.51-15.63,86.37-28.13,135-24.89.13,0,.27,0,.39,0,6.44.5,13,1.2,19.58,2.28q7,1.14,14.09,2.41a34.53,34.53,0,0,1,12.94,5.29A71,71,0,0,1,436.35,256Z"/><path class="cls-6" d="M316.18,312.08a242.29,242.29,0,0,0,55.52,2.79,232.15,232.15,0,0,1-65.38-2.13c-27.12-4.58-53-13-79.23-22.63,8.44-4.54,17.13-9.3,26-14.21-16.2-6.58-32.41-13.39-48.43-19.9,16-6.52,32.23-13.33,48.43-19.91-8.83-4.91-17.52-9.67-26-14.21C273.5,205,319,191.35,371.69,197.11c-48.66-3.24-91.52,9.26-135,24.89,8.51,4.58,17.23,9.34,26.08,14.27-16.21,6.44-32.39,13.22-48.41,19.73,16,6.5,32.2,13.28,48.41,19.72q-13.28,7.39-26.08,14.27C263,299.43,288.94,307.68,316.18,312.08Z"/></g></svg>