<svg id="Thruster_Blue" data-name="Thruster Blue" xmlns="http://www.w3.org/2000/svg" viewBox="0 0 512 512"><defs><style>.cls-1,.cls-2{fill:#06f;}.cls-2,.cls-4,.cls-6{opacity:0.5;}.cls-3,.cls-4{fill:#01ffff;}.cls-5,.cls-6{fill:#fff;}</style></defs><g id="_5" data-name="5"><path class="cls-1" d="M436.36,256a71.55,71.55,0,0,1-17.47,48.9c-10.46,12.07-24,19.4-36.84,20.73q-9.93,1-19.76,1.83a311.86,311.86,0,0,1-73.61-3.06c-10-1.52-19.78-3.46-29.47-5.69-2.55-.58-5.11-1.19-7.65-1.83-34-8.37-67.27-20-102.65-31,10.14-2.88,21.42-6.5,33.27-10.7-11.7-3.65-23.44-7.16-35.12-10.4s-23.3-6.2-34.66-8.75c22.74-5.11,46.43-11.85,69.78-19.16-11.85-4.2-23.13-7.82-33.27-10.7,35.35-11,68.57-22.62,102.57-31,12.2-3,24.55-5.6,37.19-7.56a312.39,312.39,0,0,1,73.61-3.06q9.83.79,19.76,1.84c12.87,1.32,26.38,8.65,36.84,20.72A71.51,71.51,0,0,1,436.36,256Z"/><path class="cls-2" d="M251.56,316.87c-2.71-.58-5.4-1.17-8.1-1.79-36.73-8.45-72.55-20.8-111-32.1,9.79-2.43,20.82-5.6,32.51-9.38-11.78-3.44-23.59-6.72-35.34-9.7s-23.38-5.65-34.74-7.9c22.74-4.5,46.56-10.72,70.08-17.61-11.69-3.78-22.72-6.95-32.51-9.37,41.23-12.12,79.39-25.46,119-33.87-34,8.37-67.22,20-102.57,31,10.14,2.88,21.42,6.5,33.27,10.7-23.35,7.31-47,14-69.78,19.16,11.36,2.55,23,5.51,34.66,8.75s23.42,6.75,35.12,10.4c-11.85,4.2-23.13,7.82-33.27,10.7C184.29,296.84,217.55,308.5,251.56,316.87Z"/><path class="cls-3" d="M436.35,256a71.54,71.54,0,0,1-17.45,48.9c-10.48,12.09-24,19.38-36.85,20.75q-9.93,1-19.77,1.83a314.45,314.45,0,0,1-73.6-3.06c-1.53-.35-3.11-.66-4.65-1-1.22-.28-2.41-.54-3.62-.86l-1-.23c-30.33-7.32-59.44-18.47-90.09-29.9,9.65-4.22,20-9,30.7-14.19-10-3.92-20-7.8-30.08-11.53S169.84,259.33,160,256c19.77-6.67,40.06-14.4,60-22.23-10.69-5.21-21.05-10-30.7-14.19C220,208.15,249,197,279.3,189.7l1.11-.25c2.74-.66,5.5-1.29,8.27-1.87a314.93,314.93,0,0,1,73.6-3.07q9.83.8,19.76,1.84c12.86,1.31,26.37,8.65,36.85,20.74A71.55,71.55,0,0,1,436.35,256Z"/><path class="cls-4" d="M279.38,322.31c-1.19-.27-2.43-.51-3.62-.78-32-7.26-62.65-18.86-95.08-30.6,9.47-4,19.7-8.52,30.31-13.51-10.05-3.81-20.11-7.57-30.19-11.17s-20.11-7.08-30-10.25c19.78-6.35,40.14-13.81,60.18-21.43-10.61-5-20.84-9.53-30.31-13.5,33.67-12.18,65.25-24.19,98.62-31.37C249,197,220,208.14,189.29,219.58c9.65,4.22,20,9,30.7,14.19-20,7.83-40.25,15.56-60,22.23,9.87,3.33,19.88,6.94,29.94,10.69S210,274.3,220,278.22c-10.69,5.21-21.05,10-30.7,14.19C219.94,303.84,249.05,315,279.38,322.31Z"/><path class="cls-5" d="M436.35,256a71.54,71.54,0,0,1-17.45,48.9,34,34,0,0,1-12.73,5.3q-6.93,1.26-13.85,2.4c-6.47,1.08-12.91,1.79-19.24,2.28-.12,0-.26,0-.38,0a233.37,233.37,0,0,1-54.49-2.79c-26.72-4.4-52.18-12.65-78-22.09q12.56-6.87,25.63-14.27C250,269.28,234.1,262.5,218.36,256c15.74-6.51,31.62-13.29,47.52-19.73-8.7-4.93-17.27-9.69-25.63-14.27,42.66-15.63,84.64-28.13,132.45-24.89.12,0,.26,0,.38,0,6.32.5,12.77,1.2,19.24,2.28q6.92,1.14,13.84,2.41a33.63,33.63,0,0,1,12.73,5.29A71.55,71.55,0,0,1,436.35,256Z"/><path class="cls-6" d="M318.21,312.08a233.37,233.37,0,0,0,54.49,2.79,223.72,223.72,0,0,1-64.18-2.13c-26.6-4.58-51.91-13-77.67-22.63,8.3-4.54,16.83-9.3,25.51-14.21-15.89-6.58-31.8-13.39-47.53-19.9,15.73-6.52,31.64-13.33,47.53-19.91-8.68-4.91-17.21-9.67-25.51-14.21,45.51-16.93,90-30.53,141.85-24.77-47.81-3.24-89.79,9.26-132.45,24.89,8.36,4.58,16.93,9.34,25.63,14.27C250,242.71,234.1,249.49,218.36,256c15.74,6.5,31.62,13.28,47.52,19.72q-13,7.39-25.63,14.27C266,299.43,291.49,307.68,318.21,312.08Z"/></g></svg>