<svg xmlns="http://www.w3.org/2000/svg" viewBox="0 0 512 512"><defs><style>.cls-1{fill:#999;}.cls-2{fill:#ccc;}.cls-3{fill:#0ef9fd;}.cls-4{fill:#f1552d;}.cls-5{fill:#f44f2f;}.cls-6{fill:#6e706d;}.cls-10,.cls-11,.cls-7,.cls-8,.cls-9{fill:none;stroke:#000;stroke-miterlimit:10;}.cls-7,.cls-9{stroke-width:6px;}.cls-8{stroke-width:4px;}.cls-10,.cls-9{stroke-linecap:round;}.cls-10,.cls-11{stroke-width:5px;}</style></defs><g id="SS"><g id="S8"><polygon class="cls-1" points="493.65 257.07 505.24 275.69 465.94 275.69 458.58 275.69 443.47 275.69 436.11 275.69 420.54 275.69 413.19 275.69 378.29 275.69 383.77 257.07 493.65 257.07"/><path class="cls-2" d="M491.15,253.06l2.5,4H383.77l3.68-12.5L393,225.74h81.16l3.06,4.91,1.45,2.34h-45.1a29.92,29.92,0,0,0-12.8,2.59c-3.28,1.61-5.31,3.83-5.31,6.27,0,4.9,8.11,8.87,18.11,8.87h56.13Z"/><path class="cls-3" d="M489,249.67l.65,1.05H433.56c-10,0-18.11-4-18.11-8.87,0-2.44,2-4.66,5.31-6.27a29.92,29.92,0,0,1,12.8-2.59h45.1l.66,1Z"/><rect class="cls-1" x="458.58" y="275.7" width="7.36" height="9.17"/><rect class="cls-1" x="436.11" y="275.7" width="7.36" height="7.36"/><rect class="cls-1" x="413.19" y="275.7" width="7.35" height="7.36"/><path class="cls-1" d="M364.28,244.46l-10.71,34.92H158.41L172,220l1.72-7.47,59.77-15.62h44.83v9.62a3.58,3.58,0,0,0,3.59,3.58h1.54a3.58,3.58,0,0,0,3.59-3.58v-9.62h7.79v9.62a3.58,3.58,0,0,0,3.59,3.58H300a3.58,3.58,0,0,0,3.59-3.58v-9.62h7.79v9.62a3.58,3.58,0,0,0,3.59,3.58h1.54a3.58,3.58,0,0,0,3.59-3.58v-9.62h7.79v9.62a3.58,3.58,0,0,0,3.59,3.58H333a3.58,3.58,0,0,0,3.59-3.58v-9.62h7.79v9.62a3.58,3.58,0,0,0,3.59,3.58h1.54a3.58,3.58,0,0,0,3.59-3.58v-9.62h17.28l26.49,15.62L393,225.74l-5.54,18.84-.4-.12ZM261.71,250a5.52,5.52,0,0,0-5.52-5.52H245v-5.89H236.6v5.89H224.8v-5.89h-8.37v5.89h-11.8v-5.89h-8.37v5.89H185a5.52,5.52,0,1,0,0,11h11.22v5.88h8.37V255.5h11.8v5.88h8.37V255.5h11.8v5.88H245V255.5h11.22a5.53,5.53,0,0,0,5.52-5.52Z"/><polygon class="cls-2" points="387.45 244.57 383.77 257.07 378.29 275.69 373.79 290.99 350.01 290.99 353.57 279.38 364.28 244.46 387.05 244.46 387.45 244.57"/><polygon class="cls-2" points="353.57 279.38 350.01 290.99 283.36 290.99 283.36 285.44 266.38 285.44 266.38 290.99 259.77 290.99 259.77 285.44 242.79 285.44 242.79 290.99 236.19 290.99 236.19 285.44 219.2 285.44 219.2 290.99 212.6 290.99 212.6 285.44 195.62 285.44 195.62 290.99 189.01 290.99 189.01 285.44 172.03 285.44 172.03 290.99 155.75 290.99 157.46 283.51 158.41 279.38 353.57 279.38"/><path class="cls-4" d="M353.11,196.91v9.62a3.58,3.58,0,0,1-3.59,3.58H348a3.58,3.58,0,0,1-3.59-3.58v-9.62Z"/><path class="cls-4" d="M336.6,196.91v9.62a3.58,3.58,0,0,1-3.59,3.58h-1.54a3.58,3.58,0,0,1-3.59-3.58v-9.62Z"/><path class="cls-4" d="M320.09,196.91v9.62a3.58,3.58,0,0,1-3.59,3.58H315a3.58,3.58,0,0,1-3.59-3.58v-9.62Z"/><path class="cls-4" d="M303.58,196.91v9.62a3.58,3.58,0,0,1-3.59,3.58h-1.54a3.58,3.58,0,0,1-3.59-3.58v-9.62Z"/><path class="cls-4" d="M287.07,196.91v9.62a3.58,3.58,0,0,1-3.59,3.58h-1.54a3.58,3.58,0,0,1-3.59-3.58v-9.62Z"/><polygon class="cls-4" points="283.36 290.99 283.36 315.1 266.38 315.1 266.38 290.99 266.38 285.44 283.36 285.44 283.36 290.99"/><path class="cls-4" d="M256.19,244.46a5.52,5.52,0,0,1,0,11H185a5.52,5.52,0,0,1,0-11h71.15Z"/><polygon class="cls-4" points="259.77 290.99 259.77 315.1 242.79 315.1 242.79 290.99 242.79 285.44 259.77 285.44 259.77 290.99"/><rect class="cls-2" x="236.6" y="255.5" width="8.37" height="5.88"/><rect class="cls-2" x="236.6" y="238.57" width="8.37" height="5.89"/><polygon class="cls-4" points="236.19 290.99 236.19 315.1 219.2 315.1 219.2 290.99 219.2 285.44 236.19 285.44 236.19 290.99"/><rect class="cls-2" x="216.43" y="255.5" width="8.37" height="5.88"/><rect class="cls-2" x="216.43" y="238.57" width="8.37" height="5.89"/><polygon class="cls-4" points="212.6 290.99 212.6 315.1 195.62 315.1 195.62 290.99 195.62 285.44 212.6 285.44 212.6 290.99"/><rect class="cls-2" x="196.26" y="255.5" width="8.37" height="5.88"/><rect class="cls-2" x="196.26" y="238.57" width="8.37" height="5.89"/><polygon class="cls-4" points="189.01 290.99 189.01 315.1 172.03 315.1 172.03 290.99 172.03 285.44 189.01 285.44 189.01 290.99"/><polygon class="cls-5" points="173.75 212.53 172.03 220 70.48 211.75 45.35 198.5 173.75 212.53"/><path class="cls-1" d="M158.41,279.38l-.95,4.14H77a56,56,0,0,0,8.8-22.1,54.81,54.81,0,0,0,.78-9A56.12,56.12,0,0,0,80,225.67L77,220H172Zm-10.08-28.63V248.7a4.75,4.75,0,0,0-4.75-4.75H105a4.74,4.74,0,0,0-4.74,4.75v2.05A4.75,4.75,0,0,0,105,255.5h38.6A4.75,4.75,0,0,0,148.33,250.75Z"/><path class="cls-5" d="M148.33,248.7v2.05a4.75,4.75,0,0,1-4.75,4.75H105a4.75,4.75,0,0,1-4.74-4.75V248.7A4.74,4.74,0,0,1,105,244h38.6A4.75,4.75,0,0,1,148.33,248.7Z"/><path class="cls-6" d="M80,225.67a56.12,56.12,0,0,1,6.57,26.71h-68V220H77Z"/><path class="cls-5" d="M18.53,252.38h68a54.81,54.81,0,0,1-.78,9l-.23,0h-67Z"/><path class="cls-6" d="M85.52,261.38l.23,0a56,56,0,0,1-8.8,22.1,229.43,229.43,0,0,1-28.77,5.6A230.45,230.45,0,0,1,18.93,291h-.4V261.38Z"/><path class="cls-6" d="M18.53,261.38V291H16.44a9.69,9.69,0,0,1-9.68-9.69V229.69A9.69,9.69,0,0,1,16.44,220h2.09v41.38Z"/><line class="cls-7" x1="224.8" y1="244.46" x2="236.6" y2="244.46"/><line class="cls-7" x1="204.63" y1="244.46" x2="216.43" y2="244.46"/><path class="cls-7" d="M196.26,255.5H185a5.52,5.52,0,0,1,0-11h11.22"/><line class="cls-7" x1="216.43" y1="255.5" x2="204.63" y2="255.5"/><line class="cls-7" x1="236.6" y1="255.5" x2="224.8" y2="255.5"/><path class="cls-7" d="M245,244.46h11.22a5.52,5.52,0,0,1,0,11H245"/><line class="cls-7" x1="195.62" y1="290.99" x2="189.01" y2="290.99"/><line class="cls-7" x1="219.2" y1="290.99" x2="212.6" y2="290.99"/><line class="cls-7" x1="242.79" y1="290.99" x2="236.19" y2="290.99"/><line class="cls-7" x1="266.38" y1="290.99" x2="259.77" y2="290.99"/><polyline class="cls-7" points="353.11 196.91 370.39 196.91 396.88 212.53 392.99 225.74 387.45 244.57 383.77 257.07 378.29 275.69 373.79 290.99 350.01 290.99 283.36 290.99"/><line class="cls-7" x1="336.6" y1="196.91" x2="344.39" y2="196.91"/><line class="cls-7" x1="320.09" y1="196.91" x2="327.88" y2="196.91"/><line class="cls-7" x1="303.58" y1="196.91" x2="311.37" y2="196.91"/><line class="cls-7" x1="287.07" y1="196.91" x2="294.86" y2="196.91"/><polyline class="cls-7" points="173.75 212.53 233.52 196.91 278.35 196.91"/><polyline class="cls-7" points="172.03 290.99 155.75 290.99 157.46 283.51 158.41 279.38 172.03 220"/><polyline class="cls-7" points="76.95 220 155.75 220 172.03 220"/><polyline class="cls-7" points="157.46 283.51 155.75 283.51 76.95 283.51"/><path class="cls-7" d="M18.53,220H77l3,5.67a56.12,56.12,0,0,1,6.57,26.71,54.81,54.81,0,0,1-.78,9,56,56,0,0,1-8.8,22.1,229.43,229.43,0,0,1-28.77,5.6A230.45,230.45,0,0,1,18.93,291h-.4"/><path class="cls-7" d="M18.53,220H16.44a9.69,9.69,0,0,0-9.68,9.69V281.3A9.69,9.69,0,0,0,16.44,291h2.09V220Z"/><polygon class="cls-7" points="172.03 220 70.48 211.75 45.35 198.5 173.75 212.53 172.03 220"/><rect class="cls-8" x="196.26" y="238.57" width="8.37" height="5.89"/><rect class="cls-8" x="196.26" y="255.5" width="8.37" height="5.88"/><rect class="cls-8" x="216.43" y="238.57" width="8.37" height="5.89"/><rect class="cls-8" x="216.43" y="255.5" width="8.37" height="5.88"/><rect class="cls-8" x="236.6" y="238.57" width="8.37" height="5.89"/><rect class="cls-8" x="236.6" y="255.5" width="8.37" height="5.88"/><line class="cls-7" x1="413.19" y1="275.7" x2="378.29" y2="275.7"/><line class="cls-7" x1="436.11" y1="275.7" x2="420.54" y2="275.7"/><line class="cls-7" x1="458.58" y1="275.7" x2="443.47" y2="275.7"/><polyline class="cls-7" points="393 225.74 474.15 225.74 477.21 230.65 478.66 232.99 479.32 234.03 489.04 249.66 489.69 250.72 491.15 253.06 493.65 257.07 505.24 275.69 465.94 275.69"/><polyline class="cls-9" points="285.14 244.46 364.28 244.46 387.05 244.46"/><polyline class="cls-9" points="364.28 244.46 353.57 279.38 350.01 290.99"/><path class="cls-10" d="M287.07,196.91v9.62a3.58,3.58,0,0,1-3.59,3.58h-1.54a3.58,3.58,0,0,1-3.59-3.58v-9.62Z"/><path class="cls-10" d="M303.58,196.91v9.62a3.58,3.58,0,0,1-3.59,3.58h-1.54a3.58,3.58,0,0,1-3.59-3.58v-9.62Z"/><path class="cls-10" d="M320.09,196.91v9.62a3.58,3.58,0,0,1-3.59,3.58H315a3.58,3.58,0,0,1-3.59-3.58v-9.62Z"/><path class="cls-10" d="M336.6,196.91v9.62a3.58,3.58,0,0,1-3.59,3.58h-1.54a3.58,3.58,0,0,1-3.59-3.58v-9.62Z"/><path class="cls-10" d="M353.11,196.91v9.62a3.58,3.58,0,0,1-3.59,3.58H348a3.58,3.58,0,0,1-3.59-3.58v-9.62Z"/><polyline class="cls-11" points="383.77 257.07 493.65 257.07 494.24 257.07"/><path class="cls-11" d="M478.66,233h-45.1a29.92,29.92,0,0,0-12.8,2.59c-3.28,1.61-5.31,3.83-5.31,6.27,0,4.9,8.11,8.87,18.11,8.87h56.13"/><rect class="cls-8" x="413.19" y="275.7" width="7.35" height="7.36"/><rect class="cls-8" x="436.11" y="275.7" width="7.36" height="7.36"/><rect class="cls-8" x="458.58" y="275.7" width="7.36" height="9.17"/><polyline class="cls-7" points="157.46 279.38 158.41 279.38 353.57 279.38"/><polygon class="cls-11" points="189.01 290.99 189.01 315.1 172.03 315.1 172.03 290.99 172.03 285.44 189.01 285.44 189.01 290.99"/><polygon class="cls-11" points="212.6 290.99 212.6 315.1 195.62 315.1 195.62 290.99 195.62 285.44 212.6 285.44 212.6 290.99"/><polygon class="cls-11" points="236.19 290.99 236.19 315.1 219.2 315.1 219.2 290.99 219.2 285.44 236.19 285.44 236.19 290.99"/><polygon class="cls-11" points="259.77 290.99 259.77 315.1 242.79 315.1 242.79 290.99 242.79 285.44 259.77 285.44 259.77 290.99"/><polygon class="cls-11" points="283.36 290.99 283.36 315.1 266.38 315.1 266.38 290.99 266.38 285.44 283.36 285.44 283.36 290.99"/><polyline class="cls-7" points="18.53 252.38 86.53 252.38 86.55 252.38"/><line class="cls-7" x1="18.53" y1="261.38" x2="85.52" y2="261.38"/><path class="cls-7" d="M143.58,255.5H105a4.75,4.75,0,0,1-4.74-4.75V248.7A4.74,4.74,0,0,1,105,244h38.6a4.75,4.75,0,0,1,4.75,4.75v2.05A4.75,4.75,0,0,1,143.58,255.5Z"/></g></g></svg>