<?xml version="1.0" encoding="utf-8"?>
<!-- Generator: Adobe Illustrator 25.3.0, SVG Export Plug-In . SVG Version: 6.00 Build 0)  -->
<svg version="1.1" xmlns="http://www.w3.org/2000/svg" xmlns:xlink="http://www.w3.org/1999/xlink" x="0px" y="0px"
	 viewBox="0 0 512 512" style="enable-background:new 0 0 512 512;" xml:space="preserve">
<style type="text/css">
	.st0{display:none;}
	.st1{display:inline;}
	.st2{fill:#212121;}
	.st3{fill:#363636;}
	.st4{fill:#1C1C1C;}
	.st5{fill:#404040;}
	.st6{fill:#8E8E8E;}
	.st7{fill:#91C9E8;}
	.st8{fill:#3399CC;}
	.st9{fill:#446E9E;}
	.st10{fill:#335377;}
	.st11{fill:#7B52AB;}
	.st12{fill:#36175E;}
	.st13{fill:#45BF55;}
	.st14{fill:#168039;}
	.st15{fill:#EE8900;}
	.st16{fill:#D95100;}
	.st17{fill:#FFBB00;}
	.st18{fill:#D19419;}
	.st19{fill:#BF1533;}
	.st20{fill:#9A0419;}
	.st21{fill:none;stroke:#000000;stroke-miterlimit:10;}
	.st22{display:inline;fill:none;stroke:#000000;stroke-miterlimit:10;}
	.st23{fill:none;stroke:#000000;stroke-linecap:round;stroke-linejoin:round;stroke-miterlimit:10;}
	.st24{fill:none;stroke:#000000;stroke-linecap:round;stroke-miterlimit:10;}
	.st25{fill:#FFFFFF;}
	.st26{fill:none;stroke:#000000;stroke-width:0.5;stroke-linecap:round;stroke-linejoin:round;}
	.st27{fill:#773533;}
	.st28{fill:#CC3344;}
	.st29{fill:#E89199;}
	.st30{fill:#33CC78;}
	.st31{fill:#91E8BA;}
	.st32{fill:#33775F;}
	.st33{fill:#8F33CC;}
	.st34{fill:#C791E8;}
	.st35{fill:#683377;}
</style>
<g id="BG" class="st0">
	<g class="st1">
		<rect x="-532" y="-264" class="st2" width="5008" height="1040"/>
	</g>
</g>
<g id="Refs">
</g>
<g id="Palette">
</g>
<g id="Layer_5">
</g>
<g id="Guide" class="st0">
</g>
<g id="BLUE">
	<g id="Spaceships">
		<g id="Small_x5F_2_1_">
			<g id="XMLID_24_">
				<g>
					<path class="st10" d="M410.2,244.7v59.1l-26.8-27.4c-5-5.1-11.3-8.1-17.9-9l11.7-16.6l-7-7l11.4-19.5L410.2,244.7z
						 M403.2,275.8v-22c0-2.2-1.8-4-4-4c-1.1,0-2.1,0.4-2.8,1.2c-0.7,0.7-1.2,1.7-1.2,2.8v22c0,2.2,1.8,4,4,4
						C401.4,279.8,403.2,278,403.2,275.8z"/>
					<polygon class="st5" points="410.2,235.2 410.2,244.7 381.6,224.2 322.1,181.8 322,181.8 322,181.7 322,181.7 314.3,176.8 
						314.3,220.8 314.2,220.8 314.2,167.2 321.8,172.2 321.9,172.2 322.2,172.8 322,172.3 					"/>
					<path class="st8" d="M403.2,253.8v22c0,2.2-1.8,4-4,4c-2.2,0-4-1.8-4-4v-22c0-1.1,0.5-2.1,1.2-2.8c0.7-0.7,1.7-1.2,2.8-1.2
						C401.4,249.8,403.2,251.5,403.2,253.8z"/>
					<path class="st6" d="M381.6,224.2l-11.4,19.5l7,7l-11.7,16.6h0c0,0-0.1,0-0.1,0c-7.9-1.1-16.2,0.9-23,6.1l-28.2,21.4v-35h19.9
						c2.6,0,4.9-0.9,6.8-2.3c2.6-2,4.3-5.2,4.3-8.8v-16.8c0-3.6-1.7-6.8-4.3-8.8c-1.9-1.4-4.2-2.3-6.8-2.3h-18.3l6.2-39l0.1,0
						L381.6,224.2z"/>
					<path class="st10" d="M345.2,231.9v16.8c0,3.6-1.7,6.8-4.3,8.8l-5.7-5.7v-23l5.7-5.7C343.5,225.1,345.2,228.3,345.2,231.9z"/>
					<path class="st10" d="M340.9,223.1l-5.7,5.7h-20.9v-8h1.5h18.3C336.6,220.8,339,221.6,340.9,223.1z"/>
					<path class="st10" d="M335.2,251.8l5.7,5.7c-1.9,1.5-4.2,2.3-6.8,2.3h-19.9v-8H335.2z"/>
					<path class="st5" d="M335.2,228.8v23h-21h-33.9c-3.9,0-7.1-3.2-7.1-7.1v-8.8c0-3.9,3.2-7.1,7.1-7.1h14.9h19h0.1H335.2z
						 M325.2,240.2c0-3.6-2.9-6.5-6.5-6.5s-6.5,2.9-6.5,6.5s2.9,6.5,6.5,6.5S325.2,243.8,325.2,240.2z M299.2,240.2
						c0-3.6-2.9-6.5-6.5-6.5s-6.5,2.9-6.5,6.5s2.9,6.5,6.5,6.5S299.2,243.8,299.2,240.2z"/>
					<circle class="st8" cx="318.7" cy="240.2" r="6.5"/>
					<polygon class="st6" points="322,172.3 322.2,172.8 321.9,172.2 322,172.3 					"/>
					<polygon class="st10" points="322,181.7 322,181.8 315.8,220.8 314.3,220.8 314.3,176.8 322,181.7 					"/>
					<polygon class="st5" points="274.9,59.2 322,172.3 321.9,172.2 321.8,172.2 314.2,167.2 302.5,139.2 302.5,139.2 302.5,139.2 
						302.5,139.1 270.9,63.2 241.1,63.2 209.5,139.1 209.5,139.2 209.5,139.2 209.5,139.2 197.8,167.2 190.2,172.2 190.1,172.2 
						190,172.3 237.1,59.2 					"/>
					<path class="st6" d="M318.5,385.4c2.4,8.8,3,18,1.8,27l-1.1,8.2c-0.3,1.9-0.9,3.8-1.8,5.4l-4.7-6.9c-0.9-1.3-1.9-2.5-2.9-3.6
						c0.6-3.9,1.1-8.4,1.1-13.3c0-13.8-1.7-25-3.8-25c-2.1,0-3.8,11.2-3.8,25c0,3,0.2,5.9,0.5,8.6c-2.6-1.5-5.4-2.5-8.3-3.1
						c-0.6-16-2.8-27.9-5.4-27.9s-4.8,11.9-5.4,27.9c-2.9,0.6-5.7,1.6-8.3,3.1c0.3-2.7,0.5-5.5,0.5-8.6c0-13.8-1.7-25-3.8-25
						s-3.8,11.2-3.8,25c0,4.9,0.5,9.4,1.1,13.3c-1,1.1-2,2.3-2.9,3.6L263,426c-0.9-1.6-1.5-3.5-1.8-5.4l-1.1-8.2
						c-1.2-9-0.6-18.2,1.8-27l4.3-15.4c1.2-4.3,5.1-7.3,9.6-7.3h2.4h24h2.5c4.5,0,8.4,3,9.6,7.3L318.5,385.4z"/>
					<path class="st10" d="M317.4,426L317.4,426c-2.8,5.2-8.2,8.7-14.5,8.7h-8.7c0.4-2.7,0.8-5.6,1-8.7c0.3-3.1,0.4-6.4,0.4-9.8
						c0-3,0-5.8-0.1-8.6c2.9,0.6,5.7,1.6,8.3,3.1c0.8,7.2,2.2,12.9,2.9,15.2c0.2,0.8,0.4,1.2,0.4,1.2s0.1-0.4,0.4-1.2
						c0.5-1.8,1.5-5.6,2.3-10.5c1,1.1,2,2.3,2.9,3.6L317.4,426z"/>
					<rect x="314.2" y="220.8" class="st6" width="0.1" height="8"/>
					<path class="st6" d="M314.2,294.8v22.5h-7v-34.7c0-6.5-5.3-11.8-11.8-11.8H285c-6.5,0-11.8,5.3-11.8,11.8v34.7h-34.4v-34.7
						c0-6.5-5.3-11.8-11.8-11.8h-10.4c-6.5,0-11.8,5.3-11.8,11.8v34.7h-7v-22.5v-35v-8h33.9c3.9,0,7.1-3.2,7.1-7.1v-8.8
						c0-3.9-3.2-7.1-7.1-7.1h-14.9v-30h78.4v30h-14.9c-3.9,0-7.1,3.2-7.1,7.1v8.8c0,3.9,3.2,7.1,7.1,7.1h33.9v8V294.8z M279.7,217.2
						c0-1.9-0.6-3.6-1.6-5c-0.3-0.4-0.5-0.7-0.9-1c-1.5-1.5-3.7-2.5-6-2.5h-30.4c-2.3,0-4.5,0.9-6,2.5c-0.3,0.3-0.6,0.6-0.9,1
						c-1,1.4-1.6,3.1-1.6,5c0,4.7,3.8,8.5,8.5,8.5h30.4C275.9,225.8,279.7,221.9,279.7,217.2z"/>
					<polygon class="st8" points="314.2,220.8 314.2,228.8 295.2,228.8 295.2,198.8 256.3,79.6 256,78.6 255.7,79.6 216.8,198.8 
						216.8,228.8 197.8,228.8 197.8,220.8 197.8,167.2 209.5,139.2 209.5,139.2 209.5,139.2 209.5,139.1 241.1,63.2 270.9,63.2 
						302.5,139.1 302.5,139.2 302.5,139.2 302.5,139.2 314.2,167.2 					"/>
					<path class="st8" d="M310.9,402.2c0,4.9-0.5,9.4-1.1,13.3c-1.8-1.9-3.8-3.5-6-4.7c-0.3-2.7-0.5-5.5-0.5-8.6
						c0-13.8,1.7-25,3.8-25C309.2,377.2,310.9,388.4,310.9,402.2z"/>
					<path class="st8" d="M309.8,415.5c-0.8,4.9-1.8,8.7-2.3,10.5h-0.7c-0.7-2.4-2.2-8-2.9-15.2C306,412.1,308,413.6,309.8,415.5z"
						/>
					<path class="st6" d="M306.8,426h0.7c-0.2,0.8-0.4,1.2-0.4,1.2S307,426.8,306.8,426z"/>
					<path class="st8" d="M307.2,317.2v2.8c0,1.5-1.2,2.7-2.7,2.7h-2.3h-24h-2.3c-1.5,0-2.7-1.2-2.7-2.7v-2.8v-34.7
						c0-6.5,5.3-11.8,11.8-11.8h10.4c6.5,0,11.8,5.3,11.8,11.8V317.2z M292.7,293.2c2.4-1,4-3.3,4-6c0-3.6-2.9-6.5-6.5-6.5
						s-6.5,2.9-6.5,6.5c0,2.7,1.6,5,4,6v8c-2.4,1-4,3.3-4,6c0,3.6,2.9,6.5,6.5,6.5s6.5-2.9,6.5-6.5c0-2.7-1.6-5-4-6V293.2z"/>
					<rect x="278.2" y="322.8" class="st5" width="24" height="40"/>
					<circle class="st8" cx="292.7" cy="240.2" r="6.5"/>
					<path class="st5" d="M296.7,287.2c0,2.7-1.6,5-4,6v-4c0-1.4-1.1-2.5-2.5-2.5c-0.7,0-1.3,0.3-1.8,0.7c-0.5,0.5-0.7,1.1-0.7,1.8
						v4c-2.4-1-4-3.3-4-6c0-3.6,2.9-6.5,6.5-6.5S296.7,283.7,296.7,287.2z"/>
					<path class="st5" d="M292.7,301.2c2.4,1,4,3.3,4,6c0,3.6-2.9,6.5-6.5,6.5s-6.5-2.9-6.5-6.5c0-2.7,1.6-5,4-6v3
						c0,1.4,1.1,2.5,2.5,2.5s2.5-1.1,2.5-2.5V301.2z"/>
					<path class="st8" d="M295.5,407.7c0.1,2.8,0.1,5.6,0.1,8.6c0,3.4-0.2,6.7-0.4,9.8c-0.2,3.1-0.6,6-1,8.7
						c-1.6,10.8-4.1,18-4.1,18s-2.4-7.2-4-18c-0.4-2.7-0.8-5.6-1-8.7c-0.3-3.1-0.4-6.4-0.4-9.8c0-3,0.1-5.8,0.1-8.6
						c0.6-16,2.8-27.9,5.4-27.9S295,391.7,295.5,407.7z"/>
					<path class="st5" d="M256.3,79.6l38.9,119.2l-23-26.9v-10v-10c-1.9-1.9-3.4-3.4-4.9-4.9l-1.3-1.3c-1.5-1.5-3-3-4.9-4.9h-10.2
						c-4.3,4.3-6.8,6.8-11.1,11.1v10v10l-23,26.9l38.9-119.2l0.3-1L256.3,79.6z"/>
					<path class="st5" d="M272.2,171.9l23,26.9h-78.4l23-26.9v4c0,3.2,2.6,5.9,5.9,5.9h10.1h10.5c3.2,0,5.9-2.6,5.9-5.9V171.9z"/>
					<path class="st10" d="M292.7,301.2v3c0,1.4-1.1,2.5-2.5,2.5s-2.5-1.1-2.5-2.5v-3v-8v-4c0-0.7,0.3-1.3,0.7-1.8
						c0.4-0.5,1.1-0.7,1.8-0.7c1.4,0,2.5,1.1,2.5,2.5v4V301.2z"/>
					<path class="st10" d="M286.1,434.8h-8.7c-6.2,0-11.7-3.5-14.5-8.7v0l4.6-6.9c0.9-1.3,1.9-2.5,2.9-3.6c0.8,4.9,1.8,8.7,2.3,10.5
						c0.2,0.8,0.4,1.2,0.4,1.2s0.1-0.4,0.4-1.2c0.7-2.4,2.2-8,2.9-15.2c2.6-1.5,5.4-2.5,8.3-3.1c-0.1,2.8-0.1,5.6-0.1,8.6
						c0,3.4,0.2,6.7,0.4,9.8C285.4,429.1,285.7,432.1,286.1,434.8z"/>
					<path class="st8" d="M232.3,217.2h47.4c0,4.7-3.8,8.5-8.5,8.5h-30.4C236.1,225.8,232.3,221.9,232.3,217.2z"/>
					<path class="st8" d="M279.7,217.2h-47.4c0-1.9,0.6-3.6,1.6-5c0.3-0.4,0.6-0.7,0.9-1c1.5-1.5,3.7-2.5,6-2.5h30.4
						c2.3,0,4.5,0.9,6,2.5c0.3,0.3,0.6,0.6,0.9,1C279.1,213.6,279.7,215.4,279.7,217.2z"/>
					<path class="st8" d="M277,402.2c0,3-0.2,5.9-0.5,8.6c-2.2,1.2-4.2,2.8-6,4.7c-0.6-3.9-1.1-8.4-1.1-13.3c0-13.8,1.7-25,3.8-25
						S277,388.4,277,402.2z"/>
					<path class="st8" d="M276.5,410.8c-0.8,7.2-2.2,12.9-2.9,15.2h-0.7c-0.5-1.8-1.5-5.6-2.3-10.5
						C272.3,413.6,274.4,412.1,276.5,410.8z"/>
					<path class="st6" d="M272.9,426h0.7c-0.2,0.8-0.4,1.2-0.4,1.2S273.1,426.8,272.9,426z"/>
					<path class="st8" d="M272.2,171.9v4c0,3.2-2.6,5.9-5.9,5.9h-10.5v-25.9c0,0,0,0,0,0h0c0,0,0,0,0,0c0,0,0,0,0,0s0,0,0,0h0h0h0
						c0,0,0,0,0,0h0c0,0,0,0,0,0c0,0,0,0,0,0h0h0c0,0,0,0,0,0h0.1c3.5,0.1,7,0.9,10.2,2.5c0.5,0.2,1.1,0.5,1.6,0.8
						c0.5,0.3,1,0.6,1.6,1l2.5,1.7V171.9z"/>
					<path class="st7" d="M272.2,151.8v10l-2.5-1.7c-0.5-0.3-1-0.7-1.6-1c-0.5-0.3-1.1-0.6-1.6-0.8c-3.2-1.6-6.7-2.4-10.2-2.5v0
						h-0.1h0h-0.1h0h-0.1h0c0,0,0,0-0.1,0c0,0,0,0,0,0h0h0c0,0,0,0,0,0h0h-0.1c0,0,0,0,0,0h-0.1h-0.1v0c-3.5,0.1-7,0.9-10.2,2.5
						c-0.5,0.2-1.1,0.5-1.6,0.8c-0.5,0.3-1,0.6-1.6,1l-2.5,1.7v-10c4.3-4.3,6.8-6.8,11.1-11.1h10.2c1.9,1.9,3.4,3.4,4.9,4.9l1.3,1.3
						C268.8,148.4,270.3,149.9,272.2,151.8z"/>
					<path class="st6" d="M256.3,155.9L256.3,155.9C256.3,155.9,256.3,155.9,256.3,155.9L256.3,155.9z"/>
					<path class="st6" d="M256.3,155.9h-0.1v0L256.3,155.9L256.3,155.9C256.3,155.9,256.3,155.9,256.3,155.9z"/>
					<path class="st6" d="M256.2,155.9L256.2,155.9C256.2,155.9,256.2,155.9,256.2,155.9L256.2,155.9L256.2,155.9z"/>
					<path class="st6" d="M256.2,155.9L256.2,155.9L256.2,155.9L256.2,155.9C256.1,155.9,256.1,155.9,256.2,155.9L256.2,155.9
						L256.2,155.9z"/>
					<path class="st6" d="M256.1,155.9L256.1,155.9C256.1,155.9,256.1,155.9,256.1,155.9L256.1,155.9
						C256,155.9,256.1,155.9,256.1,155.9L256.1,155.9z"/>
					<path class="st6" d="M255.9,155.9C255.9,155.9,255.9,155.9,255.9,155.9L255.9,155.9C255.9,155.9,255.9,155.9,255.9,155.9
						L255.9,155.9L255.9,155.9z"/>
					<path class="st6" d="M255.9,155.9L255.9,155.9C255.9,155.9,255.9,155.9,255.9,155.9C255.9,155.9,255.9,155.9,255.9,155.9
						L255.9,155.9L255.9,155.9L255.9,155.9z"/>
					<path class="st6" d="M255.8,155.9L255.8,155.9C255.8,155.9,255.8,155.9,255.8,155.9L255.8,155.9
						C255.8,155.9,255.8,155.9,255.8,155.9z"/>
					<path class="st8" d="M255.8,155.9v25.9h-10.1c-3.2,0-5.9-2.6-5.9-5.9v-4v-10l2.5-1.7c0.5-0.3,1-0.7,1.6-1
						c0.5-0.3,1.1-0.6,1.6-0.8c3.2-1.6,6.7-2.4,10.2-2.5H255.8z"/>
					<path class="st6" d="M255.8,155.9L255.8,155.9l-0.1,0C255.7,155.9,255.7,155.9,255.8,155.9L255.8,155.9z"/>
					<path class="st6" d="M255.8,155.9C255.7,155.9,255.7,155.9,255.8,155.9L255.8,155.9L255.8,155.9z"/>
					<path class="st6" d="M250.1,385.4c2.4,8.8,3.1,18,1.8,27l-1.1,8.2c-0.3,1.9-0.9,3.8-1.8,5.4l-4.6-6.9c-0.9-1.3-1.9-2.5-2.9-3.6
						c0.6-3.9,1.1-8.4,1.1-13.3c0-13.8-1.7-25-3.8-25s-3.8,11.2-3.8,25c0,3,0.2,5.9,0.5,8.6c-2.6-1.5-5.4-2.5-8.3-3.1
						c-0.6-16-2.8-27.9-5.3-27.9c-2.6,0-4.8,11.9-5.4,27.9c-2.9,0.6-5.7,1.6-8.3,3.1c0.3-2.7,0.5-5.5,0.5-8.6c0-13.8-1.7-25-3.8-25
						c-2.1,0-3.8,11.2-3.8,25c0,4.9,0.5,9.4,1.1,13.3c-1,1.1-2,2.3-2.9,3.6l-4.6,6.9c-0.9-1.6-1.5-3.5-1.8-5.4l-1.1-8.2
						c-1.2-9-0.6-18.2,1.8-27l4.3-15.4c1.2-4.3,5.1-7.3,9.6-7.3h2.5h24h2.4c4.5,0,8.4,3,9.6,7.3L250.1,385.4z"/>
					<path class="st10" d="M249,426L249,426c-2.8,5.2-8.2,8.7-14.4,8.7h-8.7c0.4-2.7,0.8-5.6,1-8.7c0.3-3.1,0.4-6.4,0.4-9.8
						c0-3-0.1-5.8-0.2-8.6c2.9,0.6,5.7,1.6,8.3,3.1c0.8,7.2,2.2,12.9,2.9,15.2c0.2,0.8,0.4,1.2,0.4,1.2s0.1-0.4,0.4-1.2
						c0.5-1.8,1.5-5.6,2.3-10.5c1,1.1,2,2.3,2.9,3.6L249,426z"/>
					<path class="st8" d="M242.6,402.2c0,4.9-0.5,9.4-1.1,13.3c-1.8-1.9-3.8-3.5-6-4.7c-0.3-2.7-0.5-5.5-0.5-8.6
						c0-13.8,1.7-25,3.8-25S242.6,388.4,242.6,402.2z"/>
					<path class="st8" d="M241.5,415.5c-0.8,4.9-1.8,8.7-2.3,10.5h-0.7c-0.7-2.4-2.2-8-2.9-15.2
						C237.6,412.1,239.7,413.6,241.5,415.5z"/>
					<path class="st6" d="M238.4,426h0.7c-0.2,0.8-0.4,1.2-0.4,1.2S238.6,426.8,238.4,426z"/>
					<path class="st8" d="M238.8,317.2v2.8c0,1.5-1.2,2.7-2.7,2.7h-2.3h-24h-2.3c-1.5,0-2.7-1.2-2.7-2.7v-2.8v-34.7
						c0-6.5,5.3-11.8,11.8-11.8H227c6.5,0,11.8,5.3,11.8,11.8V317.2z M224.3,293.2c2.3-1,4-3.3,4-6c0-3.6-2.9-6.5-6.5-6.5
						c-3.6,0-6.5,2.9-6.5,6.5c0,2.7,1.6,5,4,6v8c-2.4,1-4,3.3-4,6c0,3.6,2.9,6.5,6.5,6.5c3.6,0,6.5-2.9,6.5-6.5c0-2.7-1.7-5-4-6
						V293.2z"/>
					<path class="st5" d="M238.8,235.9v8.8c0,3.9-3.2,7.1-7.1,7.1h-33.9h-21v-23h20.9h0.1h19h14.9
						C235.6,228.8,238.8,231.9,238.8,235.9z M225.8,240.2c0-3.6-2.9-6.5-6.5-6.5c-3.6,0-6.5,2.9-6.5,6.5s2.9,6.5,6.5,6.5
						C222.9,246.8,225.8,243.8,225.8,240.2z M199.8,240.2c0-3.6-2.9-6.5-6.5-6.5c-3.6,0-6.5,2.9-6.5,6.5s2.9,6.5,6.5,6.5
						C196.9,246.8,199.8,243.8,199.8,240.2z"/>
					<rect x="209.8" y="322.8" class="st5" width="24" height="40"/>
					<path class="st5" d="M228.3,287.2c0,2.7-1.7,5-4,6v-4c0-0.7-0.3-1.3-0.7-1.8c-0.4-0.5-1.1-0.7-1.8-0.7c-1.4,0-2.5,1.1-2.5,2.5
						v4c-2.4-1-4-3.3-4-6c0-3.6,2.9-6.5,6.5-6.5C225.4,280.8,228.3,283.7,228.3,287.2z"/>
					<path class="st5" d="M224.3,301.2c2.3,1,4,3.3,4,6c0,3.6-2.9,6.5-6.5,6.5c-3.6,0-6.5-2.9-6.5-6.5c0-2.7,1.6-5,4-6v3
						c0,1.4,1.1,2.5,2.5,2.5c1.4,0,2.5-1.1,2.5-2.5V301.2z"/>
					<path class="st8" d="M227.2,407.7c0.1,2.8,0.2,5.6,0.2,8.6c0,3.4-0.2,6.7-0.4,9.8c-0.2,3.1-0.6,6-1,8.7c-1.6,10.8-4,18-4,18
						s-2.4-7.2-4.1-18c-0.4-2.7-0.8-5.6-1-8.7c-0.3-3.1-0.4-6.4-0.4-9.8c0-3,0-5.8,0.1-8.6c0.6-16,2.8-27.9,5.4-27.9
						C224.4,379.8,226.6,391.7,227.2,407.7z"/>
					<circle class="st8" cx="219.3" cy="240.2" r="6.5"/>
					<path class="st10" d="M224.3,301.2v3c0,1.4-1.1,2.5-2.5,2.5c-1.4,0-2.5-1.1-2.5-2.5v-3v-8v-4c0-1.4,1.1-2.5,2.5-2.5
						c0.7,0,1.3,0.3,1.8,0.7c0.4,0.5,0.7,1.1,0.7,1.8v4V301.2z"/>
					<path class="st10" d="M217.8,434.8h-8.7c-6.2,0-11.7-3.5-14.4-8.7v0l4.6-6.9c0.9-1.3,1.9-2.5,2.9-3.6c0.8,4.9,1.8,8.7,2.3,10.5
						c0.2,0.8,0.4,1.2,0.4,1.2s0.1-0.4,0.4-1.2c0.7-2.4,2.2-8,2.9-15.2c2.6-1.5,5.4-2.5,8.3-3.1c-0.1,2.8-0.1,5.6-0.1,8.6
						c0,3.4,0.2,6.7,0.4,9.8C217,429.1,217.4,432.1,217.8,434.8z"/>
					<path class="st8" d="M208.6,402.2c0,3-0.2,5.9-0.5,8.6c-2.2,1.2-4.2,2.8-6,4.7c-0.6-3.9-1.1-8.4-1.1-13.3c0-13.8,1.7-25,3.8-25
						C206.9,377.2,208.6,388.4,208.6,402.2z"/>
					<path class="st8" d="M208.2,410.8c-0.8,7.2-2.2,12.9-2.9,15.2h-0.7c-0.5-1.8-1.5-5.6-2.3-10.5C204,413.6,206,412.1,208.2,410.8
						z"/>
					<path class="st6" d="M204.5,426h0.7c-0.2,0.8-0.4,1.2-0.4,1.2S204.7,426.8,204.5,426z"/>
					<circle class="st8" cx="193.3" cy="240.2" r="6.5"/>
					<path class="st6" d="M197.8,259.8v35l-28.2-21.4c-6.8-5.2-15.1-7.1-23-6.1c0,0-0.1,0-0.1,0h0l-11.7-16.6l7-7l-11.4-19.5
						l59.5-42.5l0.1,0l6.2,39h-18.3c-2.6,0-4.9,0.9-6.8,2.3c-2.6,2-4.3,5.2-4.3,8.8v16.8c0,3.6,1.7,6.8,4.3,8.8
						c1.9,1.5,4.2,2.3,6.8,2.3H197.8z"/>
					<path class="st10" d="M197.8,251.8v8h-19.9c-2.6,0-4.9-0.9-6.8-2.3l5.7-5.7H197.8z"/>
					<rect x="197.7" y="220.8" class="st6" width="0.1" height="8"/>
					<polygon class="st5" points="197.8,167.2 197.8,220.8 197.7,220.8 197.7,176.8 190,181.7 190,181.7 190,181.8 189.9,181.8 
						130.4,224.2 101.8,244.7 101.8,235.2 190,172.3 189.8,172.8 190.1,172.2 190.2,172.2 					"/>
					<path class="st10" d="M197.7,220.8v8h-20.9l-5.7-5.7c1.9-1.4,4.2-2.3,6.8-2.3h18.3H197.7z"/>
					<polygon class="st10" points="197.7,176.8 197.7,220.8 196.2,220.8 190,181.8 190,181.7 190,181.7 					"/>
					<polygon class="st6" points="190.1,172.2 189.8,172.8 190,172.3 190,172.3 					"/>
					<path class="st10" d="M176.8,228.8v23l-5.7,5.7c-2.6-2-4.3-5.2-4.3-8.8v-16.8c0-3.6,1.7-6.8,4.3-8.8L176.8,228.8z"/>
					<path class="st10" d="M134.8,250.8l11.7,16.6c-6.6,0.9-12.9,4-17.9,9l-26.8,27.4v-59.1l28.6-20.4l11.4,19.5L134.8,250.8z
						 M116.8,275.8v-22c0-1.1-0.4-2.1-1.2-2.8c-0.7-0.7-1.7-1.2-2.8-1.2c-2.2,0-4,1.8-4,4v22c0,2.2,1.8,4,4,4S116.8,278,116.8,275.8
						z"/>
					<path class="st8" d="M116.8,253.8v22c0,2.2-1.8,4-4,4s-4-1.8-4-4v-22c0-2.2,1.8-4,4-4c1.1,0,2.1,0.4,2.8,1.2
						C116.4,251.6,116.8,252.6,116.8,253.8z"/>
				</g>
				<g>
					<line class="st21" x1="171.1" y1="223.1" x2="176.8" y2="228.8"/>
					<line class="st21" x1="197.7" y1="228.8" x2="197.7" y2="220.8"/>
					<path class="st21" d="M233.8,322.8h2.3c1.5,0,2.7-1.2,2.7-2.7v-2.8"/>
					<path class="st21" d="M204.8,317.2v2.8c0,1.5,1.2,2.7,2.7,2.7h2.3"/>
					<polyline class="st21" points="209.8,362.8 209.8,322.8 233.8,322.8 233.8,362.8 					"/>
					<path class="st21" d="M217.8,434.8h-8.7c-6.2,0-11.7-3.5-14.4-8.7v0"/>
					<path class="st21" d="M249,426L249,426c-2.8,5.2-8.2,8.7-14.4,8.7h-8.7"/>
					<path class="st21" d="M202.2,415.5c-1,1.1-2,2.3-2.9,3.6l-4.6,6.9c-0.9-1.6-1.5-3.5-1.8-5.4l-1.1-8.2c-1.2-9-0.6-18.2,1.8-27
						l4.3-15.4c1.2-4.3,5.1-7.3,9.6-7.3h2.5h24h2.4c4.5,0,8.4,3,9.6,7.3l4.3,15.4c2.4,8.8,3.1,18,1.8,27l-1.1,8.2
						c-0.3,1.9-0.9,3.8-1.8,5.4l-4.6-6.9c-0.9-1.3-1.9-2.5-2.9-3.6"/>
					<path class="st21" d="M216.5,407.7c-2.9,0.6-5.7,1.6-8.3,3.1"/>
					<path class="st21" d="M235.5,410.8c-2.6-1.5-5.4-2.5-8.3-3.1"/>
					<path class="st21" d="M227.2,407.7c0.1,2.8,0.2,5.6,0.2,8.6c0,3.4-0.2,6.7-0.4,9.8c-0.2,3.1-0.6,6-1,8.7c-1.6,10.8-4,18-4,18
						s-2.4-7.2-4.1-18c-0.4-2.7-0.8-5.6-1-8.7c-0.3-3.1-0.4-6.4-0.4-9.8c0-3,0-5.8,0.1-8.6c0.6-16,2.8-27.9,5.4-27.9
						C224.4,379.8,226.6,391.7,227.2,407.7z"/>
					<path class="st21" d="M235.5,410.8c-0.3-2.7-0.5-5.5-0.5-8.6c0-13.8,1.7-25,3.8-25s3.8,11.2,3.8,25c0,4.9-0.5,9.4-1.1,13.3
						c-0.8,4.9-1.8,8.7-2.3,10.5c-0.2,0.8-0.4,1.2-0.4,1.2s-0.1-0.4-0.4-1.2C237.7,423.7,236.2,418,235.5,410.8z"/>
					<path class="st21" d="M202.2,415.5c-0.6-3.9-1.1-8.4-1.1-13.3c0-13.8,1.7-25,3.8-25c2.1,0,3.8,11.2,3.8,25c0,3-0.2,5.9-0.5,8.6
						c-0.8,7.2-2.2,12.9-2.9,15.2c-0.2,0.8-0.4,1.2-0.4,1.2s-0.1-0.4-0.4-1.2C203.9,424.2,202.9,420.5,202.2,415.5z"/>
					<path class="st21" d="M219.3,293.2c-2.4-1-4-3.3-4-6c0-3.6,2.9-6.5,6.5-6.5c3.6,0,6.5,2.9,6.5,6.5c0,2.7-1.7,5-4,6"/>
					<path class="st21" d="M224.3,301.2c2.3,1,4,3.3,4,6c0,3.6-2.9,6.5-6.5,6.5c-3.6,0-6.5-2.9-6.5-6.5c0-2.7,1.6-5,4-6"/>
					<path class="st21" d="M219.3,293.2v-4c0-1.4,1.1-2.5,2.5-2.5c0.7,0,1.3,0.3,1.8,0.7c0.4,0.5,0.7,1.1,0.7,1.8v4v8v3
						c0,1.4-1.1,2.5-2.5,2.5c-1.4,0-2.5-1.1-2.5-2.5v-3V293.2z"/>
					<line class="st21" x1="197.8" y1="220.8" x2="197.7" y2="220.8"/>
					<polyline class="st21" points="101.8,244.7 101.8,235.2 190,172.3 					"/>
					<path class="st21" d="M197.8,294.8l-28.2-21.4c-6.8-5.2-15.1-7.1-23-6.1c0,0-0.1,0-0.1,0h0"/>
					<path class="st21" d="M196.2,220.8h-18.3c-2.6,0-4.9,0.9-6.8,2.3c-2.6,2-4.3,5.2-4.3,8.8v16.8c0,3.6,1.7,6.8,4.3,8.8
						c1.9,1.5,4.2,2.3,6.8,2.3h19.9"/>
					<path class="st21" d="M146.5,267.3c-6.6,0.9-12.9,4-17.9,9l-26.8,27.4v-59.1l28.6-20.4l11.4,19.5l-7,7L146.5,267.3z"/>
					<polyline class="st21" points="190.1,172.2 189.8,172.8 190,172.3 190,172.3 					"/>
					<polyline class="st21" points="197.8,228.8 197.7,228.8 176.8,228.8 176.8,251.8 197.8,251.8 					"/>
					<line class="st21" x1="176.8" y1="251.8" x2="171.1" y2="257.4"/>
					<circle class="st21" cx="193.3" cy="240.2" r="6.5"/>
					<circle class="st21" cx="219.3" cy="240.2" r="6.5"/>
					<polygon class="st21" points="190,181.8 190,181.7 190,181.7 197.7,176.8 197.7,220.8 196.2,220.8 					"/>
					<line class="st21" x1="189.9" y1="181.8" x2="130.4" y2="224.2"/>
					<line class="st21" x1="101.8" y1="244.7" x2="101.7" y2="244.8"/>
					<line class="st21" x1="146.8" y1="267.8" x2="146.5" y2="267.3"/>
					<path class="st21" d="M112.8,279.8c-2.2,0-4-1.8-4-4v-22c0-2.2,1.8-4,4-4c1.1,0,2.1,0.4,2.8,1.2c0.7,0.7,1.2,1.7,1.2,2.8v22
						C116.8,278,115,279.8,112.8,279.8z"/>
					<line class="st21" x1="239.8" y1="161.9" x2="239.8" y2="171.9"/>
					<path class="st21" d="M302.2,322.8h2.3c1.5,0,2.7-1.2,2.7-2.7v-2.8"/>
					<path class="st21" d="M273.2,317.2v2.8c0,1.5,1.2,2.7,2.7,2.7h2.3"/>
					<polyline class="st21" points="302.2,362.8 302.2,322.8 278.2,322.8 278.2,362.8 					"/>
					<path class="st21" d="M263,426c-0.9-1.6-1.5-3.5-1.8-5.4l-1.1-8.2c-1.2-9-0.6-18.2,1.8-27l4.3-15.4c1.2-4.3,5.1-7.3,9.6-7.3
						h2.4h24h2.5c4.5,0,8.4,3,9.6,7.3l4.3,15.4c2.4,8.8,3,18,1.8,27l-1.1,8.2c-0.3,1.9-0.9,3.8-1.8,5.4"/>
					<path class="st21" d="M276.5,410.8c2.6-1.5,5.4-2.5,8.3-3.1"/>
					<path class="st21" d="M286.1,434.8h-8.7c-6.2,0-11.7-3.5-14.5-8.7v0l4.6-6.9c0.9-1.3,1.9-2.5,2.9-3.6"/>
					<path class="st21" d="M309.8,415.5c1,1.1,2,2.3,2.9,3.6l4.7,6.9v0c-2.8,5.2-8.2,8.7-14.5,8.7h-8.7"/>
					<path class="st21" d="M295.5,407.7c2.9,0.6,5.7,1.6,8.3,3.1"/>
					<path class="st21" d="M295.5,407.7c0.1,2.8,0.1,5.6,0.1,8.6c0,3.4-0.2,6.7-0.4,9.8c-0.2,3.1-0.6,6-1,8.7
						c-1.6,10.8-4.1,18-4.1,18s-2.4-7.2-4-18c-0.4-2.7-0.8-5.6-1-8.7c-0.3-3.1-0.4-6.4-0.4-9.8c0-3,0.1-5.8,0.1-8.6
						c0.6-16,2.8-27.9,5.4-27.9S295,391.7,295.5,407.7z"/>
					<path class="st21" d="M270.5,415.5c-0.6-3.9-1.1-8.4-1.1-13.3c0-13.8,1.7-25,3.8-25s3.8,11.2,3.8,25c0,3-0.2,5.9-0.5,8.6
						c-0.8,7.2-2.2,12.9-2.9,15.2c-0.2,0.8-0.4,1.2-0.4,1.2s-0.1-0.4-0.4-1.2C272.3,424.2,271.3,420.5,270.5,415.5z"/>
					<path class="st21" d="M303.8,410.8c-0.3-2.7-0.5-5.5-0.5-8.6c0-13.8,1.7-25,3.8-25c2.1,0,3.8,11.2,3.8,25
						c0,4.9-0.5,9.4-1.1,13.3c-0.8,4.9-1.8,8.7-2.3,10.5c-0.2,0.8-0.4,1.2-0.4,1.2s-0.1-0.4-0.4-1.2
						C306.1,423.7,304.6,418,303.8,410.8z"/>
					<path class="st21" d="M287.7,293.2c-2.4-1-4-3.3-4-6c0-3.6,2.9-6.5,6.5-6.5s6.5,2.9,6.5,6.5c0,2.7-1.6,5-4,6"/>
					<path class="st21" d="M292.7,301.2c2.4,1,4,3.3,4,6c0,3.6-2.9,6.5-6.5,6.5s-6.5-2.9-6.5-6.5c0-2.7,1.6-5,4-6"/>
					<path class="st21" d="M287.7,293.2v-4c0-0.7,0.3-1.3,0.7-1.8c0.4-0.5,1.1-0.7,1.8-0.7c1.4,0,2.5,1.1,2.5,2.5v4v8v3
						c0,1.4-1.1,2.5-2.5,2.5s-2.5-1.1-2.5-2.5v-3V293.2z"/>
					<path class="st21" d="M216.8,228.8h14.9c3.9,0,7.1,3.2,7.1,7.1v8.8c0,3.9-3.2,7.1-7.1,7.1h-33.9v8v35v22.5h7v-34.7
						c0-6.5,5.3-11.8,11.8-11.8H227c6.5,0,11.8,5.3,11.8,11.8v34.7h34.4v-34.7c0-6.5,5.3-11.8,11.8-11.8h10.4
						c6.5,0,11.8,5.3,11.8,11.8v34.7h7v-22.5"/>
					<path class="st21" d="M272.2,171.9l23,26.9h-78.4l23-26.9v4c0,3.2,2.6,5.9,5.9,5.9h10.1"/>
					<path class="st21" d="M365.5,267.3c0,0-0.1,0-0.1,0c-7.9-1.1-16.2,0.9-23,6.1l-28.2,21.4v-35"/>
					<path class="st21" d="M322,172.3l88.2,63v9.4v59.1l-26.8-27.4c-5-5.1-11.3-8.1-17.9-9"/>
					<path class="st21" d="M315.8,220.8h18.3c2.6,0,4.9,0.9,6.8,2.3"/>
					<polyline class="st21" points="314.2,220.8 314.3,220.8 314.3,228.8 					"/>
					<path class="st21" d="M335.2,228.8l5.7-5.7c2.6,2,4.3,5.2,4.3,8.8v16.8c0,3.6-1.7,6.8-4.3,8.8c-1.9,1.5-4.2,2.3-6.8,2.3h-19.9
						v-8"/>
					<polyline class="st21" points="197.8,167.2 190.2,172.2 190.1,172.2 190,172.3 237.1,59.2 274.9,59.2 322,172.3 					"/>
					<polyline class="st21" points="321.9,172.2 321.8,172.2 314.2,167.2 					"/>
					<polygon class="st21" points="322,172.3 322.2,172.8 321.9,172.2 322,172.3 					"/>
					<path class="st21" d="M272.2,161.9v10v4c0,3.2-2.6,5.9-5.9,5.9h-10.5v-25.9"/>
					<path class="st21" d="M295.2,228.8h-14.9c-3.9,0-7.1,3.2-7.1,7.1v8.8c0,3.9,3.2,7.1,7.1,7.1h33.9h21v-23h-20.9h-0.1"/>
					<line class="st21" x1="335.2" y1="251.8" x2="340.9" y2="257.4"/>
					<circle class="st21" cx="318.7" cy="240.2" r="6.5"/>
					<circle class="st21" cx="292.7" cy="240.2" r="6.5"/>
					<path class="st21" d="M255.7,155.9c-3.5,0.1-7,0.9-10.2,2.5c-0.5,0.2-1.1,0.5-1.6,0.8c-0.5,0.3-1,0.6-1.6,1l-2.5,1.7v-10
						c4.3-4.3,6.8-6.8,11.1-11.1h10.2c1.9,1.9,3.4,3.4,4.9,4.9l1.3,1.3c1.5,1.5,3,3,4.9,4.9v10l-2.5-1.7c-0.5-0.3-1-0.7-1.6-1
						c-0.5-0.3-1.1-0.6-1.6-0.8c-3.2-1.6-6.7-2.4-10.2-2.5"/>
					<path class="st21" d="M255.8,155.9L255.8,155.9L255.8,155.9c0.1,0,0.1,0,0.1,0h0h0c0,0,0,0,0,0"/>
					<path class="st21" d="M255.9,155.9L255.9,155.9C255.9,155.9,255.9,155.9,255.9,155.9C255.9,155.9,255.9,155.9,255.9,155.9"/>
					<polyline class="st21" points="256.2,155.9 256.2,155.9 256.2,155.9 256.3,155.9 256.3,155.9 256.2,155.9 					"/>
					<path class="st21" d="M255.9,155.9C255.9,155.9,255.9,155.9,255.9,155.9L255.9,155.9C255.8,155.9,255.8,155.9,255.9,155.9h-0.2
						v0L255.9,155.9L255.9,155.9C255.8,155.9,255.8,155.9,255.9,155.9L255.9,155.9"/>
					<path class="st21" d="M256.2,155.9L256.2,155.9C256.2,155.9,256.2,155.9,256.2,155.9L256.2,155.9L256.2,155.9
						C256.1,155.9,256.1,155.9,256.2,155.9c-0.1,0-0.1,0-0.1,0h0C256,155.9,256.1,155.9,256.2,155.9L256.2,155.9L256.2,155.9
						L256.2,155.9z"/>
					<path class="st21" d="M255.7,155.9C255.7,155.9,255.7,155.9,255.7,155.9"/>
					<polygon class="st21" points="314.3,220.8 314.3,176.8 322,181.7 322,181.7 322,181.8 315.8,220.8 					"/>
					<polyline class="st21" points="410.3,244.8 410.2,244.7 381.6,224.2 322.1,181.8 					"/>
					<polyline class="st21" points="381.6,224.2 370.2,243.8 377.2,250.8 365.5,267.3 365.5,267.3 365.2,267.8 					"/>
					<path class="st21" d="M399.2,279.8c2.2,0,4-1.8,4-4v-22c0-2.2-1.8-4-4-4c-1.1,0-2.1,0.4-2.8,1.2c-0.7,0.7-1.2,1.7-1.2,2.8v22
						C395.2,278,397,279.8,399.2,279.8z"/>
					<path class="st21" d="M232.3,217.2c0-1.9,0.6-3.6,1.6-5c0.3-0.4,0.6-0.7,0.9-1c1.5-1.5,3.7-2.5,6-2.5h30.4c2.3,0,4.5,0.9,6,2.5
						c0.3,0.3,0.6,0.6,0.9,1c1,1.4,1.6,3.1,1.6,5"/>
					<path class="st21" d="M279.7,217.2c0,4.7-3.8,8.5-8.5,8.5h-30.4c-4.7,0-8.5-3.8-8.5-8.5H279.7z"/>
					<polygon class="st21" points="314.2,167.2 314.2,220.8 314.2,228.8 295.2,228.8 295.2,198.8 256.3,79.6 256,78.6 255.7,79.6 
						216.8,198.8 216.8,228.8 197.8,228.8 197.8,220.8 197.8,167.2 209.5,139.2 209.5,139.2 209.5,139.2 209.5,139.1 241.1,63.2 
						270.9,63.2 302.5,139.1 302.5,139.2 302.5,139.2 302.5,139.2 					"/>
				</g>
			</g>
		</g>
	</g>
</g>
<g id="RED">
	<g id="Spaceships_1_">
		<g id="Small_x5F_2_2_">
			<g id="XMLID_28_">
				<g>
					<path class="st27" d="M410.2,244.7v59.1l-26.8-27.4c-5-5.1-11.3-8.1-17.9-9l11.7-16.6l-7-7l11.4-19.5L410.2,244.7z
						 M403.2,275.8v-22c0-2.2-1.8-4-4-4c-1.1,0-2.1,0.4-2.8,1.2c-0.7,0.7-1.2,1.7-1.2,2.8v22c0,2.2,1.8,4,4,4
						C401.4,279.8,403.2,278,403.2,275.8z"/>
					<polygon class="st5" points="410.2,235.2 410.2,244.7 381.6,224.2 322.1,181.8 322,181.8 322,181.7 322,181.7 314.3,176.8 
						314.3,220.8 314.2,220.8 314.2,167.2 321.8,172.2 321.9,172.2 322.2,172.8 322,172.3 					"/>
					<path class="st28" d="M403.2,253.8v22c0,2.2-1.8,4-4,4c-2.2,0-4-1.8-4-4v-22c0-1.1,0.5-2.1,1.2-2.8c0.7-0.7,1.7-1.2,2.8-1.2
						C401.4,249.8,403.2,251.5,403.2,253.8z"/>
					<path class="st6" d="M381.6,224.2l-11.4,19.5l7,7l-11.7,16.6h0c0,0-0.1,0-0.1,0c-7.9-1.1-16.2,0.9-23,6.1l-28.2,21.4v-35h19.9
						c2.6,0,4.9-0.9,6.8-2.3c2.6-2,4.3-5.2,4.3-8.8v-16.8c0-3.6-1.7-6.8-4.3-8.8c-1.9-1.4-4.2-2.3-6.8-2.3h-18.3l6.2-39l0.1,0
						L381.6,224.2z"/>
					<path class="st27" d="M345.2,231.9v16.8c0,3.6-1.7,6.8-4.3,8.8l-5.7-5.7v-23l5.7-5.7C343.5,225.1,345.2,228.3,345.2,231.9z"/>
					<path class="st27" d="M340.9,223.1l-5.7,5.7h-20.9v-8h1.5h18.3C336.6,220.8,339,221.6,340.9,223.1z"/>
					<path class="st27" d="M335.2,251.8l5.7,5.7c-1.9,1.5-4.2,2.3-6.8,2.3h-19.9v-8H335.2z"/>
					<path class="st5" d="M335.2,228.8v23h-21h-33.9c-3.9,0-7.1-3.2-7.1-7.1v-8.8c0-3.9,3.2-7.1,7.1-7.1h14.9h19h0.1H335.2z
						 M325.2,240.2c0-3.6-2.9-6.5-6.5-6.5s-6.5,2.9-6.5,6.5s2.9,6.5,6.5,6.5S325.2,243.8,325.2,240.2z M299.2,240.2
						c0-3.6-2.9-6.5-6.5-6.5s-6.5,2.9-6.5,6.5s2.9,6.5,6.5,6.5S299.2,243.8,299.2,240.2z"/>
					<circle class="st28" cx="318.7" cy="240.2" r="6.5"/>
					<polygon class="st6" points="322,172.3 322.2,172.8 321.9,172.2 322,172.3 					"/>
					<polygon class="st27" points="322,181.7 322,181.8 315.8,220.8 314.3,220.8 314.3,176.8 322,181.7 					"/>
					<polygon class="st5" points="274.9,59.2 322,172.3 321.9,172.2 321.8,172.2 314.2,167.2 302.5,139.2 302.5,139.2 302.5,139.2 
						302.5,139.1 270.9,63.2 241.1,63.2 209.5,139.1 209.5,139.2 209.5,139.2 209.5,139.2 197.8,167.2 190.2,172.2 190.1,172.2 
						190,172.3 237.1,59.2 					"/>
					<path class="st6" d="M318.5,385.4c2.4,8.8,3,18,1.8,27l-1.1,8.2c-0.3,1.9-0.9,3.8-1.8,5.4l-4.7-6.9c-0.9-1.3-1.9-2.5-2.9-3.6
						c0.6-3.9,1.1-8.4,1.1-13.3c0-13.8-1.7-25-3.8-25c-2.1,0-3.8,11.2-3.8,25c0,3,0.2,5.9,0.5,8.6c-2.6-1.5-5.4-2.5-8.3-3.1
						c-0.6-16-2.8-27.9-5.4-27.9s-4.8,11.9-5.4,27.9c-2.9,0.6-5.7,1.6-8.3,3.1c0.3-2.7,0.5-5.5,0.5-8.6c0-13.8-1.7-25-3.8-25
						s-3.8,11.2-3.8,25c0,4.9,0.5,9.4,1.1,13.3c-1,1.1-2,2.3-2.9,3.6L263,426c-0.9-1.6-1.5-3.5-1.8-5.4l-1.1-8.2
						c-1.2-9-0.6-18.2,1.8-27l4.3-15.4c1.2-4.3,5.1-7.3,9.6-7.3h2.4h24h2.5c4.5,0,8.4,3,9.6,7.3L318.5,385.4z"/>
					<path class="st27" d="M317.4,426L317.4,426c-2.8,5.2-8.2,8.7-14.5,8.7h-8.7c0.4-2.7,0.8-5.6,1-8.7c0.3-3.1,0.4-6.4,0.4-9.8
						c0-3,0-5.8-0.1-8.6c2.9,0.6,5.7,1.6,8.3,3.1c0.8,7.2,2.2,12.9,2.9,15.2c0.2,0.8,0.4,1.2,0.4,1.2s0.1-0.4,0.4-1.2
						c0.5-1.8,1.5-5.6,2.3-10.5c1,1.1,2,2.3,2.9,3.6L317.4,426z"/>
					<rect x="314.2" y="220.8" class="st6" width="0.1" height="8"/>
					<path class="st6" d="M314.2,294.8v22.5h-7v-34.7c0-6.5-5.3-11.8-11.8-11.8H285c-6.5,0-11.8,5.3-11.8,11.8v34.7h-34.4v-34.7
						c0-6.5-5.3-11.8-11.8-11.8h-10.4c-6.5,0-11.8,5.3-11.8,11.8v34.7h-7v-22.5v-35v-8h33.9c3.9,0,7.1-3.2,7.1-7.1v-8.8
						c0-3.9-3.2-7.1-7.1-7.1h-14.9v-30h78.4v30h-14.9c-3.9,0-7.1,3.2-7.1,7.1v8.8c0,3.9,3.2,7.1,7.1,7.1h33.9v8V294.8z M279.7,217.2
						c0-1.9-0.6-3.6-1.6-5c-0.3-0.4-0.5-0.7-0.9-1c-1.5-1.5-3.7-2.5-6-2.5h-30.4c-2.3,0-4.5,0.9-6,2.5c-0.3,0.3-0.6,0.6-0.9,1
						c-1,1.4-1.6,3.1-1.6,5c0,4.7,3.8,8.5,8.5,8.5h30.4C275.9,225.8,279.7,221.9,279.7,217.2z"/>
					<polygon class="st28" points="314.2,220.8 314.2,228.8 295.2,228.8 295.2,198.8 256.3,79.6 256,78.6 255.7,79.6 216.8,198.8 
						216.8,228.8 197.8,228.8 197.8,220.8 197.8,167.2 209.5,139.2 209.5,139.2 209.5,139.2 209.5,139.1 241.1,63.2 270.9,63.2 
						302.5,139.1 302.5,139.2 302.5,139.2 302.5,139.2 314.2,167.2 					"/>
					<path class="st28" d="M310.9,402.2c0,4.9-0.5,9.4-1.1,13.3c-1.8-1.9-3.8-3.5-6-4.7c-0.3-2.7-0.5-5.5-0.5-8.6
						c0-13.8,1.7-25,3.8-25C309.2,377.2,310.9,388.4,310.9,402.2z"/>
					<path class="st28" d="M309.8,415.5c-0.8,4.9-1.8,8.7-2.3,10.5h-0.7c-0.7-2.4-2.2-8-2.9-15.2C306,412.1,308,413.6,309.8,415.5z"
						/>
					<path class="st6" d="M306.8,426h0.7c-0.2,0.8-0.4,1.2-0.4,1.2S307,426.8,306.8,426z"/>
					<path class="st28" d="M307.2,317.2v2.8c0,1.5-1.2,2.7-2.7,2.7h-2.3h-24h-2.3c-1.5,0-2.7-1.2-2.7-2.7v-2.8v-34.7
						c0-6.5,5.3-11.8,11.8-11.8h10.4c6.5,0,11.8,5.3,11.8,11.8V317.2z M292.7,293.2c2.4-1,4-3.3,4-6c0-3.6-2.9-6.5-6.5-6.5
						s-6.5,2.9-6.5,6.5c0,2.7,1.6,5,4,6v8c-2.4,1-4,3.3-4,6c0,3.6,2.9,6.5,6.5,6.5s6.5-2.9,6.5-6.5c0-2.7-1.6-5-4-6V293.2z"/>
					<rect x="278.2" y="322.8" class="st5" width="24" height="40"/>
					<circle class="st28" cx="292.7" cy="240.2" r="6.5"/>
					<path class="st5" d="M296.7,287.2c0,2.7-1.6,5-4,6v-4c0-1.4-1.1-2.5-2.5-2.5c-0.7,0-1.3,0.3-1.8,0.7c-0.5,0.5-0.7,1.1-0.7,1.8
						v4c-2.4-1-4-3.3-4-6c0-3.6,2.9-6.5,6.5-6.5S296.7,283.7,296.7,287.2z"/>
					<path class="st5" d="M292.7,301.2c2.4,1,4,3.3,4,6c0,3.6-2.9,6.5-6.5,6.5s-6.5-2.9-6.5-6.5c0-2.7,1.6-5,4-6v3
						c0,1.4,1.1,2.5,2.5,2.5s2.5-1.1,2.5-2.5V301.2z"/>
					<path class="st28" d="M295.5,407.7c0.1,2.8,0.1,5.6,0.1,8.6c0,3.4-0.2,6.7-0.4,9.8c-0.2,3.1-0.6,6-1,8.7
						c-1.6,10.8-4.1,18-4.1,18s-2.4-7.2-4-18c-0.4-2.7-0.8-5.6-1-8.7c-0.3-3.1-0.4-6.4-0.4-9.8c0-3,0.1-5.8,0.1-8.6
						c0.6-16,2.8-27.9,5.4-27.9S295,391.7,295.5,407.7z"/>
					<path class="st5" d="M256.3,79.6l38.9,119.2l-23-26.9v-10v-10c-1.9-1.9-3.4-3.4-4.9-4.9l-1.3-1.3c-1.5-1.5-3-3-4.9-4.9h-10.2
						c-4.3,4.3-6.8,6.8-11.1,11.1v10v10l-23,26.9l38.9-119.2l0.3-1L256.3,79.6z"/>
					<path class="st5" d="M272.2,171.9l23,26.9h-78.4l23-26.9v4c0,3.2,2.6,5.9,5.9,5.9h10.1h10.5c3.2,0,5.9-2.6,5.9-5.9V171.9z"/>
					<path class="st27" d="M292.7,301.2v3c0,1.4-1.1,2.5-2.5,2.5s-2.5-1.1-2.5-2.5v-3v-8v-4c0-0.7,0.3-1.3,0.7-1.8
						c0.4-0.5,1.1-0.7,1.8-0.7c1.4,0,2.5,1.1,2.5,2.5v4V301.2z"/>
					<path class="st27" d="M286.1,434.8h-8.7c-6.2,0-11.7-3.5-14.5-8.7v0l4.6-6.9c0.9-1.3,1.9-2.5,2.9-3.6c0.8,4.9,1.8,8.7,2.3,10.5
						c0.2,0.8,0.4,1.2,0.4,1.2s0.1-0.4,0.4-1.2c0.7-2.4,2.2-8,2.9-15.2c2.6-1.5,5.4-2.5,8.3-3.1c-0.1,2.8-0.1,5.6-0.1,8.6
						c0,3.4,0.2,6.7,0.4,9.8C285.4,429.1,285.7,432.1,286.1,434.8z"/>
					<path class="st28" d="M232.3,217.2h47.4c0,4.7-3.8,8.5-8.5,8.5h-30.4C236.1,225.8,232.3,221.9,232.3,217.2z"/>
					<path class="st28" d="M279.7,217.2h-47.4c0-1.9,0.6-3.6,1.6-5c0.3-0.4,0.6-0.7,0.9-1c1.5-1.5,3.7-2.5,6-2.5h30.4
						c2.3,0,4.5,0.9,6,2.5c0.3,0.3,0.6,0.6,0.9,1C279.1,213.6,279.7,215.4,279.7,217.2z"/>
					<path class="st28" d="M277,402.2c0,3-0.2,5.9-0.5,8.6c-2.2,1.2-4.2,2.8-6,4.7c-0.6-3.9-1.1-8.4-1.1-13.3c0-13.8,1.7-25,3.8-25
						S277,388.4,277,402.2z"/>
					<path class="st28" d="M276.5,410.8c-0.8,7.2-2.2,12.9-2.9,15.2h-0.7c-0.5-1.8-1.5-5.6-2.3-10.5
						C272.3,413.6,274.4,412.1,276.5,410.8z"/>
					<path class="st6" d="M272.9,426h0.7c-0.2,0.8-0.4,1.2-0.4,1.2S273.1,426.8,272.9,426z"/>
					<path class="st28" d="M272.2,171.9v4c0,3.2-2.6,5.9-5.9,5.9h-10.5v-25.9c0,0,0,0,0,0h0c0,0,0,0,0,0c0,0,0,0,0,0s0,0,0,0h0h0h0
						c0,0,0,0,0,0h0c0,0,0,0,0,0c0,0,0,0,0,0h0h0c0,0,0,0,0,0h0.1c3.5,0.1,7,0.9,10.2,2.5c0.5,0.2,1.1,0.5,1.6,0.8
						c0.5,0.3,1,0.6,1.6,1l2.5,1.7V171.9z"/>
					<path class="st29" d="M272.2,151.8v10l-2.5-1.7c-0.5-0.3-1-0.7-1.6-1c-0.5-0.3-1.1-0.6-1.6-0.8c-3.2-1.6-6.7-2.4-10.2-2.5v0
						h-0.1h0h-0.1h0h-0.1h0c0,0,0,0-0.1,0c0,0,0,0,0,0h0h0c0,0,0,0,0,0h0h-0.1c0,0,0,0,0,0h-0.1h-0.1v0c-3.5,0.1-7,0.9-10.2,2.5
						c-0.5,0.2-1.1,0.5-1.6,0.8c-0.5,0.3-1,0.6-1.6,1l-2.5,1.7v-10c4.3-4.3,6.8-6.8,11.1-11.1h10.2c1.9,1.9,3.4,3.4,4.9,4.9l1.3,1.3
						C268.8,148.4,270.3,149.9,272.2,151.8z"/>
					<path class="st6" d="M256.3,155.9L256.3,155.9C256.3,155.9,256.3,155.9,256.3,155.9L256.3,155.9z"/>
					<path class="st6" d="M256.3,155.9h-0.1v0L256.3,155.9L256.3,155.9C256.3,155.9,256.3,155.9,256.3,155.9z"/>
					<path class="st6" d="M256.2,155.9L256.2,155.9C256.2,155.9,256.2,155.9,256.2,155.9L256.2,155.9L256.2,155.9z"/>
					<path class="st6" d="M256.2,155.9L256.2,155.9L256.2,155.9L256.2,155.9C256.1,155.9,256.1,155.9,256.2,155.9L256.2,155.9
						L256.2,155.9z"/>
					<path class="st6" d="M256.1,155.9L256.1,155.9C256.1,155.9,256.1,155.9,256.1,155.9L256.1,155.9
						C256,155.9,256.1,155.9,256.1,155.9L256.1,155.9z"/>
					<path class="st6" d="M255.9,155.9C255.9,155.9,255.9,155.9,255.9,155.9L255.9,155.9C255.9,155.9,255.9,155.9,255.9,155.9
						L255.9,155.9L255.9,155.9z"/>
					<path class="st6" d="M255.9,155.9L255.9,155.9C255.9,155.9,255.9,155.9,255.9,155.9C255.9,155.9,255.9,155.9,255.9,155.9
						L255.9,155.9L255.9,155.9L255.9,155.9z"/>
					<path class="st6" d="M255.8,155.9L255.8,155.9C255.8,155.9,255.8,155.9,255.8,155.9L255.8,155.9
						C255.8,155.9,255.8,155.9,255.8,155.9z"/>
					<path class="st28" d="M255.8,155.9v25.9h-10.1c-3.2,0-5.9-2.6-5.9-5.9v-4v-10l2.5-1.7c0.5-0.3,1-0.7,1.6-1
						c0.5-0.3,1.1-0.6,1.6-0.8c3.2-1.6,6.7-2.4,10.2-2.5H255.8z"/>
					<path class="st6" d="M255.8,155.9L255.8,155.9l-0.1,0C255.7,155.9,255.7,155.9,255.8,155.9L255.8,155.9z"/>
					<path class="st6" d="M255.8,155.9C255.7,155.9,255.7,155.9,255.8,155.9L255.8,155.9L255.8,155.9z"/>
					<path class="st6" d="M250.1,385.4c2.4,8.8,3.1,18,1.8,27l-1.1,8.2c-0.3,1.9-0.9,3.8-1.8,5.4l-4.6-6.9c-0.9-1.3-1.9-2.5-2.9-3.6
						c0.6-3.9,1.1-8.4,1.1-13.3c0-13.8-1.7-25-3.8-25s-3.8,11.2-3.8,25c0,3,0.2,5.9,0.5,8.6c-2.6-1.5-5.4-2.5-8.3-3.1
						c-0.6-16-2.8-27.9-5.3-27.9c-2.6,0-4.8,11.9-5.4,27.9c-2.9,0.6-5.7,1.6-8.3,3.1c0.3-2.7,0.5-5.5,0.5-8.6c0-13.8-1.7-25-3.8-25
						c-2.1,0-3.8,11.2-3.8,25c0,4.9,0.5,9.4,1.1,13.3c-1,1.1-2,2.3-2.9,3.6l-4.6,6.9c-0.9-1.6-1.5-3.5-1.8-5.4l-1.1-8.2
						c-1.2-9-0.6-18.2,1.8-27l4.3-15.4c1.2-4.3,5.1-7.3,9.6-7.3h2.5h24h2.4c4.5,0,8.4,3,9.6,7.3L250.1,385.4z"/>
					<path class="st27" d="M249,426L249,426c-2.8,5.2-8.2,8.7-14.4,8.7h-8.7c0.4-2.7,0.8-5.6,1-8.7c0.3-3.1,0.4-6.4,0.4-9.8
						c0-3-0.1-5.8-0.2-8.6c2.9,0.6,5.7,1.6,8.3,3.1c0.8,7.2,2.2,12.9,2.9,15.2c0.2,0.8,0.4,1.2,0.4,1.2s0.1-0.4,0.4-1.2
						c0.5-1.8,1.5-5.6,2.3-10.5c1,1.1,2,2.3,2.9,3.6L249,426z"/>
					<path class="st28" d="M242.6,402.2c0,4.9-0.5,9.4-1.1,13.3c-1.8-1.9-3.8-3.5-6-4.7c-0.3-2.7-0.5-5.5-0.5-8.6
						c0-13.8,1.7-25,3.8-25S242.6,388.4,242.6,402.2z"/>
					<path class="st28" d="M241.5,415.5c-0.8,4.9-1.8,8.7-2.3,10.5h-0.7c-0.7-2.4-2.2-8-2.9-15.2
						C237.6,412.1,239.7,413.6,241.5,415.5z"/>
					<path class="st6" d="M238.4,426h0.7c-0.2,0.8-0.4,1.2-0.4,1.2S238.6,426.8,238.4,426z"/>
					<path class="st28" d="M238.8,317.2v2.8c0,1.5-1.2,2.7-2.7,2.7h-2.3h-24h-2.3c-1.5,0-2.7-1.2-2.7-2.7v-2.8v-34.7
						c0-6.5,5.3-11.8,11.8-11.8H227c6.5,0,11.8,5.3,11.8,11.8V317.2z M224.3,293.2c2.3-1,4-3.3,4-6c0-3.6-2.9-6.5-6.5-6.5
						c-3.6,0-6.5,2.9-6.5,6.5c0,2.7,1.6,5,4,6v8c-2.4,1-4,3.3-4,6c0,3.6,2.9,6.5,6.5,6.5c3.6,0,6.5-2.9,6.5-6.5c0-2.7-1.7-5-4-6
						V293.2z"/>
					<path class="st5" d="M238.8,235.9v8.8c0,3.9-3.2,7.1-7.1,7.1h-33.9h-21v-23h20.9h0.1h19h14.9
						C235.6,228.8,238.8,231.9,238.8,235.9z M225.8,240.2c0-3.6-2.9-6.5-6.5-6.5c-3.6,0-6.5,2.9-6.5,6.5s2.9,6.5,6.5,6.5
						C222.9,246.8,225.8,243.8,225.8,240.2z M199.8,240.2c0-3.6-2.9-6.5-6.5-6.5c-3.6,0-6.5,2.9-6.5,6.5s2.9,6.5,6.5,6.5
						C196.9,246.8,199.8,243.8,199.8,240.2z"/>
					<rect x="209.8" y="322.8" class="st5" width="24" height="40"/>
					<path class="st5" d="M228.3,287.2c0,2.7-1.7,5-4,6v-4c0-0.7-0.3-1.3-0.7-1.8c-0.4-0.5-1.1-0.7-1.8-0.7c-1.4,0-2.5,1.1-2.5,2.5
						v4c-2.4-1-4-3.3-4-6c0-3.6,2.9-6.5,6.5-6.5C225.4,280.8,228.3,283.7,228.3,287.2z"/>
					<path class="st5" d="M224.3,301.2c2.3,1,4,3.3,4,6c0,3.6-2.9,6.5-6.5,6.5c-3.6,0-6.5-2.9-6.5-6.5c0-2.7,1.6-5,4-6v3
						c0,1.4,1.1,2.5,2.5,2.5c1.4,0,2.5-1.1,2.5-2.5V301.2z"/>
					<path class="st28" d="M227.2,407.7c0.1,2.8,0.2,5.6,0.2,8.6c0,3.4-0.2,6.7-0.4,9.8c-0.2,3.1-0.6,6-1,8.7c-1.6,10.8-4,18-4,18
						s-2.4-7.2-4.1-18c-0.4-2.7-0.8-5.6-1-8.7c-0.3-3.1-0.4-6.4-0.4-9.8c0-3,0-5.8,0.1-8.6c0.6-16,2.8-27.9,5.4-27.9
						C224.4,379.8,226.6,391.7,227.2,407.7z"/>
					<circle class="st28" cx="219.3" cy="240.2" r="6.5"/>
					<path class="st27" d="M224.3,301.2v3c0,1.4-1.1,2.5-2.5,2.5c-1.4,0-2.5-1.1-2.5-2.5v-3v-8v-4c0-1.4,1.1-2.5,2.5-2.5
						c0.7,0,1.3,0.3,1.8,0.7c0.4,0.5,0.7,1.1,0.7,1.8v4V301.2z"/>
					<path class="st27" d="M217.8,434.8h-8.7c-6.2,0-11.7-3.5-14.4-8.7v0l4.6-6.9c0.9-1.3,1.9-2.5,2.9-3.6c0.8,4.9,1.8,8.7,2.3,10.5
						c0.2,0.8,0.4,1.2,0.4,1.2s0.1-0.4,0.4-1.2c0.7-2.4,2.2-8,2.9-15.2c2.6-1.5,5.4-2.5,8.3-3.1c-0.1,2.8-0.1,5.6-0.1,8.6
						c0,3.4,0.2,6.7,0.4,9.8C217,429.1,217.4,432.1,217.8,434.8z"/>
					<path class="st28" d="M208.6,402.2c0,3-0.2,5.9-0.5,8.6c-2.2,1.2-4.2,2.8-6,4.7c-0.6-3.9-1.1-8.4-1.1-13.3
						c0-13.8,1.7-25,3.8-25C206.9,377.2,208.6,388.4,208.6,402.2z"/>
					<path class="st28" d="M208.2,410.8c-0.8,7.2-2.2,12.9-2.9,15.2h-0.7c-0.5-1.8-1.5-5.6-2.3-10.5
						C204,413.6,206,412.1,208.2,410.8z"/>
					<path class="st6" d="M204.5,426h0.7c-0.2,0.8-0.4,1.2-0.4,1.2S204.7,426.8,204.5,426z"/>
					<circle class="st28" cx="193.3" cy="240.2" r="6.5"/>
					<path class="st6" d="M197.8,259.8v35l-28.2-21.4c-6.8-5.2-15.1-7.1-23-6.1c0,0-0.1,0-0.1,0h0l-11.7-16.6l7-7l-11.4-19.5
						l59.5-42.5l0.1,0l6.2,39h-18.3c-2.6,0-4.9,0.9-6.8,2.3c-2.6,2-4.3,5.2-4.3,8.8v16.8c0,3.6,1.7,6.8,4.3,8.8
						c1.9,1.5,4.2,2.3,6.8,2.3H197.8z"/>
					<path class="st27" d="M197.8,251.8v8h-19.9c-2.6,0-4.9-0.9-6.8-2.3l5.7-5.7H197.8z"/>
					<rect x="197.7" y="220.8" class="st6" width="0.1" height="8"/>
					<polygon class="st5" points="197.8,167.2 197.8,220.8 197.7,220.8 197.7,176.8 190,181.7 190,181.7 190,181.8 189.9,181.8 
						130.4,224.2 101.8,244.7 101.8,235.2 190,172.3 189.8,172.8 190.1,172.2 190.2,172.2 					"/>
					<path class="st27" d="M197.7,220.8v8h-20.9l-5.7-5.7c1.9-1.4,4.2-2.3,6.8-2.3h18.3H197.7z"/>
					<polygon class="st27" points="197.7,176.8 197.7,220.8 196.2,220.8 190,181.8 190,181.7 190,181.7 					"/>
					<polygon class="st6" points="190.1,172.2 189.8,172.8 190,172.3 190,172.3 					"/>
					<path class="st27" d="M176.8,228.8v23l-5.7,5.7c-2.6-2-4.3-5.2-4.3-8.8v-16.8c0-3.6,1.7-6.8,4.3-8.8L176.8,228.8z"/>
					<path class="st27" d="M134.8,250.8l11.7,16.6c-6.6,0.9-12.9,4-17.9,9l-26.8,27.4v-59.1l28.6-20.4l11.4,19.5L134.8,250.8z
						 M116.8,275.8v-22c0-1.1-0.4-2.1-1.2-2.8c-0.7-0.7-1.7-1.2-2.8-1.2c-2.2,0-4,1.8-4,4v22c0,2.2,1.8,4,4,4S116.8,278,116.8,275.8
						z"/>
					<path class="st28" d="M116.8,253.8v22c0,2.2-1.8,4-4,4s-4-1.8-4-4v-22c0-2.2,1.8-4,4-4c1.1,0,2.1,0.4,2.8,1.2
						C116.4,251.6,116.8,252.6,116.8,253.8z"/>
				</g>
				<g>
					<line class="st21" x1="171.1" y1="223.1" x2="176.8" y2="228.8"/>
					<line class="st21" x1="197.7" y1="228.8" x2="197.7" y2="220.8"/>
					<path class="st21" d="M233.8,322.8h2.3c1.5,0,2.7-1.2,2.7-2.7v-2.8"/>
					<path class="st21" d="M204.8,317.2v2.8c0,1.5,1.2,2.7,2.7,2.7h2.3"/>
					<polyline class="st21" points="209.8,362.8 209.8,322.8 233.8,322.8 233.8,362.8 					"/>
					<path class="st21" d="M217.8,434.8h-8.7c-6.2,0-11.7-3.5-14.4-8.7v0"/>
					<path class="st21" d="M249,426L249,426c-2.8,5.2-8.2,8.7-14.4,8.7h-8.7"/>
					<path class="st21" d="M202.2,415.5c-1,1.1-2,2.3-2.9,3.6l-4.6,6.9c-0.9-1.6-1.5-3.5-1.8-5.4l-1.1-8.2c-1.2-9-0.6-18.2,1.8-27
						l4.3-15.4c1.2-4.3,5.1-7.3,9.6-7.3h2.5h24h2.4c4.5,0,8.4,3,9.6,7.3l4.3,15.4c2.4,8.8,3.1,18,1.8,27l-1.1,8.2
						c-0.3,1.9-0.9,3.8-1.8,5.4l-4.6-6.9c-0.9-1.3-1.9-2.5-2.9-3.6"/>
					<path class="st21" d="M216.5,407.7c-2.9,0.6-5.7,1.6-8.3,3.1"/>
					<path class="st21" d="M235.5,410.8c-2.6-1.5-5.4-2.5-8.3-3.1"/>
					<path class="st21" d="M227.2,407.7c0.1,2.8,0.2,5.6,0.2,8.6c0,3.4-0.2,6.7-0.4,9.8c-0.2,3.1-0.6,6-1,8.7c-1.6,10.8-4,18-4,18
						s-2.4-7.2-4.1-18c-0.4-2.7-0.8-5.6-1-8.7c-0.3-3.1-0.4-6.4-0.4-9.8c0-3,0-5.8,0.1-8.6c0.6-16,2.8-27.9,5.4-27.9
						C224.4,379.8,226.6,391.7,227.2,407.7z"/>
					<path class="st21" d="M235.5,410.8c-0.3-2.7-0.5-5.5-0.5-8.6c0-13.8,1.7-25,3.8-25s3.8,11.2,3.8,25c0,4.9-0.5,9.4-1.1,13.3
						c-0.8,4.9-1.8,8.7-2.3,10.5c-0.2,0.8-0.4,1.2-0.4,1.2s-0.1-0.4-0.4-1.2C237.7,423.7,236.2,418,235.5,410.8z"/>
					<path class="st21" d="M202.2,415.5c-0.6-3.9-1.1-8.4-1.1-13.3c0-13.8,1.7-25,3.8-25c2.1,0,3.8,11.2,3.8,25c0,3-0.2,5.9-0.5,8.6
						c-0.8,7.2-2.2,12.9-2.9,15.2c-0.2,0.8-0.4,1.2-0.4,1.2s-0.1-0.4-0.4-1.2C203.9,424.2,202.9,420.5,202.2,415.5z"/>
					<path class="st21" d="M219.3,293.2c-2.4-1-4-3.3-4-6c0-3.6,2.9-6.5,6.5-6.5c3.6,0,6.5,2.9,6.5,6.5c0,2.7-1.7,5-4,6"/>
					<path class="st21" d="M224.3,301.2c2.3,1,4,3.3,4,6c0,3.6-2.9,6.5-6.5,6.5c-3.6,0-6.5-2.9-6.5-6.5c0-2.7,1.6-5,4-6"/>
					<path class="st21" d="M219.3,293.2v-4c0-1.4,1.1-2.5,2.5-2.5c0.7,0,1.3,0.3,1.8,0.7c0.4,0.5,0.7,1.1,0.7,1.8v4v8v3
						c0,1.4-1.1,2.5-2.5,2.5c-1.4,0-2.5-1.1-2.5-2.5v-3V293.2z"/>
					<line class="st21" x1="197.8" y1="220.8" x2="197.7" y2="220.8"/>
					<polyline class="st21" points="101.8,244.7 101.8,235.2 190,172.3 					"/>
					<path class="st21" d="M197.8,294.8l-28.2-21.4c-6.8-5.2-15.1-7.1-23-6.1c0,0-0.1,0-0.1,0h0"/>
					<path class="st21" d="M196.2,220.8h-18.3c-2.6,0-4.9,0.9-6.8,2.3c-2.6,2-4.3,5.2-4.3,8.8v16.8c0,3.6,1.7,6.8,4.3,8.8
						c1.9,1.5,4.2,2.3,6.8,2.3h19.9"/>
					<path class="st21" d="M146.5,267.3c-6.6,0.9-12.9,4-17.9,9l-26.8,27.4v-59.1l28.6-20.4l11.4,19.5l-7,7L146.5,267.3z"/>
					<polyline class="st21" points="190.1,172.2 189.8,172.8 190,172.3 190,172.3 					"/>
					<polyline class="st21" points="197.8,228.8 197.7,228.8 176.8,228.8 176.8,251.8 197.8,251.8 					"/>
					<line class="st21" x1="176.8" y1="251.8" x2="171.1" y2="257.4"/>
					<circle class="st21" cx="193.3" cy="240.2" r="6.5"/>
					<circle class="st21" cx="219.3" cy="240.2" r="6.5"/>
					<polygon class="st21" points="190,181.8 190,181.7 190,181.7 197.7,176.8 197.7,220.8 196.2,220.8 					"/>
					<line class="st21" x1="189.9" y1="181.8" x2="130.4" y2="224.2"/>
					<line class="st21" x1="101.8" y1="244.7" x2="101.7" y2="244.8"/>
					<line class="st21" x1="146.8" y1="267.8" x2="146.5" y2="267.3"/>
					<path class="st21" d="M112.8,279.8c-2.2,0-4-1.8-4-4v-22c0-2.2,1.8-4,4-4c1.1,0,2.1,0.4,2.8,1.2c0.7,0.7,1.2,1.7,1.2,2.8v22
						C116.8,278,115,279.8,112.8,279.8z"/>
					<line class="st21" x1="239.8" y1="161.9" x2="239.8" y2="171.9"/>
					<path class="st21" d="M302.2,322.8h2.3c1.5,0,2.7-1.2,2.7-2.7v-2.8"/>
					<path class="st21" d="M273.2,317.2v2.8c0,1.5,1.2,2.7,2.7,2.7h2.3"/>
					<polyline class="st21" points="302.2,362.8 302.2,322.8 278.2,322.8 278.2,362.8 					"/>
					<path class="st21" d="M263,426c-0.9-1.6-1.5-3.5-1.8-5.4l-1.1-8.2c-1.2-9-0.6-18.2,1.8-27l4.3-15.4c1.2-4.3,5.1-7.3,9.6-7.3
						h2.4h24h2.5c4.5,0,8.4,3,9.6,7.3l4.3,15.4c2.4,8.8,3,18,1.8,27l-1.1,8.2c-0.3,1.9-0.9,3.8-1.8,5.4"/>
					<path class="st21" d="M276.5,410.8c2.6-1.5,5.4-2.5,8.3-3.1"/>
					<path class="st21" d="M286.1,434.8h-8.7c-6.2,0-11.7-3.5-14.5-8.7v0l4.6-6.9c0.9-1.3,1.9-2.5,2.9-3.6"/>
					<path class="st21" d="M309.8,415.5c1,1.1,2,2.3,2.9,3.6l4.7,6.9v0c-2.8,5.2-8.2,8.7-14.5,8.7h-8.7"/>
					<path class="st21" d="M295.5,407.7c2.9,0.6,5.7,1.6,8.3,3.1"/>
					<path class="st21" d="M295.5,407.7c0.1,2.8,0.1,5.6,0.1,8.6c0,3.4-0.2,6.7-0.4,9.8c-0.2,3.1-0.6,6-1,8.7
						c-1.6,10.8-4.1,18-4.1,18s-2.4-7.2-4-18c-0.4-2.7-0.8-5.6-1-8.7c-0.3-3.1-0.4-6.4-0.4-9.8c0-3,0.1-5.8,0.1-8.6
						c0.6-16,2.8-27.9,5.4-27.9S295,391.7,295.5,407.7z"/>
					<path class="st21" d="M270.5,415.5c-0.6-3.9-1.1-8.4-1.1-13.3c0-13.8,1.7-25,3.8-25s3.8,11.2,3.8,25c0,3-0.2,5.9-0.5,8.6
						c-0.8,7.2-2.2,12.9-2.9,15.2c-0.2,0.8-0.4,1.2-0.4,1.2s-0.1-0.4-0.4-1.2C272.3,424.2,271.3,420.5,270.5,415.5z"/>
					<path class="st21" d="M303.8,410.8c-0.3-2.7-0.5-5.5-0.5-8.6c0-13.8,1.7-25,3.8-25c2.1,0,3.8,11.2,3.8,25
						c0,4.9-0.5,9.4-1.1,13.3c-0.8,4.9-1.8,8.7-2.3,10.5c-0.2,0.8-0.4,1.2-0.4,1.2s-0.1-0.4-0.4-1.2
						C306.1,423.7,304.6,418,303.8,410.8z"/>
					<path class="st21" d="M287.7,293.2c-2.4-1-4-3.3-4-6c0-3.6,2.9-6.5,6.5-6.5s6.5,2.9,6.5,6.5c0,2.7-1.6,5-4,6"/>
					<path class="st21" d="M292.7,301.2c2.4,1,4,3.3,4,6c0,3.6-2.9,6.5-6.5,6.5s-6.5-2.9-6.5-6.5c0-2.7,1.6-5,4-6"/>
					<path class="st21" d="M287.7,293.2v-4c0-0.7,0.3-1.3,0.7-1.8c0.4-0.5,1.1-0.7,1.8-0.7c1.4,0,2.5,1.1,2.5,2.5v4v8v3
						c0,1.4-1.1,2.5-2.5,2.5s-2.5-1.1-2.5-2.5v-3V293.2z"/>
					<path class="st21" d="M216.8,228.8h14.9c3.9,0,7.1,3.2,7.1,7.1v8.8c0,3.9-3.2,7.1-7.1,7.1h-33.9v8v35v22.5h7v-34.7
						c0-6.5,5.3-11.8,11.8-11.8H227c6.5,0,11.8,5.3,11.8,11.8v34.7h34.4v-34.7c0-6.5,5.3-11.8,11.8-11.8h10.4
						c6.5,0,11.8,5.3,11.8,11.8v34.7h7v-22.5"/>
					<path class="st21" d="M272.2,171.9l23,26.9h-78.4l23-26.9v4c0,3.2,2.6,5.9,5.9,5.9h10.1"/>
					<path class="st21" d="M365.5,267.3c0,0-0.1,0-0.1,0c-7.9-1.1-16.2,0.9-23,6.1l-28.2,21.4v-35"/>
					<path class="st21" d="M322,172.3l88.2,63v9.4v59.1l-26.8-27.4c-5-5.1-11.3-8.1-17.9-9"/>
					<path class="st21" d="M315.8,220.8h18.3c2.6,0,4.9,0.9,6.8,2.3"/>
					<polyline class="st21" points="314.2,220.8 314.3,220.8 314.3,228.8 					"/>
					<path class="st21" d="M335.2,228.8l5.7-5.7c2.6,2,4.3,5.2,4.3,8.8v16.8c0,3.6-1.7,6.8-4.3,8.8c-1.9,1.5-4.2,2.3-6.8,2.3h-19.9
						v-8"/>
					<polyline class="st21" points="197.8,167.2 190.2,172.2 190.1,172.2 190,172.3 237.1,59.2 274.9,59.2 322,172.3 					"/>
					<polyline class="st21" points="321.9,172.2 321.8,172.2 314.2,167.2 					"/>
					<polygon class="st21" points="322,172.3 322.2,172.8 321.9,172.2 322,172.3 					"/>
					<path class="st21" d="M272.2,161.9v10v4c0,3.2-2.6,5.9-5.9,5.9h-10.5v-25.9"/>
					<path class="st21" d="M295.2,228.8h-14.9c-3.9,0-7.1,3.2-7.1,7.1v8.8c0,3.9,3.2,7.1,7.1,7.1h33.9h21v-23h-20.9h-0.1"/>
					<line class="st21" x1="335.2" y1="251.8" x2="340.9" y2="257.4"/>
					<circle class="st21" cx="318.7" cy="240.2" r="6.5"/>
					<circle class="st21" cx="292.7" cy="240.2" r="6.5"/>
					<path class="st21" d="M255.7,155.9c-3.5,0.1-7,0.9-10.2,2.5c-0.5,0.2-1.1,0.5-1.6,0.8c-0.5,0.3-1,0.6-1.6,1l-2.5,1.7v-10
						c4.3-4.3,6.8-6.8,11.1-11.1h10.2c1.9,1.9,3.4,3.4,4.9,4.9l1.3,1.3c1.5,1.5,3,3,4.9,4.9v10l-2.5-1.7c-0.5-0.3-1-0.7-1.6-1
						c-0.5-0.3-1.1-0.6-1.6-0.8c-3.2-1.6-6.7-2.4-10.2-2.5"/>
					<path class="st21" d="M255.8,155.9L255.8,155.9L255.8,155.9c0.1,0,0.1,0,0.1,0h0h0c0,0,0,0,0,0"/>
					<path class="st21" d="M255.9,155.9L255.9,155.9C255.9,155.9,255.9,155.9,255.9,155.9C255.9,155.9,255.9,155.9,255.9,155.9"/>
					<polyline class="st21" points="256.2,155.9 256.2,155.9 256.2,155.9 256.3,155.9 256.3,155.9 256.2,155.9 					"/>
					<path class="st21" d="M255.9,155.9C255.9,155.9,255.9,155.9,255.9,155.9L255.9,155.9C255.8,155.9,255.8,155.9,255.9,155.9h-0.2
						v0L255.9,155.9L255.9,155.9C255.8,155.9,255.8,155.9,255.9,155.9L255.9,155.9"/>
					<path class="st21" d="M256.2,155.9L256.2,155.9C256.2,155.9,256.2,155.9,256.2,155.9L256.2,155.9L256.2,155.9
						C256.1,155.9,256.1,155.9,256.2,155.9c-0.1,0-0.1,0-0.1,0h0C256,155.9,256.1,155.9,256.2,155.9L256.2,155.9L256.2,155.9
						L256.2,155.9z"/>
					<path class="st21" d="M255.7,155.9C255.7,155.9,255.7,155.9,255.7,155.9"/>
					<polygon class="st21" points="314.3,220.8 314.3,176.8 322,181.7 322,181.7 322,181.8 315.8,220.8 					"/>
					<polyline class="st21" points="410.3,244.8 410.2,244.7 381.6,224.2 322.1,181.8 					"/>
					<polyline class="st21" points="381.6,224.2 370.2,243.8 377.2,250.8 365.5,267.3 365.5,267.3 365.2,267.8 					"/>
					<path class="st21" d="M399.2,279.8c2.2,0,4-1.8,4-4v-22c0-2.2-1.8-4-4-4c-1.1,0-2.1,0.4-2.8,1.2c-0.7,0.7-1.2,1.7-1.2,2.8v22
						C395.2,278,397,279.8,399.2,279.8z"/>
					<path class="st21" d="M232.3,217.2c0-1.9,0.6-3.6,1.6-5c0.3-0.4,0.6-0.7,0.9-1c1.5-1.5,3.7-2.5,6-2.5h30.4c2.3,0,4.5,0.9,6,2.5
						c0.3,0.3,0.6,0.6,0.9,1c1,1.4,1.6,3.1,1.6,5"/>
					<path class="st21" d="M279.7,217.2c0,4.7-3.8,8.5-8.5,8.5h-30.4c-4.7,0-8.5-3.8-8.5-8.5H279.7z"/>
					<polygon class="st21" points="314.2,167.2 314.2,220.8 314.2,228.8 295.2,228.8 295.2,198.8 256.3,79.6 256,78.6 255.7,79.6 
						216.8,198.8 216.8,228.8 197.8,228.8 197.8,220.8 197.8,167.2 209.5,139.2 209.5,139.2 209.5,139.2 209.5,139.1 241.1,63.2 
						270.9,63.2 302.5,139.1 302.5,139.2 302.5,139.2 302.5,139.2 					"/>
				</g>
			</g>
		</g>
	</g>
</g>
<g id="GREEN">
	<g id="Spaceships_2_">
		<g id="Small_x5F_2_3_">
			<g id="XMLID_42_">
				<g>
					<path class="st32" d="M410.2,244.7v59.1l-26.8-27.4c-5-5.1-11.3-8.1-17.9-9l11.7-16.6l-7-7l11.4-19.5L410.2,244.7z
						 M403.2,275.8v-22c0-2.2-1.8-4-4-4c-1.1,0-2.1,0.4-2.8,1.2c-0.7,0.7-1.2,1.7-1.2,2.8v22c0,2.2,1.8,4,4,4
						C401.4,279.8,403.2,278,403.2,275.8z"/>
					<polygon class="st5" points="410.2,235.2 410.2,244.7 381.6,224.2 322.1,181.8 322,181.8 322,181.7 322,181.7 314.3,176.8 
						314.3,220.8 314.2,220.8 314.2,167.2 321.8,172.2 321.9,172.2 322.2,172.8 322,172.3 					"/>
					<path class="st30" d="M403.2,253.8v22c0,2.2-1.8,4-4,4c-2.2,0-4-1.8-4-4v-22c0-1.1,0.5-2.1,1.2-2.8c0.7-0.7,1.7-1.2,2.8-1.2
						C401.4,249.8,403.2,251.5,403.2,253.8z"/>
					<path class="st6" d="M381.6,224.2l-11.4,19.5l7,7l-11.7,16.6h0c0,0-0.1,0-0.1,0c-7.9-1.1-16.2,0.9-23,6.1l-28.2,21.4v-35h19.9
						c2.6,0,4.9-0.9,6.8-2.3c2.6-2,4.3-5.2,4.3-8.8v-16.8c0-3.6-1.7-6.8-4.3-8.8c-1.9-1.4-4.2-2.3-6.8-2.3h-18.3l6.2-39l0.1,0
						L381.6,224.2z"/>
					<path class="st32" d="M345.2,231.9v16.8c0,3.6-1.7,6.8-4.3,8.8l-5.7-5.7v-23l5.7-5.7C343.5,225.1,345.2,228.3,345.2,231.9z"/>
					<path class="st32" d="M340.9,223.1l-5.7,5.7h-20.9v-8h1.5h18.3C336.6,220.8,339,221.6,340.9,223.1z"/>
					<path class="st32" d="M335.2,251.8l5.7,5.7c-1.9,1.5-4.2,2.3-6.8,2.3h-19.9v-8H335.2z"/>
					<path class="st5" d="M335.2,228.8v23h-21h-33.9c-3.9,0-7.1-3.2-7.1-7.1v-8.8c0-3.9,3.2-7.1,7.1-7.1h14.9h19h0.1H335.2z
						 M325.2,240.2c0-3.6-2.9-6.5-6.5-6.5s-6.5,2.9-6.5,6.5s2.9,6.5,6.5,6.5S325.2,243.8,325.2,240.2z M299.2,240.2
						c0-3.6-2.9-6.5-6.5-6.5s-6.5,2.9-6.5,6.5s2.9,6.5,6.5,6.5S299.2,243.8,299.2,240.2z"/>
					<circle class="st30" cx="318.7" cy="240.2" r="6.5"/>
					<polygon class="st6" points="322,172.3 322.2,172.8 321.9,172.2 322,172.3 					"/>
					<polygon class="st32" points="322,181.7 322,181.8 315.8,220.8 314.3,220.8 314.3,176.8 322,181.7 					"/>
					<polygon class="st5" points="274.9,59.2 322,172.3 321.9,172.2 321.8,172.2 314.2,167.2 302.5,139.2 302.5,139.2 302.5,139.2 
						302.5,139.1 270.9,63.2 241.1,63.2 209.5,139.1 209.5,139.2 209.5,139.2 209.5,139.2 197.8,167.2 190.2,172.2 190.1,172.2 
						190,172.3 237.1,59.2 					"/>
					<path class="st6" d="M318.5,385.4c2.4,8.8,3,18,1.8,27l-1.1,8.2c-0.3,1.9-0.9,3.8-1.8,5.4l-4.7-6.9c-0.9-1.3-1.9-2.5-2.9-3.6
						c0.6-3.9,1.1-8.4,1.1-13.3c0-13.8-1.7-25-3.8-25c-2.1,0-3.8,11.2-3.8,25c0,3,0.2,5.9,0.5,8.6c-2.6-1.5-5.4-2.5-8.3-3.1
						c-0.6-16-2.8-27.9-5.4-27.9s-4.8,11.9-5.4,27.9c-2.9,0.6-5.7,1.6-8.3,3.1c0.3-2.7,0.5-5.5,0.5-8.6c0-13.8-1.7-25-3.8-25
						s-3.8,11.2-3.8,25c0,4.9,0.5,9.4,1.1,13.3c-1,1.1-2,2.3-2.9,3.6L263,426c-0.9-1.6-1.5-3.5-1.8-5.4l-1.1-8.2
						c-1.2-9-0.6-18.2,1.8-27l4.3-15.4c1.2-4.3,5.1-7.3,9.6-7.3h2.4h24h2.5c4.5,0,8.4,3,9.6,7.3L318.5,385.4z"/>
					<path class="st32" d="M317.4,426L317.4,426c-2.8,5.2-8.2,8.7-14.5,8.7h-8.7c0.4-2.7,0.8-5.6,1-8.7c0.3-3.1,0.4-6.4,0.4-9.8
						c0-3,0-5.8-0.1-8.6c2.9,0.6,5.7,1.6,8.3,3.1c0.8,7.2,2.2,12.9,2.9,15.2c0.2,0.8,0.4,1.2,0.4,1.2s0.1-0.4,0.4-1.2
						c0.5-1.8,1.5-5.6,2.3-10.5c1,1.1,2,2.3,2.9,3.6L317.4,426z"/>
					<rect x="314.2" y="220.8" class="st6" width="0.1" height="8"/>
					<path class="st6" d="M314.2,294.8v22.5h-7v-34.7c0-6.5-5.3-11.8-11.8-11.8H285c-6.5,0-11.8,5.3-11.8,11.8v34.7h-34.4v-34.7
						c0-6.5-5.3-11.8-11.8-11.8h-10.4c-6.5,0-11.8,5.3-11.8,11.8v34.7h-7v-22.5v-35v-8h33.9c3.9,0,7.1-3.2,7.1-7.1v-8.8
						c0-3.9-3.2-7.1-7.1-7.1h-14.9v-30h78.4v30h-14.9c-3.9,0-7.1,3.2-7.1,7.1v8.8c0,3.9,3.2,7.1,7.1,7.1h33.9v8V294.8z M279.7,217.2
						c0-1.9-0.6-3.6-1.6-5c-0.3-0.4-0.5-0.7-0.9-1c-1.5-1.5-3.7-2.5-6-2.5h-30.4c-2.3,0-4.5,0.9-6,2.5c-0.3,0.3-0.6,0.6-0.9,1
						c-1,1.4-1.6,3.1-1.6,5c0,4.7,3.8,8.5,8.5,8.5h30.4C275.9,225.8,279.7,221.9,279.7,217.2z"/>
					<polygon class="st30" points="314.2,220.8 314.2,228.8 295.2,228.8 295.2,198.8 256.3,79.6 256,78.6 255.7,79.6 216.8,198.8 
						216.8,228.8 197.8,228.8 197.8,220.8 197.8,167.2 209.5,139.2 209.5,139.2 209.5,139.2 209.5,139.1 241.1,63.2 270.9,63.2 
						302.5,139.1 302.5,139.2 302.5,139.2 302.5,139.2 314.2,167.2 					"/>
					<path class="st30" d="M310.9,402.2c0,4.9-0.5,9.4-1.1,13.3c-1.8-1.9-3.8-3.5-6-4.7c-0.3-2.7-0.5-5.5-0.5-8.6
						c0-13.8,1.7-25,3.8-25C309.2,377.2,310.9,388.4,310.9,402.2z"/>
					<path class="st30" d="M309.8,415.5c-0.8,4.9-1.8,8.7-2.3,10.5h-0.7c-0.7-2.4-2.2-8-2.9-15.2C306,412.1,308,413.6,309.8,415.5z"
						/>
					<path class="st6" d="M306.8,426h0.7c-0.2,0.8-0.4,1.2-0.4,1.2S307,426.8,306.8,426z"/>
					<path class="st30" d="M307.2,317.2v2.8c0,1.5-1.2,2.7-2.7,2.7h-2.3h-24h-2.3c-1.5,0-2.7-1.2-2.7-2.7v-2.8v-34.7
						c0-6.5,5.3-11.8,11.8-11.8h10.4c6.5,0,11.8,5.3,11.8,11.8V317.2z M292.7,293.2c2.4-1,4-3.3,4-6c0-3.6-2.9-6.5-6.5-6.5
						s-6.5,2.9-6.5,6.5c0,2.7,1.6,5,4,6v8c-2.4,1-4,3.3-4,6c0,3.6,2.9,6.5,6.5,6.5s6.5-2.9,6.5-6.5c0-2.7-1.6-5-4-6V293.2z"/>
					<rect x="278.2" y="322.8" class="st5" width="24" height="40"/>
					<circle class="st30" cx="292.7" cy="240.2" r="6.5"/>
					<path class="st5" d="M296.7,287.2c0,2.7-1.6,5-4,6v-4c0-1.4-1.1-2.5-2.5-2.5c-0.7,0-1.3,0.3-1.8,0.7c-0.5,0.5-0.7,1.1-0.7,1.8
						v4c-2.4-1-4-3.3-4-6c0-3.6,2.9-6.5,6.5-6.5S296.7,283.7,296.7,287.2z"/>
					<path class="st5" d="M292.7,301.2c2.4,1,4,3.3,4,6c0,3.6-2.9,6.5-6.5,6.5s-6.5-2.9-6.5-6.5c0-2.7,1.6-5,4-6v3
						c0,1.4,1.1,2.5,2.5,2.5s2.5-1.1,2.5-2.5V301.2z"/>
					<path class="st30" d="M295.5,407.7c0.1,2.8,0.1,5.6,0.1,8.6c0,3.4-0.2,6.7-0.4,9.8c-0.2,3.1-0.6,6-1,8.7
						c-1.6,10.8-4.1,18-4.1,18s-2.4-7.2-4-18c-0.4-2.7-0.8-5.6-1-8.7c-0.3-3.1-0.4-6.4-0.4-9.8c0-3,0.1-5.8,0.1-8.6
						c0.6-16,2.8-27.9,5.4-27.9S295,391.7,295.5,407.7z"/>
					<path class="st5" d="M256.3,79.6l38.9,119.2l-23-26.9v-10v-10c-1.9-1.9-3.4-3.4-4.9-4.9l-1.3-1.3c-1.5-1.5-3-3-4.9-4.9h-10.2
						c-4.3,4.3-6.8,6.8-11.1,11.1v10v10l-23,26.9l38.9-119.2l0.3-1L256.3,79.6z"/>
					<path class="st5" d="M272.2,171.9l23,26.9h-78.4l23-26.9v4c0,3.2,2.6,5.9,5.9,5.9h10.1h10.5c3.2,0,5.9-2.6,5.9-5.9V171.9z"/>
					<path class="st32" d="M292.7,301.2v3c0,1.4-1.1,2.5-2.5,2.5s-2.5-1.1-2.5-2.5v-3v-8v-4c0-0.7,0.3-1.3,0.7-1.8
						c0.4-0.5,1.1-0.7,1.8-0.7c1.4,0,2.5,1.1,2.5,2.5v4V301.2z"/>
					<path class="st32" d="M286.1,434.8h-8.7c-6.2,0-11.7-3.5-14.5-8.7v0l4.6-6.9c0.9-1.3,1.9-2.5,2.9-3.6c0.8,4.9,1.8,8.7,2.3,10.5
						c0.2,0.8,0.4,1.2,0.4,1.2s0.1-0.4,0.4-1.2c0.7-2.4,2.2-8,2.9-15.2c2.6-1.5,5.4-2.5,8.3-3.1c-0.1,2.8-0.1,5.6-0.1,8.6
						c0,3.4,0.2,6.7,0.4,9.8C285.4,429.1,285.7,432.1,286.1,434.8z"/>
					<path class="st30" d="M232.3,217.2h47.4c0,4.7-3.8,8.5-8.5,8.5h-30.4C236.1,225.8,232.3,221.9,232.3,217.2z"/>
					<path class="st30" d="M279.7,217.2h-47.4c0-1.9,0.6-3.6,1.6-5c0.3-0.4,0.6-0.7,0.9-1c1.5-1.5,3.7-2.5,6-2.5h30.4
						c2.3,0,4.5,0.9,6,2.5c0.3,0.3,0.6,0.6,0.9,1C279.1,213.6,279.7,215.4,279.7,217.2z"/>
					<path class="st30" d="M277,402.2c0,3-0.2,5.9-0.5,8.6c-2.2,1.2-4.2,2.8-6,4.7c-0.6-3.9-1.1-8.4-1.1-13.3c0-13.8,1.7-25,3.8-25
						S277,388.4,277,402.2z"/>
					<path class="st30" d="M276.5,410.8c-0.8,7.2-2.2,12.9-2.9,15.2h-0.7c-0.5-1.8-1.5-5.6-2.3-10.5
						C272.3,413.6,274.4,412.1,276.5,410.8z"/>
					<path class="st6" d="M272.9,426h0.7c-0.2,0.8-0.4,1.2-0.4,1.2S273.1,426.8,272.9,426z"/>
					<path class="st30" d="M272.2,171.9v4c0,3.2-2.6,5.9-5.9,5.9h-10.5v-25.9c0,0,0,0,0,0h0c0,0,0,0,0,0c0,0,0,0,0,0s0,0,0,0h0h0h0
						c0,0,0,0,0,0h0c0,0,0,0,0,0c0,0,0,0,0,0h0h0c0,0,0,0,0,0h0.1c3.5,0.1,7,0.9,10.2,2.5c0.5,0.2,1.1,0.5,1.6,0.8
						c0.5,0.3,1,0.6,1.6,1l2.5,1.7V171.9z"/>
					<path class="st31" d="M272.2,151.8v10l-2.5-1.7c-0.5-0.3-1-0.7-1.6-1c-0.5-0.3-1.1-0.6-1.6-0.8c-3.2-1.6-6.7-2.4-10.2-2.5v0
						h-0.1h0h-0.1h0h-0.1h0c0,0,0,0-0.1,0c0,0,0,0,0,0h0h0c0,0,0,0,0,0h0h-0.1c0,0,0,0,0,0h-0.1h-0.1v0c-3.5,0.1-7,0.9-10.2,2.5
						c-0.5,0.2-1.1,0.5-1.6,0.8c-0.5,0.3-1,0.6-1.6,1l-2.5,1.7v-10c4.3-4.3,6.8-6.8,11.1-11.1h10.2c1.9,1.9,3.4,3.4,4.9,4.9l1.3,1.3
						C268.8,148.4,270.3,149.9,272.2,151.8z"/>
					<path class="st6" d="M256.3,155.9L256.3,155.9C256.3,155.9,256.3,155.9,256.3,155.9L256.3,155.9z"/>
					<path class="st6" d="M256.3,155.9h-0.1v0L256.3,155.9L256.3,155.9C256.3,155.9,256.3,155.9,256.3,155.9z"/>
					<path class="st6" d="M256.2,155.9L256.2,155.9C256.2,155.9,256.2,155.9,256.2,155.9L256.2,155.9L256.2,155.9z"/>
					<path class="st6" d="M256.2,155.9L256.2,155.9L256.2,155.9L256.2,155.9C256.1,155.9,256.1,155.9,256.2,155.9L256.2,155.9
						L256.2,155.9z"/>
					<path class="st6" d="M256.1,155.9L256.1,155.9C256.1,155.9,256.1,155.9,256.1,155.9L256.1,155.9
						C256,155.9,256.1,155.9,256.1,155.9L256.1,155.9z"/>
					<path class="st6" d="M255.9,155.9C255.9,155.9,255.9,155.9,255.9,155.9L255.9,155.9C255.9,155.9,255.9,155.9,255.9,155.9
						L255.9,155.9L255.9,155.9z"/>
					<path class="st6" d="M255.9,155.9L255.9,155.9C255.9,155.9,255.9,155.9,255.9,155.9C255.9,155.9,255.9,155.9,255.9,155.9
						L255.9,155.9L255.9,155.9L255.9,155.9z"/>
					<path class="st6" d="M255.8,155.9L255.8,155.9C255.8,155.9,255.8,155.9,255.8,155.9L255.8,155.9
						C255.8,155.9,255.8,155.9,255.8,155.9z"/>
					<path class="st30" d="M255.8,155.9v25.9h-10.1c-3.2,0-5.9-2.6-5.9-5.9v-4v-10l2.5-1.7c0.5-0.3,1-0.7,1.6-1
						c0.5-0.3,1.1-0.6,1.6-0.8c3.2-1.6,6.7-2.4,10.2-2.5H255.8z"/>
					<path class="st6" d="M255.8,155.9L255.8,155.9l-0.1,0C255.7,155.9,255.7,155.9,255.8,155.9L255.8,155.9z"/>
					<path class="st6" d="M255.8,155.9C255.7,155.9,255.7,155.9,255.8,155.9L255.8,155.9L255.8,155.9z"/>
					<path class="st6" d="M250.1,385.4c2.4,8.8,3.1,18,1.8,27l-1.1,8.2c-0.3,1.9-0.9,3.8-1.8,5.4l-4.6-6.9c-0.9-1.3-1.9-2.5-2.9-3.6
						c0.6-3.9,1.1-8.4,1.1-13.3c0-13.8-1.7-25-3.8-25s-3.8,11.2-3.8,25c0,3,0.2,5.9,0.5,8.6c-2.6-1.5-5.4-2.5-8.3-3.1
						c-0.6-16-2.8-27.9-5.3-27.9c-2.6,0-4.8,11.9-5.4,27.9c-2.9,0.6-5.7,1.6-8.3,3.1c0.3-2.7,0.5-5.5,0.5-8.6c0-13.8-1.7-25-3.8-25
						c-2.1,0-3.8,11.2-3.8,25c0,4.9,0.5,9.4,1.1,13.3c-1,1.1-2,2.3-2.9,3.6l-4.6,6.9c-0.9-1.6-1.5-3.5-1.8-5.4l-1.1-8.2
						c-1.2-9-0.6-18.2,1.8-27l4.3-15.4c1.2-4.3,5.1-7.3,9.6-7.3h2.5h24h2.4c4.5,0,8.4,3,9.6,7.3L250.1,385.4z"/>
					<path class="st32" d="M249,426L249,426c-2.8,5.2-8.2,8.7-14.4,8.7h-8.7c0.4-2.7,0.8-5.6,1-8.7c0.3-3.1,0.4-6.4,0.4-9.8
						c0-3-0.1-5.8-0.2-8.6c2.9,0.6,5.7,1.6,8.3,3.1c0.8,7.2,2.2,12.9,2.9,15.2c0.2,0.8,0.4,1.2,0.4,1.2s0.1-0.4,0.4-1.2
						c0.5-1.8,1.5-5.6,2.3-10.5c1,1.1,2,2.3,2.9,3.6L249,426z"/>
					<path class="st30" d="M242.6,402.2c0,4.9-0.5,9.4-1.1,13.3c-1.8-1.9-3.8-3.5-6-4.7c-0.3-2.7-0.5-5.5-0.5-8.6
						c0-13.8,1.7-25,3.8-25S242.6,388.4,242.6,402.2z"/>
					<path class="st30" d="M241.5,415.5c-0.8,4.9-1.8,8.7-2.3,10.5h-0.7c-0.7-2.4-2.2-8-2.9-15.2
						C237.6,412.1,239.7,413.6,241.5,415.5z"/>
					<path class="st6" d="M238.4,426h0.7c-0.2,0.8-0.4,1.2-0.4,1.2S238.6,426.8,238.4,426z"/>
					<path class="st30" d="M238.8,317.2v2.8c0,1.5-1.2,2.7-2.7,2.7h-2.3h-24h-2.3c-1.5,0-2.7-1.2-2.7-2.7v-2.8v-34.7
						c0-6.5,5.3-11.8,11.8-11.8H227c6.5,0,11.8,5.3,11.8,11.8V317.2z M224.3,293.2c2.3-1,4-3.3,4-6c0-3.6-2.9-6.5-6.5-6.5
						c-3.6,0-6.5,2.9-6.5,6.5c0,2.7,1.6,5,4,6v8c-2.4,1-4,3.3-4,6c0,3.6,2.9,6.5,6.5,6.5c3.6,0,6.5-2.9,6.5-6.5c0-2.7-1.7-5-4-6
						V293.2z"/>
					<path class="st5" d="M238.8,235.9v8.8c0,3.9-3.2,7.1-7.1,7.1h-33.9h-21v-23h20.9h0.1h19h14.9
						C235.6,228.8,238.8,231.9,238.8,235.9z M225.8,240.2c0-3.6-2.9-6.5-6.5-6.5c-3.6,0-6.5,2.9-6.5,6.5s2.9,6.5,6.5,6.5
						C222.9,246.8,225.8,243.8,225.8,240.2z M199.8,240.2c0-3.6-2.9-6.5-6.5-6.5c-3.6,0-6.5,2.9-6.5,6.5s2.9,6.5,6.5,6.5
						C196.9,246.8,199.8,243.8,199.8,240.2z"/>
					<rect x="209.8" y="322.8" class="st5" width="24" height="40"/>
					<path class="st5" d="M228.3,287.2c0,2.7-1.7,5-4,6v-4c0-0.7-0.3-1.3-0.7-1.8c-0.4-0.5-1.1-0.7-1.8-0.7c-1.4,0-2.5,1.1-2.5,2.5
						v4c-2.4-1-4-3.3-4-6c0-3.6,2.9-6.5,6.5-6.5C225.4,280.8,228.3,283.7,228.3,287.2z"/>
					<path class="st5" d="M224.3,301.2c2.3,1,4,3.3,4,6c0,3.6-2.9,6.5-6.5,6.5c-3.6,0-6.5-2.9-6.5-6.5c0-2.7,1.6-5,4-6v3
						c0,1.4,1.1,2.5,2.5,2.5c1.4,0,2.5-1.1,2.5-2.5V301.2z"/>
					<path class="st30" d="M227.2,407.7c0.1,2.8,0.2,5.6,0.2,8.6c0,3.4-0.2,6.7-0.4,9.8c-0.2,3.1-0.6,6-1,8.7c-1.6,10.8-4,18-4,18
						s-2.4-7.2-4.1-18c-0.4-2.7-0.8-5.6-1-8.7c-0.3-3.1-0.4-6.4-0.4-9.8c0-3,0-5.8,0.1-8.6c0.6-16,2.8-27.9,5.4-27.9
						C224.4,379.8,226.6,391.7,227.2,407.7z"/>
					<circle class="st30" cx="219.3" cy="240.2" r="6.5"/>
					<path class="st32" d="M224.3,301.2v3c0,1.4-1.1,2.5-2.5,2.5c-1.4,0-2.5-1.1-2.5-2.5v-3v-8v-4c0-1.4,1.1-2.5,2.5-2.5
						c0.7,0,1.3,0.3,1.8,0.7c0.4,0.5,0.7,1.1,0.7,1.8v4V301.2z"/>
					<path class="st32" d="M217.8,434.8h-8.7c-6.2,0-11.7-3.5-14.4-8.7v0l4.6-6.9c0.9-1.3,1.9-2.5,2.9-3.6c0.8,4.9,1.8,8.7,2.3,10.5
						c0.2,0.8,0.4,1.2,0.4,1.2s0.1-0.4,0.4-1.2c0.7-2.4,2.2-8,2.9-15.2c2.6-1.5,5.4-2.5,8.3-3.1c-0.1,2.8-0.1,5.6-0.1,8.6
						c0,3.4,0.2,6.7,0.4,9.8C217,429.1,217.4,432.1,217.8,434.8z"/>
					<path class="st30" d="M208.6,402.2c0,3-0.2,5.9-0.5,8.6c-2.2,1.2-4.2,2.8-6,4.7c-0.6-3.9-1.1-8.4-1.1-13.3
						c0-13.8,1.7-25,3.8-25C206.9,377.2,208.6,388.4,208.6,402.2z"/>
					<path class="st30" d="M208.2,410.8c-0.8,7.2-2.2,12.9-2.9,15.2h-0.7c-0.5-1.8-1.5-5.6-2.3-10.5
						C204,413.6,206,412.1,208.2,410.8z"/>
					<path class="st6" d="M204.5,426h0.7c-0.2,0.8-0.4,1.2-0.4,1.2S204.7,426.8,204.5,426z"/>
					<circle class="st30" cx="193.3" cy="240.2" r="6.5"/>
					<path class="st6" d="M197.8,259.8v35l-28.2-21.4c-6.8-5.2-15.1-7.1-23-6.1c0,0-0.1,0-0.1,0h0l-11.7-16.6l7-7l-11.4-19.5
						l59.5-42.5l0.1,0l6.2,39h-18.3c-2.6,0-4.9,0.9-6.8,2.3c-2.6,2-4.3,5.2-4.3,8.8v16.8c0,3.6,1.7,6.8,4.3,8.8
						c1.9,1.5,4.2,2.3,6.8,2.3H197.8z"/>
					<path class="st32" d="M197.8,251.8v8h-19.9c-2.6,0-4.9-0.9-6.8-2.3l5.7-5.7H197.8z"/>
					<rect x="197.7" y="220.8" class="st6" width="0.1" height="8"/>
					<polygon class="st5" points="197.8,167.2 197.8,220.8 197.7,220.8 197.7,176.8 190,181.7 190,181.7 190,181.8 189.9,181.8 
						130.4,224.2 101.8,244.7 101.8,235.2 190,172.3 189.8,172.8 190.1,172.2 190.2,172.2 					"/>
					<path class="st32" d="M197.7,220.8v8h-20.9l-5.7-5.7c1.9-1.4,4.2-2.3,6.8-2.3h18.3H197.7z"/>
					<polygon class="st32" points="197.7,176.8 197.7,220.8 196.2,220.8 190,181.8 190,181.7 190,181.7 					"/>
					<polygon class="st6" points="190.1,172.2 189.8,172.8 190,172.3 190,172.3 					"/>
					<path class="st32" d="M176.8,228.8v23l-5.7,5.7c-2.6-2-4.3-5.2-4.3-8.8v-16.8c0-3.6,1.7-6.8,4.3-8.8L176.8,228.8z"/>
					<path class="st32" d="M134.8,250.8l11.7,16.6c-6.6,0.9-12.9,4-17.9,9l-26.8,27.4v-59.1l28.6-20.4l11.4,19.5L134.8,250.8z
						 M116.8,275.8v-22c0-1.1-0.4-2.1-1.2-2.8c-0.7-0.7-1.7-1.2-2.8-1.2c-2.2,0-4,1.8-4,4v22c0,2.2,1.8,4,4,4S116.8,278,116.8,275.8
						z"/>
					<path class="st30" d="M116.8,253.8v22c0,2.2-1.8,4-4,4s-4-1.8-4-4v-22c0-2.2,1.8-4,4-4c1.1,0,2.1,0.4,2.8,1.2
						C116.4,251.6,116.8,252.6,116.8,253.8z"/>
				</g>
				<g>
					<line class="st21" x1="171.1" y1="223.1" x2="176.8" y2="228.8"/>
					<line class="st21" x1="197.7" y1="228.8" x2="197.7" y2="220.8"/>
					<path class="st21" d="M233.8,322.8h2.3c1.5,0,2.7-1.2,2.7-2.7v-2.8"/>
					<path class="st21" d="M204.8,317.2v2.8c0,1.5,1.2,2.7,2.7,2.7h2.3"/>
					<polyline class="st21" points="209.8,362.8 209.8,322.8 233.8,322.8 233.8,362.8 					"/>
					<path class="st21" d="M217.8,434.8h-8.7c-6.2,0-11.7-3.5-14.4-8.7v0"/>
					<path class="st21" d="M249,426L249,426c-2.8,5.2-8.2,8.7-14.4,8.7h-8.7"/>
					<path class="st21" d="M202.2,415.5c-1,1.1-2,2.3-2.9,3.6l-4.6,6.9c-0.9-1.6-1.5-3.5-1.8-5.4l-1.1-8.2c-1.2-9-0.6-18.2,1.8-27
						l4.3-15.4c1.2-4.3,5.1-7.3,9.6-7.3h2.5h24h2.4c4.5,0,8.4,3,9.6,7.3l4.3,15.4c2.4,8.8,3.1,18,1.8,27l-1.1,8.2
						c-0.3,1.9-0.9,3.8-1.8,5.4l-4.6-6.9c-0.9-1.3-1.9-2.5-2.9-3.6"/>
					<path class="st21" d="M216.5,407.7c-2.9,0.6-5.7,1.6-8.3,3.1"/>
					<path class="st21" d="M235.5,410.8c-2.6-1.5-5.4-2.5-8.3-3.1"/>
					<path class="st21" d="M227.2,407.7c0.1,2.8,0.2,5.6,0.2,8.6c0,3.4-0.2,6.7-0.4,9.8c-0.2,3.1-0.6,6-1,8.7c-1.6,10.8-4,18-4,18
						s-2.4-7.2-4.1-18c-0.4-2.7-0.8-5.6-1-8.7c-0.3-3.1-0.4-6.4-0.4-9.8c0-3,0-5.8,0.1-8.6c0.6-16,2.8-27.9,5.4-27.9
						C224.4,379.8,226.6,391.7,227.2,407.7z"/>
					<path class="st21" d="M235.5,410.8c-0.3-2.7-0.5-5.5-0.5-8.6c0-13.8,1.7-25,3.8-25s3.8,11.2,3.8,25c0,4.9-0.5,9.4-1.1,13.3
						c-0.8,4.9-1.8,8.7-2.3,10.5c-0.2,0.8-0.4,1.2-0.4,1.2s-0.1-0.4-0.4-1.2C237.7,423.7,236.2,418,235.5,410.8z"/>
					<path class="st21" d="M202.2,415.5c-0.6-3.9-1.1-8.4-1.1-13.3c0-13.8,1.7-25,3.8-25c2.1,0,3.8,11.2,3.8,25c0,3-0.2,5.9-0.5,8.6
						c-0.8,7.2-2.2,12.9-2.9,15.2c-0.2,0.8-0.4,1.2-0.4,1.2s-0.1-0.4-0.4-1.2C203.9,424.2,202.9,420.5,202.2,415.5z"/>
					<path class="st21" d="M219.3,293.2c-2.4-1-4-3.3-4-6c0-3.6,2.9-6.5,6.5-6.5c3.6,0,6.5,2.9,6.5,6.5c0,2.7-1.7,5-4,6"/>
					<path class="st21" d="M224.3,301.2c2.3,1,4,3.3,4,6c0,3.6-2.9,6.5-6.5,6.5c-3.6,0-6.5-2.9-6.5-6.5c0-2.7,1.6-5,4-6"/>
					<path class="st21" d="M219.3,293.2v-4c0-1.4,1.1-2.5,2.5-2.5c0.7,0,1.3,0.3,1.8,0.7c0.4,0.5,0.7,1.1,0.7,1.8v4v8v3
						c0,1.4-1.1,2.5-2.5,2.5c-1.4,0-2.5-1.1-2.5-2.5v-3V293.2z"/>
					<line class="st21" x1="197.8" y1="220.8" x2="197.7" y2="220.8"/>
					<polyline class="st21" points="101.8,244.7 101.8,235.2 190,172.3 					"/>
					<path class="st21" d="M197.8,294.8l-28.2-21.4c-6.8-5.2-15.1-7.1-23-6.1c0,0-0.1,0-0.1,0h0"/>
					<path class="st21" d="M196.2,220.8h-18.3c-2.6,0-4.9,0.9-6.8,2.3c-2.6,2-4.3,5.2-4.3,8.8v16.8c0,3.6,1.7,6.8,4.3,8.8
						c1.9,1.5,4.2,2.3,6.8,2.3h19.9"/>
					<path class="st21" d="M146.5,267.3c-6.6,0.9-12.9,4-17.9,9l-26.8,27.4v-59.1l28.6-20.4l11.4,19.5l-7,7L146.5,267.3z"/>
					<polyline class="st21" points="190.1,172.2 189.8,172.8 190,172.3 190,172.3 					"/>
					<polyline class="st21" points="197.8,228.8 197.7,228.8 176.8,228.8 176.8,251.8 197.8,251.8 					"/>
					<line class="st21" x1="176.8" y1="251.8" x2="171.1" y2="257.4"/>
					<circle class="st21" cx="193.3" cy="240.2" r="6.5"/>
					<circle class="st21" cx="219.3" cy="240.2" r="6.5"/>
					<polygon class="st21" points="190,181.8 190,181.7 190,181.7 197.7,176.8 197.7,220.8 196.2,220.8 					"/>
					<line class="st21" x1="189.9" y1="181.8" x2="130.4" y2="224.2"/>
					<line class="st21" x1="101.8" y1="244.7" x2="101.7" y2="244.8"/>
					<line class="st21" x1="146.8" y1="267.8" x2="146.5" y2="267.3"/>
					<path class="st21" d="M112.8,279.8c-2.2,0-4-1.8-4-4v-22c0-2.2,1.8-4,4-4c1.1,0,2.1,0.4,2.8,1.2c0.7,0.7,1.2,1.7,1.2,2.8v22
						C116.8,278,115,279.8,112.8,279.8z"/>
					<line class="st21" x1="239.8" y1="161.9" x2="239.8" y2="171.9"/>
					<path class="st21" d="M302.2,322.8h2.3c1.5,0,2.7-1.2,2.7-2.7v-2.8"/>
					<path class="st21" d="M273.2,317.2v2.8c0,1.5,1.2,2.7,2.7,2.7h2.3"/>
					<polyline class="st21" points="302.2,362.8 302.2,322.8 278.2,322.8 278.2,362.8 					"/>
					<path class="st21" d="M263,426c-0.9-1.6-1.5-3.5-1.8-5.4l-1.1-8.2c-1.2-9-0.6-18.2,1.8-27l4.3-15.4c1.2-4.3,5.1-7.3,9.6-7.3
						h2.4h24h2.5c4.5,0,8.4,3,9.6,7.3l4.3,15.4c2.4,8.8,3,18,1.8,27l-1.1,8.2c-0.3,1.9-0.9,3.8-1.8,5.4"/>
					<path class="st21" d="M276.5,410.8c2.6-1.5,5.4-2.5,8.3-3.1"/>
					<path class="st21" d="M286.1,434.8h-8.7c-6.2,0-11.7-3.5-14.5-8.7v0l4.6-6.9c0.9-1.3,1.9-2.5,2.9-3.6"/>
					<path class="st21" d="M309.8,415.5c1,1.1,2,2.3,2.9,3.6l4.7,6.9v0c-2.8,5.2-8.2,8.7-14.5,8.7h-8.7"/>
					<path class="st21" d="M295.5,407.7c2.9,0.6,5.7,1.6,8.3,3.1"/>
					<path class="st21" d="M295.5,407.7c0.1,2.8,0.1,5.6,0.1,8.6c0,3.4-0.2,6.7-0.4,9.8c-0.2,3.1-0.6,6-1,8.7
						c-1.6,10.8-4.1,18-4.1,18s-2.4-7.2-4-18c-0.4-2.7-0.8-5.6-1-8.7c-0.3-3.1-0.4-6.4-0.4-9.8c0-3,0.1-5.8,0.1-8.6
						c0.6-16,2.8-27.9,5.4-27.9S295,391.7,295.5,407.7z"/>
					<path class="st21" d="M270.5,415.5c-0.6-3.9-1.1-8.4-1.1-13.3c0-13.8,1.7-25,3.8-25s3.8,11.2,3.8,25c0,3-0.2,5.9-0.5,8.6
						c-0.8,7.2-2.2,12.9-2.9,15.2c-0.2,0.8-0.4,1.2-0.4,1.2s-0.1-0.4-0.4-1.2C272.3,424.2,271.3,420.5,270.5,415.5z"/>
					<path class="st21" d="M303.8,410.8c-0.3-2.7-0.5-5.5-0.5-8.6c0-13.8,1.7-25,3.8-25c2.1,0,3.8,11.2,3.8,25
						c0,4.9-0.5,9.4-1.1,13.3c-0.8,4.9-1.8,8.7-2.3,10.5c-0.2,0.8-0.4,1.2-0.4,1.2s-0.1-0.4-0.4-1.2
						C306.1,423.7,304.6,418,303.8,410.8z"/>
					<path class="st21" d="M287.7,293.2c-2.4-1-4-3.3-4-6c0-3.6,2.9-6.5,6.5-6.5s6.5,2.9,6.5,6.5c0,2.7-1.6,5-4,6"/>
					<path class="st21" d="M292.7,301.2c2.4,1,4,3.3,4,6c0,3.6-2.9,6.5-6.5,6.5s-6.5-2.9-6.5-6.5c0-2.7,1.6-5,4-6"/>
					<path class="st21" d="M287.7,293.2v-4c0-0.7,0.3-1.3,0.7-1.8c0.4-0.5,1.1-0.7,1.8-0.7c1.4,0,2.5,1.1,2.5,2.5v4v8v3
						c0,1.4-1.1,2.5-2.5,2.5s-2.5-1.1-2.5-2.5v-3V293.2z"/>
					<path class="st21" d="M216.8,228.8h14.9c3.9,0,7.1,3.2,7.1,7.1v8.8c0,3.9-3.2,7.1-7.1,7.1h-33.9v8v35v22.5h7v-34.7
						c0-6.5,5.3-11.8,11.8-11.8H227c6.5,0,11.8,5.3,11.8,11.8v34.7h34.4v-34.7c0-6.5,5.3-11.8,11.8-11.8h10.4
						c6.5,0,11.8,5.3,11.8,11.8v34.7h7v-22.5"/>
					<path class="st21" d="M272.2,171.9l23,26.9h-78.4l23-26.9v4c0,3.2,2.6,5.9,5.9,5.9h10.1"/>
					<path class="st21" d="M365.5,267.3c0,0-0.1,0-0.1,0c-7.9-1.1-16.2,0.9-23,6.1l-28.2,21.4v-35"/>
					<path class="st21" d="M322,172.3l88.2,63v9.4v59.1l-26.8-27.4c-5-5.1-11.3-8.1-17.9-9"/>
					<path class="st21" d="M315.8,220.8h18.3c2.6,0,4.9,0.9,6.8,2.3"/>
					<polyline class="st21" points="314.2,220.8 314.3,220.8 314.3,228.8 					"/>
					<path class="st21" d="M335.2,228.8l5.7-5.7c2.6,2,4.3,5.2,4.3,8.8v16.8c0,3.6-1.7,6.8-4.3,8.8c-1.9,1.5-4.2,2.3-6.8,2.3h-19.9
						v-8"/>
					<polyline class="st21" points="197.8,167.2 190.2,172.2 190.1,172.2 190,172.3 237.1,59.2 274.9,59.2 322,172.3 					"/>
					<polyline class="st21" points="321.9,172.2 321.8,172.2 314.2,167.2 					"/>
					<polygon class="st21" points="322,172.3 322.2,172.8 321.9,172.2 322,172.3 					"/>
					<path class="st21" d="M272.2,161.9v10v4c0,3.2-2.6,5.9-5.9,5.9h-10.5v-25.9"/>
					<path class="st21" d="M295.2,228.8h-14.9c-3.9,0-7.1,3.2-7.1,7.1v8.8c0,3.9,3.2,7.1,7.1,7.1h33.9h21v-23h-20.9h-0.1"/>
					<line class="st21" x1="335.2" y1="251.8" x2="340.9" y2="257.4"/>
					<circle class="st21" cx="318.7" cy="240.2" r="6.5"/>
					<circle class="st21" cx="292.7" cy="240.2" r="6.5"/>
					<path class="st21" d="M255.7,155.9c-3.5,0.1-7,0.9-10.2,2.5c-0.5,0.2-1.1,0.5-1.6,0.8c-0.5,0.3-1,0.6-1.6,1l-2.5,1.7v-10
						c4.3-4.3,6.8-6.8,11.1-11.1h10.2c1.9,1.9,3.4,3.4,4.9,4.9l1.3,1.3c1.5,1.5,3,3,4.9,4.9v10l-2.5-1.7c-0.5-0.3-1-0.7-1.6-1
						c-0.5-0.3-1.1-0.6-1.6-0.8c-3.2-1.6-6.7-2.4-10.2-2.5"/>
					<path class="st21" d="M255.8,155.9L255.8,155.9L255.8,155.9c0.1,0,0.1,0,0.1,0h0h0c0,0,0,0,0,0"/>
					<path class="st21" d="M255.9,155.9L255.9,155.9C255.9,155.9,255.9,155.9,255.9,155.9C255.9,155.9,255.9,155.9,255.9,155.9"/>
					<polyline class="st21" points="256.2,155.9 256.2,155.9 256.2,155.9 256.3,155.9 256.3,155.9 256.2,155.9 					"/>
					<path class="st21" d="M255.9,155.9C255.9,155.9,255.9,155.9,255.9,155.9L255.9,155.9C255.8,155.9,255.8,155.9,255.9,155.9h-0.2
						v0L255.9,155.9L255.9,155.9C255.8,155.9,255.8,155.9,255.9,155.9L255.9,155.9"/>
					<path class="st21" d="M256.2,155.9L256.2,155.9C256.2,155.9,256.2,155.9,256.2,155.9L256.2,155.9L256.2,155.9
						C256.1,155.9,256.1,155.9,256.2,155.9c-0.1,0-0.1,0-0.1,0h0C256,155.9,256.1,155.9,256.2,155.9L256.2,155.9L256.2,155.9
						L256.2,155.9z"/>
					<path class="st21" d="M255.7,155.9C255.7,155.9,255.7,155.9,255.7,155.9"/>
					<polygon class="st21" points="314.3,220.8 314.3,176.8 322,181.7 322,181.7 322,181.8 315.8,220.8 					"/>
					<polyline class="st21" points="410.3,244.8 410.2,244.7 381.6,224.2 322.1,181.8 					"/>
					<polyline class="st21" points="381.6,224.2 370.2,243.8 377.2,250.8 365.5,267.3 365.5,267.3 365.2,267.8 					"/>
					<path class="st21" d="M399.2,279.8c2.2,0,4-1.8,4-4v-22c0-2.2-1.8-4-4-4c-1.1,0-2.1,0.4-2.8,1.2c-0.7,0.7-1.2,1.7-1.2,2.8v22
						C395.2,278,397,279.8,399.2,279.8z"/>
					<path class="st21" d="M232.3,217.2c0-1.9,0.6-3.6,1.6-5c0.3-0.4,0.6-0.7,0.9-1c1.5-1.5,3.7-2.5,6-2.5h30.4c2.3,0,4.5,0.9,6,2.5
						c0.3,0.3,0.6,0.6,0.9,1c1,1.4,1.6,3.1,1.6,5"/>
					<path class="st21" d="M279.7,217.2c0,4.7-3.8,8.5-8.5,8.5h-30.4c-4.7,0-8.5-3.8-8.5-8.5H279.7z"/>
					<polygon class="st21" points="314.2,167.2 314.2,220.8 314.2,228.8 295.2,228.8 295.2,198.8 256.3,79.6 256,78.6 255.7,79.6 
						216.8,198.8 216.8,228.8 197.8,228.8 197.8,220.8 197.8,167.2 209.5,139.2 209.5,139.2 209.5,139.2 209.5,139.1 241.1,63.2 
						270.9,63.2 302.5,139.1 302.5,139.2 302.5,139.2 302.5,139.2 					"/>
				</g>
			</g>
		</g>
	</g>
</g>
<g id="PURPLE">
	<g id="Spaceships_3_">
		<g id="Small_x5F_2_4_">
			<g id="XMLID_47_">
				<g>
					<path class="st35" d="M410.2,244.7v59.1l-26.8-27.4c-5-5.1-11.3-8.1-17.9-9l11.7-16.6l-7-7l11.4-19.5L410.2,244.7z
						 M403.2,275.8v-22c0-2.2-1.8-4-4-4c-1.1,0-2.1,0.4-2.8,1.2c-0.7,0.7-1.2,1.7-1.2,2.8v22c0,2.2,1.8,4,4,4
						C401.4,279.8,403.2,278,403.2,275.8z"/>
					<polygon class="st5" points="410.2,235.2 410.2,244.7 381.6,224.2 322.1,181.8 322,181.8 322,181.7 322,181.7 314.3,176.8 
						314.3,220.8 314.2,220.8 314.2,167.2 321.8,172.2 321.9,172.2 322.2,172.8 322,172.3 					"/>
					<path class="st33" d="M403.2,253.8v22c0,2.2-1.8,4-4,4c-2.2,0-4-1.8-4-4v-22c0-1.1,0.5-2.1,1.2-2.8c0.7-0.7,1.7-1.2,2.8-1.2
						C401.4,249.8,403.2,251.5,403.2,253.8z"/>
					<path class="st6" d="M381.6,224.2l-11.4,19.5l7,7l-11.7,16.6h0c0,0-0.1,0-0.1,0c-7.9-1.1-16.2,0.9-23,6.1l-28.2,21.4v-35h19.9
						c2.6,0,4.9-0.9,6.8-2.3c2.6-2,4.3-5.2,4.3-8.8v-16.8c0-3.6-1.7-6.8-4.3-8.8c-1.9-1.4-4.2-2.3-6.8-2.3h-18.3l6.2-39l0.1,0
						L381.6,224.2z"/>
					<path class="st35" d="M345.2,231.9v16.8c0,3.6-1.7,6.8-4.3,8.8l-5.7-5.7v-23l5.7-5.7C343.5,225.1,345.2,228.3,345.2,231.9z"/>
					<path class="st35" d="M340.9,223.1l-5.7,5.7h-20.9v-8h1.5h18.3C336.6,220.8,339,221.6,340.9,223.1z"/>
					<path class="st35" d="M335.2,251.8l5.7,5.7c-1.9,1.5-4.2,2.3-6.8,2.3h-19.9v-8H335.2z"/>
					<path class="st5" d="M335.2,228.8v23h-21h-33.9c-3.9,0-7.1-3.2-7.1-7.1v-8.8c0-3.9,3.2-7.1,7.1-7.1h14.9h19h0.1H335.2z
						 M325.2,240.2c0-3.6-2.9-6.5-6.5-6.5s-6.5,2.9-6.5,6.5s2.9,6.5,6.5,6.5S325.2,243.8,325.2,240.2z M299.2,240.2
						c0-3.6-2.9-6.5-6.5-6.5s-6.5,2.9-6.5,6.5s2.9,6.5,6.5,6.5S299.2,243.8,299.2,240.2z"/>
					<circle class="st33" cx="318.7" cy="240.2" r="6.5"/>
					<polygon class="st6" points="322,172.3 322.2,172.8 321.9,172.2 322,172.3 					"/>
					<polygon class="st35" points="322,181.7 322,181.8 315.8,220.8 314.3,220.8 314.3,176.8 322,181.7 					"/>
					<polygon class="st5" points="274.9,59.2 322,172.3 321.9,172.2 321.8,172.2 314.2,167.2 302.5,139.2 302.5,139.2 302.5,139.2 
						302.5,139.1 270.9,63.2 241.1,63.2 209.5,139.1 209.5,139.2 209.5,139.2 209.5,139.2 197.8,167.2 190.2,172.2 190.1,172.2 
						190,172.3 237.1,59.2 					"/>
					<path class="st6" d="M318.5,385.4c2.4,8.8,3,18,1.8,27l-1.1,8.2c-0.3,1.9-0.9,3.8-1.8,5.4l-4.7-6.9c-0.9-1.3-1.9-2.5-2.9-3.6
						c0.6-3.9,1.1-8.4,1.1-13.3c0-13.8-1.7-25-3.8-25c-2.1,0-3.8,11.2-3.8,25c0,3,0.2,5.9,0.5,8.6c-2.6-1.5-5.4-2.5-8.3-3.1
						c-0.6-16-2.8-27.9-5.4-27.9s-4.8,11.9-5.4,27.9c-2.9,0.6-5.7,1.6-8.3,3.1c0.3-2.7,0.5-5.5,0.5-8.6c0-13.8-1.7-25-3.8-25
						s-3.8,11.2-3.8,25c0,4.9,0.5,9.4,1.1,13.3c-1,1.1-2,2.3-2.9,3.6L263,426c-0.9-1.6-1.5-3.5-1.8-5.4l-1.1-8.2
						c-1.2-9-0.6-18.2,1.8-27l4.3-15.4c1.2-4.3,5.1-7.3,9.6-7.3h2.4h24h2.5c4.5,0,8.4,3,9.6,7.3L318.5,385.4z"/>
					<path class="st35" d="M317.4,426L317.4,426c-2.8,5.2-8.2,8.7-14.5,8.7h-8.7c0.4-2.7,0.8-5.6,1-8.7c0.3-3.1,0.4-6.4,0.4-9.8
						c0-3,0-5.8-0.1-8.6c2.9,0.6,5.7,1.6,8.3,3.1c0.8,7.2,2.2,12.9,2.9,15.2c0.2,0.8,0.4,1.2,0.4,1.2s0.1-0.4,0.4-1.2
						c0.5-1.8,1.5-5.6,2.3-10.5c1,1.1,2,2.3,2.9,3.6L317.4,426z"/>
					<rect x="314.2" y="220.8" class="st6" width="0.1" height="8"/>
					<path class="st6" d="M314.2,294.8v22.5h-7v-34.7c0-6.5-5.3-11.8-11.8-11.8H285c-6.5,0-11.8,5.3-11.8,11.8v34.7h-34.4v-34.7
						c0-6.5-5.3-11.8-11.8-11.8h-10.4c-6.5,0-11.8,5.3-11.8,11.8v34.7h-7v-22.5v-35v-8h33.9c3.9,0,7.1-3.2,7.1-7.1v-8.8
						c0-3.9-3.2-7.1-7.1-7.1h-14.9v-30h78.4v30h-14.9c-3.9,0-7.1,3.2-7.1,7.1v8.8c0,3.9,3.2,7.1,7.1,7.1h33.9v8V294.8z M279.7,217.2
						c0-1.9-0.6-3.6-1.6-5c-0.3-0.4-0.5-0.7-0.9-1c-1.5-1.5-3.7-2.5-6-2.5h-30.4c-2.3,0-4.5,0.9-6,2.5c-0.3,0.3-0.6,0.6-0.9,1
						c-1,1.4-1.6,3.1-1.6,5c0,4.7,3.8,8.5,8.5,8.5h30.4C275.9,225.8,279.7,221.9,279.7,217.2z"/>
					<polygon class="st33" points="314.2,220.8 314.2,228.8 295.2,228.8 295.2,198.8 256.3,79.6 256,78.6 255.7,79.6 216.8,198.8 
						216.8,228.8 197.8,228.8 197.8,220.8 197.8,167.2 209.5,139.2 209.5,139.2 209.5,139.2 209.5,139.1 241.1,63.2 270.9,63.2 
						302.5,139.1 302.5,139.2 302.5,139.2 302.5,139.2 314.2,167.2 					"/>
					<path class="st33" d="M310.9,402.2c0,4.9-0.5,9.4-1.1,13.3c-1.8-1.9-3.8-3.5-6-4.7c-0.3-2.7-0.5-5.5-0.5-8.6
						c0-13.8,1.7-25,3.8-25C309.2,377.2,310.9,388.4,310.9,402.2z"/>
					<path class="st33" d="M309.8,415.5c-0.8,4.9-1.8,8.7-2.3,10.5h-0.7c-0.7-2.4-2.2-8-2.9-15.2C306,412.1,308,413.6,309.8,415.5z"
						/>
					<path class="st6" d="M306.8,426h0.7c-0.2,0.8-0.4,1.2-0.4,1.2S307,426.8,306.8,426z"/>
					<path class="st33" d="M307.2,317.2v2.8c0,1.5-1.2,2.7-2.7,2.7h-2.3h-24h-2.3c-1.5,0-2.7-1.2-2.7-2.7v-2.8v-34.7
						c0-6.5,5.3-11.8,11.8-11.8h10.4c6.5,0,11.8,5.3,11.8,11.8V317.2z M292.7,293.2c2.4-1,4-3.3,4-6c0-3.6-2.9-6.5-6.5-6.5
						s-6.5,2.9-6.5,6.5c0,2.7,1.6,5,4,6v8c-2.4,1-4,3.3-4,6c0,3.6,2.9,6.5,6.5,6.5s6.5-2.9,6.5-6.5c0-2.7-1.6-5-4-6V293.2z"/>
					<rect x="278.2" y="322.8" class="st5" width="24" height="40"/>
					<circle class="st33" cx="292.7" cy="240.2" r="6.5"/>
					<path class="st5" d="M296.7,287.2c0,2.7-1.6,5-4,6v-4c0-1.4-1.1-2.5-2.5-2.5c-0.7,0-1.3,0.3-1.8,0.7c-0.5,0.5-0.7,1.1-0.7,1.8
						v4c-2.4-1-4-3.3-4-6c0-3.6,2.9-6.5,6.5-6.5S296.7,283.7,296.7,287.2z"/>
					<path class="st5" d="M292.7,301.2c2.4,1,4,3.3,4,6c0,3.6-2.9,6.5-6.5,6.5s-6.5-2.9-6.5-6.5c0-2.7,1.6-5,4-6v3
						c0,1.4,1.1,2.5,2.5,2.5s2.5-1.1,2.5-2.5V301.2z"/>
					<path class="st33" d="M295.5,407.7c0.1,2.8,0.1,5.6,0.1,8.6c0,3.4-0.2,6.7-0.4,9.8c-0.2,3.1-0.6,6-1,8.7
						c-1.6,10.8-4.1,18-4.1,18s-2.4-7.2-4-18c-0.4-2.7-0.8-5.6-1-8.7c-0.3-3.1-0.4-6.4-0.4-9.8c0-3,0.1-5.8,0.1-8.6
						c0.6-16,2.8-27.9,5.4-27.9S295,391.7,295.5,407.7z"/>
					<path class="st5" d="M256.3,79.6l38.9,119.2l-23-26.9v-10v-10c-1.9-1.9-3.4-3.4-4.9-4.9l-1.3-1.3c-1.5-1.5-3-3-4.9-4.9h-10.2
						c-4.3,4.3-6.8,6.8-11.1,11.1v10v10l-23,26.9l38.9-119.2l0.3-1L256.3,79.6z"/>
					<path class="st5" d="M272.2,171.9l23,26.9h-78.4l23-26.9v4c0,3.2,2.6,5.9,5.9,5.9h10.1h10.5c3.2,0,5.9-2.6,5.9-5.9V171.9z"/>
					<path class="st35" d="M292.7,301.2v3c0,1.4-1.1,2.5-2.5,2.5s-2.5-1.1-2.5-2.5v-3v-8v-4c0-0.7,0.3-1.3,0.7-1.8
						c0.4-0.5,1.1-0.7,1.8-0.7c1.4,0,2.5,1.1,2.5,2.5v4V301.2z"/>
					<path class="st35" d="M286.1,434.8h-8.7c-6.2,0-11.7-3.5-14.5-8.7v0l4.6-6.9c0.9-1.3,1.9-2.5,2.9-3.6c0.8,4.9,1.8,8.7,2.3,10.5
						c0.2,0.8,0.4,1.2,0.4,1.2s0.1-0.4,0.4-1.2c0.7-2.4,2.2-8,2.9-15.2c2.6-1.5,5.4-2.5,8.3-3.1c-0.1,2.8-0.1,5.6-0.1,8.6
						c0,3.4,0.2,6.7,0.4,9.8C285.4,429.1,285.7,432.1,286.1,434.8z"/>
					<path class="st33" d="M232.3,217.2h47.4c0,4.7-3.8,8.5-8.5,8.5h-30.4C236.1,225.8,232.3,221.9,232.3,217.2z"/>
					<path class="st33" d="M279.7,217.2h-47.4c0-1.9,0.6-3.6,1.6-5c0.3-0.4,0.6-0.7,0.9-1c1.5-1.5,3.7-2.5,6-2.5h30.4
						c2.3,0,4.5,0.9,6,2.5c0.3,0.3,0.6,0.6,0.9,1C279.1,213.6,279.7,215.4,279.7,217.2z"/>
					<path class="st33" d="M277,402.2c0,3-0.2,5.9-0.5,8.6c-2.2,1.2-4.2,2.8-6,4.7c-0.6-3.9-1.1-8.4-1.1-13.3c0-13.8,1.7-25,3.8-25
						S277,388.4,277,402.2z"/>
					<path class="st33" d="M276.5,410.8c-0.8,7.2-2.2,12.9-2.9,15.2h-0.7c-0.5-1.8-1.5-5.6-2.3-10.5
						C272.3,413.6,274.4,412.1,276.5,410.8z"/>
					<path class="st6" d="M272.9,426h0.7c-0.2,0.8-0.4,1.2-0.4,1.2S273.1,426.8,272.9,426z"/>
					<path class="st33" d="M272.2,171.9v4c0,3.2-2.6,5.9-5.9,5.9h-10.5v-25.9c0,0,0,0,0,0h0c0,0,0,0,0,0c0,0,0,0,0,0s0,0,0,0h0h0h0
						c0,0,0,0,0,0h0c0,0,0,0,0,0c0,0,0,0,0,0h0h0c0,0,0,0,0,0h0.1c3.5,0.1,7,0.9,10.2,2.5c0.5,0.2,1.1,0.5,1.6,0.8
						c0.5,0.3,1,0.6,1.6,1l2.5,1.7V171.9z"/>
					<path class="st34" d="M272.2,151.8v10l-2.5-1.7c-0.5-0.3-1-0.7-1.6-1c-0.5-0.3-1.1-0.6-1.6-0.8c-3.2-1.6-6.7-2.4-10.2-2.5v0
						h-0.1h0h-0.1h0h-0.1h0c0,0,0,0-0.1,0c0,0,0,0,0,0h0h0c0,0,0,0,0,0h0h-0.1c0,0,0,0,0,0h-0.1h-0.1v0c-3.5,0.1-7,0.9-10.2,2.5
						c-0.5,0.2-1.1,0.5-1.6,0.8c-0.5,0.3-1,0.6-1.6,1l-2.5,1.7v-10c4.3-4.3,6.8-6.8,11.1-11.1h10.2c1.9,1.9,3.4,3.4,4.9,4.9l1.3,1.3
						C268.8,148.4,270.3,149.9,272.2,151.8z"/>
					<path class="st6" d="M256.3,155.9L256.3,155.9C256.3,155.9,256.3,155.9,256.3,155.9L256.3,155.9z"/>
					<path class="st6" d="M256.3,155.9h-0.1v0L256.3,155.9L256.3,155.9C256.3,155.9,256.3,155.9,256.3,155.9z"/>
					<path class="st6" d="M256.2,155.9L256.2,155.9C256.2,155.9,256.2,155.9,256.2,155.9L256.2,155.9L256.2,155.9z"/>
					<path class="st6" d="M256.2,155.9L256.2,155.9L256.2,155.9L256.2,155.9C256.1,155.9,256.1,155.9,256.2,155.9L256.2,155.9
						L256.2,155.9z"/>
					<path class="st6" d="M256.1,155.9L256.1,155.9C256.1,155.9,256.1,155.9,256.1,155.9L256.1,155.9
						C256,155.9,256.1,155.9,256.1,155.9L256.1,155.9z"/>
					<path class="st6" d="M255.9,155.9C255.9,155.9,255.9,155.9,255.9,155.9L255.9,155.9C255.9,155.9,255.9,155.9,255.9,155.9
						L255.9,155.9L255.9,155.9z"/>
					<path class="st6" d="M255.9,155.9L255.9,155.9C255.9,155.9,255.9,155.9,255.9,155.9C255.9,155.9,255.9,155.9,255.9,155.9
						L255.9,155.9L255.9,155.9L255.9,155.9z"/>
					<path class="st6" d="M255.8,155.9L255.8,155.9C255.8,155.9,255.8,155.9,255.8,155.9L255.8,155.9
						C255.8,155.9,255.8,155.9,255.8,155.9z"/>
					<path class="st33" d="M255.8,155.9v25.9h-10.1c-3.2,0-5.9-2.6-5.9-5.9v-4v-10l2.5-1.7c0.5-0.3,1-0.7,1.6-1
						c0.5-0.3,1.1-0.6,1.6-0.8c3.2-1.6,6.7-2.4,10.2-2.5H255.8z"/>
					<path class="st6" d="M255.8,155.9L255.8,155.9l-0.1,0C255.7,155.9,255.7,155.9,255.8,155.9L255.8,155.9z"/>
					<path class="st6" d="M255.8,155.9C255.7,155.9,255.7,155.9,255.8,155.9L255.8,155.9L255.8,155.9z"/>
					<path class="st6" d="M250.1,385.4c2.4,8.8,3.1,18,1.8,27l-1.1,8.2c-0.3,1.9-0.9,3.8-1.8,5.4l-4.6-6.9c-0.9-1.3-1.9-2.5-2.9-3.6
						c0.6-3.9,1.1-8.4,1.1-13.3c0-13.8-1.7-25-3.8-25s-3.8,11.2-3.8,25c0,3,0.2,5.9,0.5,8.6c-2.6-1.5-5.4-2.5-8.3-3.1
						c-0.6-16-2.8-27.9-5.3-27.9c-2.6,0-4.8,11.9-5.4,27.9c-2.9,0.6-5.7,1.6-8.3,3.1c0.3-2.7,0.5-5.5,0.5-8.6c0-13.8-1.7-25-3.8-25
						c-2.1,0-3.8,11.2-3.8,25c0,4.9,0.5,9.4,1.1,13.3c-1,1.1-2,2.3-2.9,3.6l-4.6,6.9c-0.9-1.6-1.5-3.5-1.8-5.4l-1.1-8.2
						c-1.2-9-0.6-18.2,1.8-27l4.3-15.4c1.2-4.3,5.1-7.3,9.6-7.3h2.5h24h2.4c4.5,0,8.4,3,9.6,7.3L250.1,385.4z"/>
					<path class="st35" d="M249,426L249,426c-2.8,5.2-8.2,8.7-14.4,8.7h-8.7c0.4-2.7,0.8-5.6,1-8.7c0.3-3.1,0.4-6.4,0.4-9.8
						c0-3-0.1-5.8-0.2-8.6c2.9,0.6,5.7,1.6,8.3,3.1c0.8,7.2,2.2,12.9,2.9,15.2c0.2,0.8,0.4,1.2,0.4,1.2s0.1-0.4,0.4-1.2
						c0.5-1.8,1.5-5.6,2.3-10.5c1,1.1,2,2.3,2.9,3.6L249,426z"/>
					<path class="st33" d="M242.6,402.2c0,4.9-0.5,9.4-1.1,13.3c-1.8-1.9-3.8-3.5-6-4.7c-0.3-2.7-0.5-5.5-0.5-8.6
						c0-13.8,1.7-25,3.8-25S242.6,388.4,242.6,402.2z"/>
					<path class="st33" d="M241.5,415.5c-0.8,4.9-1.8,8.7-2.3,10.5h-0.7c-0.7-2.4-2.2-8-2.9-15.2
						C237.6,412.1,239.7,413.6,241.5,415.5z"/>
					<path class="st6" d="M238.4,426h0.7c-0.2,0.8-0.4,1.2-0.4,1.2S238.6,426.8,238.4,426z"/>
					<path class="st33" d="M238.8,317.2v2.8c0,1.5-1.2,2.7-2.7,2.7h-2.3h-24h-2.3c-1.5,0-2.7-1.2-2.7-2.7v-2.8v-34.7
						c0-6.5,5.3-11.8,11.8-11.8H227c6.5,0,11.8,5.3,11.8,11.8V317.2z M224.3,293.2c2.3-1,4-3.3,4-6c0-3.6-2.9-6.5-6.5-6.5
						c-3.6,0-6.5,2.9-6.5,6.5c0,2.7,1.6,5,4,6v8c-2.4,1-4,3.3-4,6c0,3.6,2.9,6.5,6.5,6.5c3.6,0,6.5-2.9,6.5-6.5c0-2.7-1.7-5-4-6
						V293.2z"/>
					<path class="st5" d="M238.8,235.9v8.8c0,3.9-3.2,7.1-7.1,7.1h-33.9h-21v-23h20.9h0.1h19h14.9
						C235.6,228.8,238.8,231.9,238.8,235.9z M225.8,240.2c0-3.6-2.9-6.5-6.5-6.5c-3.6,0-6.5,2.9-6.5,6.5s2.9,6.5,6.5,6.5
						C222.9,246.8,225.8,243.8,225.8,240.2z M199.8,240.2c0-3.6-2.9-6.5-6.5-6.5c-3.6,0-6.5,2.9-6.5,6.5s2.9,6.5,6.5,6.5
						C196.9,246.8,199.8,243.8,199.8,240.2z"/>
					<rect x="209.8" y="322.8" class="st5" width="24" height="40"/>
					<path class="st5" d="M228.3,287.2c0,2.7-1.7,5-4,6v-4c0-0.7-0.3-1.3-0.7-1.8c-0.4-0.5-1.1-0.7-1.8-0.7c-1.4,0-2.5,1.1-2.5,2.5
						v4c-2.4-1-4-3.3-4-6c0-3.6,2.9-6.5,6.5-6.5C225.4,280.8,228.3,283.7,228.3,287.2z"/>
					<path class="st5" d="M224.3,301.2c2.3,1,4,3.3,4,6c0,3.6-2.9,6.5-6.5,6.5c-3.6,0-6.5-2.9-6.5-6.5c0-2.7,1.6-5,4-6v3
						c0,1.4,1.1,2.5,2.5,2.5c1.4,0,2.5-1.1,2.5-2.5V301.2z"/>
					<path class="st33" d="M227.2,407.7c0.1,2.8,0.2,5.6,0.2,8.6c0,3.4-0.2,6.7-0.4,9.8c-0.2,3.1-0.6,6-1,8.7c-1.6,10.8-4,18-4,18
						s-2.4-7.2-4.1-18c-0.4-2.7-0.8-5.6-1-8.7c-0.3-3.1-0.4-6.4-0.4-9.8c0-3,0-5.8,0.1-8.6c0.6-16,2.8-27.9,5.4-27.9
						C224.4,379.8,226.6,391.7,227.2,407.7z"/>
					<circle class="st33" cx="219.3" cy="240.2" r="6.5"/>
					<path class="st35" d="M224.3,301.2v3c0,1.4-1.1,2.5-2.5,2.5c-1.4,0-2.5-1.1-2.5-2.5v-3v-8v-4c0-1.4,1.1-2.5,2.5-2.5
						c0.7,0,1.3,0.3,1.8,0.7c0.4,0.5,0.7,1.1,0.7,1.8v4V301.2z"/>
					<path class="st35" d="M217.8,434.8h-8.7c-6.2,0-11.7-3.5-14.4-8.7v0l4.6-6.9c0.9-1.3,1.9-2.5,2.9-3.6c0.8,4.9,1.8,8.7,2.3,10.5
						c0.2,0.8,0.4,1.2,0.4,1.2s0.1-0.4,0.4-1.2c0.7-2.4,2.2-8,2.9-15.2c2.6-1.5,5.4-2.5,8.3-3.1c-0.1,2.8-0.1,5.6-0.1,8.6
						c0,3.4,0.2,6.7,0.4,9.8C217,429.1,217.4,432.1,217.8,434.8z"/>
					<path class="st33" d="M208.6,402.2c0,3-0.2,5.9-0.5,8.6c-2.2,1.2-4.2,2.8-6,4.7c-0.6-3.9-1.1-8.4-1.1-13.3
						c0-13.8,1.7-25,3.8-25C206.9,377.2,208.6,388.4,208.6,402.2z"/>
					<path class="st33" d="M208.2,410.8c-0.8,7.2-2.2,12.9-2.9,15.2h-0.7c-0.5-1.8-1.5-5.6-2.3-10.5
						C204,413.6,206,412.1,208.2,410.8z"/>
					<path class="st6" d="M204.5,426h0.7c-0.2,0.8-0.4,1.2-0.4,1.2S204.7,426.8,204.5,426z"/>
					<circle class="st33" cx="193.3" cy="240.2" r="6.5"/>
					<path class="st6" d="M197.8,259.8v35l-28.2-21.4c-6.8-5.2-15.1-7.1-23-6.1c0,0-0.1,0-0.1,0h0l-11.7-16.6l7-7l-11.4-19.5
						l59.5-42.5l0.1,0l6.2,39h-18.3c-2.6,0-4.9,0.9-6.8,2.3c-2.6,2-4.3,5.2-4.3,8.8v16.8c0,3.6,1.7,6.8,4.3,8.8
						c1.9,1.5,4.2,2.3,6.8,2.3H197.8z"/>
					<path class="st35" d="M197.8,251.8v8h-19.9c-2.6,0-4.9-0.9-6.8-2.3l5.7-5.7H197.8z"/>
					<rect x="197.7" y="220.8" class="st6" width="0.1" height="8"/>
					<polygon class="st5" points="197.8,167.2 197.8,220.8 197.7,220.8 197.7,176.8 190,181.7 190,181.7 190,181.8 189.9,181.8 
						130.4,224.2 101.8,244.7 101.8,235.2 190,172.3 189.8,172.8 190.1,172.2 190.2,172.2 					"/>
					<path class="st35" d="M197.7,220.8v8h-20.9l-5.7-5.7c1.9-1.4,4.2-2.3,6.8-2.3h18.3H197.7z"/>
					<polygon class="st35" points="197.7,176.8 197.7,220.8 196.2,220.8 190,181.8 190,181.7 190,181.7 					"/>
					<polygon class="st6" points="190.1,172.2 189.8,172.8 190,172.3 190,172.3 					"/>
					<path class="st35" d="M176.8,228.8v23l-5.7,5.7c-2.6-2-4.3-5.2-4.3-8.8v-16.8c0-3.6,1.7-6.8,4.3-8.8L176.8,228.8z"/>
					<path class="st35" d="M134.8,250.8l11.7,16.6c-6.6,0.9-12.9,4-17.9,9l-26.8,27.4v-59.1l28.6-20.4l11.4,19.5L134.8,250.8z
						 M116.8,275.8v-22c0-1.1-0.4-2.1-1.2-2.8c-0.7-0.7-1.7-1.2-2.8-1.2c-2.2,0-4,1.8-4,4v22c0,2.2,1.8,4,4,4S116.8,278,116.8,275.8
						z"/>
					<path class="st33" d="M116.8,253.8v22c0,2.2-1.8,4-4,4s-4-1.8-4-4v-22c0-2.2,1.8-4,4-4c1.1,0,2.1,0.4,2.8,1.2
						C116.4,251.6,116.8,252.6,116.8,253.8z"/>
				</g>
				<g>
					<line class="st21" x1="171.1" y1="223.1" x2="176.8" y2="228.8"/>
					<line class="st21" x1="197.7" y1="228.8" x2="197.7" y2="220.8"/>
					<path class="st21" d="M233.8,322.8h2.3c1.5,0,2.7-1.2,2.7-2.7v-2.8"/>
					<path class="st21" d="M204.8,317.2v2.8c0,1.5,1.2,2.7,2.7,2.7h2.3"/>
					<polyline class="st21" points="209.8,362.8 209.8,322.8 233.8,322.8 233.8,362.8 					"/>
					<path class="st21" d="M217.8,434.8h-8.7c-6.2,0-11.7-3.5-14.4-8.7v0"/>
					<path class="st21" d="M249,426L249,426c-2.8,5.2-8.2,8.7-14.4,8.7h-8.7"/>
					<path class="st21" d="M202.2,415.5c-1,1.1-2,2.3-2.9,3.6l-4.6,6.9c-0.9-1.6-1.5-3.5-1.8-5.4l-1.1-8.2c-1.2-9-0.6-18.2,1.8-27
						l4.3-15.4c1.2-4.3,5.1-7.3,9.6-7.3h2.5h24h2.4c4.5,0,8.4,3,9.6,7.3l4.3,15.4c2.4,8.8,3.1,18,1.8,27l-1.1,8.2
						c-0.3,1.9-0.9,3.8-1.8,5.4l-4.6-6.9c-0.9-1.3-1.9-2.5-2.9-3.6"/>
					<path class="st21" d="M216.5,407.7c-2.9,0.6-5.7,1.6-8.3,3.1"/>
					<path class="st21" d="M235.5,410.8c-2.6-1.5-5.4-2.5-8.3-3.1"/>
					<path class="st21" d="M227.2,407.7c0.1,2.8,0.2,5.6,0.2,8.6c0,3.4-0.2,6.7-0.4,9.8c-0.2,3.1-0.6,6-1,8.7c-1.6,10.8-4,18-4,18
						s-2.4-7.2-4.1-18c-0.4-2.7-0.8-5.6-1-8.7c-0.3-3.1-0.4-6.4-0.4-9.8c0-3,0-5.8,0.1-8.6c0.6-16,2.8-27.9,5.4-27.9
						C224.4,379.8,226.6,391.7,227.2,407.7z"/>
					<path class="st21" d="M235.5,410.8c-0.3-2.7-0.5-5.5-0.5-8.6c0-13.8,1.7-25,3.8-25s3.8,11.2,3.8,25c0,4.9-0.5,9.4-1.1,13.3
						c-0.8,4.9-1.8,8.7-2.3,10.5c-0.2,0.8-0.4,1.2-0.4,1.2s-0.1-0.4-0.4-1.2C237.7,423.7,236.2,418,235.5,410.8z"/>
					<path class="st21" d="M202.2,415.5c-0.6-3.9-1.1-8.4-1.1-13.3c0-13.8,1.7-25,3.8-25c2.1,0,3.8,11.2,3.8,25c0,3-0.2,5.9-0.5,8.6
						c-0.8,7.2-2.2,12.9-2.9,15.2c-0.2,0.8-0.4,1.2-0.4,1.2s-0.1-0.4-0.4-1.2C203.9,424.2,202.9,420.5,202.2,415.5z"/>
					<path class="st21" d="M219.3,293.2c-2.4-1-4-3.3-4-6c0-3.6,2.9-6.5,6.5-6.5c3.6,0,6.5,2.9,6.5,6.5c0,2.7-1.7,5-4,6"/>
					<path class="st21" d="M224.3,301.2c2.3,1,4,3.3,4,6c0,3.6-2.9,6.5-6.5,6.5c-3.6,0-6.5-2.9-6.5-6.5c0-2.7,1.6-5,4-6"/>
					<path class="st21" d="M219.3,293.2v-4c0-1.4,1.1-2.5,2.5-2.5c0.7,0,1.3,0.3,1.8,0.7c0.4,0.5,0.7,1.1,0.7,1.8v4v8v3
						c0,1.4-1.1,2.5-2.5,2.5c-1.4,0-2.5-1.1-2.5-2.5v-3V293.2z"/>
					<line class="st21" x1="197.8" y1="220.8" x2="197.7" y2="220.8"/>
					<polyline class="st21" points="101.8,244.7 101.8,235.2 190,172.3 					"/>
					<path class="st21" d="M197.8,294.8l-28.2-21.4c-6.8-5.2-15.1-7.1-23-6.1c0,0-0.1,0-0.1,0h0"/>
					<path class="st21" d="M196.2,220.8h-18.3c-2.6,0-4.9,0.9-6.8,2.3c-2.6,2-4.3,5.2-4.3,8.8v16.8c0,3.6,1.7,6.8,4.3,8.8
						c1.9,1.5,4.2,2.3,6.8,2.3h19.9"/>
					<path class="st21" d="M146.5,267.3c-6.6,0.9-12.9,4-17.9,9l-26.8,27.4v-59.1l28.6-20.4l11.4,19.5l-7,7L146.5,267.3z"/>
					<polyline class="st21" points="190.1,172.2 189.8,172.8 190,172.3 190,172.3 					"/>
					<polyline class="st21" points="197.8,228.8 197.7,228.8 176.8,228.8 176.8,251.8 197.8,251.8 					"/>
					<line class="st21" x1="176.8" y1="251.8" x2="171.1" y2="257.4"/>
					<circle class="st21" cx="193.3" cy="240.2" r="6.5"/>
					<circle class="st21" cx="219.3" cy="240.2" r="6.5"/>
					<polygon class="st21" points="190,181.8 190,181.7 190,181.7 197.7,176.8 197.7,220.8 196.2,220.8 					"/>
					<line class="st21" x1="189.9" y1="181.8" x2="130.4" y2="224.2"/>
					<line class="st21" x1="101.8" y1="244.7" x2="101.7" y2="244.8"/>
					<line class="st21" x1="146.8" y1="267.8" x2="146.5" y2="267.3"/>
					<path class="st21" d="M112.8,279.8c-2.2,0-4-1.8-4-4v-22c0-2.2,1.8-4,4-4c1.1,0,2.1,0.4,2.8,1.2c0.7,0.7,1.2,1.7,1.2,2.8v22
						C116.8,278,115,279.8,112.8,279.8z"/>
					<line class="st21" x1="239.8" y1="161.9" x2="239.8" y2="171.9"/>
					<path class="st21" d="M302.2,322.8h2.3c1.5,0,2.7-1.2,2.7-2.7v-2.8"/>
					<path class="st21" d="M273.2,317.2v2.8c0,1.5,1.2,2.7,2.7,2.7h2.3"/>
					<polyline class="st21" points="302.2,362.8 302.2,322.8 278.2,322.8 278.2,362.8 					"/>
					<path class="st21" d="M263,426c-0.9-1.6-1.5-3.5-1.8-5.4l-1.1-8.2c-1.2-9-0.6-18.2,1.8-27l4.3-15.4c1.2-4.3,5.1-7.3,9.6-7.3
						h2.4h24h2.5c4.5,0,8.4,3,9.6,7.3l4.3,15.4c2.4,8.8,3,18,1.8,27l-1.1,8.2c-0.3,1.9-0.9,3.8-1.8,5.4"/>
					<path class="st21" d="M276.5,410.8c2.6-1.5,5.4-2.5,8.3-3.1"/>
					<path class="st21" d="M286.1,434.8h-8.7c-6.2,0-11.7-3.5-14.5-8.7v0l4.6-6.9c0.9-1.3,1.9-2.5,2.9-3.6"/>
					<path class="st21" d="M309.8,415.5c1,1.1,2,2.3,2.9,3.6l4.7,6.9v0c-2.8,5.2-8.2,8.7-14.5,8.7h-8.7"/>
					<path class="st21" d="M295.5,407.7c2.9,0.6,5.7,1.6,8.3,3.1"/>
					<path class="st21" d="M295.5,407.7c0.1,2.8,0.1,5.6,0.1,8.6c0,3.4-0.2,6.7-0.4,9.8c-0.2,3.1-0.6,6-1,8.7
						c-1.6,10.8-4.1,18-4.1,18s-2.4-7.2-4-18c-0.4-2.7-0.8-5.6-1-8.7c-0.3-3.1-0.4-6.4-0.4-9.8c0-3,0.1-5.8,0.1-8.6
						c0.6-16,2.8-27.9,5.4-27.9S295,391.7,295.5,407.7z"/>
					<path class="st21" d="M270.5,415.5c-0.6-3.9-1.1-8.4-1.1-13.3c0-13.8,1.7-25,3.8-25s3.8,11.2,3.8,25c0,3-0.2,5.9-0.5,8.6
						c-0.8,7.2-2.2,12.9-2.9,15.2c-0.2,0.8-0.4,1.2-0.4,1.2s-0.1-0.4-0.4-1.2C272.3,424.2,271.3,420.5,270.5,415.5z"/>
					<path class="st21" d="M303.8,410.8c-0.3-2.7-0.5-5.5-0.5-8.6c0-13.8,1.7-25,3.8-25c2.1,0,3.8,11.2,3.8,25
						c0,4.9-0.5,9.4-1.1,13.3c-0.8,4.9-1.8,8.7-2.3,10.5c-0.2,0.8-0.4,1.2-0.4,1.2s-0.1-0.4-0.4-1.2
						C306.1,423.7,304.6,418,303.8,410.8z"/>
					<path class="st21" d="M287.7,293.2c-2.4-1-4-3.3-4-6c0-3.6,2.9-6.5,6.5-6.5s6.5,2.9,6.5,6.5c0,2.7-1.6,5-4,6"/>
					<path class="st21" d="M292.7,301.2c2.4,1,4,3.3,4,6c0,3.6-2.9,6.5-6.5,6.5s-6.5-2.9-6.5-6.5c0-2.7,1.6-5,4-6"/>
					<path class="st21" d="M287.7,293.2v-4c0-0.7,0.3-1.3,0.7-1.8c0.4-0.5,1.1-0.7,1.8-0.7c1.4,0,2.5,1.1,2.5,2.5v4v8v3
						c0,1.4-1.1,2.5-2.5,2.5s-2.5-1.1-2.5-2.5v-3V293.2z"/>
					<path class="st21" d="M216.8,228.8h14.9c3.9,0,7.1,3.2,7.1,7.1v8.8c0,3.9-3.2,7.1-7.1,7.1h-33.9v8v35v22.5h7v-34.7
						c0-6.5,5.3-11.8,11.8-11.8H227c6.5,0,11.8,5.3,11.8,11.8v34.7h34.4v-34.7c0-6.5,5.3-11.8,11.8-11.8h10.4
						c6.5,0,11.8,5.3,11.8,11.8v34.7h7v-22.5"/>
					<path class="st21" d="M272.2,171.9l23,26.9h-78.4l23-26.9v4c0,3.2,2.6,5.9,5.9,5.9h10.1"/>
					<path class="st21" d="M365.5,267.3c0,0-0.1,0-0.1,0c-7.9-1.1-16.2,0.9-23,6.1l-28.2,21.4v-35"/>
					<path class="st21" d="M322,172.3l88.2,63v9.4v59.1l-26.8-27.4c-5-5.1-11.3-8.1-17.9-9"/>
					<path class="st21" d="M315.8,220.8h18.3c2.6,0,4.9,0.9,6.8,2.3"/>
					<polyline class="st21" points="314.2,220.8 314.3,220.8 314.3,228.8 					"/>
					<path class="st21" d="M335.2,228.8l5.7-5.7c2.6,2,4.3,5.2,4.3,8.8v16.8c0,3.6-1.7,6.8-4.3,8.8c-1.9,1.5-4.2,2.3-6.8,2.3h-19.9
						v-8"/>
					<polyline class="st21" points="197.8,167.2 190.2,172.2 190.1,172.2 190,172.3 237.1,59.2 274.9,59.2 322,172.3 					"/>
					<polyline class="st21" points="321.9,172.2 321.8,172.2 314.2,167.2 					"/>
					<polygon class="st21" points="322,172.3 322.2,172.8 321.9,172.2 322,172.3 					"/>
					<path class="st21" d="M272.2,161.9v10v4c0,3.2-2.6,5.9-5.9,5.9h-10.5v-25.9"/>
					<path class="st21" d="M295.2,228.8h-14.9c-3.9,0-7.1,3.2-7.1,7.1v8.8c0,3.9,3.2,7.1,7.1,7.1h33.9h21v-23h-20.9h-0.1"/>
					<line class="st21" x1="335.2" y1="251.8" x2="340.9" y2="257.4"/>
					<circle class="st21" cx="318.7" cy="240.2" r="6.5"/>
					<circle class="st21" cx="292.7" cy="240.2" r="6.5"/>
					<path class="st21" d="M255.7,155.9c-3.5,0.1-7,0.9-10.2,2.5c-0.5,0.2-1.1,0.5-1.6,0.8c-0.5,0.3-1,0.6-1.6,1l-2.5,1.7v-10
						c4.3-4.3,6.8-6.8,11.1-11.1h10.2c1.9,1.9,3.4,3.4,4.9,4.9l1.3,1.3c1.5,1.5,3,3,4.9,4.9v10l-2.5-1.7c-0.5-0.3-1-0.7-1.6-1
						c-0.5-0.3-1.1-0.6-1.6-0.8c-3.2-1.6-6.7-2.4-10.2-2.5"/>
					<path class="st21" d="M255.8,155.9L255.8,155.9L255.8,155.9c0.1,0,0.1,0,0.1,0h0h0c0,0,0,0,0,0"/>
					<path class="st21" d="M255.9,155.9L255.9,155.9C255.9,155.9,255.9,155.9,255.9,155.9C255.9,155.9,255.9,155.9,255.9,155.9"/>
					<polyline class="st21" points="256.2,155.9 256.2,155.9 256.2,155.9 256.3,155.9 256.3,155.9 256.2,155.9 					"/>
					<path class="st21" d="M255.9,155.9C255.9,155.9,255.9,155.9,255.9,155.9L255.9,155.9C255.8,155.9,255.8,155.9,255.9,155.9h-0.2
						v0L255.9,155.9L255.9,155.9C255.8,155.9,255.8,155.9,255.9,155.9L255.9,155.9"/>
					<path class="st21" d="M256.2,155.9L256.2,155.9C256.2,155.9,256.2,155.9,256.2,155.9L256.2,155.9L256.2,155.9
						C256.1,155.9,256.1,155.9,256.2,155.9c-0.1,0-0.1,0-0.1,0h0C256,155.9,256.1,155.9,256.2,155.9L256.2,155.9L256.2,155.9
						L256.2,155.9z"/>
					<path class="st21" d="M255.7,155.9C255.7,155.9,255.7,155.9,255.7,155.9"/>
					<polygon class="st21" points="314.3,220.8 314.3,176.8 322,181.7 322,181.7 322,181.8 315.8,220.8 					"/>
					<polyline class="st21" points="410.3,244.8 410.2,244.7 381.6,224.2 322.1,181.8 					"/>
					<polyline class="st21" points="381.6,224.2 370.2,243.8 377.2,250.8 365.5,267.3 365.5,267.3 365.2,267.8 					"/>
					<path class="st21" d="M399.2,279.8c2.2,0,4-1.8,4-4v-22c0-2.2-1.8-4-4-4c-1.1,0-2.1,0.4-2.8,1.2c-0.7,0.7-1.2,1.7-1.2,2.8v22
						C395.2,278,397,279.8,399.2,279.8z"/>
					<path class="st21" d="M232.3,217.2c0-1.9,0.6-3.6,1.6-5c0.3-0.4,0.6-0.7,0.9-1c1.5-1.5,3.7-2.5,6-2.5h30.4c2.3,0,4.5,0.9,6,2.5
						c0.3,0.3,0.6,0.6,0.9,1c1,1.4,1.6,3.1,1.6,5"/>
					<path class="st21" d="M279.7,217.2c0,4.7-3.8,8.5-8.5,8.5h-30.4c-4.7,0-8.5-3.8-8.5-8.5H279.7z"/>
					<polygon class="st21" points="314.2,167.2 314.2,220.8 314.2,228.8 295.2,228.8 295.2,198.8 256.3,79.6 256,78.6 255.7,79.6 
						216.8,198.8 216.8,228.8 197.8,228.8 197.8,220.8 197.8,167.2 209.5,139.2 209.5,139.2 209.5,139.2 209.5,139.1 241.1,63.2 
						270.9,63.2 302.5,139.1 302.5,139.2 302.5,139.2 302.5,139.2 					"/>
				</g>
			</g>
		</g>
	</g>
</g>
</svg>
