<?xml version="1.0" encoding="utf-8"?>
<!-- Generator: Adobe Illustrator 25.3.0, SVG Export Plug-In . SVG Version: 6.00 Build 0)  -->
<svg version="1.1" xmlns="http://www.w3.org/2000/svg" xmlns:xlink="http://www.w3.org/1999/xlink" x="0px" y="0px"
	 viewBox="0 0 256 256" style="enable-background:new 0 0 256 256;" xml:space="preserve">
<style type="text/css">
	.st0{display:none;}
	.st1{display:inline;}
	.st2{fill:#212121;}
	.st3{fill:#363636;}
	.st4{fill:#1C1C1C;}
	.st5{fill:#404040;}
	.st6{fill:#8E8E8E;}
	.st7{fill:#91C9E8;}
	.st8{fill:#3399CC;}
	.st9{fill:#446E9E;}
	.st10{fill:#335377;}
	.st11{fill:#7B52AB;}
	.st12{fill:#36175E;}
	.st13{fill:#45BF55;}
	.st14{fill:#168039;}
	.st15{fill:#EE8900;}
	.st16{fill:#D95100;}
	.st17{fill:#FFBB00;}
	.st18{fill:#D19419;}
	.st19{fill:#BF1533;}
	.st20{fill:#9A0419;}
	.st21{fill:none;stroke:#000000;stroke-miterlimit:10;}
	.st22{display:inline;fill:none;stroke:#000000;stroke-miterlimit:10;}
	.st23{fill:none;stroke:#000000;stroke-linecap:round;stroke-linejoin:round;stroke-miterlimit:10;}
	.st24{fill:none;stroke:#000000;stroke-linecap:round;stroke-miterlimit:10;}
	.st25{fill:#FFFFFF;}
	.st26{fill:none;stroke:#000000;stroke-width:0.5;stroke-linecap:round;stroke-linejoin:round;}
	.st27{fill:#773533;}
	.st28{fill:#CC3344;}
	.st29{fill:#E89199;}
	.st30{fill:#33CC78;}
	.st31{fill:#91E8BA;}
	.st32{fill:#33775F;}
	.st33{fill:#8F33CC;}
	.st34{fill:#C791E8;}
	.st35{fill:#683377;}
</style>
<g id="BG" class="st0">
</g>
<g id="Refs">
</g>
<g id="Palette">
</g>
<g id="Layer_5">
</g>
<g id="Guide" class="st0">
</g>
<g id="BLUE">
	<g>
		<g id="XMLID_17_">
			<g>
				<path class="st6" d="M123.5,75.6c-6.1,1.2-11.6,3.8-16.4,7.5c-1.4,1-2.6,2.2-3.9,3.4c-7.3,7.3-11.8,17.4-11.8,28.5
					c0,0.6,0,1.1,0,1.6c0.4,8.2,3.2,15.7,7.7,21.9c3.1,4.3,7.1,7.9,11.6,10.6l0-10.2c0,0,0,0,0,0c-6.8-5.8-11.1-14.4-11.1-24
					c-0.1-17.5,14.1-31.8,31.6-31.9c17.5-0.1,31.8,14.1,31.9,31.6c0,9.8-4.4,18.7-11.4,24.5l0,10.1c6.7-4,12.1-9.8,15.5-16.8
					c2.6-5.4,4.1-11.4,4.1-17.8c0-1.7-0.1-3.5-0.4-5.2c-1.8-13.6-10.4-25-22.3-30.7c-3.1-1.5-6.3-2.6-9.8-3.2
					c-2.5-0.5-5.1-0.7-7.7-0.7C128.6,74.8,126,75,123.5,75.6z"/>
				<path class="st5" d="M131.3,83c-17.5,0.1-31.7,14.4-31.6,31.9c0,9.6,4.3,18.2,11.1,24l0-6l14.2-0.1l0-3l-2.9,0
					c-3.1,0-5.6-2.5-5.6-5.6l-0.1-18.8c0-3.1,2.5-5.6,5.6-5.6l18.8-0.1c3.1,0,5.6,2.5,5.6,5.6l0.1,18.8c0,3.1-2.5,5.6-5.6,5.6
					l-2.9,0l0,3l13.7-0.1l0,6.4c7-5.8,11.4-14.7,11.4-24.5C163.2,97.1,148.9,82.9,131.3,83z"/>
				<path class="st6" d="M131.5,114.7l6.8,6.7l-0.2,0.3l0,8l2.9,0c3.1,0,5.6-2.5,5.6-5.6l-0.1-18.8c0-3.1-2.5-5.6-5.6-5.6L122,99.8
					c-3.1,0-5.6,2.5-5.6,5.6l0.1,18.8c0,3.1,2.5,5.6,5.6,5.6l2.9,0l0-8l-0.3-0.2L131.5,114.7z"/>
				<polygon class="st6" points="131.5,114.7 124.8,121.5 125,121.8 138,121.7 138.3,121.5 				"/>
				
					<rect x="125" y="121.7" transform="matrix(1 -4.030921e-03 4.030921e-03 1 -0.5058 0.5312)" class="st6" width="13" height="8"/>
				<path class="st5" d="M125.1,132.8l-14.2,0.1l0,6c0,0,0,0,0,0c1.3,1.2,2.8,2.2,4.3,3.1c3,1.8,6.4,3.2,10,3.9L125.1,132.8z"/>
				<path class="st5" d="M125.1,129.8l0,3l2.8,0l0.1,13.5c1.2,0.1,2.5,0.2,3.7,0.2c1.1,0,2.2-0.1,3.3-0.2l-0.1-13.6l3.3,0l0-3
					L125.1,129.8z"/>
				<path class="st6" d="M110.8,138.9l0,10.2c4.1,2.5,8.7,4.2,13.5,5.1c1.2,0.2,2.3,0.4,3.5,0.5l0-0.1c-0.9-0.1-1.8-0.2-2.7-0.4
					l0-8.3c-3.6-0.7-6.9-2-10-3.9C113.6,141.1,112.2,140,110.8,138.9z"/>
				<path class="st5" d="M127.8,132.8l-2.8,0l0.1,13.1c0.2,0.1,0.5,0.1,0.7,0.2c0.7,0.1,1.3,0.2,2,0.3L127.8,132.8z"/>
				<path class="st5" d="M138.1,132.7l-3.3,0l0.1,13.6c0.4,0,0.9-0.1,1.3-0.2c0.7-0.1,1.3-0.2,1.9-0.4L138.1,132.7z"/>
				<path class="st5" d="M151.8,132.7l-13.7,0.1l0.1,13.1c3.1-0.7,6.1-1.8,8.8-3.3c1.8-1,3.4-2.1,5-3.4L151.8,132.7z"/>
				<path class="st5" d="M110.9,149.1l0.2,39.8l17-0.1l-0.2-34.2c-1.2-0.1-2.4-0.3-3.5-0.5C119.6,153.3,115,151.5,110.9,149.1z
					 M114.3,158c0.3-0.1,0.5-0.2,0.8-0.2c1.1,0,2,0.9,2,2l0.1,20c0,0.8-0.5,1.5-1.1,1.8c-0.3,0.1-0.5,0.2-0.9,0.2c-1.1,0-2-0.9-2-2
					l-0.1-20C113.2,159,113.6,158.3,114.3,158z M122.6,155c0.3-0.2,0.7-0.2,1.1-0.2c1.4,0,2.5,1.1,2.5,2.5l0.1,25
					c0,1-0.6,1.9-1.4,2.3c-0.3,0.2-0.7,0.2-1.1,0.2c-1.4,0-2.5-1.1-2.5-2.5l-0.1-25C121.2,156.3,121.7,155.4,122.6,155z"/>
				<path class="st6" d="M125.9,146c-0.3,0-0.5-0.1-0.7-0.2l0,8.3c0.9,0.2,1.8,0.3,2.7,0.4l0-8.2C127.2,146.2,126.5,146.1,125.9,146
					z"/>
				<path class="st6" d="M127.9,146.3l0,8.2c1.4,0.2,2.7,0.2,4.1,0.2c0,0,0,0,0,0c0,0,0,0,0,0c0,0,0.1,0,0.1,0
					c0.9,0,1.8-0.1,2.7-0.1l0-8.3c-1.1,0.1-2.2,0.2-3.3,0.2C130.4,146.5,129.1,146.4,127.9,146.3z"/>
				<path class="st6" d="M134.9,146.3l0,8.3c0.8-0.1,1.7-0.2,2.5-0.3c0.2,0,0.5-0.1,0.7-0.1l0-8.4c-0.6,0.1-1.3,0.3-1.9,0.4
					C135.8,146.2,135.3,146.3,134.9,146.3z"/>
				<path class="st6" d="M151.9,149.2l0-10.1c-1.5,1.3-3.2,2.4-5,3.4c-2.7,1.5-5.7,2.6-8.8,3.3l0,8.4c2.6-0.4,5-1.1,7.4-2
					c1.8-0.7,3.6-1.5,5.3-2.5C151.2,149.6,151.6,149.4,151.9,149.2z"/>
				<path class="st8" d="M115.2,157.8c-0.3,0-0.6,0.1-0.8,0.2c-0.7,0.3-1.2,1-1.1,1.8l0.1,20c0,1.1,0.9,2,2,2c0.3,0,0.6-0.1,0.9-0.2
					c0.7-0.3,1.1-1,1.1-1.8l-0.1-20C117.2,158.7,116.3,157.8,115.2,157.8z"/>
				<path class="st8" d="M123.7,154.8c-0.4,0-0.7,0.1-1.1,0.2c-0.8,0.4-1.4,1.3-1.4,2.3l0.1,25c0,1.4,1.1,2.5,2.5,2.5
					c0.4,0,0.7-0.1,1.1-0.2c0.8-0.4,1.4-1.3,1.4-2.3l-0.1-25C126.2,155.9,125.1,154.8,123.7,154.8z"/>
				<path class="st6" d="M127.9,154.5L127.9,154.5c1.2,0.2,2.5,0.3,3.8,0.2c0.1,0,0.2,0,0.4,0C130.6,154.7,129.3,154.7,127.9,154.5z
					"/>
				<path class="st6" d="M132.2,154.7c0.1,0,0.2,0,0.2,0c0.8,0,1.7,0,2.5-0.1l0-0.1C134,154.7,133.1,154.7,132.2,154.7z"/>
				<path class="st6" d="M134.9,154.6L134.9,154.6c1.1,0,2.2-0.1,3.3-0.3l0-0.1c-0.2,0-0.5,0.1-0.7,0.1
					C136.6,154.4,135.8,154.5,134.9,154.6z"/>
				<path class="st5" d="M134.9,154.7l0.1,34.1l17-0.1l-0.1-31.5l-1.7,0l0.1,25c0,1-0.6,1.9-1.4,2.3c-0.3,0.2-0.7,0.2-1.1,0.2
					c-1.4,0-2.5-1.1-2.5-2.5l-0.1-25c0-1,0.6-1.9,1.4-2.3l-1-2.7c-2.4,0.9-4.8,1.6-7.4,2l0,0.1C137.1,154.5,136,154.6,134.9,154.7z
					 M138.3,157.9c0.3-0.1,0.5-0.2,0.9-0.2c1.1,0,2,0.9,2,2l0.1,20c0,0.8-0.5,1.5-1.1,1.8c-0.3,0.1-0.6,0.2-0.9,0.2
					c-1.1,0-2-0.9-2-2l-0.1-20C137.2,158.9,137.6,158.2,138.3,157.9z"/>
				<path class="st5" d="M151.9,149.2c-0.3,0.2-0.7,0.4-1,0.6c-1.7,0.9-3.5,1.8-5.3,2.5l1,2.7c0.3-0.2,0.7-0.2,1.1-0.2
					c1.4,0,2.5,1.1,2.5,2.5l1.7,0L151.9,149.2z"/>
				<path class="st8" d="M139.2,157.7c-0.3,0-0.6,0.1-0.9,0.2c-0.7,0.3-1.1,1-1.1,1.8l0.1,20c0,1.1,0.9,2,2,2c0.3,0,0.6-0.1,0.9-0.2
					c0.7-0.3,1.1-1,1.1-1.8l-0.1-20C141.2,158.6,140.3,157.7,139.2,157.7z"/>
				<path class="st8" d="M147.7,154.7c-0.4,0-0.7,0.1-1.1,0.2c-0.8,0.4-1.4,1.3-1.4,2.3l0.1,25c0,1.4,1.1,2.5,2.5,2.5
					c0.4,0,0.7-0.1,1.1-0.2c0.8-0.4,1.4-1.3,1.4-2.3l-0.1-25C150.2,155.8,149,154.7,147.7,154.7z"/>
				<polygon class="st8" points="111.1,188.8 110.3,188.8 110.3,194.8 129.3,194.8 129.3,188.8 128.1,188.8 				"/>
				<polygon class="st8" points="135.1,188.7 134.3,188.7 134.3,194.7 153.3,194.7 153.3,188.7 152.1,188.7 				"/>
			</g>
			<g>
				<polyline class="st21" points="152.1,188.7 151.9,157.2 151.9,149.2 				"/>
				<line class="st21" x1="134.9" y1="154.7" x2="135.1" y2="188.7"/>
				<polygon class="st21" points="135.1,188.7 134.3,188.7 134.3,194.7 153.3,194.7 153.3,188.7 152.1,188.7 				"/>
				<path class="st21" d="M137.2,159.7l0.1,20c0,1.1,0.9,2,2,2c0.3,0,0.6-0.1,0.9-0.2c0.7-0.3,1.1-1,1.1-1.8l-0.1-20
					c0-1.1-0.9-2-2-2c-0.3,0-0.6,0.1-0.9,0.2C137.6,158.2,137.2,158.9,137.2,159.7z"/>
				<path class="st21" d="M146.6,154.9c-0.8,0.4-1.4,1.3-1.4,2.3l0.1,25c0,1.4,1.1,2.5,2.5,2.5c0.4,0,0.7-0.1,1.1-0.2
					c0.8-0.4,1.4-1.3,1.4-2.3l-0.1-25c0-1.4-1.1-2.5-2.5-2.5C147.3,154.7,146.9,154.8,146.6,154.9z"/>
				<line class="st21" x1="128.1" y1="188.8" x2="127.9" y2="154.6"/>
				<line class="st21" x1="110.9" y1="149.1" x2="111.1" y2="188.8"/>
				<polygon class="st21" points="111.1,188.8 110.3,188.8 110.3,194.8 129.3,194.8 129.3,188.8 128.1,188.8 				"/>
				<path class="st21" d="M113.2,159.8l0.1,20c0,1.1,0.9,2,2,2c0.3,0,0.6-0.1,0.9-0.2c0.7-0.3,1.1-1,1.1-1.8l-0.1-20
					c0-1.1-0.9-2-2-2c-0.3,0-0.6,0.1-0.8,0.2C113.6,158.3,113.2,159,113.2,159.8z"/>
				<path class="st21" d="M121.2,157.3l0.1,25c0,1.4,1.1,2.5,2.5,2.5c0.4,0,0.7-0.1,1.1-0.2c0.8-0.4,1.4-1.3,1.4-2.3l-0.1-25
					c0-1.4-1.1-2.5-2.5-2.5c-0.4,0-0.7,0.1-1.1,0.2C121.7,155.4,121.2,156.3,121.2,157.3z"/>
				<path class="st21" d="M132.2,154.7c0.1,0,0.2,0,0.2,0c0.8,0,1.7,0,2.5-0.1c1.1-0.1,2.2-0.2,3.2-0.3l0-0.1"/>
				<path class="st21" d="M151.9,149.2c6.7-4,12.1-9.8,15.5-16.8c2.6-5.4,4.1-11.4,4.1-17.8c0-1.7-0.1-3.5-0.4-5.2
					c-1.8-13.6-10.4-25-22.3-30.7c-3.1-1.5-6.3-2.6-9.8-3.2c-2.5-0.5-5.1-0.7-7.7-0.7c-2.7,0-5.3,0.3-7.8,0.8
					c-6.1,1.2-11.6,3.8-16.4,7.5c-1.4,1-2.6,2.2-3.9,3.4c-7.3,7.3-11.8,17.4-11.8,28.5c0,0.6,0,1.1,0,1.6c0.4,8.2,3.2,15.7,7.7,21.9
					c3.1,4.3,7.1,7.9,11.6,10.6c4.1,2.5,8.7,4.2,13.5,5.1c1.2,0.2,2.3,0.4,3.5,0.5c1.2,0.1,2.5,0.2,3.7,0.2c0.1,0,0.2,0,0.4,0
					c0,0,0,0,0,0c0,0,0,0,0,0c0,0,0.1,0,0.1,0c0.9,0,1.8-0.1,2.7-0.1c0.8-0.1,1.7-0.2,2.5-0.3c0.2,0,0.5-0.1,0.7-0.1
					c2.6-0.4,5-1.1,7.4-2c1.8-0.7,3.6-1.5,5.3-2.5C151.2,149.6,151.6,149.4,151.9,149.2z"/>
				<path class="st21" d="M110.8,138.9c1.3,1.2,2.8,2.2,4.3,3.1c3,1.8,6.4,3.2,10,3.9c0.2,0.1,0.5,0.1,0.7,0.2
					c0.7,0.1,1.3,0.2,2,0.3c1.2,0.1,2.5,0.2,3.7,0.2c1.1,0,2.2-0.1,3.3-0.2c0.4,0,0.9-0.1,1.3-0.2c0.7-0.1,1.3-0.2,1.9-0.4
					c3.1-0.7,6.1-1.8,8.8-3.3c1.8-1,3.4-2.1,5-3.4c7-5.8,11.4-14.7,11.4-24.5c-0.1-17.5-14.4-31.7-31.9-31.6
					c-17.5,0.1-31.7,14.4-31.6,31.9C99.8,124.5,104.1,133.1,110.8,138.9"/>
				<path class="st21" d="M138.1,129.7l2.9,0c3.1,0,5.6-2.5,5.6-5.6l-0.1-18.8c0-3.1-2.5-5.6-5.6-5.6L122,99.8
					c-3.1,0-5.6,2.5-5.6,5.6l0.1,18.8c0,3.1,2.5,5.6,5.6,5.6l2.9,0L138.1,129.7z"/>
				<polyline class="st24" points="141.5,124.7 138.3,121.5 131.5,114.7 121.4,104.8 				"/>
				<polyline class="st24" points="141.4,104.7 131.5,114.7 124.8,121.5 121.5,124.8 				"/>
			</g>
		</g>
	</g>
</g>
<g id="RED">
	<g>
		<g id="XMLID_21_">
			<g>
				<path class="st6" d="M123.5,75.6c-6.1,1.2-11.6,3.8-16.4,7.5c-1.4,1-2.6,2.2-3.9,3.4c-7.3,7.3-11.8,17.4-11.8,28.5
					c0,0.6,0,1.1,0,1.6c0.4,8.2,3.2,15.7,7.7,21.9c3.1,4.3,7.1,7.9,11.6,10.6l0-10.2c0,0,0,0,0,0c-6.8-5.8-11.1-14.4-11.1-24
					c-0.1-17.5,14.1-31.8,31.6-31.9c17.5-0.1,31.8,14.1,31.9,31.6c0,9.8-4.4,18.7-11.4,24.5l0,10.1c6.7-4,12.1-9.8,15.5-16.8
					c2.6-5.4,4.1-11.4,4.1-17.8c0-1.7-0.1-3.5-0.4-5.2c-1.8-13.6-10.4-25-22.3-30.7c-3.1-1.5-6.3-2.6-9.8-3.2
					c-2.5-0.5-5.1-0.7-7.7-0.7C128.6,74.8,126,75,123.5,75.6z"/>
				<path class="st5" d="M131.3,83c-17.5,0.1-31.7,14.4-31.6,31.9c0,9.6,4.3,18.2,11.1,24l0-6l14.2-0.1l0-3l-2.9,0
					c-3.1,0-5.6-2.5-5.6-5.6l-0.1-18.8c0-3.1,2.5-5.6,5.6-5.6l18.8-0.1c3.1,0,5.6,2.5,5.6,5.6l0.1,18.8c0,3.1-2.5,5.6-5.6,5.6
					l-2.9,0l0,3l13.7-0.1l0,6.4c7-5.8,11.4-14.7,11.4-24.5C163.2,97.1,148.9,82.9,131.3,83z"/>
				<path class="st6" d="M131.5,114.7l6.8,6.7l-0.2,0.3l0,8l2.9,0c3.1,0,5.6-2.5,5.6-5.6l-0.1-18.8c0-3.1-2.5-5.6-5.6-5.6L122,99.8
					c-3.1,0-5.6,2.5-5.6,5.6l0.1,18.8c0,3.1,2.5,5.6,5.6,5.6l2.9,0l0-8l-0.3-0.2L131.5,114.7z"/>
				<polygon class="st6" points="131.5,114.7 124.8,121.5 125,121.8 138,121.7 138.3,121.5 				"/>
				
					<rect x="125" y="121.7" transform="matrix(1 -4.030921e-03 4.030921e-03 1 -0.5058 0.5312)" class="st6" width="13" height="8"/>
				<path class="st5" d="M125.1,132.8l-14.2,0.1l0,6c0,0,0,0,0,0c1.3,1.2,2.8,2.2,4.3,3.1c3,1.8,6.4,3.2,10,3.9L125.1,132.8z"/>
				<path class="st5" d="M125.1,129.8l0,3l2.8,0l0.1,13.5c1.2,0.1,2.5,0.2,3.7,0.2c1.1,0,2.2-0.1,3.3-0.2l-0.1-13.6l3.3,0l0-3
					L125.1,129.8z"/>
				<path class="st6" d="M110.8,138.9l0,10.2c4.1,2.5,8.7,4.2,13.5,5.1c1.2,0.2,2.3,0.4,3.5,0.5l0-0.1c-0.9-0.1-1.8-0.2-2.7-0.4
					l0-8.3c-3.6-0.7-6.9-2-10-3.9C113.6,141.1,112.2,140,110.8,138.9z"/>
				<path class="st5" d="M127.8,132.8l-2.8,0l0.1,13.1c0.2,0.1,0.5,0.1,0.7,0.2c0.7,0.1,1.3,0.2,2,0.3L127.8,132.8z"/>
				<path class="st5" d="M138.1,132.7l-3.3,0l0.1,13.6c0.4,0,0.9-0.1,1.3-0.2c0.7-0.1,1.3-0.2,1.9-0.4L138.1,132.7z"/>
				<path class="st5" d="M151.8,132.7l-13.7,0.1l0.1,13.1c3.1-0.7,6.1-1.8,8.8-3.3c1.8-1,3.4-2.1,5-3.4L151.8,132.7z"/>
				<path class="st5" d="M110.9,149.1l0.2,39.8l17-0.1l-0.2-34.2c-1.2-0.1-2.4-0.3-3.5-0.5C119.6,153.3,115,151.5,110.9,149.1z
					 M114.3,158c0.3-0.1,0.5-0.2,0.8-0.2c1.1,0,2,0.9,2,2l0.1,20c0,0.8-0.5,1.5-1.1,1.8c-0.3,0.1-0.5,0.2-0.9,0.2c-1.1,0-2-0.9-2-2
					l-0.1-20C113.2,159,113.6,158.3,114.3,158z M122.6,155c0.3-0.2,0.7-0.2,1.1-0.2c1.4,0,2.5,1.1,2.5,2.5l0.1,25
					c0,1-0.6,1.9-1.4,2.3c-0.3,0.2-0.7,0.2-1.1,0.2c-1.4,0-2.5-1.1-2.5-2.5l-0.1-25C121.2,156.3,121.7,155.4,122.6,155z"/>
				<path class="st6" d="M125.9,146c-0.3,0-0.5-0.1-0.7-0.2l0,8.3c0.9,0.2,1.8,0.3,2.7,0.4l0-8.2C127.2,146.2,126.5,146.1,125.9,146
					z"/>
				<path class="st6" d="M127.9,146.3l0,8.2c1.4,0.2,2.7,0.2,4.1,0.2c0,0,0,0,0,0c0,0,0,0,0,0c0,0,0.1,0,0.1,0
					c0.9,0,1.8-0.1,2.7-0.1l0-8.3c-1.1,0.1-2.2,0.2-3.3,0.2C130.4,146.5,129.1,146.4,127.9,146.3z"/>
				<path class="st6" d="M134.9,146.3l0,8.3c0.8-0.1,1.7-0.2,2.5-0.3c0.2,0,0.5-0.1,0.7-0.1l0-8.4c-0.6,0.1-1.3,0.3-1.9,0.4
					C135.8,146.2,135.3,146.3,134.9,146.3z"/>
				<path class="st6" d="M151.9,149.2l0-10.1c-1.5,1.3-3.2,2.4-5,3.4c-2.7,1.5-5.7,2.6-8.8,3.3l0,8.4c2.6-0.4,5-1.1,7.4-2
					c1.8-0.7,3.6-1.5,5.3-2.5C151.2,149.6,151.6,149.4,151.9,149.2z"/>
				<path class="st28" d="M115.2,157.8c-0.3,0-0.6,0.1-0.8,0.2c-0.7,0.3-1.2,1-1.1,1.8l0.1,20c0,1.1,0.9,2,2,2
					c0.3,0,0.6-0.1,0.9-0.2c0.7-0.3,1.1-1,1.1-1.8l-0.1-20C117.2,158.7,116.3,157.8,115.2,157.8z"/>
				<path class="st28" d="M123.7,154.8c-0.4,0-0.7,0.1-1.1,0.2c-0.8,0.4-1.4,1.3-1.4,2.3l0.1,25c0,1.4,1.1,2.5,2.5,2.5
					c0.4,0,0.7-0.1,1.1-0.2c0.8-0.4,1.4-1.3,1.4-2.3l-0.1-25C126.2,155.9,125.1,154.8,123.7,154.8z"/>
				<path class="st6" d="M127.9,154.5L127.9,154.5c1.2,0.2,2.5,0.3,3.8,0.2c0.1,0,0.2,0,0.4,0C130.6,154.7,129.3,154.7,127.9,154.5z
					"/>
				<path class="st6" d="M132.2,154.7c0.1,0,0.2,0,0.2,0c0.8,0,1.7,0,2.5-0.1l0-0.1C134,154.7,133.1,154.7,132.2,154.7z"/>
				<path class="st6" d="M134.9,154.6L134.9,154.6c1.1,0,2.2-0.1,3.3-0.3l0-0.1c-0.2,0-0.5,0.1-0.7,0.1
					C136.6,154.4,135.8,154.5,134.9,154.6z"/>
				<path class="st5" d="M134.9,154.7l0.1,34.1l17-0.1l-0.1-31.5l-1.7,0l0.1,25c0,1-0.6,1.9-1.4,2.3c-0.3,0.2-0.7,0.2-1.1,0.2
					c-1.4,0-2.5-1.1-2.5-2.5l-0.1-25c0-1,0.6-1.9,1.4-2.3l-1-2.7c-2.4,0.9-4.8,1.6-7.4,2l0,0.1C137.1,154.5,136,154.6,134.9,154.7z
					 M138.3,157.9c0.3-0.1,0.5-0.2,0.9-0.2c1.1,0,2,0.9,2,2l0.1,20c0,0.8-0.5,1.5-1.1,1.8c-0.3,0.1-0.6,0.2-0.9,0.2
					c-1.1,0-2-0.9-2-2l-0.1-20C137.2,158.9,137.6,158.2,138.3,157.9z"/>
				<path class="st5" d="M151.9,149.2c-0.3,0.2-0.7,0.4-1,0.6c-1.7,0.9-3.5,1.8-5.3,2.5l1,2.7c0.3-0.2,0.7-0.2,1.1-0.2
					c1.4,0,2.5,1.1,2.5,2.5l1.7,0L151.9,149.2z"/>
				<path class="st28" d="M139.2,157.7c-0.3,0-0.6,0.1-0.9,0.2c-0.7,0.3-1.1,1-1.1,1.8l0.1,20c0,1.1,0.9,2,2,2
					c0.3,0,0.6-0.1,0.9-0.2c0.7-0.3,1.1-1,1.1-1.8l-0.1-20C141.2,158.6,140.3,157.7,139.2,157.7z"/>
				<path class="st28" d="M147.7,154.7c-0.4,0-0.7,0.1-1.1,0.2c-0.8,0.4-1.4,1.3-1.4,2.3l0.1,25c0,1.4,1.1,2.5,2.5,2.5
					c0.4,0,0.7-0.1,1.1-0.2c0.8-0.4,1.4-1.3,1.4-2.3l-0.1-25C150.2,155.8,149,154.7,147.7,154.7z"/>
				<polygon class="st28" points="111.1,188.8 110.3,188.8 110.3,194.8 129.3,194.8 129.3,188.8 128.1,188.8 				"/>
				<polygon class="st28" points="135.1,188.7 134.3,188.7 134.3,194.7 153.3,194.7 153.3,188.7 152.1,188.7 				"/>
			</g>
			<g>
				<polyline class="st21" points="152.1,188.7 151.9,157.2 151.9,149.2 				"/>
				<line class="st21" x1="134.9" y1="154.7" x2="135.1" y2="188.7"/>
				<polygon class="st21" points="135.1,188.7 134.3,188.7 134.3,194.7 153.3,194.7 153.3,188.7 152.1,188.7 				"/>
				<path class="st21" d="M137.2,159.7l0.1,20c0,1.1,0.9,2,2,2c0.3,0,0.6-0.1,0.9-0.2c0.7-0.3,1.1-1,1.1-1.8l-0.1-20
					c0-1.1-0.9-2-2-2c-0.3,0-0.6,0.1-0.9,0.2C137.6,158.2,137.2,158.9,137.2,159.7z"/>
				<path class="st21" d="M146.6,154.9c-0.8,0.4-1.4,1.3-1.4,2.3l0.1,25c0,1.4,1.1,2.5,2.5,2.5c0.4,0,0.7-0.1,1.1-0.2
					c0.8-0.4,1.4-1.3,1.4-2.3l-0.1-25c0-1.4-1.1-2.5-2.5-2.5C147.3,154.7,146.9,154.8,146.6,154.9z"/>
				<line class="st21" x1="128.1" y1="188.8" x2="127.9" y2="154.6"/>
				<line class="st21" x1="110.9" y1="149.1" x2="111.1" y2="188.8"/>
				<polygon class="st21" points="111.1,188.8 110.3,188.8 110.3,194.8 129.3,194.8 129.3,188.8 128.1,188.8 				"/>
				<path class="st21" d="M113.2,159.8l0.1,20c0,1.1,0.9,2,2,2c0.3,0,0.6-0.1,0.9-0.2c0.7-0.3,1.1-1,1.1-1.8l-0.1-20
					c0-1.1-0.9-2-2-2c-0.3,0-0.6,0.1-0.8,0.2C113.6,158.3,113.2,159,113.2,159.8z"/>
				<path class="st21" d="M121.2,157.3l0.1,25c0,1.4,1.1,2.5,2.5,2.5c0.4,0,0.7-0.1,1.1-0.2c0.8-0.4,1.4-1.3,1.4-2.3l-0.1-25
					c0-1.4-1.1-2.5-2.5-2.5c-0.4,0-0.7,0.1-1.1,0.2C121.7,155.4,121.2,156.3,121.2,157.3z"/>
				<path class="st21" d="M132.2,154.7c0.1,0,0.2,0,0.2,0c0.8,0,1.7,0,2.5-0.1c1.1-0.1,2.2-0.2,3.2-0.3l0-0.1"/>
				<path class="st21" d="M151.9,149.2c6.7-4,12.1-9.8,15.5-16.8c2.6-5.4,4.1-11.4,4.1-17.8c0-1.7-0.1-3.5-0.4-5.2
					c-1.8-13.6-10.4-25-22.3-30.7c-3.1-1.5-6.3-2.6-9.8-3.2c-2.5-0.5-5.1-0.7-7.7-0.7c-2.7,0-5.3,0.3-7.8,0.8
					c-6.1,1.2-11.6,3.8-16.4,7.5c-1.4,1-2.6,2.2-3.9,3.4c-7.3,7.3-11.8,17.4-11.8,28.5c0,0.6,0,1.1,0,1.6c0.4,8.2,3.2,15.7,7.7,21.9
					c3.1,4.3,7.1,7.9,11.6,10.6c4.1,2.5,8.7,4.2,13.5,5.1c1.2,0.2,2.3,0.4,3.5,0.5c1.2,0.1,2.5,0.2,3.7,0.2c0.1,0,0.2,0,0.4,0
					c0,0,0,0,0,0c0,0,0,0,0,0c0,0,0.1,0,0.1,0c0.9,0,1.8-0.1,2.7-0.1c0.8-0.1,1.7-0.2,2.5-0.3c0.2,0,0.5-0.1,0.7-0.1
					c2.6-0.4,5-1.1,7.4-2c1.8-0.7,3.6-1.5,5.3-2.5C151.2,149.6,151.6,149.4,151.9,149.2z"/>
				<path class="st21" d="M110.8,138.9c1.3,1.2,2.8,2.2,4.3,3.1c3,1.8,6.4,3.2,10,3.9c0.2,0.1,0.5,0.1,0.7,0.2
					c0.7,0.1,1.3,0.2,2,0.3c1.2,0.1,2.5,0.2,3.7,0.2c1.1,0,2.2-0.1,3.3-0.2c0.4,0,0.9-0.1,1.3-0.2c0.7-0.1,1.3-0.2,1.9-0.4
					c3.1-0.7,6.1-1.8,8.8-3.3c1.8-1,3.4-2.1,5-3.4c7-5.8,11.4-14.7,11.4-24.5c-0.1-17.5-14.4-31.7-31.9-31.6
					c-17.5,0.1-31.7,14.4-31.6,31.9C99.8,124.5,104.1,133.1,110.8,138.9"/>
				<path class="st21" d="M138.1,129.7l2.9,0c3.1,0,5.6-2.5,5.6-5.6l-0.1-18.8c0-3.1-2.5-5.6-5.6-5.6L122,99.8
					c-3.1,0-5.6,2.5-5.6,5.6l0.1,18.8c0,3.1,2.5,5.6,5.6,5.6l2.9,0L138.1,129.7z"/>
				<polyline class="st24" points="141.5,124.7 138.3,121.5 131.5,114.7 121.4,104.8 				"/>
				<polyline class="st24" points="141.4,104.7 131.5,114.7 124.8,121.5 121.5,124.8 				"/>
			</g>
		</g>
	</g>
</g>
<g id="GREEN">
	<g>
		<g id="XMLID_37_">
			<g>
				<path class="st6" d="M123.5,75.6c-6.1,1.2-11.6,3.8-16.4,7.5c-1.4,1-2.6,2.2-3.9,3.4c-7.3,7.3-11.8,17.4-11.8,28.5
					c0,0.6,0,1.1,0,1.6c0.4,8.2,3.2,15.7,7.7,21.9c3.1,4.3,7.1,7.9,11.6,10.6l0-10.2c0,0,0,0,0,0c-6.8-5.8-11.1-14.4-11.1-24
					c-0.1-17.5,14.1-31.8,31.6-31.9c17.5-0.1,31.8,14.1,31.9,31.6c0,9.8-4.4,18.7-11.4,24.5l0,10.1c6.7-4,12.1-9.8,15.5-16.8
					c2.6-5.4,4.1-11.4,4.1-17.8c0-1.7-0.1-3.5-0.4-5.2c-1.8-13.6-10.4-25-22.3-30.7c-3.1-1.5-6.3-2.6-9.8-3.2
					c-2.5-0.5-5.1-0.7-7.7-0.7C128.6,74.8,126,75,123.5,75.6z"/>
				<path class="st5" d="M131.3,83c-17.5,0.1-31.7,14.4-31.6,31.9c0,9.6,4.3,18.2,11.1,24l0-6l14.2-0.1l0-3l-2.9,0
					c-3.1,0-5.6-2.5-5.6-5.6l-0.1-18.8c0-3.1,2.5-5.6,5.6-5.6l18.8-0.1c3.1,0,5.6,2.5,5.6,5.6l0.1,18.8c0,3.1-2.5,5.6-5.6,5.6
					l-2.9,0l0,3l13.7-0.1l0,6.4c7-5.8,11.4-14.7,11.4-24.5C163.2,97.1,148.9,82.9,131.3,83z"/>
				<path class="st6" d="M131.5,114.7l6.8,6.7l-0.2,0.3l0,8l2.9,0c3.1,0,5.6-2.5,5.6-5.6l-0.1-18.8c0-3.1-2.5-5.6-5.6-5.6L122,99.8
					c-3.1,0-5.6,2.5-5.6,5.6l0.1,18.8c0,3.1,2.5,5.6,5.6,5.6l2.9,0l0-8l-0.3-0.2L131.5,114.7z"/>
				<polygon class="st6" points="131.5,114.7 124.8,121.5 125,121.8 138,121.7 138.3,121.5 				"/>
				
					<rect x="125" y="121.7" transform="matrix(1 -4.030921e-03 4.030921e-03 1 -0.5058 0.5312)" class="st6" width="13" height="8"/>
				<path class="st5" d="M125.1,132.8l-14.2,0.1l0,6c0,0,0,0,0,0c1.3,1.2,2.8,2.2,4.3,3.1c3,1.8,6.4,3.2,10,3.9L125.1,132.8z"/>
				<path class="st5" d="M125.1,129.8l0,3l2.8,0l0.1,13.5c1.2,0.1,2.5,0.2,3.7,0.2c1.1,0,2.2-0.1,3.3-0.2l-0.1-13.6l3.3,0l0-3
					L125.1,129.8z"/>
				<path class="st6" d="M110.8,138.9l0,10.2c4.1,2.5,8.7,4.2,13.5,5.1c1.2,0.2,2.3,0.4,3.5,0.5l0-0.1c-0.9-0.1-1.8-0.2-2.7-0.4
					l0-8.3c-3.6-0.7-6.9-2-10-3.9C113.6,141.1,112.2,140,110.8,138.9z"/>
				<path class="st5" d="M127.8,132.8l-2.8,0l0.1,13.1c0.2,0.1,0.5,0.1,0.7,0.2c0.7,0.1,1.3,0.2,2,0.3L127.8,132.8z"/>
				<path class="st5" d="M138.1,132.7l-3.3,0l0.1,13.6c0.4,0,0.9-0.1,1.3-0.2c0.7-0.1,1.3-0.2,1.9-0.4L138.1,132.7z"/>
				<path class="st5" d="M151.8,132.7l-13.7,0.1l0.1,13.1c3.1-0.7,6.1-1.8,8.8-3.3c1.8-1,3.4-2.1,5-3.4L151.8,132.7z"/>
				<path class="st5" d="M110.9,149.1l0.2,39.8l17-0.1l-0.2-34.2c-1.2-0.1-2.4-0.3-3.5-0.5C119.6,153.3,115,151.5,110.9,149.1z
					 M114.3,158c0.3-0.1,0.5-0.2,0.8-0.2c1.1,0,2,0.9,2,2l0.1,20c0,0.8-0.5,1.5-1.1,1.8c-0.3,0.1-0.5,0.2-0.9,0.2c-1.1,0-2-0.9-2-2
					l-0.1-20C113.2,159,113.6,158.3,114.3,158z M122.6,155c0.3-0.2,0.7-0.2,1.1-0.2c1.4,0,2.5,1.1,2.5,2.5l0.1,25
					c0,1-0.6,1.9-1.4,2.3c-0.3,0.2-0.7,0.2-1.1,0.2c-1.4,0-2.5-1.1-2.5-2.5l-0.1-25C121.2,156.3,121.7,155.4,122.6,155z"/>
				<path class="st6" d="M125.9,146c-0.3,0-0.5-0.1-0.7-0.2l0,8.3c0.9,0.2,1.8,0.3,2.7,0.4l0-8.2C127.2,146.2,126.5,146.1,125.9,146
					z"/>
				<path class="st6" d="M127.9,146.3l0,8.2c1.4,0.2,2.7,0.2,4.1,0.2c0,0,0,0,0,0c0,0,0,0,0,0c0,0,0.1,0,0.1,0
					c0.9,0,1.8-0.1,2.7-0.1l0-8.3c-1.1,0.1-2.2,0.2-3.3,0.2C130.4,146.5,129.1,146.4,127.9,146.3z"/>
				<path class="st6" d="M134.9,146.3l0,8.3c0.8-0.1,1.7-0.2,2.5-0.3c0.2,0,0.5-0.1,0.7-0.1l0-8.4c-0.6,0.1-1.3,0.3-1.9,0.4
					C135.8,146.2,135.3,146.3,134.9,146.3z"/>
				<path class="st6" d="M151.9,149.2l0-10.1c-1.5,1.3-3.2,2.4-5,3.4c-2.7,1.5-5.7,2.6-8.8,3.3l0,8.4c2.6-0.4,5-1.1,7.4-2
					c1.8-0.7,3.6-1.5,5.3-2.5C151.2,149.6,151.6,149.4,151.9,149.2z"/>
				<path class="st30" d="M115.2,157.8c-0.3,0-0.6,0.1-0.8,0.2c-0.7,0.3-1.2,1-1.1,1.8l0.1,20c0,1.1,0.9,2,2,2
					c0.3,0,0.6-0.1,0.9-0.2c0.7-0.3,1.1-1,1.1-1.8l-0.1-20C117.2,158.7,116.3,157.8,115.2,157.8z"/>
				<path class="st30" d="M123.7,154.8c-0.4,0-0.7,0.1-1.1,0.2c-0.8,0.4-1.4,1.3-1.4,2.3l0.1,25c0,1.4,1.1,2.5,2.5,2.5
					c0.4,0,0.7-0.1,1.1-0.2c0.8-0.4,1.4-1.3,1.4-2.3l-0.1-25C126.2,155.9,125.1,154.8,123.7,154.8z"/>
				<path class="st6" d="M127.9,154.5L127.9,154.5c1.2,0.2,2.5,0.3,3.8,0.2c0.1,0,0.2,0,0.4,0C130.6,154.7,129.3,154.7,127.9,154.5z
					"/>
				<path class="st6" d="M132.2,154.7c0.1,0,0.2,0,0.2,0c0.8,0,1.7,0,2.5-0.1l0-0.1C134,154.7,133.1,154.7,132.2,154.7z"/>
				<path class="st6" d="M134.9,154.6L134.9,154.6c1.1,0,2.2-0.1,3.3-0.3l0-0.1c-0.2,0-0.5,0.1-0.7,0.1
					C136.6,154.4,135.8,154.5,134.9,154.6z"/>
				<path class="st5" d="M134.9,154.7l0.1,34.1l17-0.1l-0.1-31.5l-1.7,0l0.1,25c0,1-0.6,1.9-1.4,2.3c-0.3,0.2-0.7,0.2-1.1,0.2
					c-1.4,0-2.5-1.1-2.5-2.5l-0.1-25c0-1,0.6-1.9,1.4-2.3l-1-2.7c-2.4,0.9-4.8,1.6-7.4,2l0,0.1C137.1,154.5,136,154.6,134.9,154.7z
					 M138.3,157.9c0.3-0.1,0.5-0.2,0.9-0.2c1.1,0,2,0.9,2,2l0.1,20c0,0.8-0.5,1.5-1.1,1.8c-0.3,0.1-0.6,0.2-0.9,0.2
					c-1.1,0-2-0.9-2-2l-0.1-20C137.2,158.9,137.6,158.2,138.3,157.9z"/>
				<path class="st5" d="M151.9,149.2c-0.3,0.2-0.7,0.4-1,0.6c-1.7,0.9-3.5,1.8-5.3,2.5l1,2.7c0.3-0.2,0.7-0.2,1.1-0.2
					c1.4,0,2.5,1.1,2.5,2.5l1.7,0L151.9,149.2z"/>
				<path class="st30" d="M139.2,157.7c-0.3,0-0.6,0.1-0.9,0.2c-0.7,0.3-1.1,1-1.1,1.8l0.1,20c0,1.1,0.9,2,2,2
					c0.3,0,0.6-0.1,0.9-0.2c0.7-0.3,1.1-1,1.1-1.8l-0.1-20C141.2,158.6,140.3,157.7,139.2,157.7z"/>
				<path class="st30" d="M147.7,154.7c-0.4,0-0.7,0.1-1.1,0.2c-0.8,0.4-1.4,1.3-1.4,2.3l0.1,25c0,1.4,1.1,2.5,2.5,2.5
					c0.4,0,0.7-0.1,1.1-0.2c0.8-0.4,1.4-1.3,1.4-2.3l-0.1-25C150.2,155.8,149,154.7,147.7,154.7z"/>
				<polygon class="st30" points="111.1,188.8 110.3,188.8 110.3,194.8 129.3,194.8 129.3,188.8 128.1,188.8 				"/>
				<polygon class="st30" points="135.1,188.7 134.3,188.7 134.3,194.7 153.3,194.7 153.3,188.7 152.1,188.7 				"/>
			</g>
			<g>
				<polyline class="st21" points="152.1,188.7 151.9,157.2 151.9,149.2 				"/>
				<line class="st21" x1="134.9" y1="154.7" x2="135.1" y2="188.7"/>
				<polygon class="st21" points="135.1,188.7 134.3,188.7 134.3,194.7 153.3,194.7 153.3,188.7 152.1,188.7 				"/>
				<path class="st21" d="M137.2,159.7l0.1,20c0,1.1,0.9,2,2,2c0.3,0,0.6-0.1,0.9-0.2c0.7-0.3,1.1-1,1.1-1.8l-0.1-20
					c0-1.1-0.9-2-2-2c-0.3,0-0.6,0.1-0.9,0.2C137.6,158.2,137.2,158.9,137.2,159.7z"/>
				<path class="st21" d="M146.6,154.9c-0.8,0.4-1.4,1.3-1.4,2.3l0.1,25c0,1.4,1.1,2.5,2.5,2.5c0.4,0,0.7-0.1,1.1-0.2
					c0.8-0.4,1.4-1.3,1.4-2.3l-0.1-25c0-1.4-1.1-2.5-2.5-2.5C147.3,154.7,146.9,154.8,146.6,154.9z"/>
				<line class="st21" x1="128.1" y1="188.8" x2="127.9" y2="154.6"/>
				<line class="st21" x1="110.9" y1="149.1" x2="111.1" y2="188.8"/>
				<polygon class="st21" points="111.1,188.8 110.3,188.8 110.3,194.8 129.3,194.8 129.3,188.8 128.1,188.8 				"/>
				<path class="st21" d="M113.2,159.8l0.1,20c0,1.1,0.9,2,2,2c0.3,0,0.6-0.1,0.9-0.2c0.7-0.3,1.1-1,1.1-1.8l-0.1-20
					c0-1.1-0.9-2-2-2c-0.3,0-0.6,0.1-0.8,0.2C113.6,158.3,113.2,159,113.2,159.8z"/>
				<path class="st21" d="M121.2,157.3l0.1,25c0,1.4,1.1,2.5,2.5,2.5c0.4,0,0.7-0.1,1.1-0.2c0.8-0.4,1.4-1.3,1.4-2.3l-0.1-25
					c0-1.4-1.1-2.5-2.5-2.5c-0.4,0-0.7,0.1-1.1,0.2C121.7,155.4,121.2,156.3,121.2,157.3z"/>
				<path class="st21" d="M132.2,154.7c0.1,0,0.2,0,0.2,0c0.8,0,1.7,0,2.5-0.1c1.1-0.1,2.2-0.2,3.2-0.3l0-0.1"/>
				<path class="st21" d="M151.9,149.2c6.7-4,12.1-9.8,15.5-16.8c2.6-5.4,4.1-11.4,4.1-17.8c0-1.7-0.1-3.5-0.4-5.2
					c-1.8-13.6-10.4-25-22.3-30.7c-3.1-1.5-6.3-2.6-9.8-3.2c-2.5-0.5-5.1-0.7-7.7-0.7c-2.7,0-5.3,0.3-7.8,0.8
					c-6.1,1.2-11.6,3.8-16.4,7.5c-1.4,1-2.6,2.2-3.9,3.4c-7.3,7.3-11.8,17.4-11.8,28.5c0,0.6,0,1.1,0,1.6c0.4,8.2,3.2,15.7,7.7,21.9
					c3.1,4.3,7.1,7.9,11.6,10.6c4.1,2.5,8.7,4.2,13.5,5.1c1.2,0.2,2.3,0.4,3.5,0.5c1.2,0.1,2.5,0.2,3.7,0.2c0.1,0,0.2,0,0.4,0
					c0,0,0,0,0,0c0,0,0,0,0,0c0,0,0.1,0,0.1,0c0.9,0,1.8-0.1,2.7-0.1c0.8-0.1,1.7-0.2,2.5-0.3c0.2,0,0.5-0.1,0.7-0.1
					c2.6-0.4,5-1.1,7.4-2c1.8-0.7,3.6-1.5,5.3-2.5C151.2,149.6,151.6,149.4,151.9,149.2z"/>
				<path class="st21" d="M110.8,138.9c1.3,1.2,2.8,2.2,4.3,3.1c3,1.8,6.4,3.2,10,3.9c0.2,0.1,0.5,0.1,0.7,0.2
					c0.7,0.1,1.3,0.2,2,0.3c1.2,0.1,2.5,0.2,3.7,0.2c1.1,0,2.2-0.1,3.3-0.2c0.4,0,0.9-0.1,1.3-0.2c0.7-0.1,1.3-0.2,1.9-0.4
					c3.1-0.7,6.1-1.8,8.8-3.3c1.8-1,3.4-2.1,5-3.4c7-5.8,11.4-14.7,11.4-24.5c-0.1-17.5-14.4-31.7-31.9-31.6
					c-17.5,0.1-31.7,14.4-31.6,31.9C99.8,124.5,104.1,133.1,110.8,138.9"/>
				<path class="st21" d="M138.1,129.7l2.9,0c3.1,0,5.6-2.5,5.6-5.6l-0.1-18.8c0-3.1-2.5-5.6-5.6-5.6L122,99.8
					c-3.1,0-5.6,2.5-5.6,5.6l0.1,18.8c0,3.1,2.5,5.6,5.6,5.6l2.9,0L138.1,129.7z"/>
				<polyline class="st24" points="141.5,124.7 138.3,121.5 131.5,114.7 121.4,104.8 				"/>
				<polyline class="st24" points="141.4,104.7 131.5,114.7 124.8,121.5 121.5,124.8 				"/>
			</g>
		</g>
	</g>
</g>
<g id="PURPLE">
	<g>
		<g id="XMLID_56_">
			<g>
				<path class="st6" d="M123.5,75.6c-6.1,1.2-11.6,3.8-16.4,7.5c-1.4,1-2.6,2.2-3.9,3.4c-7.3,7.3-11.8,17.4-11.8,28.5
					c0,0.6,0,1.1,0,1.6c0.4,8.2,3.2,15.7,7.7,21.9c3.1,4.3,7.1,7.9,11.6,10.6l0-10.2c0,0,0,0,0,0c-6.8-5.8-11.1-14.4-11.1-24
					c-0.1-17.5,14.1-31.8,31.6-31.9c17.5-0.1,31.8,14.1,31.9,31.6c0,9.8-4.4,18.7-11.4,24.5l0,10.1c6.7-4,12.1-9.8,15.5-16.8
					c2.6-5.4,4.1-11.4,4.1-17.8c0-1.7-0.1-3.5-0.4-5.2c-1.8-13.6-10.4-25-22.3-30.7c-3.1-1.5-6.3-2.6-9.8-3.2
					c-2.5-0.5-5.1-0.7-7.7-0.7C128.6,74.8,126,75,123.5,75.6z"/>
				<path class="st5" d="M131.3,83c-17.5,0.1-31.7,14.4-31.6,31.9c0,9.6,4.3,18.2,11.1,24l0-6l14.2-0.1l0-3l-2.9,0
					c-3.1,0-5.6-2.5-5.6-5.6l-0.1-18.8c0-3.1,2.5-5.6,5.6-5.6l18.8-0.1c3.1,0,5.6,2.5,5.6,5.6l0.1,18.8c0,3.1-2.5,5.6-5.6,5.6
					l-2.9,0l0,3l13.7-0.1l0,6.4c7-5.8,11.4-14.7,11.4-24.5C163.2,97.1,148.9,82.9,131.3,83z"/>
				<path class="st6" d="M131.5,114.7l6.8,6.7l-0.2,0.3l0,8l2.9,0c3.1,0,5.6-2.5,5.6-5.6l-0.1-18.8c0-3.1-2.5-5.6-5.6-5.6L122,99.8
					c-3.1,0-5.6,2.5-5.6,5.6l0.1,18.8c0,3.1,2.5,5.6,5.6,5.6l2.9,0l0-8l-0.3-0.2L131.5,114.7z"/>
				<polygon class="st6" points="131.5,114.7 124.8,121.5 125,121.8 138,121.7 138.3,121.5 				"/>
				
					<rect x="125" y="121.7" transform="matrix(1 -4.030921e-03 4.030921e-03 1 -0.5058 0.5312)" class="st6" width="13" height="8"/>
				<path class="st5" d="M125.1,132.8l-14.2,0.1l0,6c0,0,0,0,0,0c1.3,1.2,2.8,2.2,4.3,3.1c3,1.8,6.4,3.2,10,3.9L125.1,132.8z"/>
				<path class="st5" d="M125.1,129.8l0,3l2.8,0l0.1,13.5c1.2,0.1,2.5,0.2,3.7,0.2c1.1,0,2.2-0.1,3.3-0.2l-0.1-13.6l3.3,0l0-3
					L125.1,129.8z"/>
				<path class="st6" d="M110.8,138.9l0,10.2c4.1,2.5,8.7,4.2,13.5,5.1c1.2,0.2,2.3,0.4,3.5,0.5l0-0.1c-0.9-0.1-1.8-0.2-2.7-0.4
					l0-8.3c-3.6-0.7-6.9-2-10-3.9C113.6,141.1,112.2,140,110.8,138.9z"/>
				<path class="st5" d="M127.8,132.8l-2.8,0l0.1,13.1c0.2,0.1,0.5,0.1,0.7,0.2c0.7,0.1,1.3,0.2,2,0.3L127.8,132.8z"/>
				<path class="st5" d="M138.1,132.7l-3.3,0l0.1,13.6c0.4,0,0.9-0.1,1.3-0.2c0.7-0.1,1.3-0.2,1.9-0.4L138.1,132.7z"/>
				<path class="st5" d="M151.8,132.7l-13.7,0.1l0.1,13.1c3.1-0.7,6.1-1.8,8.8-3.3c1.8-1,3.4-2.1,5-3.4L151.8,132.7z"/>
				<path class="st5" d="M110.9,149.1l0.2,39.8l17-0.1l-0.2-34.2c-1.2-0.1-2.4-0.3-3.5-0.5C119.6,153.3,115,151.5,110.9,149.1z
					 M114.3,158c0.3-0.1,0.5-0.2,0.8-0.2c1.1,0,2,0.9,2,2l0.1,20c0,0.8-0.5,1.5-1.1,1.8c-0.3,0.1-0.5,0.2-0.9,0.2c-1.1,0-2-0.9-2-2
					l-0.1-20C113.2,159,113.6,158.3,114.3,158z M122.6,155c0.3-0.2,0.7-0.2,1.1-0.2c1.4,0,2.5,1.1,2.5,2.5l0.1,25
					c0,1-0.6,1.9-1.4,2.3c-0.3,0.2-0.7,0.2-1.1,0.2c-1.4,0-2.5-1.1-2.5-2.5l-0.1-25C121.2,156.3,121.7,155.4,122.6,155z"/>
				<path class="st6" d="M125.9,146c-0.3,0-0.5-0.1-0.7-0.2l0,8.3c0.9,0.2,1.8,0.3,2.7,0.4l0-8.2C127.2,146.2,126.5,146.1,125.9,146
					z"/>
				<path class="st6" d="M127.9,146.3l0,8.2c1.4,0.2,2.7,0.2,4.1,0.2c0,0,0,0,0,0c0,0,0,0,0,0c0,0,0.1,0,0.1,0
					c0.9,0,1.8-0.1,2.7-0.1l0-8.3c-1.1,0.1-2.2,0.2-3.3,0.2C130.4,146.5,129.1,146.4,127.9,146.3z"/>
				<path class="st6" d="M134.9,146.3l0,8.3c0.8-0.1,1.7-0.2,2.5-0.3c0.2,0,0.5-0.1,0.7-0.1l0-8.4c-0.6,0.1-1.3,0.3-1.9,0.4
					C135.8,146.2,135.3,146.3,134.9,146.3z"/>
				<path class="st6" d="M151.9,149.2l0-10.1c-1.5,1.3-3.2,2.4-5,3.4c-2.7,1.5-5.7,2.6-8.8,3.3l0,8.4c2.6-0.4,5-1.1,7.4-2
					c1.8-0.7,3.6-1.5,5.3-2.5C151.2,149.6,151.6,149.4,151.9,149.2z"/>
				<path class="st33" d="M115.2,157.8c-0.3,0-0.6,0.1-0.8,0.2c-0.7,0.3-1.2,1-1.1,1.8l0.1,20c0,1.1,0.9,2,2,2
					c0.3,0,0.6-0.1,0.9-0.2c0.7-0.3,1.1-1,1.1-1.8l-0.1-20C117.2,158.7,116.3,157.8,115.2,157.8z"/>
				<path class="st33" d="M123.7,154.8c-0.4,0-0.7,0.1-1.1,0.2c-0.8,0.4-1.4,1.3-1.4,2.3l0.1,25c0,1.4,1.1,2.5,2.5,2.5
					c0.4,0,0.7-0.1,1.1-0.2c0.8-0.4,1.4-1.3,1.4-2.3l-0.1-25C126.2,155.9,125.1,154.8,123.7,154.8z"/>
				<path class="st6" d="M127.9,154.5L127.9,154.5c1.2,0.2,2.5,0.3,3.8,0.2c0.1,0,0.2,0,0.4,0C130.6,154.7,129.3,154.7,127.9,154.5z
					"/>
				<path class="st6" d="M132.2,154.7c0.1,0,0.2,0,0.2,0c0.8,0,1.7,0,2.5-0.1l0-0.1C134,154.7,133.1,154.7,132.2,154.7z"/>
				<path class="st6" d="M134.9,154.6L134.9,154.6c1.1,0,2.2-0.1,3.3-0.3l0-0.1c-0.2,0-0.5,0.1-0.7,0.1
					C136.6,154.4,135.8,154.5,134.9,154.6z"/>
				<path class="st5" d="M134.9,154.7l0.1,34.1l17-0.1l-0.1-31.5l-1.7,0l0.1,25c0,1-0.6,1.9-1.4,2.3c-0.3,0.2-0.7,0.2-1.1,0.2
					c-1.4,0-2.5-1.1-2.5-2.5l-0.1-25c0-1,0.6-1.9,1.4-2.3l-1-2.7c-2.4,0.9-4.8,1.6-7.4,2l0,0.1C137.1,154.5,136,154.6,134.9,154.7z
					 M138.3,157.9c0.3-0.1,0.5-0.2,0.9-0.2c1.1,0,2,0.9,2,2l0.1,20c0,0.8-0.5,1.5-1.1,1.8c-0.3,0.1-0.6,0.2-0.9,0.2
					c-1.1,0-2-0.9-2-2l-0.1-20C137.2,158.9,137.6,158.2,138.3,157.9z"/>
				<path class="st5" d="M151.9,149.2c-0.3,0.2-0.7,0.4-1,0.6c-1.7,0.9-3.5,1.8-5.3,2.5l1,2.7c0.3-0.2,0.7-0.2,1.1-0.2
					c1.4,0,2.5,1.1,2.5,2.5l1.7,0L151.9,149.2z"/>
				<path class="st33" d="M139.2,157.7c-0.3,0-0.6,0.1-0.9,0.2c-0.7,0.3-1.1,1-1.1,1.8l0.1,20c0,1.1,0.9,2,2,2
					c0.3,0,0.6-0.1,0.9-0.2c0.7-0.3,1.1-1,1.1-1.8l-0.1-20C141.2,158.6,140.3,157.7,139.2,157.7z"/>
				<path class="st33" d="M147.7,154.7c-0.4,0-0.7,0.1-1.1,0.2c-0.8,0.4-1.4,1.3-1.4,2.3l0.1,25c0,1.4,1.1,2.5,2.5,2.5
					c0.4,0,0.7-0.1,1.1-0.2c0.8-0.4,1.4-1.3,1.4-2.3l-0.1-25C150.2,155.8,149,154.7,147.7,154.7z"/>
				<polygon class="st33" points="111.1,188.8 110.3,188.8 110.3,194.8 129.3,194.8 129.3,188.8 128.1,188.8 				"/>
				<polygon class="st33" points="135.1,188.7 134.3,188.7 134.3,194.7 153.3,194.7 153.3,188.7 152.1,188.7 				"/>
			</g>
			<g>
				<polyline class="st21" points="152.1,188.7 151.9,157.2 151.9,149.2 				"/>
				<line class="st21" x1="134.9" y1="154.7" x2="135.1" y2="188.7"/>
				<polygon class="st21" points="135.1,188.7 134.3,188.7 134.3,194.7 153.3,194.7 153.3,188.7 152.1,188.7 				"/>
				<path class="st21" d="M137.2,159.7l0.1,20c0,1.1,0.9,2,2,2c0.3,0,0.6-0.1,0.9-0.2c0.7-0.3,1.1-1,1.1-1.8l-0.1-20
					c0-1.1-0.9-2-2-2c-0.3,0-0.6,0.1-0.9,0.2C137.6,158.2,137.2,158.9,137.2,159.7z"/>
				<path class="st21" d="M146.6,154.9c-0.8,0.4-1.4,1.3-1.4,2.3l0.1,25c0,1.4,1.1,2.5,2.5,2.5c0.4,0,0.7-0.1,1.1-0.2
					c0.8-0.4,1.4-1.3,1.4-2.3l-0.1-25c0-1.4-1.1-2.5-2.5-2.5C147.3,154.7,146.9,154.8,146.6,154.9z"/>
				<line class="st21" x1="128.1" y1="188.8" x2="127.9" y2="154.6"/>
				<line class="st21" x1="110.9" y1="149.1" x2="111.1" y2="188.8"/>
				<polygon class="st21" points="111.1,188.8 110.3,188.8 110.3,194.8 129.3,194.8 129.3,188.8 128.1,188.8 				"/>
				<path class="st21" d="M113.2,159.8l0.1,20c0,1.1,0.9,2,2,2c0.3,0,0.6-0.1,0.9-0.2c0.7-0.3,1.1-1,1.1-1.8l-0.1-20
					c0-1.1-0.9-2-2-2c-0.3,0-0.6,0.1-0.8,0.2C113.6,158.3,113.2,159,113.2,159.8z"/>
				<path class="st21" d="M121.2,157.3l0.1,25c0,1.4,1.1,2.5,2.5,2.5c0.4,0,0.7-0.1,1.1-0.2c0.8-0.4,1.4-1.3,1.4-2.3l-0.1-25
					c0-1.4-1.1-2.5-2.5-2.5c-0.4,0-0.7,0.1-1.1,0.2C121.7,155.4,121.2,156.3,121.2,157.3z"/>
				<path class="st21" d="M132.2,154.7c0.1,0,0.2,0,0.2,0c0.8,0,1.7,0,2.5-0.1c1.1-0.1,2.2-0.2,3.2-0.3l0-0.1"/>
				<path class="st21" d="M151.9,149.2c6.7-4,12.1-9.8,15.5-16.8c2.6-5.4,4.1-11.4,4.1-17.8c0-1.7-0.1-3.5-0.4-5.2
					c-1.8-13.6-10.4-25-22.3-30.7c-3.1-1.5-6.3-2.6-9.8-3.2c-2.5-0.5-5.1-0.7-7.7-0.7c-2.7,0-5.3,0.3-7.8,0.8
					c-6.1,1.2-11.6,3.8-16.4,7.5c-1.4,1-2.6,2.2-3.9,3.4c-7.3,7.3-11.8,17.4-11.8,28.5c0,0.6,0,1.1,0,1.6c0.4,8.2,3.2,15.7,7.7,21.9
					c3.1,4.3,7.1,7.9,11.6,10.6c4.1,2.5,8.7,4.2,13.5,5.1c1.2,0.2,2.3,0.4,3.5,0.5c1.2,0.1,2.5,0.2,3.7,0.2c0.1,0,0.2,0,0.4,0
					c0,0,0,0,0,0c0,0,0,0,0,0c0,0,0.1,0,0.1,0c0.9,0,1.8-0.1,2.7-0.1c0.8-0.1,1.7-0.2,2.5-0.3c0.2,0,0.5-0.1,0.7-0.1
					c2.6-0.4,5-1.1,7.4-2c1.8-0.7,3.6-1.5,5.3-2.5C151.2,149.6,151.6,149.4,151.9,149.2z"/>
				<path class="st21" d="M110.8,138.9c1.3,1.2,2.8,2.2,4.3,3.1c3,1.8,6.4,3.2,10,3.9c0.2,0.1,0.5,0.1,0.7,0.2
					c0.7,0.1,1.3,0.2,2,0.3c1.2,0.1,2.5,0.2,3.7,0.2c1.1,0,2.2-0.1,3.3-0.2c0.4,0,0.9-0.1,1.3-0.2c0.7-0.1,1.3-0.2,1.9-0.4
					c3.1-0.7,6.1-1.8,8.8-3.3c1.8-1,3.4-2.1,5-3.4c7-5.8,11.4-14.7,11.4-24.5c-0.1-17.5-14.4-31.7-31.9-31.6
					c-17.5,0.1-31.7,14.4-31.6,31.9C99.8,124.5,104.1,133.1,110.8,138.9"/>
				<path class="st21" d="M138.1,129.7l2.9,0c3.1,0,5.6-2.5,5.6-5.6l-0.1-18.8c0-3.1-2.5-5.6-5.6-5.6L122,99.8
					c-3.1,0-5.6,2.5-5.6,5.6l0.1,18.8c0,3.1,2.5,5.6,5.6,5.6l2.9,0L138.1,129.7z"/>
				<polyline class="st24" points="141.5,124.7 138.3,121.5 131.5,114.7 121.4,104.8 				"/>
				<polyline class="st24" points="141.4,104.7 131.5,114.7 124.8,121.5 121.5,124.8 				"/>
			</g>
		</g>
	</g>
</g>
</svg>
