<?xml version="1.0" encoding="utf-8"?>
<!-- Generator: Adobe Illustrator 25.3.0, SVG Export Plug-In . SVG Version: 6.00 Build 0)  -->
<svg version="1.1" xmlns="http://www.w3.org/2000/svg" xmlns:xlink="http://www.w3.org/1999/xlink" x="0px" y="0px"
	 viewBox="0 0 256 256" style="enable-background:new 0 0 256 256;" xml:space="preserve">
<style type="text/css">
	.st0{display:none;}
	.st1{display:inline;}
	.st2{fill:#212121;}
	.st3{fill:#363636;}
	.st4{fill:#1C1C1C;}
	.st5{fill:#404040;}
	.st6{fill:#8E8E8E;}
	.st7{fill:#91C9E8;}
	.st8{fill:#3399CC;}
	.st9{fill:#446E9E;}
	.st10{fill:#335377;}
	.st11{fill:#7B52AB;}
	.st12{fill:#36175E;}
	.st13{fill:#45BF55;}
	.st14{fill:#168039;}
	.st15{fill:#EE8900;}
	.st16{fill:#D95100;}
	.st17{fill:#FFBB00;}
	.st18{fill:#D19419;}
	.st19{fill:#BF1533;}
	.st20{fill:#9A0419;}
	.st21{fill:none;stroke:#000000;stroke-miterlimit:10;}
	.st22{display:inline;fill:none;stroke:#000000;stroke-miterlimit:10;}
	.st23{fill:none;stroke:#000000;stroke-linecap:round;stroke-linejoin:round;stroke-miterlimit:10;}
	.st24{fill:none;stroke:#000000;stroke-linecap:round;stroke-miterlimit:10;}
	.st25{fill:#FFFFFF;}
	.st26{fill:none;stroke:#000000;stroke-width:0.5;stroke-linecap:round;stroke-linejoin:round;}
	.st27{fill:#773533;}
	.st28{fill:#CC3344;}
	.st29{fill:#E89199;}
	.st30{fill:#33CC78;}
	.st31{fill:#91E8BA;}
	.st32{fill:#33775F;}
	.st33{fill:#8F33CC;}
	.st34{fill:#C791E8;}
	.st35{fill:#683377;}
</style>
<g id="BG" class="st0">
</g>
<g id="Refs">
</g>
<g id="Palette">
</g>
<g id="Layer_5">
</g>
<g id="Guide" class="st0">
</g>
<g id="BLUE">
	<g>
		<g>
			<g id="XMLID_14_">
				<g>
					<polygon class="st8" points="132,143.4 124.5,132 132,132 					"/>
					<polygon class="st8" points="132,158.4 125.5,147 132,147 					"/>
					<polygon class="st8" points="137,172.5 129,162 132,162 142,162 145,162 					"/>
					<path class="st10" d="M130,125.1v-0.3c0-1,0.8-1.9,1.9-1.9h10.3c1,0,1.9,0.8,1.9,1.9v0.3c0,1-0.8,1.9-1.9,1.9H142v-2h-10v2
						h-0.1C130.8,127,130,126.2,130,125.1z"/>
					<rect x="132" y="125" class="st10" width="10" height="2"/>
					<polygon class="st5" points="132,132 132,127 142,127 142,132 142,143.4 142,147 142,158.4 142,162 132,162 132,158.4 132,147 
						132,143.4 					"/>
					<polygon class="st8" points="142,143.4 142,132 149.5,132 					"/>
					<polygon class="st8" points="142,158.4 142,147 148.5,147 					"/>
				</g>
				<g>
					<line class="st21" x1="132" y1="132" x2="132" y2="127"/>
					<line class="st21" x1="132" y1="147" x2="132" y2="143.4"/>
					<line class="st21" x1="132" y1="162" x2="132" y2="158.4"/>
					<line class="st21" x1="142" y1="158.4" x2="142" y2="162"/>
					<line class="st21" x1="142" y1="143.4" x2="142" y2="147"/>
					<line class="st21" x1="142" y1="127" x2="142" y2="132"/>
					<path class="st21" d="M142,127h0.1c1,0,1.9-0.8,1.9-1.9v-0.3c0-1-0.8-1.9-1.9-1.9h-10.3c-1,0-1.9,0.8-1.9,1.9v0.3
						c0,1,0.8,1.9,1.9,1.9h0.1H142z"/>
					<polygon class="st21" points="142,162 145,162 137,172.5 129,162 132,162 					"/>
					<polygon class="st21" points="132,158.4 125.5,147 132,147 					"/>
					<polygon class="st21" points="132,143.4 124.5,132 132,132 					"/>
					<polygon class="st21" points="142,158.4 148.5,147 142,147 					"/>
					<polygon class="st21" points="142,143.4 149.5,132 142,132 					"/>
				</g>
			</g>
		</g>
		<g>
			<g id="XMLID_13_">
				<g>
					<polygon class="st8" points="114,143.4 106.5,132 114,132 					"/>
					<polygon class="st8" points="114,158.4 107.5,147 114,147 					"/>
					<polygon class="st8" points="119,172.5 111,162 114,162 124,162 127,162 					"/>
					<path class="st10" d="M112,125.1v-0.3c0-1,0.8-1.9,1.9-1.9h10.3c1,0,1.9,0.8,1.9,1.9v0.3c0,1-0.8,1.9-1.9,1.9H124v-2h-10v2
						h-0.1C112.8,127,112,126.2,112,125.1z"/>
					<rect x="114" y="125" class="st10" width="10" height="2"/>
					<polygon class="st5" points="114,132 114,127 124,127 124,132 124,143.4 124,147 124,158.4 124,162 114,162 114,158.4 114,147 
						114,143.4 					"/>
					<polygon class="st8" points="124,143.4 124,132 131.5,132 					"/>
					<polygon class="st8" points="124,158.4 124,147 130.5,147 					"/>
				</g>
				<g>
					<line class="st21" x1="114" y1="132" x2="114" y2="127"/>
					<line class="st21" x1="114" y1="147" x2="114" y2="143.4"/>
					<line class="st21" x1="114" y1="162" x2="114" y2="158.4"/>
					<line class="st21" x1="124" y1="158.4" x2="124" y2="162"/>
					<line class="st21" x1="124" y1="143.4" x2="124" y2="147"/>
					<line class="st21" x1="124" y1="127" x2="124" y2="132"/>
					<path class="st21" d="M124,127h0.1c1,0,1.9-0.8,1.9-1.9v-0.3c0-1-0.8-1.9-1.9-1.9h-10.3c-1,0-1.9,0.8-1.9,1.9v0.3
						c0,1,0.8,1.9,1.9,1.9h0.1H124z"/>
					<polygon class="st21" points="124,162 127,162 119,172.5 111,162 114,162 					"/>
					<polygon class="st21" points="114,158.4 107.5,147 114,147 					"/>
					<polygon class="st21" points="114,143.4 106.5,132 114,132 					"/>
					<polygon class="st21" points="124,158.4 130.5,147 124,147 					"/>
					<polygon class="st21" points="124,143.4 131.5,132 124,132 					"/>
				</g>
			</g>
		</g>
		<g>
			<g id="XMLID_12_">
				<g>
					<path class="st6" d="M98.5,143.2v-37.6c0-4.8,1.5-9.2,4.1-12.8h50.8c2.6,3.6,4.1,8,4.1,12.8v37.6c0,4-3.3,7.3-7.3,7.3h-44.4
						C101.8,150.5,98.5,147.2,98.5,143.2z M103,104.5v33c0,1.2,0.5,2.4,1.3,3.2c0.8,0.8,1.9,1.3,3.2,1.3c2.5,0,4.5-2,4.5-4.5v-33
						c0-2.5-2-4.5-4.5-4.5S103,102,103,104.5z M116,104.5v33c0,1.2,0.5,2.4,1.3,3.2c0.8,0.8,1.9,1.3,3.2,1.3c2.5,0,4.5-2,4.5-4.5
						v-33c0-2.5-2-4.5-4.5-4.5S116,102,116,104.5z M134,133.5c0,2.3,0.9,4.5,2.5,6c1.5,1.5,3.7,2.5,6,2.5s4.5-0.9,6-2.5
						c1.5-1.5,2.5-3.7,2.5-6c0-4.7-3.8-8.5-8.5-8.5c-2.3,0-4.5,0.9-6,2.5C134.9,129,134,131.2,134,133.5z"/>
					<path class="st8" d="M153.4,92.8h-50.8c4-5.6,10.6-9.3,18-9.3h14.8C142.8,83.5,149.4,87.2,153.4,92.8z"/>
					<path class="st8" d="M103,137.5v-33c0-2.5,2-4.5,4.5-4.5s4.5,2,4.5,4.5v33c0,2.5-2,4.5-4.5,4.5c-1.2,0-2.4-0.5-3.2-1.3
						C103.5,139.9,103,138.7,103,137.5z"/>
					<path class="st6" d="M104,154v-3.5h1.8h44.4h0.8v3.5c0,3.6-2.9,6.5-6.5,6.5h-34C106.9,160.5,104,157.6,104,154z"/>
					<path class="st8" d="M116,137.5v-33c0-2.5,2-4.5,4.5-4.5s4.5,2,4.5,4.5v33c0,2.5-2,4.5-4.5,4.5c-1.2,0-2.4-0.5-3.2-1.3
						C116.5,139.9,116,138.7,116,137.5z"/>
					<path class="st8" d="M136.5,139.5c-1.5-1.5-2.5-3.7-2.5-6s0.9-4.5,2.5-6c1.5-1.5,3.7-2.5,6-2.5c4.7,0,8.5,3.8,8.5,8.5
						c0,2.3-0.9,4.5-2.5,6c-1.5,1.5-3.7,2.5-6,2.5S138,141.1,136.5,139.5z"/>
				</g>
				<g>
					<path class="st21" d="M105.8,150.5c-4,0-7.3-3.3-7.3-7.3v-37.6c0-4.8,1.5-9.2,4.1-12.8c4-5.6,10.6-9.3,18-9.3h14.8
						c7.4,0,14,3.7,18,9.3c2.6,3.6,4.1,8,4.1,12.8v37.6c0,4-3.3,7.3-7.3,7.3"/>
					<path class="st21" d="M150.2,150.5h0.8v3.5c0,3.6-2.9,6.5-6.5,6.5h-34c-3.6,0-6.5-2.9-6.5-6.5v-3.5h1.8H150.2z"/>
					<path class="st21" d="M142.5,125c4.7,0,8.5,3.8,8.5,8.5c0,2.3-0.9,4.5-2.5,6c-1.5,1.5-3.7,2.5-6,2.5s-4.5-0.9-6-2.5
						c-1.5-1.5-2.5-3.7-2.5-6s0.9-4.5,2.5-6C138,125.9,140.2,125,142.5,125z"/>
					<path class="st21" d="M107.5,100c2.5,0,4.5,2,4.5,4.5v33c0,2.5-2,4.5-4.5,4.5c-1.2,0-2.4-0.5-3.2-1.3c-0.8-0.8-1.3-1.9-1.3-3.2
						v-33C103,102,105,100,107.5,100z"/>
					<path class="st21" d="M120.5,100c2.5,0,4.5,2,4.5,4.5v33c0,2.5-2,4.5-4.5,4.5c-1.2,0-2.4-0.5-3.2-1.3c-0.8-0.8-1.3-1.9-1.3-3.2
						v-33C116,102,118,100,120.5,100z"/>
					<polyline class="st21" points="153.4,92.8 153.4,92.8 102.6,92.8 102.6,92.8 					"/>
				</g>
			</g>
		</g>
	</g>
</g>
<g id="RED">
	<g>
		<g>
			<g id="XMLID_65_">
				<g>
					<polygon class="st28" points="132,143.4 124.5,132 132,132 					"/>
					<polygon class="st28" points="132,158.4 125.5,147 132,147 					"/>
					<polygon class="st28" points="137,172.5 129,162 132,162 142,162 145,162 					"/>
					<path class="st27" d="M130,125.1v-0.3c0-1,0.8-1.9,1.9-1.9h10.3c1,0,1.9,0.8,1.9,1.9v0.3c0,1-0.8,1.9-1.9,1.9H142v-2h-10v2
						h-0.1C130.8,127,130,126.2,130,125.1z"/>
					<rect x="132" y="125" class="st27" width="10" height="2"/>
					<polygon class="st5" points="132,132 132,127 142,127 142,132 142,143.4 142,147 142,158.4 142,162 132,162 132,158.4 132,147 
						132,143.4 					"/>
					<polygon class="st28" points="142,143.4 142,132 149.5,132 					"/>
					<polygon class="st28" points="142,158.4 142,147 148.5,147 					"/>
				</g>
				<g>
					<line class="st21" x1="132" y1="132" x2="132" y2="127"/>
					<line class="st21" x1="132" y1="147" x2="132" y2="143.4"/>
					<line class="st21" x1="132" y1="162" x2="132" y2="158.4"/>
					<line class="st21" x1="142" y1="158.4" x2="142" y2="162"/>
					<line class="st21" x1="142" y1="143.4" x2="142" y2="147"/>
					<line class="st21" x1="142" y1="127" x2="142" y2="132"/>
					<path class="st21" d="M142,127h0.1c1,0,1.9-0.8,1.9-1.9v-0.3c0-1-0.8-1.9-1.9-1.9h-10.3c-1,0-1.9,0.8-1.9,1.9v0.3
						c0,1,0.8,1.9,1.9,1.9h0.1H142z"/>
					<polygon class="st21" points="142,162 145,162 137,172.5 129,162 132,162 					"/>
					<polygon class="st21" points="132,158.4 125.5,147 132,147 					"/>
					<polygon class="st21" points="132,143.4 124.5,132 132,132 					"/>
					<polygon class="st21" points="142,158.4 148.5,147 142,147 					"/>
					<polygon class="st21" points="142,143.4 149.5,132 142,132 					"/>
				</g>
			</g>
		</g>
		<g>
			<g id="XMLID_64_">
				<g>
					<polygon class="st28" points="114,143.4 106.5,132 114,132 					"/>
					<polygon class="st28" points="114,158.4 107.5,147 114,147 					"/>
					<polygon class="st28" points="119,172.5 111,162 114,162 124,162 127,162 					"/>
					<path class="st27" d="M112,125.1v-0.3c0-1,0.8-1.9,1.9-1.9h10.3c1,0,1.9,0.8,1.9,1.9v0.3c0,1-0.8,1.9-1.9,1.9H124v-2h-10v2
						h-0.1C112.8,127,112,126.2,112,125.1z"/>
					<rect x="114" y="125" class="st27" width="10" height="2"/>
					<polygon class="st5" points="114,132 114,127 124,127 124,132 124,143.4 124,147 124,158.4 124,162 114,162 114,158.4 114,147 
						114,143.4 					"/>
					<polygon class="st28" points="124,143.4 124,132 131.5,132 					"/>
					<polygon class="st28" points="124,158.4 124,147 130.5,147 					"/>
				</g>
				<g>
					<line class="st21" x1="114" y1="132" x2="114" y2="127"/>
					<line class="st21" x1="114" y1="147" x2="114" y2="143.4"/>
					<line class="st21" x1="114" y1="162" x2="114" y2="158.4"/>
					<line class="st21" x1="124" y1="158.4" x2="124" y2="162"/>
					<line class="st21" x1="124" y1="143.4" x2="124" y2="147"/>
					<line class="st21" x1="124" y1="127" x2="124" y2="132"/>
					<path class="st21" d="M124,127h0.1c1,0,1.9-0.8,1.9-1.9v-0.3c0-1-0.8-1.9-1.9-1.9h-10.3c-1,0-1.9,0.8-1.9,1.9v0.3
						c0,1,0.8,1.9,1.9,1.9h0.1H124z"/>
					<polygon class="st21" points="124,162 127,162 119,172.5 111,162 114,162 					"/>
					<polygon class="st21" points="114,158.4 107.5,147 114,147 					"/>
					<polygon class="st21" points="114,143.4 106.5,132 114,132 					"/>
					<polygon class="st21" points="124,158.4 130.5,147 124,147 					"/>
					<polygon class="st21" points="124,143.4 131.5,132 124,132 					"/>
				</g>
			</g>
		</g>
		<g>
			<g id="XMLID_63_">
				<g>
					<path class="st6" d="M98.5,143.2v-37.6c0-4.8,1.5-9.2,4.1-12.8h50.8c2.6,3.6,4.1,8,4.1,12.8v37.6c0,4-3.3,7.3-7.3,7.3h-44.4
						C101.8,150.5,98.5,147.2,98.5,143.2z M103,104.5v33c0,1.2,0.5,2.4,1.3,3.2c0.8,0.8,1.9,1.3,3.2,1.3c2.5,0,4.5-2,4.5-4.5v-33
						c0-2.5-2-4.5-4.5-4.5S103,102,103,104.5z M116,104.5v33c0,1.2,0.5,2.4,1.3,3.2c0.8,0.8,1.9,1.3,3.2,1.3c2.5,0,4.5-2,4.5-4.5
						v-33c0-2.5-2-4.5-4.5-4.5S116,102,116,104.5z M134,133.5c0,2.3,0.9,4.5,2.5,6c1.5,1.5,3.7,2.5,6,2.5s4.5-0.9,6-2.5
						c1.5-1.5,2.5-3.7,2.5-6c0-4.7-3.8-8.5-8.5-8.5c-2.3,0-4.5,0.9-6,2.5C134.9,129,134,131.2,134,133.5z"/>
					<path class="st28" d="M153.4,92.8h-50.8c4-5.6,10.6-9.3,18-9.3h14.8C142.8,83.5,149.4,87.2,153.4,92.8z"/>
					<path class="st28" d="M103,137.5v-33c0-2.5,2-4.5,4.5-4.5s4.5,2,4.5,4.5v33c0,2.5-2,4.5-4.5,4.5c-1.2,0-2.4-0.5-3.2-1.3
						C103.5,139.9,103,138.7,103,137.5z"/>
					<path class="st6" d="M104,154v-3.5h1.8h44.4h0.8v3.5c0,3.6-2.9,6.5-6.5,6.5h-34C106.9,160.5,104,157.6,104,154z"/>
					<path class="st28" d="M116,137.5v-33c0-2.5,2-4.5,4.5-4.5s4.5,2,4.5,4.5v33c0,2.5-2,4.5-4.5,4.5c-1.2,0-2.4-0.5-3.2-1.3
						C116.5,139.9,116,138.7,116,137.5z"/>
					<path class="st28" d="M136.5,139.5c-1.5-1.5-2.5-3.7-2.5-6s0.9-4.5,2.5-6c1.5-1.5,3.7-2.5,6-2.5c4.7,0,8.5,3.8,8.5,8.5
						c0,2.3-0.9,4.5-2.5,6c-1.5,1.5-3.7,2.5-6,2.5S138,141.1,136.5,139.5z"/>
				</g>
				<g>
					<path class="st21" d="M105.8,150.5c-4,0-7.3-3.3-7.3-7.3v-37.6c0-4.8,1.5-9.2,4.1-12.8c4-5.6,10.6-9.3,18-9.3h14.8
						c7.4,0,14,3.7,18,9.3c2.6,3.6,4.1,8,4.1,12.8v37.6c0,4-3.3,7.3-7.3,7.3"/>
					<path class="st21" d="M150.2,150.5h0.8v3.5c0,3.6-2.9,6.5-6.5,6.5h-34c-3.6,0-6.5-2.9-6.5-6.5v-3.5h1.8H150.2z"/>
					<path class="st21" d="M142.5,125c4.7,0,8.5,3.8,8.5,8.5c0,2.3-0.9,4.5-2.5,6c-1.5,1.5-3.7,2.5-6,2.5s-4.5-0.9-6-2.5
						c-1.5-1.5-2.5-3.7-2.5-6s0.9-4.5,2.5-6C138,125.9,140.2,125,142.5,125z"/>
					<path class="st21" d="M107.5,100c2.5,0,4.5,2,4.5,4.5v33c0,2.5-2,4.5-4.5,4.5c-1.2,0-2.4-0.5-3.2-1.3c-0.8-0.8-1.3-1.9-1.3-3.2
						v-33C103,102,105,100,107.5,100z"/>
					<path class="st21" d="M120.5,100c2.5,0,4.5,2,4.5,4.5v33c0,2.5-2,4.5-4.5,4.5c-1.2,0-2.4-0.5-3.2-1.3c-0.8-0.8-1.3-1.9-1.3-3.2
						v-33C116,102,118,100,120.5,100z"/>
					<polyline class="st21" points="153.4,92.8 153.4,92.8 102.6,92.8 102.6,92.8 					"/>
				</g>
			</g>
		</g>
	</g>
</g>
<g id="GREEN">
	<g>
		<g>
			<g id="XMLID_34_">
				<g>
					<polygon class="st30" points="132,143.4 124.5,132 132,132 					"/>
					<polygon class="st30" points="132,158.4 125.5,147 132,147 					"/>
					<polygon class="st30" points="137,172.5 129,162 132,162 142,162 145,162 					"/>
					<path class="st32" d="M130,125.1v-0.3c0-1,0.8-1.9,1.9-1.9h10.3c1,0,1.9,0.8,1.9,1.9v0.3c0,1-0.8,1.9-1.9,1.9H142v-2h-10v2
						h-0.1C130.8,127,130,126.2,130,125.1z"/>
					<rect x="132" y="125" class="st32" width="10" height="2"/>
					<polygon class="st5" points="132,132 132,127 142,127 142,132 142,143.4 142,147 142,158.4 142,162 132,162 132,158.4 132,147 
						132,143.4 					"/>
					<polygon class="st30" points="142,143.4 142,132 149.5,132 					"/>
					<polygon class="st30" points="142,158.4 142,147 148.5,147 					"/>
				</g>
				<g>
					<line class="st21" x1="132" y1="132" x2="132" y2="127"/>
					<line class="st21" x1="132" y1="147" x2="132" y2="143.4"/>
					<line class="st21" x1="132" y1="162" x2="132" y2="158.4"/>
					<line class="st21" x1="142" y1="158.4" x2="142" y2="162"/>
					<line class="st21" x1="142" y1="143.4" x2="142" y2="147"/>
					<line class="st21" x1="142" y1="127" x2="142" y2="132"/>
					<path class="st21" d="M142,127h0.1c1,0,1.9-0.8,1.9-1.9v-0.3c0-1-0.8-1.9-1.9-1.9h-10.3c-1,0-1.9,0.8-1.9,1.9v0.3
						c0,1,0.8,1.9,1.9,1.9h0.1H142z"/>
					<polygon class="st21" points="142,162 145,162 137,172.5 129,162 132,162 					"/>
					<polygon class="st21" points="132,158.4 125.5,147 132,147 					"/>
					<polygon class="st21" points="132,143.4 124.5,132 132,132 					"/>
					<polygon class="st21" points="142,158.4 148.5,147 142,147 					"/>
					<polygon class="st21" points="142,143.4 149.5,132 142,132 					"/>
				</g>
			</g>
		</g>
		<g>
			<g id="XMLID_33_">
				<g>
					<polygon class="st30" points="114,143.4 106.5,132 114,132 					"/>
					<polygon class="st30" points="114,158.4 107.5,147 114,147 					"/>
					<polygon class="st30" points="119,172.5 111,162 114,162 124,162 127,162 					"/>
					<path class="st32" d="M112,125.1v-0.3c0-1,0.8-1.9,1.9-1.9h10.3c1,0,1.9,0.8,1.9,1.9v0.3c0,1-0.8,1.9-1.9,1.9H124v-2h-10v2
						h-0.1C112.8,127,112,126.2,112,125.1z"/>
					<rect x="114" y="125" class="st32" width="10" height="2"/>
					<polygon class="st5" points="114,132 114,127 124,127 124,132 124,143.4 124,147 124,158.4 124,162 114,162 114,158.4 114,147 
						114,143.4 					"/>
					<polygon class="st30" points="124,143.4 124,132 131.5,132 					"/>
					<polygon class="st30" points="124,158.4 124,147 130.5,147 					"/>
				</g>
				<g>
					<line class="st21" x1="114" y1="132" x2="114" y2="127"/>
					<line class="st21" x1="114" y1="147" x2="114" y2="143.4"/>
					<line class="st21" x1="114" y1="162" x2="114" y2="158.4"/>
					<line class="st21" x1="124" y1="158.4" x2="124" y2="162"/>
					<line class="st21" x1="124" y1="143.4" x2="124" y2="147"/>
					<line class="st21" x1="124" y1="127" x2="124" y2="132"/>
					<path class="st21" d="M124,127h0.1c1,0,1.9-0.8,1.9-1.9v-0.3c0-1-0.8-1.9-1.9-1.9h-10.3c-1,0-1.9,0.8-1.9,1.9v0.3
						c0,1,0.8,1.9,1.9,1.9h0.1H124z"/>
					<polygon class="st21" points="124,162 127,162 119,172.5 111,162 114,162 					"/>
					<polygon class="st21" points="114,158.4 107.5,147 114,147 					"/>
					<polygon class="st21" points="114,143.4 106.5,132 114,132 					"/>
					<polygon class="st21" points="124,158.4 130.5,147 124,147 					"/>
					<polygon class="st21" points="124,143.4 131.5,132 124,132 					"/>
				</g>
			</g>
		</g>
		<g>
			<g id="XMLID_32_">
				<g>
					<path class="st6" d="M98.5,143.2v-37.6c0-4.8,1.5-9.2,4.1-12.8h50.8c2.6,3.6,4.1,8,4.1,12.8v37.6c0,4-3.3,7.3-7.3,7.3h-44.4
						C101.8,150.5,98.5,147.2,98.5,143.2z M103,104.5v33c0,1.2,0.5,2.4,1.3,3.2c0.8,0.8,1.9,1.3,3.2,1.3c2.5,0,4.5-2,4.5-4.5v-33
						c0-2.5-2-4.5-4.5-4.5S103,102,103,104.5z M116,104.5v33c0,1.2,0.5,2.4,1.3,3.2c0.8,0.8,1.9,1.3,3.2,1.3c2.5,0,4.5-2,4.5-4.5
						v-33c0-2.5-2-4.5-4.5-4.5S116,102,116,104.5z M134,133.5c0,2.3,0.9,4.5,2.5,6c1.5,1.5,3.7,2.5,6,2.5s4.5-0.9,6-2.5
						c1.5-1.5,2.5-3.7,2.5-6c0-4.7-3.8-8.5-8.5-8.5c-2.3,0-4.5,0.9-6,2.5C134.9,129,134,131.2,134,133.5z"/>
					<path class="st30" d="M153.4,92.8h-50.8c4-5.6,10.6-9.3,18-9.3h14.8C142.8,83.5,149.4,87.2,153.4,92.8z"/>
					<path class="st30" d="M103,137.5v-33c0-2.5,2-4.5,4.5-4.5s4.5,2,4.5,4.5v33c0,2.5-2,4.5-4.5,4.5c-1.2,0-2.4-0.5-3.2-1.3
						C103.5,139.9,103,138.7,103,137.5z"/>
					<path class="st6" d="M104,154v-3.5h1.8h44.4h0.8v3.5c0,3.6-2.9,6.5-6.5,6.5h-34C106.9,160.5,104,157.6,104,154z"/>
					<path class="st30" d="M116,137.5v-33c0-2.5,2-4.5,4.5-4.5s4.5,2,4.5,4.5v33c0,2.5-2,4.5-4.5,4.5c-1.2,0-2.4-0.5-3.2-1.3
						C116.5,139.9,116,138.7,116,137.5z"/>
					<path class="st30" d="M136.5,139.5c-1.5-1.5-2.5-3.7-2.5-6s0.9-4.5,2.5-6c1.5-1.5,3.7-2.5,6-2.5c4.7,0,8.5,3.8,8.5,8.5
						c0,2.3-0.9,4.5-2.5,6c-1.5,1.5-3.7,2.5-6,2.5S138,141.1,136.5,139.5z"/>
				</g>
				<g>
					<path class="st21" d="M105.8,150.5c-4,0-7.3-3.3-7.3-7.3v-37.6c0-4.8,1.5-9.2,4.1-12.8c4-5.6,10.6-9.3,18-9.3h14.8
						c7.4,0,14,3.7,18,9.3c2.6,3.6,4.1,8,4.1,12.8v37.6c0,4-3.3,7.3-7.3,7.3"/>
					<path class="st21" d="M150.2,150.5h0.8v3.5c0,3.6-2.9,6.5-6.5,6.5h-34c-3.6,0-6.5-2.9-6.5-6.5v-3.5h1.8H150.2z"/>
					<path class="st21" d="M142.5,125c4.7,0,8.5,3.8,8.5,8.5c0,2.3-0.9,4.5-2.5,6c-1.5,1.5-3.7,2.5-6,2.5s-4.5-0.9-6-2.5
						c-1.5-1.5-2.5-3.7-2.5-6s0.9-4.5,2.5-6C138,125.9,140.2,125,142.5,125z"/>
					<path class="st21" d="M107.5,100c2.5,0,4.5,2,4.5,4.5v33c0,2.5-2,4.5-4.5,4.5c-1.2,0-2.4-0.5-3.2-1.3c-0.8-0.8-1.3-1.9-1.3-3.2
						v-33C103,102,105,100,107.5,100z"/>
					<path class="st21" d="M120.5,100c2.5,0,4.5,2,4.5,4.5v33c0,2.5-2,4.5-4.5,4.5c-1.2,0-2.4-0.5-3.2-1.3c-0.8-0.8-1.3-1.9-1.3-3.2
						v-33C116,102,118,100,120.5,100z"/>
					<polyline class="st21" points="153.4,92.8 153.4,92.8 102.6,92.8 102.6,92.8 					"/>
				</g>
			</g>
		</g>
	</g>
</g>
<g id="PURPLE">
	<g>
		<g>
			<g id="XMLID_58_">
				<g>
					<polygon class="st33" points="132,143.4 124.5,132 132,132 					"/>
					<polygon class="st33" points="132,158.4 125.5,147 132,147 					"/>
					<polygon class="st33" points="137,172.5 129,162 132,162 142,162 145,162 					"/>
					<path class="st35" d="M130,125.1v-0.3c0-1,0.8-1.9,1.9-1.9h10.3c1,0,1.9,0.8,1.9,1.9v0.3c0,1-0.8,1.9-1.9,1.9H142v-2h-10v2
						h-0.1C130.8,127,130,126.2,130,125.1z"/>
					<rect x="132" y="125" class="st35" width="10" height="2"/>
					<polygon class="st5" points="132,132 132,127 142,127 142,132 142,143.4 142,147 142,158.4 142,162 132,162 132,158.4 132,147 
						132,143.4 					"/>
					<polygon class="st33" points="142,143.4 142,132 149.5,132 					"/>
					<polygon class="st33" points="142,158.4 142,147 148.5,147 					"/>
				</g>
				<g>
					<line class="st21" x1="132" y1="132" x2="132" y2="127"/>
					<line class="st21" x1="132" y1="147" x2="132" y2="143.4"/>
					<line class="st21" x1="132" y1="162" x2="132" y2="158.4"/>
					<line class="st21" x1="142" y1="158.4" x2="142" y2="162"/>
					<line class="st21" x1="142" y1="143.4" x2="142" y2="147"/>
					<line class="st21" x1="142" y1="127" x2="142" y2="132"/>
					<path class="st21" d="M142,127h0.1c1,0,1.9-0.8,1.9-1.9v-0.3c0-1-0.8-1.9-1.9-1.9h-10.3c-1,0-1.9,0.8-1.9,1.9v0.3
						c0,1,0.8,1.9,1.9,1.9h0.1H142z"/>
					<polygon class="st21" points="142,162 145,162 137,172.5 129,162 132,162 					"/>
					<polygon class="st21" points="132,158.4 125.5,147 132,147 					"/>
					<polygon class="st21" points="132,143.4 124.5,132 132,132 					"/>
					<polygon class="st21" points="142,158.4 148.5,147 142,147 					"/>
					<polygon class="st21" points="142,143.4 149.5,132 142,132 					"/>
				</g>
			</g>
		</g>
		<g>
			<g id="XMLID_54_">
				<g>
					<polygon class="st33" points="114,143.4 106.5,132 114,132 					"/>
					<polygon class="st33" points="114,158.4 107.5,147 114,147 					"/>
					<polygon class="st33" points="119,172.5 111,162 114,162 124,162 127,162 					"/>
					<path class="st35" d="M112,125.1v-0.3c0-1,0.8-1.9,1.9-1.9h10.3c1,0,1.9,0.8,1.9,1.9v0.3c0,1-0.8,1.9-1.9,1.9H124v-2h-10v2
						h-0.1C112.8,127,112,126.2,112,125.1z"/>
					<rect x="114" y="125" class="st35" width="10" height="2"/>
					<polygon class="st5" points="114,132 114,127 124,127 124,132 124,143.4 124,147 124,158.4 124,162 114,162 114,158.4 114,147 
						114,143.4 					"/>
					<polygon class="st33" points="124,143.4 124,132 131.5,132 					"/>
					<polygon class="st33" points="124,158.4 124,147 130.5,147 					"/>
				</g>
				<g>
					<line class="st21" x1="114" y1="132" x2="114" y2="127"/>
					<line class="st21" x1="114" y1="147" x2="114" y2="143.4"/>
					<line class="st21" x1="114" y1="162" x2="114" y2="158.4"/>
					<line class="st21" x1="124" y1="158.4" x2="124" y2="162"/>
					<line class="st21" x1="124" y1="143.4" x2="124" y2="147"/>
					<line class="st21" x1="124" y1="127" x2="124" y2="132"/>
					<path class="st21" d="M124,127h0.1c1,0,1.9-0.8,1.9-1.9v-0.3c0-1-0.8-1.9-1.9-1.9h-10.3c-1,0-1.9,0.8-1.9,1.9v0.3
						c0,1,0.8,1.9,1.9,1.9h0.1H124z"/>
					<polygon class="st21" points="124,162 127,162 119,172.5 111,162 114,162 					"/>
					<polygon class="st21" points="114,158.4 107.5,147 114,147 					"/>
					<polygon class="st21" points="114,143.4 106.5,132 114,132 					"/>
					<polygon class="st21" points="124,158.4 130.5,147 124,147 					"/>
					<polygon class="st21" points="124,143.4 131.5,132 124,132 					"/>
				</g>
			</g>
		</g>
		<g>
			<g id="XMLID_7_">
				<g>
					<path class="st6" d="M98.5,143.2v-37.6c0-4.8,1.5-9.2,4.1-12.8h50.8c2.6,3.6,4.1,8,4.1,12.8v37.6c0,4-3.3,7.3-7.3,7.3h-44.4
						C101.8,150.5,98.5,147.2,98.5,143.2z M103,104.5v33c0,1.2,0.5,2.4,1.3,3.2c0.8,0.8,1.9,1.3,3.2,1.3c2.5,0,4.5-2,4.5-4.5v-33
						c0-2.5-2-4.5-4.5-4.5S103,102,103,104.5z M116,104.5v33c0,1.2,0.5,2.4,1.3,3.2c0.8,0.8,1.9,1.3,3.2,1.3c2.5,0,4.5-2,4.5-4.5
						v-33c0-2.5-2-4.5-4.5-4.5S116,102,116,104.5z M134,133.5c0,2.3,0.9,4.5,2.5,6c1.5,1.5,3.7,2.5,6,2.5s4.5-0.9,6-2.5
						c1.5-1.5,2.5-3.7,2.5-6c0-4.7-3.8-8.5-8.5-8.5c-2.3,0-4.5,0.9-6,2.5C134.9,129,134,131.2,134,133.5z"/>
					<path class="st33" d="M153.4,92.8h-50.8c4-5.6,10.6-9.3,18-9.3h14.8C142.8,83.5,149.4,87.2,153.4,92.8z"/>
					<path class="st33" d="M103,137.5v-33c0-2.5,2-4.5,4.5-4.5s4.5,2,4.5,4.5v33c0,2.5-2,4.5-4.5,4.5c-1.2,0-2.4-0.5-3.2-1.3
						C103.5,139.9,103,138.7,103,137.5z"/>
					<path class="st6" d="M104,154v-3.5h1.8h44.4h0.8v3.5c0,3.6-2.9,6.5-6.5,6.5h-34C106.9,160.5,104,157.6,104,154z"/>
					<path class="st33" d="M116,137.5v-33c0-2.5,2-4.5,4.5-4.5s4.5,2,4.5,4.5v33c0,2.5-2,4.5-4.5,4.5c-1.2,0-2.4-0.5-3.2-1.3
						C116.5,139.9,116,138.7,116,137.5z"/>
					<path class="st33" d="M136.5,139.5c-1.5-1.5-2.5-3.7-2.5-6s0.9-4.5,2.5-6c1.5-1.5,3.7-2.5,6-2.5c4.7,0,8.5,3.8,8.5,8.5
						c0,2.3-0.9,4.5-2.5,6c-1.5,1.5-3.7,2.5-6,2.5S138,141.1,136.5,139.5z"/>
				</g>
				<g>
					<path class="st21" d="M105.8,150.5c-4,0-7.3-3.3-7.3-7.3v-37.6c0-4.8,1.5-9.2,4.1-12.8c4-5.6,10.6-9.3,18-9.3h14.8
						c7.4,0,14,3.7,18,9.3c2.6,3.6,4.1,8,4.1,12.8v37.6c0,4-3.3,7.3-7.3,7.3"/>
					<path class="st21" d="M150.2,150.5h0.8v3.5c0,3.6-2.9,6.5-6.5,6.5h-34c-3.6,0-6.5-2.9-6.5-6.5v-3.5h1.8H150.2z"/>
					<path class="st21" d="M142.5,125c4.7,0,8.5,3.8,8.5,8.5c0,2.3-0.9,4.5-2.5,6c-1.5,1.5-3.7,2.5-6,2.5s-4.5-0.9-6-2.5
						c-1.5-1.5-2.5-3.7-2.5-6s0.9-4.5,2.5-6C138,125.9,140.2,125,142.5,125z"/>
					<path class="st21" d="M107.5,100c2.5,0,4.5,2,4.5,4.5v33c0,2.5-2,4.5-4.5,4.5c-1.2,0-2.4-0.5-3.2-1.3c-0.8-0.8-1.3-1.9-1.3-3.2
						v-33C103,102,105,100,107.5,100z"/>
					<path class="st21" d="M120.5,100c2.5,0,4.5,2,4.5,4.5v33c0,2.5-2,4.5-4.5,4.5c-1.2,0-2.4-0.5-3.2-1.3c-0.8-0.8-1.3-1.9-1.3-3.2
						v-33C116,102,118,100,120.5,100z"/>
					<polyline class="st21" points="153.4,92.8 153.4,92.8 102.6,92.8 102.6,92.8 					"/>
				</g>
			</g>
		</g>
	</g>
</g>
</svg>
