<?xml version="1.0" encoding="utf-8"?>
<!-- Generator: Adobe Illustrator 25.3.0, SVG Export Plug-In . SVG Version: 6.00 Build 0)  -->
<svg version="1.1" xmlns="http://www.w3.org/2000/svg" xmlns:xlink="http://www.w3.org/1999/xlink" x="0px" y="0px"
	 viewBox="0 0 256 256" style="enable-background:new 0 0 256 256;" xml:space="preserve">
<style type="text/css">
	.st0{display:none;}
	.st1{display:inline;}
	.st2{fill:#212121;}
	.st3{fill:#363636;}
	.st4{fill:#1C1C1C;}
	.st5{fill:#404040;}
	.st6{fill:#8E8E8E;}
	.st7{fill:#91C9E8;}
	.st8{fill:#3399CC;}
	.st9{fill:#446E9E;}
	.st10{fill:#335377;}
	.st11{fill:#7B52AB;}
	.st12{fill:#36175E;}
	.st13{fill:#45BF55;}
	.st14{fill:#168039;}
	.st15{fill:#EE8900;}
	.st16{fill:#D95100;}
	.st17{fill:#FFBB00;}
	.st18{fill:#D19419;}
	.st19{fill:#BF1533;}
	.st20{fill:#9A0419;}
	.st21{fill:none;stroke:#000000;stroke-miterlimit:10;}
	.st22{display:inline;fill:none;stroke:#000000;stroke-miterlimit:10;}
	.st23{fill:none;stroke:#000000;stroke-linecap:round;stroke-linejoin:round;stroke-miterlimit:10;}
	.st24{fill:none;stroke:#000000;stroke-linecap:round;stroke-miterlimit:10;}
	.st25{fill:#FFFFFF;}
	.st26{fill:none;stroke:#000000;stroke-width:0.5;stroke-linecap:round;stroke-linejoin:round;}
	.st27{fill:#773533;}
	.st28{fill:#CC3344;}
	.st29{fill:#E89199;}
	.st30{fill:#33CC78;}
	.st31{fill:#91E8BA;}
	.st32{fill:#33775F;}
	.st33{fill:#8F33CC;}
	.st34{fill:#C791E8;}
	.st35{fill:#683377;}
</style>
<g id="BG" class="st0">
</g>
<g id="Refs">
</g>
<g id="Palette">
</g>
<g id="Layer_5">
</g>
<g id="Guide" class="st0">
</g>
<g id="BLUE">
	<g>
		<g id="XMLID_15_">
			<g>
				<path class="st6" d="M117.1,127.7c-9.7-4.2-16.5-13.9-16.5-25.1c0-15.1,12.3-27.4,27.4-27.4c15.1,0,27.4,12.2,27.4,27.4
					c0,11.2-6.8,20.9-16.5,25.1v-21.8c0.3-1.1,0.5-2.2,0.5-3.3c0-1.2-0.2-2.3-0.5-3.3v-3.3h-1.7c-2.1-2.9-5.4-4.7-9.2-4.7
					s-7.2,1.9-9.2,4.7h-1.7v3.3c-0.3,1.1-0.5,2.2-0.5,3.3c0,1.1,0.2,2.3,0.5,3.3V127.7z"/>
				<rect x="109.1" y="156.1" class="st8" width="8" height="2.9"/>
				<rect x="109.1" y="164.1" class="st8" width="8" height="2.9"/>
				<rect x="109.1" y="172.1" class="st8" width="8" height="2.9"/>
				<path class="st6" d="M117.1,105.9c-0.3-1.1-0.5-2.2-0.5-3.3c0-1.2,0.2-2.3,0.5-3.3V105.9z"/>
				<path class="st6" d="M117.1,99.2v-3.3h1.7C118,96.9,117.5,98,117.1,99.2z"/>
				<path class="st8" d="M117.1,105.9v-6.6c0.4-1.2,0.9-2.3,1.7-3.3h18.5c0.7,1,1.3,2.1,1.7,3.3v6.6c-1.4,4.7-5.8,8.1-10.9,8.1
					S118.5,110.5,117.1,105.9z"/>
				<path class="st6" d="M117.1,127.7v-21.8c1.4,4.7,5.8,8.1,10.9,8.1s9.5-3.4,10.9-8.1v21.8c-3.3,1.5-7,2.3-10.9,2.3
					C124.1,129.9,120.4,129.1,117.1,127.7z"/>
				<path class="st8" d="M117.1,156.1v-28.5c3.3,1.5,7,2.3,10.9,2.3v0.9c-0.8,0-1.5,0.6-1.5,1.4v28.3c0,0.8,0.7,1.4,1.5,1.4v2.8
					c-1.1,0-2.1,0.4-2.8,1.2c-0.3,0.3-0.5,0.6-0.7,1c-0.3,0.5-0.5,1.2-0.5,1.8v12h-6.9V175v-2.9V167v-2.9V159V156.1z"/>
				<path class="st8" d="M137.2,95.9h-18.5c2.1-2.9,5.4-4.7,9.2-4.7S135.2,93.1,137.2,95.9z"/>
				<path class="st7" d="M126.5,160.6v-28.3c0-0.8,0.7-1.4,1.5-1.4s1.4,0.6,1.4,1.4v28.3c0,0.8-0.6,1.4-1.4,1.4
					S126.5,161.4,126.5,160.6z"/>
				<path class="st8" d="M128,130.8v-0.9c3.9,0,7.6-0.8,10.9-2.3v6.5c-1.3-0.5-2.7-0.7-4.2-0.7h-1.6v10.7c0,3.5,2.5,6.5,5.8,7.2v4.7
					v2.9v5.1v2.9v5.1v2.9v5.8H132v-12c0-0.6-0.2-1.3-0.4-1.8c-0.7-1.3-2-2.2-3.6-2.2V162c0.8,0,1.4-0.6,1.4-1.4v-28.3
					C129.4,131.5,128.8,130.8,128,130.8z"/>
				<path class="st7" d="M133.1,144.2v-10.7h1.6c1.5,0,2.9,0.3,4.2,0.7v17.2C135.6,150.7,133.1,147.7,133.1,144.2z"/>
				<path class="st6" d="M137.2,95.9h1.7v3.3C138.5,98,138,96.9,137.2,95.9z"/>
				<path class="st6" d="M138.9,105.9v-6.6c0.3,1.1,0.5,2.2,0.5,3.3C139.4,103.7,139.2,104.8,138.9,105.9z"/>
				<path class="st7" d="M138.9,151.4v-17.2c4.7,1.7,8,6.2,8,11.4v6h-6.4C140,151.6,139.4,151.6,138.9,151.4z"/>
				<rect x="138.9" y="156.1" class="st8" width="8" height="2.9"/>
				<rect x="138.9" y="164.1" class="st8" width="8" height="2.9"/>
				<rect x="138.9" y="172.1" class="st8" width="8" height="2.9"/>
			</g>
			<g>
				<path class="st21" d="M138.9,151.4v4.7h8v2.9h-8v5.1h8v2.9h-8v5.1h8v2.9h-8v5.8H132v-12c0-0.6-0.2-1.3-0.4-1.8
					c-0.7-1.3-2-2.2-3.6-2.2c-1.1,0-2.1,0.4-2.8,1.2c-0.3,0.3-0.5,0.6-0.7,1c-0.3,0.5-0.5,1.2-0.5,1.8v12h-6.9V175h-8v-2.9h8V167h-8
					v-2.9h8V159h-8v-2.9h8v-28.5"/>
				<line class="st21" x1="138.9" y1="127.7" x2="138.9" y2="134.2"/>
				<path class="st21" d="M117.1,127.7c-9.7-4.2-16.5-13.9-16.5-25.1c0-15.1,12.3-27.4,27.4-27.4c15.1,0,27.4,12.2,27.4,27.4
					c0,11.2-6.8,20.9-16.5,25.1c-3.3,1.5-7,2.3-10.9,2.3C124.1,129.9,120.4,129.1,117.1,127.7z"/>
				<path class="st21" d="M138.9,151.4c-3.3-0.7-5.8-3.7-5.8-7.2v-10.7h1.6c1.5,0,2.9,0.3,4.2,0.7c4.7,1.7,8,6.2,8,11.4v6h-6.4
					C140,151.6,139.4,151.6,138.9,151.4z"/>
				<path class="st21" d="M117.1,105.9c-0.3-1.1-0.5-2.2-0.5-3.3c0-1.2,0.2-2.3,0.5-3.3c0.4-1.2,0.9-2.3,1.7-3.3
					c2.1-2.9,5.4-4.7,9.2-4.7s7.2,1.9,9.2,4.7c0.7,1,1.3,2.1,1.7,3.3c0.3,1.1,0.5,2.2,0.5,3.3c0,1.1-0.2,2.3-0.5,3.3
					c-1.4,4.7-5.8,8.1-10.9,8.1S118.5,110.5,117.1,105.9z"/>
				<path class="st21" d="M128,130.8c0.8,0,1.4,0.6,1.4,1.4v28.3c0,0.8-0.6,1.4-1.4,1.4s-1.5-0.6-1.5-1.4v-28.3
					C126.5,131.5,127.2,130.8,128,130.8z"/>
			</g>
		</g>
	</g>
</g>
<g id="RED">
	<g>
		<g id="XMLID_59_">
			<g>
				<path class="st6" d="M117.1,127.7c-9.7-4.2-16.5-13.9-16.5-25.1c0-15.1,12.3-27.4,27.4-27.4c15.1,0,27.4,12.2,27.4,27.4
					c0,11.2-6.8,20.9-16.5,25.1v-21.8c0.3-1.1,0.5-2.2,0.5-3.3c0-1.2-0.2-2.3-0.5-3.3v-3.3h-1.7c-2.1-2.9-5.4-4.7-9.2-4.7
					s-7.2,1.9-9.2,4.7h-1.7v3.3c-0.3,1.1-0.5,2.2-0.5,3.3c0,1.1,0.2,2.3,0.5,3.3V127.7z"/>
				<rect x="109.1" y="156.1" class="st28" width="8" height="2.9"/>
				<rect x="109.1" y="164.1" class="st28" width="8" height="2.9"/>
				<rect x="109.1" y="172.1" class="st28" width="8" height="2.9"/>
				<path class="st6" d="M117.1,105.9c-0.3-1.1-0.5-2.2-0.5-3.3c0-1.2,0.2-2.3,0.5-3.3V105.9z"/>
				<path class="st6" d="M117.1,99.2v-3.3h1.7C118,96.9,117.5,98,117.1,99.2z"/>
				<path class="st28" d="M117.1,105.9v-6.6c0.4-1.2,0.9-2.3,1.7-3.3h18.5c0.7,1,1.3,2.1,1.7,3.3v6.6c-1.4,4.7-5.8,8.1-10.9,8.1
					S118.5,110.5,117.1,105.9z"/>
				<path class="st6" d="M117.1,127.7v-21.8c1.4,4.7,5.8,8.1,10.9,8.1s9.5-3.4,10.9-8.1v21.8c-3.3,1.5-7,2.3-10.9,2.3
					C124.1,129.9,120.4,129.1,117.1,127.7z"/>
				<path class="st28" d="M117.1,156.1v-28.5c3.3,1.5,7,2.3,10.9,2.3v0.9c-0.8,0-1.5,0.6-1.5,1.4v28.3c0,0.8,0.7,1.4,1.5,1.4v2.8
					c-1.1,0-2.1,0.4-2.8,1.2c-0.3,0.3-0.5,0.6-0.7,1c-0.3,0.5-0.5,1.2-0.5,1.8v12h-6.9V175v-2.9V167v-2.9V159V156.1z"/>
				<path class="st28" d="M137.2,95.9h-18.5c2.1-2.9,5.4-4.7,9.2-4.7S135.2,93.1,137.2,95.9z"/>
				<path class="st29" d="M126.5,160.6v-28.3c0-0.8,0.7-1.4,1.5-1.4s1.4,0.6,1.4,1.4v28.3c0,0.8-0.6,1.4-1.4,1.4
					S126.5,161.4,126.5,160.6z"/>
				<path class="st28" d="M128,130.8v-0.9c3.9,0,7.6-0.8,10.9-2.3v6.5c-1.3-0.5-2.7-0.7-4.2-0.7h-1.6v10.7c0,3.5,2.5,6.5,5.8,7.2
					v4.7v2.9v5.1v2.9v5.1v2.9v5.8H132v-12c0-0.6-0.2-1.3-0.4-1.8c-0.7-1.3-2-2.2-3.6-2.2V162c0.8,0,1.4-0.6,1.4-1.4v-28.3
					C129.4,131.5,128.8,130.8,128,130.8z"/>
				<path class="st29" d="M133.1,144.2v-10.7h1.6c1.5,0,2.9,0.3,4.2,0.7v17.2C135.6,150.7,133.1,147.7,133.1,144.2z"/>
				<path class="st6" d="M137.2,95.9h1.7v3.3C138.5,98,138,96.9,137.2,95.9z"/>
				<path class="st6" d="M138.9,105.9v-6.6c0.3,1.1,0.5,2.2,0.5,3.3C139.4,103.7,139.2,104.8,138.9,105.9z"/>
				<path class="st29" d="M138.9,151.4v-17.2c4.7,1.7,8,6.2,8,11.4v6h-6.4C140,151.6,139.4,151.6,138.9,151.4z"/>
				<rect x="138.9" y="156.1" class="st28" width="8" height="2.9"/>
				<rect x="138.9" y="164.1" class="st28" width="8" height="2.9"/>
				<rect x="138.9" y="172.1" class="st28" width="8" height="2.9"/>
			</g>
			<g>
				<path class="st21" d="M138.9,151.4v4.7h8v2.9h-8v5.1h8v2.9h-8v5.1h8v2.9h-8v5.8H132v-12c0-0.6-0.2-1.3-0.4-1.8
					c-0.7-1.3-2-2.2-3.6-2.2c-1.1,0-2.1,0.4-2.8,1.2c-0.3,0.3-0.5,0.6-0.7,1c-0.3,0.5-0.5,1.2-0.5,1.8v12h-6.9V175h-8v-2.9h8V167h-8
					v-2.9h8V159h-8v-2.9h8v-28.5"/>
				<line class="st21" x1="138.9" y1="127.7" x2="138.9" y2="134.2"/>
				<path class="st21" d="M117.1,127.7c-9.7-4.2-16.5-13.9-16.5-25.1c0-15.1,12.3-27.4,27.4-27.4c15.1,0,27.4,12.2,27.4,27.4
					c0,11.2-6.8,20.9-16.5,25.1c-3.3,1.5-7,2.3-10.9,2.3C124.1,129.9,120.4,129.1,117.1,127.7z"/>
				<path class="st21" d="M138.9,151.4c-3.3-0.7-5.8-3.7-5.8-7.2v-10.7h1.6c1.5,0,2.9,0.3,4.2,0.7c4.7,1.7,8,6.2,8,11.4v6h-6.4
					C140,151.6,139.4,151.6,138.9,151.4z"/>
				<path class="st21" d="M117.1,105.9c-0.3-1.1-0.5-2.2-0.5-3.3c0-1.2,0.2-2.3,0.5-3.3c0.4-1.2,0.9-2.3,1.7-3.3
					c2.1-2.9,5.4-4.7,9.2-4.7s7.2,1.9,9.2,4.7c0.7,1,1.3,2.1,1.7,3.3c0.3,1.1,0.5,2.2,0.5,3.3c0,1.1-0.2,2.3-0.5,3.3
					c-1.4,4.7-5.8,8.1-10.9,8.1S118.5,110.5,117.1,105.9z"/>
				<path class="st21" d="M128,130.8c0.8,0,1.4,0.6,1.4,1.4v28.3c0,0.8-0.6,1.4-1.4,1.4s-1.5-0.6-1.5-1.4v-28.3
					C126.5,131.5,127.2,130.8,128,130.8z"/>
			</g>
		</g>
	</g>
</g>
<g id="GREEN">
	<g>
		<g id="XMLID_35_">
			<g>
				<path class="st6" d="M117.1,127.7c-9.7-4.2-16.5-13.9-16.5-25.1c0-15.1,12.3-27.4,27.4-27.4c15.1,0,27.4,12.2,27.4,27.4
					c0,11.2-6.8,20.9-16.5,25.1v-21.8c0.3-1.1,0.5-2.2,0.5-3.3c0-1.2-0.2-2.3-0.5-3.3v-3.3h-1.7c-2.1-2.9-5.4-4.7-9.2-4.7
					s-7.2,1.9-9.2,4.7h-1.7v3.3c-0.3,1.1-0.5,2.2-0.5,3.3c0,1.1,0.2,2.3,0.5,3.3V127.7z"/>
				<rect x="109.1" y="156.1" class="st30" width="8" height="2.9"/>
				<rect x="109.1" y="164.1" class="st30" width="8" height="2.9"/>
				<rect x="109.1" y="172.1" class="st30" width="8" height="2.9"/>
				<path class="st6" d="M117.1,105.9c-0.3-1.1-0.5-2.2-0.5-3.3c0-1.2,0.2-2.3,0.5-3.3V105.9z"/>
				<path class="st6" d="M117.1,99.2v-3.3h1.7C118,96.9,117.5,98,117.1,99.2z"/>
				<path class="st30" d="M117.1,105.9v-6.6c0.4-1.2,0.9-2.3,1.7-3.3h18.5c0.7,1,1.3,2.1,1.7,3.3v6.6c-1.4,4.7-5.8,8.1-10.9,8.1
					S118.5,110.5,117.1,105.9z"/>
				<path class="st6" d="M117.1,127.7v-21.8c1.4,4.7,5.8,8.1,10.9,8.1s9.5-3.4,10.9-8.1v21.8c-3.3,1.5-7,2.3-10.9,2.3
					C124.1,129.9,120.4,129.1,117.1,127.7z"/>
				<path class="st30" d="M117.1,156.1v-28.5c3.3,1.5,7,2.3,10.9,2.3v0.9c-0.8,0-1.5,0.6-1.5,1.4v28.3c0,0.8,0.7,1.4,1.5,1.4v2.8
					c-1.1,0-2.1,0.4-2.8,1.2c-0.3,0.3-0.5,0.6-0.7,1c-0.3,0.5-0.5,1.2-0.5,1.8v12h-6.9V175v-2.9V167v-2.9V159V156.1z"/>
				<path class="st30" d="M137.2,95.9h-18.5c2.1-2.9,5.4-4.7,9.2-4.7S135.2,93.1,137.2,95.9z"/>
				<path class="st31" d="M126.5,160.6v-28.3c0-0.8,0.7-1.4,1.5-1.4s1.4,0.6,1.4,1.4v28.3c0,0.8-0.6,1.4-1.4,1.4
					S126.5,161.4,126.5,160.6z"/>
				<path class="st30" d="M128,130.8v-0.9c3.9,0,7.6-0.8,10.9-2.3v6.5c-1.3-0.5-2.7-0.7-4.2-0.7h-1.6v10.7c0,3.5,2.5,6.5,5.8,7.2
					v4.7v2.9v5.1v2.9v5.1v2.9v5.8H132v-12c0-0.6-0.2-1.3-0.4-1.8c-0.7-1.3-2-2.2-3.6-2.2V162c0.8,0,1.4-0.6,1.4-1.4v-28.3
					C129.4,131.5,128.8,130.8,128,130.8z"/>
				<path class="st31" d="M133.1,144.2v-10.7h1.6c1.5,0,2.9,0.3,4.2,0.7v17.2C135.6,150.7,133.1,147.7,133.1,144.2z"/>
				<path class="st6" d="M137.2,95.9h1.7v3.3C138.5,98,138,96.9,137.2,95.9z"/>
				<path class="st6" d="M138.9,105.9v-6.6c0.3,1.1,0.5,2.2,0.5,3.3C139.4,103.7,139.2,104.8,138.9,105.9z"/>
				<path class="st31" d="M138.9,151.4v-17.2c4.7,1.7,8,6.2,8,11.4v6h-6.4C140,151.6,139.4,151.6,138.9,151.4z"/>
				<rect x="138.9" y="156.1" class="st30" width="8" height="2.9"/>
				<rect x="138.9" y="164.1" class="st30" width="8" height="2.9"/>
				<rect x="138.9" y="172.1" class="st30" width="8" height="2.9"/>
			</g>
			<g>
				<path class="st21" d="M138.9,151.4v4.7h8v2.9h-8v5.1h8v2.9h-8v5.1h8v2.9h-8v5.8H132v-12c0-0.6-0.2-1.3-0.4-1.8
					c-0.7-1.3-2-2.2-3.6-2.2c-1.1,0-2.1,0.4-2.8,1.2c-0.3,0.3-0.5,0.6-0.7,1c-0.3,0.5-0.5,1.2-0.5,1.8v12h-6.9V175h-8v-2.9h8V167h-8
					v-2.9h8V159h-8v-2.9h8v-28.5"/>
				<line class="st21" x1="138.9" y1="127.7" x2="138.9" y2="134.2"/>
				<path class="st21" d="M117.1,127.7c-9.7-4.2-16.5-13.9-16.5-25.1c0-15.1,12.3-27.4,27.4-27.4c15.1,0,27.4,12.2,27.4,27.4
					c0,11.2-6.8,20.9-16.5,25.1c-3.3,1.5-7,2.3-10.9,2.3C124.1,129.9,120.4,129.1,117.1,127.7z"/>
				<path class="st21" d="M138.9,151.4c-3.3-0.7-5.8-3.7-5.8-7.2v-10.7h1.6c1.5,0,2.9,0.3,4.2,0.7c4.7,1.7,8,6.2,8,11.4v6h-6.4
					C140,151.6,139.4,151.6,138.9,151.4z"/>
				<path class="st21" d="M117.1,105.9c-0.3-1.1-0.5-2.2-0.5-3.3c0-1.2,0.2-2.3,0.5-3.3c0.4-1.2,0.9-2.3,1.7-3.3
					c2.1-2.9,5.4-4.7,9.2-4.7s7.2,1.9,9.2,4.7c0.7,1,1.3,2.1,1.7,3.3c0.3,1.1,0.5,2.2,0.5,3.3c0,1.1-0.2,2.3-0.5,3.3
					c-1.4,4.7-5.8,8.1-10.9,8.1S118.5,110.5,117.1,105.9z"/>
				<path class="st21" d="M128,130.8c0.8,0,1.4,0.6,1.4,1.4v28.3c0,0.8-0.6,1.4-1.4,1.4s-1.5-0.6-1.5-1.4v-28.3
					C126.5,131.5,127.2,130.8,128,130.8z"/>
			</g>
		</g>
	</g>
</g>
<g id="PURPLE">
	<g>
		<g id="XMLID_57_">
			<g>
				<path class="st6" d="M117.1,127.7c-9.7-4.2-16.5-13.9-16.5-25.1c0-15.1,12.3-27.4,27.4-27.4c15.1,0,27.4,12.2,27.4,27.4
					c0,11.2-6.8,20.9-16.5,25.1v-21.8c0.3-1.1,0.5-2.2,0.5-3.3c0-1.2-0.2-2.3-0.5-3.3v-3.3h-1.7c-2.1-2.9-5.4-4.7-9.2-4.7
					s-7.2,1.9-9.2,4.7h-1.7v3.3c-0.3,1.1-0.5,2.2-0.5,3.3c0,1.1,0.2,2.3,0.5,3.3V127.7z"/>
				<rect x="109.1" y="156.1" class="st33" width="8" height="2.9"/>
				<rect x="109.1" y="164.1" class="st33" width="8" height="2.9"/>
				<rect x="109.1" y="172.1" class="st33" width="8" height="2.9"/>
				<path class="st6" d="M117.1,105.9c-0.3-1.1-0.5-2.2-0.5-3.3c0-1.2,0.2-2.3,0.5-3.3V105.9z"/>
				<path class="st6" d="M117.1,99.2v-3.3h1.7C118,96.9,117.5,98,117.1,99.2z"/>
				<path class="st33" d="M117.1,105.9v-6.6c0.4-1.2,0.9-2.3,1.7-3.3h18.5c0.7,1,1.3,2.1,1.7,3.3v6.6c-1.4,4.7-5.8,8.1-10.9,8.1
					S118.5,110.5,117.1,105.9z"/>
				<path class="st6" d="M117.1,127.7v-21.8c1.4,4.7,5.8,8.1,10.9,8.1s9.5-3.4,10.9-8.1v21.8c-3.3,1.5-7,2.3-10.9,2.3
					C124.1,129.9,120.4,129.1,117.1,127.7z"/>
				<path class="st33" d="M117.1,156.1v-28.5c3.3,1.5,7,2.3,10.9,2.3v0.9c-0.8,0-1.5,0.6-1.5,1.4v28.3c0,0.8,0.7,1.4,1.5,1.4v2.8
					c-1.1,0-2.1,0.4-2.8,1.2c-0.3,0.3-0.5,0.6-0.7,1c-0.3,0.5-0.5,1.2-0.5,1.8v12h-6.9V175v-2.9V167v-2.9V159V156.1z"/>
				<path class="st33" d="M137.2,95.9h-18.5c2.1-2.9,5.4-4.7,9.2-4.7S135.2,93.1,137.2,95.9z"/>
				<path class="st34" d="M126.5,160.6v-28.3c0-0.8,0.7-1.4,1.5-1.4s1.4,0.6,1.4,1.4v28.3c0,0.8-0.6,1.4-1.4,1.4
					S126.5,161.4,126.5,160.6z"/>
				<path class="st33" d="M128,130.8v-0.9c3.9,0,7.6-0.8,10.9-2.3v6.5c-1.3-0.5-2.7-0.7-4.2-0.7h-1.6v10.7c0,3.5,2.5,6.5,5.8,7.2
					v4.7v2.9v5.1v2.9v5.1v2.9v5.8H132v-12c0-0.6-0.2-1.3-0.4-1.8c-0.7-1.3-2-2.2-3.6-2.2V162c0.8,0,1.4-0.6,1.4-1.4v-28.3
					C129.4,131.5,128.8,130.8,128,130.8z"/>
				<path class="st34" d="M133.1,144.2v-10.7h1.6c1.5,0,2.9,0.3,4.2,0.7v17.2C135.6,150.7,133.1,147.7,133.1,144.2z"/>
				<path class="st6" d="M137.2,95.9h1.7v3.3C138.5,98,138,96.9,137.2,95.9z"/>
				<path class="st6" d="M138.9,105.9v-6.6c0.3,1.1,0.5,2.2,0.5,3.3C139.4,103.7,139.2,104.8,138.9,105.9z"/>
				<path class="st34" d="M138.9,151.4v-17.2c4.7,1.7,8,6.2,8,11.4v6h-6.4C140,151.6,139.4,151.6,138.9,151.4z"/>
				<rect x="138.9" y="156.1" class="st33" width="8" height="2.9"/>
				<rect x="138.9" y="164.1" class="st33" width="8" height="2.9"/>
				<rect x="138.9" y="172.1" class="st33" width="8" height="2.9"/>
			</g>
			<g>
				<path class="st21" d="M138.9,151.4v4.7h8v2.9h-8v5.1h8v2.9h-8v5.1h8v2.9h-8v5.8H132v-12c0-0.6-0.2-1.3-0.4-1.8
					c-0.7-1.3-2-2.2-3.6-2.2c-1.1,0-2.1,0.4-2.8,1.2c-0.3,0.3-0.5,0.6-0.7,1c-0.3,0.5-0.5,1.2-0.5,1.8v12h-6.9V175h-8v-2.9h8V167h-8
					v-2.9h8V159h-8v-2.9h8v-28.5"/>
				<line class="st21" x1="138.9" y1="127.7" x2="138.9" y2="134.2"/>
				<path class="st21" d="M117.1,127.7c-9.7-4.2-16.5-13.9-16.5-25.1c0-15.1,12.3-27.4,27.4-27.4c15.1,0,27.4,12.2,27.4,27.4
					c0,11.2-6.8,20.9-16.5,25.1c-3.3,1.5-7,2.3-10.9,2.3C124.1,129.9,120.4,129.1,117.1,127.7z"/>
				<path class="st21" d="M138.9,151.4c-3.3-0.7-5.8-3.7-5.8-7.2v-10.7h1.6c1.5,0,2.9,0.3,4.2,0.7c4.7,1.7,8,6.2,8,11.4v6h-6.4
					C140,151.6,139.4,151.6,138.9,151.4z"/>
				<path class="st21" d="M117.1,105.9c-0.3-1.1-0.5-2.2-0.5-3.3c0-1.2,0.2-2.3,0.5-3.3c0.4-1.2,0.9-2.3,1.7-3.3
					c2.1-2.9,5.4-4.7,9.2-4.7s7.2,1.9,9.2,4.7c0.7,1,1.3,2.1,1.7,3.3c0.3,1.1,0.5,2.2,0.5,3.3c0,1.1-0.2,2.3-0.5,3.3
					c-1.4,4.7-5.8,8.1-10.9,8.1S118.5,110.5,117.1,105.9z"/>
				<path class="st21" d="M128,130.8c0.8,0,1.4,0.6,1.4,1.4v28.3c0,0.8-0.6,1.4-1.4,1.4s-1.5-0.6-1.5-1.4v-28.3
					C126.5,131.5,127.2,130.8,128,130.8z"/>
			</g>
		</g>
	</g>
</g>
</svg>
