<svg xmlns="http://www.w3.org/2000/svg" viewBox="0 0 512 512"><defs><style>.cls-1{fill:#0ef9fd;}.cls-2{fill:#ccc;}.cls-3{fill:#999;}.cls-4{fill:#f1552d;}.cls-5{fill:#f44f2f;}.cls-6{fill:#6e706d;}.cls-7{fill:none;stroke:#000;stroke-miterlimit:10;stroke-width:6px;}</style></defs><g id="SS"><g id="S7"><polygon class="cls-1" points="472.47 185.7 458.73 275.95 432.5 272.29 444.9 188.91 472.47 185.7"/><polygon class="cls-2" points="458.73 275.95 456.96 287.61 418.5 282.24 432.16 190.4 444.9 188.91 432.5 272.29 458.73 275.95"/><polygon class="cls-2" points="456.96 287.61 452.15 319.25 397.16 319.25 418.5 282.24 456.96 287.61"/><polygon class="cls-3" points="432.16 190.4 418.5 282.24 397.16 319.25 344.47 319.25 349.46 288.27 383.66 277.88 383.66 256 383.66 234.13 349.46 223.73 344.21 191.15 344.22 191.15 391.17 195.18 432.16 190.4"/><path class="cls-2" d="M383.66,256v21.88l-34.2,10.39H298.38a117.65,117.65,0,0,0-68.38,0H178.91l-34.19-10.39V256H383.66Z"/><path class="cls-2" d="M383.66,234.13V256H144.72V234.13l34.19-10.4H230a117.59,117.59,0,0,0,68.38,0h51.08Z"/><polygon class="cls-2" points="344.21 191.15 349.46 223.73 340.31 223.73 330.1 152.54 317.75 152.54 307.53 223.73 298.38 223.73 304.18 187.72 311.11 144.74 336.73 144.74 344.21 191.15"/><polygon class="cls-2" points="349.46 288.27 344.47 319.25 336.73 367.26 311.11 367.26 303.37 319.25 298.38 288.27 307.53 288.27 317.75 359.47 330.1 359.47 340.31 288.27 349.46 288.27"/><polygon class="cls-4" points="330.1 152.54 340.31 223.73 307.53 223.73 317.75 152.54 330.1 152.54"/><polygon class="cls-4" points="340.31 288.27 330.1 359.47 317.75 359.47 307.53 288.27 340.31 288.27"/><path class="cls-3" d="M304.18,187.72l-5.8,36a117.59,117.59,0,0,1-68.38,0l-6.92-43Z"/><path class="cls-3" d="M298.38,288.27l5,31H225l5-31A117.65,117.65,0,0,1,298.38,288.27Z"/><polygon class="cls-2" points="223.08 180.77 230 223.73 220.85 223.73 210.63 152.54 198.28 152.54 188.06 223.73 178.91 223.73 186.34 177.62 191.64 144.74 217.27 144.74 223.08 180.77"/><polygon class="cls-2" points="225.01 319.25 217.27 367.26 191.64 367.26 183.73 318.15 178.91 288.27 188.06 288.27 198.28 359.47 210.63 359.47 220.85 288.27 230 288.27 225.01 319.25"/><polygon class="cls-4" points="210.63 152.54 220.85 223.73 188.06 223.73 198.28 152.54 210.63 152.54"/><polygon class="cls-4" points="220.85 288.27 210.63 359.47 198.28 359.47 188.06 288.27 220.85 288.27"/><path class="cls-3" d="M186.34,177.62l-7.43,46.11-34.19,10.4v43.75l34.19,10.39,4.82,29.88-7.87-.48c-9.69-.59-19.36-1.65-28.94-3.16q-9.15-1.44-18.2-3.43V174.21a229.37,229.37,0,0,1,26.47.74Z"/><path class="cls-2" d="M128.72,174.21V311.08q-5.18-1.14-10.31-2.46c-.86-.22-1.72-.46-2.57-.72V175Q122.28,174.41,128.72,174.21Z"/><path class="cls-3" d="M115.84,274V307.9a70.17,70.17,0,0,1-21.65-10.78c-1.13-.84-2.24-1.7-3.31-2.61a70.1,70.1,0,0,1-24-40.58Z"/><path class="cls-5" d="M115.84,208.9V274l-49-20a69.62,69.62,0,0,1-1.3-13.42v-11Z"/><path class="cls-3" d="M115.84,175V208.9L65.58,229.47v-23a28.15,28.15,0,0,1,19.84-26.88,27,27,0,0,1,4-.92l20-3.06Q112.66,175.24,115.84,175Z"/><path class="cls-6" d="M79.11,282a70.1,70.1,0,0,0,11.77,12.53H54.68V207.23h10.9v33.28A70.49,70.49,0,0,0,79.11,282Z"/><path class="cls-6" d="M54.68,207.23v87.29a15.15,15.15,0,0,1-15.15-15.15v-57a15.16,15.16,0,0,1,15.15-15.15Z"/><path class="cls-7" d="M183.73,318.15l-7.87-.48c-9.69-.59-19.36-1.65-28.94-3.16q-9.15-1.44-18.2-3.43-5.18-1.14-10.31-2.46c-.86-.22-1.72-.46-2.57-.72a70.17,70.17,0,0,1-21.65-10.78c-1.13-.84-2.24-1.7-3.31-2.61a70.37,70.37,0,0,1-25.3-54v-34a28.15,28.15,0,0,1,19.84-26.88,27,27,0,0,1,4-.92l20-3.06q3.18-.36,6.36-.64,6.43-.56,12.88-.75a229.37,229.37,0,0,1,26.47.74l31.15,2.67"/><polyline class="cls-7" points="344.47 319.25 397.16 319.25 452.15 319.25 456.96 287.61 458.73 275.95 472.47 185.7 444.9 188.91 432.16 190.4 391.17 195.18 344.22 191.15"/><polyline class="cls-7" points="304.18 187.72 223.08 180.77 223.07 180.77"/><polyline class="cls-7" points="303.37 319.25 225.01 319.25 225 319.25"/><line class="cls-7" x1="54.68" y1="294.52" x2="90.87" y2="294.52"/><line class="cls-7" x1="65.58" y1="207.23" x2="54.68" y2="207.23"/><path class="cls-7" d="M54.68,294.52V207.23a15.16,15.16,0,0,0-15.15,15.15v57A15.15,15.15,0,0,0,54.68,294.52Z"/><polyline class="cls-7" points="178.91 223.73 186.34 177.62 191.64 144.74 217.27 144.74 223.08 180.77 230 223.73"/><polyline class="cls-7" points="188.06 223.73 198.28 152.54 210.63 152.54 220.85 223.73"/><polyline class="cls-7" points="188.06 288.27 198.28 359.47 210.63 359.47 220.85 288.27"/><polyline class="cls-7" points="307.53 223.73 317.75 152.54 330.1 152.54 340.31 223.73"/><polyline class="cls-7" points="307.53 288.27 317.75 359.47 330.1 359.47 340.31 288.27"/><polygon class="cls-7" points="230 288.27 225.01 319.25 217.27 367.26 191.64 367.26 183.73 318.15 178.91 288.27 188.06 288.27 220.85 288.27 230 288.27"/><path class="cls-7" d="M298.38,288.27a117.65,117.65,0,0,0-68.38,0"/><path class="cls-7" d="M298.38,223.73a117.59,117.59,0,0,1-68.38,0H178.91l-34.19,10.4v43.75l34.19,10.39"/><polyline class="cls-7" points="349.46 288.27 383.66 277.88 383.66 256 383.66 234.13 349.46 223.73"/><polygon class="cls-7" points="298.38 223.73 304.18 187.72 311.11 144.74 336.73 144.74 344.21 191.15 349.46 223.73 340.31 223.73 307.53 223.73 298.38 223.73"/><polygon class="cls-7" points="349.46 288.27 344.47 319.25 336.73 367.26 311.11 367.26 303.37 319.25 298.38 288.27 307.53 288.27 340.31 288.27 349.46 288.27"/><polyline class="cls-7" points="456.96 287.61 418.5 282.24 432.16 190.4"/><polyline class="cls-7" points="458.73 275.95 432.5 272.29 444.9 188.91"/><line class="cls-7" x1="79.11" y1="281.98" x2="79.05" y2="281.98"/><line class="cls-7" x1="418.5" y1="282.24" x2="397.16" y2="319.25"/><polyline class="cls-7" points="128.72 174.21 128.72 311.08 128.72 311.71"/><polyline class="cls-7" points="115.84 307.9 115.84 273.97 115.84 208.9 115.84 174.96"/><polyline class="cls-7" points="144.72 256 263.63 256 383.66 256"/><line class="cls-7" x1="115.84" y1="208.9" x2="65.58" y2="229.47"/><polyline class="cls-7" points="115.84 273.97 66.88 253.93 65.58 253.4"/></g></g></svg>