<?xml version="1.0" encoding="utf-8"?>
<!-- Generator: Adobe Illustrator 25.3.0, SVG Export Plug-In . SVG Version: 6.00 Build 0)  -->
<svg version="1.1" xmlns="http://www.w3.org/2000/svg" xmlns:xlink="http://www.w3.org/1999/xlink" x="0px" y="0px"
	 viewBox="0 0 256 256" style="enable-background:new 0 0 256 256;" xml:space="preserve">
<style type="text/css">
	.st0{display:none;}
	.st1{display:inline;}
	.st2{fill:#212121;}
	.st3{fill:#363636;}
	.st4{fill:#1C1C1C;}
	.st5{fill:#404040;}
	.st6{fill:#8E8E8E;}
	.st7{fill:#91C9E8;}
	.st8{fill:#3399CC;}
	.st9{fill:#446E9E;}
	.st10{fill:#335377;}
	.st11{fill:#7B52AB;}
	.st12{fill:#36175E;}
	.st13{fill:#45BF55;}
	.st14{fill:#168039;}
	.st15{fill:#EE8900;}
	.st16{fill:#D95100;}
	.st17{fill:#FFBB00;}
	.st18{fill:#D19419;}
	.st19{fill:#BF1533;}
	.st20{fill:#9A0419;}
	.st21{fill:none;stroke:#000000;stroke-miterlimit:10;}
	.st22{display:inline;fill:none;stroke:#000000;stroke-miterlimit:10;}
	.st23{fill:none;stroke:#000000;stroke-linecap:round;stroke-linejoin:round;stroke-miterlimit:10;}
	.st24{fill:none;stroke:#000000;stroke-linecap:round;stroke-miterlimit:10;}
	.st25{fill:#FFFFFF;}
	.st26{fill:none;stroke:#000000;stroke-width:0.5;stroke-linecap:round;stroke-linejoin:round;}
	.st27{fill:#773533;}
	.st28{fill:#CC3344;}
	.st29{fill:#E89199;}
	.st30{fill:#33CC78;}
	.st31{fill:#91E8BA;}
	.st32{fill:#33775F;}
	.st33{fill:#8F33CC;}
	.st34{fill:#C791E8;}
	.st35{fill:#683377;}
</style>
<g id="BG" class="st0">
</g>
<g id="Refs">
</g>
<g id="Palette">
</g>
<g id="Layer_5">
</g>
<g id="Guide" class="st0">
</g>
<g id="BLUE">
	<g>
		<g id="XMLID_11_">
			<g>
				<polygon class="st8" points="123,123.6 115.5,112.3 123,112.3 				"/>
				<polygon class="st8" points="123,138.6 116.5,127.3 123,127.3 				"/>
				<polygon class="st8" points="128,152.8 120,142.3 123,142.3 133,142.3 136,142.3 				"/>
				<path class="st10" d="M121,105.4v-0.3c0-1,0.8-1.9,1.9-1.9h10.3c1,0,1.9,0.8,1.9,1.9v0.3c0,1-0.8,1.9-1.9,1.9H133v-2h-10v2h-0.1
					C121.8,107.3,121,106.4,121,105.4z"/>
				<rect x="123" y="105.3" class="st10" width="10" height="2"/>
				<polygon class="st5" points="123,112.3 123,107.3 133,107.3 133,112.3 133,123.6 133,127.3 133,138.6 133,142.3 123,142.3 
					123,138.6 123,127.3 123,123.6 				"/>
				<polygon class="st8" points="133,123.6 133,112.3 140.5,112.3 				"/>
				<polygon class="st8" points="133,138.6 133,127.3 139.5,127.3 				"/>
			</g>
			<g>
				<line class="st21" x1="123" y1="112.3" x2="123" y2="107.3"/>
				<line class="st21" x1="123" y1="127.3" x2="123" y2="123.6"/>
				<line class="st21" x1="123" y1="142.3" x2="123" y2="138.6"/>
				<line class="st21" x1="133" y1="138.6" x2="133" y2="142.3"/>
				<line class="st21" x1="133" y1="123.6" x2="133" y2="127.3"/>
				<line class="st21" x1="133" y1="107.3" x2="133" y2="112.3"/>
				<path class="st21" d="M133,107.3h0.1c1,0,1.9-0.8,1.9-1.9v-0.3c0-1-0.8-1.9-1.9-1.9h-10.3c-1,0-1.9,0.8-1.9,1.9v0.3
					c0,1,0.8,1.9,1.9,1.9h0.1H133z"/>
				<polygon class="st21" points="133,142.3 136,142.3 128,152.8 120,142.3 123,142.3 				"/>
				<polygon class="st21" points="123,138.6 116.5,127.3 123,127.3 				"/>
				<polygon class="st21" points="123,123.6 115.5,112.3 123,112.3 				"/>
				<polygon class="st21" points="133,138.6 139.5,127.3 133,127.3 				"/>
				<polygon class="st21" points="133,123.6 140.5,112.3 133,112.3 				"/>
			</g>
		</g>
	</g>
</g>
<g id="RED">
	<g>
		<g id="XMLID_49_">
			<g>
				<polygon class="st28" points="123,123.6 115.5,112.3 123,112.3 				"/>
				<polygon class="st28" points="123,138.6 116.5,127.3 123,127.3 				"/>
				<polygon class="st28" points="128,152.8 120,142.3 123,142.3 133,142.3 136,142.3 				"/>
				<path class="st27" d="M121,105.4v-0.3c0-1,0.8-1.9,1.9-1.9h10.3c1,0,1.9,0.8,1.9,1.9v0.3c0,1-0.8,1.9-1.9,1.9H133v-2h-10v2h-0.1
					C121.8,107.3,121,106.4,121,105.4z"/>
				<rect x="123" y="105.3" class="st27" width="10" height="2"/>
				<polygon class="st5" points="123,112.3 123,107.3 133,107.3 133,112.3 133,123.6 133,127.3 133,138.6 133,142.3 123,142.3 
					123,138.6 123,127.3 123,123.6 				"/>
				<polygon class="st28" points="133,123.6 133,112.3 140.5,112.3 				"/>
				<polygon class="st28" points="133,138.6 133,127.3 139.5,127.3 				"/>
			</g>
			<g>
				<line class="st21" x1="123" y1="112.3" x2="123" y2="107.3"/>
				<line class="st21" x1="123" y1="127.3" x2="123" y2="123.6"/>
				<line class="st21" x1="123" y1="142.3" x2="123" y2="138.6"/>
				<line class="st21" x1="133" y1="138.6" x2="133" y2="142.3"/>
				<line class="st21" x1="133" y1="123.6" x2="133" y2="127.3"/>
				<line class="st21" x1="133" y1="107.3" x2="133" y2="112.3"/>
				<path class="st21" d="M133,107.3h0.1c1,0,1.9-0.8,1.9-1.9v-0.3c0-1-0.8-1.9-1.9-1.9h-10.3c-1,0-1.9,0.8-1.9,1.9v0.3
					c0,1,0.8,1.9,1.9,1.9h0.1H133z"/>
				<polygon class="st21" points="133,142.3 136,142.3 128,152.8 120,142.3 123,142.3 				"/>
				<polygon class="st21" points="123,138.6 116.5,127.3 123,127.3 				"/>
				<polygon class="st21" points="123,123.6 115.5,112.3 123,112.3 				"/>
				<polygon class="st21" points="133,138.6 139.5,127.3 133,127.3 				"/>
				<polygon class="st21" points="133,123.6 140.5,112.3 133,112.3 				"/>
			</g>
		</g>
	</g>
</g>
<g id="GREEN">
	<g>
		<g id="XMLID_31_">
			<g>
				<polygon class="st30" points="123,123.6 115.5,112.3 123,112.3 				"/>
				<polygon class="st30" points="123,138.6 116.5,127.3 123,127.3 				"/>
				<polygon class="st30" points="128,152.8 120,142.3 123,142.3 133,142.3 136,142.3 				"/>
				<path class="st32" d="M121,105.4v-0.3c0-1,0.8-1.9,1.9-1.9h10.3c1,0,1.9,0.8,1.9,1.9v0.3c0,1-0.8,1.9-1.9,1.9H133v-2h-10v2h-0.1
					C121.8,107.3,121,106.4,121,105.4z"/>
				<rect x="123" y="105.3" class="st32" width="10" height="2"/>
				<polygon class="st5" points="123,112.3 123,107.3 133,107.3 133,112.3 133,123.6 133,127.3 133,138.6 133,142.3 123,142.3 
					123,138.6 123,127.3 123,123.6 				"/>
				<polygon class="st30" points="133,123.6 133,112.3 140.5,112.3 				"/>
				<polygon class="st30" points="133,138.6 133,127.3 139.5,127.3 				"/>
			</g>
			<g>
				<line class="st21" x1="123" y1="112.3" x2="123" y2="107.3"/>
				<line class="st21" x1="123" y1="127.3" x2="123" y2="123.6"/>
				<line class="st21" x1="123" y1="142.3" x2="123" y2="138.6"/>
				<line class="st21" x1="133" y1="138.6" x2="133" y2="142.3"/>
				<line class="st21" x1="133" y1="123.6" x2="133" y2="127.3"/>
				<line class="st21" x1="133" y1="107.3" x2="133" y2="112.3"/>
				<path class="st21" d="M133,107.3h0.1c1,0,1.9-0.8,1.9-1.9v-0.3c0-1-0.8-1.9-1.9-1.9h-10.3c-1,0-1.9,0.8-1.9,1.9v0.3
					c0,1,0.8,1.9,1.9,1.9h0.1H133z"/>
				<polygon class="st21" points="133,142.3 136,142.3 128,152.8 120,142.3 123,142.3 				"/>
				<polygon class="st21" points="123,138.6 116.5,127.3 123,127.3 				"/>
				<polygon class="st21" points="123,123.6 115.5,112.3 123,112.3 				"/>
				<polygon class="st21" points="133,138.6 139.5,127.3 133,127.3 				"/>
				<polygon class="st21" points="133,123.6 140.5,112.3 133,112.3 				"/>
			</g>
		</g>
	</g>
</g>
<g id="PURPLE" class="st0">
	<g class="st1">
		<g id="XMLID_3_">
			<g>
				<polygon class="st33" points="123,123.6 115.5,112.3 123,112.3 				"/>
				<polygon class="st33" points="123,138.6 116.5,127.3 123,127.3 				"/>
				<polygon class="st33" points="128,152.8 120,142.3 123,142.3 133,142.3 136,142.3 				"/>
				<path class="st35" d="M121,105.4v-0.3c0-1,0.8-1.9,1.9-1.9h10.3c1,0,1.9,0.8,1.9,1.9v0.3c0,1-0.8,1.9-1.9,1.9H133v-2h-10v2h-0.1
					C121.8,107.3,121,106.4,121,105.4z"/>
				<rect x="123" y="105.3" class="st35" width="10" height="2"/>
				<polygon class="st5" points="123,112.3 123,107.3 133,107.3 133,112.3 133,123.6 133,127.3 133,138.6 133,142.3 123,142.3 
					123,138.6 123,127.3 123,123.6 				"/>
				<polygon class="st33" points="133,123.6 133,112.3 140.5,112.3 				"/>
				<polygon class="st33" points="133,138.6 133,127.3 139.5,127.3 				"/>
			</g>
			<g>
				<line class="st21" x1="123" y1="112.3" x2="123" y2="107.3"/>
				<line class="st21" x1="123" y1="127.3" x2="123" y2="123.6"/>
				<line class="st21" x1="123" y1="142.3" x2="123" y2="138.6"/>
				<line class="st21" x1="133" y1="138.6" x2="133" y2="142.3"/>
				<line class="st21" x1="133" y1="123.6" x2="133" y2="127.3"/>
				<line class="st21" x1="133" y1="107.3" x2="133" y2="112.3"/>
				<path class="st21" d="M133,107.3h0.1c1,0,1.9-0.8,1.9-1.9v-0.3c0-1-0.8-1.9-1.9-1.9h-10.3c-1,0-1.9,0.8-1.9,1.9v0.3
					c0,1,0.8,1.9,1.9,1.9h0.1H133z"/>
				<polygon class="st21" points="133,142.3 136,142.3 128,152.8 120,142.3 123,142.3 				"/>
				<polygon class="st21" points="123,138.6 116.5,127.3 123,127.3 				"/>
				<polygon class="st21" points="123,123.6 115.5,112.3 123,112.3 				"/>
				<polygon class="st21" points="133,138.6 139.5,127.3 133,127.3 				"/>
				<polygon class="st21" points="133,123.6 140.5,112.3 133,112.3 				"/>
			</g>
		</g>
	</g>
</g>
</svg>
