<?xml version="1.0" encoding="utf-8"?>
<!-- Generator: Adobe Illustrator 25.3.0, SVG Export Plug-In . SVG Version: 6.00 Build 0)  -->
<svg version="1.1" xmlns="http://www.w3.org/2000/svg" xmlns:xlink="http://www.w3.org/1999/xlink" x="0px" y="0px"
	 viewBox="0 0 256 256" style="enable-background:new 0 0 256 256;" xml:space="preserve">
<style type="text/css">
	.st0{display:none;}
	.st1{display:inline;}
	.st2{fill:#212121;}
	.st3{fill:#363636;}
	.st4{fill:#1C1C1C;}
	.st5{fill:#404040;}
	.st6{fill:#8E8E8E;}
	.st7{fill:#91C9E8;}
	.st8{fill:#3399CC;}
	.st9{fill:#446E9E;}
	.st10{fill:#335377;}
	.st11{fill:#7B52AB;}
	.st12{fill:#36175E;}
	.st13{fill:#45BF55;}
	.st14{fill:#168039;}
	.st15{fill:#EE8900;}
	.st16{fill:#D95100;}
	.st17{fill:#FFBB00;}
	.st18{fill:#D19419;}
	.st19{fill:#BF1533;}
	.st20{fill:#9A0419;}
	.st21{fill:none;stroke:#000000;stroke-miterlimit:10;}
	.st22{display:inline;fill:none;stroke:#000000;stroke-miterlimit:10;}
	.st23{fill:none;stroke:#000000;stroke-linecap:round;stroke-linejoin:round;stroke-miterlimit:10;}
	.st24{fill:none;stroke:#000000;stroke-linecap:round;stroke-miterlimit:10;}
	.st25{fill:#FFFFFF;}
	.st26{fill:none;stroke:#000000;stroke-width:0.5;stroke-linecap:round;stroke-linejoin:round;}
	.st27{fill:#773533;}
	.st28{fill:#CC3344;}
	.st29{fill:#E89199;}
	.st30{fill:#33CC78;}
	.st31{fill:#91E8BA;}
	.st32{fill:#33775F;}
	.st33{fill:#8F33CC;}
	.st34{fill:#C791E8;}
	.st35{fill:#683377;}
</style>
<g id="BG" class="st0">
</g>
<g id="Refs">
</g>
<g id="Palette">
</g>
<g id="Layer_5">
</g>
<g id="Guide" class="st0">
</g>
<g id="BLUE">
	<g>
		<g id="XMLID_9_">
			<g>
				<path class="st7" d="M146.7,241.1c0.8-1.3,1.3-2.8,1.3-4.4v-10.4c0.9-1,2.2-1.7,3.7-1.7h4.3v18.6c0,2.2-1.8,3.9-3.9,3.9h-11.2
					c-1.5,0-2.8-0.8-3.4-2h2.1C142.6,245,145.3,243.4,146.7,241.1z"/>
				<path class="st7" d="M156,198.9v25.6h-4.3c-1.5,0-2.8,0.6-3.7,1.7V195h4.1C154.2,195,156,196.8,156,198.9z"/>
				<path class="st7" d="M150.5,155c1.9,0,3.5,1.6,3.5,3.5c0,1-0.4,1.8-1,2.5c-0.6,0.6-1.5,1-2.5,1H148v-7H150.5z"/>
				<path class="st7" d="M150.5,166c1.9,0,3.5,1.6,3.5,3.5c0,1-0.4,1.8-1,2.5c-0.6,0.6-1.5,1-2.5,1H148v-7H150.5z"/>
				<path class="st7" d="M150.5,177c1.9,0,3.5,1.6,3.5,3.5c0,1-0.4,1.8-1,2.5c-0.6,0.6-1.5,1-2.5,1H148v-7H150.5z"/>
				<rect x="143" y="47" class="st8" width="8" height="9"/>
				<path class="st7" d="M148,226.2v10.4c0,1.6-0.5,3.1-1.3,4.4v-11.6C146.7,228.2,147.2,227.1,148,226.2z"/>
				<path class="st7" d="M148,195v31.2c-0.8,0.9-1.3,2-1.3,3.3v11.6c-1.5,2.4-4.1,3.9-7.1,3.9h-2.1c-0.3-0.6-0.5-1.2-0.5-1.9V213
					h-21v3.1c0,2.2-1.8,3.9-3.9,3.9H105v-33h7.1c2.2,0,3.9,1.8,3.9,3.9V208h21v-9.1c0-2.2,1.8-3.9,3.9-3.9H148z"/>
				<path class="st6" d="M148,184v11h-7.1c-2.2,0-3.9,1.8-3.9,3.9v9.1h-21v-17.1c0-2.2-1.8-3.9-3.9-3.9H105v-37.6
					c0-4.5,3.6-8.2,8-8.3v39.5h17.5c0,1.9,1.6,3.5,3.5,3.5H148z"/>
				<path class="st7" d="M148,177v7h-14c-1.9,0-3.5-1.6-3.5-3.5c0-1,0.4-1.8,1-2.5c0.6-0.6,1.5-1,2.5-1H148z"/>
				<path class="st5" d="M148,173v4h-14c-1,0-1.8,0.4-2.5,1c-0.6,0.6-1,1.5-1,2.5H113V141c0.1,0,0.2,0,0.3,0h5.4v28.5h11.8
					c0,1.9,1.6,3.5,3.5,3.5H148z"/>
				<path class="st7" d="M148,166v7h-14c-1.9,0-3.5-1.6-3.5-3.5c0-1,0.4-1.8,1-2.5c0.6-0.6,1.5-1,2.5-1H148z"/>
				<path class="st5" d="M148,162v4h-14c-1,0-1.8,0.4-2.5,1c-0.6,0.6-1,1.5-1,2.5h-11.8V141h4.3h1v17.5h6.2h0.3
					c0,1.9,1.6,3.5,3.5,3.5H148z"/>
				<path class="st7" d="M148,155v7h-14c-1.9,0-3.5-1.6-3.5-3.5c0-1,0.4-1.8,1-2.5c0.6-0.6,1.5-1,2.5-1H148z"/>
				<path class="st5" d="M148,149.4v5.6h-14c-1,0-1.8,0.4-2.5,1c-0.6,0.6-1,1.5-1,2.5h-0.3H124V141h7h4h4.6
					C144.3,141,148,144.7,148,149.4z"/>
				<rect x="143" y="86" class="st8" width="4.5" height="9"/>
				<rect x="143" y="68" class="st8" width="4.5" height="9"/>
				<path class="st8" d="M143,9c2.2,0,4,1.8,4,4c0,1.1-0.4,2.1-1.2,2.8c-0.7,0.7-1.7,1.2-2.8,1.2v-1h-20v1c-2.2,0-4-1.8-4-4
					c0-1.1,0.4-2.1,1.2-2.8c0.7-0.7,1.7-1.2,2.8-1.2H143z"/>
				<polygon class="st6" points="143,95 143,141 139.6,141 135,141 135,95 				"/>
				<polygon class="st8" points="143,86 143,95 135,95 131,95 123,95 123,86 				"/>
				<rect x="123" y="77" class="st5" width="20" height="9"/>
				<rect x="123" y="68" class="st8" width="20" height="9"/>
				<rect x="123" y="56" class="st5" width="20" height="12"/>
				<polygon class="st8" points="143,47 143,56 123,56 123,47 133,47 				"/>
				<polygon class="st5" points="133,47 123,47 123,17 143,17 143,47 				"/>
				<rect x="123" y="16" class="st8" width="20" height="1"/>
				<path class="st6" d="M137.5,245h-24.2c-4.6,0-8.3-3.7-8.3-8.4V220h7.1c2.2,0,3.9-1.8,3.9-3.9V213h21v30.1
					C137,243.8,137.2,244.4,137.5,245z"/>
				<rect x="131" y="95" class="st7" width="4" height="46"/>
				<polygon class="st6" points="131,95 131,141 124,141 123,141 123,112 123,95 				"/>
				<path class="st7" d="M123,112v29h-4.3h-5.4H113h-1v-18.1c0-6,4.9-10.9,10.9-10.9H123z"/>
				<rect x="118.5" y="86" class="st8" width="4.5" height="9"/>
				<rect x="118.5" y="68" class="st8" width="4.5" height="9"/>
				<rect x="115" y="47" class="st8" width="8" height="9"/>
				<path class="st7" d="M105,187v33h-1.1c-2.2,0-3.9-1.8-3.9-3.9v-25.2c0-2.2,1.8-3.9,3.9-3.9H105z"/>
			</g>
			<g>
				<line class="st21" x1="148" y1="184" x2="148" y2="195"/>
				<line class="st21" x1="148" y1="173" x2="148" y2="177"/>
				<line class="st21" x1="148" y1="162" x2="148" y2="166"/>
				<path class="st21" d="M139.6,141c4.6,0,8.4,3.7,8.4,8.4v5.6"/>
				<path class="st21" d="M105,187v-37.6c0-4.5,3.6-8.2,8-8.3c0.1,0,0.2,0,0.3,0"/>
				<path class="st21" d="M137.5,245h-24.2c-4.6,0-8.3-3.7-8.3-8.4V220"/>
				<line class="st21" x1="143" y1="77" x2="143" y2="86"/>
				<line class="st21" x1="143" y1="56" x2="143" y2="68"/>
				<line class="st21" x1="143" y1="17" x2="143" y2="47"/>
				<line class="st21" x1="123" y1="47" x2="123" y2="17"/>
				<line class="st21" x1="123" y1="68" x2="123" y2="56"/>
				<line class="st21" x1="123" y1="86" x2="123" y2="77"/>
				<line class="st21" x1="123" y1="112" x2="123" y2="95"/>
				<polyline class="st21" points="131,141 124,141 123,141 				"/>
				<polyline class="st21" points="143,95 143,141 139.6,141 135,141 				"/>
				<path class="st21" d="M123,112h-0.1c-6,0-10.9,4.9-10.9,10.9V141h1h0.3h5.4h4.3V112z"/>
				<polyline class="st21" points="131,95 123,95 118.5,95 118.5,86 123,86 143,86 147.5,86 147.5,95 143,95 135,95 				"/>
				<polygon class="st21" points="143,68 147.5,68 147.5,77 143,77 123,77 118.5,77 118.5,68 123,68 				"/>
				<polygon class="st21" points="143,47 151,47 151,56 143,56 123,56 115,56 115,47 123,47 133,47 				"/>
				<path class="st21" d="M148,195h4.1c2.2,0,3.9,1.8,3.9,3.9v25.6v18.6c0,2.2-1.8,3.9-3.9,3.9h-11.2c-1.5,0-2.8-0.8-3.4-2
					c-0.3-0.6-0.5-1.2-0.5-1.9V213h-21v3.1c0,2.2-1.8,3.9-3.9,3.9H105h-1.1c-2.2,0-3.9-1.8-3.9-3.9v-25.2c0-2.2,1.8-3.9,3.9-3.9h1.1
					h7.1c2.2,0,3.9,1.8,3.9,3.9V208h21v-9.1c0-2.2,1.8-3.9,3.9-3.9H148z"/>
				<path class="st21" d="M148,166h2.5c1.9,0,3.5,1.6,3.5,3.5c0,1-0.4,1.8-1,2.5c-0.6,0.6-1.5,1-2.5,1H148h-14
					c-1.9,0-3.5-1.6-3.5-3.5c0-1,0.4-1.8,1-2.5c0.6-0.6,1.5-1,2.5-1H148z"/>
				<path class="st21" d="M148,177h2.5c1.9,0,3.5,1.6,3.5,3.5c0,1-0.4,1.8-1,2.5c-0.6,0.6-1.5,1-2.5,1H148h-14
					c-1.9,0-3.5-1.6-3.5-3.5c0-1,0.4-1.8,1-2.5c0.6-0.6,1.5-1,2.5-1H148z"/>
				<path class="st21" d="M148,155h2.5c1.9,0,3.5,1.6,3.5,3.5c0,1-0.4,1.8-1,2.5c-0.6,0.6-1.5,1-2.5,1H148h-14
					c-1.9,0-3.5-1.6-3.5-3.5c0-1,0.4-1.8,1-2.5c0.6-0.6,1.5-1,2.5-1H148z"/>
				<polyline class="st21" points="130.2,158.5 124,158.5 124,141 				"/>
				<polyline class="st21" points="130.5,169.5 118.7,169.5 118.7,141 				"/>
				<polyline class="st21" points="130.5,180.5 113,180.5 113,141 113,141 				"/>
				<path class="st21" d="M156,224.5h-4.3c-1.5,0-2.8,0.6-3.7,1.7c-0.8,0.9-1.3,2-1.3,3.3v11.6v5.4"/>
				<line class="st24" x1="133" y1="47" x2="133" y2="25"/>
				<rect x="131" y="95" class="st24" width="4" height="46"/>
				<path class="st24" d="M143,17h-20c-2.2,0-4-1.8-4-4c0-1.1,0.4-2.1,1.2-2.8c0.7-0.7,1.7-1.2,2.8-1.2h20c2.2,0,4,1.8,4,4
					c0,1.1-0.4,2.1-1.2,2.8C145.1,16.5,144.1,17,143,17z"/>
			</g>
		</g>
	</g>
</g>
<g id="RED" class="st0">
	<g class="st1">
		<g id="XMLID_48_">
			<g>
				<path class="st29" d="M146.7,241.1c0.8-1.3,1.3-2.8,1.3-4.4v-10.4c0.9-1,2.2-1.7,3.7-1.7h4.3v18.6c0,2.2-1.8,3.9-3.9,3.9h-11.2
					c-1.5,0-2.8-0.8-3.4-2h2.1C142.6,245,145.3,243.4,146.7,241.1z"/>
				<path class="st29" d="M156,198.9v25.6h-4.3c-1.5,0-2.8,0.6-3.7,1.7V195h4.1C154.2,195,156,196.8,156,198.9z"/>
				<path class="st29" d="M150.5,155c1.9,0,3.5,1.6,3.5,3.5c0,1-0.4,1.8-1,2.5c-0.6,0.6-1.5,1-2.5,1H148v-7H150.5z"/>
				<path class="st29" d="M150.5,166c1.9,0,3.5,1.6,3.5,3.5c0,1-0.4,1.8-1,2.5c-0.6,0.6-1.5,1-2.5,1H148v-7H150.5z"/>
				<path class="st29" d="M150.5,177c1.9,0,3.5,1.6,3.5,3.5c0,1-0.4,1.8-1,2.5c-0.6,0.6-1.5,1-2.5,1H148v-7H150.5z"/>
				<rect x="143" y="47" class="st28" width="8" height="9"/>
				<path class="st29" d="M148,226.2v10.4c0,1.6-0.5,3.1-1.3,4.4v-11.6C146.7,228.2,147.2,227.1,148,226.2z"/>
				<path class="st29" d="M148,195v31.2c-0.8,0.9-1.3,2-1.3,3.3v11.6c-1.5,2.4-4.1,3.9-7.1,3.9h-2.1c-0.3-0.6-0.5-1.2-0.5-1.9V213
					h-21v3.1c0,2.2-1.8,3.9-3.9,3.9H105v-33h7.1c2.2,0,3.9,1.8,3.9,3.9V208h21v-9.1c0-2.2,1.8-3.9,3.9-3.9H148z"/>
				<path class="st6" d="M148,184v11h-7.1c-2.2,0-3.9,1.8-3.9,3.9v9.1h-21v-17.1c0-2.2-1.8-3.9-3.9-3.9H105v-37.6
					c0-4.5,3.6-8.2,8-8.3v39.5h17.5c0,1.9,1.6,3.5,3.5,3.5H148z"/>
				<path class="st29" d="M148,177v7h-14c-1.9,0-3.5-1.6-3.5-3.5c0-1,0.4-1.8,1-2.5c0.6-0.6,1.5-1,2.5-1H148z"/>
				<path class="st5" d="M148,173v4h-14c-1,0-1.8,0.4-2.5,1c-0.6,0.6-1,1.5-1,2.5H113V141c0.1,0,0.2,0,0.3,0h5.4v28.5h11.8
					c0,1.9,1.6,3.5,3.5,3.5H148z"/>
				<path class="st29" d="M148,166v7h-14c-1.9,0-3.5-1.6-3.5-3.5c0-1,0.4-1.8,1-2.5c0.6-0.6,1.5-1,2.5-1H148z"/>
				<path class="st5" d="M148,162v4h-14c-1,0-1.8,0.4-2.5,1c-0.6,0.6-1,1.5-1,2.5h-11.8V141h4.3h1v17.5h6.2h0.3
					c0,1.9,1.6,3.5,3.5,3.5H148z"/>
				<path class="st29" d="M148,155v7h-14c-1.9,0-3.5-1.6-3.5-3.5c0-1,0.4-1.8,1-2.5c0.6-0.6,1.5-1,2.5-1H148z"/>
				<path class="st5" d="M148,149.4v5.6h-14c-1,0-1.8,0.4-2.5,1c-0.6,0.6-1,1.5-1,2.5h-0.3H124V141h7h4h4.6
					C144.3,141,148,144.7,148,149.4z"/>
				<rect x="143" y="86" class="st28" width="4.5" height="9"/>
				<rect x="143" y="68" class="st28" width="4.5" height="9"/>
				<path class="st28" d="M143,9c2.2,0,4,1.8,4,4c0,1.1-0.4,2.1-1.2,2.8c-0.7,0.7-1.7,1.2-2.8,1.2v-1h-20v1c-2.2,0-4-1.8-4-4
					c0-1.1,0.4-2.1,1.2-2.8c0.7-0.7,1.7-1.2,2.8-1.2H143z"/>
				<polygon class="st6" points="143,95 143,141 139.6,141 135,141 135,95 				"/>
				<polygon class="st28" points="143,86 143,95 135,95 131,95 123,95 123,86 				"/>
				<rect x="123" y="77" class="st5" width="20" height="9"/>
				<rect x="123" y="68" class="st28" width="20" height="9"/>
				<rect x="123" y="56" class="st5" width="20" height="12"/>
				<polygon class="st28" points="143,47 143,56 123,56 123,47 133,47 				"/>
				<polygon class="st5" points="133,47 123,47 123,17 143,17 143,47 				"/>
				<rect x="123" y="16" class="st28" width="20" height="1"/>
				<path class="st6" d="M137.5,245h-24.2c-4.6,0-8.3-3.7-8.3-8.4V220h7.1c2.2,0,3.9-1.8,3.9-3.9V213h21v30.1
					C137,243.8,137.2,244.4,137.5,245z"/>
				<rect x="131" y="95" class="st29" width="4" height="46"/>
				<polygon class="st6" points="131,95 131,141 124,141 123,141 123,112 123,95 				"/>
				<path class="st29" d="M123,112v29h-4.3h-5.4H113h-1v-18.1c0-6,4.9-10.9,10.9-10.9H123z"/>
				<rect x="118.5" y="86" class="st28" width="4.5" height="9"/>
				<rect x="118.5" y="68" class="st28" width="4.5" height="9"/>
				<rect x="115" y="47" class="st28" width="8" height="9"/>
				<path class="st29" d="M105,187v33h-1.1c-2.2,0-3.9-1.8-3.9-3.9v-25.2c0-2.2,1.8-3.9,3.9-3.9H105z"/>
			</g>
			<g>
				<line class="st21" x1="148" y1="184" x2="148" y2="195"/>
				<line class="st21" x1="148" y1="173" x2="148" y2="177"/>
				<line class="st21" x1="148" y1="162" x2="148" y2="166"/>
				<path class="st21" d="M139.6,141c4.6,0,8.4,3.7,8.4,8.4v5.6"/>
				<path class="st21" d="M105,187v-37.6c0-4.5,3.6-8.2,8-8.3c0.1,0,0.2,0,0.3,0"/>
				<path class="st21" d="M137.5,245h-24.2c-4.6,0-8.3-3.7-8.3-8.4V220"/>
				<line class="st21" x1="143" y1="77" x2="143" y2="86"/>
				<line class="st21" x1="143" y1="56" x2="143" y2="68"/>
				<line class="st21" x1="143" y1="17" x2="143" y2="47"/>
				<line class="st21" x1="123" y1="47" x2="123" y2="17"/>
				<line class="st21" x1="123" y1="68" x2="123" y2="56"/>
				<line class="st21" x1="123" y1="86" x2="123" y2="77"/>
				<line class="st21" x1="123" y1="112" x2="123" y2="95"/>
				<polyline class="st21" points="131,141 124,141 123,141 				"/>
				<polyline class="st21" points="143,95 143,141 139.6,141 135,141 				"/>
				<path class="st21" d="M123,112h-0.1c-6,0-10.9,4.9-10.9,10.9V141h1h0.3h5.4h4.3V112z"/>
				<polyline class="st21" points="131,95 123,95 118.5,95 118.5,86 123,86 143,86 147.5,86 147.5,95 143,95 135,95 				"/>
				<polygon class="st21" points="143,68 147.5,68 147.5,77 143,77 123,77 118.5,77 118.5,68 123,68 				"/>
				<polygon class="st21" points="143,47 151,47 151,56 143,56 123,56 115,56 115,47 123,47 133,47 				"/>
				<path class="st21" d="M148,195h4.1c2.2,0,3.9,1.8,3.9,3.9v25.6v18.6c0,2.2-1.8,3.9-3.9,3.9h-11.2c-1.5,0-2.8-0.8-3.4-2
					c-0.3-0.6-0.5-1.2-0.5-1.9V213h-21v3.1c0,2.2-1.8,3.9-3.9,3.9H105h-1.1c-2.2,0-3.9-1.8-3.9-3.9v-25.2c0-2.2,1.8-3.9,3.9-3.9h1.1
					h7.1c2.2,0,3.9,1.8,3.9,3.9V208h21v-9.1c0-2.2,1.8-3.9,3.9-3.9H148z"/>
				<path class="st21" d="M148,166h2.5c1.9,0,3.5,1.6,3.5,3.5c0,1-0.4,1.8-1,2.5c-0.6,0.6-1.5,1-2.5,1H148h-14
					c-1.9,0-3.5-1.6-3.5-3.5c0-1,0.4-1.8,1-2.5c0.6-0.6,1.5-1,2.5-1H148z"/>
				<path class="st21" d="M148,177h2.5c1.9,0,3.5,1.6,3.5,3.5c0,1-0.4,1.8-1,2.5c-0.6,0.6-1.5,1-2.5,1H148h-14
					c-1.9,0-3.5-1.6-3.5-3.5c0-1,0.4-1.8,1-2.5c0.6-0.6,1.5-1,2.5-1H148z"/>
				<path class="st21" d="M148,155h2.5c1.9,0,3.5,1.6,3.5,3.5c0,1-0.4,1.8-1,2.5c-0.6,0.6-1.5,1-2.5,1H148h-14
					c-1.9,0-3.5-1.6-3.5-3.5c0-1,0.4-1.8,1-2.5c0.6-0.6,1.5-1,2.5-1H148z"/>
				<polyline class="st21" points="130.2,158.5 124,158.5 124,141 				"/>
				<polyline class="st21" points="130.5,169.5 118.7,169.5 118.7,141 				"/>
				<polyline class="st21" points="130.5,180.5 113,180.5 113,141 113,141 				"/>
				<path class="st21" d="M156,224.5h-4.3c-1.5,0-2.8,0.6-3.7,1.7c-0.8,0.9-1.3,2-1.3,3.3v11.6v5.4"/>
				<line class="st24" x1="133" y1="47" x2="133" y2="25"/>
				<rect x="131" y="95" class="st24" width="4" height="46"/>
				<path class="st24" d="M143,17h-20c-2.2,0-4-1.8-4-4c0-1.1,0.4-2.1,1.2-2.8c0.7-0.7,1.7-1.2,2.8-1.2h20c2.2,0,4,1.8,4,4
					c0,1.1-0.4,2.1-1.2,2.8C145.1,16.5,144.1,17,143,17z"/>
			</g>
		</g>
	</g>
</g>
<g id="GREEN" class="st0">
	<g class="st1">
		<g id="XMLID_29_">
			<g>
				<path class="st31" d="M146.7,241.1c0.8-1.3,1.3-2.8,1.3-4.4v-10.4c0.9-1,2.2-1.7,3.7-1.7h4.3v18.6c0,2.2-1.8,3.9-3.9,3.9h-11.2
					c-1.5,0-2.8-0.8-3.4-2h2.1C142.6,245,145.3,243.4,146.7,241.1z"/>
				<path class="st31" d="M156,198.9v25.6h-4.3c-1.5,0-2.8,0.6-3.7,1.7V195h4.1C154.2,195,156,196.8,156,198.9z"/>
				<path class="st31" d="M150.5,155c1.9,0,3.5,1.6,3.5,3.5c0,1-0.4,1.8-1,2.5c-0.6,0.6-1.5,1-2.5,1H148v-7H150.5z"/>
				<path class="st31" d="M150.5,166c1.9,0,3.5,1.6,3.5,3.5c0,1-0.4,1.8-1,2.5c-0.6,0.6-1.5,1-2.5,1H148v-7H150.5z"/>
				<path class="st31" d="M150.5,177c1.9,0,3.5,1.6,3.5,3.5c0,1-0.4,1.8-1,2.5c-0.6,0.6-1.5,1-2.5,1H148v-7H150.5z"/>
				<rect x="143" y="47" class="st30" width="8" height="9"/>
				<path class="st31" d="M148,226.2v10.4c0,1.6-0.5,3.1-1.3,4.4v-11.6C146.7,228.2,147.2,227.1,148,226.2z"/>
				<path class="st31" d="M148,195v31.2c-0.8,0.9-1.3,2-1.3,3.3v11.6c-1.5,2.4-4.1,3.9-7.1,3.9h-2.1c-0.3-0.6-0.5-1.2-0.5-1.9V213
					h-21v3.1c0,2.2-1.8,3.9-3.9,3.9H105v-33h7.1c2.2,0,3.9,1.8,3.9,3.9V208h21v-9.1c0-2.2,1.8-3.9,3.9-3.9H148z"/>
				<path class="st6" d="M148,184v11h-7.1c-2.2,0-3.9,1.8-3.9,3.9v9.1h-21v-17.1c0-2.2-1.8-3.9-3.9-3.9H105v-37.6
					c0-4.5,3.6-8.2,8-8.3v39.5h17.5c0,1.9,1.6,3.5,3.5,3.5H148z"/>
				<path class="st31" d="M148,177v7h-14c-1.9,0-3.5-1.6-3.5-3.5c0-1,0.4-1.8,1-2.5c0.6-0.6,1.5-1,2.5-1H148z"/>
				<path class="st5" d="M148,173v4h-14c-1,0-1.8,0.4-2.5,1c-0.6,0.6-1,1.5-1,2.5H113V141c0.1,0,0.2,0,0.3,0h5.4v28.5h11.8
					c0,1.9,1.6,3.5,3.5,3.5H148z"/>
				<path class="st31" d="M148,166v7h-14c-1.9,0-3.5-1.6-3.5-3.5c0-1,0.4-1.8,1-2.5c0.6-0.6,1.5-1,2.5-1H148z"/>
				<path class="st5" d="M148,162v4h-14c-1,0-1.8,0.4-2.5,1c-0.6,0.6-1,1.5-1,2.5h-11.8V141h4.3h1v17.5h6.2h0.3
					c0,1.9,1.6,3.5,3.5,3.5H148z"/>
				<path class="st31" d="M148,155v7h-14c-1.9,0-3.5-1.6-3.5-3.5c0-1,0.4-1.8,1-2.5c0.6-0.6,1.5-1,2.5-1H148z"/>
				<path class="st5" d="M148,149.4v5.6h-14c-1,0-1.8,0.4-2.5,1c-0.6,0.6-1,1.5-1,2.5h-0.3H124V141h7h4h4.6
					C144.3,141,148,144.7,148,149.4z"/>
				<rect x="143" y="86" class="st30" width="4.5" height="9"/>
				<rect x="143" y="68" class="st30" width="4.5" height="9"/>
				<path class="st30" d="M143,9c2.2,0,4,1.8,4,4c0,1.1-0.4,2.1-1.2,2.8c-0.7,0.7-1.7,1.2-2.8,1.2v-1h-20v1c-2.2,0-4-1.8-4-4
					c0-1.1,0.4-2.1,1.2-2.8c0.7-0.7,1.7-1.2,2.8-1.2H143z"/>
				<polygon class="st6" points="143,95 143,141 139.6,141 135,141 135,95 				"/>
				<polygon class="st30" points="143,86 143,95 135,95 131,95 123,95 123,86 				"/>
				<rect x="123" y="77" class="st5" width="20" height="9"/>
				<rect x="123" y="68" class="st30" width="20" height="9"/>
				<rect x="123" y="56" class="st5" width="20" height="12"/>
				<polygon class="st30" points="143,47 143,56 123,56 123,47 133,47 				"/>
				<polygon class="st5" points="133,47 123,47 123,17 143,17 143,47 				"/>
				<rect x="123" y="16" class="st30" width="20" height="1"/>
				<path class="st6" d="M137.5,245h-24.2c-4.6,0-8.3-3.7-8.3-8.4V220h7.1c2.2,0,3.9-1.8,3.9-3.9V213h21v30.1
					C137,243.8,137.2,244.4,137.5,245z"/>
				<rect x="131" y="95" class="st31" width="4" height="46"/>
				<polygon class="st6" points="131,95 131,141 124,141 123,141 123,112 123,95 				"/>
				<path class="st31" d="M123,112v29h-4.3h-5.4H113h-1v-18.1c0-6,4.9-10.9,10.9-10.9H123z"/>
				<rect x="118.5" y="86" class="st30" width="4.5" height="9"/>
				<rect x="118.5" y="68" class="st30" width="4.5" height="9"/>
				<rect x="115" y="47" class="st30" width="8" height="9"/>
				<path class="st31" d="M105,187v33h-1.1c-2.2,0-3.9-1.8-3.9-3.9v-25.2c0-2.2,1.8-3.9,3.9-3.9H105z"/>
			</g>
			<g>
				<line class="st21" x1="148" y1="184" x2="148" y2="195"/>
				<line class="st21" x1="148" y1="173" x2="148" y2="177"/>
				<line class="st21" x1="148" y1="162" x2="148" y2="166"/>
				<path class="st21" d="M139.6,141c4.6,0,8.4,3.7,8.4,8.4v5.6"/>
				<path class="st21" d="M105,187v-37.6c0-4.5,3.6-8.2,8-8.3c0.1,0,0.2,0,0.3,0"/>
				<path class="st21" d="M137.5,245h-24.2c-4.6,0-8.3-3.7-8.3-8.4V220"/>
				<line class="st21" x1="143" y1="77" x2="143" y2="86"/>
				<line class="st21" x1="143" y1="56" x2="143" y2="68"/>
				<line class="st21" x1="143" y1="17" x2="143" y2="47"/>
				<line class="st21" x1="123" y1="47" x2="123" y2="17"/>
				<line class="st21" x1="123" y1="68" x2="123" y2="56"/>
				<line class="st21" x1="123" y1="86" x2="123" y2="77"/>
				<line class="st21" x1="123" y1="112" x2="123" y2="95"/>
				<polyline class="st21" points="131,141 124,141 123,141 				"/>
				<polyline class="st21" points="143,95 143,141 139.6,141 135,141 				"/>
				<path class="st21" d="M123,112h-0.1c-6,0-10.9,4.9-10.9,10.9V141h1h0.3h5.4h4.3V112z"/>
				<polyline class="st21" points="131,95 123,95 118.5,95 118.5,86 123,86 143,86 147.5,86 147.5,95 143,95 135,95 				"/>
				<polygon class="st21" points="143,68 147.5,68 147.5,77 143,77 123,77 118.5,77 118.5,68 123,68 				"/>
				<polygon class="st21" points="143,47 151,47 151,56 143,56 123,56 115,56 115,47 123,47 133,47 				"/>
				<path class="st21" d="M148,195h4.1c2.2,0,3.9,1.8,3.9,3.9v25.6v18.6c0,2.2-1.8,3.9-3.9,3.9h-11.2c-1.5,0-2.8-0.8-3.4-2
					c-0.3-0.6-0.5-1.2-0.5-1.9V213h-21v3.1c0,2.2-1.8,3.9-3.9,3.9H105h-1.1c-2.2,0-3.9-1.8-3.9-3.9v-25.2c0-2.2,1.8-3.9,3.9-3.9h1.1
					h7.1c2.2,0,3.9,1.8,3.9,3.9V208h21v-9.1c0-2.2,1.8-3.9,3.9-3.9H148z"/>
				<path class="st21" d="M148,166h2.5c1.9,0,3.5,1.6,3.5,3.5c0,1-0.4,1.8-1,2.5c-0.6,0.6-1.5,1-2.5,1H148h-14
					c-1.9,0-3.5-1.6-3.5-3.5c0-1,0.4-1.8,1-2.5c0.6-0.6,1.5-1,2.5-1H148z"/>
				<path class="st21" d="M148,177h2.5c1.9,0,3.5,1.6,3.5,3.5c0,1-0.4,1.8-1,2.5c-0.6,0.6-1.5,1-2.5,1H148h-14
					c-1.9,0-3.5-1.6-3.5-3.5c0-1,0.4-1.8,1-2.5c0.6-0.6,1.5-1,2.5-1H148z"/>
				<path class="st21" d="M148,155h2.5c1.9,0,3.5,1.6,3.5,3.5c0,1-0.4,1.8-1,2.5c-0.6,0.6-1.5,1-2.5,1H148h-14
					c-1.9,0-3.5-1.6-3.5-3.5c0-1,0.4-1.8,1-2.5c0.6-0.6,1.5-1,2.5-1H148z"/>
				<polyline class="st21" points="130.2,158.5 124,158.5 124,141 				"/>
				<polyline class="st21" points="130.5,169.5 118.7,169.5 118.7,141 				"/>
				<polyline class="st21" points="130.5,180.5 113,180.5 113,141 113,141 				"/>
				<path class="st21" d="M156,224.5h-4.3c-1.5,0-2.8,0.6-3.7,1.7c-0.8,0.9-1.3,2-1.3,3.3v11.6v5.4"/>
				<line class="st24" x1="133" y1="47" x2="133" y2="25"/>
				<rect x="131" y="95" class="st24" width="4" height="46"/>
				<path class="st24" d="M143,17h-20c-2.2,0-4-1.8-4-4c0-1.1,0.4-2.1,1.2-2.8c0.7-0.7,1.7-1.2,2.8-1.2h20c2.2,0,4,1.8,4,4
					c0,1.1-0.4,2.1-1.2,2.8C145.1,16.5,144.1,17,143,17z"/>
			</g>
		</g>
	</g>
</g>
<g id="PURPLE" class="st0">
	<g class="st1">
		<g id="XMLID_1_">
			<g>
				<path class="st34" d="M146.7,241.1c0.8-1.3,1.3-2.8,1.3-4.4v-10.4c0.9-1,2.2-1.7,3.7-1.7h4.3v18.6c0,2.2-1.8,3.9-3.9,3.9h-11.2
					c-1.5,0-2.8-0.8-3.4-2h2.1C142.6,245,145.3,243.4,146.7,241.1z"/>
				<path class="st34" d="M156,198.9v25.6h-4.3c-1.5,0-2.8,0.6-3.7,1.7V195h4.1C154.2,195,156,196.8,156,198.9z"/>
				<path class="st34" d="M150.5,155c1.9,0,3.5,1.6,3.5,3.5c0,1-0.4,1.8-1,2.5c-0.6,0.6-1.5,1-2.5,1H148v-7H150.5z"/>
				<path class="st34" d="M150.5,166c1.9,0,3.5,1.6,3.5,3.5c0,1-0.4,1.8-1,2.5c-0.6,0.6-1.5,1-2.5,1H148v-7H150.5z"/>
				<path class="st34" d="M150.5,177c1.9,0,3.5,1.6,3.5,3.5c0,1-0.4,1.8-1,2.5c-0.6,0.6-1.5,1-2.5,1H148v-7H150.5z"/>
				<rect x="143" y="47" class="st33" width="8" height="9"/>
				<path class="st34" d="M148,226.2v10.4c0,1.6-0.5,3.1-1.3,4.4v-11.6C146.7,228.2,147.2,227.1,148,226.2z"/>
				<path class="st34" d="M148,195v31.2c-0.8,0.9-1.3,2-1.3,3.3v11.6c-1.5,2.4-4.1,3.9-7.1,3.9h-2.1c-0.3-0.6-0.5-1.2-0.5-1.9V213
					h-21v3.1c0,2.2-1.8,3.9-3.9,3.9H105v-33h7.1c2.2,0,3.9,1.8,3.9,3.9V208h21v-9.1c0-2.2,1.8-3.9,3.9-3.9H148z"/>
				<path class="st6" d="M148,184v11h-7.1c-2.2,0-3.9,1.8-3.9,3.9v9.1h-21v-17.1c0-2.2-1.8-3.9-3.9-3.9H105v-37.6
					c0-4.5,3.6-8.2,8-8.3v39.5h17.5c0,1.9,1.6,3.5,3.5,3.5H148z"/>
				<path class="st34" d="M148,177v7h-14c-1.9,0-3.5-1.6-3.5-3.5c0-1,0.4-1.8,1-2.5c0.6-0.6,1.5-1,2.5-1H148z"/>
				<path class="st5" d="M148,173v4h-14c-1,0-1.8,0.4-2.5,1c-0.6,0.6-1,1.5-1,2.5H113V141c0.1,0,0.2,0,0.3,0h5.4v28.5h11.8
					c0,1.9,1.6,3.5,3.5,3.5H148z"/>
				<path class="st34" d="M148,166v7h-14c-1.9,0-3.5-1.6-3.5-3.5c0-1,0.4-1.8,1-2.5c0.6-0.6,1.5-1,2.5-1H148z"/>
				<path class="st5" d="M148,162v4h-14c-1,0-1.8,0.4-2.5,1c-0.6,0.6-1,1.5-1,2.5h-11.8V141h4.3h1v17.5h6.2h0.3
					c0,1.9,1.6,3.5,3.5,3.5H148z"/>
				<path class="st34" d="M148,155v7h-14c-1.9,0-3.5-1.6-3.5-3.5c0-1,0.4-1.8,1-2.5c0.6-0.6,1.5-1,2.5-1H148z"/>
				<path class="st5" d="M148,149.4v5.6h-14c-1,0-1.8,0.4-2.5,1c-0.6,0.6-1,1.5-1,2.5h-0.3H124V141h7h4h4.6
					C144.3,141,148,144.7,148,149.4z"/>
				<rect x="143" y="86" class="st33" width="4.5" height="9"/>
				<rect x="143" y="68" class="st33" width="4.5" height="9"/>
				<path class="st33" d="M143,9c2.2,0,4,1.8,4,4c0,1.1-0.4,2.1-1.2,2.8c-0.7,0.7-1.7,1.2-2.8,1.2v-1h-20v1c-2.2,0-4-1.8-4-4
					c0-1.1,0.4-2.1,1.2-2.8c0.7-0.7,1.7-1.2,2.8-1.2H143z"/>
				<polygon class="st6" points="143,95 143,141 139.6,141 135,141 135,95 				"/>
				<polygon class="st33" points="143,86 143,95 135,95 131,95 123,95 123,86 				"/>
				<rect x="123" y="77" class="st5" width="20" height="9"/>
				<rect x="123" y="68" class="st33" width="20" height="9"/>
				<rect x="123" y="56" class="st5" width="20" height="12"/>
				<polygon class="st33" points="143,47 143,56 123,56 123,47 133,47 				"/>
				<polygon class="st5" points="133,47 123,47 123,17 143,17 143,47 				"/>
				<rect x="123" y="16" class="st33" width="20" height="1"/>
				<path class="st6" d="M137.5,245h-24.2c-4.6,0-8.3-3.7-8.3-8.4V220h7.1c2.2,0,3.9-1.8,3.9-3.9V213h21v30.1
					C137,243.8,137.2,244.4,137.5,245z"/>
				<rect x="131" y="95" class="st34" width="4" height="46"/>
				<polygon class="st6" points="131,95 131,141 124,141 123,141 123,112 123,95 				"/>
				<path class="st34" d="M123,112v29h-4.3h-5.4H113h-1v-18.1c0-6,4.9-10.9,10.9-10.9H123z"/>
				<rect x="118.5" y="86" class="st33" width="4.5" height="9"/>
				<rect x="118.5" y="68" class="st33" width="4.5" height="9"/>
				<rect x="115" y="47" class="st33" width="8" height="9"/>
				<path class="st34" d="M105,187v33h-1.1c-2.2,0-3.9-1.8-3.9-3.9v-25.2c0-2.2,1.8-3.9,3.9-3.9H105z"/>
			</g>
			<g>
				<line class="st21" x1="148" y1="184" x2="148" y2="195"/>
				<line class="st21" x1="148" y1="173" x2="148" y2="177"/>
				<line class="st21" x1="148" y1="162" x2="148" y2="166"/>
				<path class="st21" d="M139.6,141c4.6,0,8.4,3.7,8.4,8.4v5.6"/>
				<path class="st21" d="M105,187v-37.6c0-4.5,3.6-8.2,8-8.3c0.1,0,0.2,0,0.3,0"/>
				<path class="st21" d="M137.5,245h-24.2c-4.6,0-8.3-3.7-8.3-8.4V220"/>
				<line class="st21" x1="143" y1="77" x2="143" y2="86"/>
				<line class="st21" x1="143" y1="56" x2="143" y2="68"/>
				<line class="st21" x1="143" y1="17" x2="143" y2="47"/>
				<line class="st21" x1="123" y1="47" x2="123" y2="17"/>
				<line class="st21" x1="123" y1="68" x2="123" y2="56"/>
				<line class="st21" x1="123" y1="86" x2="123" y2="77"/>
				<line class="st21" x1="123" y1="112" x2="123" y2="95"/>
				<polyline class="st21" points="131,141 124,141 123,141 				"/>
				<polyline class="st21" points="143,95 143,141 139.6,141 135,141 				"/>
				<path class="st21" d="M123,112h-0.1c-6,0-10.9,4.9-10.9,10.9V141h1h0.3h5.4h4.3V112z"/>
				<polyline class="st21" points="131,95 123,95 118.5,95 118.5,86 123,86 143,86 147.5,86 147.5,95 143,95 135,95 				"/>
				<polygon class="st21" points="143,68 147.5,68 147.5,77 143,77 123,77 118.5,77 118.5,68 123,68 				"/>
				<polygon class="st21" points="143,47 151,47 151,56 143,56 123,56 115,56 115,47 123,47 133,47 				"/>
				<path class="st21" d="M148,195h4.1c2.2,0,3.9,1.8,3.9,3.9v25.6v18.6c0,2.2-1.8,3.9-3.9,3.9h-11.2c-1.5,0-2.8-0.8-3.4-2
					c-0.3-0.6-0.5-1.2-0.5-1.9V213h-21v3.1c0,2.2-1.8,3.9-3.9,3.9H105h-1.1c-2.2,0-3.9-1.8-3.9-3.9v-25.2c0-2.2,1.8-3.9,3.9-3.9h1.1
					h7.1c2.2,0,3.9,1.8,3.9,3.9V208h21v-9.1c0-2.2,1.8-3.9,3.9-3.9H148z"/>
				<path class="st21" d="M148,166h2.5c1.9,0,3.5,1.6,3.5,3.5c0,1-0.4,1.8-1,2.5c-0.6,0.6-1.5,1-2.5,1H148h-14
					c-1.9,0-3.5-1.6-3.5-3.5c0-1,0.4-1.8,1-2.5c0.6-0.6,1.5-1,2.5-1H148z"/>
				<path class="st21" d="M148,177h2.5c1.9,0,3.5,1.6,3.5,3.5c0,1-0.4,1.8-1,2.5c-0.6,0.6-1.5,1-2.5,1H148h-14
					c-1.9,0-3.5-1.6-3.5-3.5c0-1,0.4-1.8,1-2.5c0.6-0.6,1.5-1,2.5-1H148z"/>
				<path class="st21" d="M148,155h2.5c1.9,0,3.5,1.6,3.5,3.5c0,1-0.4,1.8-1,2.5c-0.6,0.6-1.5,1-2.5,1H148h-14
					c-1.9,0-3.5-1.6-3.5-3.5c0-1,0.4-1.8,1-2.5c0.6-0.6,1.5-1,2.5-1H148z"/>
				<polyline class="st21" points="130.2,158.5 124,158.5 124,141 				"/>
				<polyline class="st21" points="130.5,169.5 118.7,169.5 118.7,141 				"/>
				<polyline class="st21" points="130.5,180.5 113,180.5 113,141 113,141 				"/>
				<path class="st21" d="M156,224.5h-4.3c-1.5,0-2.8,0.6-3.7,1.7c-0.8,0.9-1.3,2-1.3,3.3v11.6v5.4"/>
				<line class="st24" x1="133" y1="47" x2="133" y2="25"/>
				<rect x="131" y="95" class="st24" width="4" height="46"/>
				<path class="st24" d="M143,17h-20c-2.2,0-4-1.8-4-4c0-1.1,0.4-2.1,1.2-2.8c0.7-0.7,1.7-1.2,2.8-1.2h20c2.2,0,4,1.8,4,4
					c0,1.1-0.4,2.1-1.2,2.8C145.1,16.5,144.1,17,143,17z"/>
			</g>
		</g>
	</g>
</g>
</svg>
