<svg xmlns="http://www.w3.org/2000/svg" viewBox="0 0 512 512"><defs><style>.cls-1{fill:#f2da30;}.cls-2{fill:#efd82e;}.cls-3{fill:#ccc;}.cls-4{fill:#6e706d;}.cls-5{fill:#0ef9fd;}.cls-6{fill:none;stroke:#000;stroke-miterlimit:10;stroke-width:12px;}</style></defs><g id="Logos"><g id="_1" data-name="1"><polygon class="cls-1" points="386.88 203.32 426.86 134.97 428.52 133.93 386.88 203.32"/><path class="cls-1" d="M386.88,203.32,256,421.42,137.34,164.07l-12.22-26.51L83.48,47.24,153.28,126l21,23.67h0L256,241.86l91.66-57.34,27.67-17.31L426.86,135Zm-127.4,154,79-131.68-88.11,55.12-54.61-61.61Z"/><polygon class="cls-2" points="428.52 177.27 386.45 247.38 386.45 247.39 361.74 288.56 289.47 408.98 271.47 438.98 256 464.76 244.11 438.98 230.28 408.98 155.82 247.47 132.42 196.72 132.42 196.71 132.42 196.7 83.48 90.58 125.12 137.56 137.34 164.07 256 421.42 386.88 203.32 428.52 177.27"/><polygon class="cls-3" points="386.45 247.39 412.38 438.98 271.47 438.98 289.47 408.98 378.04 408.98 361.74 288.56 386.45 247.39"/><polygon class="cls-4" points="361.74 288.56 378.04 408.98 289.47 408.98 361.74 288.56"/><path class="cls-3" d="M375.33,167.21l-27.67,17.31-.74-5.46a91.76,91.76,0,0,0-172.65-29.4l-21-23.67a121.76,121.76,0,0,1,222.05,41.22Z"/><path class="cls-4" d="M346.92,179.06l.74,5.46L256,241.86l-81.73-92.19h0a91.75,91.75,0,0,1,172.65,29.4Z"/><polygon class="cls-5" points="338.5 225.64 259.48 357.32 195.78 219.15 250.39 280.76 338.5 225.64"/><polygon class="cls-3" points="230.28 408.98 244.11 438.98 99.62 438.98 132.42 196.72 155.82 247.47 133.96 408.98 230.28 408.98"/><polygon class="cls-4" points="155.82 247.47 230.28 408.98 133.96 408.98 155.82 247.47"/><path class="cls-6" d="M153.28,126a121.76,121.76,0,0,1,222.05,41.22"/><polyline class="cls-6" points="132.42 196.72 99.62 438.98 244.11 438.98"/><polyline class="cls-6" points="271.47 438.98 412.38 438.98 386.45 247.39"/><path class="cls-6" d="M174.27,149.66a91.75,91.75,0,0,1,172.65,29.4l.74,5.46"/><polyline class="cls-6" points="230.28 408.98 133.96 408.98 155.82 247.47"/><polyline class="cls-6" points="361.74 288.56 378.04 408.98 289.47 408.98"/><polyline class="cls-6" points="256 421.42 137.34 164.07 125.12 137.56 83.48 47.24 153.28 125.99 174.27 149.66 174.27 149.67 256 241.86 347.66 184.52 375.33 167.21 426.86 134.97 428.52 133.93 386.88 203.32"/><polyline class="cls-6" points="125.12 137.56 83.48 90.58 132.42 196.7 132.42 196.71 132.42 196.72 155.82 247.47 230.28 408.98 244.11 438.98 256 464.76 271.47 438.98 289.47 408.98 361.74 288.56 386.45 247.39 386.45 247.38 428.52 177.27 386.88 203.32"/><polyline class="cls-6" points="426.86 134.97 386.88 203.32 256 421.42"/><polygon class="cls-6" points="195.78 219.15 250.39 280.76 338.5 225.64 259.48 357.32 195.78 219.15"/></g></g></svg>