<svg xmlns="http://www.w3.org/2000/svg" viewBox="0 0 512 512"><defs><style>.cls-1{fill:#f44f2f;}.cls-2{fill:#ccc;}.cls-3{fill:#52c0d7;}.cls-4{fill:#0ef9fd;}.cls-5{fill:#999;}.cls-6{fill:#f1552d;}.cls-7{fill:#6e706d;}.cls-8{fill:none;stroke:#000;stroke-miterlimit:10;stroke-width:6px;}</style></defs><g id="SS"><g id="S2"><path class="cls-1" d="M491.11,275.15a8.64,8.64,0,0,1-8.12,11.6H357.87l14.56-11.6Z"/><path class="cls-2" d="M491.11,275.15H372.43l-13.24-38.1a17.46,17.46,0,0,1,16.5-23.2h27L424,228.1H383.77c-2.77,0-5.28,1.69-7.09,4.43a19.52,19.52,0,0,0-2.95,10.73,22.3,22.3,0,0,0,.64,5.33c1.43,5.73,5.1,9.82,9.4,9.82h85.3L487.79,271A8.54,8.54,0,0,1,491.11,275.15Z"/><path class="cls-3" d="M469.07,258.42h-85.3c-4.3,0-8-4.09-9.4-9.82h80.09l5.05,3.4Z"/><path class="cls-4" d="M454.45,248.6H374.37a22.3,22.3,0,0,1-.64-5.33,19.52,19.52,0,0,1,2.95-10.73c1.81-2.74,4.32-4.43,7.09-4.43H424l16.31,11,7.94,5.34Z"/><path class="cls-5" d="M402.73,213.85h-27a17.46,17.46,0,0,0-16.5,23.2l13.24,38.1-14.56,11.6-27,14.67-146.27-.83-19.26-13.84L128.91,250.3h48.61l18.78-18.78a11.06,11.06,0,0,0,1.63,2,11.4,11.4,0,0,0,8.11,3.36,4.86,4.86,0,0,1,4.85,4.86v17a4.85,4.85,0,0,1-4.85,4.85,11.49,11.49,0,0,0-11.48,11.48H228a4.08,4.08,0,0,1,4.09-4.08H239a4.08,4.08,0,0,1,4.08,4.08h12a4.08,4.08,0,0,1,4.09-4.08h6.92a4.08,4.08,0,0,1,4.08,4.08h12a4.08,4.08,0,0,1,4.08-4.08h6.93a4.08,4.08,0,0,1,4.08,4.08h10.06l2.67,3.08h20.83a11.72,11.72,0,0,0,11.71-11.72V234.08a11.71,11.71,0,0,0-11.71-11.71H310.06l-2.67,3.08H297.32a4.08,4.08,0,0,1-4.07,3.78h-6.93a4.08,4.08,0,0,1-4.07-3.78H270.2a4.08,4.08,0,0,1-4.07,3.78h-6.92a4.09,4.09,0,0,1-4.08-3.78h-12a4.08,4.08,0,0,1-4.07,3.78h-6.92a4.09,4.09,0,0,1-4.08-3.78H202.37l11.6-11.6c2.66-2.66,10.95-7.93,15-7.93H387.16Z"/><path class="cls-1" d="M342.6,253.37v13.14a11.72,11.72,0,0,1-11.71,11.72V253.37Z"/><rect class="cls-1" x="330.89" y="247.22" width="11.71" height="6.15"/><path class="cls-1" d="M342.6,234.08v13.14H330.89V222.37A11.71,11.71,0,0,1,342.6,234.08Z"/><polygon class="cls-2" points="330.89 253.37 330.89 275.15 330.89 278.23 320.48 278.23 298.94 253.37 298.94 247.22 320.48 222.37 330.89 222.37 330.89 225.45 330.89 247.22 330.89 253.37"/><polygon class="cls-6" points="320.48 222.37 298.94 247.22 298.94 253.37 320.48 278.23 310.06 278.23 307.39 275.15 290.6 255.78 288.52 253.37 288.52 247.22 290.6 244.82 307.39 225.45 310.06 222.37 320.48 222.37"/><path class="cls-2" d="M307.39,225.45,290.6,244.82H210.89v-3a4.86,4.86,0,0,0-4.85-4.86,11.4,11.4,0,0,1-8.11-3.36,11.06,11.06,0,0,1-1.63-2,11.33,11.33,0,0,1-1.74-6.07H228a4.09,4.09,0,0,0,4.08,3.78H239a4.08,4.08,0,0,0,4.07-3.78h12a4.09,4.09,0,0,0,4.08,3.78h6.92a4.08,4.08,0,0,0,4.07-3.78h12.05a4.08,4.08,0,0,0,4.07,3.78h6.93a4.08,4.08,0,0,0,4.07-3.78Z"/><path class="cls-2" d="M290.6,255.78l16.79,19.37H297.33a4.08,4.08,0,0,0-4.08-4.08h-6.93a4.08,4.08,0,0,0-4.08,4.08h-12a4.08,4.08,0,0,0-4.08-4.08h-6.92a4.08,4.08,0,0,0-4.09,4.08h-12a4.08,4.08,0,0,0-4.08-4.08h-6.92a4.08,4.08,0,0,0-4.09,4.08H194.56A11.49,11.49,0,0,1,206,263.67a4.85,4.85,0,0,0,4.85-4.85v-3Z"/><polygon class="cls-6" points="288.52 253.37 290.6 255.78 210.89 255.78 210.89 244.82 290.6 244.82 288.52 247.22 288.52 253.37"/><path class="cls-5" d="M214,213.85l-11.6,11.6h-7.81a11.33,11.33,0,0,0,1.74,6.07H82.18L74.1,215.88l-1-2H214Z"/><polygon class="cls-5" points="196.3 231.52 177.52 250.3 141.5 250.3 128.91 250.3 126.22 250.3 125.77 250.3 91.87 250.3 82.18 231.52 196.3 231.52"/><polygon class="cls-1" points="170.02 213.85 141.5 213.85 128.91 213.85 123.31 213.85 105.14 213.85 75.2 213.85 54.56 205.58 54.56 205.57 45.01 152.51 106.27 200.5 77.33 194.44 94.21 213.8 170.02 213.85"/><polygon class="cls-5" points="170.02 213.85 94.21 213.8 77.33 194.44 106.27 200.5 170.02 213.85"/><polygon class="cls-1" points="125.77 250.3 126.22 250.3 43.49 341.74 43.48 341.73 48.77 302.47 89.33 250.3 91.87 250.3 125.77 250.3"/><path class="cls-7" d="M89.33,250.3H83.89c-6.94,0-12.57-8.16-12.57-18.23,0-5,.17-12.42,2.44-15.72.11-.16.22-.32.34-.47l8.08,15.64,9.69,18.78Z"/><polygon class="cls-5" points="89.33 250.3 48.77 302.47 50.36 290.67 53.64 266.33 83.89 250.3 89.33 250.3"/><polygon class="cls-7" points="54.56 205.57 54.56 205.58 45.38 201.9 35.09 144.74 45.01 152.51 54.56 205.57"/><polygon class="cls-7" points="53.64 266.33 50.36 290.67 48.77 302.47 43.48 341.73 43.49 341.74 20.39 367.26 36.97 275.16 53.64 266.33"/><line class="cls-8" x1="123.31" y1="213.85" x2="128.91" y2="213.85"/><polyline class="cls-8" points="91.87 250.3 82.18 231.52 74.1 215.88 73.05 213.85 75.2 213.85"/><line class="cls-8" x1="128.91" y1="250.3" x2="126.22" y2="250.3"/><polyline class="cls-8" points="202.37 225.45 213.97 213.85 170.02 213.85 141.5 213.85 128.91 213.85"/><polyline class="cls-8" points="106.27 200.5 45.01 152.51 35.09 144.74 45.38 201.9 54.56 205.58 75.2 213.85 105.14 213.85 123.31 213.85"/><line class="cls-8" x1="54.56" y1="205.57" x2="45.01" y2="152.51"/><polyline class="cls-8" points="83.89 250.3 53.64 266.33 36.97 275.16 20.39 367.26 43.49 341.74 126.22 250.3 125.77 250.3 91.87 250.3"/><polyline class="cls-8" points="125.77 250.3 124.46 251.71 124.44 251.72"/><polyline class="cls-8" points="43.48 341.73 48.77 302.47 50.36 290.67 53.64 266.33"/><path class="cls-8" d="M330.89,278.23a11.72,11.72,0,0,0,11.71-11.72V234.08a11.71,11.71,0,0,0-11.71-11.71v55.86Z"/><line class="cls-8" x1="342.6" y1="253.37" x2="330.89" y2="253.37"/><line class="cls-8" x1="342.6" y1="247.22" x2="330.89" y2="247.22"/><polyline class="cls-8" points="330.89 278.23 320.48 278.23 310.06 278.23 307.39 275.15 290.6 255.78 288.52 253.37 288.52 247.22 290.6 244.82 307.39 225.45 310.06 222.37 320.48 222.37 330.89 222.37"/><polyline class="cls-8" points="320.48 278.23 298.94 253.37 298.94 247.22 320.48 222.37"/><line class="cls-8" x1="210.89" y1="255.78" x2="290.6" y2="255.78"/><line class="cls-8" x1="290.6" y1="244.82" x2="210.89" y2="244.82"/><path class="cls-8" d="M307.39,275.15H297.33a4.08,4.08,0,0,0-4.08-4.08h-6.93a4.08,4.08,0,0,0-4.08,4.08h-12a4.08,4.08,0,0,0-4.08-4.08h-6.92a4.08,4.08,0,0,0-4.09,4.08h-12a4.08,4.08,0,0,0-4.08-4.08h-6.92a4.08,4.08,0,0,0-4.09,4.08H194.56A11.49,11.49,0,0,1,206,263.67a4.85,4.85,0,0,0,4.85-4.85v-17a4.86,4.86,0,0,0-4.85-4.86,11.4,11.4,0,0,1-8.11-3.36,11.06,11.06,0,0,1-1.63-2,11.33,11.33,0,0,1-1.74-6.07H228a4.09,4.09,0,0,0,4.08,3.78H239a4.08,4.08,0,0,0,4.07-3.78h12a4.09,4.09,0,0,0,4.08,3.78h6.92a4.08,4.08,0,0,0,4.07-3.78h12.05a4.08,4.08,0,0,0,4.07,3.78h6.93a4.08,4.08,0,0,0,4.07-3.78h10.07"/><polyline class="cls-8" points="491.11 275.15 372.43 275.15 357.87 286.75"/><polyline class="cls-8" points="165.36 286.75 128.91 250.3 141.5 250.3 177.52 250.3 196.3 231.52"/><path class="cls-8" d="M454.45,248.6l-6.25-4.2-7.94-5.34L424,228.1l-21.22-14.25h-27a17.46,17.46,0,0,0-16.5,23.2l13.24,38.1"/><path class="cls-8" d="M357.87,286.75H483a8.64,8.64,0,0,0,8.12-11.6,8.54,8.54,0,0,0-3.32-4.16l-18.72-12.57L459.51,252l-5.05-3.4"/><path class="cls-8" d="M424,228.11H383.77c-2.77,0-5.28,1.69-7.09,4.43a19.52,19.52,0,0,0-2.95,10.73,22.3,22.3,0,0,0,.64,5.33c1.43,5.73,5.1,9.82,9.4,9.82h85.3"/><polygon class="cls-8" points="170.02 213.85 106.27 200.5 77.33 194.44 94.21 213.8 170.02 213.85"/><path class="cls-8" d="M402.73,213.85l-15.57-7.93H229c-4.08,0-12.37,5.27-15,7.93"/><polyline class="cls-8" points="357.87 286.75 330.89 301.42 184.62 300.59 165.36 286.75"/><line class="cls-8" x1="82.18" y1="231.52" x2="196.3" y2="231.52"/><path class="cls-8" d="M74.1,215.88c-.12.15-.23.31-.34.47-2.27,3.3-2.44,10.69-2.44,15.72,0,10.07,5.63,18.23,12.57,18.23h8"/><polyline class="cls-8" points="89.66 249.88 89.33 250.3 48.77 302.47"/><polyline class="cls-8" points="454.46 248.6 454.45 248.6 374.37 248.6"/></g></g></svg>