<svg xmlns="http://www.w3.org/2000/svg" viewBox="0 0 1024 1024"><defs><style>.cls-1{fill:#ccc;}.cls-2{fill:#0ef9fd;}.cls-3{fill:#2eef7c;}.cls-4{fill:#52c0d7;}.cls-5{fill:#999;}.cls-6{fill:#30f259;}.cls-7{fill:#6e706d;}.cls-8{fill:none;stroke:#000;stroke-miterlimit:10;stroke-width:7px;}</style></defs><g id="SS"><g id="L5"><path class="cls-1" d="M986.88,498.1c12.73,19.85,19.56,40.84,19.56,62.54,0,82.37-88.79,152.17-233.93,190.74a414.25,414.25,0,0,1-42.31,8.84h0a126.21,126.21,0,0,1-16.08,1.52l.46-1.25A431.71,431.71,0,0,1,986.87,498.11Zm-45.35,88.84a21.64,21.64,0,1,0-21.64,21.64A21.64,21.64,0,0,0,941.53,586.94Zm-9.12,58.72a20.09,20.09,0,1,0-20.09,20.09A20.09,20.09,0,0,0,932.41,645.66Zm-66.22,10.75a20.81,20.81,0,1,0-20.8,20.8A20.8,20.8,0,0,0,866.19,656.41Z"/><path class="cls-2" d="M986.88,498.1h0a431.14,431.14,0,0,0-106.33,51.46v-.73h-72.4a639,639,0,0,1,139.25-94.36C963.78,468.22,977.08,482.83,986.88,498.1Z"/><path class="cls-3" d="M919.89,565.3a21.64,21.64,0,1,1-21.63,21.64A21.64,21.64,0,0,1,919.89,565.3Z"/><path class="cls-1" d="M927.89,439.55q10.36,7.26,19.5,14.93a639,639,0,0,0-139.25,94.36,630.21,630.21,0,0,0-75.84,80.58,621.44,621.44,0,0,0-74.19,120.06,166.1,166.1,0,0,1-17.55-9.78l-1.52-1a585,585,0,0,1,83.11-137.78q10.83-13.37,22.41-26.07A585.67,585.67,0,0,1,927.89,439.55Z"/><circle class="cls-3" cx="912.32" cy="645.66" r="20.09"/><path class="cls-4" d="M880.54,548.84v.73a431.52,431.52,0,0,0-89.68,79.85H732.3a630.21,630.21,0,0,1,75.84-80.58Z"/><path class="cls-5" d="M794.46,376.91c53,16.72,98.39,38,133.43,62.64A585.67,585.67,0,0,0,744.56,574.87L562.87,497.73a407.43,407.43,0,0,0-185.63-31.56,641.3,641.3,0,0,0-344.71,128,43.76,43.76,0,0,1-15-32.86v-.62c0-44.4,28.55-85.77,77.8-120.57,71.63-50.62,187-87.33,322.05-99.17,30.62-2.68,62.24-4.09,94.59-4.09q6.62,0,13.19.08C625.17,338.07,717.75,352.69,794.46,376.91Zm27.18,67.67a15.56,15.56,0,1,0-15.56,15.57A15.56,15.56,0,0,0,821.64,444.58Zm-49.2,8.57A39.87,39.87,0,1,0,732.58,493,39.87,39.87,0,0,0,772.44,453.15ZM684.55,429a24.13,24.13,0,1,0-24.13,24.13A24.13,24.13,0,0,0,684.55,429ZM240.27,413.28a15,15,0,1,0-15,15A15,15,0,0,0,240.27,413.28ZM202.06,453.5A24.49,24.49,0,1,0,177.58,478,24.48,24.48,0,0,0,202.06,453.5Zm-65.17,21.77a15,15,0,1,0-15,15A15,15,0,0,0,136.89,475.27Z"/><path class="cls-3" d="M845.39,635.6a20.81,20.81,0,1,1-20.81,20.81A20.8,20.8,0,0,1,845.39,635.6Z"/><path class="cls-3" d="M806.08,429a15.57,15.57,0,1,1-15.56,15.56A15.56,15.56,0,0,1,806.08,429Z"/><path class="cls-1" d="M736.75,262.2c59.06,0,92.91,67.28,57.71,114.7h0c-76.71-24.22-169.29-38.84-269.27-40A179.08,179.08,0,0,1,670.7,262.2ZM750,308.73v-.27a10.82,10.82,0,0,0-10.82-10.82H627.43a10.81,10.81,0,0,0-10.82,10.82v.27a10.81,10.81,0,0,0,10.82,10.82H739.15A10.82,10.82,0,0,0,750,308.73Z"/><path class="cls-2" d="M732.3,629.42h58.56a431.46,431.46,0,0,0-76.3,131.07l-.46,1.25c-20.44.63-38.76-4-56-12.26A621.44,621.44,0,0,1,732.3,629.42Z"/><path class="cls-3" d="M732.58,413.28a39.87,39.87,0,1,1-39.87,39.87A39.87,39.87,0,0,1,732.58,413.28Z"/><rect class="cls-6" x="616.61" y="297.64" width="133.36" height="21.91" rx="10.82"/><path class="cls-6" d="M562.87,497.73l181.69,77.14Q733,587.56,722.15,600.94L562.86,533.31a407.77,407.77,0,0,0-185.62-31.57A641.41,641.41,0,0,0,67.78,604.93a44.53,44.53,0,0,1-35.25-10.81A641.3,641.3,0,0,1,377.24,466.17,407.43,407.43,0,0,1,562.87,497.73Z"/><path class="cls-5" d="M562.86,533.31l159.29,67.63A585,585,0,0,0,639,738.72c-.92-.59-1.84-1.2-2.75-1.82-31.49-21.13-60.58-52.84-94.33-83.56l-19.59-17.16a406.25,406.25,0,0,0-36.72-27.6h0c-41.84-27.67-92.58-47.94-160.12-47.94-93.26,0-179.16,15.56-247.59,41.7a45,45,0,0,1-10.15,2.59A641.41,641.41,0,0,1,377.24,501.74,407.77,407.77,0,0,1,562.86,533.31Z"/><circle class="cls-3" cx="660.42" cy="429.02" r="24.13"/><path class="cls-5" d="M636.29,736.9H483.75a6.93,6.93,0,0,1-6.94-6.94V615.51a6.94,6.94,0,0,1,6.94-6.93h1.9a406.25,406.25,0,0,1,36.72,27.6L542,653.34C575.71,684.06,604.8,715.77,636.29,736.9Z"/><rect class="cls-5" x="429.47" y="687.34" width="47.34" height="42.63"/><rect class="cls-6" x="429.47" y="658.14" width="47.34" height="29.2"/><rect class="cls-5" x="429.47" y="615.51" width="47.34" height="42.63"/><polygon class="cls-7" points="429.47 687.34 429.47 729.97 429.47 735.3 382.13 751.36 382.13 727.77 382.13 698.87 382.13 686.24 382.13 657.34 382.13 594.12 429.47 610.18 429.47 615.51 429.47 658.14 429.47 687.34"/><rect class="cls-7" x="370.86" y="698.87" width="11.27" height="28.9"/><rect class="cls-7" x="370.86" y="657.34" width="11.27" height="28.9"/><rect class="cls-7" x="370.86" y="617.71" width="10.53" height="27"/><path class="cls-1" d="M260.62,266.23c60.43,0,115.47,28.29,156.79,74.67-135,11.84-250.42,48.55-322,99.17h0c-37.62-74.67,5.83-173.83,79.58-173.83Zm42.68,57.13v-.43a17.21,17.21,0,0,0-17.21-17.2H147.52a17.2,17.2,0,0,0-17.21,17.2v.43a17.2,17.2,0,0,0,17.21,17.21H286.09A17.21,17.21,0,0,0,303.3,323.36ZM137.71,369a15.86,15.86,0,1,0-15.86,15.86A15.86,15.86,0,0,0,137.71,369Z"/><path class="cls-6" d="M303.3,322.93v.43a17.21,17.21,0,0,1-17.21,17.21H147.52a17.2,17.2,0,0,1-17.21-17.21v-.43a17.2,17.2,0,0,1,17.21-17.2H286.09A17.21,17.21,0,0,1,303.3,322.93Z"/><circle class="cls-3" cx="225.26" cy="413.28" r="15.01"/><path class="cls-3" d="M177.58,429a24.48,24.48,0,1,1-24.49,24.48A24.48,24.48,0,0,1,177.58,429Z"/><path class="cls-3" d="M121.85,353.15A15.86,15.86,0,1,1,106,369,15.86,15.86,0,0,1,121.85,353.15Z"/><path class="cls-3" d="M121.85,460.24a15,15,0,1,1-15,15A15,15,0,0,1,121.85,460.24Z"/><path class="cls-8" d="M476.81,730a6.93,6.93,0,0,0,6.94,6.94H636.29"/><path class="cls-8" d="M485.64,608.58h-1.89a6.94,6.94,0,0,0-6.94,6.93"/><path class="cls-8" d="M640.56,739.7a166.1,166.1,0,0,0,17.55,9.78c17.23,8.25,35.55,12.89,56,12.26a126.21,126.21,0,0,0,16.08-1.52h0a414.25,414.25,0,0,0,42.31-8.84C917.65,712.81,1006.44,643,1006.44,560.64c0-21.7-6.83-42.69-19.56-62.54-9.8-15.27-23.1-29.88-39.49-43.62q-9.12-7.67-19.5-14.93c-35-24.62-80.45-45.92-133.43-62.64-76.71-24.22-169.29-38.84-269.27-40q-6.57-.08-13.19-.08c-32.35,0-64,1.41-94.59,4.09-135,11.84-250.42,48.55-322,99.17-49.25,34.8-77.8,76.17-77.8,120.57v.62a43.76,43.76,0,0,0,15,32.86,44.32,44.32,0,0,0,45.4,8.22c68.43-26.14,154.33-41.7,247.59-41.7,67.54,0,118.28,20.27,160.12,47.94h0a406.25,406.25,0,0,1,36.72,27.6L542,653.34c33.75,30.72,62.84,62.43,94.33,83.56.91.62,1.83,1.23,2.75,1.82l1.52,1"/><polyline class="cls-8" points="476.81 658.14 476.81 615.51 429.47 615.51"/><polyline class="cls-8" points="429.47 729.97 476.81 729.97 476.81 687.34"/><line class="cls-8" x1="382.13" y1="686.24" x2="382.13" y2="698.87"/><polyline class="cls-8" points="429.47 658.14 429.47 615.51 429.47 610.18 382.13 594.12 382.13 657.34"/><polyline class="cls-8" points="382.13 727.77 382.13 751.36 429.47 735.3 429.47 729.97 429.47 687.34"/><rect class="cls-8" x="370.86" y="617.71" width="10.53" height="27"/><rect class="cls-8" x="370.86" y="657.34" width="11.27" height="28.9"/><rect class="cls-8" x="370.86" y="698.87" width="11.27" height="28.9"/><rect class="cls-8" x="429.47" y="658.14" width="47.34" height="29.2"/><path class="cls-8" d="M525.19,336.89A179.08,179.08,0,0,1,670.7,262.2h66c59.06,0,92.91,67.28,57.71,114.7"/><rect class="cls-8" x="616.61" y="297.64" width="133.36" height="21.91" rx="10.82"/><path class="cls-8" d="M95.35,440.06c-37.62-74.67,5.83-173.83,79.58-173.83h85.69c60.43,0,115.47,28.29,156.79,74.67"/><path class="cls-8" d="M147.52,340.57H286.09a17.21,17.21,0,0,0,17.21-17.21v-.43a17.21,17.21,0,0,0-17.21-17.2H147.52a17.2,17.2,0,0,0-17.21,17.2v.43A17.2,17.2,0,0,0,147.52,340.57Z"/><path class="cls-8" d="M880.54,549.57a431.14,431.14,0,0,1,106.33-51.46"/><path class="cls-8" d="M714.1,761.74l.46-1.25a431.46,431.46,0,0,1,76.3-131.07"/><path class="cls-8" d="M639,738.72a585,585,0,0,1,83.11-137.78q10.83-13.37,22.41-26.07A585.67,585.67,0,0,1,927.89,439.55h0"/><path class="cls-8" d="M658.11,749.48A621.44,621.44,0,0,1,732.3,629.42a630.21,630.21,0,0,1,75.84-80.58,639,639,0,0,1,139.25-94.36h0"/><path class="cls-8" d="M732.3,629.42h58.56a431.52,431.52,0,0,1,89.68-79.85v-.73h-72.4"/><path class="cls-8" d="M744.56,574.87,562.87,497.73a407.43,407.43,0,0,0-185.63-31.56,641.3,641.3,0,0,0-344.71,128"/><path class="cls-8" d="M67.78,604.93A641.41,641.41,0,0,1,377.24,501.74a407.77,407.77,0,0,1,185.62,31.57l159.29,67.63"/><path class="cls-8" d="M772.44,453.15a39.87,39.87,0,1,1-39.86-39.87A39.87,39.87,0,0,1,772.44,453.15Z"/><circle class="cls-8" cx="660.42" cy="429.02" r="24.13"/><path class="cls-8" d="M821.64,444.58A15.56,15.56,0,1,1,806.08,429,15.57,15.57,0,0,1,821.64,444.58Z"/><path class="cls-8" d="M941.53,586.94a21.64,21.64,0,1,1-21.64-21.64A21.64,21.64,0,0,1,941.53,586.94Z"/><circle class="cls-8" cx="912.32" cy="645.66" r="20.09"/><path class="cls-8" d="M866.19,656.41a20.81,20.81,0,1,1-20.8-20.81A20.8,20.8,0,0,1,866.19,656.41Z"/><path class="cls-8" d="M137.71,369a15.86,15.86,0,1,1-15.86-15.85A15.86,15.86,0,0,1,137.71,369Z"/><path class="cls-8" d="M202.06,453.5A24.49,24.49,0,1,1,177.58,429,24.48,24.48,0,0,1,202.06,453.5Z"/><circle class="cls-8" cx="225.26" cy="413.28" r="15.01"/><path class="cls-8" d="M136.89,475.27a15,15,0,1,1-15-15A15,15,0,0,1,136.89,475.27Z"/></g></g></svg>