<svg xmlns="http://www.w3.org/2000/svg" viewBox="0 0 1024 1024"><defs><style>.cls-1{fill:#52c0d7;}.cls-2{fill:#999;}.cls-3{fill:#0ef9fd;}.cls-4{fill:#f44f2f;}.cls-5{fill:#ccc;}.cls-6{fill:#6e706d;}.cls-7{fill:#f1552d;}.cls-8{fill:none;stroke:#000;stroke-miterlimit:10;stroke-width:7px;}</style></defs><g id="SS"><g id="L1"><polygon class="cls-1" points="936.16 510.78 951.72 613.41 903.7 578.09 860.94 510.78 936.16 510.78"/><path class="cls-2" d="M951.72,613.41H585.5l-115.65-7.23V527H295.12a16.59,16.59,0,0,1,0-33.18H469.85V438.3a7.23,7.23,0,0,1,7.23-7.23h447l-89.34,38.44H546l37.7,108.58h320ZM507.83,562.46V527.57h-4.67a18.2,18.2,0,0,0-18.2,18.2v34.89h4.67A18.2,18.2,0,0,0,507.83,562.46Z"/><polygon class="cls-3" points="924.07 431.07 936.16 510.78 860.94 510.78 834.73 469.51 924.07 431.07"/><polygon class="cls-4" points="907.48 431.07 638.25 431.07 521.53 431.07 546.66 415.45 557.97 415.45 557.97 408.34 582.4 408.34 582.4 415.45 606.08 415.45 606.08 408.34 630.51 408.34 630.51 415.45 654.18 415.45 654.18 408.34 678.61 408.34 678.61 415.45 702.29 415.45 702.29 408.34 726.72 408.34 726.72 415.45 750.4 415.45 750.4 408.34 774.83 408.34 774.83 415.45 798.5 415.45 798.5 408.34 822.93 408.34 822.93 415.45 846.61 415.45 846.61 408.34 871.04 408.34 871.04 415.45 882.35 415.45 907.48 431.07"/><path class="cls-5" d="M860.94,510.78l42.76,67.31h-320L546,469.51H834.73Zm-20.16,18.64v-3.69a7.2,7.2,0,0,0-7.2-7.2H603.07a7.2,7.2,0,0,0-7.2,7.2v3.69a7.2,7.2,0,0,0,7.2,7.2H833.58A7.2,7.2,0,0,0,840.78,529.42Z"/><polygon class="cls-4" points="863.1 613.41 748.18 682.4 541.88 657.27 559.12 639.93 559.13 639.94 742.66 662.29 824.08 613.41 863.1 613.41"/><path class="cls-4" d="M840.78,525.73v3.69a7.2,7.2,0,0,1-7.2,7.2H603.07a7.2,7.2,0,0,1-7.2-7.2v-3.69a7.2,7.2,0,0,1,7.2-7.2H833.58A7.2,7.2,0,0,1,840.78,525.73Z"/><polygon class="cls-2" points="824.08 613.41 742.66 662.29 559.13 639.94 559.12 639.93 585.5 613.41 824.08 613.41"/><path class="cls-5" d="M585.5,613.41l-26.38,26.52-17.24,17.34L417.13,681.7l9.33-30.32H467a8.82,8.82,0,0,0,0-17.64H431.89L439,610.62h0l30.84-4.43Z"/><path class="cls-4" d="M507.83,527.57v34.89a18.2,18.2,0,0,1-18.2,18.2H485V545.77a18.2,18.2,0,0,1,18.2-18.2Z"/><path class="cls-4" d="M467,633.74a8.82,8.82,0,1,1,0,17.64H426.46l5.43-17.64H467Z"/><path class="cls-5" d="M469.85,527v35.24H222.48L72.28,677.17l79-97.43,14.18-17.48V452.77L151.3,435.29l-79-97.43,150.2,114.91H469.85v41.07H295.12a16.59,16.59,0,0,0,0,33.18Zm-213.48-19.5a28.65,28.65,0,1,0-28.65,28.65A28.65,28.65,0,0,0,256.37,507.52Z"/><polygon class="cls-6" points="439.01 610.62 431.89 633.74 426.46 651.38 417.13 681.7 394.45 686.14 419.58 613.41 439.01 610.62"/><path class="cls-4" d="M227.72,478.86a28.66,28.66,0,1,1-28.65,28.66A28.65,28.65,0,0,1,227.72,478.86Zm14.69,28.66a14.69,14.69,0,1,0-14.69,14.69A14.69,14.69,0,0,0,242.41,507.52Z"/><circle class="cls-7" cx="227.72" cy="507.52" r="14.69"/><polygon class="cls-6" points="165.48 452.77 165.48 562.26 151.3 579.74 151.3 553.51 151.3 461.52 151.3 435.29 165.48 452.77"/><path class="cls-6" d="M151.3,461.52v92h-2.52a9.83,9.83,0,0,1-9.84-9.84V471.36a9.84,9.84,0,0,1,9.84-9.84Z"/><polyline class="cls-8" points="903.7 578.09 583.66 578.09 545.96 469.51 834.73 469.51"/><polyline class="cls-8" points="924.07 431.07 834.73 469.51 860.94 510.78 903.7 578.09 951.72 613.41"/><line class="cls-8" x1="860.94" y1="510.78" x2="936.16" y2="510.78"/><path class="cls-8" d="M833.58,536.62H603.07a7.2,7.2,0,0,1-7.2-7.2v-3.69a7.2,7.2,0,0,1,7.2-7.2H833.58a7.2,7.2,0,0,1,7.2,7.2v3.69A7.2,7.2,0,0,1,833.58,536.62Z"/><path class="cls-8" d="M489.63,580.66H485V545.77a18.2,18.2,0,0,1,18.2-18.2h4.67v34.89A18.2,18.2,0,0,1,489.63,580.66Z"/><polyline class="cls-8" points="907.48 431.07 882.35 415.45 871.04 415.45 871.04 408.34 846.61 408.34 846.61 415.45 822.93 415.45 822.93 408.34 798.5 408.34 798.5 415.45 774.83 415.45 774.83 408.34 750.4 408.34 750.4 415.45 726.72 415.45 726.72 408.34 702.29 408.34 702.29 415.45 678.61 415.45 678.61 408.34 654.18 408.34 654.18 415.45 630.51 415.45 630.51 408.34 606.08 408.34 606.08 415.45 582.4 415.45 582.4 408.34 557.97 408.34 557.97 415.45 546.66 415.45 521.53 431.07"/><polyline class="cls-8" points="165.48 562.26 151.3 579.74 72.28 677.17 222.48 562.26 469.85 562.26"/><polyline class="cls-8" points="469.85 452.77 222.48 452.77 72.28 337.86 151.3 435.29 165.48 452.77"/><path class="cls-8" d="M439,610.62l-19.43,2.79-25.13,72.73,22.68-4.44,124.75-24.43,17.24-17.34,26.38-26.52H951.72L936.16,510.78l-12.09-79.71h-447a7.23,7.23,0,0,0-7.23,7.23v55.54H295.12a16.59,16.59,0,0,0,0,33.18H469.85v79.16L439,610.61"/><path class="cls-8" d="M256.37,507.52a28.65,28.65,0,1,1-28.65-28.66A28.65,28.65,0,0,1,256.37,507.52Z"/><circle class="cls-8" cx="227.72" cy="507.52" r="14.69"/><line class="cls-8" x1="165.48" y1="562.26" x2="165.48" y2="452.77"/><line class="cls-8" x1="151.3" y1="461.52" x2="151.3" y2="435.29"/><line class="cls-8" x1="151.3" y1="579.74" x2="151.3" y2="553.51"/><path class="cls-8" d="M151.3,553.51h-2.52a9.83,9.83,0,0,1-9.84-9.84V471.36a9.84,9.84,0,0,1,9.84-9.84h2.52Z"/><line class="cls-8" x1="469.85" y1="606.18" x2="585.5" y2="613.41"/><polyline class="cls-8" points="541.88 657.27 748.18 682.4 863.1 613.41"/><polyline class="cls-8" points="559.13 639.94 742.66 662.29 824.08 613.41"/><polyline class="cls-8" points="439.01 610.61 439.01 610.62 431.89 633.74 426.46 651.38 417.13 681.7"/><path class="cls-8" d="M431.9,633.74H467a8.82,8.82,0,1,1,0,17.64H426.46"/></g></g></svg>