<svg xmlns="http://www.w3.org/2000/svg" viewBox="0 0 1024 1024"><defs><style>.cls-1{fill:#52c0d7;}.cls-2{fill:#999;}.cls-3{fill:#0ef9fd;}.cls-4{fill:#f2da30;}.cls-5{fill:#ccc;}.cls-6{fill:#6e706d;}.cls-7{fill:#efd82e;}.cls-8{fill:none;stroke:#000;stroke-miterlimit:10;stroke-width:7px;}</style></defs><g id="SS"><g id="L1"><polygon class="cls-1" points="932.41 510.78 947.97 613.41 899.95 578.09 857.19 510.78 932.41 510.78"/><path class="cls-2" d="M948,613.41H581.75L466.1,606.18V527H291.37a16.59,16.59,0,0,1,0-33.18H466.1V438.3a7.23,7.23,0,0,1,7.23-7.23h447L831,469.51H542.21l37.7,108.58H900ZM504.08,562.46V527.57h-4.67a18.2,18.2,0,0,0-18.2,18.2v34.89h4.67A18.2,18.2,0,0,0,504.08,562.46Z"/><polygon class="cls-3" points="920.32 431.07 932.41 510.78 857.19 510.78 830.98 469.51 920.32 431.07"/><polygon class="cls-4" points="903.73 431.07 634.5 431.07 517.78 431.07 542.91 415.45 554.22 415.45 554.22 408.34 578.65 408.34 578.65 415.45 602.33 415.45 602.33 408.34 626.76 408.34 626.76 415.45 650.43 415.45 650.43 408.34 674.86 408.34 674.86 415.45 698.54 415.45 698.54 408.34 722.97 408.34 722.97 415.45 746.65 415.45 746.65 408.34 771.08 408.34 771.08 415.45 794.75 415.45 794.75 408.34 819.18 408.34 819.18 415.45 842.86 415.45 842.86 408.34 867.29 408.34 867.29 415.45 878.6 415.45 903.73 431.07"/><path class="cls-5" d="M857.19,510.78,900,578.09h-320l-37.7-108.58H831ZM837,529.42v-3.69a7.2,7.2,0,0,0-7.2-7.2H599.32a7.2,7.2,0,0,0-7.2,7.2v3.69a7.2,7.2,0,0,0,7.2,7.2H829.83A7.2,7.2,0,0,0,837,529.42Z"/><polygon class="cls-4" points="859.35 613.41 744.43 682.4 538.13 657.27 555.37 639.93 555.38 639.94 738.91 662.29 820.33 613.41 859.35 613.41"/><path class="cls-4" d="M837,525.73v3.69a7.2,7.2,0,0,1-7.2,7.2H599.32a7.2,7.2,0,0,1-7.2-7.2v-3.69a7.2,7.2,0,0,1,7.2-7.2H829.83A7.2,7.2,0,0,1,837,525.73Z"/><polygon class="cls-2" points="820.33 613.41 738.91 662.29 555.38 639.94 555.37 639.93 581.75 613.41 820.33 613.41"/><path class="cls-5" d="M581.75,613.41l-26.38,26.52-17.24,17.34L413.38,681.7l9.33-30.32h40.55a8.82,8.82,0,0,0,0-17.64H428.14l7.12-23.12h0l30.84-4.43Z"/><path class="cls-4" d="M504.08,527.57v34.89a18.2,18.2,0,0,1-18.2,18.2h-4.67V545.77a18.2,18.2,0,0,1,18.2-18.2Z"/><path class="cls-4" d="M463.26,633.74a8.82,8.82,0,1,1,0,17.64H422.71l5.43-17.64h35.12Z"/><path class="cls-5" d="M466.1,527v35.24H218.73L68.53,677.17l79-97.43,14.18-17.48V452.77l-14.18-17.48-79-97.43,150.2,114.91H466.1v41.07H291.37a16.59,16.59,0,0,0,0,33.18Zm-213.48-19.5A28.65,28.65,0,1,0,224,536.17,28.65,28.65,0,0,0,252.62,507.52Z"/><polygon class="cls-6" points="435.26 610.62 428.14 633.74 422.71 651.38 413.38 681.7 390.7 686.14 415.83 613.41 435.26 610.62"/><path class="cls-4" d="M224,478.86a28.66,28.66,0,1,1-28.65,28.66A28.65,28.65,0,0,1,224,478.86Zm14.69,28.66A14.69,14.69,0,1,0,224,522.21,14.69,14.69,0,0,0,238.66,507.52Z"/><circle class="cls-7" cx="223.97" cy="507.52" r="14.69"/><polygon class="cls-6" points="161.73 452.77 161.73 562.26 147.55 579.74 147.55 553.51 147.55 461.52 147.55 435.29 161.73 452.77"/><path class="cls-6" d="M147.55,461.52v92H145a9.83,9.83,0,0,1-9.84-9.84V471.36a9.84,9.84,0,0,1,9.84-9.84Z"/><polyline class="cls-8" points="899.95 578.09 579.91 578.09 542.21 469.51 830.98 469.51"/><polyline class="cls-8" points="920.32 431.07 830.98 469.51 857.19 510.78 899.95 578.09 947.97 613.41"/><line class="cls-8" x1="857.19" y1="510.78" x2="932.41" y2="510.78"/><path class="cls-8" d="M829.83,536.62H599.32a7.2,7.2,0,0,1-7.2-7.2v-3.69a7.2,7.2,0,0,1,7.2-7.2H829.83a7.2,7.2,0,0,1,7.2,7.2v3.69A7.2,7.2,0,0,1,829.83,536.62Z"/><path class="cls-8" d="M485.88,580.66h-4.67V545.77a18.2,18.2,0,0,1,18.2-18.2h4.67v34.89A18.2,18.2,0,0,1,485.88,580.66Z"/><polyline class="cls-8" points="903.73 431.07 878.6 415.45 867.29 415.45 867.29 408.34 842.86 408.34 842.86 415.45 819.18 415.45 819.18 408.34 794.75 408.34 794.75 415.45 771.08 415.45 771.08 408.34 746.65 408.34 746.65 415.45 722.97 415.45 722.97 408.34 698.54 408.34 698.54 415.45 674.86 415.45 674.86 408.34 650.43 408.34 650.43 415.45 626.76 415.45 626.76 408.34 602.33 408.34 602.33 415.45 578.65 415.45 578.65 408.34 554.22 408.34 554.22 415.45 542.91 415.45 517.78 431.07"/><polyline class="cls-8" points="161.73 562.26 147.55 579.74 68.53 677.17 218.73 562.26 466.1 562.26"/><polyline class="cls-8" points="466.1 452.77 218.73 452.77 68.53 337.86 147.55 435.29 161.73 452.77"/><path class="cls-8" d="M435.26,610.62l-19.43,2.79L390.7,686.14l22.68-4.44,124.75-24.43,17.24-17.34,26.38-26.52H948L932.41,510.78l-12.09-79.71h-447a7.23,7.23,0,0,0-7.23,7.23v55.54H291.37a16.59,16.59,0,0,0,0,33.18H466.1v79.16l-30.84,4.43"/><path class="cls-8" d="M252.62,507.52A28.65,28.65,0,1,1,224,478.86,28.65,28.65,0,0,1,252.62,507.52Z"/><circle class="cls-8" cx="223.97" cy="507.52" r="14.69"/><line class="cls-8" x1="161.73" y1="562.26" x2="161.73" y2="452.77"/><line class="cls-8" x1="147.55" y1="461.52" x2="147.55" y2="435.29"/><line class="cls-8" x1="147.55" y1="579.74" x2="147.55" y2="553.51"/><path class="cls-8" d="M147.55,553.51H145a9.83,9.83,0,0,1-9.84-9.84V471.36a9.84,9.84,0,0,1,9.84-9.84h2.52Z"/><line class="cls-8" x1="466.1" y1="606.18" x2="581.75" y2="613.41"/><polyline class="cls-8" points="538.13 657.27 744.43 682.4 859.35 613.41"/><polyline class="cls-8" points="555.38 639.94 738.91 662.29 820.33 613.41"/><polyline class="cls-8" points="435.26 610.61 435.26 610.62 428.14 633.74 422.71 651.38 413.38 681.7"/><path class="cls-8" d="M428.15,633.74h35.11a8.82,8.82,0,1,1,0,17.64H422.71"/></g></g></svg>