<svg xmlns="http://www.w3.org/2000/svg" viewBox="0 0 512 512"><defs><style>.cls-1{fill:#f1552d;}.cls-2{fill:#999;}.cls-3{fill:#ccc;}.cls-4{fill:#0ef9fd;}.cls-5{fill:#f44f2f;}.cls-6{fill:#6e706d;}.cls-7,.cls-8{fill:none;stroke:#000;stroke-miterlimit:10;stroke-width:6px;}.cls-8{stroke-linecap:round;}</style></defs><g id="SS"><g id="S9"><path class="cls-1" d="M176.86,332.42a27.94,27.94,0,0,1-1.38-39.33l324,46.9H196.07A27.43,27.43,0,0,1,176.86,332.42Z"/><path class="cls-2" d="M15.45,225a75.27,75.27,0,0,1-2.93-20.84h203.7A197.77,197.77,0,0,0,317.56,271.5l179.32,50.39a65.35,65.35,0,0,1,2.6,18.1l-324-46.9L77.21,278.86a75.46,75.46,0,0,1-43.22-22c-1.12-1.15-2.21-2.34-3.25-3.56A75.36,75.36,0,0,1,15.45,225Zm145.87,31.89a7.93,7.93,0,0,0-7.93-7.93H114.28a7.93,7.93,0,0,0,0,15.85h39.11a7.92,7.92,0,0,0,7.93-7.92Z"/><path class="cls-3" d="M496.88,321.89,317.56,271.5a197.77,197.77,0,0,1-101.34-67.36h28.71a197.83,197.83,0,0,0,87.88,52.12l153.64,43.16A84.32,84.32,0,0,1,496.88,321.89Z"/><path class="cls-4" d="M486.45,299.42,332.81,256.26a197.83,197.83,0,0,1-87.88-52.12h44.89C350.72,204.14,450.88,244.21,486.45,299.42Z"/><polygon class="cls-1" points="244.93 204.14 234.38 204.14 201.93 179.06 232.37 179.06 289.82 204.14 244.93 204.14"/><polygon class="cls-3" points="232.37 179.06 201.93 179.06 192.81 172.01 216.22 172.01 232.37 179.06"/><path class="cls-3" d="M176.86,332.42l-47.61-10.54H92.61L42.75,333.62V264.56a75.26,75.26,0,0,0,34.46,14.3l98.27,14.23A27.94,27.94,0,0,0,176.86,332.42Z"/><path class="cls-5" d="M153.39,248.94a7.93,7.93,0,1,1,0,15.85H114.28a7.93,7.93,0,0,1,0-15.85Z"/><path class="cls-6" d="M42.75,293.09v40.53H34V256.87a75.45,75.45,0,0,0,8.76,7.69Z"/><path class="cls-6" d="M34,293.09v40.53a7.33,7.33,0,0,1-7.32-7.33V300.41A7.32,7.32,0,0,1,34,293.09Z"/><path class="cls-6" d="M34,256.87v36.22a7.32,7.32,0,0,1-7.32-7.33V259.88a7.33,7.33,0,0,1,4.07-6.57C31.78,254.53,32.87,255.72,34,256.87Z"/><path class="cls-7" d="M15.45,225a75.27,75.27,0,0,1-2.93-20.84h277.3c60.9,0,161.06,40.07,196.63,95.28a84.32,84.32,0,0,1,10.43,22.47,65.35,65.35,0,0,1,2.6,18.1l-324-46.9L77.21,278.86a75.46,75.46,0,0,1-43.22-22c-1.12-1.15-2.21-2.34-3.25-3.56A75.36,75.36,0,0,1,15.45,225Z"/><path class="cls-7" d="M216.22,204.14A197.77,197.77,0,0,0,317.56,271.5l179.32,50.39"/><path class="cls-7" d="M244.92,204.13h0a197.83,197.83,0,0,0,87.88,52.12l153.64,43.16h0"/><path class="cls-7" d="M499.48,340H196.07a27.43,27.43,0,0,1-19.21-7.57,27.94,27.94,0,0,1-1.38-39.33"/><polyline class="cls-7" points="42.75 333.62 92.61 321.88 129.25 321.88 176.86 332.42 176.87 332.42"/><line class="cls-7" x1="42.75" y1="293.09" x2="42.75" y2="264.56"/><polyline class="cls-7" points="33.99 333.62 42.75 333.62 42.75 293.09"/><path class="cls-7" d="M34,256.87v36.22a7.32,7.32,0,0,1-7.32-7.33V259.88a7.33,7.33,0,0,1,4.07-6.57"/><path class="cls-7" d="M34,293.09a7.32,7.32,0,0,0-7.32,7.32v25.88A7.33,7.33,0,0,0,34,333.62Z"/><path class="cls-8" d="M15.45,225l97.76,1.35A273.63,273.63,0,0,1,211,245.59c30.65,12.3,61.36,24.42,92.38,35.74L326,289.58l38.81,12.89"/><polyline class="cls-8" points="289.82 204.14 232.37 179.06 216.22 172.01 192.81 172.01 201.93 179.06 234.38 204.14"/><line class="cls-8" x1="232.37" y1="179.06" x2="201.93" y2="179.06"/><path class="cls-7" d="M153.39,264.79H114.28a7.93,7.93,0,0,1,0-15.85h39.11a7.93,7.93,0,1,1,0,15.85Z"/></g></g></svg>