<svg xmlns="http://www.w3.org/2000/svg" viewBox="0 0 512 512"><defs><style>.cls-1{fill:#52c0d7;}.cls-2{fill:#0ef9fd;}.cls-3{fill:#ccc;}.cls-4{fill:#30f259;}.cls-5{fill:#2eef7c;}.cls-6{fill:#999;}.cls-7{fill:#6e706d;}.cls-8{fill:none;stroke:#000;stroke-miterlimit:10;stroke-width:6px;}</style></defs><g id="SS"><g id="S3"><path class="cls-1" d="M492.54,249.89c.15,2,.21,4.06.21,6.11a88.69,88.69,0,0,1-4,26.37,86.4,86.4,0,0,1-4.24,11c-2.5.16-5,.25-7.51.25a114.66,114.66,0,0,1-67.62-22,13.32,13.32,0,0,1-5.46-10.74V249.89Z"/><path class="cls-2" d="M492.54,249.89h-88.6V167.18a88.36,88.36,0,0,1,43.89,11.59h0a88.88,88.88,0,0,1,44.7,71.11Z"/><path class="cls-3" d="M484.53,293.34A88.81,88.81,0,0,1,315.13,256V167.18h88.81v93.65a13.32,13.32,0,0,0,5.46,10.74,114.66,114.66,0,0,0,67.62,22C479.52,293.59,482,293.5,484.53,293.34Zm-89-71a8.9,8.9,0,0,0-8.9-8.91H334.42a8.91,8.91,0,0,0,0,17.81h7.13V252a11.37,11.37,0,0,0,11.37,11.36h15.21A11.35,11.35,0,0,0,379.5,252V231.26h7.13a8.89,8.89,0,0,0,8.9-8.9Z"/><path class="cls-4" d="M386.63,213.45a8.91,8.91,0,1,1,0,17.81H334.42a8.91,8.91,0,1,1,0-17.81Z"/><path class="cls-5" d="M379.5,231.26V252a11.35,11.35,0,0,1-11.37,11.36H352.92A11.37,11.37,0,0,1,341.55,252V231.26h12.56v14.37a6.42,6.42,0,0,0,12.83,0V231.26Z"/><path class="cls-3" d="M366.94,231.26v14.37a6.42,6.42,0,0,1-12.83,0V231.26Z"/><path class="cls-6" d="M330.19,305.5l-50.47-8.74q9.81-4.22,19.39-9V224.2A389.66,389.66,0,0,0,190.73,189l-5.09-.86H148.18l-5.41,10.44H96.43a33.06,33.06,0,0,0-23.18,9.45l-54-40.88H315.13V256A88.44,88.44,0,0,0,330.19,305.5Z"/><path class="cls-4" d="M299.11,256v31.8q-9.58,4.76-19.39,9-16.47,7.07-33.51,12.6A389.87,389.87,0,0,1,190.73,323l-5.09.86V256Z"/><path class="cls-4" d="M299.11,224.2V256H185.64V188.17l5.09.86A389.66,389.66,0,0,1,299.11,224.2Z"/><polygon class="cls-5" points="185.64 256 185.64 323.83 148.18 323.83 143.07 313.39 114.06 254.09 142.77 198.61 148.18 188.17 185.64 188.17 185.64 256"/><polygon class="cls-6" points="114.06 254.09 143.07 313.39 96.43 313.39 96.43 198.61 142.77 198.61 114.06 254.09"/><path class="cls-7" d="M96.43,198.61V313.39a33.17,33.17,0,0,1-33.16-33.17V231.77A33.07,33.07,0,0,1,73,208.32l.27-.26A33.06,33.06,0,0,1,96.43,198.61Z"/><line class="cls-8" x1="330.19" y1="305.5" x2="279.72" y2="296.76"/><polyline class="cls-8" points="73.25 208.06 19.25 167.18 315.13 167.18"/><path class="cls-8" d="M447.84,178.78a88.88,88.88,0,0,1,44.7,71.11c.15,2,.21,4.06.21,6.11a88.69,88.69,0,0,1-4,26.37,86.4,86.4,0,0,1-4.24,11A88.81,88.81,0,0,1,315.13,256V167.18h88.81a88.36,88.36,0,0,1,43.89,11.59"/><line class="cls-8" x1="96.43" y1="313.39" x2="143.07" y2="313.39"/><line class="cls-8" x1="142.77" y1="198.61" x2="96.43" y2="198.61"/><path class="cls-8" d="M185.64,188.17l5.09.86A389.66,389.66,0,0,1,299.11,224.2v63.6q-9.58,4.76-19.39,9-16.47,7.07-33.51,12.6A389.87,389.87,0,0,1,190.73,323l-5.09.86"/><path class="cls-8" d="M96.43,313.39V198.61a33.06,33.06,0,0,0-23.18,9.45l-.27.26a33.07,33.07,0,0,0-9.71,23.45v48.45A33.17,33.17,0,0,0,96.43,313.39Z"/><polygon class="cls-8" points="185.64 323.83 148.18 323.83 143.07 313.39 114.06 254.09 142.77 198.61 148.18 188.17 185.64 188.17 185.64 256 185.64 323.83"/><line class="cls-8" x1="185.64" y1="256" x2="299.11" y2="256"/><line class="cls-8" x1="492.54" y1="249.89" x2="403.94" y2="249.89"/><line class="cls-8" x1="447.84" y1="178.78" x2="447.83" y2="178.77"/><path class="cls-8" d="M403.94,167.18v93.65a13.32,13.32,0,0,0,5.46,10.74,114.66,114.66,0,0,0,67.62,22c2.5,0,5-.09,7.51-.25h0"/><line class="cls-8" x1="366.94" y1="231.26" x2="354.11" y2="231.26"/><path class="cls-8" d="M341.55,231.26h-7.13a8.91,8.91,0,1,1,0-17.81h52.21a8.91,8.91,0,1,1,0,17.81H379.5"/><path class="cls-8" d="M341.55,252V231.26h12.56v14.37a6.42,6.42,0,0,0,12.83,0V231.26H379.5V252"/><path class="cls-8" d="M341.55,252a11.37,11.37,0,0,0,11.37,11.36h15.21A11.35,11.35,0,0,0,379.5,252"/></g></g></svg>