<svg xmlns="http://www.w3.org/2000/svg" viewBox="0 0 512 512"><defs><style>.cls-1{fill:#999;}.cls-2{fill:#ccc;}.cls-3{fill:#0ef9fd;}.cls-4{fill:#52c0d7;}.cls-5{fill:#f44f2f;}.cls-6{fill:#f1552d;}.cls-7{fill:#6e706d;}.cls-8,.cls-9{fill:none;stroke:#000;stroke-miterlimit:10;stroke-width:6px;}.cls-9{stroke-linecap:round;}</style></defs><g id="SS"><g id="S4"><path class="cls-1" d="M484.86,272.16c-.52.36-71.15,54.3-71.15,54.3H319.46a40.54,40.54,0,0,0-28.69,11.89l-.1.09a16.87,16.87,0,0,1-12,5H188.15a26.43,26.43,0,0,0-18.7,7.74l-.06.07a11,11,0,0,1-7.81,3.23H101.21A23.43,23.43,0,0,1,77.79,331V239.32h29.14l20.51-12.84H145.3a20.33,20.33,0,0,0-.67,5.15v7.69H123.47L97.05,276.47l26.42,37.15h34.35V311.9a9.67,9.67,0,1,0,19.33,0v4.51H369.58a39.94,39.94,0,0,0,0-79.88h-16a104.68,104.68,0,0,0-3.15-10.05h55.78c13.8,0,24,8.71,35.35,14.64C454.55,247.91,484.64,264.25,484.86,272.16Z"/><path class="cls-2" d="M409.52,276.47H177.15V236.53H369.58A39.94,39.94,0,0,1,409.52,276.47Z"/><path class="cls-2" d="M177.15,276.47H409.52a39.95,39.95,0,0,1-39.94,39.94H177.15V276.47Z"/><path class="cls-3" d="M353.62,236.53H280.31V193.35h36.28c14.05,0,26.46,13.12,33.88,33.13A104.68,104.68,0,0,1,353.62,236.53Z"/><rect class="cls-4" x="220.23" y="193.35" width="60.08" height="43.18"/><path class="cls-3" d="M220.23,193.35v43.18H177.15V241a9.67,9.67,0,0,0-19.33,0v-1.72H144.63v-7.69a20.33,20.33,0,0,1,.67-5.15c4.75-18.7,34-33.13,44.46-33.13Z"/><path class="cls-5" d="M177.15,276.47V311.9a9.67,9.67,0,1,1-19.33,0V241a9.67,9.67,0,0,1,19.33,0Z"/><polygon class="cls-2" points="157.82 241.04 157.82 311.9 157.82 313.62 123.47 313.62 97.05 276.47 123.47 239.32 144.63 239.32 157.82 239.32 157.82 241.04"/><polygon class="cls-5" points="127.44 226.48 106.93 239.32 100.93 239.32 77.79 226.48 27.14 157.55 127.44 226.48"/><polygon class="cls-6" points="100.93 239.32 77.79 239.32 55.05 226.48 77.79 226.48 100.93 239.32"/><polygon class="cls-7" points="77.79 239.32 77.79 331.03 40.92 331.03 40.92 226.48 55.05 226.48 77.79 239.32"/><polygon class="cls-5" points="27.14 157.55 77.79 226.48 55.05 226.48 27.14 157.55"/><path class="cls-7" d="M40.92,226.48V331a10.49,10.49,0,0,1-7.86-3.68,13.38,13.38,0,0,1-3.26-8.89V239.05C29.8,232.11,34.78,226.48,40.92,226.48Z"/><path class="cls-8" d="M144.63,239.32v-7.69a20.33,20.33,0,0,1,.67-5.15c4.75-18.7,34-33.13,44.46-33.13H316.59c14.05,0,26.46,13.12,33.88,33.13a104.68,104.68,0,0,1,3.15,10.05"/><path class="cls-8" d="M177.15,241v-4.51H369.58a39.94,39.94,0,0,1,0,79.88H177.15V311.9"/><path class="cls-8" d="M157.82,311.9a9.67,9.67,0,1,0,19.33,0V241a9.67,9.67,0,0,0-19.33,0"/><polygon class="cls-8" points="144.63 239.32 123.47 239.32 97.05 276.47 123.47 313.62 157.82 313.62 157.82 311.9 157.82 241.04 157.82 239.32 144.63 239.32"/><line class="cls-8" x1="409.52" y1="276.47" x2="177.15" y2="276.47"/><line class="cls-8" x1="145.3" y1="226.48" x2="127.44" y2="226.48"/><polyline class="cls-8" points="127.44 226.48 27.14 157.55 55.05 226.48"/><line class="cls-8" x1="40.92" y1="226.48" x2="55.05" y2="226.48"/><polyline class="cls-8" points="77.79 239.32 77.79 331.03 40.92 331.03"/><path class="cls-8" d="M40.92,226.48V331a10.49,10.49,0,0,1-7.86-3.68,13.38,13.38,0,0,1-3.26-8.89V239.05C29.8,232.11,34.78,226.48,40.92,226.48Z"/><line class="cls-8" x1="77.79" y1="226.48" x2="27.14" y2="157.55"/><path class="cls-8" d="M350.47,226.48h55.78c13.8,0,24,8.71,35.35,14.64,12.95,6.79,43,23.13,43.26,31-.52.36-71.15,54.3-71.15,54.3H319.46a40.54,40.54,0,0,0-28.69,11.89l-.1.09a16.87,16.87,0,0,1-12,5H188.15a26.43,26.43,0,0,0-18.7,7.74l-.06.07a11,11,0,0,1-7.81,3.23H101.21A23.43,23.43,0,0,1,77.79,331"/><line class="cls-9" x1="484.86" y1="272.16" x2="437.99" y2="272.16"/><polyline class="cls-9" points="77.79 226.48 55.05 226.48 77.79 239.32 100.93 239.32 106.93 239.32 127.44 226.48"/><line class="cls-9" x1="77.79" y1="226.48" x2="100.93" y2="239.32"/><line class="cls-8" x1="280.31" y1="193.35" x2="280.31" y2="236.53"/><line class="cls-8" x1="220.23" y1="193.35" x2="220.23" y2="236.53"/></g></g></svg>