<svg xmlns="http://www.w3.org/2000/svg" viewBox="0 0 1024 1024"><defs><style>.cls-1{fill:#ccc;}.cls-2{fill:#999;}.cls-3{fill:#30f259;}.cls-4{fill:#6e706d;}.cls-5{fill:#0ef9fd;}.cls-6{fill:#2eef7c;}.cls-7{fill:none;stroke:#000;stroke-miterlimit:10;stroke-width:7px;}</style></defs><g id="SS"><g id="L4"><path class="cls-1" d="M996.24,512.07q-37,13.33-74.45,25.27H792.16a25.27,25.27,0,0,1-25.27-25.28V512a25.27,25.27,0,0,1,25.27-25.21H921.78Q959.22,498.73,996.24,512.07Zm-75.62,0a9.51,9.51,0,0,0-9.51-9.51H798.43a9.52,9.52,0,0,0,0,19H911.11a9.53,9.53,0,0,0,9.51-9.52Z"/><path class="cls-2" d="M681.4,598.63q-13.75,2.65-27.54,5.12-43.3,7.77-86.93,13.72-13.41,1.83-26.86,3.49-38.79,4.78-77.78,8.13l-24,2.06h0L380,540.79A32.14,32.14,0,0,0,397.83,512H766.89v.06a25.27,25.27,0,0,0,25.27,25.28H921.79A2106,2106,0,0,1,681.4,598.63Zm-17-44.5,27.81-26.89-141.1-1a102.88,102.88,0,0,0-79.3,36.32l-20.6,24.23,108.91,6.16A139.12,139.12,0,0,0,664.43,554.13Z"/><path class="cls-2" d="M921.78,486.79H792.16A25.27,25.27,0,0,0,766.89,512H397.83a32.12,32.12,0,0,0-17.93-28.82h0L438.11,393,462.29,395q39,3.34,77.83,8.14,13.44,1.65,26.87,3.49,43.62,5.94,86.93,13.72,13.79,2.46,27.54,5.12,25.88,5,51.61,10.64Q828.52,457.06,921.78,486.79Zm-370.64,11,141.1-1-27.81-26.9a139.11,139.11,0,0,0-104.28-38.78l-108.91,6.16,20.6,24.23A102.88,102.88,0,0,0,551.14,497.79Z"/><path class="cls-3" d="M911.11,502.55a9.52,9.52,0,0,1,0,19H798.43a9.52,9.52,0,0,1,0-19Z"/><polygon class="cls-4" points="813.17 348.88 758.99 379.85 734.28 375.95 788.47 344.97 813.17 348.88"/><polygon class="cls-4" points="813.17 675.12 788.47 679.03 734.28 648.05 758.99 644.14 813.17 675.12"/><path class="cls-1" d="M788.47,345l-54.19,31-42-6.65L665,365h0l-86.95-13.75-27.2-4.3-79.17-12.51L447,330.54l61.06-29.89,24.7,3.9Zm-56.65,10.82a6.34,6.34,0,0,0-5.27-7.26L535.63,318.35a6.61,6.61,0,0,0-1-.08,6.34,6.34,0,0,0-1,12.61l190.92,30.18a6.85,6.85,0,0,0,1,.08A6.33,6.33,0,0,0,731.82,355.79Z"/><path class="cls-1" d="M788.47,679,532.78,719.44l-24.7,3.91L447,693.46l24.7-3.91L570,674l8.12-1.28L665,659l27.2-4.3,42-6.64Zm-61.92-3.57a6.34,6.34,0,0,0-1-12.61,6.61,6.61,0,0,0-1,.08L533.65,693.11a6.34,6.34,0,0,0,1,12.61,6.85,6.85,0,0,0,1-.08Z"/><path class="cls-3" d="M726.55,348.53a6.34,6.34,0,0,1-1,12.61,6.85,6.85,0,0,1-1-.08L533.65,330.88a6.34,6.34,0,0,1,1-12.61,6.61,6.61,0,0,1,1,.08Z"/><path class="cls-3" d="M731.82,668.21a6.33,6.33,0,0,1-5.27,7.25L535.63,705.64a6.85,6.85,0,0,1-1,.08,6.34,6.34,0,0,1-1-12.61l190.92-30.18a6.61,6.61,0,0,1,1-.08A6.34,6.34,0,0,1,731.82,668.21Z"/><path class="cls-4" d="M672.71,620.2l19.53,34.49L665,659,645.5,624.5l8.36-20.75q13.78-2.46,27.54-5.12Z"/><path class="cls-4" d="M692.24,369.3l-19.53,34.49,8.75,21.72q-13.76-2.65-27.54-5.12l-8.42-20.9L665,365Z"/><path class="cls-1" d="M692.24,496.76l-141.1,1a102.88,102.88,0,0,1-79.3-36.32l-20.6-24.23,108.91-6.16a139.11,139.11,0,0,1,104.28,38.78ZM551,482l102.41-.74a122.89,122.89,0,0,0-92.39-34.37l-77.16,4.37A87.3,87.3,0,0,0,551,482Z"/><path class="cls-1" d="M692.24,527.24l-27.81,26.89a139.12,139.12,0,0,1-104.28,38.79l-108.91-6.16,20.6-24.23a102.88,102.88,0,0,1,79.3-36.32Zm-38.8,15.53L551,542a87.31,87.31,0,0,0-67.14,30.75l77.16,4.37A123,123,0,0,0,653.44,542.77Z"/><path class="cls-5" d="M653.44,481.23,551,482a87.3,87.3,0,0,1-67.14-30.74l77.16-4.37A122.89,122.89,0,0,1,653.44,481.23Z"/><path class="cls-5" d="M551,542l102.41.75a123,123,0,0,1-92.39,34.37l-77.16-4.37A87.31,87.31,0,0,1,551,542Z"/><path class="cls-4" d="M558.56,638.25l19.53,34.49L570,674l-19.08,3-19.53-34.48L540.07,621q13.44-1.66,26.86-3.49Z"/><path class="cls-4" d="M578.09,351.26l-19.53,34.49L567,406.67q-13.43-1.83-26.87-3.49l-8.76-21.73L550.89,347Z"/><path class="cls-1" d="M438.27,631.14h0l-27.33,2.34-57.68-89.38h12.45A32.08,32.08,0,0,0,380,540.79Z"/><path class="cls-1" d="M438.11,393l-58.21,90.2h0a31.88,31.88,0,0,0-14.19-3.3H353.35l57.59-89.24Z"/><polygon class="cls-2" points="353.26 544.11 410.94 633.49 340.08 639.56 256.64 646.72 256.63 646.72 161.93 544.11 353.26 544.11"/><polygon class="cls-2" points="410.94 390.64 353.35 479.88 353.26 479.88 353.26 480.01 161.94 480.01 256.63 377.41 256.64 377.41 340.08 384.57 410.94 390.64"/><path class="cls-3" d="M353.26,480l.09-.13h12.36a32.12,32.12,0,1,1,0,64.23H161.93l-13.4-14.52a25.84,25.84,0,0,1,0-35.05L161.94,480Zm-39.57,32a18.4,18.4,0,1,0-18.4,18.4A18.4,18.4,0,0,0,313.69,512Zm-75.39,0a18.41,18.41,0,1,0-18.41,18.4A18.41,18.41,0,0,0,238.3,512Z"/><polygon class="cls-2" points="326.35 301.88 340.08 384.57 256.64 377.41 326.35 301.88"/><polygon class="cls-2" points="340.08 639.56 326.35 722.25 256.64 646.72 340.08 639.56"/><polygon class="cls-1" points="326.35 301.88 256.64 377.41 256.63 377.41 161.94 480.01 148.53 494.54 43.94 494.54 221.77 301.88 326.35 301.88"/><polygon class="cls-1" points="256.64 646.72 326.35 722.25 221.77 722.25 43.94 529.59 148.53 529.59 161.93 544.11 256.63 646.72 256.64 646.72"/><path class="cls-5" d="M295.29,493.59A18.41,18.41,0,1,1,276.89,512,18.4,18.4,0,0,1,295.29,493.59Z"/><path class="cls-5" d="M219.89,493.59A18.41,18.41,0,1,1,201.49,512,18.41,18.41,0,0,1,219.89,493.59Z"/><path class="cls-6" d="M43.94,494.54H148.53a25.84,25.84,0,0,0,0,35.05H43.94L27.76,512.07Z"/><path class="cls-7" d="M921.78,486.79q-93.16-29.7-188.71-50.64-25.74-5.64-51.61-10.64-13.76-2.65-27.54-5.12-43.3-7.77-86.93-13.72-13.43-1.83-26.87-3.49-38.82-4.8-77.83-8.14L438.11,393l-27.17-2.33-70.86-6.07-83.44-7.16"/><path class="cls-7" d="M256.64,646.72l83.44-7.16,70.86-6.07,27.33-2.34,24-2.06q39-3.35,77.78-8.13,13.44-1.66,26.86-3.49,43.62-6,86.93-13.72,13.78-2.46,27.54-5.12a2106,2106,0,0,0,240.39-61.29"/><path class="cls-7" d="M43.94,494.54,221.77,301.88H326.35l-69.71,75.53h0L161.94,480l-13.41,14.53a25.84,25.84,0,0,0,0,35.05l13.4,14.52,94.7,102.61h0l69.71,75.53H221.77L43.94,529.59"/><line class="cls-7" x1="326.35" y1="301.88" x2="340.08" y2="384.57"/><line class="cls-7" x1="326.35" y1="722.25" x2="340.08" y2="639.56"/><line class="cls-7" x1="353.26" y1="544.11" x2="161.93" y2="544.11"/><line class="cls-7" x1="353.26" y1="480.01" x2="161.94" y2="480.01"/><polyline class="cls-7" points="353.26 480.02 353.26 480.01 353.35 479.88 410.94 390.64"/><line class="cls-7" x1="353.26" y1="544.11" x2="410.94" y2="633.49"/><line class="cls-7" x1="438.27" y1="631.14" x2="379.95" y2="540.79"/><line class="cls-7" x1="438.11" y1="392.97" x2="379.9" y2="483.17"/><path class="cls-7" d="M353.26,544.11h12.45a32.12,32.12,0,1,0,0-64.23H353.26V480"/><polyline class="cls-7" points="550.89 346.96 471.72 334.45 447.02 330.54 508.08 300.65 532.78 304.55 788.47 344.97 813.17 348.88 758.99 379.85 734.28 375.95"/><polyline class="cls-7" points="788.47 344.97 734.28 375.95 692.24 369.3 665.04 365.01 578.09 351.26"/><polyline class="cls-7" points="566.99 406.67 558.56 385.75 578.09 351.26 550.89 346.96 531.36 381.45 540.12 403.18"/><polyline class="cls-7" points="681.46 425.51 672.71 403.79 692.24 369.3 665.04 365 665.04 365.01 645.5 399.49 653.92 420.39"/><path class="cls-7" d="M724.57,361.06,533.65,330.88a6.34,6.34,0,0,1,1-12.61,6.61,6.61,0,0,1,1,.08l190.92,30.18a6.34,6.34,0,0,1-1,12.61A6.85,6.85,0,0,1,724.57,361.06Z"/><polyline class="cls-7" points="692.24 654.69 734.28 648.05 788.47 679.03"/><line class="cls-7" x1="578.09" y1="672.74" x2="665.04" y2="658.99"/><polyline class="cls-7" points="734.28 648.05 758.99 644.14 813.17 675.12 788.47 679.03 532.78 719.44 508.08 723.35 447.02 693.46 471.72 689.55 569.97 674.02"/><polyline class="cls-7" points="540.12 620.82 540.07 620.96 531.36 642.55 550.89 677.03 569.97 674.02 578.09 672.74 558.56 638.25 566.93 617.47 566.99 617.33"/><polyline class="cls-7" points="653.92 603.61 653.86 603.75 645.5 624.5 665.04 658.99 692.24 654.69 672.71 620.2 681.4 598.63 681.46 598.48"/><path class="cls-7" d="M724.57,662.93,533.65,693.11a6.34,6.34,0,0,0,1,12.61,6.85,6.85,0,0,0,1-.08l190.92-30.18a6.34,6.34,0,0,0-1-12.61A6.61,6.61,0,0,0,724.57,662.93Z"/><path class="cls-7" d="M921.78,486.79q37.44,11.94,74.46,25.28-37,13.33-74.45,25.27H792.16a25.27,25.27,0,0,1-25.27-25.28V512a25.27,25.27,0,0,1,25.27-25.21Z"/><path class="cls-7" d="M313.69,512a18.4,18.4,0,1,1-18.4-18.41A18.4,18.4,0,0,1,313.69,512Z"/><path class="cls-7" d="M238.3,512a18.41,18.41,0,1,1-18.41-18.41A18.4,18.4,0,0,1,238.3,512Z"/><polyline class="cls-7" points="148.53 494.54 43.94 494.54 27.76 512.07 43.94 529.59 148.53 529.59"/><path class="cls-7" d="M911.11,521.58H798.43a9.52,9.52,0,0,1,0-19H911.11a9.52,9.52,0,0,1,0,19Z"/><line class="cls-7" x1="397.83" y1="512" x2="766.89" y2="512"/><path class="cls-7" d="M551.14,497.79a102.88,102.88,0,0,1-79.3-36.32l-20.6-24.23,108.91-6.16a139.11,139.11,0,0,1,104.28,38.78l27.81,26.9Z"/><path class="cls-7" d="M653.44,481.23,551,482a87.3,87.3,0,0,1-67.14-30.74l77.16-4.37A122.89,122.89,0,0,1,653.44,481.23Z"/><path class="cls-7" d="M551.14,526.21a102.88,102.88,0,0,0-79.3,36.32l-20.6,24.23,108.91,6.16a139.12,139.12,0,0,0,104.28-38.79l27.81-26.89Z"/><path class="cls-7" d="M653.44,542.77,551,542a87.31,87.31,0,0,0-67.14,30.75l77.16,4.37A123,123,0,0,0,653.44,542.77Z"/></g></g></svg>