<svg xmlns="http://www.w3.org/2000/svg" viewBox="0 0 1024 1024"><defs><style>.cls-1{fill:#ccc;}.cls-2{fill:#999;}.cls-3{fill:#efd82e;}.cls-4{fill:#6e706d;}.cls-5{fill:#0ef9fd;}.cls-6{fill:#f2da30;}.cls-7{fill:none;stroke:#000;stroke-miterlimit:10;stroke-width:7px;}</style></defs><g id="SS"><g id="L4"><path class="cls-1" d="M992.49,512.07q-37,13.33-74.45,25.27H788.41a25.27,25.27,0,0,1-25.27-25.28V512a25.27,25.27,0,0,1,25.27-25.21H918Q955.47,498.73,992.49,512.07Zm-75.62,0a9.51,9.51,0,0,0-9.51-9.51H794.68a9.52,9.52,0,0,0,0,19H907.36a9.53,9.53,0,0,0,9.51-9.52Z"/><path class="cls-2" d="M677.65,598.63q-13.75,2.65-27.54,5.12-43.3,7.77-86.93,13.72-13.41,1.83-26.86,3.49-38.79,4.78-77.78,8.13l-24,2.06h0L376.2,540.79A32.14,32.14,0,0,0,394.08,512H763.14v.06a25.27,25.27,0,0,0,25.27,25.28H918A2106,2106,0,0,1,677.65,598.63Zm-17-44.5,27.81-26.89-141.1-1a102.88,102.88,0,0,0-79.3,36.32l-20.6,24.23,108.91,6.16A139.12,139.12,0,0,0,660.68,554.13Z"/><path class="cls-2" d="M918,486.79H788.41A25.27,25.27,0,0,0,763.14,512H394.08a32.12,32.12,0,0,0-17.93-28.82h0L434.36,393,458.54,395q39,3.34,77.83,8.14,13.44,1.65,26.87,3.49,43.62,5.94,86.93,13.72,13.79,2.46,27.54,5.12,25.88,5,51.61,10.64Q824.77,457.06,918,486.79Zm-370.64,11,141.1-1-27.81-26.9A139.11,139.11,0,0,0,556.4,431.08l-108.91,6.16,20.6,24.23A102.88,102.88,0,0,0,547.39,497.79Z"/><path class="cls-3" d="M907.36,502.55a9.52,9.52,0,0,1,0,19H794.68a9.52,9.52,0,0,1,0-19Z"/><polygon class="cls-4" points="809.42 348.88 755.24 379.85 730.53 375.95 784.72 344.97 809.42 348.88"/><polygon class="cls-4" points="809.42 675.12 784.72 679.03 730.53 648.05 755.24 644.14 809.42 675.12"/><path class="cls-1" d="M784.72,345l-54.19,31-42-6.65-27.2-4.3h0l-86.95-13.75-27.2-4.3L468,334.45l-24.7-3.91,61.06-29.89,24.7,3.9Zm-56.65,10.82a6.34,6.34,0,0,0-5.27-7.26L531.88,318.35a6.61,6.61,0,0,0-1-.08,6.34,6.34,0,0,0-1,12.61l190.92,30.18a6.85,6.85,0,0,0,1,.08A6.33,6.33,0,0,0,728.07,355.79Z"/><path class="cls-1" d="M784.72,679,529,719.44l-24.7,3.91-61.06-29.89,24.7-3.91L566.22,674l8.12-1.28L661.29,659l27.2-4.3,42-6.64Zm-61.92-3.57a6.34,6.34,0,0,0-1-12.61,6.61,6.61,0,0,0-1,.08L529.9,693.11a6.34,6.34,0,0,0,1,12.61,6.85,6.85,0,0,0,1-.08Z"/><path class="cls-3" d="M722.8,348.53a6.34,6.34,0,0,1-1,12.61,6.85,6.85,0,0,1-1-.08L529.9,330.88a6.34,6.34,0,0,1,1-12.61,6.61,6.61,0,0,1,1,.08Z"/><path class="cls-3" d="M728.07,668.21a6.33,6.33,0,0,1-5.27,7.25L531.88,705.64a6.85,6.85,0,0,1-1,.08,6.34,6.34,0,0,1-1-12.61l190.92-30.18a6.61,6.61,0,0,1,1-.08A6.34,6.34,0,0,1,728.07,668.21Z"/><path class="cls-4" d="M669,620.2l19.53,34.49-27.2,4.3L641.75,624.5l8.36-20.75q13.78-2.46,27.54-5.12Z"/><path class="cls-4" d="M688.49,369.3,669,403.79l8.75,21.72q-13.76-2.65-27.54-5.12l-8.42-20.9L661.29,365Z"/><path class="cls-1" d="M688.49,496.76l-141.1,1a102.88,102.88,0,0,1-79.3-36.32l-20.6-24.23,108.91-6.16a139.11,139.11,0,0,1,104.28,38.78ZM547.28,482l102.41-.74a122.89,122.89,0,0,0-92.39-34.37l-77.16,4.37A87.3,87.3,0,0,0,547.28,482Z"/><path class="cls-1" d="M688.49,527.24l-27.81,26.89A139.12,139.12,0,0,1,556.4,592.92l-108.91-6.16,20.6-24.23a102.88,102.88,0,0,1,79.3-36.32Zm-38.8,15.53L547.28,542a87.31,87.31,0,0,0-67.14,30.75l77.16,4.37A123,123,0,0,0,649.69,542.77Z"/><path class="cls-5" d="M649.69,481.23,547.28,482a87.3,87.3,0,0,1-67.14-30.74l77.16-4.37A122.89,122.89,0,0,1,649.69,481.23Z"/><path class="cls-5" d="M547.28,542l102.41.75a123,123,0,0,1-92.39,34.37l-77.16-4.37A87.31,87.31,0,0,1,547.28,542Z"/><path class="cls-4" d="M554.81,638.25l19.53,34.49L566.22,674l-19.08,3-19.53-34.48L536.32,621q13.44-1.66,26.86-3.49Z"/><path class="cls-4" d="M574.34,351.26l-19.53,34.49,8.43,20.92q-13.43-1.83-26.87-3.49l-8.76-21.73L547.14,347Z"/><path class="cls-1" d="M434.52,631.14h0l-27.33,2.34-57.68-89.38H362a32.08,32.08,0,0,0,14.24-3.32Z"/><path class="cls-1" d="M434.36,393l-58.21,90.2h0a31.88,31.88,0,0,0-14.19-3.3H349.6l57.59-89.24Z"/><polygon class="cls-2" points="349.51 544.11 407.19 633.49 336.33 639.56 252.89 646.72 252.88 646.72 158.18 544.11 349.51 544.11"/><polygon class="cls-2" points="407.19 390.64 349.6 479.88 349.51 479.88 349.51 480.01 158.19 480.01 252.88 377.41 252.89 377.41 336.33 384.57 407.19 390.64"/><path class="cls-3" d="M349.51,480l.09-.13H362a32.12,32.12,0,1,1,0,64.23H158.18l-13.4-14.52a25.84,25.84,0,0,1,0-35.05L158.19,480Zm-39.57,32a18.4,18.4,0,1,0-18.4,18.4A18.4,18.4,0,0,0,309.94,512Zm-75.39,0a18.41,18.41,0,1,0-18.41,18.4A18.41,18.41,0,0,0,234.55,512Z"/><polygon class="cls-2" points="322.6 301.88 336.33 384.57 252.89 377.41 322.6 301.88"/><polygon class="cls-2" points="336.33 639.56 322.6 722.25 252.89 646.72 336.33 639.56"/><polygon class="cls-1" points="322.6 301.88 252.89 377.41 252.88 377.41 158.19 480.01 144.78 494.54 40.19 494.54 218.02 301.88 322.6 301.88"/><polygon class="cls-1" points="252.89 646.72 322.6 722.25 218.02 722.25 40.19 529.59 144.78 529.59 158.18 544.11 252.88 646.72 252.89 646.72"/><path class="cls-5" d="M291.54,493.59A18.41,18.41,0,1,1,273.14,512,18.4,18.4,0,0,1,291.54,493.59Z"/><path class="cls-5" d="M216.14,493.59A18.41,18.41,0,1,1,197.74,512,18.41,18.41,0,0,1,216.14,493.59Z"/><path class="cls-6" d="M40.19,494.54H144.78a25.84,25.84,0,0,0,0,35.05H40.19L24,512.07Z"/><path class="cls-7" d="M918,486.79q-93.16-29.7-188.71-50.64-25.74-5.64-51.61-10.64-13.76-2.65-27.54-5.12-43.3-7.77-86.93-13.72-13.43-1.83-26.87-3.49-38.82-4.8-77.83-8.14L434.36,393l-27.17-2.33-70.86-6.07-83.44-7.16"/><path class="cls-7" d="M252.89,646.72l83.44-7.16,70.86-6.07,27.33-2.34,24-2.06q39-3.35,77.78-8.13,13.44-1.66,26.86-3.49,43.62-6,86.93-13.72,13.78-2.46,27.54-5.12A2106,2106,0,0,0,918,537.34"/><path class="cls-7" d="M40.19,494.54,218,301.88H322.6l-69.71,75.53h0L158.19,480l-13.41,14.53a25.84,25.84,0,0,0,0,35.05l13.4,14.52,94.7,102.61h0l69.71,75.53H218L40.19,529.59"/><line class="cls-7" x1="322.6" y1="301.88" x2="336.33" y2="384.57"/><line class="cls-7" x1="322.6" y1="722.25" x2="336.33" y2="639.56"/><line class="cls-7" x1="349.51" y1="544.11" x2="158.18" y2="544.11"/><line class="cls-7" x1="349.51" y1="480.01" x2="158.19" y2="480.01"/><polyline class="cls-7" points="349.51 480.02 349.51 480.01 349.6 479.88 407.19 390.64"/><line class="cls-7" x1="349.51" y1="544.11" x2="407.19" y2="633.49"/><line class="cls-7" x1="434.52" y1="631.14" x2="376.2" y2="540.79"/><line class="cls-7" x1="434.36" y1="392.97" x2="376.15" y2="483.17"/><path class="cls-7" d="M349.51,544.11H362a32.12,32.12,0,1,0,0-64.23H349.51V480"/><polyline class="cls-7" points="547.14 346.96 467.97 334.45 443.27 330.54 504.33 300.65 529.03 304.55 784.72 344.97 809.42 348.88 755.24 379.85 730.53 375.95"/><polyline class="cls-7" points="784.72 344.97 730.53 375.95 688.49 369.3 661.29 365.01 574.34 351.26"/><polyline class="cls-7" points="563.24 406.67 554.81 385.75 574.34 351.26 547.14 346.96 527.61 381.45 536.37 403.18"/><polyline class="cls-7" points="677.71 425.51 668.96 403.79 688.49 369.3 661.29 365 661.29 365.01 641.75 399.49 650.17 420.39"/><path class="cls-7" d="M720.82,361.06,529.9,330.88a6.34,6.34,0,0,1,1-12.61,6.61,6.61,0,0,1,1,.08L722.8,348.53a6.34,6.34,0,0,1-1,12.61A6.85,6.85,0,0,1,720.82,361.06Z"/><polyline class="cls-7" points="688.49 654.69 730.53 648.05 784.72 679.03"/><line class="cls-7" x1="574.34" y1="672.74" x2="661.29" y2="658.99"/><polyline class="cls-7" points="730.53 648.05 755.24 644.14 809.42 675.12 784.72 679.03 529.03 719.44 504.33 723.35 443.27 693.46 467.97 689.55 566.22 674.02"/><polyline class="cls-7" points="536.37 620.82 536.32 620.96 527.61 642.55 547.14 677.03 566.22 674.02 574.34 672.74 554.81 638.25 563.18 617.47 563.24 617.33"/><polyline class="cls-7" points="650.17 603.61 650.11 603.75 641.75 624.5 661.29 658.99 688.49 654.69 668.96 620.2 677.65 598.63 677.71 598.48"/><path class="cls-7" d="M720.82,662.93,529.9,693.11a6.34,6.34,0,0,0,1,12.61,6.85,6.85,0,0,0,1-.08L722.8,675.46a6.34,6.34,0,0,0-1-12.61A6.61,6.61,0,0,0,720.82,662.93Z"/><path class="cls-7" d="M918,486.79q37.44,11.94,74.46,25.28-37,13.33-74.45,25.27H788.41a25.27,25.27,0,0,1-25.27-25.28V512a25.27,25.27,0,0,1,25.27-25.21Z"/><path class="cls-7" d="M309.94,512a18.4,18.4,0,1,1-18.4-18.41A18.4,18.4,0,0,1,309.94,512Z"/><path class="cls-7" d="M234.55,512a18.41,18.41,0,1,1-18.41-18.41A18.4,18.4,0,0,1,234.55,512Z"/><polyline class="cls-7" points="144.78 494.54 40.19 494.54 24.01 512.07 40.19 529.59 144.78 529.59"/><path class="cls-7" d="M907.36,521.58H794.68a9.52,9.52,0,0,1,0-19H907.36a9.52,9.52,0,0,1,0,19Z"/><line class="cls-7" x1="394.08" y1="512" x2="763.14" y2="512"/><path class="cls-7" d="M547.39,497.79a102.88,102.88,0,0,1-79.3-36.32l-20.6-24.23,108.91-6.16a139.11,139.11,0,0,1,104.28,38.78l27.81,26.9Z"/><path class="cls-7" d="M649.69,481.23,547.28,482a87.3,87.3,0,0,1-67.14-30.74l77.16-4.37A122.89,122.89,0,0,1,649.69,481.23Z"/><path class="cls-7" d="M547.39,526.21a102.88,102.88,0,0,0-79.3,36.32l-20.6,24.23,108.91,6.16a139.12,139.12,0,0,0,104.28-38.79l27.81-26.89Z"/><path class="cls-7" d="M649.69,542.77,547.28,542a87.31,87.31,0,0,0-67.14,30.75l77.16,4.37A123,123,0,0,0,649.69,542.77Z"/></g></g></svg>