<svg xmlns="http://www.w3.org/2000/svg" viewBox="0 0 512 512"><defs><style>.cls-1{fill:#ccc;}.cls-2{fill:#f44f2f;}.cls-3{fill:#f1552d;}.cls-4{fill:#52c0d7;}.cls-5{fill:#0ef9fd;}.cls-6{fill:none;stroke:#000;stroke-miterlimit:10;stroke-width:12px;}</style></defs><g id="Logos"><g id="_3" data-name="3"><path class="cls-1" d="M262.92,286.43l-27.36,7.25-51.84,13.74-27.36,7.25L129,321.92,67.36,338.26V211.72a87.22,87.22,0,0,1,87.22-87.22H357.42a87.22,87.22,0,0,1,87.22,87.22v26.54l-42,11.14-27.36,7.26-27.36,7.25-57.6,15.27ZM82.36,318.77l347.28-92a87.22,87.22,0,0,0-87.22-87.22H169.58a87.22,87.22,0,0,0-87.22,87.22Z"/><polygon class="cls-1" points="444.64 238.26 402.6 318.45 402.6 249.41 402.6 249.4 444.64 238.26"/><path class="cls-2" d="M195.24,219.83a35.64,35.64,0,1,0,5,18.27A35.6,35.6,0,0,0,195.24,219.83Zm95-24.08a35.64,35.64,0,1,0,35.64-35.65,35.64,35.64,0,0,0-35.64,35.65Zm-31.33,0h0a23.39,23.39,0,1,0-23.39,23.39A23.39,23.39,0,0,0,259,195.74Zm170.69,31-347.28,92v-92a87.22,87.22,0,0,1,87.22-87.22H342.42A87.22,87.22,0,0,1,429.64,226.72Z"/><path class="cls-3" d="M402.6,318.45v41.14c0,15-11.82,27.6-26.8,27.9h-.56V256.66l27.36-7.26h0Z"/><path class="cls-3" d="M375.24,256.66V387.5a27.35,27.35,0,0,1-27.36-27.36V263.92h0Z"/><path class="cls-4" d="M325.92,160.1a35.64,35.64,0,1,1-35.64,35.65h0A35.64,35.64,0,0,1,325.92,160.1Z"/><polygon class="cls-1" points="347.88 263.92 347.88 318.77 290.28 318.77 290.28 279.18 347.88 263.91 347.88 263.92"/><path class="cls-3" d="M290.28,318.77v20c0,15-11.82,27.6-26.8,27.9h-.56V286.43l27.36-7.25Z"/><path class="cls-3" d="M262.92,286.43v80.29a27.35,27.35,0,0,1-27.36-27.36V293.69h0Z"/><path class="cls-5" d="M259,195.74h0a23.39,23.39,0,1,1-23.39-23.39A23.39,23.39,0,0,1,259,195.75Z"/><polygon class="cls-1" points="235.56 293.69 235.56 318.77 183.72 318.77 183.72 307.43 183.72 307.42 235.56 293.68 235.56 293.69"/><path class="cls-4" d="M195.24,219.83a35.64,35.64,0,1,1-30.6-17.37A35.43,35.43,0,0,1,195.24,219.83Z"/><path class="cls-3" d="M183.72,318.77v5.05c0,15-11.82,27.6-26.8,27.9h-.56V314.67l27.36-7.25h0Z"/><path class="cls-3" d="M156.36,314.67v37.06A27.35,27.35,0,0,1,129,324.37v-2.44h0Z"/><path class="cls-6" d="M444.64,238.26V211.72a87.22,87.22,0,0,0-87.22-87.22H154.58a87.22,87.22,0,0,0-87.22,87.22V338.26L129,321.92l27.36-7.25,27.36-7.25,51.84-13.74,27.36-7.25,27.36-7.25,57.6-15.27,27.36-7.25,27.36-7.26Z"/><path class="cls-6" d="M429.64,226.72l-347.28,92v-92a87.22,87.22,0,0,1,87.22-87.22H342.42A87.22,87.22,0,0,1,429.64,226.72Z"/><path class="cls-6" d="M129,321.93v2.44a27.35,27.35,0,0,0,27.36,27.36h.56c15-.3,26.8-12.91,26.8-27.9V307.43"/><path class="cls-6" d="M235.56,293.69v45.67a27.35,27.35,0,0,0,27.36,27.36h.56c15-.3,26.8-12.91,26.8-27.9V279.18"/><path class="cls-6" d="M347.88,263.92v96.22a27.35,27.35,0,0,0,27.36,27.36h.56c15-.3,26.8-12.91,26.8-27.9V249.41"/><line class="cls-6" x1="347.88" y1="318.77" x2="290.28" y2="318.77"/><line class="cls-6" x1="235.56" y1="318.77" x2="183.72" y2="318.77"/><line class="cls-6" x1="402.6" y1="318.45" x2="444.64" y2="238.26"/><line class="cls-6" x1="375.24" y1="387.5" x2="375.24" y2="256.66"/><polyline class="cls-6" points="262.92 366.72 262.92 286.43 262.92 285.73"/><line class="cls-6" x1="156.36" y1="351.73" x2="156.36" y2="314.67"/><path class="cls-6" d="M164.64,202.46A35.64,35.64,0,1,1,129,238.1,35.6,35.6,0,0,1,164.64,202.46Z"/><path class="cls-6" d="M325.92,160.1a35.64,35.64,0,1,1-35.64,35.65h0A35.64,35.64,0,0,1,325.92,160.1Z"/><path class="cls-6" d="M215.48,207.74a23.39,23.39,0,1,1,43.47-12h0a23.39,23.39,0,0,1-43.47,12Z"/><line class="cls-6" x1="215.48" y1="207.74" x2="195.24" y2="219.83"/><line class="cls-6" x1="290.28" y1="195.75" x2="258.95" y2="195.75"/></g></g></svg>